<svg width="27" height="42" viewBox="0 0 27 42" fill="none" xmlns="http://www.w3.org/2000/svg">
<g clip-path="url(#clip0_618_3853)">
<path d="M14.976 41.9004C16.5948 41.4753 17.57 39.8095 17.1427 38.1989L7.11168 0.387207L1.22466 1.9333L11.2556 39.745C11.6829 41.3556 13.3572 42.3258 14.976 41.9007V41.9004Z" fill="#B6FFDA"/>
<path d="M14.6654 40.7287C15.6392 40.4729 16.2225 39.4768 15.9654 38.5077L6.24538 1.86768L2.71307 2.79528L12.4331 39.4356C12.6902 40.4045 13.6913 40.9848 14.6654 40.729V40.7287Z" fill="#8FF9C6"/>
<path d="M11.6696 22.3154L15.9654 38.5082C16.2225 39.4771 15.6392 40.4734 14.6654 40.7292C13.6916 40.9851 12.6902 40.4047 12.4331 39.4358L8.13733 23.243L11.6694 22.3154H11.6696Z" fill="#4C94FC"/>
<path opacity="0.3" d="M3.4021 1.36133L12.4558 35.4898C12.8831 37.1004 14.5574 38.0706 16.1762 37.6455C16.4415 37.5757 16.6873 37.4701 16.9144 37.3395L17.1424 38.1989C17.5697 39.8095 16.5948 41.4753 14.9757 41.9004C13.3569 42.3255 11.6827 41.3556 11.2554 39.7447L1.22467 1.93304L3.4021 1.36133Z" fill="white"/>
<path d="M7.10989 0.387555L8.00464 3.75928L2.11766 5.30572L1.22291 1.934L7.10989 0.387555Z" fill="#72E8B2"/>
<path d="M1.70154 4.31408L8.2698 2.58926C8.76328 2.45966 9.05768 1.95666 8.92742 1.46569L8.72047 0.685454C8.59021 0.194478 8.08465 -0.0984351 7.59118 0.0311679L1.02292 1.75599C0.312776 1.94255 -0.110839 2.66634 0.0766754 3.37263C0.26419 4.07891 0.991664 4.50064 1.70154 4.31408Z" fill="#72E8B2"/>
<path d="M0.45198 1.90576L1.99569 1.50049C1.60097 1.60422 1.43289 2.26086 1.6204 2.96741C1.80791 3.67369 2.27959 4.16258 2.67432 4.05884L1.1306 4.46411C0.735877 4.56785 0.263939 4.07922 0.0766867 3.37268C-0.110828 2.66613 0.0572535 2.00949 0.45198 1.90602V1.90576Z" fill="#58CC97"/>
<path opacity="0.57" d="M13.6698 34.3941C13.8772 34.3395 14.0023 34.126 13.9476 33.9196L6.59254 6.19497C6.53765 5.98855 6.32308 5.86417 6.11561 5.91852C5.90814 5.97313 5.78313 6.18661 5.83775 6.39303L13.1926 34.1174C13.2475 34.3238 13.462 34.4482 13.6695 34.3938L13.6698 34.3941Z" fill="white"/>
<path d="M20.5104 30.8955C21.6097 31.036 22.6245 30.2563 22.7658 29.1625L26.083 3.48938L22.0858 2.97803L18.7686 28.6514C18.6273 29.745 19.411 30.7549 20.5104 30.8955Z" fill="#B6FFDA"/>
<path d="M20.6131 30.1C21.2744 30.1846 21.8813 29.7182 21.9664 29.0603L25.1809 4.18225L22.7826 3.87549L19.5681 28.7535C19.483 29.4115 19.9518 30.0153 20.6131 30.1Z" fill="#8FF9C6"/>
<path d="M24.5764 8.86194L21.9664 29.0604C21.8814 29.7184 21.2744 30.1848 20.6131 30.1001C19.9518 30.0154 19.4831 29.4116 19.5681 28.7536L22.1781 8.55518L24.5764 8.86194Z" fill="#4C94FC"/>
<path opacity="0.3" d="M23.5645 3.16721L20.5703 26.3398C20.429 27.4333 21.2126 28.4432 22.312 28.5838C22.4922 28.6068 22.6692 28.6028 22.8414 28.5791L22.7661 29.1625C22.6248 30.2561 21.6097 31.036 20.5106 30.8955C19.4113 30.7549 18.6276 29.745 18.7689 28.6514L22.0859 2.97803L23.5645 3.16721Z" fill="white"/>
<path d="M22.086 2.9777L26.083 3.48926L25.787 5.77869L21.79 5.26713L22.086 2.9777Z" fill="#72E8B2"/>
<path d="M21.7823 4.55635L26.242 5.12676C26.5771 5.16962 26.8836 4.93419 26.9266 4.60077L26.9952 4.07086C27.0383 3.73745 26.8016 3.43252 26.4665 3.38967L22.0069 2.81925C21.5247 2.75759 21.0837 3.09649 21.0218 3.57597C20.9598 4.05571 21.3004 4.49443 21.7826 4.55609L21.7823 4.55635Z" fill="#72E8B2"/>
<path d="M21.6191 2.76983L22.6672 2.90387C22.3994 2.86964 22.1317 3.23075 22.0698 3.71023C22.0078 4.18997 22.1748 4.60648 22.4427 4.64071L21.3946 4.50666C21.1267 4.47243 20.9596 4.05567 21.0216 3.57619C21.0836 3.09645 21.351 2.7356 21.6191 2.76983Z" fill="#58CC97"/>
<path opacity="0.57" d="M21.5891 25.9683C21.7301 25.9863 21.8601 25.8863 21.8782 25.7462L24.3104 6.92162C24.3285 6.78131 24.2279 6.65197 24.0872 6.63394C23.9461 6.61591 23.8161 6.71598 23.798 6.85604L21.3656 25.6804C21.3474 25.8207 21.448 25.95 21.5888 25.968L21.5891 25.9683Z" fill="white"/>
</g>
<defs>
<clipPath id="clip0_618_3853">
<rect width="27" height="42" fill="white" transform="matrix(-1 0 0 1 27 0)"/>
</clipPath>
</defs>
</svg>
