<svg width="26" height="44" viewBox="0 0 26 44" fill="none" xmlns="http://www.w3.org/2000/svg">
<g clip-path="url(#clip0_618_3734)">
<path d="M14.222 0.0862808L3.16215 2.40838C1.0138 2.85944 -0.364265 4.97692 0.0841568 7.13791L7.07336 40.8196C7.52178 42.9805 9.62688 44.3667 11.7752 43.9157L22.8351 41.5936C24.9835 41.1425 26.3615 39.025 25.9131 36.864L18.9239 3.18238C18.4755 1.02139 16.3704 -0.36478 14.222 0.0862808Z" fill="#007AFF"/>
<path d="M14.1431 1.50537L3.79925 3.67712C1.79011 4.09895 0.50134 6.07923 0.920706 8.10019L7.45719 39.6002C7.87656 41.6211 9.84525 42.9175 11.8544 42.4956L22.1982 40.3239C24.2073 39.902 25.4961 37.9218 25.0767 35.9008L18.5403 4.40085C18.1209 2.37989 16.1522 1.08354 14.1431 1.50537Z" fill="url(#paint0_linear_618_3734)"/>
<path d="M17.3657 8.71351L11.2639 9.99463L15.1963 28.9452L21.2981 27.6641L17.3657 8.71351Z" fill="#007AFF"/>
<path d="M19.0536 36.3909C20.8611 36.3909 22.3263 34.9171 22.3263 33.099C22.3263 31.281 20.8611 29.8071 19.0536 29.8071C17.2462 29.8071 15.781 31.281 15.781 33.099C15.781 34.9171 17.2462 36.3909 19.0536 36.3909Z" fill="#007AFF"/>
<path d="M19.0538 34.8231C20.0005 34.8231 20.768 34.0511 20.768 33.0988C20.768 32.1465 20.0005 31.3745 19.0538 31.3745C18.1071 31.3745 17.3396 32.1465 17.3396 33.0988C17.3396 34.0511 18.1071 34.8231 19.0538 34.8231Z" fill="#FF0D01"/>
<path d="M16.8987 9.5322L12.0171 10.5571L15.663 28.127L20.5446 27.102L16.8987 9.5322Z" fill="url(#paint1_linear_618_3734)"/>
<path d="M18.5071 17.2812L13.6255 18.3062L15.6634 28.1268L20.545 27.1019L18.5071 17.2812Z" fill="#007AFF"/>
<path d="M18.8636 19.0039L13.9819 20.0288L14.0634 20.4212L18.945 19.3962L18.8636 19.0039Z" fill="#C91B14"/>
<path d="M19.8267 23.6411L14.9451 24.666L15.1078 25.4503L19.9894 24.4254L19.8267 23.6411Z" fill="#C91B14"/>
<path d="M7.07367 7.45963C7.01204 7.50845 6.88203 7.57172 6.70644 7.60866C6.2991 7.694 5.93861 7.49996 5.83984 7.02314C5.74529 6.56797 5.988 6.19518 6.43628 6.10092C6.61653 6.06313 6.73809 6.07799 6.79297 6.0937L6.77988 6.25632C6.70179 6.23679 6.59584 6.23212 6.47554 6.25717C6.13658 6.3285 5.95676 6.59345 6.03612 6.97516C6.10999 7.33097 6.36115 7.51695 6.71277 7.44307C6.82632 7.41929 6.93733 7.37131 7.00487 7.31866L7.07452 7.45963H7.07367Z" fill="black"/>
<path d="M8.35361 6.46591C8.45745 6.96651 8.21009 7.29514 7.84116 7.37242C7.45957 7.45267 7.12948 7.21107 7.03831 6.77119C6.94249 6.30966 7.16494 5.9479 7.55117 5.8668C7.94585 5.78401 8.26412 6.03452 8.35361 6.46591ZM7.23712 6.72534C7.3017 7.03572 7.52669 7.27901 7.82048 7.21744C8.11638 7.15545 8.22697 6.84635 8.15817 6.51601C8.09823 6.22686 7.88549 5.95639 7.57439 6.02178C7.2654 6.08675 7.17085 6.40604 7.23712 6.72534Z" fill="black"/>
<path d="M9.06677 7.09062L8.29346 5.73574L8.4948 5.69328L8.8688 6.36201C8.97179 6.54544 9.06212 6.71061 9.13599 6.87323L9.14021 6.87238C9.14612 6.69575 9.16807 6.49958 9.19298 6.2962L9.28838 5.52641L9.48761 5.48438L9.27276 7.04689L9.06677 7.0902V7.09062Z" fill="black"/>
<path d="M9.83086 5.41309L10.1327 6.8669L9.9461 6.90596L9.64429 5.45215L9.83086 5.41309Z" fill="black"/>
<path d="M10.1606 5.36382C10.2708 5.32263 10.4029 5.28145 10.5511 5.25045C10.8191 5.19398 11.023 5.21648 11.1741 5.30862C11.3274 5.40033 11.4375 5.55276 11.4861 5.78799C11.5355 6.02534 11.5025 6.23467 11.3953 6.39686C11.2885 6.56118 11.0808 6.68134 10.7997 6.74036C10.6668 6.76838 10.5541 6.78537 10.4574 6.79428L10.1606 5.36424V5.36382ZM10.614 6.61001C10.663 6.60873 10.7322 6.59642 10.8048 6.58114C11.2037 6.49749 11.3738 6.22745 11.2923 5.83512C11.2231 5.49162 10.985 5.31414 10.5904 5.39736C10.4937 5.41774 10.4228 5.44152 10.3755 5.46275L10.6136 6.61043L10.614 6.61001Z" fill="black"/>
<path d="M12.2116 5.74805L12.2408 5.88816L11.711 5.99941L11.6819 5.85929L12.2116 5.74805Z" fill="black"/>
<path d="M12.6633 5.05707L12.6591 5.05792L12.4442 5.24049L12.3779 5.10377L12.6485 4.87576L12.8093 4.8418L13.1002 6.24381L12.9178 6.28203L12.6637 5.05707H12.6633Z" fill="black"/>
<path d="M13.6895 5.98039C13.7313 5.97615 13.7773 5.96213 13.8406 5.94175C13.947 5.90354 14.0403 5.83688 14.104 5.74474C14.1787 5.64114 14.2197 5.50442 14.2108 5.33288L14.2045 5.33416C14.1471 5.4454 14.047 5.5248 13.9077 5.5541C13.657 5.60675 13.4565 5.45092 13.4071 5.21145C13.3522 4.94608 13.4945 4.67306 13.7798 4.61319C14.0652 4.55333 14.2893 4.74949 14.3636 5.10742C14.4278 5.41568 14.3695 5.65303 14.2598 5.81565C14.1745 5.94388 14.0399 6.03983 13.8934 6.08824C13.8271 6.11329 13.7676 6.12815 13.722 6.13537L13.6899 5.97997L13.6895 5.98039ZM13.5907 5.15922C13.627 5.33373 13.7575 5.43479 13.9204 5.40039C14.047 5.37364 14.1327 5.29042 14.1644 5.19616C14.1716 5.17663 14.1737 5.1537 14.1673 5.12356C14.1175 4.88409 13.9917 4.71934 13.7942 4.76053C13.6334 4.7945 13.5494 4.96051 13.5903 5.1588L13.5907 5.15922Z" fill="black"/>
<path d="M7.11863 22.4168L6.73915 22.4966L6.71045 22.3586L7.63445 22.1646L7.66316 22.3025L7.28157 22.3828L7.51373 23.5003L7.35079 23.5347L7.11863 22.4172V22.4168Z" fill="black"/>
<path d="M8.55772 22.6662L8.07272 22.7681L8.16685 23.2207L8.70757 23.1074L8.73585 23.2432L8.03388 23.3906L7.77344 22.135L8.44755 21.9937L8.47583 22.1295L7.96297 22.2374L8.04528 22.6339L8.53028 22.532L8.55814 22.6662H8.55772Z" fill="black"/>
<path d="M8.88134 23.0067C8.96281 23.036 9.07594 23.0513 9.18737 23.0279C9.352 22.9931 9.43009 22.8857 9.40392 22.7587C9.37944 22.6415 9.29881 22.5884 9.11688 22.5583C8.89823 22.5286 8.75007 22.4488 8.71334 22.2717C8.67282 22.076 8.80367 21.8972 9.04639 21.8463C9.17429 21.8195 9.27306 21.8297 9.33511 21.8497L9.31823 21.991C9.27306 21.977 9.18189 21.9575 9.06876 21.9813C8.89823 22.0169 8.85475 22.1333 8.87248 22.2186C8.89696 22.3358 8.98476 22.3778 9.17091 22.4088C9.39885 22.4466 9.5276 22.5265 9.56601 22.7107C9.60611 22.9043 9.49847 23.1022 9.20384 23.1638C9.08353 23.1893 8.94466 23.1812 8.86868 23.1506L8.88134 23.0063V23.0067Z" fill="black"/>
<path d="M9.86277 21.8406L9.48329 21.9204L9.45459 21.7824L10.3786 21.5884L10.4073 21.7264L10.0257 21.8066L10.2579 22.9242L10.0949 22.9585L9.86277 21.841V21.8406Z" fill="black"/>
<path d="M11.3021 22.09L10.8171 22.1919L10.9112 22.6446L11.452 22.5312L11.4802 22.6671L10.7783 22.8144L10.5178 21.5589L11.1919 21.4175L11.2202 21.5534L10.7074 21.6612L10.7897 22.0578L11.2747 21.9559L11.3025 22.09H11.3021Z" fill="black"/>
<path d="M2.06381 9.49881C2.05115 9.46187 1.7544 8.58253 1.88357 7.52868C2.00598 6.53131 2.537 5.19044 4.37276 4.46777L4.67584 5.24691C1.90974 6.33599 2.81053 9.10903 2.85021 9.22622L2.06381 9.49838V9.49881Z" fill="white"/>
</g>
<defs>
<linearGradient id="paint0_linear_618_3734" x1="1.05194" y1="34.0184" x2="25.0883" y2="10.1222" gradientUnits="userSpaceOnUse">
<stop offset="0.02" stop-color="#005EB2"/>
<stop offset="0.32" stop-color="#0490AB"/>
<stop offset="0.63" stop-color="#07BEA5"/>
<stop offset="0.86" stop-color="#0ADAA2"/>
<stop offset="1" stop-color="#0BE5A1"/>
</linearGradient>
<linearGradient id="paint1_linear_618_3734" x1="12.0176" y1="18.8288" x2="20.5459" y2="18.8288" gradientUnits="userSpaceOnUse">
<stop offset="0.02" stop-color="#005EB2"/>
<stop offset="1" stop-color="#0BE5A1"/>
</linearGradient>
<clipPath id="clip0_618_3734">
<rect width="26" height="44" fill="white"/>
</clipPath>
</defs>
</svg>
