<svg width="42" height="42" viewBox="0 0 42 42" fill="none" xmlns="http://www.w3.org/2000/svg">
<g clip-path="url(#clip0_618_3875)">
<path d="M42 21C42 32.598 32.598 42 21 42C19.5549 42 18.1437 41.8542 16.7809 41.5759C11.4509 40.4889 6.85549 37.3832 3.82829 33.0912C1.41684 29.6726 0 25.5018 0 21C0 9.40203 9.40203 0 21 0C24.6574 0 28.0961 0.934925 31.0907 2.57921C31.3395 2.71493 31.5851 2.8563 31.827 3.00269C37.9235 6.67768 42 13.3629 42 21Z" fill="url(#paint0_linear_618_3875)"/>
<path d="M33.6063 2.49066C33.2099 2.85382 32.6406 2.90786 32.1926 2.66721L31.827 3.00273C31.5851 2.85633 31.3394 2.71496 31.0906 2.57925L31.6454 2.07032C31.4437 1.60286 31.5467 1.04052 31.9426 0.676728C32.4433 0.217433 33.7345 -0.294639 34.1938 0.206124C34.6531 0.706887 34.1071 2.03136 33.6063 2.49066Z" fill="#007AFF"/>
<path d="M31.8269 3.00258L17.0887 16.5219L16.5408 15.925L31.0905 2.5791C31.3394 2.71482 31.585 2.85619 31.8269 3.00258Z" fill="white"/>
<path d="M22.9189 17.1615C23.5277 17.7483 24.1359 18.3352 24.7447 18.9226C24.9012 19.0734 25.0784 19.2337 25.2958 19.2431C25.5829 19.2556 25.8072 19.0024 25.9567 18.7574C26.4556 17.9393 26.6561 16.9454 26.4814 16.0035C27.2171 15.5926 27.5043 14.625 27.3271 13.8013C27.1499 12.9776 26.5989 12.2833 25.99 11.7015C24.8226 10.5856 23.3882 9.76943 21.869 9.22217C21.1288 10.47 20.7581 11.8573 20.8901 13.3024C21.022 14.7475 21.874 16.1543 22.9189 17.1615Z" fill="#1C664B"/>
<path d="M16.2588 22.9757C15.5494 20.9387 16.7193 12.0713 17.1384 9.8132C17.2905 8.99451 17.5104 8.12493 18.138 7.5783C18.7576 7.03858 19.6328 6.93554 20.4502 6.85637C21.8696 6.71877 23.2896 6.58117 24.7089 6.44357C25.1462 6.40148 25.6891 6.41153 25.8952 6.7992C26.0604 7.10895 25.9046 7.49034 25.7155 7.78627C25.1104 8.73125 24.1384 9.43433 23.0514 9.71267C23.833 11.4386 23.473 13.5856 22.2397 15.0244C23.3373 16.6297 23.9757 18.4104 23.9895 20.355C24.0033 22.2996 23.2732 24.2794 21.8507 25.6051C20.2448 24.9655 18.5936 24.3171 17.0071 23.6297C16.6521 23.4758 16.3863 23.3413 16.2588 22.9763V22.9757Z" fill="#42DB9C"/>
<path d="M25.2016 27.6735C24.9295 31.0588 22.8134 33.8755 20.794 36.6068C19.5305 38.3151 18.2462 40.0436 16.781 41.5761C11.451 40.4891 6.85557 37.3834 3.82837 33.0914C4.49061 33.2805 5.16918 33.3779 5.86598 33.332C8.39178 33.1661 10.4162 31.1398 11.7042 28.9609C12.9916 26.7813 13.8097 24.3239 15.3252 22.2964C19.2477 22.8173 22.6971 24.6105 25.2016 27.6735Z" fill="#E2E2E2"/>
<path d="M23.1646 9.80805C23.1646 9.80428 19.2502 14.3143 19.2923 14.254L17.9666 17.3817C17.9779 17.3622 19.1861 14.2125 19.2012 14.1993L22.9384 9.61768L23.1652 9.80868L23.1646 9.80805Z" fill="#1C664B"/>
</g>
<defs>
<linearGradient id="paint0_linear_618_3875" x1="6.15053" y1="35.8495" x2="35.8495" y2="6.15053" gradientUnits="userSpaceOnUse">
<stop offset="0.02" stop-color="#005EB2"/>
<stop offset="0.32" stop-color="#0490AB"/>
<stop offset="0.63" stop-color="#07BEA5"/>
<stop offset="0.86" stop-color="#0ADAA2"/>
<stop offset="1" stop-color="#0BE5A1"/>
</linearGradient>
<clipPath id="clip0_618_3875">
<rect width="42" height="42" fill="white"/>
</clipPath>
</defs>
</svg>
