<svg width="151" height="118" viewBox="0 0 151 118" fill="none" xmlns="http://www.w3.org/2000/svg">
<path d="M150.853 47.5447C150.46 55.1861 148.194 75.2652 137.302 83.8785C135.18 85.5382 132.379 86.6633 129.11 87.6337C123.052 89.4318 115.381 90.6982 107.432 93.857C104.849 94.7332 102.31 95.683 99.8035 96.6829C99.5502 96.7845 99.2969 96.8861 99.0451 96.9878C93.5714 99.1981 88.2434 101.64 82.9229 104.071C79.9526 105.43 76.9853 106.785 73.9959 108.094C71.4851 109.197 68.9581 110.266 66.4016 111.281C62.617 112.782 58.7691 114.16 54.8077 115.337C54.4735 115.437 54.1377 115.534 53.8019 115.631C-3.37081 130.571 -23.3954 70.519 35.6976 21.7931C36.8433 20.8477 38.017 19.9067 39.2231 18.9716C46.1768 13.5745 54.1318 8.33935 63.1442 3.38842C89.5482 -7.04505 108.998 8.64565 129.69 22.9595C138.893 29.5023 151.139 34.7949 150.853 47.5447Z" fill="url(#paint0_linear_611_3750)"/>
<path d="M82.9229 104.071C79.9526 105.431 76.9853 106.785 73.9959 108.094C71.4851 109.197 68.9581 110.267 66.4016 111.281L42.5865 81.7097L37.4118 71.2718L36.3029 64.3696L36.1718 63.9278L30.1547 43.6338L34.5843 26.9152C34.5843 26.9152 37.3558 26.9446 38.341 30.4141C38.4824 30.9074 38.5869 31.4714 38.6414 32.1135C38.7622 33.5125 38.7636 34.8997 38.7018 36.1779H38.7003C38.6959 36.2722 38.6915 36.3649 38.6856 36.4562C38.6753 36.6388 38.6635 36.82 38.6517 36.9982C38.5987 37.7521 38.5265 38.4575 38.447 39.0922L39.1583 37.5592L39.4263 36.982L39.4572 36.5608L39.5412 35.4254L41.058 31.0768L42.6616 26.4778L42.6705 26.4513L44.7041 20.6183L45.2358 19.0941C45.2358 19.0941 47.3637 19.2797 48.3695 21.7183C48.6714 22.4517 48.8731 23.3897 48.8834 24.5884C48.8996 26.4483 48.7111 28.2714 48.4623 29.8427C48.4505 29.9164 48.4387 29.99 48.4254 30.0621C48.4225 30.0769 48.4196 30.0931 48.4181 30.1093C48.3886 30.283 48.3592 30.4553 48.3297 30.6217C48.3238 30.6482 48.3194 30.6748 48.315 30.7013C48.1766 31.4729 48.0264 32.1636 47.8909 32.7438H47.8894C47.698 33.5596 47.5286 34.1575 47.4417 34.452L48.5256 36.4209L49.5476 38.2793L50.4385 36.0984L51.219 34.1884L51.6299 33.1826L51.9303 32.4478L54.8946 25.1907L55.0655 24.7725C55.0655 24.7725 56.8576 25.0243 57.8266 27.005C58.2272 27.8238 58.4863 28.9371 58.4215 30.4494C58.3229 32.704 57.9253 34.8879 57.5071 36.6359C57.4467 36.8951 57.3848 37.1425 57.323 37.3796C57.3171 37.3987 57.3127 37.4179 57.3083 37.4355C57.3009 37.4635 57.2935 37.4915 57.2876 37.518C57.0491 38.4222 56.8208 39.1614 56.6544 39.668C56.4954 40.154 56.3923 40.4279 56.3923 40.4279L56.1905 46.1284L56.1773 46.498L56.0639 49.7083L56.0506 50.0897L56.1272 50.2281L58.5585 50.6655L62.9866 51.4622L63.022 51.4681L63.3622 51.5299L70.1789 52.7566L72.0403 69.3736L72.2126 70.9125L73.9959 86.824L82.9229 104.071Z" fill="#7A3732"/>
<path d="M73.9959 108.095C71.4851 109.197 68.9581 110.267 66.4016 111.281C62.617 112.782 58.7691 114.16 54.8077 115.337L50.4385 95.997L32.7171 78.1033L25.4173 59.0697C25.4173 59.0697 23.6031 54.7991 31.6288 59.4541C33.6389 60.6204 35.0482 62.1902 36.1718 63.9279C37.9375 66.664 38.9889 69.8227 40.5425 72.497L56.1684 77.4774L73.9959 108.095Z" fill="#964C41"/>
<path d="M83.5723 9.62069C83.5723 10.6589 82.7315 11.4997 81.6933 11.4997C80.6551 11.4997 79.8142 10.6589 79.8142 9.62069C79.8142 8.5825 80.6551 7.74164 81.6933 7.74164C82.7315 7.74164 83.5723 8.5825 83.5723 9.62069Z" fill="#A2D9DA"/>
<path d="M22.1849 43.1992C22.1849 44.7027 20.9671 45.9206 19.4635 45.9206C17.96 45.9206 16.7421 44.7027 16.7421 43.1992C16.7421 41.6956 17.96 40.4778 19.4635 40.4778C20.9671 40.4778 22.1849 41.6956 22.1849 43.1992Z" fill="#A2D9DA"/>
<path d="M88.2508 13.0622C88.2508 15.1386 86.5676 16.8203 84.4927 16.8203C82.4178 16.8203 80.7346 15.1371 80.7346 13.0622C80.7346 10.9873 82.4178 9.30408 84.4927 9.30408C86.5676 9.30408 88.2508 10.9873 88.2508 13.0622Z" fill="#A2D9DA"/>
<path d="M56.5734 0.443359C55.3467 0.443359 54.3527 1.43737 54.3527 2.66406C54.3527 3.89075 55.3467 4.88476 56.5734 4.88476C57.8001 4.88476 58.7941 3.89075 58.7941 2.66406C58.7941 1.43737 57.8001 0.443359 56.5734 0.443359Z" fill="#A2D9DA"/>
<path d="M63.9099 73.8222C63.1589 73.8222 62.5493 74.4319 62.5493 75.1829C62.5493 75.9339 63.1589 76.5436 63.9099 76.5436C64.661 76.5436 65.2706 75.9339 65.2706 75.1829C65.2706 74.4319 64.661 73.8222 63.9099 73.8222Z" fill="#A2D9DA"/>
<path d="M40.0143 51.3804C40.2989 50.6848 39.9657 49.8903 39.2702 49.6058C38.5746 49.3212 37.7801 49.6544 37.4956 50.3499C37.211 51.0455 37.5442 51.84 38.2397 52.1245C38.9353 52.4091 39.7298 52.0759 40.0143 51.3804Z" fill="#A2D9DA"/>
<path d="M50.5275 52.8001C52.4644 50.8631 52.4644 47.7228 50.5275 45.7859C48.5906 43.849 45.4502 43.849 43.5133 45.7859C41.5764 47.7228 41.5764 50.8631 43.5133 52.8001C45.4502 54.737 48.5906 54.737 50.5275 52.8001Z" fill="#A2D9DA"/>
<path d="M54.1757 45.2875C56.2783 43.185 56.2783 39.7761 54.1757 37.6736C52.0732 35.571 48.6643 35.571 46.5618 37.6736C44.4593 39.7761 44.4593 43.185 46.5618 45.2875C48.6643 47.39 52.0732 47.39 54.1757 45.2875Z" fill="#A2D9DA"/>
<path d="M58.1434 52.663C59.2909 49.9199 57.9974 46.766 55.2543 45.6185C52.5111 44.471 49.3572 45.7646 48.2098 48.5077C47.0623 51.2508 48.3558 54.4047 51.0989 55.5522C53.842 56.6996 56.9959 55.4061 58.1434 52.663Z" fill="#A2D9DA"/>
<path d="M49.9864 60.233C52.397 60.233 54.3512 58.2788 54.3512 55.8681C54.3512 53.4575 52.397 51.5033 49.9864 51.5033C47.5758 51.5033 45.6216 53.4575 45.6216 55.8681C45.6216 58.2788 47.5758 60.233 49.9864 60.233Z" fill="#A2D9DA"/>
<path d="M58.2831 63.3607C62.152 63.3607 65.2883 60.2244 65.2883 56.3555C65.2883 52.4866 62.152 49.3503 58.2831 49.3503C54.4142 49.3503 51.2779 52.4866 51.2779 56.3555C51.2779 60.2244 54.4142 63.3607 58.2831 63.3607Z" fill="#A2D9DA"/>
<path d="M58.0003 53.5487C61.8692 53.5487 65.0056 50.4124 65.0056 46.5435C65.0056 42.6746 61.8692 39.5383 58.0003 39.5383C54.1315 39.5383 50.9951 42.6746 50.9951 46.5435C50.9951 50.4124 54.1315 53.5487 58.0003 53.5487Z" fill="#A2D9DA"/>
<path d="M129.11 87.6338C123.052 89.4319 115.381 90.6983 107.432 93.8571C104.849 94.7333 102.31 95.6831 99.8034 96.683C99.5502 96.7846 99.2969 96.8862 99.0451 96.9878L88.3892 69.8005L72.2126 70.9137L71.7531 70.9447L56.1272 67.9729L43.5702 61.972L39.1745 59.8706C39.1745 59.8706 35.3972 58.3641 43.2507 56.2421C44.0591 56.0242 44.8485 55.9093 45.6201 55.8784C47.6052 55.7959 49.4783 56.2554 51.2956 56.8562C52.1776 57.1463 53.0465 57.4717 53.908 57.7839C54.9035 58.1447 55.8886 58.4878 56.8753 58.7455L60.0429 58.3848C63.533 57.9901 64.9511 53.9816 63.0235 51.4694H63.022C63.0161 51.4605 63.0102 51.4532 63.0028 51.4458C62.7363 51.1027 62.4064 50.789 62.0103 50.5151L61.3299 50.0453L61.3255 50.0424H61.3241L57.5439 47.4403L56.1787 46.4978L54.5677 45.3889H54.5662L54.2747 45.1872L51.7241 43.4304L45.5155 39.1539L44.7247 38.609C44.7247 38.609 44.7218 38.609 44.7174 38.6075C44.71 38.6046 44.6982 38.6017 44.6806 38.5972C44.6747 38.5958 44.6703 38.5928 44.6629 38.5913C44.6555 38.5899 44.6482 38.5869 44.6408 38.5855C44.6276 38.581 44.6114 38.5766 44.5952 38.5722C44.4567 38.531 44.2093 38.4573 43.878 38.3484C43.8427 38.3366 43.8073 38.3248 43.7705 38.313C43.5084 38.2261 43.1991 38.1201 42.8516 37.9935C42.7043 37.9405 42.5497 37.883 42.3892 37.8226C42.2301 37.7623 42.0652 37.6989 41.8944 37.6312C41.806 37.5959 41.7147 37.559 41.622 37.5222C41.4379 37.4471 41.2479 37.3691 41.055 37.2866C40.8356 37.1938 40.6088 37.0937 40.3776 36.9906C40.2289 36.9244 40.0772 36.8551 39.924 36.7815C39.8416 36.7432 39.7576 36.7035 39.6737 36.6637C39.603 36.6298 39.5308 36.5945 39.4587 36.5591C39.2098 36.4384 38.958 36.3117 38.7032 36.1777C38.6635 36.1586 38.6222 36.1365 38.581 36.1144C37.8432 35.7271 37.0922 35.2912 36.3618 34.8082C36.191 34.6963 36.0304 34.5829 35.8802 34.468C35.8419 34.4401 35.8051 34.4121 35.7683 34.3826C35.6962 34.3267 35.6255 34.2692 35.5577 34.2118C35.49 34.1558 35.4252 34.0999 35.3619 34.0424C35.191 33.8878 35.0364 33.7347 34.8965 33.5815C34.8553 33.5359 34.8155 33.4917 34.7772 33.446H34.7758C33.6919 32.1781 33.6183 30.972 33.7391 30.2004C33.8127 29.7277 34.281 29.4214 34.7463 29.5362L38.3424 30.4139L41.0594 31.0766L47.8909 32.7436H47.8923L49.15 33.0514L51.2204 34.1882L57.2891 37.5178L62.4653 40.3585L57.5085 36.6372L51.9317 32.4476L48.4637 29.8425H48.4622L45.439 27.5718C45.439 27.5718 45.3374 27.5379 45.1503 27.4702C45.1224 27.4599 45.0929 27.4496 45.0605 27.4378C45.0001 27.4157 44.9353 27.3921 44.8632 27.3641C44.8426 27.3568 44.8219 27.3494 44.7999 27.3406C44.7012 27.3038 44.5907 27.2611 44.47 27.2139C44.417 27.1933 44.3625 27.1727 44.3051 27.1491C44.0739 27.0564 43.8147 26.9503 43.529 26.8281C43.4848 26.809 43.4406 26.7898 43.395 26.7707C43.1976 26.6853 42.99 26.594 42.7721 26.4968C42.7382 26.482 42.7058 26.4658 42.6719 26.4511C41.1183 25.7398 39.1259 24.6972 37.2866 23.338C36.5812 22.8182 36.0673 22.2969 35.6991 21.7932C34.9157 20.7271 34.7802 19.7404 34.8465 19.0115C34.9083 18.3311 35.571 17.8746 36.2248 18.0705L39.2245 18.9717L44.7056 20.6181L48.3709 21.7181L50.1499 22.2527L54.8961 25.1906L57.8281 27.0048L68.5796 33.6581L58.7632 22.7254C58.7632 22.7254 54.3689 21.2675 50.6093 18.4916C48.3783 16.8438 48.0632 15.1886 48.1751 14.115C48.2428 13.4568 48.9114 13.0341 49.5461 13.2241L63.4726 17.4063L96.7286 46.5435L129.111 87.6338H129.11Z" fill="#964C41"/>
<path d="M99.8034 96.683C99.5502 96.7846 99.2969 96.8863 99.0451 96.9879L88.3907 69.8005H88.3892L72.2126 70.9138L71.7531 70.9447L56.1272 67.973L72.0344 69.3734H72.0403L90.7528 67.973L99.8034 96.683Z" fill="#5B2724"/>
<path d="M73.9959 86.8239L72.2126 70.9123L71.7531 70.9447L56.1272 67.9729L43.5703 61.972L54.3513 69.5722L70.4072 72.2568L73.9959 86.8239Z" fill="#5B2724"/>
<path d="M48.315 30.7011C48.365 30.4258 48.4136 30.1371 48.4608 29.8426L45.439 27.5733C45.439 27.5733 44.2933 27.1934 42.6719 26.4512L42.6631 26.4792L45.1282 28.314L48.3165 30.7011H48.315Z" fill="#5B2724"/>
<path d="M57.507 36.6358L51.9302 32.4477L51.6298 33.184L57.3082 37.4354C57.3745 37.1821 57.4408 36.9127 57.507 36.6358Z" fill="#5B2724"/>
<path d="M38.6311 37.2631C38.659 36.9126 38.6811 36.5504 38.7003 36.1793C37.9242 35.7743 37.1305 35.3193 36.3603 34.8098C35.677 34.3591 35.1616 33.8982 34.7758 33.4446C34.7758 33.4446 36.3647 35.8686 38.634 37.2631H38.6311Z" fill="#5B2724"/>
<path d="M45.5141 39.154L44.7233 38.6091C44.7233 38.6091 42.2964 37.942 39.4572 36.5592L39.4263 36.9818L39.1583 37.5591C39.4675 37.7182 39.7871 37.8566 40.1155 37.9641C42.1462 38.6282 44.1062 39.5295 45.1783 40.0537C45.2622 39.7459 45.3742 39.4455 45.5141 39.154Z" fill="#5B2724"/>
<defs>
<linearGradient id="paint0_linear_611_3750" x1="7.88295e-07" y1="58.9781" x2="150.858" y2="58.9781" gradientUnits="userSpaceOnUse">
<stop offset="0.02" stop-color="#005EB2"/>
<stop offset="1" stop-color="#0BE5A1"/>
</linearGradient>
</defs>
</svg>
