<svg width="158" height="104" viewBox="0 0 158 104" fill="none" xmlns="http://www.w3.org/2000/svg">
<g clip-path="url(#clip0_611_3809)">
<path d="M157.656 41.8996C156.333 51.4938 151.182 61.6298 142.057 70.9628C127.719 85.6277 103.571 98.3135 69.047 103.807C40.5782 104.712 27.5275 83.3045 12.8377 62.7769C12.6456 62.5005 12.4507 62.2254 12.2517 61.949C11.4446 60.8213 10.596 59.6949 9.73917 58.563C3.74107 50.6522 -2.71171 42.5271 1.18566 32.3898C4.14601 25.3068 13.0906 7.11347 26.2933 2.67018C33.6154 0.248829 44.6774 3.8159 57.8815 3.3695C77.5397 3.71224 96.2914 -0.295698 115.903 0.981315C146.081 3.67355 160.461 21.5711 157.656 41.8996Z" fill="url(#paint0_linear_611_3809)"/>
<path d="M26.5643 63.4668C26.0088 64.325 26.8573 65.3961 27.8206 65.0547C31.8148 63.6381 38.8756 60.2245 41.1187 53.3004C44.3085 43.4533 62.6123 47.8593 62.6123 47.8593C62.6123 47.8593 69.1936 37.7316 68.6298 38.1297C68.0659 38.5277 42.006 39.5877 42.006 39.5877L26.563 63.4668H26.5643Z" fill="#5B2724"/>
<path d="M18.0965 63.312C17.3156 64.419 18.3591 65.895 19.6624 65.5246C24.4415 64.1633 32.4228 60.8215 34.8469 53.3391C38.3836 42.4237 58.6707 47.3078 58.6707 47.3078C58.6707 47.3078 65.9652 36.0828 65.3405 36.5237C64.7158 36.9646 35.831 38.1407 35.831 38.1407L18.0965 63.3133V63.312Z" fill="#7A3732"/>
<path d="M157.656 41.8998C156.333 51.494 151.182 61.6299 142.057 70.9629L92.6886 46.766L75.9976 54.9049L64.5694 57.6234L43.2762 66.2888C41.8222 66.8803 40.3531 65.4997 40.8396 64.0084C41.9591 60.5754 44.7384 55.4853 51.6168 52.5001C59.5097 49.074 57.5417 43.4988 57.5417 43.4988L35.7371 44.5202C34.6259 45.6548 32.6496 47.7555 30.372 50.2294C24.3545 56.7651 17.3171 60.194 12.2519 61.9492C11.5263 62.2021 10.8395 62.4191 10.2037 62.607C8.66688 63.0603 7.4797 61.2416 8.51347 60.0157L9.73935 58.5632L30.1591 34.3497L68.3438 23.8723C75.9616 21.7827 83.9899 21.6846 91.6562 23.5904L157.656 41.8998Z" fill="#964C41"/>
<path d="M9.54309 58.7955L30.9123 36.1561L63.5232 25.1965L30.1591 34.3512L9.54309 58.7955Z" fill="#5B2724"/>
<path d="M73.5401 78.4923C54.1886 78.4923 38.4443 62.748 38.4443 43.3965C38.4443 24.0451 54.1886 8.30078 73.5401 8.30078C92.8915 8.30078 108.637 24.0451 108.637 43.3965C108.637 62.748 92.8929 78.4923 73.5401 78.4923ZM53.0761 65.7249L55.6094 67.6059C60.8349 71.4853 67.0348 73.5363 73.5415 73.5363C90.1606 73.5363 103.681 60.0157 103.681 43.3965C103.681 37.9983 102.225 32.6912 99.4701 28.0516L97.86 25.3401L53.0775 65.7249H53.0761ZM73.5401 13.2568C56.9209 13.2568 43.4004 26.7774 43.4004 43.3965C43.4004 49.1044 45.0174 54.6713 48.0772 59.4946L49.7163 62.0791L94.5749 21.6265L92.1701 19.7303C86.8022 15.4957 80.3591 13.2582 73.5387 13.2582L73.5401 13.2568Z" fill="#D63E3E"/>
</g>
<defs>
<linearGradient id="paint0_linear_611_3809" x1="-0.00013437" y1="52.283" x2="158" y2="52.283" gradientUnits="userSpaceOnUse">
<stop offset="0.02" stop-color="#005EB2"/>
<stop offset="1" stop-color="#0BE5A1"/>
</linearGradient>
<clipPath id="clip0_611_3809">
<rect width="158" height="103.105" fill="white" transform="translate(0 0.729858)"/>
</clipPath>
</defs>
</svg>
