<svg width="153" height="152" viewBox="0 0 153 152" fill="none" xmlns="http://www.w3.org/2000/svg">
<path d="M67.354 45.7423C-11.3808 88.9959 3.42343 157.285 59.2856 142.689C75.5491 138.021 89.5772 129.321 105.607 123.882C116.177 119.682 126.178 119.354 131.407 115.263C140.814 107.823 142.771 90.4803 143.111 83.8801C143.359 72.8679 132.781 68.2969 124.832 62.645C106.958 50.2824 90.1589 36.7299 67.3525 45.7409L67.354 45.7423Z" fill="url(#paint0_linear_611_3911)"/>
<mask id="mask0_611_3911" style="mask-type:luminance" maskUnits="userSpaceOnUse" x="0" y="0" width="153" height="152">
<path d="M58.031 2.30752C-31.2771 51.3706 -6.17791 166.586 57.1872 150.028C75.6346 144.734 91.5477 134.865 109.73 128.696C121.72 123.932 133.064 123.561 138.995 118.919C149.666 110.481 151.885 90.8087 152.271 83.3219C152.551 70.8312 148.479 38.7429 139.464 32.3312C119.19 18.3104 83.9004 -7.9139 58.031 2.30752Z" fill="white"/>
</mask>
<g mask="url(#mask0_611_3911)">
<path d="M81.6384 14.3491C82.8695 13.4125 86.3832 10.5689 91.1191 10.9635C121.623 13.5009 122.696 57.8118 121.593 68.9772C120.406 80.9878 117.305 90.8735 117.305 90.8735C116.268 94.1751 120.748 104.177 121.938 112.307C122.358 115.172 121.144 123.091 117.765 128.328C114.654 133.146 111.538 134.242 108.952 138.956C106.589 143.268 108.615 145.954 108.05 151.822C106.907 163.674 96.5781 174.109 93.1513 172.816C91.4372 172.169 91.5933 168.642 91.3459 164.238C90.3121 145.852 83.9755 142.899 82.7679 129.926C82.198 123.806 75.8525 114.662 83.8444 94.1176C104.73 40.4261 84.0388 48.7449 76.6492 40.6102C72.4567 35.9936 72.0561 21.6415 81.6384 14.3491Z" fill="#293C59"/>
<path d="M83.7457 11.638C81.9668 9.09774 78.2116 8.75462 74.9424 8.70308C39.8765 8.15527 29.9349 51.4943 29.1176 66.7167C28.776 73.0754 27.9248 80.5519 31.8258 87.7103C33.3219 90.4552 34.768 91.8321 35.6634 95.3855C36.9799 100.607 35.7989 105.332 35.2113 107.576C34.0671 111.951 32.9994 112.042 31.1484 117.959C29.8584 122.084 29.2119 124.146 29.3429 126.312C29.5403 129.609 31.2809 132.724 34.7607 138.953C36.7281 142.474 37.351 143.134 37.6956 145.048C38.3863 148.891 36.6486 150.563 36.5676 153.626C36.4159 159.25 42.003 163.657 45.5977 166.492C53.5836 172.792 63.6004 174.942 64.3337 173.49C64.83 172.508 60.4843 171.072 58.2386 166.492C54.9502 159.786 60.3694 154.919 60.9467 145.273C61.6418 133.671 54.2537 133.165 52.594 117.734C51.5809 108.308 54.2404 107.599 53.0461 96.2897C52.033 86.7015 57.9779 86.1243 56.7291 77.106C55.5525 68.6105 47.0909 56.9916 54.3641 51.0422C61.7493 45.0015 71.0783 46.9012 76.7611 40.1581C78.5945 37.9816 77.8494 39.8312 79.9095 30.8276C82.6898 18.6727 86.0371 14.9102 83.7472 11.6395L83.7457 11.638Z" fill="#293C59"/>
<path d="M31.8773 204.462C29.0837 228.47 25.9412 244.055 24.4082 250.87H127.415C125.792 245.304 122.773 233.876 120.795 219.919C119.29 209.298 121.159 199.022 124.895 178.469C128.306 159.706 130.578 156.4 133.549 137.474C136.076 121.376 142.049 104.715 137.526 102.096C130.372 97.9553 98.2215 91.3742 75.4063 90.8352C57.7703 90.4184 30.2044 93.8246 13.7479 101.73C-23.3266 119.538 36.9357 160.993 31.8773 204.462Z" fill="#007AFF"/>
<path d="M127.647 98.7299C129.6 98.2999 132.242 99.5648 137.524 102.098C140.193 103.376 143.824 105.117 146.503 107.71C151.448 112.497 152.007 119.086 152.788 130.158C153.084 134.357 152.901 134.966 152.564 150.361C152.262 164.117 150.728 173.064 147.083 172.191C146.554 172.065 140.86 167.052 130.862 166.053C120.177 164.986 115.012 167.103 114.596 164.981C111.167 147.554 119.597 100.504 127.647 98.7313V98.7299Z" fill="#007AFF"/>
<path d="M21.6662 99.2983C19.7135 98.8683 17.0717 100.133 11.7894 102.666C9.12102 103.944 5.48955 105.685 2.81087 108.278C-2.13417 113.066 -2.69376 119.654 -3.47425 130.727C-3.77024 134.925 -3.58764 135.535 -3.25041 150.93C-2.94852 164.685 -1.41406 173.633 2.23066 172.76C2.75933 172.633 8.45393 167.62 18.4515 166.622C29.1368 165.554 34.3012 167.672 34.718 165.55C38.1462 148.123 29.717 101.073 21.6662 99.2998V99.2983Z" fill="#007AFF"/>
<path d="M49.0804 46.8747C48.6887 48.9202 48.6195 51.2322 48.4825 55.8533C48.3588 59.9884 48.2705 63.3886 48.7815 67.8256C49.1069 70.6457 49.5016 73.9163 50.877 78.0014C52.4012 82.5326 54.3229 85.6678 54.7677 86.382C56.414 89.0224 60.2296 94.9732 67.6383 98.6533C69.4452 99.5516 70.6248 100.138 72.4272 100.448C78.9465 101.576 84.4467 97.5282 87.3919 95.3605C88.5391 94.5153 93.3295 90.8676 96.9698 83.9875C99.9195 78.4122 100.497 73.7691 101.46 66.029C102.448 58.0887 103.021 53.4794 101.46 47.4726C100.506 43.8014 99.1228 38.4808 94.5753 34.303C88.1651 28.414 79.6725 28.6659 71.23 28.9162C64.4177 29.118 60.3871 29.2372 56.5642 32.209C51.0699 36.4795 49.6709 43.7896 49.0819 46.8747H49.0804Z" fill="#964C41"/>
<path d="M47.5814 89.797C51.5501 83.1585 55.3715 78.6626 56.7278 77.106C65.0436 67.5546 69.5955 66.3015 71.2934 66.001C71.9178 65.8906 73.3109 65.6579 75.0191 66.001C77.9408 66.5871 79.8036 68.4574 80.7785 69.4911C86.3788 75.439 90.6995 83.6533 96.023 92.0177C98.8563 96.4694 99.2524 96.6903 99.41 98.0466C100.129 104.235 92.7243 107.156 83.8268 117.718C75.6361 127.441 75.1148 133.033 71.2934 132.948C67.36 132.859 67.2039 126.92 59.4374 117.083C50.8329 106.186 43.2062 103.573 43.8542 97.0938C43.9823 95.8156 45.181 93.8084 47.5799 89.797H47.5814Z" fill="white"/>
<path d="M47.3899 146.848C47.6417 146.235 52.223 132.626 52.223 132.626L45.1898 106.887C45.1898 106.887 46.0571 104.522 48.9317 100.002C52.2642 94.7612 61.6521 78.3032 65.394 76.0575C66.3306 75.4964 68.2377 75.4581 68.2377 75.4581C68.2377 75.4581 69.8561 73.5069 70.7823 73.5128C71.6306 73.5187 72.4199 74.5172 72.7277 75.3079C73.1562 76.408 73.1768 77.7024 73.1768 77.7024C73.1768 77.7024 74.3519 78.0382 74.9719 78.4505C76.2384 79.2914 75.8452 81.9921 75.72 82.7903C74.7937 88.7205 71.6792 93.5654 71.6792 93.5654C71.6792 93.5654 72.9618 93.6317 73.6245 94.3135C74.9101 95.6374 72.8175 98.7637 71.6792 103.741C71.1888 105.884 71.1019 107.383 70.9311 110.325C70.7676 113.125 70.8987 114.437 71.23 121.698C71.4332 126.157 71.5348 128.387 71.5289 129.48C71.5024 134.139 71.4627 136.988 70.3317 140.405C69.7441 142.176 69.566 141.982 67.6383 146.241C66.2923 149.215 56.4302 184.697 54.3273 191.929C49.023 210.17 43.4565 227.98 34.4147 233.019C30.2531 235.338 6.04034 216.851 17.1792 196.881C22.2185 187.845 33.5561 180.62 47.3913 146.845L47.3899 146.848Z" fill="#964C41"/>
<path d="M73.9971 115.565C74.4109 113.649 74.9204 111.194 74.8954 107.932C74.8777 105.653 74.9233 105.741 74.2224 101.198C72.3139 88.8516 76.3547 88.6277 76.3547 88.6277C76.3547 88.6277 73.1724 82.6298 74.3343 80.7713C76.5785 77.1796 78.3751 79.985 78.3751 79.985C78.3751 79.985 79.7108 79.7523 80.9566 79.8731C82.8931 80.0586 84.1993 81.9921 84.4364 82.3426C84.8694 82.9832 84.7427 83.0716 85.4466 84.475C86.0622 85.7017 86.6144 86.5455 87.0179 87.1684C90.3033 92.2415 90.8865 93.8187 94.2013 98.6165C97.9094 103.986 99.2524 107.483 99.2524 107.483L91.5079 128.696C91.5079 128.696 90.9984 132.869 91.1707 134.196C91.4829 136.594 92.175 137.857 93.7522 141.492C95.5429 145.622 95.6165 146.22 96.6709 148.638C106.308 170.727 119.119 186.649 119.119 186.649C121.091 189.1 123.228 192.173 127.5 198.323C130.383 202.473 131.342 203.998 131.99 206.404C133.477 211.931 131.874 216.705 131.391 218.078C130.145 221.628 128.26 223.85 126.303 226.16C123.761 229.156 122.216 230.978 119.418 232.146C119.022 232.311 113.275 234.614 108.643 231.847C105.161 229.766 97.1097 215.99 88.5892 193.836C84.0315 181.986 81.5604 172.499 77.2162 155.825C76.7759 154.135 76.5226 149.464 74.2238 143.852C72.1313 138.748 71.1726 139.269 70.3332 136.22C69.1904 132.067 70.7868 130.44 74 115.568L73.9971 115.565Z" fill="#964C41"/>
<path d="M56.9221 20.2882C55.6645 21.2307 51.3895 24.4336 51.5721 28.4406C51.8534 34.5902 62.4856 39.2363 69.1492 40.9224C77.1646 42.9517 79.2499 40.6515 88.7644 43.4701C93.1513 44.7689 96.7563 45.8822 99.9725 49.0748C105.159 54.2201 105.241 60.6982 106.596 60.5377C107.982 60.3742 108.748 53.503 108.125 46.782C107.736 42.5865 107.073 35.4399 103.284 29.4596C94.0982 14.9632 69.0122 11.2301 56.9206 20.2882H56.9221Z" fill="#293C59"/>
<path d="M68.2362 75.4582C63.9847 83.1497 57.598 94.4402 53.5351 102.098L53.1831 101.905C57.3256 94.3371 63.9082 83.048 68.2362 75.4567V75.4582Z" fill="#5B2724"/>
<path d="M73.1738 77.7039C71.149 81.4075 65.0141 92.6348 63.0938 96.1469C62.4547 97.2558 59.4211 103.408 58.7746 104.666L58.4167 104.483C59.1015 103.193 62.1822 97.1439 62.8493 96.0174C64.7843 92.5847 71.1416 81.3074 73.1723 77.7039H73.1738Z" fill="#5B2724"/>
<path d="M71.6777 93.5669C71.6659 93.5625 65.5634 105.902 65.6547 105.622L65.7077 110.437H65.3057L65.3587 105.62V105.583C65.3705 105.553 71.6629 93.5978 71.6777 93.5654V93.5669Z" fill="#5B2724"/>
<path d="M85.4465 84.475L92.9186 104.507L92.5416 104.644L85.4465 84.475Z" fill="#5B2724"/>
<path d="M78.3751 79.985L88.3109 106.18L87.9353 106.32L78.3751 79.985Z" fill="#5B2724"/>
<path d="M76.3547 88.6277L84.6941 110.368L84.3186 110.508L76.3547 88.6277Z" fill="#5B2724"/>
</g>
<defs>
<linearGradient id="paint0_linear_611_3911" x1="12.8143" y1="93.7569" x2="143.117" y2="93.7569" gradientUnits="userSpaceOnUse">
<stop offset="0.02" stop-color="#005EB2"/>
<stop offset="1" stop-color="#0BE5A1"/>
</linearGradient>
</defs>
</svg>
