<svg width="24" height="24" viewBox="0 0 24 24" fill="none" xmlns="http://www.w3.org/2000/svg">
<path d="M24 13.9999V9.99994L20.662 9.58294C20.4687 8.88527 20.1913 8.21368 19.836 7.58294L21.9 4.92894L19.071 2.09994L16.418 4.16394C15.7873 3.80859 15.1157 3.53122 14.418 3.33794L14 -6.10352e-05H10L9.583 3.33794C8.88533 3.53122 8.21374 3.80859 7.583 4.16394L4.929 2.09994L2.1 4.92894L4.164 7.58194C3.80865 8.21268 3.53128 8.88427 3.338 9.58194L0 9.99994V13.9999L3.338 14.4169C3.53128 15.1146 3.80865 15.7862 4.164 16.4169L2.1 19.0709L4.929 21.8999L7.582 19.8369C8.21274 20.1923 8.88433 20.4697 9.582 20.6629L10 23.9999H14L14.417 20.6619C15.1147 20.4687 15.7863 20.1913 16.417 19.8359L19.071 21.8999L21.9 19.0709L19.837 16.4179C20.1923 15.7872 20.4697 15.1156 20.663 14.4179L24 13.9999ZM12 15.9999C11.2089 15.9999 10.4355 15.7653 9.77772 15.3258C9.11992 14.8863 8.60723 14.2616 8.30448 13.5307C8.00173 12.7998 7.92252 11.9955 8.07686 11.2196C8.2312 10.4437 8.61216 9.73092 9.17157 9.17151C9.73098 8.6121 10.4437 8.23114 11.2196 8.0768C11.9956 7.92246 12.7998 8.00167 13.5307 8.30442C14.2616 8.60717 14.8864 9.11986 15.3259 9.77766C15.7654 10.4355 16 11.2088 16 11.9999C16 13.0608 15.5786 14.0782 14.8284 14.8284C14.0783 15.5785 13.0609 15.9999 12 15.9999Z" fill="#1A263C"/>
</svg>
