<svg width="44" height="44" viewBox="0 0 44 44" fill="none" xmlns="http://www.w3.org/2000/svg">
<path d="M21.8921 0.10795C9.80765 0.167528 0.0483532 10.0235 0.107931 22.1079C0.167509 34.1924 10.0235 43.9517 22.1079 43.8921C34.1924 43.8325 43.9516 33.9765 43.8921 21.8921C43.8325 9.80766 33.9765 0.048372 21.8921 0.10795ZM21.9244 6.67557C25.5585 6.65765 28.5065 9.57673 28.5244 13.2108C28.5424 16.8449 25.6233 19.7929 21.9892 19.8108C18.3551 19.8287 15.4071 16.9097 15.3892 13.2756C15.3713 9.64149 18.2904 6.69349 21.9244 6.67557ZM22.0777 37.7623C16.6047 37.7893 11.7527 35.011 8.90771 30.7778C8.95191 26.421 17.6313 23.9919 22.0097 23.9703C26.3662 23.9488 35.091 26.2921 35.1782 30.6483C32.3751 34.9093 27.5507 37.7353 22.0777 37.7623Z" fill="url(#paint0_linear_468_2176)"/>
<defs>
<linearGradient id="paint0_linear_468_2176" x1="21.8921" y1="0.10795" x2="22.1079" y2="43.8921" gradientUnits="userSpaceOnUse">
<stop stop-color="#007AFF"/>
<stop offset="1" stop-color="#0BFFA1"/>
</linearGradient>
</defs>
</svg>
