<svg width="32" height="38" viewBox="0 0 32 38" fill="none" xmlns="http://www.w3.org/2000/svg">
<g id="Group" opacity="0.6">
<path id="Vector" d="M31.4456 29.2621C29.5683 26.1598 28.554 22.6123 28.5076 18.9865V12.6703C28.5076 9.30995 27.1727 6.0872 24.7966 3.71105C22.4204 1.33491 19.1977 0 15.8373 0C12.4769 0 9.25418 1.33491 6.87803 3.71105C4.50188 6.0872 3.16698 9.30995 3.16698 12.6703V18.977C3.12218 22.606 2.10783 26.157 0.229047 29.2621C0.0836079 29.5023 0.00462745 29.7768 0.000197221 30.0575C-0.00423301 30.3383 0.0660461 30.6151 0.203835 30.8598C0.341623 31.1044 0.541968 31.308 0.784345 31.4497C1.02672 31.5915 1.30242 31.6662 1.58319 31.6663H30.0914C30.3722 31.6662 30.6479 31.5915 30.8903 31.4497C31.1326 31.308 31.333 31.1044 31.4708 30.8598C31.6086 30.6151 31.6788 30.3383 31.6744 30.0575C31.67 29.7768 31.591 29.5023 31.4456 29.2621Z" fill="#007AFF"/>
<path id="Vector_2" d="M17.4322 37.7243C18.096 37.4878 18.6989 37.1066 19.1972 36.6083C19.6954 36.11 20.0766 35.5072 20.3132 34.8434H11.3616C11.571 35.4312 11.8942 35.9719 12.3126 36.4348C12.731 36.8977 13.2365 37.2736 13.8002 37.5411C14.364 37.8087 14.9748 37.9625 15.598 37.994C16.2212 38.0254 16.8445 37.9338 17.4322 37.7243Z" fill="#007AFF"/>
</g>
</svg>
