<svg width="20" height="24" viewBox="0 0 20 24" fill="none" xmlns="http://www.w3.org/2000/svg">
<path d="M19.8546 18.482C18.6693 16.5232 18.0289 14.2833 17.9996 11.994V8.00604C17.9996 5.88431 17.1568 3.84948 15.6565 2.34919C14.1562 0.848897 12.1214 0.00604248 9.99962 0.00604248C7.87789 0.00604248 5.84306 0.848897 4.34277 2.34919C2.84247 3.84948 1.99962 5.88431 1.99962 8.00604V11.988C1.97133 14.2794 1.33088 16.5215 0.14462 18.482C0.0527897 18.6337 0.00292176 18.807 0.000124525 18.9843C-0.00267271 19.1615 0.0417013 19.3363 0.128701 19.4908C0.2157 19.6453 0.342197 19.7738 0.495233 19.8633C0.648269 19.9528 0.822342 20 0.99962 20H18.9996C19.1769 20 19.351 19.9528 19.504 19.8633C19.657 19.7738 19.7835 19.6453 19.8705 19.4908C19.9575 19.3363 20.0019 19.1615 19.9991 18.9843C19.9963 18.807 19.9464 18.6337 19.8546 18.482Z" fill="#1A263C"/>
<path d="M11.0066 23.825C11.4257 23.6757 11.8063 23.435 12.1209 23.1204C12.4356 22.8058 12.6762 22.4252 12.8256 22.006H7.17358C7.30582 22.3772 7.50986 22.7186 7.77405 23.0109C8.03825 23.3031 8.35742 23.5405 8.71335 23.7094C9.06928 23.8783 9.45499 23.9755 9.84846 23.9953C10.2419 24.0151 10.6355 23.9573 11.0066 23.825Z" fill="#1A263C"/>
</svg>
