<svg width="230" height="152" viewBox="0 0 230 152" fill="none" xmlns="http://www.w3.org/2000/svg">
<path d="M6.22448 60.8364C-1.55032 53.5805 0.501308 38.7042 3.10743 30.9017C3.76886 28.9233 7.58893 18.0473 18.6986 10.9459C30.0301 3.70377 41.9339 4.87217 52.998 5.9574C66.696 7.30204 76.4471 11.7736 80.4375 13.4411C102.788 22.7803 127.144 25.2795 175.854 30.2799C201.468 32.9078 214.944 32.7533 222.626 43.3758C227.709 50.404 228.737 60.0502 229.485 67.0745C229.945 71.3857 231.129 83.541 226.99 96.3854C218.829 121.722 195.085 133.83 188.324 136.921C176.393 142.379 156.884 139.244 118.478 134.426C94.1355 131.372 90.6719 129.461 78.5661 130.685C60.6876 132.489 53.7466 138.117 43.6429 133.18C35.4701 129.186 28.0577 119.662 26.1803 110.105C25.5842 107.067 26.012 106.394 24.9327 99.5025C23.4019 89.7295 22.1701 88.7235 21.8137 82.6637C21.3126 74.1403 23.5643 72.9878 21.8137 69.5677C18.8451 63.7693 11.8684 66.1041 6.2225 60.8364H6.22448Z" fill="url(#paint0_linear_611_2029)"/>
<path d="M63.4365 54.4994C69.0408 49.2238 74.665 43.97 80.2317 38.6548C81.1367 37.7894 81.8714 36.7101 82.5368 35.6368C83.4002 34.2485 84.0359 32.7158 84.9092 31.3335C91.474 20.9407 101.069 19.1425 110.388 27.1669C116.204 32.1731 121.928 37.118 129.19 39.839C133.061 41.2886 137.046 42.4372 141.192 43.065C136.103 39.8925 131.011 36.722 125.922 33.5495C126.007 33.298 126.09 33.0485 126.175 32.797C126.989 32.793 127.807 32.7435 128.617 32.793C150.132 34.098 171.212 31.6464 191.837 25.4024C193.36 24.941 194.867 24.1607 196.153 23.2161C200.557 19.9782 205.007 19.9129 209.405 23.3369C210.595 24.2617 211.684 25.3747 212.619 26.5589C216.978 32.084 216.928 35.7675 212.785 41.3995C208.585 47.1128 203.034 50.7764 196.277 52.6954C193.119 53.5924 189.865 54.2024 186.776 55.2856C184.152 56.2045 181.258 57.1155 179.244 58.8918C166.283 70.3243 150.852 73.9562 134.178 73.2235C127.995 72.9522 122.393 73.9978 116.771 76.3584C111.161 78.713 105.459 81.03 99.5815 82.5034C95.1377 83.6163 90.3532 83.3747 85.4538 83.7569C89.4323 87.4918 94.2584 89.7177 99.7202 90.4702C102.6 90.8683 105.602 91.0445 108.477 90.7059C124.866 88.7731 140.687 91.3099 156.296 96.1736C159.847 97.2806 163.626 97.6628 167.301 98.3619C171.935 99.2431 176.262 98.3639 180.69 96.7459C185.263 95.0745 190.083 93.4942 194.881 93.1675C202.876 92.6248 204.761 95.627 201.979 103.033C200.052 108.163 196.394 111.949 191.259 113.478C186.623 114.858 181.651 115.729 176.826 115.729C168.056 115.729 159.289 114.858 150.516 114.454C141.947 114.06 133.774 115.51 125.952 119.298C116.298 123.974 106.317 127.932 95.2882 127.158C90.5453 126.825 85.8598 125.667 81.1506 124.883C77.5325 123.197 73.9164 121.514 70.2983 119.829C70.1973 119.623 70.1518 119.336 69.9874 119.223C56.9053 110.27 53.0753 97.3876 54.7982 82.436C55.4617 76.6792 57.1568 71.0392 58.3826 65.3457C60.0679 61.7277 61.7512 58.1116 63.4365 54.4935V54.4994ZM98.0943 36.1714C98.3359 36.0605 98.5775 35.9477 98.8191 35.8368C100.736 38.5419 102.653 41.249 104.736 44.1898C106 42.8491 107.487 41.7481 108.283 40.2727C108.881 39.1677 109.182 37.1953 108.588 36.2784C106.386 32.8821 102.782 31.5137 98.9062 31.6305C95.4882 31.7335 93.6484 34.3733 92.3474 37.2626C90.466 41.4332 92.6959 44.98 97.8388 45.5107C97.926 42.3818 98.0111 39.2766 98.0963 36.1734L98.0943 36.1714ZM209.353 31.7672C205.914 26.1648 203.369 25.2598 200.022 27.553C198.052 28.9056 198.002 30.8028 200.248 31.3414C202.905 31.9791 205.797 31.6503 209.353 31.7672Z" fill="#19CC83"/>
<path d="M171.339 75.8514C170.399 73.7582 169.456 71.663 168.428 69.3757C170.801 67.8429 172.971 66.4408 175.946 64.5179C174.755 68.7895 173.813 72.168 172.872 75.5464C172.361 75.6474 171.85 75.7504 171.339 75.8514Z" fill="#19CC83"/>
<path d="M189.231 57.1589C187.675 60.5017 186.532 62.9554 184.847 66.5754C183.724 63.795 182.936 61.8424 182.025 59.5829C184.332 58.8066 186.279 58.1531 189.233 57.1589H189.231Z" fill="#19CC83"/>
<path d="M193.769 56.7946C196.212 55.8738 197.822 55.2678 199.878 54.4935C199.662 55.6837 199.692 56.6025 199.323 57.3135C198.557 58.7908 197.579 60.1592 196.688 61.5712C195.788 60.0998 194.889 58.6284 193.769 56.7926V56.7946Z" fill="#19CC83"/>
<path d="M161.033 73.1224C159.651 75.1206 158.267 77.1168 156.885 79.1149C156.53 79.0793 156.178 79.0417 155.823 79.006C155.451 77.495 155.08 75.984 154.661 74.2809C156.916 73.5898 158.734 73.0314 160.552 72.4729C160.713 72.6888 160.873 72.9066 161.033 73.1224Z" fill="#19CC83"/>
<path d="M173.81 89.7791C174.557 91.5812 175.301 93.3813 176.28 95.7438C174.147 95.6963 172.705 95.6646 170.529 95.6171C171.365 93.3853 172.034 91.597 172.703 89.8108C173.072 89.7989 173.442 89.789 173.81 89.7771V89.7791Z" fill="#19CC83"/>
<path d="M151.684 85.1451C152.548 87.1868 153.411 89.2285 154.51 91.8287C152.223 91.3059 150.603 90.9356 148.621 90.4821C149.345 88.5235 149.955 86.8759 150.563 85.2263C150.938 85.1986 151.31 85.1728 151.684 85.1451Z" fill="#19CC83"/>
<path d="M140.317 76.1503C142.357 76.0077 143.844 75.9028 146.082 75.7463C144.371 78.0336 143.004 79.8575 141.64 81.6814C141.265 81.5349 140.891 81.3883 140.517 81.2418C140.454 79.6219 140.388 78 140.317 76.1503Z" fill="#19CC83"/>
<path d="M128.003 80.6795C127.888 79.119 127.771 77.5584 127.635 75.7049C129.158 75.59 130.387 75.4969 132.56 75.3345C131.231 77.6832 130.249 79.4219 129.267 81.1587C128.847 80.9983 128.425 80.8399 128.005 80.6795H128.003Z" fill="#19CC83"/>
<path d="M188.806 91.3653C186.734 91.9892 185.435 92.3813 183.435 92.9853C184.037 90.7792 184.487 89.1335 185.213 86.462C186.699 88.4919 187.627 89.7593 188.804 91.3673L188.806 91.3653Z" fill="#19CC83"/>
<path d="M211.787 47.5168C210.445 50.4021 209.53 52.3646 208.611 54.339C205.654 52.3052 205.803 51.9151 211.787 47.5168Z" fill="#19CC83"/>
<path d="M196.848 103.661C194.841 103.495 192.843 103.519 190.847 103.705C187.285 104.319 183.827 105.372 180.373 106.448C175.729 107.893 171.165 109.056 166.329 109.67C161.156 110.325 155.868 109.862 150.834 108.507C146.333 107.297 141.852 106.042 137.247 105.297C133.724 104.935 130.209 104.964 126.684 105.352C122.518 105.994 118.408 106.861 114.198 107.309C110.442 107.709 106.659 107.867 102.881 107.792C92.1057 107.576 81.7426 105.598 71.6053 102.703C70.3893 102.536 69.1734 102.356 67.9595 102.164C64.0087 101.536 60.1055 100.707 56.2319 99.756C58.2638 107.41 62.7591 114.078 70.4923 119.369C70.6567 119.482 70.7022 119.769 70.8032 119.975C74.4213 121.658 78.0374 123.344 81.6555 125.029C86.3667 125.813 91.0522 126.972 95.7931 127.304C106.822 128.079 116.8 124.12 126.457 119.444C134.281 115.656 142.452 114.206 151.021 114.601C159.794 115.005 168.56 115.874 177.331 115.876C182.155 115.876 187.128 115.005 191.764 113.624C196.899 112.095 200.557 108.309 202.482 103.18C202.725 102.532 202.931 101.92 203.101 101.338C201.448 102.725 198.937 103.837 196.844 103.663L196.848 103.661Z" fill="#11A364"/>
<path d="M215.522 30.4561C211.433 34.6485 206.641 37.6408 201.147 39.429C196.394 41.9262 191.325 43.2649 185.94 43.4531C181.655 45.6413 177.46 48.0118 173.106 50.0614C168.169 52.3844 163.095 54.4617 158.029 56.4837C156.736 57.0005 155.421 57.4718 154.088 57.8739C150.672 58.9016 147.118 59.5433 143.636 60.3156C136.054 61.9989 128.459 63.6307 120.866 65.2744C105.842 68.5281 90.8247 71.8352 75.9306 75.6573C69.3796 77.4178 62.8307 77.7782 56.2797 76.7524C56.2441 76.9207 56.2124 77.089 56.1787 77.2574C62.6089 79.7229 69.0984 82.0419 75.6969 83.9588C79.2991 84.3391 82.9152 84.5212 86.5432 84.4301C86.3471 84.2579 86.1531 84.0796 85.961 83.8994C90.8603 83.5172 95.6448 83.7588 100.089 82.6459C105.966 81.1725 111.668 78.8555 117.278 76.5009C122.9 74.1403 128.503 73.0927 134.685 73.366C151.36 74.1007 166.79 70.4688 179.752 59.0343C181.766 57.258 184.659 56.347 187.283 55.4281C190.372 54.3449 193.626 53.7349 196.784 52.8379C203.539 50.9189 209.09 47.2533 213.293 41.542C216.427 37.2784 217.216 34.1316 215.524 30.4581L215.522 30.4561Z" fill="#11A364"/>
<path d="M171.844 75.9899C170.904 73.8967 169.961 71.8015 168.933 69.5143C171.306 67.9815 173.476 66.5794 176.45 64.6565C175.26 68.9281 174.318 72.3065 173.377 75.685C172.866 75.786 172.355 75.8889 171.844 75.9899Z" fill="#11A364"/>
<path d="M189.734 57.2976C188.178 60.6404 187.035 63.094 185.35 66.7141C184.227 63.9337 183.439 61.9811 182.528 59.7215C184.835 58.9452 186.782 58.2917 189.736 57.2976H189.734Z" fill="#11A364"/>
<path d="M194.271 56.9332C196.715 56.0124 198.325 55.4064 200.381 54.6321C200.165 55.8223 200.195 56.7411 199.826 57.4521C199.06 58.9294 198.082 60.2978 197.19 61.7098C196.291 60.2384 195.392 58.767 194.271 56.9312V56.9332Z" fill="#11A364"/>
<path d="M161.538 73.2611C160.156 75.2592 158.772 77.2554 157.389 79.2536C157.035 79.2179 156.682 79.1803 156.328 79.1446C155.956 77.6336 155.585 76.1226 155.166 74.4196C157.421 73.7284 159.239 73.17 161.057 72.6115C161.217 72.8274 161.378 73.0452 161.538 73.2611Z" fill="#11A364"/>
<path d="M153.942 89.4364C153.314 87.9512 152.75 86.6164 152.187 85.2856C151.813 85.3134 151.441 85.3391 151.066 85.3668C150.706 86.3412 150.346 87.3175 149.961 88.3571C151.292 88.6997 152.615 89.074 153.944 89.4364H153.942Z" fill="#11A364"/>
<path d="M140.82 76.289C142.86 76.1464 144.347 76.0415 146.585 75.885C144.874 78.1723 143.507 79.9962 142.143 81.8201C141.768 81.6735 141.394 81.527 141.02 81.3804C140.956 79.7605 140.891 78.1386 140.82 76.289Z" fill="#11A364"/>
<path d="M128.507 80.818C128.392 79.2575 128.275 77.697 128.138 75.8434C129.661 75.7285 130.891 75.6355 133.063 75.4731C131.734 77.8218 130.752 79.5605 129.77 81.2972C129.35 81.1368 128.928 80.9784 128.509 80.818H128.507Z" fill="#11A364"/>
<path d="M212.29 47.6573C210.948 50.5427 210.033 52.5052 209.114 54.4796C206.157 52.4458 206.306 52.0557 212.29 47.6573Z" fill="#11A364"/>
<path d="M46.3442 26.7133L11.2468 36.7496C9.07433 37.3715 6.81081 36.114 6.19096 33.9415L5.62855 31.9711C4.76116 28.9392 6.33157 25.7449 9.26246 24.5805L24.816 20.0376C25.1962 19.8871 25.5923 19.7742 25.9943 19.7009L41.5993 15.3343C44.7025 14.7739 47.7245 16.6552 48.5919 19.6871L49.1543 21.6575C49.7761 23.8299 48.5186 26.0935 46.3462 26.7133H46.3442Z" fill="#42DB9C"/>
<path d="M46.8886 32.9671L45.1935 27.04L12.3952 36.4188L14.1002 42.3797C14.7003 44.4768 14.0705 46.772 12.3972 48.1701C9.90193 50.2574 8.72759 53.6893 9.67815 57.0163L26.9407 117.379C28.2299 121.886 32.9293 124.496 37.4365 123.207L69.8249 113.945C74.3321 112.656 76.9422 107.956 75.653 103.449L58.3904 43.0866C57.4418 39.7696 54.6476 37.4823 51.4414 37.0189C49.2611 36.704 47.4946 35.0821 46.8886 32.9632V32.9671Z" fill="#A9D8C1"/>
<path opacity="0.3" d="M55.1153 46.78L57.3194 54.4895C57.0283 53.4676 47.6771 55.2479 36.4387 58.462C25.2003 61.6761 16.3225 65.108 16.6136 66.1299L14.4095 58.4204C13.6966 55.9292 14.2253 53.3963 15.6135 51.5665C17.4948 49.0871 17.9998 45.8215 17.1443 42.8292L16.1819 39.4627L43.5877 31.6245L44.4551 34.6584C45.37 37.8606 47.7365 40.3934 50.7862 41.7282C52.7903 42.6055 54.436 44.4115 55.1133 46.78H55.1153Z" fill="#42DB9C"/>
<path d="M57.3212 54.4894L71.4726 103.972C72.6311 108.022 70.1775 110.998 66.4109 112.076L39.3457 119.815C35.5791 120.892 31.9234 119.66 30.7649 115.612L16.6134 66.1298C16.3223 65.108 25.1982 61.6761 36.4385 58.462C47.6769 55.2479 57.0281 53.4676 57.3192 54.4894H57.3212Z" fill="#42DB9C"/>
<path d="M57.3211 54.4894C57.6123 55.5113 48.7364 58.9432 37.496 62.1573C26.2556 65.3714 16.9065 67.1517 16.6154 66.1298C16.3243 65.108 25.2001 61.6761 36.4405 58.462C47.6789 55.2479 57.03 53.4676 57.3211 54.4894Z" fill="#3DAA79"/>
<path d="M38.6763 17.8433L43.6033 16.4333L46.1342 18.8751L46.7521 21.0317L43.441 21.9783L38.6763 17.8433Z" fill="#E1EEFF"/>
<path d="M50.6258 48.4078C32.9691 55.2479 19.083 57.4283 19.083 57.4283L33.7375 108.675C33.7375 108.675 44.4174 109.382 65.2803 99.6549L50.6258 48.4078Z" fill="#E7F4FA"/>
<mask id="mask0_611_2029" style="mask-type:luminance" maskUnits="userSpaceOnUse" x="19" y="48" width="47" height="61">
<path d="M50.6258 48.4078C32.9691 55.2479 19.083 57.4283 19.083 57.4283L33.7375 108.675C33.7375 108.675 44.4174 109.382 65.2803 99.6549L50.6258 48.4078Z" fill="white"/>
</mask>
<g mask="url(#mask0_611_2029)">
<path d="M19.3838 62.3039C19.3838 62.3039 35.2562 61.888 53.6852 52.4953" stroke="#BC1313" stroke-width="1.22781" stroke-miterlimit="10"/>
<path d="M31.104 103.283C31.104 103.283 46.9764 102.867 65.4054 93.4744" stroke="#BC1313" stroke-width="1.22781" stroke-miterlimit="10"/>
</g>
<path d="M34.3372 80.3293L35.2306 81.587L35.2501 81.5815L35.3433 80.0416L35.5543 79.9813L35.4194 81.8174L35.2117 81.8768L34.1263 80.3897L34.3372 80.3293ZM36.2137 81.5903L36.0027 81.6506L36.1377 79.8144L36.3454 79.755L37.4307 81.2422L37.2198 81.3025L36.3232 80.0458L36.3102 80.0495L36.2137 81.5903ZM36.106 80.9189L36.9563 80.6757L37.0073 80.8542L36.157 81.0974L36.106 80.9189ZM38.6219 79.6657L38.4207 79.7233C38.3922 79.6688 38.3568 79.6239 38.3146 79.5886C38.2728 79.5531 38.2266 79.5266 38.1759 79.5089C38.1256 79.4905 38.0729 79.481 38.0177 79.4804C37.9625 79.4798 37.9073 79.4874 37.8522 79.5032C37.7515 79.5319 37.6677 79.5834 37.6005 79.6576C37.5339 79.7317 37.4907 79.8251 37.4709 79.9378C37.4516 80.0504 37.4625 80.1787 37.5037 80.3226C37.5448 80.4664 37.6034 80.5811 37.6793 80.6664C37.7557 80.7517 37.8418 80.8081 37.9375 80.8357C38.0337 80.8632 38.1321 80.8626 38.2327 80.8338C38.2879 80.818 38.3387 80.7953 38.3852 80.7656C38.4317 80.7359 38.4716 80.7002 38.5047 80.6586C38.5382 80.6162 38.5633 80.569 38.58 80.5168C38.5971 80.4639 38.6034 80.4071 38.5989 80.3464L38.8001 80.2888C38.8092 80.3781 38.8034 80.462 38.7825 80.5405C38.7617 80.619 38.7282 80.6903 38.6822 80.7544C38.636 80.8179 38.5793 80.8725 38.5122 80.918C38.4456 80.9634 38.3704 80.9981 38.2865 81.022C38.1448 81.0626 38.0089 81.064 37.8787 81.0263C37.7486 80.9886 37.6336 80.915 37.5338 80.8055C37.434 80.6959 37.3591 80.5535 37.309 80.3783C37.2588 80.203 37.2472 80.0425 37.2739 79.8967C37.3007 79.751 37.3594 79.6277 37.4499 79.5269C37.5405 79.4261 37.6566 79.3555 37.7983 79.3149C37.8822 79.291 37.9643 79.2806 38.0449 79.2839C38.1259 79.2871 38.2029 79.3037 38.2759 79.3337C38.3487 79.3632 38.4147 79.4058 38.4739 79.4614C38.533 79.5165 38.5823 79.5846 38.6219 79.6657ZM38.9997 78.9959L39.475 80.6576L39.2738 80.7151L38.7985 79.0535L38.9997 78.9959ZM40.7209 78.5037L41.1961 80.1654L41.0014 80.2211L39.7227 79.1753L39.7065 79.18L40.0796 80.4847L39.8784 80.5422L39.4032 78.8805L39.5979 78.8248L40.8807 79.8729L40.8969 79.8682L40.5229 78.5603L40.7209 78.5037ZM41.6669 80.0307L41.4559 80.0911L41.5908 78.2549L41.7985 78.1955L42.8839 79.6827L42.673 79.743L41.7764 78.4862L41.7634 78.4899L41.6669 80.0307ZM41.5591 79.3594L42.4094 79.1162L42.4605 79.2947L41.6102 79.5379L41.5591 79.3594Z" fill="#005EB2"/>
<path d="M129.667 151.637C87.955 151.637 54.02 117.702 54.02 75.99C54.02 34.2782 87.955 0.343201 129.667 0.343201C171.379 0.343201 205.316 34.2782 205.316 75.99C205.316 117.702 171.381 151.637 129.667 151.637ZM85.5569 124.118L91.0166 128.172C102.279 136.533 115.644 140.953 129.667 140.953C165.489 140.953 194.632 111.81 194.632 75.99C194.632 64.3536 191.493 52.9171 185.554 42.9164L182.082 37.0725L85.5569 124.118ZM129.667 11.0271C93.8465 11.0271 64.7039 40.1697 64.7039 75.99C64.7039 88.2938 68.1893 100.293 74.7838 110.689L78.3167 116.26L175.007 29.066L169.824 24.9786C158.253 15.8512 144.367 11.0271 129.665 11.0271H129.667Z" fill="#D63E3E"/>
<defs>
<linearGradient id="paint0_linear_611_2029" x1="0.762712" y1="72.4729" x2="230" y2="72.4729" gradientUnits="userSpaceOnUse">
<stop offset="0.02" stop-color="#005EB2"/>
<stop offset="0.15" stop-color="#0065B1"/>
<stop offset="0.35" stop-color="#0279AE"/>
<stop offset="0.59" stop-color="#049BAA"/>
<stop offset="0.86" stop-color="#08C9A4"/>
<stop offset="1" stop-color="#0BE5A1"/>
</linearGradient>
</defs>
</svg>
