<svg width="82" height="82" viewBox="0 0 82 82" fill="none" xmlns="http://www.w3.org/2000/svg">
<path d="M40.9399 81.4421C63.3075 81.4421 81.4399 63.3096 81.4399 40.9421C81.4399 18.5745 63.3075 0.442078 40.9399 0.442078C18.5724 0.442078 0.439941 18.5745 0.439941 40.9421C0.439941 63.3096 18.5724 81.4421 40.9399 81.4421Z" fill="url(#paint0_linear_611_3793)"/>
<path d="M31.2217 52.7107C31.5719 52.3616 36.9954 48.424 36.893 49.7121C36.6777 52.4547 39.1364 50.309 40.4222 50.8897C41.7522 51.4913 42.7354 53.7987 44.2143 54.6876C46.6393 56.1445 52.1756 58.5298 54.4958 55.6953C55.4314 58.5578 57.8912 59.6923 59.8274 57.2871C63.4194 59.9541 68.8906 56.3737 68.4461 52.2976C72.0288 54.6993 77.2976 50.8164 74.4933 46.1736C78.3064 46.3086 79.3129 40.5267 75.8652 39.3073C78.609 37.0499 76.9532 31.339 73.3391 31.2413C75.2264 28.9688 73.1796 24.9776 70.4498 24.7251C71.5995 22.3153 69.6225 20.5641 67.2756 20.8725C68.3996 18.2823 67.6863 13.1113 61.1097 14.802C63.4264 7.00245 53.7697 1.92104 48.5219 5.1279C47.1315 -0.920449 38.7338 0.399065 37.2258 3.94453C36.4415 0.938972 31.6743 1.72789 31.9873 4.71599C28.2801 1.33459 18.6944 4.96849 20.7482 11.1123C12.8334 11.4416 9.63585 18.1869 12.3773 22.0721C7.07594 21.2832 5.01289 27.9855 8.33611 30.9608C3.53397 31.5903 2.4751 38.8407 5.94842 40.8618C2.97893 44.3491 6.49182 48.1296 8.61654 47.6537C6.84322 50.6383 9.97096 56.0456 13.7934 53.6218C12.6961 59.4153 20.4654 61.0571 22.3795 57.635C24.8452 63.3227 29.1737 54.7481 31.2205 52.7095L31.2217 52.7107Z" fill="#E5E5E5"/>
<path d="M59.5713 16.7801C55.906 11.2577 50.5791 7.18747 44.2771 6.92334C44.2771 6.92334 44.1549 6.91868 43.9524 6.91054L43.9582 6.65222C43.9582 6.65222 42.4304 6.71506 40.8538 6.78138C39.2771 6.71506 37.7493 6.65222 37.7493 6.65222L37.7551 6.91054C37.5527 6.91868 37.4293 6.92334 37.4293 6.92334C31.1273 7.18747 25.9563 11.3741 22.1362 16.7801C15.8086 25.7328 18.7304 36.8893 18.7304 46.4587C18.7304 62.1684 32 68.951 40.8549 68.951C49.7099 68.951 63.1249 62.0567 63.1249 46.4587C63.1249 36.9324 66.0374 26.5182 59.5736 16.7801H59.5713Z" fill="#935D38"/>
<path d="M57.6108 43.0924C57.136 46.916 59.3375 50.3358 62.5304 50.7314C65.7233 51.1259 68.694 48.3472 69.1676 44.5237C69.64 40.7001 67.4362 37.2815 64.2444 36.8847C61.0527 36.489 58.0809 39.2689 57.6096 43.0913L57.6108 43.0924Z" fill="#935D38"/>
<path d="M24.2192 43.0924C24.6939 46.916 22.4924 50.3358 19.2995 50.7314C16.1066 51.1259 13.136 48.3472 12.6624 44.5237C12.19 40.7001 14.3938 37.2815 17.5855 36.8847C20.7773 36.489 23.7491 39.2689 24.2204 43.0913L24.2192 43.0924Z" fill="#935D38"/>
<path d="M70.0474 29.6343C69.7902 24.7996 65.7886 18.1218 61.9499 15.7794C61.5299 15.5223 60.8969 15.3012 60.1789 15.1546C59.6193 10.7038 45.9482 1.79771 36.7942 5.70971C32.0375 7.99733 27.8287 4.00272 27.461 9.5996C20.0129 13.5174 16.8502 16.1285 14.9524 20.5339C13.4467 24.027 12.3285 28.3555 13.2385 32.1675C13.5922 33.6487 13.5235 34.8472 14.807 35.6827C16.6233 36.8637 18.5549 36.7171 20.5284 37.342C24.6824 38.6557 28.1627 33.1298 27.489 30.9608C27.489 30.9608 33.1696 32.968 35.8063 27.7098C40.7865 30.8852 45.6631 26.6672 45.1279 24.0526C47.9798 27.377 52.7517 25.5909 54.3889 22.1315C53.1055 26.7917 57.0721 28.9839 58.8734 28.4731C56.7289 31.197 59.5506 35.7327 62.6492 34.1107C61.1738 37.9622 65.2173 41.1737 68.7651 40.9282C73.4741 40.6024 70.2242 32.9785 70.0462 29.6332L70.0474 29.6343Z" fill="#E5E5E5"/>
<path d="M46.8894 63.1295H34.9917V75.6207H46.8894V63.1295Z" fill="#935D38"/>
<path d="M59.8484 79.5478C59.7122 79.2418 59.5784 78.9311 59.4365 78.6414C56.922 74.0987 53.3346 72.8956 52.669 72.7431C52.6562 72.7373 52.6446 72.7315 52.6318 72.7268C52.6318 72.7268 52.6236 72.7327 52.6225 72.7327C52.5794 72.7245 52.5503 72.7199 52.5503 72.7233C52.5608 72.6233 47.2385 71.1793 47.2385 71.1793C46.3705 74.0056 39.0468 76.9228 34.638 71.1793C34.638 71.1793 29.3157 72.6233 29.3262 72.7233C29.3262 72.7199 29.2971 72.7234 29.2541 72.7327L29.2447 72.7257C29.2319 72.7315 29.2203 72.7373 29.2075 72.7431C28.5419 72.8956 24.9546 74.0987 22.4401 78.6414C22.2993 78.9311 22.1643 79.2418 22.0281 79.5478C21.7279 80.1692 21.4475 80.8336 21.1938 81.5585H60.6792C60.4255 80.8336 60.1451 80.1692 59.8449 79.5478H59.8484Z" fill="#007AFF"/>
<path d="M59.8484 79.5478C59.7123 79.2418 59.5784 78.9311 59.4365 78.6414C56.922 74.0987 53.3346 72.8956 52.669 72.7431C52.6562 72.7373 52.6446 72.7315 52.6318 72.7268C52.6318 72.7268 52.6236 72.7327 52.6225 72.7327C52.5794 72.7245 52.5503 72.7199 52.5503 72.7233C52.5608 72.6233 47.2385 71.1793 47.2385 71.1793C46.3705 74.0056 39.0468 76.9228 34.638 71.1793C34.638 71.1793 29.3157 72.6233 29.3262 72.7233C29.3262 72.7199 29.2971 72.7234 29.2541 72.7327L29.2447 72.7257C29.2319 72.7315 29.2203 72.7373 29.2075 72.7431C28.5419 72.8956 24.9546 74.0987 22.4401 78.6414C22.2993 78.9311 22.1643 79.2418 22.0281 79.5478C21.7279 80.1692 21.4475 80.8336 21.1938 81.5585H60.6792C60.4255 80.8336 60.1451 80.1692 59.8449 79.5478H59.8484Z" stroke="#007AFF" stroke-width="0.340933" stroke-miterlimit="10"/>
<path d="M20.2526 50.4976C20.2526 51.8974 19.1181 53.033 17.7171 53.033C16.3161 53.033 15.1816 51.8985 15.1816 50.4976C15.1816 49.0966 16.3161 47.9621 17.7171 47.9621C19.1181 47.9621 20.2526 49.0966 20.2526 50.4976Z" fill="#FFD95F"/>
<path d="M66.3109 50.4976C66.3109 51.8974 65.1764 53.033 63.7755 53.033C62.3745 53.033 61.24 51.8985 61.24 50.4976C61.24 49.0966 62.3745 47.9621 63.7755 47.9621C65.1764 47.9621 66.3109 49.0966 66.3109 50.4976Z" fill="#FFD95F"/>
<path d="M65.9132 12.2822C65.849 12.2822 65.7917 12.2682 65.7415 12.2403C65.6921 12.2114 65.6535 12.1723 65.6256 12.123C65.5976 12.0727 65.5837 12.0155 65.5837 11.9512C65.5837 11.8861 65.5976 11.8288 65.6256 11.7795C65.6535 11.7292 65.6921 11.6901 65.7415 11.6622C65.7917 11.6333 65.849 11.6189 65.9132 11.6189C65.9774 11.6189 66.0342 11.6333 66.0836 11.6622C66.1329 11.6901 66.1715 11.7292 66.1995 11.7795C66.2274 11.8288 66.2413 11.8861 66.2413 11.9512C66.2413 12.0155 66.2274 12.0727 66.1995 12.123C66.1715 12.1723 66.1329 12.2114 66.0836 12.2403C66.0342 12.2682 65.9774 12.2822 65.9132 12.2822ZM65.9118 12.1565C65.95 12.1565 65.9835 12.1481 66.0123 12.1314C66.0421 12.1137 66.0654 12.0895 66.0822 12.0588C66.0989 12.0271 66.1073 11.9913 66.1073 11.9512C66.1073 11.9103 66.0989 11.8744 66.0822 11.8437C66.0654 11.813 66.0421 11.7888 66.0123 11.7711C65.9835 11.7534 65.95 11.7446 65.9118 11.7446C65.8736 11.7446 65.8397 11.7534 65.8099 11.7711C65.781 11.7888 65.7582 11.813 65.7415 11.8437C65.7256 11.8744 65.7177 11.9103 65.7177 11.9512C65.7177 11.9913 65.7256 12.0271 65.7415 12.0588C65.7582 12.0895 65.781 12.1137 65.8099 12.1314C65.8397 12.1481 65.8736 12.1565 65.9118 12.1565ZM65.6298 11.7725L65.9537 11.2321C65.9705 11.2061 65.9919 11.193 66.0179 11.193C66.0375 11.193 66.0538 11.1986 66.0668 11.2098C66.0798 11.221 66.0877 11.2349 66.0905 11.2517C66.0943 11.2684 66.091 11.2852 66.0808 11.302L65.8825 11.6315L65.6298 11.7725ZM66.7078 12.2822C66.637 12.2822 66.5765 12.2608 66.5263 12.2179C66.4769 12.1742 66.4392 12.1118 66.4132 12.0308C66.3871 11.9489 66.3741 11.8507 66.3741 11.7362C66.3741 11.6217 66.3871 11.524 66.4132 11.443C66.4392 11.3611 66.4769 11.2987 66.5263 11.2559C66.5765 11.2121 66.637 11.1903 66.7078 11.1903C66.7785 11.1903 66.8386 11.2126 66.8879 11.2573C66.9382 11.301 66.9763 11.3639 67.0024 11.4458C67.0285 11.5268 67.0415 11.6236 67.0415 11.7362C67.0415 11.8488 67.0285 11.9461 67.0024 12.028C66.9763 12.109 66.9382 12.1719 66.8879 12.2165C66.8386 12.2603 66.7785 12.2822 66.7078 12.2822ZM66.7078 12.1369C66.7506 12.1369 66.786 12.1197 66.8139 12.0853C66.8418 12.0499 66.8628 12.002 66.8767 11.9415C66.8907 11.881 66.8977 11.8125 66.8977 11.7362C66.8977 11.6599 66.8907 11.5915 66.8767 11.531C66.8628 11.4704 66.8418 11.4225 66.8139 11.3871C66.786 11.3518 66.7506 11.3341 66.7078 11.3341C66.665 11.3341 66.6296 11.3518 66.6017 11.3871C66.5737 11.4216 66.5528 11.469 66.5388 11.5296C66.5249 11.5901 66.5179 11.6589 66.5179 11.7362C66.5179 11.8135 66.5249 11.8824 66.5388 11.9429C66.5528 12.0034 66.5737 12.0508 66.6017 12.0853C66.6305 12.1197 66.6659 12.1369 66.7078 12.1369ZM67.4941 12.1286C67.4736 12.1286 67.4564 12.1221 67.4424 12.109C67.4294 12.0951 67.4229 12.0778 67.4229 12.0574V11.8703H67.2358C67.2153 11.8703 67.1981 11.8633 67.1841 11.8493C67.1711 11.8353 67.1646 11.8181 67.1646 11.7976C67.1646 11.7772 67.1711 11.7604 67.1841 11.7474C67.1981 11.7334 67.2153 11.7264 67.2358 11.7264H67.4229V11.5393C67.4229 11.5198 67.4299 11.503 67.4438 11.4891C67.4587 11.4751 67.4755 11.4681 67.4941 11.4681C67.5155 11.4681 67.5327 11.4751 67.5457 11.4891C67.5588 11.5021 67.5653 11.5188 67.5653 11.5393V11.7264H67.7524C67.772 11.7264 67.7887 11.7334 67.8027 11.7474C67.8176 11.7613 67.825 11.7781 67.825 11.7976C67.825 11.8181 67.8176 11.8353 67.8027 11.8493C67.7887 11.8633 67.772 11.8703 67.7524 11.8703H67.5653V12.0574C67.5653 12.0778 67.5588 12.0951 67.5457 12.109C67.5327 12.1221 67.5155 12.1286 67.4941 12.1286Z" fill="#007AFF"/>
<path d="M65.7415 12.2403L65.7121 12.2905L65.7132 12.2911L65.7415 12.2403ZM65.6256 12.123L65.5747 12.1512L65.5749 12.1516L65.6256 12.123ZM65.6256 11.7795L65.6762 11.8082L65.6764 11.8077L65.6256 11.7795ZM65.7415 11.6622L65.7701 11.7128L65.7704 11.7127L65.7415 11.6622ZM66.0836 11.6622L66.0542 11.7124L66.0549 11.7128L66.0836 11.6622ZM66.1995 11.7795L66.1486 11.8077L66.1488 11.8082L66.1995 11.7795ZM66.1995 12.123L66.2501 12.1516L66.2503 12.1512L66.1995 12.123ZM66.0836 12.2403L66.1122 12.2909L66.1129 12.2905L66.0836 12.2403ZM66.0123 12.1314L66.0416 12.1817L66.0421 12.1814L66.0123 12.1314ZM66.0822 12.0588L66.1332 12.0866L66.1336 12.086L66.0822 12.0588ZM66.0123 11.7711L65.9819 11.8207L65.9826 11.8211L66.0123 11.7711ZM65.8099 11.7711L65.7802 11.7211L65.7795 11.7215L65.8099 11.7711ZM65.7415 11.8437L65.6904 11.8159L65.6897 11.8171L65.7415 11.8437ZM65.7415 12.0588L65.6894 12.0848L65.6904 12.0866L65.7415 12.0588ZM65.8099 12.1314L65.7795 12.181L65.7814 12.1821L65.8099 12.1314ZM65.6298 11.7725L65.5799 11.7426L65.4678 11.9295L65.6581 11.8233L65.6298 11.7725ZM65.9537 11.2321L65.9047 11.2007L65.9038 11.2022L65.9537 11.2321ZM66.0668 11.2098L66.0289 11.254L66.0289 11.254L66.0668 11.2098ZM66.0905 11.2517L66.0331 11.2613L66.0337 11.2643L66.0905 11.2517ZM66.0808 11.302L66.0311 11.2716L66.0309 11.272L66.0808 11.302ZM65.8825 11.6315L65.9108 11.6823L65.9244 11.6747L65.9323 11.6615L65.8825 11.6315ZM65.9132 12.224C65.8577 12.224 65.8104 12.212 65.7697 12.1894L65.7132 12.2911C65.7731 12.3244 65.8403 12.3403 65.9132 12.3403V12.224ZM65.7708 12.1901C65.7303 12.1663 65.699 12.1346 65.6762 12.0943L65.5749 12.1516C65.608 12.21 65.654 12.2565 65.7121 12.2905L65.7708 12.1901ZM65.6764 12.0947C65.6538 12.0541 65.6419 12.0068 65.6419 11.9512H65.5255C65.5255 12.0242 65.5414 12.0914 65.5747 12.1512L65.6764 12.0947ZM65.6419 11.9512C65.6419 11.8946 65.6539 11.8475 65.6762 11.8082L65.5749 11.7508C65.5414 11.8101 65.5255 11.8776 65.5255 11.9512H65.6419ZM65.6764 11.8077C65.6992 11.7667 65.7302 11.7354 65.7701 11.7128L65.7128 11.6116C65.654 11.6449 65.6078 11.6918 65.5747 11.7512L65.6764 11.8077ZM65.7704 11.7127C65.811 11.6894 65.858 11.6771 65.9132 11.6771V11.5607C65.8399 11.5607 65.7725 11.5773 65.7125 11.6117L65.7704 11.7127ZM65.9132 11.6771C65.9684 11.6771 66.0148 11.6894 66.0542 11.7124L66.1129 11.612C66.0536 11.5773 65.9865 11.5607 65.9132 11.5607V11.6771ZM66.0549 11.7128C66.0948 11.7354 66.1258 11.7667 66.1486 11.8077L66.2503 11.7512C66.2173 11.6918 66.171 11.6449 66.1122 11.6116L66.0549 11.7128ZM66.1488 11.8082C66.1711 11.8475 66.1832 11.8946 66.1832 11.9512H66.2995C66.2995 11.8776 66.2837 11.8101 66.2501 11.7508L66.1488 11.8082ZM66.1832 11.9512C66.1832 12.0068 66.1712 12.0541 66.1486 12.0947L66.2503 12.1512C66.2836 12.0914 66.2995 12.0242 66.2995 11.9512H66.1832ZM66.1488 12.0943C66.126 12.1346 66.0947 12.1663 66.0542 12.1901L66.1129 12.2905C66.1711 12.2565 66.2171 12.21 66.2501 12.1516L66.1488 12.0943ZM66.0549 12.1896C66.0154 12.212 65.9688 12.224 65.9132 12.224V12.3403C65.9861 12.3403 66.053 12.3244 66.1122 12.2909L66.0549 12.1896ZM65.9118 12.2147C65.9587 12.2147 66.0026 12.2043 66.0416 12.1817L65.9831 12.0811C65.9644 12.092 65.9412 12.0983 65.9118 12.0983V12.2147ZM66.0421 12.1814C66.0809 12.1583 66.1115 12.1264 66.1332 12.0866L66.0311 12.0309C66.0193 12.0525 66.0034 12.069 65.9826 12.0813L66.0421 12.1814ZM66.1336 12.086C66.1553 12.045 66.1655 11.9996 66.1655 11.9512H66.0491C66.0491 11.9829 66.0426 12.0092 66.0307 12.0315L66.1336 12.086ZM66.1655 11.9512C66.1655 11.9022 66.1554 11.8565 66.1332 11.8159L66.0311 11.8716C66.0424 11.8924 66.0491 11.9183 66.0491 11.9512H66.1655ZM66.1332 11.8159C66.1115 11.7761 66.0809 11.7442 66.0421 11.7211L65.9826 11.8211C66.0034 11.8334 66.0193 11.8499 66.0311 11.8716L66.1332 11.8159ZM66.0428 11.7215C66.0036 11.6975 65.9593 11.6864 65.9118 11.6864V11.8028C65.9407 11.8028 65.9634 11.8093 65.9819 11.8207L66.0428 11.7215ZM65.9118 11.6864C65.8643 11.6864 65.8199 11.6975 65.7802 11.7211L65.8396 11.8211C65.8595 11.8093 65.883 11.8028 65.9118 11.8028V11.6864ZM65.7795 11.7215C65.7416 11.7447 65.7118 11.7765 65.6904 11.8159L65.7925 11.8716C65.8046 11.8495 65.8204 11.8329 65.8403 11.8207L65.7795 11.7215ZM65.6897 11.8171C65.669 11.8574 65.6595 11.9027 65.6595 11.9512H65.7759C65.7759 11.9178 65.7823 11.8914 65.7932 11.8704L65.6897 11.8171ZM65.6595 11.9512C65.6595 11.9991 65.6691 12.044 65.6894 12.0848L65.7935 12.0327C65.7822 12.0102 65.7759 11.9834 65.7759 11.9512H65.6595ZM65.6904 12.0866C65.7118 12.1259 65.7416 12.1578 65.7795 12.181L65.8403 12.0818C65.8204 12.0696 65.8046 12.053 65.7925 12.0309L65.6904 12.0866ZM65.7814 12.1821C65.8208 12.2043 65.8648 12.2147 65.9118 12.2147V12.0983C65.8824 12.0983 65.8585 12.092 65.8384 12.0807L65.7814 12.1821ZM65.6797 11.8024L66.0036 11.2621L65.9038 11.2022L65.5799 11.7426L65.6797 11.8024ZM66.0026 11.2636C66.011 11.2505 66.0156 11.2512 66.0179 11.2512V11.1349C65.9681 11.1349 65.9299 11.1616 65.9048 11.2007L66.0026 11.2636ZM66.0179 11.2512C66.0256 11.2512 66.0279 11.2531 66.0289 11.254L66.1047 11.1656C66.0796 11.1442 66.0493 11.1349 66.0179 11.1349V11.2512ZM66.0289 11.254C66.0317 11.2564 66.0326 11.2581 66.0332 11.2613L66.1479 11.2421C66.1429 11.2117 66.1279 11.1856 66.1047 11.1656L66.0289 11.254ZM66.0337 11.2643C66.0339 11.2649 66.0339 11.2652 66.0338 11.2657C66.0337 11.2663 66.0332 11.2683 66.0311 11.2716L66.1304 11.3323C66.1473 11.3047 66.1548 11.2727 66.1473 11.2391L66.0337 11.2643ZM66.0309 11.272L65.8326 11.6015L65.9323 11.6615L66.1306 11.332L66.0309 11.272ZM65.8541 11.5807L65.6014 11.7217L65.6581 11.8233L65.9108 11.6823L65.8541 11.5807ZM66.5263 12.2179L66.4877 12.2615L66.4885 12.2622L66.5263 12.2179ZM66.4132 12.0308L66.3577 12.0485L66.3578 12.0487L66.4132 12.0308ZM66.4132 11.443L66.4685 11.4608L66.4686 11.4606L66.4132 11.443ZM66.5263 11.2559L66.5644 11.2998L66.5645 11.2998L66.5263 11.2559ZM66.8879 11.2573L66.8488 11.3004L66.8497 11.3012L66.8879 11.2573ZM67.0024 11.4458L66.947 11.4634L66.947 11.4636L67.0024 11.4458ZM67.0024 12.028L67.0578 12.0459L67.0578 12.0457L67.0024 12.028ZM66.8879 12.2165L66.9265 12.2601L66.9266 12.26L66.8879 12.2165ZM66.8139 12.0853L66.8591 12.1219L66.8596 12.1213L66.8139 12.0853ZM66.8767 11.9415L66.9334 11.9545L66.8767 11.9415ZM66.8767 11.531L66.9334 11.5179V11.5179L66.8767 11.531ZM66.6017 11.3871L66.6469 11.4238L66.6473 11.4232L66.6017 11.3871ZM66.5388 11.5296L66.4821 11.5165L66.5388 11.5296ZM66.6017 12.0853L66.5565 12.1219L66.5571 12.1226L66.6017 12.0853ZM66.7078 12.224C66.6498 12.224 66.603 12.2068 66.564 12.1736L66.4885 12.2622C66.5501 12.3147 66.6243 12.3403 66.7078 12.3403V12.224ZM66.5649 12.1744C66.5253 12.1393 66.4923 12.0869 66.4685 12.013L66.3578 12.0487C66.3861 12.1367 66.4286 12.2091 66.4877 12.2615L66.5649 12.1744ZM66.4686 12.0132C66.4448 11.9385 66.4322 11.8466 66.4322 11.7362H66.3159C66.3159 11.8548 66.3294 11.9593 66.3577 12.0485L66.4686 12.0132ZM66.4322 11.7362C66.4322 11.6258 66.4449 11.5344 66.4685 11.4608L66.3578 11.4252C66.3293 11.5135 66.3159 11.6176 66.3159 11.7362H66.4322ZM66.4686 11.4606C66.4924 11.3858 66.5253 11.3337 66.5644 11.2998L66.4881 11.2119C66.4285 11.2637 66.386 11.3364 66.3577 11.4253L66.4686 11.4606ZM66.5645 11.2998C66.6035 11.2658 66.6501 11.2484 66.7078 11.2484V11.1321C66.6239 11.1321 66.5496 11.1584 66.4881 11.212L66.5645 11.2998ZM66.7078 11.2484C66.7651 11.2484 66.8109 11.2661 66.8489 11.3004L66.927 11.2142C66.8662 11.1591 66.792 11.1321 66.7078 11.1321V11.2484ZM66.8497 11.3012C66.8899 11.3362 66.9232 11.3888 66.947 11.4634L67.0578 11.4281C67.0295 11.3389 66.9864 11.2659 66.9261 11.2134L66.8497 11.3012ZM66.947 11.4636C66.9707 11.5373 66.9833 11.6278 66.9833 11.7362H67.0997C67.0997 11.6194 67.0862 11.5162 67.0578 11.428L66.947 11.4636ZM66.9833 11.7362C66.9833 11.8446 66.9708 11.9356 66.947 12.0104L67.0578 12.0457C67.0862 11.9566 67.0997 11.8531 67.0997 11.7362H66.9833ZM66.947 12.0102C66.9233 12.0839 66.89 12.1369 66.8493 12.1731L66.9266 12.26C66.9864 12.2068 67.0294 12.1342 67.0578 12.0459L66.947 12.0102ZM66.8493 12.173C66.8114 12.2066 66.7654 12.224 66.7078 12.224V12.3403C66.7916 12.3403 66.8657 12.314 66.9265 12.2601L66.8493 12.173ZM66.7078 12.1951C66.7689 12.1951 66.8206 12.1694 66.8591 12.1219L66.7687 12.0486C66.7514 12.07 66.7324 12.0788 66.7078 12.0788V12.1951ZM66.8596 12.1213C66.8944 12.0772 66.9182 12.0205 66.9334 11.9545L66.8201 11.9284C66.8073 11.9835 66.7892 12.0227 66.7682 12.0492L66.8596 12.1213ZM66.9334 11.9545C66.9486 11.8889 66.9559 11.816 66.9559 11.7362H66.8395C66.8395 11.8091 66.8328 11.873 66.8201 11.9284L66.9334 11.9545ZM66.9559 11.7362C66.9559 11.6564 66.9486 11.5835 66.9334 11.5179L66.8201 11.544C66.8328 11.5994 66.8395 11.6633 66.8395 11.7362H66.9559ZM66.9334 11.5179C66.9182 11.452 66.8944 11.3952 66.8596 11.3511L66.7682 11.4232C66.7892 11.4498 66.8073 11.4889 66.8201 11.544L66.9334 11.5179ZM66.8596 11.3511C66.8213 11.3026 66.7695 11.2759 66.7078 11.2759V11.3923C66.7317 11.3923 66.7507 11.4009 66.7682 11.4232L66.8596 11.3511ZM66.7078 11.2759C66.6461 11.2759 66.5943 11.3026 66.556 11.3511L66.6473 11.4232C66.6649 11.4009 66.6838 11.3923 66.7078 11.3923V11.2759ZM66.5565 11.3505C66.5212 11.394 66.4973 11.4506 66.4821 11.5165L66.5955 11.5426C66.6082 11.4875 66.6263 11.4492 66.6469 11.4238L66.5565 11.3505ZM66.4821 11.5165C66.467 11.5822 66.4597 11.6556 66.4597 11.7362H66.5761C66.5761 11.6623 66.5828 11.598 66.5955 11.5426L66.4821 11.5165ZM66.4597 11.7362C66.4597 11.8169 66.467 11.8903 66.4821 11.9559L66.5955 11.9298C66.5828 11.8745 66.5761 11.8101 66.5761 11.7362H66.4597ZM66.4821 11.9559C66.4973 12.0218 66.5212 12.0784 66.5565 12.1219L66.6469 12.0486C66.6263 12.0233 66.6082 11.9849 66.5955 11.9298L66.4821 11.9559ZM66.5571 12.1226C66.5961 12.1692 66.6473 12.1951 66.7078 12.1951V12.0788C66.6845 12.0788 66.665 12.0703 66.6463 12.0479L66.5571 12.1226ZM67.4424 12.109L67.3998 12.1488L67.4027 12.1516L67.4424 12.109ZM67.4229 11.8703H67.4811V11.8121H67.4229V11.8703ZM67.1841 11.8493L67.1415 11.889L67.143 11.8904L67.1841 11.8493ZM67.1841 11.7474L67.2252 11.7885V11.7885L67.1841 11.7474ZM67.4229 11.7264V11.7846H67.4811V11.7264H67.4229ZM67.4438 11.4891L67.404 11.4466L67.4027 11.4479L67.4438 11.4891ZM67.5457 11.4891L67.5032 11.5288L67.5046 11.5302L67.5457 11.4891ZM67.5653 11.7264H67.5071V11.7846H67.5653V11.7264ZM67.8027 11.7474L67.7615 11.7885L67.7629 11.7898L67.8027 11.7474ZM67.8027 11.8493L67.7629 11.8068L67.7615 11.8082L67.8027 11.8493ZM67.5653 11.8703V11.8121H67.5071V11.8703H67.5653ZM67.5457 12.109L67.5869 12.1502L67.5883 12.1487L67.5457 12.109ZM67.4941 12.0704C67.4872 12.0704 67.4845 12.0687 67.4821 12.0665L67.4027 12.1516C67.4283 12.1754 67.46 12.1868 67.4941 12.1868V12.0704ZM67.485 12.0693C67.4827 12.067 67.4811 12.0643 67.4811 12.0574H67.3647C67.3647 12.0914 67.376 12.1232 67.3999 12.1487L67.485 12.0693ZM67.4811 12.0574V11.8703H67.3647V12.0574H67.4811ZM67.4229 11.8121H67.2358V11.9284H67.4229V11.8121ZM67.2358 11.8121C67.2301 11.8121 67.2279 11.8108 67.2252 11.8082L67.143 11.8904C67.1683 11.9158 67.2005 11.9284 67.2358 11.9284V11.8121ZM67.2266 11.8096C67.2244 11.8072 67.2227 11.8046 67.2227 11.7976H67.1064C67.1064 11.8317 67.1177 11.8634 67.1416 11.889L67.2266 11.8096ZM67.2227 11.7976C67.2227 11.7907 67.2244 11.7894 67.2252 11.7885L67.143 11.7062C67.1178 11.7314 67.1064 11.7636 67.1064 11.7976H67.2227ZM67.2252 11.7885C67.2279 11.7859 67.2301 11.7846 67.2358 11.7846V11.6683C67.2005 11.6683 67.1683 11.6809 67.143 11.7062L67.2252 11.7885ZM67.2358 11.7846H67.4229V11.6683H67.2358V11.7846ZM67.4811 11.7264V11.5393H67.3647V11.7264H67.4811ZM67.4811 11.5393C67.4811 11.5354 67.4818 11.5334 67.485 11.5302L67.4027 11.4479C67.3779 11.4727 67.3647 11.5042 67.3647 11.5393H67.4811ZM67.4836 11.5315C67.4889 11.5266 67.4917 11.5263 67.4941 11.5263V11.4099C67.4592 11.4099 67.4286 11.4236 67.404 11.4466L67.4836 11.5315ZM67.4941 11.5263C67.4984 11.5263 67.5005 11.527 67.5012 11.5273C67.5017 11.5275 67.5023 11.5278 67.5032 11.5288L67.5883 11.4494C67.5629 11.4221 67.5295 11.4099 67.4941 11.4099V11.5263ZM67.5046 11.5302C67.5055 11.5311 67.5071 11.5324 67.5071 11.5393H67.6235C67.6235 11.5053 67.6121 11.4731 67.5869 11.4479L67.5046 11.5302ZM67.5071 11.5393V11.7264H67.6235V11.5393H67.5071ZM67.5653 11.7846H67.7524V11.6683H67.5653V11.7846ZM67.7524 11.7846C67.7563 11.7846 67.7584 11.7853 67.7615 11.7885L67.8438 11.7062C67.8191 11.6815 67.7876 11.6683 67.7524 11.6683V11.7846ZM67.7629 11.7898C67.7653 11.7921 67.766 11.7935 67.7663 11.794C67.7665 11.7945 67.7668 11.7955 67.7668 11.7976H67.8832C67.8832 11.7612 67.8685 11.7293 67.8425 11.7049L67.7629 11.7898ZM67.7668 11.7976C67.7668 11.8021 67.766 11.8039 67.7629 11.8069L67.8425 11.8918C67.8691 11.8668 67.8832 11.8341 67.8832 11.7976H67.7668ZM67.7615 11.8082C67.7584 11.8113 67.7563 11.8121 67.7524 11.8121V11.9284C67.7876 11.9284 67.8191 11.9152 67.8438 11.8904L67.7615 11.8082ZM67.7524 11.8121H67.5653V11.9284H67.7524V11.8121ZM67.5071 11.8703V12.0574H67.6235V11.8703H67.5071ZM67.5071 12.0574C67.5071 12.0643 67.5054 12.067 67.5032 12.0693L67.5883 12.1487C67.6121 12.1232 67.6235 12.0914 67.6235 12.0574H67.5071ZM67.5046 12.0679C67.5043 12.0682 67.5028 12.0704 67.4941 12.0704V12.1868C67.5282 12.1868 67.5612 12.1759 67.5869 12.1502L67.5046 12.0679Z" fill="#007AFF"/>
<defs>
<linearGradient id="paint0_linear_611_3793" x1="0.439941" y1="40.9421" x2="81.4399" y2="40.9421" gradientUnits="userSpaceOnUse">
<stop offset="0.02" stop-color="#005EB2"/>
<stop offset="1" stop-color="#0BE5A1"/>
</linearGradient>
</defs>
</svg>
