<svg width="82" height="75" viewBox="0 0 82 75" fill="none" xmlns="http://www.w3.org/2000/svg">
<path d="M81.1087 37.5C81.1087 45.1289 78.8012 52.2224 74.8434 58.1164C73.6727 59.8565 72.3616 61.4945 70.9217 63.0067C70.9124 63.016 70.9031 63.0283 70.8928 63.0376C70.8928 63.0376 70.8911 63.0383 70.8876 63.0397V63.0417C70.8876 63.0417 70.8876 63.0438 70.8856 63.0438C68.7277 65.311 66.282 67.3018 63.6115 68.9635C57.9414 72.4902 51.2491 74.5284 44.0802 74.5284C36.9114 74.5284 30.2191 72.4902 24.549 68.9635C22.3818 67.6164 20.3622 66.0496 18.5261 64.295C16.8241 62.6714 15.2769 60.89 13.9102 58.9684C13.5028 58.4011 13.1139 57.8193 12.7394 57.2283C11.9143 55.9214 11.1685 54.5577 10.5125 53.1487C8.29063 48.3946 7.05078 43.0896 7.05078 37.499C7.05078 17.0486 23.6279 0.471558 44.0792 0.471558C46.5249 0.471558 48.9138 0.707769 51.2274 1.16059C53.9021 1.68253 56.4726 2.49328 58.9048 3.55674C60.5263 4.26744 62.088 5.08954 63.5775 6.01478C64.6698 6.69144 65.7209 7.4238 66.7318 8.20567C72.2059 12.4451 76.4597 18.1864 78.8765 24.8096C78.8765 24.8116 78.8786 24.8147 78.8817 24.8188C79.12 25.4749 79.3397 26.135 79.5418 26.8076V26.8096C80.5599 30.195 81.1087 33.7835 81.1087 37.5Z" fill="url(#paint0_linear_611_3702)"/>
<path d="M38.6469 61.2511C37.5762 61.2511 36.5272 61.246 35.5071 61.2336L35.536 58.8756C41.466 58.9468 48.442 58.7879 54.5969 58.6466C60.6827 58.5073 66.4301 58.3764 70.2704 58.4826C73.3772 58.5682 75.7682 57.4356 77.006 55.2922C78.1221 53.3592 78.056 50.9249 76.8337 48.9403C75.1761 46.2471 71.7134 44.8432 67.3347 45.0908L67.2017 42.7359C69.9588 42.5811 72.4004 42.9793 74.4582 43.9221C76.3293 44.7792 77.8456 46.0861 78.841 47.7046C80.5172 50.4277 80.5966 53.7873 79.0473 56.4712C77.4351 59.2645 74.3654 60.8457 70.586 60.8457C70.4591 60.8457 70.3322 60.8437 70.2043 60.8406C66.4239 60.7354 60.7054 60.8664 54.6505 61.0046C49.5312 61.1211 43.8436 61.2511 38.6469 61.2511Z" fill="#007AFF"/>
<path d="M67.9133 40.9493H63.2097C62.8479 40.9493 62.5547 41.2426 62.5547 41.6043V48.3193C62.5547 48.6811 62.8479 48.9743 63.2097 48.9743H67.9133C68.275 48.9743 68.5683 48.6811 68.5683 48.3193V41.6043C68.5683 41.2426 68.275 40.9493 67.9133 40.9493Z" fill="#0C085B"/>
<path d="M59.3822 2.11896H28.3715C25.2958 2.11896 22.8025 4.61229 22.8025 7.68797V48.307C22.8025 51.3827 25.2958 53.876 28.3715 53.876H59.3822C62.4579 53.876 64.9512 51.3827 64.9512 48.307V7.68797C64.9512 4.61229 62.4579 2.11896 59.3822 2.11896Z" fill="#007AFF"/>
<path d="M22.8025 39.1359V48.3069C22.8025 51.3694 25.308 53.8759 28.3715 53.8759H59.3822C62.4447 53.8759 64.9512 51.3704 64.9512 48.3069V39.1359H22.8025Z" fill="#0063AD"/>
<path d="M52.6879 8.45221H35.0648C34.2024 8.45221 33.5032 9.1514 33.5032 10.0139V33.7516C33.5032 34.6141 34.2024 35.3132 35.0648 35.3132H52.6879C53.5503 35.3132 54.2495 34.6141 54.2495 33.7516V10.0139C54.2495 9.1514 53.5503 8.45221 52.6879 8.45221Z" fill="#B8DDFF"/>
<path d="M58.2896 16.6413V26.0866C58.2896 26.5693 58.6805 26.9603 59.1632 26.9603H64.9509V15.7676H59.1632C58.6805 15.7676 58.2896 16.1585 58.2896 16.6413Z" fill="#2FD38D"/>
<path d="M52.6875 8.45221H35.0634C34.3754 8.45221 33.7916 8.89781 33.5833 9.51671C33.74 9.4641 33.9071 9.43522 34.0804 9.43522H51.7045C52.5668 9.43522 53.2661 10.1346 53.2661 10.9969V34.7356C53.2661 34.9099 53.2373 35.077 53.1847 35.2328C53.8036 35.0255 54.2492 34.4406 54.2492 33.7526V10.0139C54.2492 9.15156 53.5498 8.45221 52.6875 8.45221Z" fill="#62B3EF"/>
<path d="M64.4405 21.0457H58.6188C58.4383 21.0457 58.2908 21.1932 58.2908 21.3737C58.2908 21.5542 58.4383 21.7017 58.6188 21.7017H64.4405C64.621 21.7017 64.7685 21.5542 64.7685 21.3737C64.7685 21.1932 64.621 21.0457 64.4405 21.0457Z" fill="#1E9B62"/>
<path d="M38.1841 14.8918L38.674 15.3827L38.966 15.0898V12.0211L38.1841 12.804V14.8918Z" fill="black"/>
<path d="M38.1841 16.1646V18.2533L38.966 19.0362V15.9768L38.674 15.6746L38.1841 16.1646Z" fill="black"/>
<path d="M38.1077 16.1337V18.2843L39.0412 19.2178V15.9459L38.675 15.5663L38.1087 16.1337H38.1077ZM38.8906 18.8537L38.2593 18.2214V16.1956L38.6729 15.7809L38.8906 16.0068V18.8527V18.8537Z" fill="black"/>
<path d="M38.1077 14.9226L38.673 15.4889L39.0402 15.1217V11.8395L38.1067 12.773V14.9236L38.1077 14.9226ZM38.2583 12.8349L38.8896 12.2026V15.0588L38.673 15.2754L38.2583 14.8607V12.8349Z" fill="black"/>
<path d="M44.1502 12.6699L44.9218 11.8881H40.8433L41.6158 12.6699H44.1502Z" fill="black"/>
<path d="M41.1353 15.5333L41.521 15.9252H44.2442L44.6403 15.5333L44.2442 15.1423H41.521L41.1353 15.5333Z" fill="black"/>
<path d="M41.6158 18.3968L40.8433 19.1797H44.9218L44.1502 18.3968H41.6158Z" fill="black"/>
<path d="M44.2852 14.8916L44.7823 15.3826L45.0681 15.0897V12.0231L44.2852 12.806V14.8916Z" fill="black"/>
<path d="M41.4796 16.1646L40.9897 15.6746L40.6978 15.9768V19.0332L41.4796 18.2513V16.1646Z" fill="black"/>
<path d="M44.182 12.7451L45.1031 11.8116H40.6636L41.5847 12.7451H44.182ZM44.7421 11.9633L44.1191 12.5945H41.6476L41.0246 11.9633H44.7421Z" fill="black"/>
<path d="M44.2102 14.9238L44.7837 15.489L45.1437 15.1208V11.8417L44.2102 12.7752V14.9238ZM44.3608 12.8371L44.9921 12.2058V15.0599L44.7817 15.2755L44.3608 14.8608V12.8371Z" fill="black"/>
<path d="M41.555 16.1337L40.9887 15.5674L40.6226 15.947V19.2158L41.5561 18.2823V16.1337H41.555ZM41.4044 18.2204L40.7732 18.8516V16.0078L40.9908 15.783L41.4044 16.1966V18.2204Z" fill="black"/>
<path d="M41.584 18.3215L40.6628 19.255H45.1024L44.1813 18.3215H41.584ZM41.0239 19.1033L41.6469 18.4721H44.1183L44.7414 19.1033H41.0239Z" fill="black"/>
<path d="M41.0298 15.5333L41.4898 15.9995H44.2749L44.7473 15.5333L44.2749 15.067H41.4898L41.0298 15.5333ZM44.213 15.2176L44.5327 15.5333L44.213 15.8489H41.5527L41.2412 15.5333L41.5527 15.2176H44.213Z" fill="black"/>
<path d="M47.1022 14.8918V12.8062L46.3193 12.0233V15.0899L46.6112 15.3828L47.1022 14.8918Z" fill="black"/>
<path d="M49.7728 12.67L50.5443 11.8881H46.4658L47.2374 12.67H49.7728Z" fill="black"/>
<path d="M47.1022 16.1646L46.6112 15.6747L46.3193 15.9769V19.0332L47.1022 18.2513V16.1646Z" fill="black"/>
<path d="M49.908 14.8918L50.4051 15.3828L50.6909 15.0899V12.0233L49.908 12.8062V14.8918Z" fill="black"/>
<path d="M49.908 16.1646V18.2513L50.6909 19.0332V15.9769L50.4051 15.6747L49.908 16.1646Z" fill="black"/>
<path d="M47.2374 18.3969L46.4658 19.1798H50.5443L49.7728 18.3969H47.2374Z" fill="black"/>
<path d="M47.2063 18.3215L46.2852 19.255H50.7247L49.8036 18.3215H47.2063ZM46.6462 19.1034L47.2692 18.4721H49.7406L50.3637 19.1034H46.6462Z" fill="black"/>
<path d="M49.8325 14.9238L50.406 15.4891L50.766 15.1208V11.8417L49.8325 12.7752V14.9238ZM49.9831 12.8371L50.6144 12.2059V15.06L50.404 15.2756L49.9831 14.8609V12.8371Z" fill="black"/>
<path d="M49.8036 12.7453L50.7247 11.8118H46.2852L47.2063 12.7453H49.8036ZM50.3637 11.9634L49.7406 12.5947H47.2692L46.6462 11.9634H50.3637Z" fill="black"/>
<path d="M47.1771 14.9236V12.775L46.2437 11.8415V15.1216L46.6109 15.4888L47.1761 14.9236H47.1771ZM46.3942 12.2056L47.0255 12.8369V14.8607L46.6109 15.2753L46.3942 15.0587V12.2056Z" fill="black"/>
<path d="M49.8325 16.1337V18.2823L50.766 19.2158V15.947L50.4071 15.5664L49.8325 16.1327V16.1337ZM50.6144 18.8517L49.9831 18.2204V16.1966L50.4029 15.783L50.6144 16.0079V18.8527V18.8517Z" fill="black"/>
<path d="M47.1773 16.1337L46.6111 15.5674L46.2449 15.947V19.2158L47.1784 18.2823V16.1337H47.1773ZM47.0267 18.2204L46.3955 18.8516V16.0078L46.6131 15.783L47.0267 16.1966V18.2204Z" fill="black"/>
<path d="M11.8069 67.0852C10.2876 66.5777 8.62789 65.867 7.64179 65.4441C6.15747 64.8087 5.39211 64.424 4.14297 63.999C3.52098 63.7875 2.92066 63.507 2.28629 63.3347C1.70969 63.1779 1.47863 63.049 1.09595 62.8664C0.115003 62.3971 -0.488419 59.15 1.02581 57.6192C1.32391 57.318 1.63336 57.2953 2.20686 57.1272C2.83814 56.9426 3.43227 56.6517 4.05117 56.4278C5.29205 55.9781 6.0502 55.5789 7.5211 54.9147C8.49895 54.4732 10.1452 53.7305 11.6543 53.1931C12.76 52.7991 15.0757 51.9924 18.1258 51.7696C20.2538 51.6139 21.9919 51.487 24.0507 52.2782C24.3602 52.3968 25.8816 52.9992 27.4938 54.3535C28.1117 54.8734 28.35 55.5284 29.1845 56.0689C29.989 56.5898 30.8049 56.7693 31.3681 56.8404L31.4475 63.0562C30.8854 63.1377 30.0726 63.3337 29.2794 63.87C28.4552 64.426 28.2303 65.0862 27.6217 65.6174C26.0363 67.0027 24.5273 67.635 24.2199 67.7598C22.1775 68.5901 20.4364 68.4973 18.3064 68.3828C15.2521 68.2188 12.921 67.4576 11.808 67.0852H11.8069Z" fill="url(#paint1_linear_611_3702)"/>
<path d="M36.1408 54.8889H32.9741V58.0555H36.1408V54.8889Z" fill="#0C085B"/>
<path d="M32.0231 54.7868L32.4213 50.2038C32.4594 49.7655 32.8266 49.4292 33.2661 49.4292H35.8489C36.2883 49.4292 36.6555 49.7655 36.6937 50.2038L37.0919 54.7868C37.1352 55.2819 36.7442 55.7079 36.2471 55.7079H32.8669C32.3697 55.7079 31.9788 55.2819 32.0221 54.7868H32.0231Z" fill="#2FD38D"/>
<path d="M35.1907 54.7868L34.7925 50.2038C34.7544 49.7655 34.3872 49.4292 33.9478 49.4292H35.8488C36.2882 49.4292 36.6554 49.7655 36.6936 50.2038L37.0917 54.7868C37.1351 55.2819 36.7441 55.7079 36.2469 55.7079H34.3459C34.8431 55.7079 35.234 55.2819 35.1907 54.7868Z" fill="#2FD38D"/>
<path d="M37.396 56.5062H31.7197C31.3579 56.5062 31.0647 56.7995 31.0647 57.1612V62.8375C31.0647 63.1993 31.3579 63.4925 31.7197 63.4925H37.396C37.7577 63.4925 38.051 63.1993 38.051 62.8375V57.1612C38.051 56.7995 37.7577 56.5062 37.396 56.5062Z" fill="#0D266D"/>
<defs>
<linearGradient id="paint0_linear_611_3702" x1="7.05078" y1="37.5" x2="81.1087" y2="37.5" gradientUnits="userSpaceOnUse">
<stop offset="0.02" stop-color="#005EB2"/>
<stop offset="1" stop-color="#0BE5A1"/>
</linearGradient>
<linearGradient id="paint1_linear_611_3702" x1="0.107782" y1="60.0546" x2="31.4465" y2="60.0546" gradientUnits="userSpaceOnUse">
<stop stop-color="#42DB9C"/>
<stop offset="1" stop-color="#007AFF"/>
</linearGradient>
</defs>
</svg>
