<svg width="82" height="88" viewBox="0 0 82 88" fill="none" xmlns="http://www.w3.org/2000/svg">
<path d="M80.6633 47.2459C80.6633 69.3483 62.7455 87.2661 40.6431 87.2661C36.9727 87.2661 33.4183 86.7715 30.0418 85.8453C27.6052 85.1796 25.2616 84.2867 23.0339 83.193C17.5055 80.4809 12.6943 76.5294 8.96198 71.7022C3.73422 64.9388 0.622803 56.455 0.622803 47.2459C0.622803 25.1424 18.5407 7.22449 40.6431 7.22449C49.0224 7.22449 56.8004 9.79992 63.2286 14.2036C63.4169 14.331 63.6028 14.4607 63.7887 14.5927C64.0538 14.7809 64.3155 14.9726 64.576 15.1666C65.6526 15.97 66.6867 16.8273 67.6748 17.734C75.6582 25.0505 80.6633 35.5635 80.6633 47.2459Z" fill="url(#paint0_linear_611_3778)"/>
<path d="M41.574 32.2007L35.4636 30.9463C35.4636 30.9463 33.5768 34.4605 32.8159 35.7161C32.0549 36.9705 38.1928 40.2036 39.1225 41.5028C40.0521 42.802 41.574 32.2007 41.574 32.2007Z" fill="#F99164"/>
<path d="M49.0741 42.5759C50.1747 45.576 50.7336 46.7799 54.9009 46.3105C54.3845 43.6249 55.4874 41.4316 55.6733 40.1015C55.8604 38.7713 53.5673 30.8395 51.8481 28.7117C50.1288 26.5839 40.6672 25.4121 38.9055 24.7659L34.2183 32.9352L46.797 34.0508C46.797 34.0508 47.9734 39.5758 49.0729 42.5759H49.0741Z" fill="#F99164"/>
<path d="M58.9649 37.1094C57.753 34.6579 58.2304 32.2512 58.0571 30.9187C57.8827 29.5874 53.5604 22.552 51.3373 20.9578C49.1142 19.3637 39.6813 20.7536 37.8117 20.5998L35.4692 29.7217L47.8919 27.4481C47.8919 27.4481 50.4961 32.4601 52.3553 35.0596C54.2146 37.658 55.0742 38.6703 58.9661 37.1083L58.9649 37.1094Z" fill="#FFA578"/>
<path d="M55.4991 21.4284L46.9866 29.3842C47.8347 31.7301 49.2372 32.8159 50.8222 33.4873L59.3989 25.4706C57.8105 24.3986 56.4746 22.8251 55.4991 21.4272V21.4284Z" fill="#F97E09"/>
<path d="M77.7871 0.596497L55.4988 21.4284C56.4743 22.8251 57.8102 24.3986 59.3987 25.4717L81.6227 4.70067C80.8009 2.78516 79.8403 1.03721 77.7871 0.597644V0.596497Z" fill="#E2E2E3"/>
<path opacity="0.26" d="M47.9402 29.5483L48.2684 30.5572L77.0826 3.36244L76.8014 2.31C76.8014 2.31 48.3143 29.1983 47.9402 29.5483Z" fill="white"/>
<path d="M77.8445 1.07623C77.8445 1.07623 77.6265 2.15737 78.4103 3.09044C79.1942 4.02352 80.4842 4.74657 81.1682 4.63295C80.4739 2.38805 78.6536 1.28511 77.8445 1.07623Z" fill="#C97221"/>
<path d="M63.4328 27.6879C63.4191 27.727 63.4042 27.7614 63.3904 27.7935C63.3835 27.8096 63.3766 27.8245 63.3686 27.8383C63.3181 27.9347 63.2733 27.9852 63.2733 27.9852C63.2251 28.0173 61.6631 29.025 60.1998 31.6372C59.6202 32.6712 58.9201 33.7822 58.2625 34.9161H58.2613C57.7116 35.8641 57.1905 36.8282 56.7957 37.7762H56.7946C56.7911 37.7865 56.7865 37.7957 56.7831 37.8049C56.4445 38.6232 56.1989 39.43 56.1094 40.2036C55.982 41.3065 55.4586 42.6057 54.8205 43.8877C54.3867 44.7577 53.9001 45.6184 53.4467 46.4069C52.905 47.3526 52.4103 48.1927 52.1131 48.8136C51.2053 50.7142 49.3162 57.069 48.2178 61.3063C48.0468 61.9686 47.831 62.625 47.5739 63.2792C47.5223 63.4101 47.4695 63.5398 47.4144 63.6706C47.3869 63.736 47.3582 63.8014 47.3306 63.8657C47.2744 63.9965 47.2159 64.1274 47.155 64.2571C47.0357 64.5176 46.9083 64.777 46.774 65.0375C45.4025 67.699 43.3148 70.3387 40.5363 73.1001C40.2642 73.3686 39.9865 73.6395 39.7019 73.9115C39.4184 74.1835 39.1372 74.459 38.8595 74.739C38.0239 75.578 37.2171 76.4479 36.4482 77.3236C36.1922 77.6151 35.9397 77.9067 35.693 78.1982C35.4451 78.4908 35.2029 78.7823 34.9653 79.0716C32.834 81.6711 31.1045 84.1593 30.0417 85.8453C27.6051 85.1796 25.2615 84.2867 23.0338 83.1929C17.5054 80.4809 12.6942 76.5294 8.96191 71.7022C10.097 71.157 19.8214 65.8891 21.9332 60.9919C24.0668 56.0441 19.7422 39.2579 21.333 31.3927C22.2867 26.6768 27.915 20.3725 30.8944 15.7576C33.0911 12.3535 33.8463 11.098 36.4929 10.601C39.4104 9.78728 47.932 8.87371 49.1543 9.54856C50.9998 10.5689 54.7402 13.1248 57.1848 13.748C59.6282 14.3723 60.691 14.0361 60.4328 15.473C60.3386 15.9963 60.2354 16.6689 59.906 17.3093C59.603 17.8992 59.1083 18.4616 58.2544 18.853C57.4912 19.203 56.4399 19.4176 54.9812 19.3935C50.4627 19.3201 48.6998 17.4206 48.6998 17.4206C48.6998 17.4206 44.2364 19.599 40.5569 19.1112C40.441 19.5817 40.3205 20.0489 40.1965 20.5114C39.7983 21.9977 39.3656 23.4334 38.957 24.7831C38.4555 26.4461 37.9895 27.9795 37.667 29.32C37.4926 30.0465 37.3606 30.7167 37.2883 31.3204C37.247 31.667 37.224 31.9907 37.2251 32.2914C37.2251 32.5932 37.2286 32.8985 37.2389 33.2026C37.3135 35.5221 37.7795 37.7751 40.5259 38.1676C40.7819 38.2055 41.0573 38.2261 41.3546 38.2284C44.0448 38.2548 45.7319 36.8592 47.0483 35.1859C47.6428 34.4295 48.1616 33.6181 48.6631 32.8549C48.7618 32.7045 48.864 32.545 48.9707 32.3786C49.237 31.9631 49.5273 31.5006 49.8395 31.0128C50.3674 30.1899 50.9574 29.297 51.5943 28.4512C52.6066 27.1038 53.7371 25.8734 54.9227 25.2204C55.2784 25.0241 55.6388 24.8807 56.0026 24.8003C56.7337 24.6408 57.4361 24.5157 58.0983 24.44C58.9775 24.3401 59.7866 24.3286 60.5005 24.44C60.8769 24.4973 61.2258 24.5903 61.5449 24.7223C61.5449 24.7234 61.546 24.7234 61.5472 24.7234C61.6149 24.751 61.6815 24.7808 61.7457 24.8118H61.7469C61.8444 24.8589 61.9385 24.9105 62.0304 24.9667C62.1222 25.023 62.2105 25.0838 62.2955 25.1481C62.3517 25.1905 62.4068 25.2365 62.4607 25.2835C62.5675 25.3776 62.6685 25.4798 62.7626 25.5911C63.6107 26.5896 63.5637 27.3115 63.4328 27.6879Z" fill="#FFBE96"/>
<path d="M63.4329 27.688C63.4192 27.727 63.4054 27.7626 63.3905 27.7936C63.3836 27.8096 63.3767 27.8246 63.3687 27.8383C63.3193 27.9347 63.2746 27.9852 63.2746 27.9852H63.2734C63.2252 28.0174 61.6632 29.025 60.1999 31.6372C59.6203 32.6713 58.9202 33.7823 58.2626 34.9162H58.2614C57.7117 35.8642 57.1906 36.8282 56.7958 37.7762C56.7912 37.7854 56.7878 37.7958 56.7832 37.8049C56.4446 38.6233 56.199 39.4301 56.1095 40.2036C55.9821 41.3066 55.4587 42.6058 54.8206 43.8877C54.3868 44.7577 53.9001 45.6185 53.4468 46.4069C52.9051 47.3526 52.4104 48.1928 52.1132 48.8137C51.2054 50.7143 49.3162 57.0691 48.2179 61.3064C48.0469 61.9686 47.8311 62.6251 47.574 63.2793C47.5224 63.4101 47.4696 63.5398 47.4145 63.6706C47.387 63.736 47.3583 63.8015 47.3307 63.8657C47.2733 63.9966 47.2148 64.1274 47.1551 64.2571C47.0346 64.5176 46.9072 64.777 46.7741 65.0375C45.4014 67.6991 43.3138 70.3376 40.5363 73.1001C40.2643 73.3687 39.9866 73.6395 39.702 73.9115C39.4185 74.1836 39.1373 74.459 38.8596 74.739C38.024 75.578 37.2172 76.448 36.4482 77.3237C36.1923 77.6152 35.9398 77.9067 35.6931 78.1982C35.4452 78.4909 35.203 78.7824 34.9654 79.0716C32.8341 81.6711 31.1046 84.1594 30.0418 85.8453C27.6052 85.1797 25.2616 84.2867 23.0339 83.193C26.8661 80.9573 31.9757 77.4855 33.4195 74.2031C35.724 68.9581 34.3583 65.8306 35.6655 63.9082C36.9727 61.9858 38.0206 64.7885 40.9266 64.2766C43.8314 63.7636 44.1688 62.1557 46.1555 56.5859C48.1089 51.1102 48.5806 48.529 50.5626 45.5003C50.5982 45.4486 50.6327 45.397 50.6671 45.3442C52.7375 42.2465 53.2838 41.2836 53.627 39.0307C53.7739 38.0678 53.5868 37.1209 53.324 36.3531C52.9923 35.3787 52.539 34.6912 52.4908 34.6212C52.5723 34.7199 53.6798 36.049 54.7678 35.6679C55.0524 35.5692 55.3359 35.3512 55.5999 34.9644C56.9083 33.042 56.1565 32.9284 56.3952 30.3518C56.4721 29.5243 56.5812 28.7967 56.7522 28.1344C56.774 28.0472 56.7969 27.9611 56.8222 27.8773C57.1493 26.7434 57.6761 25.7954 58.5587 24.8405C58.6734 24.7154 58.7951 24.5903 58.9225 24.4652C58.9535 24.4342 58.9822 24.4033 59.0131 24.3723C59.5422 24.3516 60.0403 24.3711 60.4983 24.4411C60.8747 24.4997 61.2248 24.5915 61.545 24.7223C61.545 24.7235 61.5461 24.7235 61.5473 24.7235C61.615 24.751 61.6815 24.7809 61.7458 24.8118H61.747C61.8445 24.86 61.9386 24.9117 62.0304 24.9668C62.1223 25.023 62.2106 25.0838 62.2956 25.1481C62.3529 25.1917 62.408 25.2365 62.4608 25.2835C62.5676 25.3777 62.6686 25.4798 62.7627 25.5911C63.6108 26.5896 63.5638 27.3115 63.4329 27.688Z" fill="#FFA578"/>
<defs>
<linearGradient id="paint0_linear_611_3778" x1="0.622803" y1="47.2459" x2="80.6633" y2="47.2459" gradientUnits="userSpaceOnUse">
<stop offset="0.02" stop-color="#005EB2"/>
<stop offset="1" stop-color="#0BE5A1"/>
</linearGradient>
</defs>
</svg>
