<svg width="81" height="81" viewBox="0 0 81 81" fill="none" xmlns="http://www.w3.org/2000/svg">
<path d="M40.5 81C62.8675 81 81 62.8675 81 40.5C81 18.1325 62.8675 0 40.5 0C18.1325 0 0 18.1325 0 40.5C0 62.8675 18.1325 81 40.5 81Z" fill="url(#paint0_linear_611_3934)"/>
<path d="M66.1969 7.22964H14.801C11.495 7.22964 8.80591 10.1535 8.80591 13.7462V67.2548C8.80591 70.8475 11.4941 73.7714 14.801 73.7714H66.1979C69.5038 73.7714 72.1949 70.8475 72.1949 67.2548V13.7462C72.1949 10.1535 69.5038 7.22964 66.1979 7.22964H66.1969ZM70.8248 67.2548C70.8248 70.0284 68.7495 72.2864 66.1969 72.2864H14.801C12.2483 72.2864 10.1731 70.0284 10.1731 67.2548V13.7462C10.1731 10.9726 12.2483 8.7176 14.801 8.7176H66.1979C68.7505 8.7176 70.8258 10.9726 70.8258 13.7462V67.2548H70.8248Z" fill="#007AFF"/>
<path d="M66.197 8.71762H14.801C12.2484 8.71762 10.1731 10.9726 10.1731 13.7462V67.2548C10.1731 70.0284 12.2484 72.2864 14.801 72.2864H66.198C68.7506 72.2864 70.8259 70.0284 70.8259 67.2548V13.7462C70.8259 10.9726 68.7506 8.71762 66.198 8.71762H66.197ZM40.3654 10.4973H40.6345C48.7687 10.4973 55.3884 17.6876 55.3884 26.5289C55.3884 26.9375 55.082 27.2705 54.7038 27.2705H26.2922C25.914 27.2705 25.6106 26.9375 25.6106 26.5289C25.6106 17.6876 32.2283 10.4973 40.3644 10.4973H40.3654ZM32.0014 66.9268L31.366 67.2087C30.7727 67.4719 30.1481 67.6035 29.5126 67.6035C28.6081 67.6035 27.6819 67.3354 26.795 66.8089C25.3326 65.9388 24.1511 64.4567 23.4646 62.6309L17.774 47.493C16.5463 44.2283 17.2004 40.6945 19.3631 38.9011L25.6764 33.6623C26.5043 32.9748 27.567 32.8245 28.5924 33.2518C29.9271 33.8077 30.9348 35.1876 31.2265 36.8572L35.163 59.3623C35.7513 62.7291 34.4509 65.8386 32.0024 66.9258L32.0014 66.9268ZM63.225 47.493L57.5344 62.6309C56.8498 64.4567 55.6664 65.9388 54.2059 66.8089C53.319 67.3354 52.3919 67.6035 51.4853 67.6035C50.8499 67.6035 50.2272 67.4719 49.635 67.2087L48.9975 66.9268C46.9439 66.0144 45.6985 63.6808 45.6985 60.9661C45.6985 60.4426 45.7427 59.9054 45.8389 59.3632L49.7725 36.8582C50.0642 35.1886 51.0748 33.8077 52.4066 33.2527C53.432 32.8255 54.4947 32.9758 55.3226 33.6633L61.6359 38.9021C63.8005 40.6955 64.4527 44.2293 63.225 47.4939V47.493Z" fill="#007AFF"/>
<path d="M40.6355 10.4973H40.3664C32.2293 10.4973 25.6125 17.6876 25.6125 26.5289C25.6125 26.9375 25.916 27.2705 26.2942 27.2705H54.7058C55.084 27.2705 55.3904 26.9375 55.3904 26.5289C55.3904 17.6876 48.7707 10.4973 40.6365 10.4973H40.6355ZM26.9954 25.7855C27.1064 23.3959 27.7517 21.1566 28.8016 19.205C29.0314 18.7758 29.2838 18.3594 29.5529 17.9616C30.596 16.4098 31.918 15.0888 33.4374 14.0841C33.8253 13.8287 34.228 13.593 34.6405 13.3779C36.1825 12.5834 37.8845 12.1002 39.6809 12.001C39.9078 11.9872 40.1356 11.9823 40.3654 11.9823H40.6346C40.773 11.9823 40.9115 11.9852 41.0471 11.9902C42.9004 12.0491 44.6594 12.5215 46.2505 13.3249C46.666 13.5341 47.0706 13.7678 47.4615 14.0203C49.0035 15.0191 50.3451 16.3431 51.4048 17.9027C51.6769 18.3005 51.9283 18.714 52.1611 19.1402C53.2336 21.1055 53.8936 23.3694 54.0046 25.7855H26.9944H26.9954Z" fill="#2DB58B"/>
<path d="M43.8943 25.7854V25.646C43.8943 24.322 43.2441 23.1602 42.2737 22.5178L43.3835 18.657C43.4945 18.2681 43.2942 17.8487 42.9337 17.7279C42.5733 17.6041 42.1902 17.8241 42.0792 18.216L40.9841 22.0209C40.8358 21.9963 40.6826 21.9855 40.5274 21.9855H40.4754C38.6172 21.9855 37.1076 23.6257 37.1076 25.645V25.7845H26.9963C27.1073 23.3949 27.7526 21.1556 28.8025 19.2041L29.6825 19.7541C29.7886 19.8208 29.9074 19.8533 30.0233 19.8533C30.2581 19.8533 30.4879 19.7216 30.6165 19.483C30.8041 19.1284 30.6932 18.6717 30.3641 18.4684L29.5539 17.9606C30.5969 16.4088 31.9189 15.0879 33.4383 14.0831L33.9873 15.1144C34.113 15.3511 34.3428 15.4846 34.5805 15.4846C34.6964 15.4846 34.8123 15.4522 34.9213 15.3854C35.2474 15.1812 35.3584 14.7254 35.1708 14.3709L34.6424 13.3769C36.1844 12.5824 37.8864 12.0992 39.6828 12V13.1167C39.6828 13.5272 39.9892 13.8602 40.3674 13.8602C40.7455 13.8602 41.049 13.5272 41.049 13.1167V11.9892C42.9023 12.0481 44.6613 12.5205 46.2524 13.3239L45.6965 14.3709C45.506 14.7254 45.6199 15.1821 45.946 15.3854C46.055 15.4522 46.1709 15.4846 46.2868 15.4846C46.5245 15.4846 46.7533 15.3501 46.88 15.1144L47.4634 14.0193C49.0054 15.0181 50.347 16.3421 51.4067 17.9017L50.4973 18.4714C50.1712 18.6757 50.0602 19.1294 50.2478 19.4859C50.3735 19.7226 50.6033 19.8562 50.841 19.8562C50.9569 19.8562 51.0728 19.8238 51.1818 19.757L52.163 19.1392C53.2355 21.1045 53.8955 23.3684 54.0065 25.7845H43.8952L43.8943 25.7854Z" fill="#E2E2E3"/>
<path d="M43.8941 25.6459V26.4356C43.8941 26.8442 43.5877 27.1771 43.2095 27.1771C42.8314 27.1771 42.525 26.8442 42.525 26.4356V25.6459C42.525 24.4458 41.6283 23.4715 40.5263 23.4715H40.4742C39.3693 23.4715 38.4726 24.4458 38.4726 25.6459V26.4356C38.4726 26.8442 38.1662 27.1771 37.7881 27.1771C37.4099 27.1771 37.1064 26.8442 37.1064 26.4356V25.6459C37.1064 23.6266 38.616 21.9865 40.4742 21.9865H40.5263C40.6815 21.9865 40.8347 21.9973 40.983 22.0218C41.4476 22.0886 41.8846 22.2634 42.2706 22.5188H42.2726C43.2439 23.1601 43.8931 24.323 43.8931 25.6469L43.8941 25.6459Z" fill="#007AFF"/>
<path d="M43.3826 18.657L42.2728 22.5178H42.2708L42.0979 23.1248C42.0066 23.444 41.7375 23.6483 41.4458 23.6483C41.379 23.6483 41.3103 23.6375 41.2435 23.6129C40.883 23.4921 40.6797 23.0737 40.7936 22.6838L40.9842 22.0208L42.0793 18.216C42.1903 17.8241 42.5733 17.6041 42.9338 17.7278C43.2942 17.8487 43.4946 18.2671 43.3836 18.657H43.3826Z" fill="#2DB58B"/>
<path d="M41.0481 11.2388V13.1186C41.0481 13.5292 40.7416 13.8621 40.3664 13.8621C39.9913 13.8621 39.6819 13.5292 39.6819 13.1186V11.2388C39.6819 10.8283 39.9883 10.4973 40.3664 10.4973C40.7446 10.4973 41.0481 10.8273 41.0481 11.2388Z" fill="#007AFF"/>
<path d="M34.9193 15.3864C34.8103 15.4532 34.6944 15.4856 34.5785 15.4856C34.3408 15.4856 34.112 15.351 33.9853 15.1153L33.4362 14.0841L33.12 13.4879C32.9324 13.1304 33.0434 12.6766 33.3694 12.4733C33.6985 12.2661 34.1159 12.3899 34.3035 12.7444L34.6394 13.3779L35.1678 14.3718C35.3554 14.7264 35.2444 15.1831 34.9183 15.3864H34.9193Z" fill="#007AFF"/>
<path d="M30.6155 19.4839C30.4869 19.7226 30.257 19.8542 30.0223 19.8542C29.9064 19.8542 29.7876 19.8218 29.6815 19.755L28.8015 19.205L28.4725 18.9978C28.1464 18.7935 28.0354 18.3397 28.223 17.9832C28.4135 17.6287 28.831 17.5079 29.157 17.7121L29.5528 17.9616L30.3631 18.4694C30.6921 18.6737 30.8031 19.1294 30.6155 19.4839Z" fill="#007AFF"/>
<path d="M47.7443 13.4889L47.4624 14.0202L46.879 15.1153C46.7533 15.352 46.5235 15.4856 46.2858 15.4856C46.1699 15.4856 46.053 15.4532 45.945 15.3864C45.6189 15.1821 45.505 14.7264 45.6955 14.3718L46.2514 13.3249L46.5598 12.7454C46.7474 12.3908 47.1648 12.2671 47.4938 12.4743C47.8199 12.6786 47.9309 13.1324 47.7433 13.4889H47.7443Z" fill="#007AFF"/>
<path d="M52.39 18.9978L52.1621 19.1402L51.181 19.758C51.0719 19.8248 50.956 19.8572 50.8402 19.8572C50.6025 19.8572 50.3736 19.7226 50.2469 19.4869C50.0593 19.1294 50.1703 18.6756 50.4964 18.4723L51.4059 17.9027L51.7074 17.7121C52.0335 17.5079 52.4509 17.6287 52.6414 17.9832C52.829 18.3407 52.718 18.7945 52.389 18.9978H52.39Z" fill="#007AFF"/>
<path d="M32.0014 66.9268L31.366 67.2087C30.7728 67.4719 30.1481 67.6035 29.5127 67.6035C28.6081 67.6035 27.6819 67.3354 26.7951 66.8089C25.3326 65.9387 24.1511 64.4567 23.4646 62.6309L17.774 47.493C16.5463 44.2283 17.2004 40.6945 19.3631 38.9011L25.6764 33.6623C26.5043 32.9748 27.567 32.8245 28.5924 33.2518C29.9271 33.8077 30.9348 35.1876 31.2265 36.8572L35.163 59.3623C35.7513 62.7291 34.4509 65.8386 32.0024 66.9258L32.0014 66.9268Z" fill="#FFBE96"/>
<path d="M33.9333 60.9641C33.9333 63.0797 33.012 64.8731 31.4848 65.5527L30.8493 65.8346C29.7965 66.3021 28.5914 66.1833 27.4491 65.5066C26.2627 64.8004 25.2972 63.5786 24.7286 62.07L19.038 46.9321C18.0597 44.3304 18.5459 41.4498 20.192 40.0826L26.5053 34.8418C26.8196 34.5845 27.1456 34.501 27.4344 34.501C27.7035 34.501 27.9412 34.5737 28.1013 34.6405C28.9832 35.0059 29.6806 35.9861 29.8829 37.1352L33.8164 59.6402C33.895 60.091 33.9323 60.5339 33.9323 60.9641H33.9333Z" fill="#FFBE96"/>
<path d="M61.6359 38.9011L55.3226 33.6623C54.4946 32.9748 53.4319 32.8245 52.4066 33.2518C51.0748 33.8077 50.0641 35.1876 49.7724 36.8572L45.8389 59.3623C45.7427 59.9044 45.6985 60.4416 45.6985 60.9651C45.6985 63.6798 46.9439 66.0124 48.9975 66.9258L49.6349 67.2077C50.2282 67.4709 50.8509 67.6025 51.4853 67.6025C52.3919 67.6025 53.319 67.3344 54.2059 66.8079C55.6663 65.9378 56.8498 64.4557 57.5344 62.6299L63.225 47.492C64.4527 44.2273 63.8005 40.6935 61.6359 38.9001V38.9011ZM61.96 46.9322L56.2694 62.0701C55.7007 63.5786 54.7353 64.8004 53.5488 65.5066C52.4095 66.1833 51.2015 66.3012 50.1516 65.8346L49.5161 65.5528C47.6756 64.7366 46.716 62.3038 47.1806 59.6402L51.117 37.1352C51.3174 35.9861 52.0167 35.0059 52.8957 34.6405C53.2316 34.5011 53.8867 34.34 54.4917 34.8419L60.8079 40.0826C62.454 41.4488 62.9382 44.3304 61.959 46.9322H61.96Z" fill="#FFBE96"/>
<path d="M61.96 46.9321L56.2694 62.07C55.7007 63.5786 54.7353 64.8004 53.5489 65.5066C52.4096 66.1833 51.2015 66.3011 50.1516 65.8346L49.5161 65.5527C47.6756 64.7366 46.716 62.3038 47.1806 59.6402L51.117 37.1352C51.3174 35.986 52.0167 35.0059 52.8957 34.6405C53.2316 34.501 53.8867 34.34 54.4917 34.8418L60.8079 40.0826C62.454 41.4488 62.9382 44.3304 61.959 46.9321H61.96Z" fill="#FFBE96"/>
<path d="M69.6984 19.6234V23.7573C69.6984 24.9781 68.7093 25.9671 67.4885 25.9671H66.9611C65.7403 25.9671 64.7513 24.9781 64.7513 23.7573V19.6234C64.7513 18.4026 63.7622 17.4135 62.5414 17.4135H58.7592C57.5383 17.4135 56.5493 16.4245 56.5493 15.2037C56.5493 13.9829 57.5383 12.9939 58.7592 12.9939H62.5414C63.7622 12.9939 64.7513 12.0048 64.7513 10.784V6.69434C64.7513 5.47352 65.7403 4.4845 66.9611 4.4845H67.4885C68.7093 4.4845 69.6984 5.47352 69.6984 6.69434V10.784C69.6984 12.0048 70.6874 12.9939 71.9082 12.9939H75.6905C76.9113 12.9939 77.9003 13.9829 77.9003 15.2037C77.9003 16.4245 76.9113 17.4135 75.6905 17.4135H71.9082C70.6874 17.4135 69.6984 18.4026 69.6984 19.6234Z" fill="#42DB9C"/>
<defs>
<linearGradient id="paint0_linear_611_3934" x1="0" y1="40.5" x2="81.001" y2="40.5" gradientUnits="userSpaceOnUse">
<stop offset="0.02" stop-color="#005EB2"/>
<stop offset="0.13" stop-color="#0277AE"/>
<stop offset="0.31" stop-color="#059EA9"/>
<stop offset="0.5" stop-color="#07BDA5"/>
<stop offset="0.67" stop-color="#09D3A3"/>
<stop offset="0.84" stop-color="#0AE0A1"/>
<stop offset="1" stop-color="#0BE5A1"/>
</linearGradient>
</defs>
</svg>
