<svg width="81" height="78" viewBox="0 0 81 78" fill="none" xmlns="http://www.w3.org/2000/svg">
<path d="M78.8506 38.7817C78.8506 46.7721 76.4337 54.201 72.2884 60.3738C71.0621 62.1965 69.6892 63.9126 68.1811 65.4955C68.1708 65.5057 68.1616 65.518 68.1514 65.5283C68.1514 65.5283 68.1497 65.5289 68.1462 65.5303V65.5324C68.1462 65.5324 68.1462 65.5344 68.1442 65.5344C65.8841 67.9093 63.3227 69.9942 60.5257 71.7349C54.5875 75.4283 47.5787 77.5635 40.0699 77.5635C32.5611 77.5635 25.5522 75.4283 19.614 71.7349C17.3436 70.3241 15.229 68.6838 13.3059 66.8458C11.5232 65.1451 9.90243 63.2804 8.47115 61.2672C8.04392 60.673 7.63718 60.0634 7.24478 59.4446C6.3811 58.0758 5.59938 56.6476 4.91294 55.1723C2.5852 50.193 1.28711 44.637 1.28711 38.7817C1.28608 17.3618 18.6479 0 40.0678 0C42.6302 0 45.1321 0.246913 47.5541 0.721273C50.3562 1.26837 53.0477 2.11669 55.5947 3.23036C57.2923 3.97417 58.9285 4.83581 60.4889 5.80502C61.6322 6.514 62.7336 7.28035 63.793 8.09998C69.5263 12.5393 73.981 18.5523 76.5136 25.4894C76.5136 25.4915 76.5157 25.4945 76.5187 25.4997C76.7687 26.1861 76.9982 26.8777 77.2103 27.5825V27.5846C78.2768 31.1305 78.8506 34.8885 78.8506 38.7817Z" fill="url(#paint0_linear_611_3000)"/>
<path d="M64.3782 58.6096L65.875 60.8564C66.0871 61.175 66.1342 61.5756 66.001 61.9342L64.3392 66.4227C64.1989 66.8018 63.8762 67.0845 63.4817 67.1737L53.8357 69.3467C53.7497 69.3662 53.6615 69.3764 53.5734 69.3764H51.0531C50.1402 69.3764 49.5644 70.3579 50.0101 71.154L51.7364 74.243C52.1811 75.039 51.6053 76.0205 50.6935 76.0205H47.9026C47.501 76.0205 47.126 75.8187 46.9047 75.4826L36.6594 59.9251C36.1563 59.1608 36.6635 58.1373 37.5763 58.0758L62.9387 56.3505C63.7112 56.2982 64.329 56.9826 64.1979 57.7459C64.1456 58.0471 64.2112 58.3565 64.3813 58.6116L64.3782 58.6096Z" fill="#19CC83"/>
<path d="M0.30158 33.0679L1.29333 37.0738C2.16521 40.5962 4.829 43.3973 8.30218 44.4454L9.97627 44.9505C13.5642 46.0334 16.2782 48.982 17.0599 52.6468C18.1264 57.6486 22.7082 61.1043 27.8104 60.758L66.0061 58.1639C68.9905 57.9611 71.7383 56.4683 73.5333 54.076L78.0792 48.0138C80.074 45.3541 80.659 41.8933 79.6498 38.7244L76.0916 27.56C75.7607 26.5201 75.2658 25.5407 74.6265 24.6565L70.7148 19.249C69.5612 17.6538 67.9742 16.4243 66.1423 15.7051L50.7466 9.66138C48.9762 8.96674 47.047 8.77618 45.1742 9.11222L33.6953 11.1726C33.0959 11.2801 32.4884 11.3344 31.8788 11.3344H24.7224C23.0924 11.3344 21.4849 11.7227 20.0341 12.4655L8.27554 18.4918C7.17314 19.0564 6.18139 19.8166 5.34947 20.7346L2.66723 23.6924C0.36715 26.2291 -0.520098 29.7443 0.302604 33.0679H0.30158Z" fill="#19CC83"/>
<path d="M0.30158 33.0679L1.29333 37.0738C2.16521 40.5962 4.829 43.3972 8.30218 44.4453L9.97627 44.9504C13.5642 46.0334 16.2782 48.982 17.0599 52.6468C18.1264 57.6485 22.7082 61.1043 27.8104 60.758L66.0061 58.1639C68.9905 57.961 71.7383 56.4683 73.5333 54.076L78.0792 48.0138C80.074 45.3541 80.659 41.8932 79.6498 38.7243L76.0916 27.56C75.7607 26.5201 75.2658 25.5406 74.6265 24.6564L70.7148 19.2489C69.5612 17.6537 67.9742 16.4243 66.1423 15.7051L50.7466 9.66135C48.9762 8.96671 47.047 8.77615 45.1742 9.11219L33.6953 11.1725C33.0959 11.2801 32.4884 11.3344 31.8788 11.3344H24.7224C23.0924 11.3344 21.4849 11.7227 20.0341 12.4655L8.27554 18.4918C7.17314 19.0563 6.18139 19.8165 5.34947 20.7345L2.66723 23.6924C0.36715 26.2291 -0.520098 29.7443 0.302604 33.0679H0.30158Z" fill="#19CC83"/>
<path d="M0.301604 33.0679C0.467579 33.7 1.16016 36.5452 1.30667 37.1025C1.34663 37.2337 1.43884 37.5728 1.47675 37.7019C1.49724 37.7685 1.52285 37.833 1.54539 37.8976L1.68473 38.2889C2.38141 40.0942 3.60471 41.7017 5.1702 42.843C5.94679 43.4188 6.81355 43.8757 7.71822 44.2118C7.96513 44.2896 8.26634 44.4013 8.50711 44.4679C9.03782 44.6267 9.5716 44.7783 10.1013 44.9423C11.1648 45.2732 12.176 45.7732 13.0868 46.4186C15.015 47.8089 16.4585 49.8641 17.0681 52.1683C17.1757 52.5443 17.2638 52.9992 17.3837 53.3701C18.1664 55.9857 20.0731 58.2295 22.5135 59.4425C23.9674 60.1679 25.5923 60.5418 27.2151 60.4988C33.974 60.0009 45.206 59.0388 52.0663 58.4999L65.3309 57.4559L65.7459 57.4242L65.9528 57.4088L66.1444 57.3883C66.9046 57.3145 67.672 57.1465 68.3922 56.8924C69.9577 56.3361 71.3798 55.3731 72.4566 54.1067C73.018 53.452 74.6194 51.2063 75.1675 50.4963C75.3304 50.3118 77.2913 47.6173 77.401 47.4944L77.6192 47.1819L77.7278 47.0251L77.8272 46.8622L78.0249 46.5364C79.3168 44.2722 79.6252 41.4773 78.821 38.9948L78.7585 38.7971L78.6325 38.4006C77.8272 35.8003 76.6797 32.2954 75.8713 29.6808C75.5824 28.7874 75.2249 27.4729 74.8284 26.6441C74.478 25.8214 73.6419 24.7159 73.1184 23.9803L71.1861 21.2734C70.848 20.8114 70.093 19.7151 69.7497 19.2889C68.9526 18.2849 67.9476 17.4529 66.8175 16.8423C66.3483 16.5862 65.8811 16.4018 65.375 16.1989C62.6118 15.0842 57.402 12.9655 54.5856 11.8252L51.5048 10.5711C51.2415 10.4584 50.6155 10.2095 50.3594 10.107C49.7477 9.86934 49.1115 9.69721 48.463 9.58964C47.4251 9.41444 46.3575 9.41342 45.3146 9.57837L42.035 10.1214C40.8066 10.314 34.9217 11.3088 33.8306 11.4809C32.678 11.7371 29.9916 11.5885 28.7939 11.5967C28.2499 11.6039 25.1343 11.5465 24.6384 11.5516C23.0022 11.5434 21.3763 11.9502 19.9235 12.7042C17.5763 13.866 12.6452 16.3567 10.2611 17.5513C9.44149 17.9959 8.10139 18.5799 7.32684 19.1024C6.38939 19.6987 5.59948 20.4794 4.87001 21.3124L2.62832 23.7692C0.378444 26.2394 -0.503681 29.8273 0.306727 33.0669L0.301604 33.0679ZM0.301604 33.0679C-0.519049 29.8263 0.364101 26.2383 2.59656 23.7456L4.81981 21.2714C5.54518 20.4333 6.33714 19.6342 7.27049 19.0236C8.05324 18.5041 9.34825 17.8812 10.1945 17.4304C12.969 15.9961 17.7966 13.4275 20.5259 12.0424C21.8127 11.4625 23.2184 11.1439 24.6302 11.1172C26.8811 11.0855 29.8758 11.066 32.1093 11.025C32.6482 11.0045 33.18 10.942 33.7107 10.8355C36.6798 10.271 42.1928 9.18802 45.1445 8.62657C47.0737 8.26286 49.1074 8.44421 50.9464 9.13987L51.1411 9.21363L51.9187 9.50665C55.3929 10.8181 60.8875 12.9081 64.3597 14.2257C65.2694 14.5955 66.6433 15.0412 67.5183 15.5033C68.9076 16.2194 70.1442 17.2368 71.1175 18.4631C71.9863 19.6075 73.5887 21.838 74.4585 23.009C74.6644 23.3041 75.1111 23.8901 75.3191 24.1841C75.8908 24.973 76.36 25.8377 76.7063 26.7486C76.9328 27.3325 77.2995 28.5651 77.5014 29.1603C78.2349 31.4379 79.3148 34.8055 80.0412 37.0779C80.1283 37.3197 80.3383 38.0256 80.4213 38.2654C81.3844 41.1136 81.1395 44.3409 79.7308 46.9964L79.5156 47.3929L79.2789 47.7761C79.2205 47.8745 79.0976 48.0599 79.03 48.1511C77.8159 49.8149 75.7453 52.5023 74.5036 54.1549C74.4144 54.2696 74.2106 54.5452 74.1194 54.6569C72.7936 56.372 70.9546 57.6813 68.8983 58.3667C68.1996 58.6065 67.4538 58.7612 66.7222 58.8575C66.3227 58.9097 65.8401 58.9292 65.4334 58.9559C54.4657 59.5757 39.8159 60.4056 28.8995 60.9865C28.3452 61.0141 27.7981 61.0572 27.2223 61.0592C24.3813 61.0715 21.5648 59.8636 19.6172 57.8012C18.4461 56.5789 17.5886 55.0708 17.1296 53.4449C17.0015 52.991 16.8991 52.488 16.7843 52.03C16.4657 50.9112 15.978 49.8354 15.3049 48.8795C14.0406 47.0723 12.177 45.7045 10.0746 45.0324C9.48247 44.8419 8.88311 44.6615 8.28786 44.4781C7.86268 44.3368 7.33709 44.1503 6.9283 43.9505C4.66408 42.8932 2.80967 40.9783 1.83431 38.6782C1.50236 37.9478 1.28721 37.0759 1.09972 36.2972L0.304678 33.0679H0.301604Z" fill="#1A8468"/>
<path d="M12.1687 45.9033L16.5732 38.9774L38.656 35.6302L61.5206 40.7662L47.841 49.19L36.4584 48.0179L47.0593 46.5231L55.4625 41.3256L38.4603 37.7244L18.1366 41.3256L15.2546 48.6572L12.1687 45.9033Z" fill="#1A8468"/>
<path d="M10.1248 25.349L15.2054 21.0491L29.8624 23.1996L30.8398 28.9247L27.3216 24.9874L16.5732 23.1996L10.1248 25.349Z" fill="#1A8468"/>
<path d="M39.0475 11.8119L32.4023 18.5092L39.0475 28.9247L35.7249 19.5522L39.0475 11.8119Z" fill="#1A8468"/>
<path d="M54.8765 17.9232L56.4399 22.8082L50.3818 24.9874H58.0034L67.97 31.2535V41.3257L70.5099 33.1714H75.7862L69.1421 29.2648L59.7625 23.5899L53.313 13.2329L54.8765 17.9232Z" fill="#1A8468"/>
<path d="M39.0475 63.554L66.9927 60.7826L64.3781 58.6096L36.6562 59.9241L39.0475 63.554Z" fill="#1A8468"/>
<defs>
<linearGradient id="paint0_linear_611_3000" x1="1.28608" y1="38.7817" x2="78.8506" y2="38.7817" gradientUnits="userSpaceOnUse">
<stop offset="0.02" stop-color="#005EB2"/>
<stop offset="1" stop-color="#0BE5A1"/>
</linearGradient>
</defs>
</svg>
