<svg width="82" height="82" viewBox="0 0 82 82" fill="none" xmlns="http://www.w3.org/2000/svg">
<path d="M81.2 40.7C81.2 49.0448 78.6755 56.8028 74.3471 63.249C73.0664 65.1529 71.6327 66.9437 70.0576 68.5975C70.047 68.6081 70.0364 68.6213 70.0266 68.631C70.0266 68.631 70.0249 68.6319 70.0213 68.6337V68.6363C70.0213 68.6363 70.0213 68.639 70.0187 68.639C67.6587 71.1192 64.9832 73.2962 62.0628 75.1135C55.8614 78.9699 48.5419 81.2 40.7008 81.2C32.8598 81.2 25.5394 78.9708 19.3389 75.1135C16.9683 73.6401 14.7594 71.9271 12.7521 70.0073C10.8906 68.2315 9.19799 66.2834 7.70332 64.1815C7.25784 63.561 6.83269 62.9246 6.42256 62.2776C5.52011 60.8484 4.70427 59.3572 3.98743 57.8157C1.55584 52.6167 0.199951 46.8148 0.199951 40.7C0.199951 18.3313 18.3313 0.200012 40.7 0.200012C43.3755 0.200012 45.9883 0.458109 48.518 0.953973C51.4437 1.52497 54.2545 2.41151 56.915 3.57472C58.6881 4.35166 60.3957 5.25146 62.0256 6.26352C63.2198 7.00422 64.3697 7.80503 65.4755 8.65976C71.463 13.2958 76.1149 19.5758 78.7586 26.8193C78.7586 26.822 78.7613 26.8246 78.7639 26.83C79.0247 27.5468 79.2642 28.2698 79.4861 29.0052V29.0079C80.5998 32.7105 81.1991 36.635 81.1991 40.7009L81.2 40.7Z" fill="url(#paint0_linear_611_2907)"/>
<g opacity="0.7">
<path d="M67.5367 58.9719C64.5774 59.4023 60.5637 58.5591 57.1562 57.5806L60.3268 47.445L60.3604 47.217C60.8827 47.369 61.17 47.445 61.17 47.445C61.17 47.445 61.6844 45.5985 61.4652 42.3264L69.6024 40.6991C69.6024 40.6991 70.1168 52.0068 67.5367 58.9719Z" fill="#EAA07F"/>
</g>
<path d="M78.7588 26.8193C78.3858 29.4613 77.8882 32.1077 77.3243 34.6869C77.3216 34.6869 77.3216 34.6895 77.3243 34.6922C77.0715 35.8342 76.8081 36.9664 76.5367 38.074C76.3334 38.9083 76.1248 39.7295 75.9136 40.5382C75.9136 40.5382 75.9109 40.5409 75.9109 40.5436C75.4548 42.291 74.9881 43.9678 74.5312 45.5473C74.3588 46.1395 74.19 46.7184 74.0229 47.2815C73.8559 47.8445 73.6915 48.3925 73.5297 48.9246C73.4228 49.2791 73.3185 49.6264 73.2142 49.965C73.0834 50.3928 72.9561 50.81 72.8306 51.2113C72.7501 51.4773 72.6688 51.7407 72.591 51.9962C72.5521 52.1234 72.5132 52.249 72.4735 52.3745C72.3692 52.7112 72.2702 53.0418 72.1765 53.3706C72.127 53.535 72.0801 53.6994 72.0359 53.8612C71.9396 54.1997 71.8459 54.5365 71.7566 54.8706C71.678 55.1623 71.6055 55.4495 71.5321 55.7341C71.3757 56.3599 71.2325 56.9698 71.1043 57.5647C71.0707 57.7105 71.0389 57.8564 71.0106 58.0004C70.9505 58.2745 70.8957 58.5485 70.8436 58.8145C70.7154 59.4739 70.604 60.113 70.5068 60.7308C70.4829 60.8793 70.4626 61.0251 70.4414 61.1719C70.3972 61.4715 70.3557 61.7694 70.3185 62.0584C70.2823 62.3501 70.2478 62.6374 70.2169 62.9193C70.201 63.0599 70.1886 63.1986 70.1753 63.3365C70.1338 63.7537 70.0993 64.1576 70.0737 64.5519C70.0604 64.7216 70.0498 64.8886 70.0428 65.0522C70.0348 65.2166 70.0242 65.381 70.0189 65.5401C70.0109 65.7204 70.003 65.8998 70.0003 66.0748C69.995 66.1659 69.995 66.2578 69.9924 66.3462V66.3621C69.9818 66.873 69.9818 67.3582 69.9924 67.8223C69.995 67.9319 69.9977 68.0388 70.0003 68.1458C70.003 68.2501 70.0083 68.3544 70.0109 68.4587C70.0136 68.5188 70.0162 68.5762 70.0189 68.6363V68.639C70.0189 68.639 70.0189 68.6416 70.0162 68.6416C67.6562 71.1218 64.9807 73.2989 62.0603 75.1162H19.3382C16.9676 73.6427 14.7588 71.9297 12.7514 70.0099C10.89 68.2342 9.1973 66.2861 7.70264 64.1842C7.25715 63.5637 6.832 62.9273 6.42188 62.2803C6.43513 62.2334 6.44839 62.1892 6.46607 62.1424C6.49966 62.0354 6.53678 61.9258 6.57037 61.8215C6.57832 61.7879 6.58893 61.7561 6.60131 61.7225C6.63489 61.6156 6.67202 61.5113 6.70826 61.4043C6.71356 61.3884 6.71886 61.3707 6.72682 61.3548C6.76306 61.2399 6.80195 61.1277 6.84438 61.0136C6.86029 60.9615 6.87796 60.912 6.89653 60.8625C6.95133 60.706 7.00613 60.5522 7.06358 60.3984C7.09982 60.2995 7.13694 60.2031 7.17584 60.1041C7.18909 60.0599 7.20412 60.0184 7.22533 59.9733C7.26953 59.8504 7.31638 59.7285 7.36587 59.6056C7.38974 59.5428 7.41272 59.4801 7.44189 59.4182C7.51967 59.2123 7.60364 59.0063 7.68938 58.803C7.76274 58.6254 7.83522 58.4512 7.91124 58.2789C8.49814 56.9124 9.1425 55.6192 9.82752 54.3986C9.87436 54.3181 9.91856 54.2395 9.9654 54.159C10.0777 53.9611 10.1926 53.7631 10.3092 53.5668C10.3145 53.5589 10.3198 53.5483 10.3251 53.5412C10.3773 53.4528 10.4294 53.3635 10.4842 53.2778C10.5125 53.231 10.5417 53.1841 10.5673 53.1399C10.593 53.0957 10.6195 53.0542 10.646 53.0118C10.6619 52.9852 10.6769 52.9623 10.6902 52.9357C10.7397 52.8597 10.7865 52.7846 10.8334 52.7086C10.9456 52.5283 11.0579 52.3541 11.1728 52.1791C11.2276 52.0934 11.2851 52.0041 11.3425 51.9184C11.3761 51.8662 11.4106 51.8167 11.4442 51.7646C11.5325 51.6338 11.6192 51.5038 11.7076 51.3757C11.7261 51.3474 11.7438 51.3209 11.7624 51.2952C11.8976 51.0999 12.0337 50.9063 12.169 50.7163C12.3068 50.5183 12.4483 50.3247 12.5915 50.1347C12.732 49.942 12.8761 49.7537 13.0193 49.5663C13.1448 49.4019 13.272 49.2375 13.4002 49.0784C13.4709 48.9874 13.5408 48.8981 13.6141 48.8097C13.7423 48.648 13.8722 48.4889 14.003 48.3324C14.201 48.0902 14.4043 47.8525 14.6076 47.6182C14.7853 47.4123 14.9647 47.209 15.1477 47.0084C15.2546 46.8881 15.3616 46.7688 15.4712 46.6539C15.5445 46.5735 15.617 46.4948 15.6904 46.4144C15.7089 46.3985 15.724 46.3808 15.7425 46.3622C18.1255 43.8246 20.6031 41.8199 22.8773 40.2625C23.1301 40.0901 23.3803 39.9239 23.6286 39.7622C23.7515 39.6818 23.8735 39.6004 23.9963 39.5227C24.1943 39.3971 24.3879 39.2752 24.5806 39.155C24.9721 38.9128 25.3549 38.6856 25.7226 38.4717C25.8507 38.3957 25.9754 38.3259 26.1009 38.2552C26.435 38.0678 26.7576 37.8901 27.0714 37.723C27.1757 37.6682 27.2773 37.6134 27.379 37.5613C27.8872 37.2979 28.3619 37.0628 28.7976 36.8568C28.9726 36.7737 29.1415 36.6951 29.3032 36.6217C29.465 36.5484 29.6214 36.4785 29.7699 36.4158C29.8433 36.3822 29.9158 36.3504 29.9865 36.3221C30.4116 36.1391 30.7687 35.9959 31.0533 35.8863C31.147 35.8501 31.2336 35.8183 31.3088 35.79C31.619 35.6751 31.7861 35.6229 31.7861 35.6229C31.5536 35.5054 31.3247 35.3754 31.0975 35.2313C31.0038 35.1712 30.9101 35.1085 30.8182 35.044C30.7325 34.9839 30.6512 34.9238 30.5681 34.8637C30.4558 34.7779 30.3462 34.6913 30.2393 34.5976C30.1456 34.5189 30.0519 34.4358 29.96 34.3528C29.9078 34.3059 29.8583 34.2591 29.8088 34.2122C29.7178 34.1238 29.6258 34.0319 29.5401 33.9382C29.5162 33.917 29.4986 33.8967 29.4774 33.8728C29.3916 33.7818 29.3076 33.6854 29.2246 33.5882C29.0708 33.4079 28.9223 33.2178 28.7817 33.0198C28.7402 32.9624 28.7013 32.9049 28.6615 32.8475C28.6562 32.8422 28.6536 32.8395 28.6509 32.8342C28.612 32.7741 28.5705 32.714 28.5334 32.6539C28.4706 32.5576 28.4105 32.4612 28.353 32.3622C27.9959 31.7577 27.7034 31.0974 27.4948 30.3885C27.4736 30.3125 27.4506 30.2374 27.432 30.1587C27.4135 30.0906 27.3958 30.0235 27.3825 29.9554C27.3666 29.8979 27.3542 29.8405 27.3436 29.783C27.318 29.6734 27.2941 29.5612 27.2756 29.4463C27.257 29.3446 27.242 29.2403 27.2261 29.136C27.2128 29.0423 27.2022 28.9486 27.1925 28.8541C27.1898 28.8302 27.1872 28.8072 27.1845 28.7807C27.1766 28.7126 27.1713 28.6455 27.166 28.5747C27.1607 28.5306 27.158 28.4837 27.158 28.4369C27.1527 28.3485 27.1474 28.2619 27.1448 28.1735C27.1395 28.0745 27.1395 27.9755 27.1395 27.8765C27.1395 27.7828 27.1421 27.6864 27.1448 27.5892C27.1474 27.5211 27.1501 27.454 27.1554 27.3833C27.158 27.3126 27.1607 27.2427 27.1686 27.172C27.1739 27.0942 27.1819 27.0129 27.1898 26.9351C27.2137 26.7159 27.2446 26.4967 27.2809 26.2757C27.2994 26.1688 27.3198 26.0618 27.3436 25.9549C27.3905 25.7251 27.4453 25.4935 27.5107 25.261C27.5681 25.0604 27.6309 24.8597 27.7007 24.6565C27.737 24.5495 27.7767 24.4399 27.8183 24.3303C27.881 24.1606 27.9491 23.9891 28.0216 23.8194C28.0764 23.6939 28.1312 23.5693 28.1913 23.4437C28.2717 23.2687 28.3583 23.0973 28.4494 22.9223C28.4803 22.8595 28.5148 22.7994 28.5484 22.7366C28.6032 22.635 28.6606 22.5333 28.7181 22.4343C28.856 22.1948 29.0054 21.9491 29.1636 21.7069C29.8026 20.732 30.6079 19.7385 31.604 18.737C31.7295 18.6115 31.8568 18.4869 31.9876 18.3614C32.1184 18.2332 32.251 18.1086 32.3889 17.9831C32.7354 17.6622 33.1057 17.3413 33.4946 17.0205C33.7165 16.8375 33.9428 16.6554 34.1779 16.4725C34.4722 16.2427 34.7595 16.0164 35.0432 15.7892C35.5046 15.4215 35.9536 15.0538 36.3885 14.6888C36.5397 14.5606 36.6882 14.436 36.8366 14.3105C37.3741 13.8544 37.8902 13.4001 38.3852 12.9546C38.5364 12.8193 38.6849 12.6832 38.8307 12.5506C39.0004 12.3942 39.1675 12.2404 39.331 12.0893C39.3593 12.0627 39.3885 12.0318 39.4194 12.0035H39.422C39.6023 11.8338 39.7791 11.6641 39.9541 11.5006C39.9647 11.49 39.9754 11.4767 39.9877 11.4643H39.9904C40.3837 11.086 40.7647 10.713 41.1271 10.348C41.3613 10.1111 41.5911 9.87599 41.813 9.64617C41.8156 9.64352 41.813 9.64352 41.813 9.64352C42.0375 9.41106 42.254 9.18478 42.4626 8.96027C43.2263 8.14444 43.9069 7.36926 44.5097 6.64712C44.6529 6.47476 44.7943 6.30594 44.9269 6.14154C45.1612 5.85427 45.383 5.57584 45.5916 5.30714C46.7654 5.51043 48.2256 5.63064 49.8652 5.53695C51.9901 5.40172 54.4129 4.86431 56.9107 3.57559C58.6838 4.35253 60.3915 5.25234 62.0214 6.2644C63.2156 7.0051 64.3655 7.80591 65.4713 8.66063C71.4588 13.2967 76.1107 19.5767 78.7544 26.8202L78.7588 26.8193Z" fill="#005EB2"/>
<path d="M70.3124 71.5329C70.2992 71.4445 70.2842 71.3525 70.2709 71.2615C70.232 70.9901 70.1975 70.7091 70.1639 70.4085C70.1224 70.0541 70.0888 69.6758 70.0596 69.2798C70.0437 69.0712 70.0331 68.8573 70.0208 68.6354V68.6328C70.0208 68.6328 70.0234 68.6301 70.0261 68.6301C70.0367 68.6195 70.0473 68.6063 70.057 68.5966C70.1118 69.5538 70.2002 70.542 70.3124 71.5329Z" fill="#007AFF"/>
<path d="M70.0569 68.5966C70.0463 68.6072 70.0357 68.6204 70.026 68.6301C70.026 68.6301 70.0242 68.631 70.0207 68.6328V68.6354C70.0207 68.6354 70.0207 68.6381 70.018 68.6381C67.658 71.1183 64.9825 73.2953 62.0621 75.1126C55.8607 78.9691 48.5412 81.1991 40.7001 81.1991C32.8591 81.1991 25.5387 78.9699 19.3382 75.1126C16.9676 73.6392 14.7588 71.9262 12.7514 70.0064C10.89 68.2306 9.1973 66.2825 7.70264 64.1806C9.17609 57.7653 11.0146 52.172 13.0193 49.5619C13.1448 49.3975 13.272 49.2331 13.4002 49.074C13.4709 48.983 13.5408 48.8937 13.6141 48.8053C13.7423 48.6435 13.8722 48.4844 14.003 48.328C14.201 48.0858 14.4043 47.848 14.6076 47.6138C14.7853 47.4079 14.9647 47.2046 15.1477 47.0039C15.2546 46.8837 15.3616 46.7644 15.4712 46.6495C15.5596 46.5505 15.6515 46.4541 15.7425 46.3578C18.1255 43.8201 20.6031 41.8155 22.8773 40.258C23.1301 40.0857 23.3803 39.9195 23.6286 39.7578C23.7515 39.6773 23.8735 39.596 23.9963 39.5182C24.1943 39.3927 24.3879 39.2707 24.5806 39.1505C24.9721 38.9083 25.3549 38.6812 25.7226 38.4673C25.8507 38.3913 25.9754 38.3214 26.1009 38.2507C26.435 38.0633 26.7576 37.8857 27.0714 37.7186C27.1757 37.6638 27.2773 37.609 27.379 37.5569C27.8872 37.2935 28.3619 37.0583 28.7976 36.8524C28.9727 36.7693 29.1415 36.6906 29.3032 36.6173C29.465 36.5439 29.6214 36.4741 29.7699 36.4113C29.8433 36.3777 29.9158 36.3459 29.9865 36.3176C30.4116 36.1347 30.7687 35.9915 31.0533 35.8819C31.147 35.8456 31.2337 35.8138 31.3088 35.7855C31.619 35.6706 31.7861 35.6185 31.7861 35.6185C31.5536 35.5009 31.3247 35.371 31.0975 35.2269C31.0038 35.1668 30.9101 35.1041 30.8182 35.0395C30.7325 34.9794 30.6512 34.9193 30.5681 34.8592C30.4558 34.7735 30.3462 34.6869 30.2393 34.5932C30.1456 34.5145 30.0519 34.4314 29.96 34.3483C29.9078 34.3015 29.8583 34.2546 29.8088 34.2078C29.7178 34.1194 29.6258 34.0275 29.5401 33.9338C29.5162 33.9126 29.4986 33.8922 29.4774 33.8684C29.3916 33.7773 29.3076 33.681 29.2246 33.5838C29.0708 33.4034 28.9223 33.2134 28.7817 33.0154C28.7402 32.958 28.7013 32.9005 28.6615 32.8431C28.6562 32.8378 28.6536 32.8351 28.6509 32.8298C28.612 32.7697 28.5705 32.7096 28.5334 32.6495C28.4706 32.5531 28.4105 32.4568 28.353 32.3578C27.9959 31.7532 27.7034 31.0929 27.4948 30.3841C27.4736 30.3081 27.4506 30.2329 27.432 30.1543C27.4135 30.0862 27.3958 30.019 27.3825 29.951C27.3666 29.8935 27.3542 29.8361 27.3436 29.7786C27.318 29.669 27.2941 29.5567 27.2756 29.4418C27.257 29.3402 27.242 29.2359 27.2261 29.1316C27.2128 29.0379 27.2022 28.9442 27.1925 28.8496C27.1898 28.8258 27.1872 28.8028 27.1845 28.7763C27.1766 28.7082 27.1713 28.641 27.166 28.5703C27.1607 28.5261 27.158 28.4793 27.158 28.4324C27.1527 28.344 27.1474 28.2574 27.1448 28.169C27.1395 28.07 27.1395 27.971 27.1395 27.872C27.1395 27.7784 27.1421 27.682 27.1448 27.5848C27.1474 27.5167 27.1501 27.4495 27.1554 27.3788C27.158 27.3081 27.1607 27.2383 27.1686 27.1676C27.1739 27.0898 27.1819 27.0085 27.1898 26.9307C27.2137 26.7115 27.2446 26.4923 27.2809 26.2713C27.2994 26.1644 27.3198 26.0574 27.3436 25.9505C27.3905 25.7206 27.4453 25.4891 27.5107 25.2566C27.5681 25.056 27.6309 24.8553 27.7007 24.652C27.737 24.5451 27.7767 24.4355 27.8183 24.3259C27.881 24.1562 27.9491 23.9847 28.0216 23.815C28.0764 23.6895 28.1312 23.5648 28.1913 23.4393C28.2717 23.2643 28.3583 23.0928 28.4494 22.9178C28.4803 22.8551 28.5148 22.795 28.5484 22.7322C28.6032 22.6306 28.6606 22.5289 28.7181 22.4299C28.856 22.1877 29.0054 21.9447 29.1636 21.7025C29.8026 20.7275 30.6079 19.734 31.604 18.7326C31.7295 18.6071 31.8568 18.4824 31.9876 18.3569C32.1184 18.2288 32.251 18.1041 32.3889 17.9786C32.7354 17.6578 33.1057 17.3369 33.4946 17.0161C33.7165 16.8331 33.9428 16.651 34.1779 16.468C34.4722 16.2382 34.7595 16.012 35.0432 15.7848C35.5046 15.4171 35.9536 15.0494 36.3885 14.6844C36.5397 14.5588 36.6882 14.4316 36.8366 14.306C37.3741 13.85 37.8903 13.3956 38.3852 12.9502C38.5364 12.8149 38.6849 12.6788 38.8307 12.5462C39.0004 12.3898 39.1675 12.236 39.331 12.0848C39.3619 12.0565 39.3911 12.0274 39.422 11.9991C39.6024 11.8294 39.7791 11.6597 39.9541 11.4961C39.9674 11.4829 39.9807 11.4723 39.9904 11.4599C40.3837 11.0816 40.7647 10.7086 41.1271 10.3435C41.3613 10.1067 41.5911 9.87155 41.813 9.64174C41.8156 9.63909 41.813 9.63909 41.813 9.63909C42.0375 9.40662 42.254 9.18034 42.4626 8.95584C43.2263 8.14 43.9069 7.36483 44.5097 6.64269C44.6529 6.47033 44.7943 6.3015 44.9269 6.1371C45.1612 5.84983 45.383 5.57141 45.5916 5.3027C46.7654 5.506 48.2256 5.62621 49.8652 5.53252C47.5786 8.8701 43.8698 13.9551 40.1592 17.6657C34.1744 23.6506 29.3898 28.4377 35.3712 36.8135C35.3712 36.8135 35.3712 46.3861 26.9954 48.7805C18.617 51.1741 17.4202 65.5347 17.4202 65.5347H70.0171C70.0092 65.7098 70.0039 65.8865 69.9986 66.0695C69.9827 66.865 70.0039 67.7153 70.0534 68.5939L70.0569 68.5966Z" fill="#007AFF"/>
<path d="M79.486 29.0043V29.007C79.1838 41.7403 77.3709 55.8243 74.3462 63.2481C73.4331 65.4932 72.4061 67.1284 71.2773 67.9319C70.9255 68.182 70.5083 68.4145 70.0257 68.631C70.0257 68.631 70.024 68.6319 70.0204 68.6337H70.0178C68.3693 69.3691 66.0023 69.8932 63.165 70.253C54.8723 71.3119 42.5853 70.9725 32.6627 70.3988C25.5305 69.9896 19.6191 69.4575 17.2927 69.2356C16.6801 69.1755 16.0693 69.2224 15.493 69.4053C15.4824 69.408 15.4718 69.4133 15.4621 69.4159C14.8964 69.5963 14.0099 69.8252 12.7503 70.0082C11.5014 70.1885 9.88474 70.3263 7.8509 70.3263C6.54451 70.3263 5.52184 70.154 4.72457 69.849H4.72192C1.86694 68.7566 1.86694 65.9502 1.86694 63.1447C1.86694 61.2514 2.86574 59.3581 3.9874 57.8175C4.19335 57.5329 4.40195 57.2624 4.6132 57.0034C5.41931 56.0046 6.20421 55.2171 6.65499 54.7689C7.38509 54.0388 8.66055 54.0079 9.96429 54.1564H9.96694C10.7987 54.2501 11.641 54.4172 12.3632 54.5188C13.2966 54.662 14.1336 55.1632 14.6967 55.9162L16.6103 58.4795C16.9338 58.91 17.3766 59.2096 17.8804 59.3404C18.1226 59.4112 18.3737 59.4474 18.6318 59.4341C18.6812 59.4341 18.7281 59.4288 18.7776 59.4235C31.0911 58.1065 38.02 54.7318 44.9506 53.5722C45.5578 53.4705 46.1659 53.3874 46.7678 53.3194C53.2919 52.568 59.3112 53.5722 59.3112 53.5722C57.2119 32.653 57.7776 14.5642 62.0256 6.26352C63.2198 7.00422 64.3697 7.80503 65.4755 8.65975C71.4629 13.2958 76.1149 19.5758 78.7586 26.8193C78.7586 26.822 78.7613 26.8246 78.7639 26.83C79.0247 27.5468 79.2642 28.2698 79.486 29.0052V29.0043Z" fill="#935D38"/>
<g opacity="0.7">
<path d="M65.4755 8.6589C61.0296 16.9852 60.8077 36.2921 62.9016 57.1617C62.9016 57.1617 53.3547 54.776 46.181 55.9596C46.1704 55.9622 46.1572 55.9622 46.1474 55.9649C39.2159 57.1254 31.7842 60.7529 22.368 61.8163C20.4465 62.0302 19.1869 61.1021 18.4277 60.1554C18.2031 59.8761 18.0211 59.595 17.8796 59.3396C18.1218 59.4103 18.3729 59.4465 18.6309 59.4333C18.6804 59.4333 18.7273 59.428 18.7768 59.4227C31.0903 58.1057 38.0192 54.731 44.9498 53.5713C45.557 53.4696 46.1651 53.3866 46.767 53.3185C53.2911 52.5672 59.3104 53.5713 59.3104 53.5713C57.2111 32.6522 57.7768 14.5633 62.0248 6.26266C63.219 7.00337 64.3689 7.80418 65.4747 8.6589H65.4755Z" fill="#EAA07F"/>
<path d="M76.1853 3.45258C76.1747 3.44992 76.164 3.44459 76.1516 3.44192C76.1232 3.39751 76.0939 3.3531 76.0654 3.30869C76.1018 3.35576 76.1489 3.40551 76.1862 3.45258H76.1853Z" fill="#EAA07F"/>
</g>
<path d="M31.7851 35.6203C31.7851 35.6203 24.6043 30.8331 18.6212 35.6203C12.0132 40.9068 16.2276 47.5873 23.4084 45.1937C28.0895 43.6337 34.1786 41.6034 31.7859 35.6203H31.7851Z" fill="#935D38"/>
<g opacity="0.7">
<path d="M21.7325 45.6012C15.6168 46.5107 12.5533 40.479 18.6212 35.6203C21.0263 33.6934 23.6355 33.3222 25.8735 33.5617C24.2816 33.7535 22.6067 34.3519 21.0148 35.6203C15.7972 39.7967 17.3289 44.8349 21.7325 45.6012Z" fill="#EAA07F"/>
</g>
<defs>
<linearGradient id="paint0_linear_611_2907" x1="0.199951" y1="40.7" x2="81.2" y2="40.7" gradientUnits="userSpaceOnUse">
<stop stop-color="#0BE5A1"/>
<stop offset="0.98" stop-color="#005EB2"/>
</linearGradient>
</defs>
</svg>
