<svg width="88" height="88" viewBox="0 0 88 88" fill="none" xmlns="http://www.w3.org/2000/svg">
<rect width="88" height="88" rx="44" fill="#E0EFFF"/>
<g clip-path="url(#clip0_687_138)">
<path d="M70.4132 5.21852C69.5825 5.97944 68.3898 6.09265 67.4512 5.58845L66.685 6.29144C66.1781 5.9847 65.6634 5.6885 65.1421 5.40414L66.3045 4.33781C65.8819 3.35837 66.0978 2.18014 66.9272 1.41791C67.9764 0.455575 70.6817 -0.617339 71.6441 0.431878C72.6064 1.4811 71.4624 4.25619 70.4132 5.21852Z" fill="#007AFF"/>
<path d="M66.6849 6.29159L35.8047 34.6178L34.6567 33.3672L65.142 5.4043C65.6633 5.68865 66.178 5.98486 66.6849 6.29159Z" fill="white"/>
<path d="M48.0203 35.9578C49.2959 37.1873 50.5703 38.4169 51.8459 39.6478C52.1737 39.9638 52.5449 40.2994 53.0004 40.3192C53.6021 40.3455 54.072 39.815 54.3854 39.3016C55.4306 37.5875 55.8506 35.5049 55.4846 33.5315C57.0262 32.6706 57.6278 30.6432 57.2565 28.9173C56.8853 27.1915 55.7308 25.7368 54.4551 24.5177C52.0091 22.1797 49.0037 20.4696 45.8205 19.323C44.2697 21.9375 43.493 24.8442 43.7694 27.8721C44.0459 30.8999 45.831 33.8475 48.0203 35.9578Z" fill="#1C664B"/>
<path d="M34.0657 48.139C32.5794 43.871 35.0306 25.2918 35.9087 20.5605C36.2273 18.8451 36.6881 17.0232 38.0032 15.8778C39.3012 14.747 41.1351 14.5311 42.8478 14.3652C45.8216 14.0769 48.7968 13.7886 51.7707 13.5003C52.687 13.4121 53.8244 13.4332 54.2562 14.2454C54.6024 14.8944 54.2759 15.6935 53.8797 16.3136C52.6119 18.2935 50.5754 19.7667 48.2979 20.3499C49.9356 23.9662 49.1812 28.4645 46.597 31.4792C48.8969 34.8427 50.2344 38.5736 50.2634 42.648C50.2923 46.7225 48.7626 50.8706 45.7822 53.6484C42.4173 52.3082 38.9576 50.9496 35.6336 49.5094C34.8898 49.1869 34.3329 48.9052 34.0657 48.1403V48.139Z" fill="#42DB9C"/>
<path d="M52.803 57.9821C52.2329 65.0752 47.7991 70.9768 43.568 76.6995C40.9206 80.2789 38.2298 83.9005 35.1598 87.1114C23.9923 84.8339 14.3637 78.3266 8.021 69.3339C9.40854 69.7302 10.8303 69.9342 12.2903 69.8381C17.5824 69.4906 21.8241 65.245 24.5228 60.6795C27.2202 56.1127 28.9343 50.964 32.1096 46.7158C40.3282 47.8072 47.5556 51.5643 52.803 57.9821Z" fill="#E2E2E2"/>
<path d="M48.5351 20.55C48.5351 20.5421 40.3336 29.9917 40.4218 29.8653L37.644 36.4186C37.6677 36.3778 40.1993 29.7784 40.2309 29.7507L48.0612 20.1511L48.5364 20.5513L48.5351 20.55Z" fill="#1C664B"/>
</g>
<path d="M76.922 41H81.0774C82.1998 41 83.0838 41.9515 82.9931 43.0627L80.5866 72.6365C80.5062 73.6283 79.6723 74.3921 78.6709 74.3921C77.6533 74.3921 76.8121 73.6041 76.7523 72.5947L75.0034 43.0209C74.9384 41.9243 75.8159 41 76.922 41ZM78.1507 77.9355H79.1174C80.1786 77.9355 81.039 78.7902 81.039 79.8443V81.0905C81.039 82.1446 80.1786 82.9993 79.1174 82.9993H78.1507C77.0895 82.9993 76.2291 82.1446 76.2291 81.0905V79.8443C76.2291 78.7902 77.0895 77.9355 78.1507 77.9355Z" fill="#D7494A"/>
<defs>
<clipPath id="clip0_687_138">
<rect width="88" height="88" fill="white"/>
</clipPath>
</defs>
</svg>
