<svg width="37" height="37" viewBox="0 0 37 37" fill="none" xmlns="http://www.w3.org/2000/svg">
<g clip-path="url(#clip0_645_139)">
<path d="M29.5599 36.9998H22.9103C22.2704 36.7609 22.043 36.2919 22.0474 35.6231C22.0648 32.8691 22.0568 30.1151 22.0539 27.3611C22.0525 26.1321 21.3068 25.3917 20.0717 25.3873C19.0488 25.3837 18.0265 25.3859 17.0036 25.3873C15.6672 25.3888 14.9468 26.1032 14.9461 27.4306C14.9446 30.1607 14.936 32.8908 14.9526 35.6202C14.957 36.2876 14.7347 36.7609 14.0933 36.9998H7.44445C7.41404 36.9824 7.38509 36.9527 7.35251 36.9484C5.62659 36.7349 3.92385 35.131 3.9557 32.7888C4.00348 29.311 3.96801 25.8317 3.96801 22.3532C3.96801 22.2135 3.96801 22.0738 3.96801 21.9515C3.89634 21.9269 3.87389 21.9132 3.85218 21.9124C3.67191 21.9081 3.49092 21.9124 3.31066 21.903C1.98654 21.8343 1.00123 21.214 0.379354 20.0487C0.207776 19.7266 0.123797 19.3575 0 19.0101C0 18.6728 0 18.3355 0 17.9989C0.217911 16.919 0.915806 16.1627 1.66727 15.415C6.4215 10.6858 11.1591 5.93918 15.9024 1.19838C17.5009 -0.399023 19.4998 -0.400471 21.0976 1.1962C26.0031 6.09841 30.9079 11.0013 35.812 15.905C35.9394 16.0324 36.0683 16.1605 36.1848 16.298C37.876 18.2877 36.7966 21.3602 34.2316 21.8393C33.8479 21.911 33.4504 21.9088 33.0342 21.9428C33.0342 22.1006 33.0342 22.2432 33.0342 22.3858C33.0327 25.9729 33.0443 29.56 33.0248 33.1471C33.0153 34.8371 31.802 36.3723 30.1803 36.8362C29.9747 36.8948 29.7669 36.9455 29.5599 37.0005V36.9998Z" fill="url(#paint0_linear_645_139)"/>
</g>
<defs>
<linearGradient id="paint0_linear_645_139" x1="4.02158" y1="27.432" x2="37.7589" y2="12.2432" gradientUnits="userSpaceOnUse">
<stop offset="0.02" stop-color="#005EB2"/>
<stop offset="1" stop-color="#0BFFA1"/>
</linearGradient>
<clipPath id="clip0_645_139">
<rect width="37" height="37" fill="white"/>
</clipPath>
</defs>
</svg>
