<svg width="39" height="39" viewBox="0 0 39 39" fill="none" xmlns="http://www.w3.org/2000/svg">
<g clip-path="url(#clip0_621_4723)">
<path d="M30.5315 39.0001H0.702465C0.232374 38.7629 0.00458986 38.4226 0.00535424 37.8559C0.019113 25.6215 0.0221705 13.3864 3.60661e-06 1.152C-0.00152515 0.438747 0.483089 -0.00827509 1.18173 0.000116107C3.26618 0.0268154 5.35217 0.00927014 7.43662 0.00927014C7.56045 0.00927014 7.68351 0.00927014 7.82263 0.00927014C7.82263 0.949084 7.8318 1.84923 7.81957 2.74861C7.81116 3.37033 7.92047 3.94856 8.25679 4.48712C8.77275 5.31327 9.53407 5.83734 10.4712 5.85183C13.7121 5.90218 16.9546 5.86785 20.1964 5.86099C20.4822 5.86099 20.7704 5.84115 21.0525 5.79843C22.0125 5.65273 23.1056 4.74038 23.2798 3.76395C23.3624 3.30167 23.4235 2.83024 23.4388 2.36186C23.4648 1.58148 23.4457 0.800331 23.4457 0.00927014C25.7113 0.00927014 27.9234 0.00393029 30.1348 0.0138472C30.5751 0.0161357 30.9855 0.15726 31.1567 0.613436C31.2416 0.840761 31.2638 1.10241 31.2638 1.34881C31.2683 13.4314 31.266 25.5139 31.2745 37.5957C31.2745 38.2174 31.1178 38.7095 30.5315 38.9993V39.0001ZM8.78116 30.8248C8.34852 30.3877 7.94493 29.9697 7.53064 29.5623C7.16909 29.2076 6.49185 29.219 6.13947 29.573C5.77334 29.9407 5.78404 30.5555 6.16775 30.9408C6.77696 31.5518 7.38846 32.1605 7.99996 32.77C8.52127 33.2903 9.05557 33.2842 9.5891 32.7525C10.1196 32.2238 10.6493 31.6952 11.179 31.1658C11.8883 30.4579 12.5977 29.7484 13.3078 29.0413C13.7672 28.5836 13.7129 27.9703 13.3804 27.627C13.0731 27.3097 12.3141 27.1769 11.9174 27.6735C11.5941 28.0771 11.1905 28.4165 10.822 28.7842C10.1509 29.4547 9.4798 30.126 8.78039 30.8248H8.78116ZM8.77581 15.2233C8.36916 14.8068 7.99538 14.4124 7.6086 14.031C7.19355 13.6206 6.50867 13.5839 6.1624 13.9402C5.75958 14.3544 5.7871 14.9464 6.23273 15.3934C6.83353 15.9953 7.43585 16.5941 8.03818 17.1952C8.51363 17.6697 9.0571 17.6735 9.53942 17.1937C10.8075 15.9319 12.0649 14.6588 13.3437 13.4077C13.7374 13.0225 13.6976 12.3077 13.3781 12.0133C12.9661 11.6349 12.3561 11.6402 11.9495 12.0468C10.9084 13.0866 9.86963 14.1286 8.77581 15.2233ZM8.75058 23.0164C8.53961 22.8021 8.34393 22.6022 8.14749 22.4046C7.95104 22.2063 7.73396 22.0247 7.55892 21.8096C7.23559 21.4114 6.60116 21.3511 6.15629 21.7356C5.7848 22.056 5.78327 22.7692 6.15323 23.153C6.77008 23.7922 7.3984 24.42 8.03818 25.0356C8.48917 25.4689 8.99518 25.4972 9.39266 25.1058C10.7387 23.7785 12.0749 22.4412 13.4087 21.1009C13.7259 20.7821 13.6747 20.2504 13.4293 19.9002C13.1381 19.4845 12.269 19.4669 11.8654 19.8873C10.8557 20.94 9.80924 21.9584 8.75058 23.0179V23.0164ZM21.4331 15.6116C22.423 15.6116 23.4128 15.6116 24.4019 15.6116C24.9041 15.6116 25.3047 15.1905 25.3505 14.7084C25.4109 14.0752 24.9714 13.6633 24.2789 13.6572C22.4008 13.6404 20.5227 13.6396 18.6454 13.6648C18.3725 13.6686 18.0393 13.7823 17.8436 13.9623C17.5417 14.2415 17.4561 14.6504 17.654 15.0493C17.8467 15.4384 18.1746 15.6177 18.6156 15.6138C19.5543 15.6062 20.4937 15.6116 21.4323 15.6108L21.4331 15.6116ZM21.4148 31.2039C21.4148 31.2039 21.4148 31.2062 21.4148 31.207C22.4046 31.207 23.3945 31.2085 24.3844 31.2062C24.843 31.2047 25.3161 30.8317 25.349 30.4525C25.4193 29.6455 25.0448 29.2831 24.314 29.2671C22.3733 29.2244 20.431 29.2434 18.4903 29.2602C17.9353 29.2648 17.5547 29.7271 17.557 30.2687C17.5585 30.6623 18.0668 31.236 18.5598 31.2154C19.5099 31.1757 20.4624 31.2039 21.414 31.2039H21.4148ZM21.4538 23.3902C21.4538 23.3902 21.4538 23.3955 21.4538 23.3978C22.4306 23.3978 23.4083 23.3963 24.3851 23.3978C24.7337 23.3978 25.0043 23.2605 25.1969 22.9699C25.4262 22.6235 25.4033 22.2772 25.2152 21.9202C25.018 21.5457 24.6756 21.4633 24.3033 21.4617C22.8694 21.4556 21.4354 21.4579 20.0014 21.4602C19.4687 21.461 18.9351 21.4541 18.4031 21.4823C17.9575 21.506 17.5531 21.9797 17.5608 22.4176C17.57 22.9302 17.9674 23.3818 18.4459 23.3871C19.448 23.3971 20.4509 23.3902 21.4538 23.3902Z" fill="url(#paint0_linear_621_4723)"/>
<path d="M36.7874 39.0004C36.1415 38.7097 36.0964 38.0758 35.9527 37.5098C35.7088 36.5509 35.4849 35.5874 35.2609 34.6232C35.2135 34.4195 35.1791 34.2075 35.1791 33.9992C35.1753 26.0047 35.1753 18.0102 35.1753 10.0157C35.1753 9.94166 35.1753 9.86766 35.1753 9.75781H38.9995V34.8124C38.9498 34.862 38.8688 34.9047 38.8542 34.9627C38.6685 35.7064 38.5202 36.4601 38.3054 37.1955C38.1151 37.8462 38.1709 38.6373 37.3973 39.0011H36.7874V39.0004Z" fill="url(#paint1_linear_621_4723)"/>
<path d="M38.9999 7.77745H35.2086C35.201 7.74084 35.1773 7.68286 35.178 7.62489C35.1796 5.63465 35.1605 3.64364 35.1964 1.65417C35.2117 0.815048 36.1679 -0.0675532 37.2205 0.0483979C38.1071 0.146041 38.591 0.627391 39.0007 1.30403V7.77669L38.9999 7.77745Z" fill="url(#paint2_linear_621_4723)"/>
<path d="M37.3979 39.0003C38.1715 38.6364 38.1157 37.8461 38.306 37.1946C38.5208 36.46 38.6691 35.7056 38.8548 34.9618C38.8694 34.9031 38.9504 34.8611 39.0001 34.8115V39.0003H37.3979Z" fill="url(#paint3_linear_621_4723)"/>
<path d="M21.46 0.03125C21.46 1.06184 21.4814 2.0726 21.4501 3.08107C21.4363 3.53572 20.9945 3.8973 20.5305 3.89807C17.2506 3.90188 13.9707 3.90112 10.6907 3.89502C10.1687 3.89425 9.78341 3.49071 9.78188 2.97961C9.78035 2.02759 9.78188 1.07634 9.78341 0.124316C9.78341 0.100668 9.79258 0.0770202 9.80176 0.03125H21.46Z" fill="url(#paint4_linear_621_4723)"/>
</g>
<defs>
<linearGradient id="paint0_linear_621_4723" x1="-1.6564" y1="36.7589" x2="32.8489" y2="2.18395" gradientUnits="userSpaceOnUse">
<stop offset="0.02" stop-color="#005EB2"/>
<stop offset="1" stop-color="#0BE5A1"/>
</linearGradient>
<linearGradient id="paint1_linear_621_4723" x1="29.1841" y1="31.5215" x2="44.9641" y2="15.7097" gradientUnits="userSpaceOnUse">
<stop offset="0.02" stop-color="#005EB2"/>
<stop offset="1" stop-color="#0BE5A1"/>
</linearGradient>
<linearGradient id="paint2_linear_621_4723" x1="34.4809" y1="7.052" x2="39.6896" y2="1.83285" gradientUnits="userSpaceOnUse">
<stop offset="0.02" stop-color="#005EB2"/>
<stop offset="1" stop-color="#0BE5A1"/>
</linearGradient>
<linearGradient id="paint3_linear_621_4723" x1="37.1457" y1="38.7485" x2="40.0391" y2="35.8492" gradientUnits="userSpaceOnUse">
<stop offset="0.02" stop-color="#005EB2"/>
<stop offset="1" stop-color="#0BE5A1"/>
</linearGradient>
<linearGradient id="paint4_linear_621_4723" x1="11.8679" y1="5.45273" x2="19.365" y2="-2.05955" gradientUnits="userSpaceOnUse">
<stop offset="0.02" stop-color="#005EB2"/>
<stop offset="1" stop-color="#0BE5A1"/>
</linearGradient>
<clipPath id="clip0_621_4723">
<rect width="39" height="39" fill="white"/>
</clipPath>
</defs>
</svg>
