<svg width="20" height="35" viewBox="0 0 20 35" fill="none" xmlns="http://www.w3.org/2000/svg">
<g clip-path="url(#clip0_621_4732)">
<path d="M10.9398 0.0686435L2.43219 1.91577C0.779619 2.27457 -0.280429 3.95893 0.0645106 5.6779L5.44082 32.4701C5.78576 34.1891 7.40507 35.2917 9.05764 34.9329L17.5653 33.0858C19.2178 32.727 20.2779 31.0426 19.9329 29.3237L14.5566 2.53145C14.2117 0.812481 12.5924 -0.290155 10.9398 0.0686435Z" fill="#007AFF"/>
<path d="M10.8792 1.19762L2.92239 2.92515C1.37689 3.2607 0.385533 4.83592 0.708122 6.4435L5.73619 31.5003C6.05878 33.1079 7.57316 34.1391 9.11865 33.8035L17.0754 32.076C18.6209 31.7404 19.6123 30.1652 19.2897 28.5576L14.2616 3.50084C13.939 1.89326 12.4247 0.86207 10.8792 1.19762Z" fill="url(#paint0_linear_621_4732)"/>
<path d="M13.3583 6.93112L8.66455 7.9502L11.6895 23.0245L16.3832 22.0055L13.3583 6.93112Z" fill="#007AFF"/>
<path d="M14.6566 28.9471C16.0469 28.9471 17.174 27.7747 17.174 26.3285C17.174 24.8823 16.0469 23.71 14.6566 23.71C13.2662 23.71 12.1392 24.8823 12.1392 26.3285C12.1392 27.7747 13.2662 28.9471 14.6566 28.9471Z" fill="#007AFF"/>
<path d="M14.6565 27.7002C15.3848 27.7002 15.9751 27.0861 15.9751 26.3286C15.9751 25.5711 15.3848 24.957 14.6565 24.957C13.9283 24.957 13.3379 25.5711 13.3379 26.3286C13.3379 27.0861 13.9283 27.7002 14.6565 27.7002Z" fill="#FF0D01"/>
<path d="M12.9987 7.58266L9.24365 8.39795L12.0482 22.374L15.8033 21.5587L12.9987 7.58266Z" fill="url(#paint1_linear_621_4732)"/>
<path d="M14.2361 13.7462L10.481 14.5615L12.0486 22.3734L15.8036 21.5582L14.2361 13.7462Z" fill="#007AFF"/>
<path d="M14.51 15.1168L10.7549 15.9321L10.8175 16.2442L14.5726 15.4289L14.51 15.1168Z" fill="#C91B14"/>
<path d="M15.2512 18.8053L11.4961 19.6206L11.6213 20.2445L15.3764 19.4292L15.2512 18.8053Z" fill="#C91B14"/>
<path d="M5.44125 5.93368C5.39384 5.97252 5.29384 6.02285 5.15876 6.05223C4.84542 6.12012 4.56813 5.96577 4.49215 5.58648C4.41941 5.22441 4.60612 4.92787 4.95095 4.85289C5.0896 4.82283 5.18311 4.83466 5.22532 4.84715L5.21526 4.97651C5.15519 4.96097 5.07369 4.95726 4.98115 4.97718C4.72041 5.03393 4.58209 5.24468 4.64313 5.54831C4.69996 5.83134 4.89315 5.97928 5.16363 5.92051C5.25097 5.9016 5.33637 5.86343 5.38832 5.82155L5.4419 5.93368H5.44125Z" fill="black"/>
<path d="M6.42581 5.14337C6.50569 5.54157 6.31542 5.80299 6.03163 5.86446C5.7381 5.92829 5.48418 5.73612 5.41404 5.38621C5.34034 5.01908 5.51146 4.73132 5.80856 4.66681C6.11215 4.60095 6.35698 4.80022 6.42581 5.14337ZM5.56698 5.34973C5.61666 5.59663 5.78972 5.79015 6.01572 5.74118C6.24333 5.69187 6.3284 5.44599 6.27548 5.18322C6.22937 4.95322 6.06572 4.73807 5.82642 4.79009C5.58873 4.84176 5.516 5.09575 5.56698 5.34973Z" fill="black"/>
<path d="M6.97425 5.64049L6.37939 4.56274L6.53428 4.52896L6.82196 5.06092C6.90119 5.20682 6.97068 5.33821 7.0275 5.46756L7.03075 5.46689C7.03529 5.32638 7.05218 5.17035 7.07133 5.00856L7.14472 4.39623L7.29798 4.36279L7.1327 5.6057L6.97425 5.64015V5.64049Z" fill="black"/>
<path d="M7.56198 4.30615L7.79414 5.4626L7.65062 5.49367L7.41846 4.33722L7.56198 4.30615Z" fill="black"/>
<path d="M7.81592 4.26696C7.90067 4.2342 8.0023 4.20144 8.11627 4.17678C8.32245 4.13186 8.47928 4.14977 8.59553 4.22306C8.71339 4.29601 8.79814 4.41726 8.83548 4.60437C8.87347 4.79317 8.84814 4.95968 8.76567 5.0887C8.68352 5.21941 8.52377 5.31499 8.30752 5.36194C8.20524 5.38423 8.11854 5.39774 8.04418 5.40483L7.81592 4.2673V4.26696ZM8.16465 5.25825C8.20231 5.25724 8.25556 5.24744 8.31141 5.23528C8.61826 5.16875 8.74911 4.95394 8.68644 4.64186C8.63319 4.36863 8.45006 4.22745 8.14646 4.29365C8.07211 4.30986 8.01756 4.32877 7.98119 4.34566L8.16432 5.25859L8.16465 5.25825Z" fill="black"/>
<path d="M9.39334 4.57227L9.41574 4.68372L9.00824 4.77221L8.98584 4.66076L9.39334 4.57227Z" fill="black"/>
<path d="M9.74098 4.02231L9.73774 4.02299L9.57246 4.16822L9.52148 4.05946L9.72962 3.87809L9.85333 3.85107L10.077 4.96631L9.93678 4.99671L9.74131 4.02231H9.74098Z" fill="black"/>
<path d="M10.5304 4.75715C10.5625 4.75377 10.5979 4.74263 10.6466 4.72642C10.7284 4.69602 10.8002 4.64299 10.8492 4.5697C10.9067 4.48729 10.9382 4.37854 10.9314 4.24209L10.9265 4.2431C10.8823 4.33159 10.8054 4.39475 10.6982 4.41805C10.5054 4.45994 10.3511 4.33598 10.3131 4.14549C10.2709 3.9344 10.3803 3.71723 10.5998 3.66961C10.8193 3.62199 10.9918 3.77802 11.0489 4.06275C11.0983 4.30795 11.0534 4.49675 10.969 4.62611C10.9034 4.72811 10.7999 4.80444 10.6872 4.84294C10.6362 4.86287 10.5904 4.87469 10.5554 4.88043L10.5307 4.75681L10.5304 4.75715ZM10.4544 4.10395C10.4823 4.24276 10.5826 4.32315 10.708 4.29579C10.8054 4.27451 10.8713 4.20831 10.8956 4.13333C10.9012 4.1178 10.9028 4.09956 10.8979 4.07558C10.8596 3.88509 10.7628 3.75404 10.6109 3.78681C10.4872 3.81383 10.4226 3.94588 10.454 4.10361L10.4544 4.10395Z" fill="black"/>
<path d="M5.47561 17.8315L5.1837 17.895L5.16162 17.7852L5.87239 17.6309L5.89447 17.7406L5.60094 17.8045L5.77953 18.6934L5.65419 18.7208L5.47561 17.8318V17.8315Z" fill="black"/>
<path d="M6.5823 18.0301L6.20922 18.1112L6.28163 18.4712L6.69757 18.381L6.71932 18.4891L6.17935 18.6063L5.979 17.6076L6.49755 17.4951L6.51931 17.6032L6.1248 17.689L6.18811 18.0044L6.56119 17.9234L6.58262 18.0301H6.5823Z" fill="black"/>
<path d="M6.83161 18.3007C6.89428 18.324 6.9813 18.3361 7.06702 18.3176C7.19366 18.2899 7.25373 18.2044 7.2336 18.1034C7.21476 18.0102 7.15274 17.968 7.0128 17.944C6.8446 17.9204 6.73063 17.8569 6.70238 17.716C6.67121 17.5603 6.77187 17.4181 6.95857 17.3776C7.05696 17.3563 7.13294 17.3644 7.18067 17.3803L7.16768 17.4928C7.13294 17.4816 7.0628 17.4661 6.97578 17.485C6.8446 17.5134 6.81116 17.6059 6.8248 17.6738C6.84363 17.767 6.91117 17.8005 7.05436 17.8251C7.2297 17.8552 7.32873 17.9187 7.35828 18.0653C7.38913 18.2193 7.30633 18.3767 7.07969 18.4256C6.98715 18.4459 6.88032 18.4395 6.82187 18.4152L6.83161 18.3003V18.3007Z" fill="black"/>
<path d="M7.58645 17.373L7.29454 17.4365L7.27246 17.3267L7.98323 17.1724L8.00531 17.2821L7.71178 17.346L7.89037 18.2349L7.76503 18.2623L7.58645 17.3733V17.373Z" fill="black"/>
<path d="M8.69363 17.5716L8.32055 17.6527L8.39295 18.0127L8.8089 17.9225L8.83065 18.0306L8.29067 18.1478L8.09033 17.1491L8.60888 17.0366L8.63064 17.1447L8.23612 17.2305L8.29944 17.5459L8.67252 17.4649L8.69395 17.5716H8.69363Z" fill="black"/>
<path d="M1.58747 7.55567C1.57773 7.52629 1.34947 6.82681 1.44882 5.98853C1.54299 5.19516 1.95146 4.12856 3.36359 3.55371L3.59673 4.17348C1.46896 5.0398 2.16187 7.24562 2.19239 7.33884L1.58747 7.55533V7.55567Z" fill="white"/>
</g>
<defs>
<linearGradient id="paint0_linear_621_4732" x1="0.809073" y1="27.0603" x2="19.9144" y2="8.69251" gradientUnits="userSpaceOnUse">
<stop offset="0.02" stop-color="#005EB2"/>
<stop offset="0.32" stop-color="#0490AB"/>
<stop offset="0.63" stop-color="#07BEA5"/>
<stop offset="0.86" stop-color="#0ADAA2"/>
<stop offset="1" stop-color="#0BE5A1"/>
</linearGradient>
<linearGradient id="paint1_linear_621_4732" x1="9.24402" y1="14.9777" x2="15.8043" y2="14.9777" gradientUnits="userSpaceOnUse">
<stop offset="0.02" stop-color="#005EB2"/>
<stop offset="1" stop-color="#0BE5A1"/>
</linearGradient>
<clipPath id="clip0_621_4732">
<rect width="20" height="35" fill="white"/>
</clipPath>
</defs>
</svg>
