<svg width="24" height="47" viewBox="0 0 24 47" fill="none" xmlns="http://www.w3.org/2000/svg">
<g clip-path="url(#clip0_618_4147)">
<path d="M23.7439 2.38282L16.3394 3.76336L22.9052 0L23.7439 2.38282Z" fill="#FFD217"/>
<path d="M23.6448 7.0112L16.4756 4.66556L24.0002 4.50391L23.6448 7.0112Z" fill="#FFD217"/>
<path d="M0.255859 42.3735L7.6604 43.7541L1.09456 39.9907L0.255859 42.3735Z" fill="#FFD217"/>
<path d="M0.35538 46.9998L7.52458 44.6558L0 44.4941L0.35538 46.9998Z" fill="#FFD217"/>
<path d="M11.8035 44.4266H8.64457V40.5064C8.64457 37.9943 10.6426 35.9493 13.0971 35.9493H18.3646C18.9459 35.9493 19.4181 35.466 19.4181 34.8711C19.4181 34.2762 18.9459 33.7928 18.3646 33.7928H6.27379C3.48919 33.7928 1.22266 31.4731 1.22266 28.6231C1.22266 25.7731 3.48919 23.4533 6.27379 23.4533H17.4059C18.5147 23.4533 19.4181 22.5302 19.4181 21.3938C19.4181 20.2573 18.5162 19.3343 17.4059 19.3343H5.43667C3.11328 19.3343 1.22424 17.3993 1.22424 15.0229C1.22424 12.6466 3.11486 10.7115 5.43667 10.7115H10.2841C11.3597 10.7115 12.2363 9.81595 12.2363 8.71345V3.50488H15.3952V8.71184C15.3952 11.5958 13.1018 13.943 10.2841 13.943H5.43667C4.85543 13.943 4.38317 14.4264 4.38317 15.0213C4.38317 15.6162 4.85543 16.0995 5.43667 16.0995H17.4075C20.2584 16.0995 22.5786 18.4743 22.5786 21.3922C22.5786 24.3101 20.2584 26.6848 17.4075 26.6848H6.27379C5.22976 26.6848 4.38159 27.5529 4.38159 28.6214C4.38159 29.69 5.22976 30.5581 6.27379 30.5581H18.3646C20.688 30.5581 22.5771 32.4931 22.5771 34.8695C22.5771 37.2458 20.6864 39.1809 18.3646 39.1809H13.0971C12.3832 39.1809 11.8035 39.7741 11.8035 40.5048V44.425V44.4266Z" fill="url(#paint0_linear_618_4147)"/>
</g>
<defs>
<linearGradient id="paint0_linear_618_4147" x1="1.22266" y1="23.9657" x2="22.5771" y2="23.9657" gradientUnits="userSpaceOnUse">
<stop offset="0.02" stop-color="#005EB2"/>
<stop offset="1" stop-color="#0BE5A1"/>
</linearGradient>
<clipPath id="clip0_618_4147">
<rect width="24" height="47" fill="white"/>
</clipPath>
</defs>
</svg>
