<svg width="44" height="48" viewBox="0 0 44 48" fill="none" xmlns="http://www.w3.org/2000/svg">
<g clip-path="url(#clip0_620_4154)">
<path d="M36.5171 4.49135C35.6762 4.08169 34.6608 4.4358 34.2528 5.28074L31.1125 11.791C30.6959 12.6548 29.7574 13.0973 28.8617 12.9215L32.8723 4.60778C33.2802 3.76236 32.9275 2.74156 32.0871 2.33141C31.68 2.13285 31.2197 2.1058 30.7925 2.2546C30.3648 2.40387 30.0203 2.71113 29.8228 3.1208L25.8117 11.4355C25.5378 11.1992 25.3297 10.8939 25.2082 10.5422C25.0275 10.019 25.0606 9.45619 25.3009 8.95811L28.4412 2.44784C28.8492 1.60241 28.4965 0.581132 27.656 0.171462C26.8151 -0.238208 25.7997 0.115905 25.3917 0.960849L21.2327 9.58276C20.8694 10.3359 20.8194 11.1862 21.0923 11.9775C21.3653 12.7683 21.928 13.4051 22.6772 13.7703L24.3028 14.5631L9.35328 45.5521C9.15578 45.9618 9.12887 46.4241 9.27687 46.854C9.42536 47.284 9.73146 47.6299 10.1385 47.8285C10.3725 47.9425 10.6238 48 10.8766 48C11.0635 48 11.2514 47.9686 11.433 47.9048C11.8607 47.7555 12.2053 47.4483 12.4028 47.0386L27.3523 16.0486L28.978 16.8414C29.7271 17.2066 30.5729 17.2568 31.36 16.9824C32.1466 16.708 32.78 16.1423 33.1433 15.3892L37.3023 6.76725C37.7103 5.92182 37.3576 4.90102 36.5171 4.49087V4.49135Z" fill="url(#paint0_linear_620_4154)"/>
<path d="M32.0548 44.0128L15.148 18.0654C17.4003 15.3277 17.4353 10.7392 14.9832 6.87919C12.0778 2.30615 6.78229 0.487275 3.15471 2.81631C-0.472391 5.14534 -1.05817 10.7406 1.84717 15.3137C4.35558 19.2625 8.64678 21.1573 12.1067 20.1012L28.9889 46.0109C29.2542 46.4225 29.6631 46.7061 30.1403 46.8085C30.2686 46.836 30.3979 46.8496 30.5257 46.8496C30.8741 46.8496 31.2157 46.7486 31.5151 46.5539C31.7496 46.4008 31.9413 46.2027 32.0845 45.965C32.1898 45.7901 32.2652 45.5988 32.3085 45.3964C32.4104 44.9167 32.3205 44.4258 32.0543 44.0123L32.0548 44.0128Z" fill="url(#paint1_linear_620_4154)"/>
<path d="M34.2556 38.161C28.8827 38.161 24.5112 33.7662 24.5112 28.3647C24.5112 22.9631 28.8827 18.5684 34.2556 18.5684C39.6285 18.5684 44.0004 22.9631 44.0004 28.3647C44.0004 33.7662 39.629 38.161 34.2556 38.161ZM28.5737 34.5972L29.2772 35.1223C30.728 36.2049 32.4497 36.7774 34.2561 36.7774C38.8702 36.7774 42.6246 33.0034 42.6246 28.3647C42.6246 26.8579 42.22 25.3767 41.4555 24.0815L41.0086 23.3245L28.5747 34.5972H28.5737ZM34.2556 19.9515C29.6415 19.9515 25.8875 23.7255 25.8875 28.3642C25.8875 29.9575 26.3363 31.5111 27.1859 32.8575L27.641 33.5788L40.096 22.2873L39.4286 21.7578C37.9379 20.5756 36.1494 19.951 34.2556 19.951V19.9515Z" fill="#D63E3E"/>
</g>
<defs>
<linearGradient id="paint0_linear_620_4154" x1="9.18269" y1="24.0004" x2="37.472" y2="24.0004" gradientUnits="userSpaceOnUse">
<stop offset="0.02" stop-color="#005EB2"/>
<stop offset="1" stop-color="#0BE5A1"/>
</linearGradient>
<linearGradient id="paint1_linear_620_4154" x1="10.7664" y1="35.1334" x2="25.0975" y2="11.5932" gradientUnits="userSpaceOnUse">
<stop offset="0.02" stop-color="#005EB2"/>
<stop offset="1" stop-color="#0BE5A1"/>
</linearGradient>
<clipPath id="clip0_620_4154">
<rect width="44" height="48" fill="white"/>
</clipPath>
</defs>
</svg>
