<svg width="38" height="36" viewBox="0 0 38 36" fill="none" xmlns="http://www.w3.org/2000/svg">
<g clip-path="url(#clip0_618_3885)">
<path d="M16.6316 10.0582C7.4243 13.1136 0.383717 18.2508 0.0243865 23.5345C-0.762342 35.0956 17.7092 39.1222 23.1858 33.4632C55.4499 15.8166 25.9104 -11.2229 19.4979 7.09159C18.9534 8.31126 17.9474 9.29493 16.6316 10.0578V10.0582Z" fill="url(#paint0_linear_618_3885)"/>
<path d="M21.3521 29.9172C21.3521 28.2929 22.2163 26.8668 23.5179 26.0619V2.41976C23.5179 1.08288 24.6189 -0.000488281 25.9774 -0.000488281C27.336 -0.000488281 28.4362 1.08288 28.4362 2.41976V26.0619C29.7378 26.8672 30.6028 28.2925 30.6028 29.9172C30.6028 32.4305 28.5319 34.4687 25.9774 34.4687C23.423 34.4687 21.3521 32.4309 21.3521 29.9172Z" fill="#007AFF"/>
<path d="M25.9775 0.874512C26.8429 0.874512 27.547 1.56768 27.547 2.41934V26.5451L27.9629 26.8025C29.0591 27.4805 29.7132 28.6449 29.7132 29.9171C29.7132 31.9444 28.0373 33.5933 25.9775 33.5933C23.9177 33.5933 22.2417 31.9441 22.2417 29.9171C22.2417 28.6449 22.8959 27.4805 23.9917 26.8025L24.4076 26.5451V2.41973C24.4076 1.56768 25.112 0.874901 25.9775 0.874901V0.874512Z" fill="#5CB9FF"/>
<path d="M29.7131 29.917C29.7131 31.944 28.0367 33.5932 25.9769 33.5932C23.9171 33.5932 22.2407 31.9436 22.2407 29.917C22.2407 28.6444 22.8949 27.4804 23.9903 26.8025L24.4066 26.5451V14.6514H27.546V26.5451L27.9623 26.8025C29.0581 27.4804 29.7127 28.6448 29.7127 29.917H29.7131Z" fill="#42DB9C"/>
<path d="M26.98 4.24121H29.7133" stroke="#007AFF" stroke-width="0.546223" stroke-miterlimit="10"/>
<path d="M26.98 6.3999H29.7133" stroke="#007AFF" stroke-width="0.546223" stroke-miterlimit="10"/>
<path d="M26.98 8.55908H29.7133" stroke="#007AFF" stroke-width="0.546223" stroke-miterlimit="10"/>
<path d="M26.98 10.7178H29.7133" stroke="#007AFF" stroke-width="0.546223" stroke-miterlimit="10"/>
<path d="M26.98 12.877H29.7133" stroke="#007AFF" stroke-width="0.546223" stroke-miterlimit="10"/>
<path d="M26.98 15.0356H29.7133" stroke="#007AFF" stroke-width="0.546223" stroke-miterlimit="10"/>
<path d="M26.98 17.1953H29.7133" stroke="#007AFF" stroke-width="0.546223" stroke-miterlimit="10"/>
<path d="M26.98 19.354H29.7133" stroke="#007AFF" stroke-width="0.546223" stroke-miterlimit="10"/>
<path d="M26.98 21.5132H29.7133" stroke="#007AFF" stroke-width="0.546223" stroke-miterlimit="10"/>
<path d="M26.98 23.6719H29.7133" stroke="#007AFF" stroke-width="0.546223" stroke-miterlimit="10"/>
<path d="M17.3382 14.6698C17.5135 14.608 17.6047 14.4181 17.5419 14.2457C17.4791 14.0733 17.2861 13.9837 17.1108 14.0455L16.1594 14.3811C15.9841 14.443 15.8929 14.6328 15.9557 14.8052C16.0185 14.9776 16.2115 15.0673 16.3868 15.0054L17.3382 14.6698Z" fill="#8AEDBF"/>
<path d="M16.6139 12.5627C16.6934 12.397 16.6214 12.1993 16.4531 12.1211C16.2849 12.0429 16.084 12.1138 16.0045 12.2795L15.4288 13.4788C15.3493 13.6445 15.4213 13.8423 15.5896 13.9205C15.7578 13.9987 15.9587 13.9277 16.0382 13.7621L16.6139 12.5627Z" fill="#8AEDBF"/>
<path d="M17.6241 16.7251C17.7925 16.8033 17.9934 16.7325 18.0729 16.5669C18.1524 16.4013 18.0803 16.2037 17.9119 16.1254L16.6931 15.559C16.5247 15.4807 16.3238 15.5515 16.2443 15.7171C16.1649 15.8827 16.2369 16.0804 16.4053 16.1587L17.6241 16.7251Z" fill="#8AEDBF"/>
<path d="M13.0288 12.668L14.2235 12.2466C14.2645 12.2321 14.31 12.2533 14.3247 12.2936L16.3182 17.7663C16.3329 17.8066 16.3114 17.8515 16.2704 17.8659L15.0757 18.2873L13.0288 12.668Z" fill="#007AFF"/>
<path d="M8.66455 22.3101L10.5682 21.6386L11.7053 24.7604C12.0819 25.7942 11.5346 26.9346 10.4841 27.3051L8.66455 22.3101Z" fill="#007AFF"/>
<path d="M4.1455 15.8009C2.39317 16.4189 1.48218 18.3177 2.11022 20.042L3.02002 22.5394L7.45546 34.715C7.76967 35.5772 8.73448 36.0254 9.61025 35.7166L11.5138 35.0453C12.3899 34.7361 12.8454 33.7866 12.5316 32.9249L10.3709 26.9932C9.11479 23.5449 10.9372 19.7472 14.4414 18.5112L15.0758 18.2873L13.0286 12.668L4.1455 15.8012V15.8009Z" fill="#42DB9C"/>
<path opacity="0.2" d="M14.4408 18.5107C10.935 19.7472 9.11341 23.5432 10.3703 26.9927L12.531 32.9244C12.8448 33.7862 12.3889 34.736 11.5132 35.0448L9.92704 35.6044C10.8028 35.2956 11.2587 34.3454 10.9449 33.484L8.78415 27.5523C7.52768 24.1024 9.34927 20.3068 12.8547 19.0703L14.4408 18.5107Z" fill="#083D77"/>
<path d="M5.03234 17.3226L4.00342 17.6855L4.73023 19.6809L5.75916 19.3179L5.03234 17.3226Z" fill="white"/>
<path d="M4.87322 18.5048L5.39514 18.3207L5.75861 19.3185L5.2367 19.5026C4.95693 19.6013 4.64823 19.4578 4.54795 19.1825C4.44767 18.9072 4.59345 18.6034 4.87322 18.5048Z" fill="#1A263C"/>
<path d="M5.75948 19.3178C5.47534 19.4179 5.25887 19.6204 5.13857 19.8665C5.01826 20.1126 4.99373 20.4027 5.09424 20.678L4.73096 19.6803L5.75988 19.3174L5.75948 19.3178Z" fill="#1A263C"/>
<path d="M5.75953 19.3179L6.12282 20.3156L5.0939 20.6785C4.99338 20.4032 5.01791 20.1131 5.13822 19.867C5.25852 19.6208 5.47499 19.4183 5.75913 19.3183L5.75953 19.3179Z" fill="white"/>
<path d="M5.39551 18.3208L5.91742 18.1367C6.19719 18.038 6.50589 18.1815 6.60617 18.4568C6.70645 18.7321 6.56066 19.0359 6.28089 19.1345L5.75898 19.3186L5.39551 18.3208Z" fill="#007AFF"/>
<path d="M3.3374 19.0464L3.35268 19.041C3.91222 18.8436 4.52948 19.1302 4.73017 19.6812L3.70125 20.0441L3.33777 19.0463L3.3374 19.0464Z" fill="#007AFF"/>
</g>
<defs>
<linearGradient id="paint0_linear_618_3885" x1="-0.000149327" y1="18.4915" x2="37.9999" y2="18.4915" gradientUnits="userSpaceOnUse">
<stop offset="0.02" stop-color="#005EB2"/>
<stop offset="1" stop-color="#0BE5A1"/>
</linearGradient>
<clipPath id="clip0_618_3885">
<rect width="38" height="36" fill="white"/>
</clipPath>
</defs>
</svg>
