<svg width="32" height="43" viewBox="0 0 32 43" fill="none" xmlns="http://www.w3.org/2000/svg">
<g clip-path="url(#clip0_621_4172)">
<path d="M16.2546 34.6986C24.5652 34.6986 31.3022 27.9271 31.3022 19.5739C31.3022 11.2208 24.5652 4.44922 16.2546 4.44922C7.94407 4.44922 1.20703 11.2208 1.20703 19.5739C1.20703 27.9271 7.94407 34.6986 16.2546 34.6986Z" fill="#964C41"/>
<path d="M22.2243 29.1715C21.7715 30.6019 21.1114 32.0327 20.1451 33.0654C19.4569 33.8016 18.2713 32.288 17.2367 32.4779C15.5983 32.7765 14.7046 34.3791 13.8151 33.5719C11.9854 31.9118 11.6013 28.7187 12.1024 27.2602C12.1387 27.1552 12.1789 27.0582 12.2233 26.9733C13.1973 25.1116 16.5385 26.1699 19.0361 25.7705C19.0643 25.7667 19.0946 25.7605 19.1228 25.7566C20.1472 25.5865 21.0913 25.9822 21.6911 26.6647C22.2628 27.3177 22.5183 28.2357 22.2243 29.1715Z" fill="#7A0000"/>
<path d="M12.3089 31.148C12.6166 32.0595 13.1079 32.9301 13.8144 33.5713C14.705 34.3792 15.5973 32.7759 17.2367 32.4769C18.271 32.2885 19.4558 33.8007 20.1448 33.0648C20.5966 32.5819 20.9818 32.0124 21.3099 31.3964C19.0041 28.4108 13.905 29.2998 12.3086 31.148H12.3089Z" fill="#FF7F6F"/>
<path d="M27.8557 43.0003C27.4501 41.8592 26.7822 40.8386 25.9234 40.0092C22.4444 36.6491 20.4776 32.0616 20.5731 27.268L20.578 27.0269L12.9903 27.3899L12.9804 28.186C12.9184 33.1643 10.4074 37.7962 6.25886 40.6522C5.2559 41.3426 4.4517 42.1356 4.14404 43.0003H27.8557Z" fill="url(#paint0_linear_621_4172)"/>
<path d="M21.6905 26.6647C18.9371 27.8162 13.6336 27.5789 12.1021 27.2602C12.1383 27.1552 12.1785 27.0582 12.2229 26.9733C13.197 25.1116 16.5382 26.1699 19.0357 25.7705C19.0639 25.7667 19.0942 25.7605 19.1224 25.7566C20.1469 25.5865 21.091 25.9822 21.6908 26.6647H21.6905Z" fill="white"/>
<path d="M12.2019 10.3399C12.2019 10.3399 2.64417 18.7525 0.498333 18.8664C-1.08928 15.9813 0.883166 2.31718 9.81115 1.56368C9.81115 1.56368 16.7554 -2.91643 25.9854 3.28997C34.0831 8.73526 31.9151 17.2171 31.1747 18.2418C30.4343 19.2666 21.8823 16.4452 17.8426 12.4937C18.2246 13.9224 19.7816 15.6311 21.2666 16.6763C22.7513 17.7208 13.8554 16.1195 12.2019 10.3399Z" fill="black"/>
</g>
<defs>
<linearGradient id="paint0_linear_621_4172" x1="4.14404" y1="35.0136" x2="27.8557" y2="35.0136" gradientUnits="userSpaceOnUse">
<stop offset="0.02" stop-color="#005EB2"/>
<stop offset="1" stop-color="#0BE5A1"/>
</linearGradient>
<clipPath id="clip0_621_4172">
<rect width="32" height="43" fill="white"/>
</clipPath>
</defs>
</svg>
