<svg width="46" height="46" viewBox="0 0 46 46" fill="none" xmlns="http://www.w3.org/2000/svg">
<g clip-path="url(#clip0_620_4169)">
<path d="M22.9994 46C10.3179 46 0 35.683 0 23C0 10.317 10.3179 0 22.9994 0C35.681 0 46 10.3181 46 23C46 35.6819 35.6821 46 22.9994 46ZM9.58858 37.6328L11.2491 38.8657C14.6732 41.4075 18.7371 42.7516 23.0006 42.7516C33.8912 42.7516 42.7528 33.8909 42.7528 23C42.7528 19.4623 41.7978 15.9848 39.9932 12.9439L38.9384 11.1665L9.58858 37.6339V37.6328ZM22.9994 3.24845C12.1088 3.24845 3.24837 12.1091 3.24837 23C3.24837 26.7407 4.30771 30.3884 6.31299 33.5495L7.38708 35.2429L36.7846 8.7336L35.2092 7.49048C31.6909 4.71501 27.4693 3.24845 22.9994 3.24845Z" fill="#D63E3E"/>
</g>
<defs>
<clipPath id="clip0_620_4169">
<rect width="46" height="46" fill="white"/>
</clipPath>
</defs>
</svg>
