<svg width="48" height="49" viewBox="0 0 48 49" fill="none" xmlns="http://www.w3.org/2000/svg">
<g clip-path="url(#clip0_621_4237)">
<mask id="mask0_621_4237" style="mask-type:luminance" maskUnits="userSpaceOnUse" x="3" y="0" width="42" height="49">
<path d="M44.9875 0H3.39648V48.7301H44.9875V0Z" fill="white"/>
</mask>
<g mask="url(#mask0_621_4237)">
<path d="M43.5274 44.9801V54.0553H5.521V44.9801C5.521 37.0065 11.9367 30.543 19.85 30.543H29.1975C37.1108 30.543 43.5264 37.0065 43.5264 44.9801H43.5274Z" fill="url(#paint0_linear_621_4237)"/>
<path d="M18.9477 30.543H29.9867L30.5253 31.31L28.7896 33.974L23.4309 35.2189L19.4248 33.3636L18.4609 31.0044L18.9477 30.543Z" fill="#1A263C"/>
<path d="M30.0854 31.1482C30.0854 32.9261 27.5693 34.3674 24.4665 34.3674C21.3638 34.3674 18.8477 32.9261 18.8477 31.1482C18.8477 30.9421 18.8813 30.739 18.9465 30.5436C19.1789 30.5436 19.3872 30.4488 19.5408 30.296C19.6925 30.1431 19.7865 29.9313 19.7865 29.6972V22.5517C19.7865 22.4646 19.8576 22.3911 19.9459 22.3911H28.9881C29.0765 22.3911 29.1475 22.4646 29.1475 22.5517V29.6972C29.1475 30.1644 29.5238 30.5436 29.9856 30.5436C29.9885 30.5523 29.9913 30.562 29.9942 30.5707C30.0537 30.7574 30.0854 30.9508 30.0854 31.1482Z" fill="#5B341A"/>
<path d="M32.5999 16.1354C32.5999 22.4713 31.2867 27.6184 24.2335 27.6068C18.3775 27.5971 16.1475 22.4713 16.1475 16.1354L17.0287 14.5345L17.2217 9.36621L29.2697 10.6692L31.7187 14.4185L32.5999 16.1354Z" fill="#754525"/>
<path d="M16.1887 10.9413C16.1935 10.9046 16.1974 10.8678 16.2051 10.8311C16.1897 11.098 16.1734 11.364 16.1475 11.6271C16.1475 11.395 16.1609 11.1657 16.1887 10.9413Z" fill="#1A263C"/>
<path d="M16.9448 17.4801C16.9871 17.452 17.0245 17.4191 17.0619 17.3862C17.0255 17.4201 16.9871 17.452 16.9448 17.4801Z" fill="#1A263C"/>
<path d="M17.2963 17.0834C17.4662 16.7807 17.5612 16.3744 17.6707 15.9014C17.5411 16.5543 17.4047 17.0796 17.062 17.3862C17.1542 17.3011 17.231 17.2005 17.2963 17.0834Z" fill="#1A263C"/>
<path d="M20.3155 13.0317H20.4278C19.414 13.0317 18.5116 13.6257 18.0527 14.5301C18.4646 13.6276 19.3363 13.0317 20.3155 13.0317Z" fill="#1A263C"/>
<path d="M31.0034 15.5212C31.0274 15.6479 31.0523 15.7717 31.0744 15.8907C31.0485 15.7804 31.0226 15.6663 30.9938 15.5483L30.8652 15.023C30.8229 14.847 30.7634 14.6806 30.6904 14.522C30.8143 14.7619 30.9055 15.024 30.9602 15.3026L31.0024 15.5212H31.0034Z" fill="#1A263C"/>
<path d="M32.6005 11.627V17.6824C32.4094 17.6824 32.2462 17.6611 32.1032 17.6185C32.0744 17.6098 32.0475 17.6002 32.0216 17.5914C31.9141 17.5518 31.8219 17.4996 31.7393 17.4357C31.6213 17.3429 31.5272 17.2239 31.4494 17.0846C31.2814 16.7818 31.1854 16.3755 31.0769 15.9025C31.075 15.8996 31.075 15.8967 31.0741 15.8919C31.051 15.7729 31.027 15.6491 31.003 15.5224L30.9608 15.3038C30.9061 15.0261 30.8149 14.763 30.691 14.5231C30.2792 13.6255 29.4085 13.0325 28.4331 13.0325H20.3163C19.3371 13.0325 18.4654 13.6284 18.0536 14.5309C17.9326 14.7688 17.8414 15.0271 17.7886 15.3038L17.7464 15.5224C17.7224 15.6491 17.6974 15.7729 17.6753 15.8919C17.6734 15.8948 17.6734 15.8996 17.6725 15.9025C17.563 16.3755 17.468 16.7818 17.2981 17.0846C17.2069 17.2481 17.0945 17.3806 16.9467 17.4812L16.7288 17.5914C16.7019 17.6002 16.6741 17.6118 16.6453 17.6185L16.1499 17.6824V11.627C16.1758 11.3639 16.1921 11.0989 16.2075 10.8309C16.3179 8.83053 16.3534 6.83401 20.1512 6.38324C20.6965 6.31746 21.3214 6.28554 22.0337 6.28844L24.3752 6.2749L26.7185 6.28844C27.4309 6.28554 28.0539 6.31746 28.5992 6.38324C32.4037 6.83401 32.4325 8.83634 32.5448 10.8396C32.5601 11.1037 32.5765 11.3668 32.6024 11.6261L32.6005 11.627Z" fill="#1A263C"/>
<path d="M17.7881 15.3027C17.8409 15.026 17.9321 14.7677 18.053 14.5298C17.982 14.6855 17.9244 14.8509 17.8821 15.0231L17.7545 15.5484C17.7257 15.6664 17.6997 15.7805 17.6738 15.8908C17.6969 15.7718 17.7209 15.648 17.7449 15.5213L17.7871 15.3027H17.7881Z" fill="#1A263C"/>
<path d="M30.6901 14.5224C30.2312 13.6228 29.3307 13.0317 28.3198 13.0317H28.4321C29.4085 13.0317 30.2782 13.6247 30.6901 14.5224Z" fill="#1A263C"/>
<path d="M31.4496 17.0834C31.5034 17.1801 31.5658 17.2662 31.6378 17.3407C31.3296 17.0292 31.1991 16.5233 31.0771 15.9014C31.1866 16.3744 31.2816 16.7807 31.4496 17.0834Z" fill="#1A263C"/>
<path d="M31.6377 17.3408C31.6703 17.3737 31.703 17.4066 31.7395 17.4346C31.703 17.4056 31.6703 17.3747 31.6377 17.3408Z" fill="#1A263C"/>
<path d="M32.6006 11.6272C32.5746 11.368 32.5583 11.1049 32.543 10.8408C32.5487 10.8747 32.5535 10.9076 32.5583 10.9414C32.5852 11.1658 32.6006 11.3951 32.6006 11.6272Z" fill="#1A263C"/>
<path d="M17.5642 18.7707C17.5642 20.0582 17.5421 21.3485 16.7722 21.3485C16.0022 21.3485 14.7734 20.0591 14.7734 18.7707C14.7734 17.4822 15.3984 16.4395 16.1693 16.4395C16.9402 16.4395 17.5651 17.4832 17.5651 18.7707H17.5642Z" fill="#754525"/>
<path d="M33.9743 18.7707C33.9743 20.0582 32.7551 21.3485 31.9842 21.3485C31.2133 21.3485 31.1826 20.0591 31.1826 18.7707C31.1826 17.4822 31.8076 16.4395 32.5785 16.4395C33.3493 16.4395 33.9743 17.4832 33.9743 18.7707Z" fill="#754525"/>
<path d="M31.0357 32.7194C30.404 33.8531 28.8123 35.041 24.9608 35.2228C21.2975 35.395 19.4639 34.3 18.5451 33.147C17.6024 31.9678 17.6216 30.7277 17.6216 30.7277V30.7258C18.0565 30.6571 18.4991 30.5962 18.9464 30.543C18.8811 30.7384 18.8475 30.9415 18.8475 31.1475C18.8475 32.9255 21.3618 34.3667 24.4664 34.3667C27.5711 34.3667 30.0853 32.9255 30.0853 31.1475C30.0853 30.9502 30.0536 30.7567 29.9941 30.5701C29.9912 30.5613 29.9883 30.5517 29.9855 30.543C30.4616 30.5991 30.9301 30.6649 31.3919 30.7403C31.4475 31.0972 31.4965 31.8933 31.0357 32.7194Z" fill="white"/>
<path d="M6.0874 49.5406L17.0007 37.5566L15.5069 33.8653L17.0007 30.6732L18.6087 31.4838V33.874L24.1229 28.8208L29.7514 32.988L24.6269 40.7158L22.1703 41.9278L15.8516 50.0339L6.0874 49.5406Z" fill="#754525"/>
</g>
<path d="M20.5554 19.3017C20.3711 19.3017 20.1772 19.293 19.9736 19.2736L20.0591 18.3614C21.8639 18.5336 22.6866 17.7433 22.7212 17.7095L23.3682 18.3537C23.3269 18.3963 22.4236 19.3026 20.5554 19.3026V19.3017Z" fill="#1A263C"/>
<path d="M28.8566 19.2816C27.0729 19.2816 26.1907 18.4342 26.1494 18.3936L26.7821 17.7358C26.8166 17.7687 27.6566 18.5406 29.4576 18.3298L29.5632 19.24C29.3136 19.269 29.0784 19.2826 28.8576 19.2826L28.8566 19.2816Z" fill="#1A263C"/>
<path d="M24.4464 26.6631L22.2461 27.9486L23.9309 26.0343L22.2682 25.9028L23.7965 25.2295L22.2999 24.5969L24.0259 24.4547L24.0797 24.4644L24.073 24.4508L24.5827 24.4092C25.1491 24.3628 25.6445 24.1007 25.9872 23.7157C26.1591 23.5213 26.2935 23.2968 26.3779 23.0511L26.2618 24.0949L28.8192 22.374L26.7773 24.7246L30.0528 24.1471L26.9117 25.5294L29.3626 27.227L26.6285 26.2936L28.2394 29.6966L26.0045 26.814L25.8154 29.2303L25.2058 26.9494L23.3664 30.4182L24.4474 26.664L24.4464 26.6631Z" fill="#2DB58B"/>
<path d="M24.8898 25.7468C25.9322 25.7468 26.7772 24.8954 26.7772 23.8451C26.7772 22.7948 25.9322 21.9434 24.8898 21.9434C23.8474 21.9434 23.0024 22.7948 23.0024 23.8451C23.0024 24.8954 23.8474 25.7468 24.8898 25.7468Z" fill="#601211"/>
</g>
<defs>
<linearGradient id="paint0_linear_621_4237" x1="5.521" y1="42.2996" x2="43.5274" y2="42.2996" gradientUnits="userSpaceOnUse">
<stop offset="0.02" stop-color="#005EB2"/>
<stop offset="1" stop-color="#0BE5A1"/>
</linearGradient>
<clipPath id="clip0_621_4237">
<rect width="48" height="49" fill="white"/>
</clipPath>
</defs>
</svg>
