<svg width="50" height="52" viewBox="0 0 50 52" fill="none" xmlns="http://www.w3.org/2000/svg">
<g clip-path="url(#clip0_618_3921)">
<mask id="mask0_618_3921" style="mask-type:luminance" maskUnits="userSpaceOnUse" x="3" y="0" width="45" height="52">
<path d="M47.4495 0H3.21338V51.4376H47.4495V0Z" fill="white"/>
</mask>
<g mask="url(#mask0_618_3921)">
<path d="M45.8957 47.479V57.0585H5.47314V47.479C5.47314 39.0624 12.2969 32.2397 20.7134 32.2397H30.6554C39.072 32.2397 45.8957 39.0624 45.8957 47.479Z" fill="url(#paint0_linear_618_3921)"/>
<path d="M19.7525 32.2397H31.4946L32.0664 33.0494L30.2214 35.8614L24.5218 37.1755L20.261 35.2171L19.2358 32.7268L19.7525 32.2397Z" fill="#1A263C"/>
<path d="M31.5999 32.8789C31.5999 34.7556 28.9237 36.2769 25.6237 36.2769C22.3236 36.2769 19.6475 34.7556 19.6475 32.8789C19.6475 32.6614 19.6832 32.447 19.7526 32.2407C19.9997 32.2407 20.2213 32.1406 20.3847 31.9793C20.546 31.818 20.6461 31.5944 20.6461 31.3473V23.8047C20.6461 23.7129 20.7216 23.6353 20.8155 23.6353H30.4329C30.5268 23.6353 30.6024 23.7129 30.6024 23.8047V31.3473C30.6024 31.8404 31.0026 32.2407 31.4937 32.2407C31.4968 32.2499 31.4999 32.2601 31.5029 32.2693C31.5662 32.4664 31.5999 32.6706 31.5999 32.8789Z" fill="#5B341A"/>
<path d="M34.2742 17.0321C34.2742 23.72 32.8774 29.153 25.3757 29.1407C19.1473 29.1305 16.7754 23.72 16.7754 17.0321L17.7127 15.3422L17.918 9.88672L30.7322 11.2621L33.3369 15.2197L34.2742 17.0321Z" fill="#754525"/>
<path d="M16.8193 11.549C16.8244 11.5102 16.8285 11.4714 16.8367 11.4326C16.8203 11.7144 16.803 11.9952 16.7754 12.2729C16.7754 12.0279 16.7897 11.7859 16.8193 11.549Z" fill="#1A263C"/>
<path d="M17.6226 18.4516C17.6675 18.422 17.7073 18.3873 17.7471 18.3525C17.7083 18.3883 17.6675 18.422 17.6226 18.4516Z" fill="#1A263C"/>
<path d="M17.9972 18.0329C18.1779 17.7133 18.279 17.2845 18.3954 16.7852C18.2576 17.4744 18.1126 18.0288 17.748 18.3525C17.8461 18.2626 17.9278 18.1564 17.9972 18.0329Z" fill="#1A263C"/>
<path d="M21.2084 13.7554H21.3278C20.2496 13.7554 19.2898 14.3823 18.8018 15.337C19.2398 14.3843 20.1669 13.7554 21.2084 13.7554Z" fill="#1A263C"/>
<path d="M32.5751 16.3839C32.6006 16.5176 32.6271 16.6483 32.6506 16.7739C32.623 16.6575 32.5955 16.537 32.5648 16.4124L32.428 15.858C32.3831 15.6722 32.3198 15.4966 32.2422 15.3291C32.3739 15.5823 32.4709 15.859 32.5291 16.1531L32.574 16.3839H32.5751Z" fill="#1A263C"/>
<path d="M34.2741 12.273V18.6648C34.0709 18.6648 33.8974 18.6424 33.7452 18.5974C33.7146 18.5882 33.686 18.578 33.6584 18.5688C33.5441 18.527 33.4461 18.4718 33.3582 18.4045C33.2327 18.3064 33.1326 18.1808 33.0499 18.0338C32.8712 17.7142 32.7691 17.2854 32.6537 16.7861C32.6517 16.783 32.6517 16.78 32.6507 16.7749C32.6261 16.6493 32.6006 16.5186 32.5751 16.3848L32.5302 16.1541C32.472 15.861 32.375 15.5833 32.2433 15.3301C31.8052 14.3825 30.8791 13.7566 29.8417 13.7566H21.2087C20.1672 13.7566 19.2401 14.3856 18.8021 15.3382C18.6734 15.5894 18.5764 15.862 18.5203 16.1541L18.4754 16.3848C18.4498 16.5186 18.4233 16.6493 18.3998 16.7749C18.3978 16.7779 18.3978 16.783 18.3967 16.7861C18.2803 17.2854 18.1793 17.7142 17.9985 18.0338C17.9015 18.2064 17.7821 18.3463 17.6248 18.4524L17.393 18.5688C17.3644 18.578 17.3348 18.5903 17.3042 18.5974L16.7773 18.6648V12.273C16.8049 11.9953 16.8223 11.7155 16.8386 11.4327C16.956 9.32116 16.9938 7.2137 21.0331 6.73789C21.6131 6.66846 22.2778 6.63477 23.0354 6.63783L25.5257 6.62354L28.0181 6.63783C28.7758 6.63477 29.4384 6.66846 30.0184 6.73789C34.0648 7.2137 34.0954 9.32729 34.2149 11.4419C34.2312 11.7206 34.2486 11.9984 34.2762 12.272L34.2741 12.273Z" fill="#1A263C"/>
<path d="M18.519 16.1532C18.5751 15.8612 18.6721 15.5886 18.8008 15.3374C18.7252 15.5018 18.664 15.6764 18.619 15.8581L18.4832 16.4126C18.4526 16.5371 18.425 16.6576 18.3975 16.774C18.422 16.6484 18.4475 16.5177 18.473 16.384L18.5179 16.1532H18.519Z" fill="#1A263C"/>
<path d="M32.2432 15.3288C31.7551 14.3792 30.7973 13.7554 29.7222 13.7554H29.8416C30.88 13.7554 31.8051 14.3813 32.2432 15.3288Z" fill="#1A263C"/>
<path d="M33.051 18.0329C33.1081 18.135 33.1745 18.2259 33.2511 18.3045C32.9233 17.9757 32.7845 17.4417 32.6548 16.7852C32.7712 17.2845 32.8723 17.7133 33.051 18.0329Z" fill="#1A263C"/>
<path d="M33.251 18.3042C33.2857 18.3389 33.3204 18.3736 33.3592 18.4032C33.3204 18.3726 33.2857 18.3399 33.251 18.3042Z" fill="#1A263C"/>
<path d="M34.2742 12.273C34.2466 11.9993 34.2292 11.7216 34.2129 11.4429C34.219 11.4786 34.2241 11.5133 34.2292 11.5491C34.2578 11.7859 34.2742 12.0279 34.2742 12.273Z" fill="#1A263C"/>
<path d="M18.2812 19.8133C18.2812 21.1723 18.2577 22.5344 17.4388 22.5344C16.6199 22.5344 15.313 21.1733 15.313 19.8133C15.313 18.4532 15.9777 17.3525 16.7976 17.3525C17.6175 17.3525 18.2822 18.4543 18.2822 19.8133H18.2812Z" fill="#754525"/>
<path d="M35.7363 19.8133C35.7363 21.1723 34.4396 22.5344 33.6197 22.5344C32.7998 22.5344 32.7671 21.1733 32.7671 19.8133C32.7671 18.4532 33.4318 17.3525 34.2517 17.3525C35.0716 17.3525 35.7363 18.4543 35.7363 19.8133Z" fill="#754525"/>
<path d="M32.6105 34.5371C31.9386 35.7338 30.2457 36.9876 26.1493 37.1796C22.2529 37.3614 20.3027 36.2055 19.3255 34.9884C18.3229 33.7438 18.3433 32.4348 18.3433 32.4348V32.4327C18.8058 32.3602 19.2765 32.2959 19.7523 32.2397C19.6829 32.446 19.6472 32.6604 19.6472 32.8779C19.6472 34.7546 22.3213 36.276 25.6234 36.276C28.9255 36.276 31.5996 34.7546 31.5996 32.8779C31.5996 32.6696 31.5659 32.4654 31.5026 32.2683C31.4996 32.2591 31.4965 32.2489 31.4935 32.2397C31.9999 32.299 32.4982 32.3684 32.9893 32.448C33.0485 32.8248 33.1006 33.6651 32.6105 34.5371Z" fill="white"/>
<path d="M45.2954 52.3411L33.6881 39.6913L35.2769 35.795L33.6881 32.4255L31.9778 33.2811V35.8042L26.1129 30.4712L20.1265 34.8689L25.5769 43.0271L28.1897 44.3055L34.9103 52.8619L45.2954 52.3411Z" fill="#5B341A"/>
<path d="M6.07568 52.2933L17.683 39.6435L16.0943 35.7472L17.683 32.3777L19.3933 33.2333V35.7563L25.2572 30.4224L31.2447 34.8211L25.7943 42.9783L23.1804 44.2576L16.4608 52.8141L6.07568 52.2933Z" fill="#754525"/>
</g>
<path d="M49.9999 26.762L49.6568 27.8361C49.4904 28.3457 47.4789 34.6486 47.3676 34.9886C47.1502 34.9274 40.0007 33.1497 39.5648 33.0364L39.237 32.9537L39.0981 32.7444L34.8291 26.2423L40.2101 31.37L46.1832 32.8648L47.6229 28.3691L44.1666 28.122L44.3035 29.0298L45.7432 28.6315L46.2159 30.3408L43.8123 31.0045L42.8485 31.272C42.6534 29.9793 42.2777 27.4849 42.0847 26.1953C43.6337 26.3046 48.451 26.6497 49.9999 26.761V26.762Z" fill="url(#paint1_linear_618_3921)"/>
<path d="M28.5691 26.2474C28.5691 24.7945 27.3918 23.6172 25.9388 23.6172C24.4859 23.6172 23.3086 24.7945 23.3086 26.2474C25.0229 25.7226 26.8547 25.7226 28.5691 26.2474Z" fill="#601211"/>
<path d="M21.4625 20.374C21.2665 20.374 21.0602 20.3648 20.8438 20.3444L20.9346 19.3816C22.8542 19.5633 23.7292 18.7291 23.766 18.6934L24.4542 19.3734C24.4103 19.4183 23.4495 20.375 21.4625 20.375V20.374Z" fill="#1A263C"/>
<path d="M30.2915 20.3528C28.3944 20.3528 27.456 19.4584 27.4121 19.4155L28.085 18.7212C28.1217 18.7559 29.0152 19.5707 30.9307 19.3481L31.043 20.3089C30.7775 20.3396 30.5273 20.3539 30.2925 20.3539L30.2915 20.3528Z" fill="#1A263C"/>
<path d="M43.4581 20.129L43.5582 20.6282C43.6041 20.8651 44.1923 23.7935 44.2229 23.9518C44.1239 23.9753 40.9126 24.8411 40.7166 24.8922L40.5696 24.931L40.4685 24.8789L37.3594 23.2493L40.6063 24.0927L43.2907 23.3728L42.8731 21.2838L41.4548 21.9444L41.708 22.2721L42.189 21.7994L42.7495 22.3702L41.947 23.1594L41.6253 23.476C41.2649 23.0083 40.5696 22.1067 40.2112 21.6401C40.8463 21.344 42.823 20.424 43.4581 20.1279V20.129Z" fill="url(#paint2_linear_618_3921)"/>
<path d="M0 27.2439L0.343074 28.3181C0.509506 28.8276 2.52098 35.1306 2.63228 35.4706C2.84976 35.4093 9.99918 33.6316 10.4352 33.5183L10.7629 33.4356L10.9018 33.2263L15.1708 26.7242L9.78987 31.852L3.8167 33.3468L2.37701 28.8511L5.83328 28.604L5.69646 29.5117L4.25677 29.1135L3.78403 30.8227L6.18759 31.4864L7.15146 31.7539C7.34648 30.4613 7.72223 27.9668 7.91521 26.6772C6.36627 26.7865 1.54894 27.1316 0 27.2429L0 27.2439Z" fill="url(#paint3_linear_618_3921)"/>
<path d="M6.54211 20.6099L6.44205 21.1092C6.3961 21.3461 5.80798 24.2745 5.77734 24.4327C5.87639 24.4562 9.0876 25.3221 9.28364 25.3731L9.43068 25.4119L9.53176 25.3599L12.6409 23.7303L9.39392 24.5736L6.70957 23.8538L7.12718 21.7647L8.54542 22.4253L8.2922 22.7531L7.81128 22.2804L7.25072 22.8511L8.05327 23.6404L8.3749 23.9569C8.73534 23.4893 9.43068 22.5877 9.78907 22.1211C9.15397 21.825 7.17721 20.905 6.54211 20.6089V20.6099Z" fill="url(#paint4_linear_618_3921)"/>
</g>
<defs>
<linearGradient id="paint0_linear_618_3921" x1="5.47314" y1="44.6496" x2="45.8957" y2="44.6496" gradientUnits="userSpaceOnUse">
<stop offset="0.02" stop-color="#005EB2"/>
<stop offset="1" stop-color="#0BE5A1"/>
</linearGradient>
<linearGradient id="paint1_linear_618_3921" x1="34.8301" y1="30.593" x2="49.9999" y2="30.593" gradientUnits="userSpaceOnUse">
<stop offset="0.02" stop-color="#005EB2"/>
<stop offset="1" stop-color="#0BE5A1"/>
</linearGradient>
<linearGradient id="paint2_linear_618_3921" x1="37.3594" y1="22.5305" x2="44.2229" y2="22.5305" gradientUnits="userSpaceOnUse">
<stop offset="0.02" stop-color="#005EB2"/>
<stop offset="1" stop-color="#0BE5A1"/>
</linearGradient>
<linearGradient id="paint3_linear_618_3921" x1="0" y1="31.0739" x2="15.1698" y2="31.0739" gradientUnits="userSpaceOnUse">
<stop offset="0.02" stop-color="#005EB2"/>
<stop offset="1" stop-color="#0BE5A1"/>
</linearGradient>
<linearGradient id="paint4_linear_618_3921" x1="5.77734" y1="23.0114" x2="12.6409" y2="23.0114" gradientUnits="userSpaceOnUse">
<stop offset="0.02" stop-color="#005EB2"/>
<stop offset="1" stop-color="#0BE5A1"/>
</linearGradient>
<clipPath id="clip0_618_3921">
<rect width="50" height="51.4376" fill="white"/>
</clipPath>
</defs>
</svg>
