<svg width="50" height="49" viewBox="0 0 50 49" fill="none" xmlns="http://www.w3.org/2000/svg">
<g clip-path="url(#clip0_618_3955)">
<path d="M14.5476 0V7.27382C14.5476 15.4497 13.5364 20.4077 9.69826 24.2459C5.69532 24.5807 0 28.2735 0 33.9447C0 41.2185 8.19742 41.2185 9.69826 41.2185C12.1227 41.2185 14.5476 48.4923 24.2459 48.4923C33.9442 48.4923 36.3691 41.2185 38.7936 41.2185C40.2944 41.2185 48.4918 41.2185 48.4918 33.9447C48.4918 28.2735 42.7965 24.5807 38.7936 24.2464C34.9554 20.4083 33.9442 15.4497 33.9442 7.27435V0H14.5471H14.5476Z" fill="url(#paint0_linear_618_3955)"/>
<path d="M39.3581 31.6444C33.4906 31.6444 28.7168 26.8705 28.7168 21.0031C28.7168 15.1356 33.4906 10.3618 39.3581 10.3618C45.2255 10.3618 49.9999 15.1356 49.9999 21.0031C49.9999 26.8705 45.226 31.6444 39.3581 31.6444ZM33.1532 27.7731L33.9215 28.3436C35.5057 29.5196 37.386 30.1414 39.3586 30.1414C44.3974 30.1414 48.4974 26.0419 48.4974 21.0031C48.4974 19.3663 48.0556 17.7574 47.2207 16.3505L46.7326 15.5282L33.1542 27.7731H33.1532ZM39.3581 11.8642C34.3192 11.8642 30.2197 15.9637 30.2197 21.0026C30.2197 22.7332 30.7099 24.4209 31.6377 25.8834L32.1346 26.6669L45.7361 14.4015L45.0072 13.8263C43.3794 12.5422 41.4262 11.8637 39.3581 11.8637V11.8642Z" fill="#D63E3E"/>
</g>
<defs>
<linearGradient id="paint0_linear_618_3955" x1="0" y1="24.2459" x2="48.4918" y2="24.2459" gradientUnits="userSpaceOnUse">
<stop offset="0.02" stop-color="#005EB2"/>
<stop offset="1" stop-color="#0BE5A1"/>
</linearGradient>
<clipPath id="clip0_618_3955">
<rect width="50" height="48.4923" fill="white"/>
</clipPath>
</defs>
</svg>
