<svg width="50" height="49" viewBox="0 0 50 49" fill="none" xmlns="http://www.w3.org/2000/svg">
<mask id="mask0_618_4003" style="mask-type:luminance" maskUnits="userSpaceOnUse" x="3" y="0" width="43" height="49">
<path d="M45.5408 0.0512695H3.57861V48.8446H45.5408V0.0512695Z" fill="white"/>
</mask>
<g mask="url(#mask0_618_4003)">
<path d="M44.0667 45.0893V54.1755H5.72168V45.0893C5.72168 37.1049 12.1953 30.6333 20.1787 30.6333H29.6097C37.5941 30.6333 44.0667 37.1049 44.0667 45.0893Z" fill="url(#paint0_linear_618_4003)"/>
<path d="M19.2685 30.6333H30.4056L30.9487 31.4008L29.1979 34.0688L23.7921 35.3153L19.7504 33.4567L18.7778 31.0948L19.2685 30.6333Z" fill="#1A263C"/>
<path d="M30.5057 31.2387C30.5057 33.0186 27.967 34.4623 24.8366 34.4623C21.7062 34.4623 19.1675 33.0186 19.1675 31.2387C19.1675 31.0327 19.2015 30.8286 19.2666 30.6334C19.5007 30.6334 19.7116 30.5381 19.866 30.3856C20.0186 30.2331 20.1138 30.0203 20.1138 29.7861V22.6305C20.1138 22.5431 20.1857 22.4702 20.2741 22.4702H29.3972C29.4856 22.4702 29.5575 22.5441 29.5575 22.6305V29.7861C29.5575 30.2544 29.9364 30.6334 30.4027 30.6334C30.4057 30.6421 30.4086 30.6518 30.4115 30.6606C30.4707 30.8471 30.5028 31.0414 30.5028 31.2387H30.5057Z" fill="#5B341A"/>
<path d="M33.0422 16.2074C33.0422 22.5508 31.717 27.705 24.6012 27.6933C18.693 27.6836 16.4429 22.5508 16.4429 16.2074L17.3319 14.6053L17.5262 9.42969L29.6815 10.7345L32.1522 14.4887L33.0412 16.2083L33.0422 16.2074Z" fill="#754525"/>
<path d="M16.4846 11.0058C16.4895 10.9689 16.4934 10.9319 16.5012 10.896C16.4856 11.1632 16.4691 11.4294 16.4429 11.6927C16.4429 11.4605 16.4565 11.2312 16.4837 11.0058H16.4846Z" fill="#1A263C"/>
<path d="M17.2476 17.5542C17.2903 17.526 17.3282 17.493 17.3661 17.46C17.3292 17.494 17.2903 17.5251 17.2476 17.5542Z" fill="#1A263C"/>
<path d="M17.6023 17.157C17.7733 16.8539 17.8695 16.4478 17.9802 15.9736C17.8491 16.6275 17.7121 17.1541 17.3662 17.4611C17.4595 17.3756 17.5372 17.2746 17.6033 17.158L17.6023 17.157Z" fill="#1A263C"/>
<path d="M20.6489 13.0996H20.7616C19.7386 13.0996 18.8292 13.6942 18.3657 14.5997C18.7816 13.6962 19.6608 13.0996 20.6489 13.0996Z" fill="#1A263C"/>
<path d="M31.4305 15.5925C31.4548 15.7198 31.4791 15.8432 31.5024 15.9627C31.4762 15.8529 31.4499 15.7383 31.4218 15.6197L31.2916 15.0941C31.2488 14.9183 31.1896 14.7511 31.1157 14.5928C31.2411 14.8328 31.3324 15.096 31.3878 15.3739L31.4305 15.5925Z" fill="#1A263C"/>
<path d="M33.0422 11.6927V17.7563C32.8498 17.7563 32.6846 17.7349 32.5408 17.6921C32.5117 17.6834 32.4845 17.6737 32.4583 17.6649C32.3494 17.6251 32.2562 17.5736 32.1736 17.5085C32.0541 17.4152 31.9598 17.2957 31.8811 17.1568C31.7111 16.8537 31.6149 16.4476 31.5051 15.9734C31.5032 15.9705 31.5032 15.9676 31.5022 15.9627C31.4789 15.8432 31.4546 15.7199 31.4303 15.5926L31.3876 15.374C31.3322 15.0961 31.2409 14.8328 31.1155 14.5928C30.6997 13.6941 29.8214 13.1005 28.8372 13.1005H20.6478C19.6597 13.1005 18.7805 13.697 18.3646 14.6006C18.2422 14.8396 18.1509 15.098 18.0975 15.374L18.0547 15.5926C18.0304 15.7199 18.0061 15.8432 17.9828 15.9627C17.9809 15.9657 17.9809 15.9705 17.9799 15.9734C17.8701 16.4476 17.7739 16.8546 17.602 17.1568C17.5106 17.32 17.397 17.4531 17.2473 17.5542L17.0268 17.664C16.9996 17.6727 16.9714 17.6834 16.9423 17.6912L16.4419 17.7553V11.6917C16.4681 11.4284 16.4846 11.1622 16.5002 10.895C16.6119 8.89164 16.6469 6.89312 20.4788 6.44231C21.0297 6.37624 21.6592 6.34418 22.3782 6.3471L24.7411 6.3335L27.1049 6.3471C27.8239 6.34418 28.4525 6.37624 29.0024 6.44231C32.8411 6.89312 32.8702 8.89845 32.9829 10.9047C32.9984 11.169 33.015 11.4323 33.0412 11.6927H33.0422Z" fill="#1A263C"/>
<path d="M18.0976 15.374C18.151 15.0971 18.2433 14.8386 18.3647 14.6006C18.2928 14.757 18.2345 14.9222 18.1918 15.0941L18.0636 15.6198C18.0344 15.7373 18.0082 15.852 17.9829 15.9627C18.0062 15.8432 18.0305 15.7198 18.0548 15.5926L18.0976 15.374Z" fill="#1A263C"/>
<path d="M31.1156 14.5919C30.6522 13.6913 29.7438 13.0996 28.7236 13.0996H28.8363C29.8215 13.0996 30.6988 13.6932 31.1147 14.5919H31.1156Z" fill="#1A263C"/>
<path d="M31.8823 17.157C31.9367 17.2532 31.9989 17.3397 32.0718 17.4154C31.7609 17.1036 31.6288 16.5964 31.5054 15.9736C31.6152 16.4478 31.7113 16.8548 31.8814 17.157H31.8823Z" fill="#1A263C"/>
<path d="M32.0718 17.4141C32.1048 17.4471 32.1369 17.4792 32.1738 17.5073C32.1369 17.4792 32.1038 17.4471 32.0718 17.4141Z" fill="#1A263C"/>
<path d="M33.0422 11.6927C33.0159 11.4323 32.9994 11.17 32.9839 10.9048C32.9897 10.9388 32.9946 10.9718 32.9994 11.0058C33.0266 11.2303 33.0422 11.4596 33.0422 11.6927Z" fill="#1A263C"/>
<path d="M17.8722 18.8464C17.8722 20.1357 17.8509 21.4269 17.0726 21.4269C16.2944 21.4269 15.0557 20.1357 15.0557 18.8464C15.0557 17.5571 15.6862 16.5117 16.4635 16.5117C17.2407 16.5117 17.8713 17.5571 17.8713 18.8464H17.8722Z" fill="#754525"/>
<path d="M34.4289 18.8464C34.4289 20.1357 33.1989 21.4269 32.4216 21.4269C31.6444 21.4269 31.6133 20.1357 31.6133 18.8464C31.6133 17.5571 32.2438 16.5117 33.0211 16.5117C33.7983 16.5117 34.4289 17.5571 34.4289 18.8464Z" fill="#754525"/>
<path d="M31.4647 32.8125C30.8273 33.9473 29.2213 35.1365 25.336 35.3192C21.6402 35.4921 19.7893 34.3952 18.8624 33.241C17.9113 32.0605 17.9307 30.8189 17.9307 30.8189V30.8169C18.3698 30.7479 18.8158 30.6867 19.2676 30.6333C19.2015 30.8286 19.1685 31.0326 19.1685 31.2386C19.1685 33.0185 21.7052 34.4623 24.8376 34.4623C27.9699 34.4623 30.5067 33.0185 30.5067 31.2386C30.5067 31.0414 30.4747 30.847 30.4154 30.6605C30.4125 30.6518 30.4096 30.642 30.4066 30.6333C30.8866 30.6897 31.3598 30.7557 31.8261 30.8305C31.8825 31.1881 31.932 31.9848 31.4666 32.8125H31.4647Z" fill="white"/>
<path d="M8.44678 49.3908L23.1962 42.4858L23.2098 38.4946L25.8195 36.1123L27.0106 37.4803L26.1002 39.6945L33.1704 37.1334L36.8332 43.1533L29.1073 48.3405L26.3528 48.5183L17.3687 53.5977L8.44678 49.3908Z" fill="#754525"/>
</g>
<path d="M27.6306 24.9486C27.6306 23.5709 26.5133 22.4536 25.1356 22.4536C23.7579 22.4536 22.6406 23.5709 22.6406 24.9486C24.267 24.4502 26.0052 24.4502 27.6306 24.9486Z" fill="#601211"/>
<path d="M20.8901 19.3776C20.7035 19.3776 20.5082 19.3688 20.3032 19.3494L20.3897 18.4361C22.2104 18.609 23.0401 17.8172 23.0751 17.7832L23.728 18.4283C23.6862 18.4711 22.7749 19.3785 20.8901 19.3785V19.3776Z" fill="#1A263C"/>
<path d="M29.2653 19.3573C27.4659 19.3573 26.575 18.5081 26.5342 18.4683L27.1725 17.8096C27.2075 17.8426 28.0547 18.616 29.8715 18.4042L29.9774 19.3155C29.7258 19.3447 29.4887 19.3583 29.2653 19.3583V19.3573Z" fill="#1A263C"/>
<path d="M45.0655 26.4557L34.3413 35.0502L41.6971 23.4409L45.0655 26.4557Z" fill="#FFD217"/>
<path d="M49.7933 34.028L36.272 36.4899L48.2631 29.7754L49.7933 34.028Z" fill="#FFD217"/>
<path d="M49.6115 42.2837L36.5205 38.0991L50.2614 37.8115L49.6115 42.2837Z" fill="#FFD217"/>
<defs>
<linearGradient id="paint0_linear_618_4003" x1="5.72168" y1="42.4049" x2="44.0667" y2="42.4049" gradientUnits="userSpaceOnUse">
<stop offset="0.02" stop-color="#005EB2"/>
<stop offset="1" stop-color="#0BE5A1"/>
</linearGradient>
</defs>
</svg>
