<svg width="50" height="51" viewBox="0 0 50 51" fill="none" xmlns="http://www.w3.org/2000/svg">
<mask id="mask0_618_4042" style="mask-type:luminance" maskUnits="userSpaceOnUse" x="3" y="0" width="44" height="51">
<path d="M46.8621 0H3.53809V50.377H46.8621V0Z" fill="white"/>
</mask>
<g mask="url(#mask0_618_4042)">
<path d="M45.341 46.4997V55.8817H5.75098V46.4997C5.75098 38.2567 12.434 31.5747 20.677 31.5747H30.414C38.657 31.5747 45.34 38.2567 45.34 46.4997H45.341Z" fill="url(#paint0_linear_618_4042)"/>
<path d="M19.737 31.5747H31.236L31.797 32.3677L29.989 35.1217L24.407 36.4087L20.234 34.4907L19.23 32.0517L19.737 31.5747Z" fill="#1A263C"/>
<path d="M31.3388 32.201C31.3388 34.039 28.7178 35.529 25.4858 35.529C22.2538 35.529 19.6328 34.039 19.6328 32.201C19.6328 31.988 19.6678 31.778 19.7358 31.576C19.9778 31.576 20.1948 31.478 20.3548 31.32C20.5128 31.162 20.6108 30.943 20.6108 30.701V23.3139C20.6108 23.2239 20.6848 23.1479 20.7768 23.1479H30.1958C30.2878 23.1479 30.3618 23.2239 30.3618 23.3139V30.701C30.3618 31.184 30.7538 31.576 31.2348 31.576C31.2378 31.585 31.2408 31.595 31.2438 31.604C31.3058 31.797 31.3388 31.997 31.3388 32.201Z" fill="#5B341A"/>
<path d="M33.9578 16.6806C33.9578 23.2306 32.5898 28.5516 25.2428 28.5396C19.1428 28.5296 16.8198 23.2306 16.8198 16.6806L17.7378 15.0256L17.9388 9.68262L30.4888 11.0296L33.0398 14.9056L33.9578 16.6806Z" fill="#754525"/>
<path d="M16.8628 11.3108C16.8678 11.2728 16.8718 11.2348 16.8798 11.1968C16.8638 11.4728 16.8468 11.7478 16.8198 12.0198C16.8198 11.7798 16.8338 11.5428 16.8628 11.3108Z" fill="#1A263C"/>
<path d="M17.6509 18.0706C17.6949 18.0416 17.7339 18.0076 17.7729 17.9736C17.7349 18.0086 17.6949 18.0416 17.6509 18.0706Z" fill="#1A263C"/>
<path d="M18.0169 17.661C18.1939 17.348 18.293 16.928 18.407 16.439C18.272 17.114 18.1299 17.657 17.7729 17.974C17.8689 17.886 17.9489 17.782 18.0169 17.661Z" fill="#1A263C"/>
<path d="M21.1622 13.4717H21.2792C20.2232 13.4717 19.2832 14.0857 18.8052 15.0207C19.2342 14.0877 20.1422 13.4717 21.1622 13.4717Z" fill="#1A263C"/>
<path d="M32.2952 16.0457C32.3202 16.1767 32.3462 16.3047 32.3692 16.4277C32.3422 16.3137 32.3152 16.1957 32.2852 16.0737L32.1512 15.5307C32.1072 15.3487 32.0452 15.1767 31.9692 15.0127C32.0982 15.2607 32.1932 15.5317 32.2502 15.8197L32.2942 16.0457H32.2952Z" fill="#1A263C"/>
<path d="M33.9592 12.0198V18.2798C33.7602 18.2798 33.5902 18.2578 33.4412 18.2138C33.4112 18.2048 33.3832 18.1948 33.3562 18.1858C33.2442 18.1448 33.1482 18.0908 33.0622 18.0248C32.9392 17.9288 32.8412 17.8058 32.7602 17.6618C32.5852 17.3488 32.4852 16.9288 32.3722 16.4398C32.3702 16.4368 32.3702 16.4338 32.3692 16.4288C32.3452 16.3058 32.3202 16.1778 32.2952 16.0468L32.2512 15.8208C32.1942 15.5338 32.0992 15.2618 31.9702 15.0138C31.5412 14.0858 30.6342 13.4728 29.6182 13.4728H21.1632C20.1432 13.4728 19.2352 14.0888 18.8062 15.0218C18.6802 15.2678 18.5852 15.5348 18.5302 15.8208L18.4862 16.0468C18.4612 16.1778 18.4352 16.3058 18.4122 16.4288C18.4102 16.4318 18.4102 16.4368 18.4092 16.4398C18.2952 16.9288 18.1962 17.3488 18.0192 17.6618C17.9242 17.8308 17.8072 17.9678 17.6532 18.0718L17.4262 18.1858C17.3982 18.1948 17.3692 18.2068 17.3392 18.2138L16.8232 18.2798V12.0198C16.8502 11.7478 16.8672 11.4738 16.8832 11.1968C16.9982 9.12882 17.0352 7.06482 20.9912 6.59882C21.5592 6.53082 22.2102 6.49782 22.9522 6.50082L25.3912 6.48682L27.8322 6.50082C28.5742 6.49782 29.2232 6.53082 29.7912 6.59882C33.7542 7.06482 33.7842 9.13482 33.9012 11.2058C33.9172 11.4788 33.9342 11.7508 33.9612 12.0188L33.9592 12.0198Z" fill="#1A263C"/>
<path d="M18.5292 15.82C18.5842 15.534 18.6792 15.267 18.8052 15.021C18.7312 15.182 18.6712 15.353 18.6272 15.531L18.4942 16.074C18.4642 16.196 18.4372 16.314 18.4102 16.428C18.4342 16.305 18.4592 16.177 18.4842 16.046L18.5282 15.82H18.5292Z" fill="#1A263C"/>
<path d="M31.969 15.0127C31.491 14.0827 30.553 13.4717 29.5 13.4717H29.617C30.634 13.4717 31.54 14.0847 31.969 15.0127Z" fill="#1A263C"/>
<path d="M32.7601 17.661C32.8161 17.761 32.8811 17.85 32.9561 17.927C32.6351 17.605 32.4991 17.082 32.3721 16.439C32.4861 16.928 32.5851 17.348 32.7601 17.661Z" fill="#1A263C"/>
<path d="M32.9561 17.9268C32.9901 17.9608 33.0241 17.9948 33.0621 18.0238C33.0241 17.9938 32.9901 17.9618 32.9561 17.9268Z" fill="#1A263C"/>
<path d="M33.9589 12.02C33.9319 11.752 33.9149 11.48 33.8989 11.207C33.9049 11.242 33.9099 11.276 33.9149 11.311C33.9429 11.543 33.9589 11.78 33.9589 12.02Z" fill="#1A263C"/>
<path d="M18.2962 19.4046C18.2962 20.7356 18.2732 22.0696 17.4712 22.0696C16.6692 22.0696 15.3892 20.7366 15.3892 19.4046C15.3892 18.0726 16.0402 16.9946 16.8432 16.9946C17.6462 16.9946 18.2972 18.0736 18.2972 19.4046H18.2962Z" fill="#754525"/>
<path d="M35.3899 19.4046C35.3899 20.7356 34.1199 22.0696 33.3169 22.0696C32.5139 22.0696 32.4819 20.7366 32.4819 19.4046C32.4819 18.0726 33.1329 16.9946 33.9359 16.9946C34.7389 16.9946 35.3899 18.0736 35.3899 19.4046Z" fill="#754525"/>
<path d="M32.329 33.8247C31.671 34.9967 30.013 36.2247 26.001 36.4127C22.185 36.5907 20.275 35.4587 19.318 34.2667C18.336 33.0477 18.356 31.7657 18.356 31.7657V31.7637C18.809 31.6927 19.27 31.6297 19.736 31.5747C19.668 31.7767 19.633 31.9867 19.633 32.1997C19.633 34.0377 22.252 35.5277 25.486 35.5277C28.72 35.5277 31.339 34.0377 31.339 32.1997C31.339 31.9957 31.306 31.7957 31.244 31.6027C31.241 31.5937 31.238 31.5837 31.235 31.5747C31.731 31.6327 32.219 31.7007 32.7 31.7787C32.758 32.1477 32.809 32.9707 32.329 33.8247Z" fill="white"/>
<path d="M6.34082 51.2149L17.7088 38.8259L16.1528 35.0099L17.7088 31.7099L19.3838 32.5479V35.0189L25.1278 29.7949L30.9908 34.1029L25.6528 42.0919L23.0938 43.3449L16.5118 51.7249L6.34082 51.2149Z" fill="#754525"/>
</g>
<path d="M28.3712 25.7059C28.3712 24.2829 27.2182 23.1299 25.7952 23.1299C24.3722 23.1299 23.2192 24.2829 23.2192 25.7059C24.8982 25.1919 26.6922 25.1919 28.3712 25.7059Z" fill="#601211"/>
<path d="M21.4122 19.9541C21.2202 19.9541 21.0182 19.9451 20.8062 19.9251L20.8952 18.9821C22.7752 19.1601 23.6322 18.3431 23.6682 18.3081L24.3422 18.9741C24.2992 19.0181 23.3582 19.9551 21.4122 19.9551V19.9541Z" fill="#1A263C"/>
<path d="M30.0593 19.933C28.2013 19.933 27.2823 19.057 27.2393 19.015L27.8983 18.335C27.9343 18.369 28.8093 19.167 30.6853 18.949L30.7953 19.89C30.5353 19.92 30.2903 19.934 30.0603 19.934L30.0593 19.933Z" fill="#1A263C"/>
<defs>
<linearGradient id="paint0_linear_618_4042" x1="5.75098" y1="43.7287" x2="45.341" y2="43.7287" gradientUnits="userSpaceOnUse">
<stop offset="0.02" stop-color="#005EB2"/>
<stop offset="1" stop-color="#0BE5A1"/>
</linearGradient>
</defs>
</svg>
