<svg width="45" height="51" viewBox="0 0 45 51" fill="none" xmlns="http://www.w3.org/2000/svg">
<mask id="mask0_618_4073" style="mask-type:luminance" maskUnits="userSpaceOnUse" x="0" y="0" width="45" height="51">
<path d="M44.2811 0H0.51709V50.889H44.2811V0Z" fill="white"/>
</mask>
<g mask="url(#mask0_618_4073)">
<path d="M42.744 46.973V56.45H2.75195V46.973C2.75195 38.646 9.50295 31.896 17.83 31.896H27.666C35.993 31.896 42.744 38.646 42.744 46.973Z" fill="url(#paint0_linear_618_4073)"/>
<path d="M16.8801 31.896H28.4961L29.0631 32.696L27.2371 35.479L21.5981 36.779L17.3831 34.841L16.3691 32.378L16.8801 31.896Z" fill="#1A263C"/>
<path d="M28.6009 32.5283C28.6009 34.3843 25.9529 35.8903 22.6889 35.8903C19.4249 35.8903 16.7769 34.3843 16.7769 32.5283C16.7769 32.3133 16.8119 32.1013 16.8809 31.8963C17.1249 31.8963 17.3449 31.7973 17.5059 31.6383C17.6649 31.4793 17.7639 31.2573 17.7639 31.0133V23.5503C17.7639 23.4593 17.8389 23.3833 17.9309 23.3833H27.4459C27.5379 23.3833 27.6129 23.4603 27.6129 23.5503V31.0133C27.6129 31.5013 28.0089 31.8973 28.4949 31.8973C28.4979 31.9073 28.5009 31.9163 28.5049 31.9263C28.5669 32.1213 28.6009 32.3233 28.6009 32.5293V32.5283Z" fill="#5B341A"/>
<path d="M31.2461 16.8512C31.2461 23.4672 29.8641 28.8432 22.4421 28.8302C16.2801 28.8202 13.9331 23.4672 13.9331 16.8512L14.8601 15.1802L15.0631 9.78223L27.7411 11.1432L30.3181 15.0582L31.2451 16.8512H31.2461Z" fill="#754525"/>
<path d="M13.9771 11.426C13.9821 11.388 13.9871 11.349 13.9951 11.311C13.9791 11.59 13.9621 11.868 13.9341 12.142C13.9341 11.9 13.9481 11.66 13.9771 11.426Z" fill="#1A263C"/>
<path d="M14.7729 18.2552C14.8179 18.2262 14.857 18.1922 14.896 18.1572C14.858 18.1922 14.8169 18.2252 14.7729 18.2552Z" fill="#1A263C"/>
<path d="M15.143 17.84C15.322 17.524 15.422 17.1 15.537 16.606C15.4 17.288 15.257 17.837 14.896 18.157C14.993 18.068 15.074 17.963 15.143 17.84Z" fill="#1A263C"/>
<path d="M18.32 13.6094H18.438C17.371 13.6094 16.422 14.2294 15.939 15.1744C16.373 14.2314 17.29 13.6094 18.32 13.6094Z" fill="#1A263C"/>
<path d="M29.5658 16.209C29.5918 16.341 29.6168 16.471 29.6408 16.595C29.6138 16.48 29.5868 16.361 29.5558 16.238L29.4198 15.689C29.3748 15.506 29.3128 15.332 29.2368 15.166C29.3678 15.416 29.4628 15.691 29.5208 15.981L29.5658 16.209Z" fill="#1A263C"/>
<path d="M31.2471 12.1422V18.4662C31.0461 18.4662 30.8741 18.4442 30.7241 18.3992C30.6941 18.3892 30.6651 18.3802 30.6381 18.3702C30.5251 18.3292 30.4271 18.2742 30.3411 18.2072C30.2171 18.1102 30.1181 17.9852 30.0361 17.8402C29.8591 17.5242 29.7581 17.1002 29.6441 16.6062C29.6421 16.6032 29.6421 16.6002 29.6411 16.5952C29.6171 16.4712 29.5921 16.3412 29.5661 16.2092L29.5211 15.9812C29.4641 15.6912 29.3681 15.4162 29.2371 15.1662C28.8031 14.2282 27.8881 13.6092 26.8611 13.6092H18.3201C17.2901 13.6092 16.3731 14.2312 15.9391 15.1742C15.8111 15.4232 15.7161 15.6922 15.6601 15.9812L15.6151 16.2092C15.5891 16.3412 15.5641 16.4712 15.5401 16.5952C15.5381 16.5982 15.5381 16.6032 15.5371 16.6062C15.4221 17.1002 15.3221 17.5252 15.1431 17.8402C15.0471 18.0112 14.9291 18.1492 14.7731 18.2552L14.5431 18.3702C14.5141 18.3802 14.4861 18.3912 14.4551 18.3992L13.9331 18.4662V12.1422C13.9601 11.8682 13.9781 11.5902 13.9941 11.3112C14.1101 9.2222 14.1471 7.1372 18.1441 6.6672C18.7181 6.5982 19.3751 6.5652 20.1251 6.5682L22.5891 6.5542L25.0551 6.5682C25.8051 6.5652 26.4601 6.5982 27.0341 6.6672C31.0371 7.1372 31.0671 9.2282 31.1861 11.3212C31.2021 11.5972 31.2191 11.8712 31.2471 12.1422Z" fill="#1A263C"/>
<path d="M15.66 15.9813C15.716 15.6923 15.812 15.4233 15.939 15.1743C15.864 15.3373 15.803 15.5093 15.759 15.6893L15.625 16.2383C15.595 16.3613 15.568 16.4803 15.54 16.5953C15.564 16.4713 15.589 16.3413 15.615 16.2093L15.66 15.9813Z" fill="#1A263C"/>
<path d="M29.2372 15.1664C28.7542 14.2274 27.8062 13.6094 26.7432 13.6094H26.8612C27.8882 13.6094 28.8042 14.2284 29.2372 15.1664Z" fill="#1A263C"/>
<path d="M30.036 17.84C30.092 17.941 30.158 18.03 30.234 18.109C29.909 17.784 29.772 17.255 29.644 16.606C29.759 17.1 29.859 17.525 30.036 17.84Z" fill="#1A263C"/>
<path d="M30.2339 18.1094C30.2679 18.1434 30.3019 18.1774 30.3409 18.2074C30.3029 18.1774 30.2679 18.1444 30.2339 18.1094Z" fill="#1A263C"/>
<path d="M31.247 12.1423C31.22 11.8713 31.202 11.5973 31.186 11.3213C31.192 11.3563 31.197 11.3913 31.202 11.4263C31.231 11.6603 31.247 11.9003 31.247 12.1423Z" fill="#1A263C"/>
<path d="M15.4248 19.603C15.4248 20.948 15.4018 22.295 14.5908 22.295C13.7798 22.295 12.4878 20.948 12.4878 19.603C12.4878 18.258 13.1448 17.168 13.9558 17.168C14.7668 17.168 15.4238 18.258 15.4238 19.603H15.4248Z" fill="#754525"/>
<path d="M32.6929 19.603C32.6929 20.948 31.4099 22.295 30.5989 22.295C29.7879 22.295 29.7559 20.948 29.7559 19.603C29.7559 18.258 30.4129 17.168 31.2239 17.168C32.0349 17.168 32.6919 18.258 32.6919 19.603H32.6929Z" fill="#754525"/>
<path d="M29.6009 34.169C28.9359 35.352 27.2608 36.593 23.2089 36.783C19.3539 36.963 17.4239 35.82 16.4579 34.616C15.4659 33.385 15.4869 32.09 15.4869 32.09V32.088C15.9449 32.016 16.4099 31.952 16.8809 31.897C16.8119 32.101 16.7769 32.313 16.7769 32.529C16.7769 34.385 19.4229 35.891 22.6889 35.891C25.9549 35.891 28.6009 34.385 28.6009 32.529C28.6009 32.323 28.5679 32.121 28.5049 31.926C28.5019 31.916 28.4989 31.907 28.4949 31.897C28.9959 31.956 29.4889 32.025 29.9749 32.103C30.0339 32.476 30.0849 33.307 29.5999 34.17L29.6009 34.169Z" fill="white"/>
</g>
<path d="M25.6019 25.9672C25.6019 24.5302 24.4369 23.3652 22.9999 23.3652C21.5629 23.3652 20.3979 24.5302 20.3979 25.9672C22.0939 25.4472 23.9069 25.4472 25.6029 25.9672H25.6019Z" fill="#601211"/>
<path d="M19.5032 21.0742C18.6962 21.0742 17.9222 20.5532 17.5842 19.9012C17.4632 19.6672 17.1052 18.8402 17.5902 18.0512C18.1082 17.2092 19.1202 17.1982 19.1692 17.1982V17.5272C19.1292 17.5272 18.2942 17.5362 17.8712 18.2242C17.4762 18.8662 17.7762 19.5552 17.8772 19.7512C18.2422 20.4562 19.2022 20.9822 20.0502 20.6422C20.4412 20.4862 20.9242 20.0792 21.0002 19.4472C21.0012 19.4372 21.1052 18.5132 20.4172 18.1142C19.9532 17.8452 19.3052 17.9302 18.9402 18.3082C18.8642 18.3862 18.4962 18.7982 18.6602 19.2132C18.7612 19.4672 19.0302 19.6522 19.3162 19.6632C19.5652 19.6742 19.9382 19.5522 19.9782 19.3032C20.0042 19.1452 19.9002 18.9582 19.7142 18.8272L19.9022 18.5582C20.1952 18.7632 20.3482 19.0692 20.3022 19.3552C20.2272 19.8162 19.6742 20.0042 19.3042 19.9912C18.8862 19.9762 18.5042 19.7122 18.3552 19.3342C18.1222 18.7472 18.5642 18.2262 18.7042 18.0802C19.1772 17.5912 19.9842 17.4842 20.5822 17.8312C21.4562 18.3382 21.3332 19.4412 21.3272 19.4872C21.2342 20.2622 20.6472 20.7582 20.1732 20.9482C19.9542 21.0362 19.7282 21.0762 19.5052 21.0762L19.5032 21.0742Z" fill="#1A263C"/>
<path d="M26.1541 21.0742C25.3471 21.0742 24.5731 20.5532 24.2351 19.9012C24.1141 19.6672 23.7561 18.8402 24.2411 18.0512C24.7591 17.2092 25.7711 17.1982 25.8201 17.1982V17.5272C25.7801 17.5272 24.9451 17.5362 24.5221 18.2242C24.1271 18.8662 24.4271 19.5552 24.5281 19.7512C24.8931 20.4562 25.8531 20.9822 26.7011 20.6422C27.0921 20.4862 27.5751 20.0792 27.6511 19.4472C27.6521 19.4372 27.7561 18.5132 27.0681 18.1142C26.6051 17.8452 25.9561 17.9302 25.5911 18.3082C25.5151 18.3862 25.1471 18.7982 25.3111 19.2132C25.4121 19.4672 25.6811 19.6522 25.9671 19.6632C26.2191 19.6742 26.5891 19.5522 26.6291 19.3032C26.6551 19.1452 26.5511 18.9582 26.3651 18.8272L26.5531 18.5582C26.8461 18.7632 26.9991 19.0692 26.9531 19.3552C26.8781 19.8162 26.3291 20.0042 25.9551 19.9912C25.5371 19.9762 25.1551 19.7122 25.0061 19.3342C24.7731 18.7472 25.2151 18.2262 25.3551 18.0802C25.8281 17.5912 26.6351 17.4842 27.2331 17.8312C28.1071 18.3382 27.9841 19.4412 27.9781 19.4872C27.8851 20.2622 27.2981 20.7582 26.8241 20.9482C26.6051 21.0362 26.3791 21.0762 26.1561 21.0762L26.1541 21.0742Z" fill="#1A263C"/>
<defs>
<linearGradient id="paint0_linear_618_4073" x1="2.75195" y1="44.173" x2="42.744" y2="44.173" gradientUnits="userSpaceOnUse">
<stop offset="0.02" stop-color="#005EB2"/>
<stop offset="1" stop-color="#0BE5A1"/>
</linearGradient>
</defs>
</svg>
