<svg width="88" height="88" viewBox="0 0 88 88" fill="none" xmlns="http://www.w3.org/2000/svg">
<rect width="88" height="88" rx="44" fill="#E0EFFF"/>
<path d="M76.922 46H81.0774C82.1998 46 83.0838 46.9515 82.9931 48.0627L80.5866 77.6365C80.5062 78.6283 79.6723 79.3921 78.6709 79.3921C77.6533 79.3921 76.8121 78.6041 76.7523 77.5947L75.0034 48.0209C74.9384 46.9243 75.8159 46 76.922 46ZM78.1507 82.9355H79.1174C80.1786 82.9355 81.039 83.7902 81.039 84.8443V86.0905C81.039 87.1446 80.1786 87.9993 79.1174 87.9993H78.1507C77.0895 87.9993 76.2291 87.1446 76.2291 86.0905V84.8443C76.2291 83.7902 77.0895 82.9355 78.1507 82.9355Z" fill="#D7494A"/>
<g clip-path="url(#clip0_687_136)">
<path d="M75.0001 55.9664C74.6865 57.3195 74.1408 58.5349 73.0153 59.4177C72.2793 59.995 71.4696 60.4048 70.5339 60.4997C70.0941 60.5443 69.8615 60.6967 69.716 61.1649C68.8269 64.0296 66.1399 65.9964 63.1858 65.9995C60.2381 66.0025 57.5575 64.0261 56.6372 61.173C56.5804 60.9971 56.5169 60.8237 56.452 60.6357H30.0567C28.9909 63.9931 26.748 65.9952 23.2043 65.951C19.7762 65.908 17.6028 63.9304 16.5584 60.6134C15.3472 60.6134 14.1218 60.6156 12.8961 60.613C11.6093 60.61 11.0158 59.9993 11.0158 58.6761C11.015 49.7739 11.0414 40.8713 11.0001 31.9691C10.9868 29.1288 13.0382 26.9903 15.9317 27.0058C25.4271 27.056 34.9226 27.0246 44.4185 27.0246C44.6838 27.0246 44.9492 27.0246 45.2939 27.0246C45.2939 26.0624 45.2935 25.1681 45.2939 24.2737C45.2952 22.6961 45.8289 22.151 47.3717 22.1506C49.4333 22.1506 51.4948 22.148 53.5564 22.1514C54.7454 22.1536 55.3713 22.7755 55.3782 23.9574C55.3833 24.8998 55.3888 25.8427 55.3739 26.7852C55.3692 27.0894 55.4191 27.2778 55.7536 27.3821C56.7895 27.7053 57.6308 28.3319 58.3954 29.1022C63.1619 33.9055 67.9408 38.6963 72.7196 43.4866C73.8741 44.6441 74.6387 45.9994 74.8921 47.6315C74.9075 47.7311 74.9625 47.8242 74.9992 47.9208V55.966L75.0001 55.9664ZM27.1905 42.1905C28.0698 42.1905 28.839 42.2081 29.6066 42.1863C30.6105 42.1571 31.2274 41.5258 31.2453 40.5168C31.2611 39.6374 31.2555 38.7572 31.2474 37.8774C31.2368 36.732 30.6053 36.108 29.4589 36.1015C28.72 36.0972 27.981 36.1007 27.1896 36.1007C27.1896 35.2359 27.2062 34.4634 27.1853 33.6918C27.1576 32.6605 26.5637 32.0613 25.5427 32.039C24.6267 32.0193 23.7099 32.0197 22.7943 32.039C21.7503 32.0613 21.147 32.6905 21.1359 33.7424C21.1278 34.5102 21.1342 35.2784 21.1342 36.0183C21.0237 36.0612 20.987 36.0878 20.9495 36.0878C20.2208 36.0938 19.492 36.0908 18.7638 36.102C17.7517 36.1174 17.1271 36.7221 17.1024 37.7358C17.0823 38.5521 17.0956 39.3696 17.0968 40.1863C17.0994 41.6519 17.6306 42.1884 19.082 42.1927C19.757 42.1948 20.4319 42.1927 21.1342 42.1927C21.1342 43.0613 21.1274 43.8145 21.1359 44.5673C21.1474 45.6003 21.7801 46.2518 22.8062 46.2706C23.6595 46.2865 24.5137 46.2784 25.3674 46.2732C26.559 46.2663 27.1725 45.6595 27.1883 44.4656C27.1981 43.7377 27.19 43.0094 27.19 42.1897L27.1905 42.1905ZM56.1734 42.1468C58.1492 42.1468 60.1255 42.142 62.1013 42.1502C62.5441 42.1519 62.9302 42.0931 63.1354 41.6305C63.3445 41.1588 63.1094 40.8309 62.8005 40.5202C60.4322 38.1388 58.0622 35.759 55.6981 33.3737C55.2472 32.9188 54.7267 32.6957 54.0807 32.7034C52.6459 32.7205 51.2107 32.706 49.7754 32.7098C48.9085 32.712 48.6687 32.9497 48.6661 33.8334C48.6606 36.0303 48.6585 38.2272 48.6666 40.4237C48.6713 41.6352 49.1794 42.1429 50.3702 42.1455C52.3046 42.1502 54.239 42.1468 56.173 42.1468H56.1734ZM19.5065 59.0654C19.5104 61.1748 21.2328 62.8936 23.3323 62.8828C25.3904 62.8725 27.1051 61.1529 27.1243 59.0804C27.1435 57.0007 25.3934 55.2269 23.3156 55.2209C21.2323 55.2149 19.5027 56.9603 19.5065 59.0654ZM63.1777 62.8833C65.2665 62.8871 67.0038 61.1421 66.9962 59.0478C66.9885 56.9543 65.2303 55.202 63.1585 55.2222C61.0944 55.2424 59.3908 56.9612 59.3784 59.0358C59.366 61.1391 61.085 62.8794 63.1777 62.8833ZM52.2513 25.3144H48.4225V26.9856H52.2513V25.3144Z" fill="url(#paint0_linear_687_136)"/>
<path d="M51.8817 16.7445C51.8817 17.4359 51.8936 18.1273 51.8787 18.8183C51.8591 19.7281 51.2157 20.4075 50.3803 20.4263C49.533 20.4457 48.8324 19.8156 48.8068 18.8981C48.7663 17.4539 48.768 16.0068 48.8051 14.5626C48.8282 13.6562 49.5475 12.9842 50.3632 13C51.2118 13.0168 51.8629 13.7253 51.8791 14.6703C51.8911 15.3613 51.8812 16.0531 51.8812 16.7441L51.8817 16.7445Z" fill="url(#paint1_linear_687_136)"/>
<path d="M39.3435 17.6761C39.355 16.862 39.6046 16.374 40.1661 16.1118C40.7305 15.8487 41.3381 15.8401 41.8023 16.2783C42.8156 17.2349 43.8058 18.2194 44.753 19.2417C45.3025 19.8348 45.1997 20.7979 44.6322 21.3382C44.0818 21.8622 43.1624 21.9219 42.5894 21.3794C41.5928 20.4352 40.6277 19.4554 39.6899 18.452C39.4685 18.2151 39.4071 17.8263 39.3435 17.6761Z" fill="url(#paint2_linear_687_136)"/>
<path d="M60.3851 15.9475C61.1697 15.969 61.6518 16.2239 61.9091 16.7917C62.1672 17.3612 62.1685 17.9697 61.7342 18.4341C60.7819 19.4525 59.7989 20.4448 58.7856 21.4018C58.2386 21.9181 57.3299 21.8516 56.7915 21.3559C56.2368 20.8456 56.0879 19.883 56.605 19.3148C57.5709 18.2539 58.6 17.2487 59.6389 16.2591C59.8578 16.0505 60.2332 16.0076 60.3851 15.9479V15.9475Z" fill="url(#paint3_linear_687_136)"/>
</g>
<defs>
<linearGradient id="paint0_linear_687_136" x1="11.0001" y1="44.0746" x2="75.0001" y2="44.0746" gradientUnits="userSpaceOnUse">
<stop offset="0.02" stop-color="#005EB2"/>
<stop offset="1" stop-color="#0BFFA1"/>
</linearGradient>
<linearGradient id="paint1_linear_687_136" x1="48.777" y1="16.7136" x2="51.8859" y2="16.7136" gradientUnits="userSpaceOnUse">
<stop offset="0.02" stop-color="#005EB2"/>
<stop offset="1" stop-color="#0BFFA1"/>
</linearGradient>
<linearGradient id="paint2_linear_687_136" x1="39.3435" y1="18.8443" x2="45.1156" y2="18.8443" gradientUnits="userSpaceOnUse">
<stop offset="0.02" stop-color="#005EB2"/>
<stop offset="1" stop-color="#0BFFA1"/>
</linearGradient>
<linearGradient id="paint3_linear_687_136" x1="56.2867" y1="18.853" x2="62.0853" y2="18.853" gradientUnits="userSpaceOnUse">
<stop offset="0.02" stop-color="#005EB2"/>
<stop offset="1" stop-color="#0BFFA1"/>
</linearGradient>
<clipPath id="clip0_687_136">
<rect width="64" height="53" fill="white" transform="translate(11 13)"/>
</clipPath>
</defs>
</svg>
