<svg width="46" height="48" viewBox="0 0 46 48" fill="none" xmlns="http://www.w3.org/2000/svg">
<g clip-path="url(#clip0_616_3638)">
<path d="M41.8395 36.2728V45.2611C41.7863 45.3437 41.7099 45.4194 41.6854 45.5089C41.3076 46.8805 40.0681 47.8968 38.6703 47.9684C37.1499 48.0469 35.6267 47.9726 34.1185 47.7316C32.6566 47.4975 31.1866 47.2923 29.7398 46.9797C27.5198 46.4977 25.3584 45.7885 23.2952 44.83C21.6847 44.0823 20.0974 43.2656 18.5729 42.354C17.2815 41.5828 16.0515 40.6877 14.8733 39.7458C13.5696 38.7047 12.3151 37.5934 11.1164 36.4297C10.2382 35.576 9.42958 34.6326 8.68912 33.6521C7.55456 32.1497 6.42955 30.6294 5.44091 29.0279C4.38135 27.3134 3.48407 25.4942 2.78179 23.5911C2.39179 22.5335 1.9786 21.48 1.67451 20.3962C1.28314 19.004 0.947681 17.5911 0.666769 16.1713C0.448585 15.0696 0.339494 13.9459 0.199038 12.8291C0.144492 12.3995 0.140401 11.9629 0.106309 11.5305C0.0163085 10.3944 -0.117329 9.25554 0.19631 8.13459C0.493586 7.0756 1.16723 6.35952 2.19815 5.98632C2.37815 5.9216 2.54861 5.83346 2.72315 5.75635C5.66318 5.75635 8.60321 5.75635 11.5419 5.75635C12.1201 6.05242 12.7569 6.27138 13.2642 6.6611C14.0864 7.29318 14.3442 8.24338 14.4028 9.25968C14.471 10.4495 14.486 11.6503 14.6674 12.8236C14.8528 14.0258 15.1951 15.206 15.5033 16.3875C15.6751 17.0485 15.7637 17.6999 15.6656 18.3815C15.5306 19.3249 14.8869 19.9666 14.3605 20.6758C13.4087 21.9565 12.4432 23.2275 11.4832 24.5027C11.3496 24.6804 11.3251 24.8374 11.4614 25.0508C12.2769 26.3164 13.046 27.6136 13.8887 28.8626C14.9865 30.489 16.3528 31.8674 17.8515 33.1275C19.3624 34.3985 21.0206 35.4369 22.717 36.4201C22.8329 36.4876 23.0702 36.4835 23.1738 36.4077C24.2225 35.6283 25.2575 34.8282 26.2938 34.0308C26.9266 33.5434 27.5225 32.9967 28.1961 32.5753C29.148 31.9804 30.1775 32.0657 31.2343 32.348C32.5803 32.7088 33.9371 33.0531 35.3089 33.279C36.4298 33.4635 37.5794 33.4773 38.7167 33.5434C39.899 33.6136 40.7717 34.1686 41.3458 35.2014C41.5354 35.5429 41.6758 35.912 41.8395 36.2686V36.2728Z" fill="url(#paint0_linear_616_3638)"/>
<path d="M38.7972 0H31.593V14.3356H38.7972V0Z" fill="#42DB9C"/>
<path d="M35.1414 7.16788H38.796V14.3357H35.1414C33.1832 14.3357 31.5918 12.73 31.5918 10.7511C31.5918 8.77357 33.1818 7.1665 35.1414 7.1665V7.16788Z" fill="#1A263C"/>
<path d="M38.7973 14.3369C36.8077 14.3369 35.0077 15.1398 33.704 16.437C32.4004 17.7342 31.5945 19.5258 31.5945 21.5061V14.3383H38.7986L38.7973 14.3369Z" fill="#1A263C"/>
<path d="M38.7972 14.3368V21.5046H31.593C31.593 19.5257 32.3989 17.7327 33.7026 16.4355C35.0062 15.1383 36.8063 14.3354 38.7958 14.3354L38.7972 14.3368Z" fill="#42DB9C"/>
<path d="M38.7974 7.16797H42.4519C44.4101 7.16797 46.0015 8.77366 46.0015 10.7525C46.0015 12.7301 44.4115 14.3371 42.4519 14.3371H38.7974V7.16935V7.16797Z" fill="#007AFF"/>
<path d="M24.3889 7.16797H24.4953C28.413 7.16797 31.5931 10.3794 31.5931 14.3357H24.3889V7.16797Z" fill="#007AFF"/>
</g>
<defs>
<linearGradient id="paint0_linear_616_3638" x1="-5.52595e-05" y1="26.881" x2="41.8394" y2="26.881" gradientUnits="userSpaceOnUse">
<stop offset="0.02" stop-color="#005EB2"/>
<stop offset="1" stop-color="#0BE5A1"/>
</linearGradient>
<clipPath id="clip0_616_3638">
<rect width="46" height="48" fill="white"/>
</clipPath>
</defs>
</svg>
