<svg width="61" height="71" viewBox="0 0 61 71" fill="none" xmlns="http://www.w3.org/2000/svg">
<path d="M39.3084 10.8306C20.55 2.59803 6.65211 26.1022 8.87418 38.2418C9.19758 40.008 9.47422 41.7825 9.66737 43.5676C14.8446 91.3932 68.9562 64.9254 59.4868 44.2979C57.1762 39.2637 55.0889 34.1322 53.395 28.8587C51.2537 22.1925 47.3172 14.3462 39.3073 10.8306H39.3084Z" fill="url(#paint0_linear_611_2961)"/>
<path d="M40.2118 24.1931C40.6894 25.7355 41.1391 27.2156 41.4536 28.5659C32.5164 26.6779 25.986 23.1967 23.1255 21.465C23.347 21.2296 23.5563 21.0336 23.7378 20.8767C23.9588 20.6841 24.1374 20.5499 24.2421 20.4737C25.5824 19.4968 26.0261 19.8313 27.849 18.6385C29.0313 17.8653 29.8807 17.2931 30.3171 16.2338C30.7224 15.2491 30.34 14.8896 30.6333 13.513C30.8354 12.5662 31.2562 11.8565 32.0889 10.4755C33.5306 8.08589 33.8562 8.25677 34.7468 6.55182C35.5929 4.93259 35.4365 4.514 36.2653 3.51485C36.4879 3.24656 37.29 2.32311 38.6699 1.67965C40.0654 1.02839 47.6138 -2.89751 50.333 4.12937C50.7861 5.30052 42.6426 4.79621 41.3913 6.1093C40.4483 7.09787 40.0131 7.08117 39.3028 7.88105C38.9566 8.27069 37.7442 9.75745 37.7843 13.1963C37.8244 16.6262 39.0935 20.5805 40.2118 24.1931Z" fill="black"/>
<path d="M22.5087 71C30.4858 71 36.9526 64.5332 36.9526 56.556C36.9526 48.5788 30.4858 42.1121 22.5087 42.1121C14.5315 42.1121 8.0647 48.5788 8.0647 56.556C8.0647 64.5332 14.5315 71 22.5087 71Z" fill="#005EB2"/>
<path d="M50.333 4.12937C50.9052 4.85744 51.6461 5.64897 51.6004 6.57408C50.7104 24.6996 58.1047 29.6864 58.1047 29.6864L46.2846 30.6683L42.4767 26.6033L36.8169 20.9435L28.2749 21.8268L31.9603 16.162C33.3391 14.0429 34.4151 11.7418 35.1571 9.3255L35.692 7.58436C35.9263 6.82178 36.282 6.10262 36.7462 5.45415L37.9391 3.78815C38.8169 2.56246 40.0487 1.63456 41.4698 1.12969C43.3629 0.45673 45.4486 0.584755 47.2454 1.48427L47.4307 1.57667C48.4048 2.06427 49.2587 2.76117 49.9317 3.61727L50.3341 4.12937H50.333Z" fill="black"/>
<path d="M44.6948 20.4286H44.6921L44.6948 20.4313V20.4286Z" stroke="#754525" stroke-width="0.107429" stroke-miterlimit="10"/>
<path d="M33.2149 19.6571L33.781 20.1202C33.781 20.1202 40.9331 25.1627 43.4029 23.1049C44.205 22.4375 44.166 21.3682 43.7486 20.2304C42.7923 19.8775 42.3219 19.194 42.3219 19.194L42.7522 18.2778L42.8123 18.1475L43.0038 17.7401L44.0714 14.4598L41.0355 10.9609L39.8622 11.527L33.2144 19.6571H33.2149Z" fill="#753828"/>
<path d="M31.5685 38.8497L28.2766 59.8023L44.5942 57.8046C49.3317 57.2246 53.3862 54.0217 54.898 49.4947C57.931 40.411 48.1883 34.7846 48.1883 34.7846C48.1883 34.7846 54.1571 31.6976 49.4235 27.5195C44.6894 23.3403 44.9471 20.7375 44.9471 20.7375L44.6938 20.4303L44.6922 20.4286C44.3376 20.4058 44.0231 20.3312 43.7487 20.2299C44.1662 21.3677 44.2046 22.4369 43.403 23.1043C41.3674 24.8009 36.1535 21.6749 34.3812 20.5216C34.0027 20.2755 33.5818 19.9572 33.5818 19.9572C33.5818 19.9572 29.43 20.8233 28.2766 21.8252L28.2749 21.8269C25.3192 24.394 25.2981 27.5195 25.2981 27.5195C28.5032 28.0255 32.0311 30.6172 32.0311 30.6172L31.568 38.8497H31.5685Z" fill="#005EB2"/>
<path d="M51.5333 36.2258H48.7546L48.6288 36.2836C46.1841 37.4075 43.2863 36.4356 42.0144 34.0644L45.9765 31.6458L46.2854 30.6684L48.6522 30.2565L49.7844 31.7488C49.7844 31.7488 52.6661 31.7488 51.5339 36.2252L51.5333 36.2258Z" fill="#874A35"/>
<path d="M32.237 29.2278L31.7226 41.9373L42.9398 51.5079L44.6932 50.0674L48.7026 49.5531L49.3199 50.3763C49.3199 50.3763 51.8492 48.4231 53.282 49.0387L51.7958 52.6919L47.5988 55.1767L41.0356 54.4931L25.239 43.9962L25.5479 27.52L32.237 29.2283V29.2278Z" fill="#874A35"/>
<path d="M28.2764 21.8252C29.4297 20.8233 31.3879 20.3034 33.5816 19.9571L33.7803 20.1197C33.7803 20.1197 37.7936 17.7529 40.6324 11.6255C40.7365 11.4012 40.1136 10.7822 40.1136 10.7822L38.643 9.48584L28.2764 21.8252Z" fill="black"/>
<mask id="mask0_611_2961" style="mask-type:luminance" maskUnits="userSpaceOnUse" x="8" y="42" width="29" height="29">
<path d="M22.5087 71C30.4858 71 36.9526 64.5332 36.9526 56.556C36.9526 48.5788 30.4858 42.1121 22.5087 42.1121C14.5315 42.1121 8.0647 48.5788 8.0647 56.556C8.0647 64.5332 14.5315 71 22.5087 71Z" fill="white"/>
</mask>
<g mask="url(#mask0_611_2961)">
<path d="M53.8024 58.1997C50.6313 68.5052 53.0098 73.2616 53.0098 73.2616H8.61694C9.40958 52.6507 26.8499 47.1017 26.8499 47.1017C23.6788 45.5164 21.3008 39.9673 28.4352 34.4178C31.495 32.0398 33.6753 29.8039 35.1732 28.0366C37.1709 25.6664 37.948 24.1123 37.948 24.1123V19.3559C33.1598 19.3559 30.9801 16.7481 30.0049 14.1559H29.9971C29.8306 13.7117 29.7037 13.2681 29.593 12.84C29.5612 12.7131 29.5373 12.5784 29.5056 12.4515V12.4437C29.49 12.3725 29.4738 12.3012 29.466 12.2294C29.3948 11.857 29.3391 11.5002 29.2996 11.1674C29.1571 9.93053 29.2284 9.0505 29.2284 9.0505L28.586 8.8362C27.6665 8.52727 27.2384 7.4886 27.6665 6.62471L29.8546 2.24905C30.37 1.21873 30.5682 0.0375671 30.2988 -1.08849C29.6726 -3.72023 30.8142 -6.01132 30.8142 -6.01132C35.5706 -13.9388 56.1815 -13.9388 56.1815 1.12299C56.1815 4.35756 55.5391 6.88633 54.5962 8.85234C53.7239 10.6914 52.5906 12.039 51.4969 13.0143C49.4279 14.8534 47.4619 15.3922 47.4619 15.3922L48.2545 20.9412C51.4256 21.7339 54.5962 23.3191 56.182 25.6976C61.4538 33.609 56.1664 50.526 53.8041 58.1997H53.8024Z" fill="#FFCDAB"/>
<path d="M60.9375 62.1635C60.3113 63.4237 59.0349 64.0583 57.4096 64.2798C54.627 64.684 50.8536 63.8913 47.6513 62.9718C45.6458 62.4012 43.8701 61.7828 42.7045 61.3703C35.6097 58.8811 23.679 52.6502 23.679 52.6502L26.8501 47.1012C35.7367 49.1546 47.5723 52.3808 50.6638 53.2291C51.1553 53.3716 51.4247 53.4434 51.4247 53.4434C51.4247 53.4434 51.9084 51.7073 51.7019 48.6313C51.5355 46.063 50.8775 42.5669 49.0462 38.3816C43.4972 25.6977 52.2173 20.9413 56.1805 25.6977C61.6661 32.2854 63.3148 57.4066 60.9369 62.163L60.9375 62.1635Z" fill="#FFCDAB"/>
<path d="M52.1776 66.9199C52.122 68.1885 52.1698 69.2667 52.2728 70.1461C52.5027 72.2546 53.0098 73.2616 53.0098 73.2616H8.61694C8.90249 65.7938 11.3756 60.3005 14.4198 56.3367C19.7551 49.3605 26.8499 47.1011 26.8499 47.1011C23.6788 45.5159 21.3008 39.9668 28.4352 34.4172C32.1056 31.5634 34.5236 28.9155 35.9975 27.0213C36.7746 27.156 37.7414 27.2356 38.8274 27.1721C40.6827 27.053 42.878 26.4747 45.0823 24.905C47.0088 23.5257 48.5545 22.3445 49.7513 21.3771C50.2901 21.5513 50.8217 21.7578 51.3366 21.9955C53.3421 22.8677 55.1177 24.104 56.1803 25.6976C57.4645 27.6319 58.1224 30.0972 58.3445 32.8403C59.042 41.3228 55.5859 52.3969 53.8024 58.1998C52.7086 61.7588 52.2722 64.6528 52.1771 66.9199H52.1776Z" fill="#2DD38F"/>
<path d="M53.0098 73.2616H8.61694C8.90249 65.7939 11.3756 60.3005 14.4198 56.3368C19.7551 49.3606 26.8499 47.1012 26.8499 47.1012C23.6788 45.5159 21.3008 39.9669 28.4352 34.4173C32.1056 31.5635 34.5236 28.9156 35.9975 27.0214C36.7746 27.1561 37.7414 27.2357 38.8274 27.1722C37.3134 29.3837 34.8559 32.753 32.3984 35.2105C28.4346 39.1742 25.264 42.3448 29.2272 47.8944C29.2272 47.8944 29.2272 54.2361 23.6782 55.8219C18.1292 57.4072 17.3365 66.92 17.3365 66.92H52.1771C51.9867 71.2244 53.0092 73.2616 53.0092 73.2616H53.0098Z" fill="#2DD38F"/>
<path d="M58.0439 45.439C57.597 50.3374 52.5422 51.6839 50.5088 52.0301C50.1459 52.0969 49.8832 52.1253 49.7546 52.1364C51.2013 46.4054 52.285 39.3178 49.665 35.3852C48.5478 33.7098 46.3135 32.5926 44.0792 32.0337C40.7278 30.3583 42.9621 25.3308 42.9621 25.3308C47.4307 25.3308 47.4307 20.3039 44.6375 20.3039C42.4032 20.3039 42.4032 22.5382 42.4032 22.5382C42.4032 20.8628 41.2861 20.3039 41.2861 20.3039C41.2861 18.0696 39.6106 15.277 36.2591 14.7181C32.9077 14.1598 31.7905 13.0427 31.7905 13.0427C31.7905 13.0427 31.8968 12.5011 32.3154 11.7524C33.2483 10.1048 35.6947 7.45691 41.8444 7.45691C42.023 7.45691 42.2017 7.46248 42.3804 7.46804H42.3915C42.6036 7.47361 42.8107 7.48474 43.0116 7.50144C50.5356 8.04304 53.5736 13.8687 53.5736 19.1862C53.5736 24.772 50.781 29.7989 53.5736 34.8258C56.3663 39.8527 58.3996 41.5059 58.0423 45.4385L58.0439 45.439Z" fill="#71332D"/>
<path d="M53.0099 68.5052C51.9796 69.2421 50.0687 69.7337 47.6351 70.0431C38.1936 71.2482 20.9358 69.7181 17.2498 69.3691C16.8374 69.3295 16.4255 69.3613 16.0369 69.4882C15.2916 69.7259 13.6986 70.0905 10.995 70.0905C7.03125 70.0905 7.03125 67.7125 7.03125 65.3341C7.03125 62.9556 9.40917 60.5777 10.2024 59.785C10.995 58.9924 12.7551 59.4444 13.9835 59.6186C14.602 59.7138 15.1569 60.0466 15.5293 60.5459L16.7979 62.2425C17.0122 62.5281 17.305 62.7262 17.6384 62.8131C17.8287 62.8687 18.0269 62.8921 18.2329 62.8687C26.3902 61.9965 30.9802 59.7611 35.5696 58.9924C40.326 58.1997 45.0824 58.9924 45.0824 58.9924C43.5289 43.4947 44.1784 30.3432 47.9836 25.9832C48.0709 25.8802 48.1661 25.785 48.253 25.6976C48.3721 25.5785 48.4906 25.4677 48.6098 25.3648C48.7205 25.2696 48.8319 25.1744 48.9426 25.0953C49.0378 25.008 49.1408 24.9367 49.2438 24.8655C49.3312 24.802 49.4102 24.7547 49.4976 24.699C49.5766 24.6517 49.664 24.5961 49.7431 24.5565C50.195 24.3027 50.6387 24.1363 51.0829 24.0333C53.271 23.5179 55.237 24.6673 56.1799 25.6982C56.2039 25.7299 56.2356 25.7616 56.259 25.7934C56.9408 26.6177 57.4641 28.2665 57.8287 30.439C59.6204 41.2359 57.5988 65.2316 53.0088 68.5057L53.0099 68.5052Z" fill="#FFCDAB"/>
<g opacity="0.7">
<path d="M15.5297 60.5465L15.9739 61.1488C14.785 60.9506 11.709 60.6573 10.9954 61.3709C10.2028 62.1635 8.61751 64.542 8.61751 66.9199C8.61751 68.0298 8.61751 69.2978 9.82261 70.0036C7.03223 69.5678 7.03223 67.4509 7.03223 65.3346C7.03223 62.9567 9.41015 60.5782 10.2033 59.7856C10.996 58.9929 12.756 59.4449 13.9845 59.6191C14.6029 59.7143 15.1579 60.0472 15.5303 60.5465H15.5297Z" fill="#EAA07F"/>
</g>
<g opacity="0.7">
<path d="M56.2599 25.7928C55.4277 25.4995 53.0097 24.905 50.3619 27.5684C46.2795 31.6747 45.9066 45.8726 47.4607 61.3703C47.4607 61.3703 41.119 59.785 36.3626 60.5777C31.7727 61.3464 26.8498 63.7488 20.6111 64.454C18.9624 64.6366 18.0506 63.5501 17.6382 62.8131C17.8286 62.8687 18.0267 62.8921 18.2327 62.8687C26.3901 61.9965 30.98 59.7611 35.5694 58.9924C40.3258 58.1997 45.0822 58.9924 45.0822 58.9924C43.5287 43.4947 44.1783 30.3432 47.9834 25.9832C48.0708 25.8802 48.1659 25.785 48.2528 25.6976C48.3719 25.5785 48.4905 25.4677 48.6096 25.3648C48.7203 25.2696 48.8317 25.1744 48.9424 25.0953C49.0376 25.008 49.1406 24.9367 49.2436 24.8655C49.331 24.802 49.41 24.7547 49.4974 24.699C49.5764 24.6517 49.6638 24.5961 49.7429 24.5565C50.1949 24.3027 50.6385 24.1363 51.0827 24.0333C53.2708 23.5179 55.2368 24.6673 56.1797 25.6982C56.2037 25.7299 56.2354 25.7616 56.2588 25.7934L56.2599 25.7928Z" fill="#EAA07F"/>
</g>
<path d="M26.8501 47.1017C26.8501 47.1017 22.0937 43.9306 18.1299 47.1017C13.7526 50.6035 16.5447 55.0292 21.301 53.4434C24.402 52.4097 28.4354 51.0655 26.8501 47.1017Z" fill="#FFCDAB"/>
<g opacity="0.7">
<path d="M20.1911 53.7128C16.1405 54.315 14.111 50.3201 18.1299 47.1011C19.7235 45.8248 21.4513 45.5793 22.9336 45.7374C21.8793 45.8643 20.7694 46.2606 19.7151 47.1011C16.259 49.8676 17.2738 53.2051 20.1905 53.7128H20.1911Z" fill="#EAA07F"/>
</g>
</g>
<path d="M19.1908 26.399L10.8308 36.7501L8.61816 34.0114C8.95103 28.9645 11.0851 24.5582 11.6039 23.4861C12.4984 21.6354 13.5193 20.0044 14.5886 18.5767C14.9431 18.4893 15.3105 18.4453 15.689 18.4453C15.7447 18.4453 15.8003 18.447 15.856 18.4498C19.2548 18.5839 21.1345 23.1377 19.1908 26.3995V26.399Z" fill="url(#paint1_linear_611_2961)"/>
<path d="M14.5878 18.5761C13.5185 20.0039 12.4982 21.6348 11.6031 23.4856C11.0844 24.5577 8.95024 28.9639 8.61737 34.0109L2.46829 26.3984C0.524545 23.1366 2.40372 18.5828 5.80306 18.4487C5.85872 18.4459 5.91438 18.4442 5.97005 18.4442C8.65411 18.4442 10.8294 20.6897 10.8294 23.8257C10.8294 21.1316 12.4347 19.0949 14.5872 18.5761H14.5878Z" fill="#2FD38D"/>
<path d="M6.03981 15.2948C6.01588 15.2937 5.9925 15.2932 5.96856 15.2932C5.80714 15.2932 5.65073 15.3121 5.49933 15.3494C4.582 15.5704 3.8979 16.4387 3.8979 17.587C3.8979 16.2506 2.97056 15.2937 1.82669 15.2937C1.80275 15.2937 1.77937 15.2943 1.75544 15.2954C0.307091 15.3527 -0.494455 17.2937 0.334366 18.6836L2.95498 21.9282L3.8979 23.0954L7.46089 18.6836C8.28915 17.2937 7.48816 15.3527 6.03981 15.2954V15.2948Z" fill="url(#paint2_linear_611_2961)"/>
<path d="M50.7094 7.20472C50.7094 7.20472 50.8123 10.2918 48.8569 11.5269L49.3712 15.4373L47.673 15.7974L44.6922 19.1934C44.6922 19.1934 39.4399 15.5402 41.0864 12.0925C41.0864 12.0925 39.1309 10.5489 40.1601 8.28458C40.1601 8.28458 41.8066 6.32914 43.0418 8.23337C43.0418 8.23337 46.9009 9.10783 50.7088 7.20416L50.7094 7.20472Z" fill="#874A35"/>
<path d="M37.5839 14.9592C38.8422 14.9592 39.8622 13.9391 39.8622 12.6809C39.8622 11.4226 38.8422 10.4026 37.5839 10.4026C36.3257 10.4026 35.3057 11.4226 35.3057 12.6809C35.3057 13.9391 36.3257 14.9592 37.5839 14.9592Z" fill="black"/>
<path d="M58.1048 29.6864C55.9495 29.8523 53.8577 29.8913 51.8382 29.8262C51.7303 28.6222 51.1909 27.569 50.642 26.2932C50.3437 25.5997 50.0431 24.8399 49.8077 23.9543C49.1024 21.3019 50.0938 21.6971 50.2507 14.3986C50.3465 9.91831 50.0559 5.90836 51.0729 5.66622C51.3228 5.60667 51.6601 5.77198 51.8327 5.85603C52.6465 6.25402 52.9482 7.12404 53.035 7.43797C53.2254 8.12597 53.0907 8.69373 52.9081 9.46299C52.6687 10.4727 52.4405 10.5005 52.3387 11.2347C52.3125 11.424 52.1689 12.4571 52.6554 13.3861C53.1714 14.373 53.8683 14.2305 54.6798 15.095C55.9389 16.4353 55.8449 18.4615 55.8193 19.0181C55.7458 20.6006 55.1301 20.6902 54.9331 22.625C54.8624 23.3219 54.7555 24.4847 55.1864 25.8524C55.2832 26.1602 55.4814 26.7124 55.8499 27.3414C56.1644 27.8785 56.6041 28.4719 57.2114 29.0163C57.5259 29.2985 57.8259 29.5139 58.1048 29.6864Z" fill="black"/>
<defs>
<linearGradient id="paint0_linear_611_2961" x1="8.64095" y1="39.7859" x2="60.5967" y2="39.7859" gradientUnits="userSpaceOnUse">
<stop offset="0.02" stop-color="#005EB2"/>
<stop offset="1" stop-color="#0BE5A1"/>
</linearGradient>
<linearGradient id="paint1_linear_611_2961" x1="8.61816" y1="27.5974" x2="19.9745" y2="27.5974" gradientUnits="userSpaceOnUse">
<stop offset="0.02" stop-color="#005EB2"/>
<stop offset="1" stop-color="#0BFFA1"/>
</linearGradient>
<linearGradient id="paint2_linear_611_2961" x1="-0.000168045" y1="19.194" x2="7.79486" y2="19.194" gradientUnits="userSpaceOnUse">
<stop offset="0.02" stop-color="#005EB2"/>
<stop offset="1" stop-color="#0BFFA1"/>
</linearGradient>
</defs>
</svg>
