<svg width="86" height="62" viewBox="0 0 86 62" fill="none" xmlns="http://www.w3.org/2000/svg">
<g clip-path="url(#clip0_611_2495)">
<path d="M49.9278 55.6709C98.981 35.4062 82.0765 -0.162181 54.0684 7.09611C45.9135 9.41867 38.8752 13.7649 30.8367 16.4742C25.5353 18.5685 11.3213 17.5127 12.0024 36.4822C12.8682 60.6022 38.49 60.1636 49.9278 55.6702V55.6709Z" fill="url(#paint0_linear_611_2495)"/>
<path d="M50.4768 39.874L45.855 35.1613L24.2866 57.0466L28.7951 61.555L50.4768 39.874Z" fill="#1A263C"/>
<path d="M39.0389 55.8737L37.697 57.772L33.9665 57.591L31.038 54.6001C31.038 54.6001 30.9734 52.6395 32.533 52.9691L34.6626 54.4192L35.2513 54.736L39.0382 55.8737H39.0389Z" fill="#A25939"/>
<path d="M45.3226 37.6709C45.3204 37.6807 45.3174 37.6897 45.3144 37.6994C45.3046 37.7325 45.2949 37.7655 45.2836 37.7985C45.2596 37.8736 45.2325 37.9487 45.2018 38.0253C45.1792 38.0824 45.1552 38.1395 45.1289 38.1965C44.9367 38.6185 44.6446 39.0526 44.2173 39.4791C44.1783 39.5181 44.1385 39.5572 44.0972 39.5955C44.0559 39.6338 44.0138 39.6728 43.9703 39.7111C43.9049 39.7689 43.8373 39.8268 43.7668 39.8838C43.6016 40.0175 43.4221 40.1504 43.2269 40.2803C39.6923 42.6367 38.2423 43.6331 38.2423 43.6331C38.2423 43.6331 35.9768 49.3423 31.355 51.4268C26.7331 53.5113 28.6359 58.8578 22.474 54.7796L7.0608 57.9454C5.00406 58.3675 3.02091 57.6661 1.68279 56.3055C0.648786 55.2542 0 53.8094 0 52.1875C0 50.7179 0.542908 49.3611 1.45001 48.3225C2.35711 47.2833 3.62764 46.5624 5.08366 46.3634L27.0958 43.3613L31.8085 40.2803L38.424 38.4676L45.0396 34.9331C45.0396 34.9331 45.394 35.5496 45.4511 36.4432C45.4511 36.4477 45.4511 36.4514 45.4511 36.4559C45.4533 36.4912 45.4548 36.5258 45.4563 36.5618C45.4676 36.9012 45.4338 37.2759 45.3219 37.6701L45.3226 37.6709Z" fill="#A25939"/>
<path d="M45.3227 37.6709C45.3205 37.6807 45.3175 37.6897 45.3145 37.6994C45.3047 37.7325 45.2949 37.7655 45.2837 37.7985C45.2596 37.8736 45.2326 37.9487 45.2018 38.0253C45.1793 38.0824 45.1553 38.1395 45.129 38.1965C44.9368 38.6185 44.6446 39.0526 44.2174 39.4791C44.1783 39.5181 44.1385 39.5572 44.0972 39.5955C44.0559 39.6338 44.0139 39.6728 43.9703 39.7111C43.905 39.7689 43.8374 39.8268 43.7668 39.8838C43.6016 40.0175 43.4222 40.1504 43.2269 40.2803C39.6924 42.6367 38.2424 43.6331 38.2424 43.6331C38.2424 43.6331 35.9769 49.3423 31.3551 51.4268C26.7332 53.5113 28.636 58.8578 22.474 54.7796L7.06087 57.9454C5.00413 58.3675 3.02098 57.6661 1.68286 56.3055L23.9924 52.4458L24.8762 49.7042C25.4597 49.8769 31.3964 48.2377 32.5497 47.5694L34.0463 46.413C34.9624 45.4909 35.5962 44.4035 35.9476 43.151C35.9731 42.9633 35.9979 42.7756 36.0235 42.5878C36.7376 42.4226 37.4224 42.1501 38.0779 41.7694C38.5765 41.3841 39.0752 40.9989 39.5745 40.613C39.8028 40.3839 40.013 40.1436 40.206 39.8936C41.1462 39.7599 42.0382 39.449 42.8808 38.9602L44.3773 37.8038C44.7941 37.384 45.1523 36.9297 45.4519 36.4417C45.4541 36.4807 45.4564 36.5205 45.4579 36.5603C45.4691 36.8997 45.4354 37.2744 45.3235 37.6686L45.3227 37.6709Z" fill="#875027"/>
<path d="M49.2773 33.6401L46.7415 35.9933L49.1385 38.5765L51.6744 36.2233L49.2773 33.6401Z" fill="#969696"/>
<path d="M44.2241 20.617C44.2241 32.003 53.4543 41.2339 64.8411 41.2339C76.2279 41.2339 85.4581 32.0038 85.4581 20.617C85.4581 9.23018 76.2264 0 64.8404 0C53.4543 0 44.2234 9.23018 44.2234 20.617H44.2241ZM49.1771 27.2317C48.2918 25.1389 47.8428 22.9133 47.8428 20.617C47.8428 18.3207 48.2918 16.095 49.1771 14.0015C49.6029 12.9952 50.13 12.0243 50.7435 11.1157C51.3518 10.2146 52.0516 9.3676 52.8213 8.59716C53.5917 7.82748 54.4388 7.12838 55.3399 6.5194C56.2485 5.90515 57.2194 5.37876 58.2256 4.953C60.3184 4.06768 62.5441 3.61863 64.8404 3.61863C67.1366 3.61863 69.3623 4.06768 71.4551 4.953C72.4621 5.37876 73.433 5.9059 74.3409 6.5194C75.242 7.12763 76.089 7.82748 76.8594 8.59716C77.6291 9.36685 78.3282 10.2146 78.9372 11.1157C79.5514 12.0243 80.0778 12.9952 80.5036 14.0015C81.3889 16.095 81.8379 18.3207 81.8379 20.617C81.8379 22.9133 81.3889 25.1389 80.5036 27.2317C80.0778 28.2387 79.5507 29.2096 78.9372 30.1175C78.3289 31.0186 77.6291 31.8656 76.8594 32.636C76.0897 33.4057 75.242 34.1048 74.3409 34.7138C73.4323 35.328 72.4613 35.8544 71.4551 36.2802C69.3623 37.1655 67.1366 37.6146 64.8404 37.6146C62.5441 37.6146 60.3184 37.1655 58.2256 36.2802C57.2194 35.8544 56.2477 35.3273 55.3399 34.7138C54.4388 34.1056 53.5917 33.4057 52.8213 32.636C52.0516 31.8663 51.3525 31.0186 50.7435 30.1175C50.1293 29.2089 49.6029 28.238 49.1771 27.2317Z" fill="#1A263C"/>
<path opacity="0.5" d="M47.8425 20.617C47.8425 22.9133 48.2916 25.139 49.1769 27.2318C49.6027 28.2387 50.1298 29.2096 50.7433 30.1175C51.3515 31.0186 52.0514 31.8656 52.8211 32.636C53.5915 33.4057 54.4385 34.1048 55.3396 34.7138C56.2482 35.3281 57.2191 35.8544 58.2254 36.2802C60.3181 37.1655 62.5438 37.6146 64.8401 37.6146C67.1364 37.6146 69.3621 37.1655 71.4549 36.2802C72.4618 35.8544 73.4328 35.3273 74.3406 34.7138C75.2417 34.1056 76.0887 33.4057 76.8592 32.636C77.6289 31.8664 78.328 31.0186 78.9369 30.1175C79.5512 29.2089 80.0776 28.238 80.5033 27.2318C81.3887 25.139 81.8377 22.9133 81.8377 20.617C81.8377 18.3207 81.3887 16.095 80.5033 14.0015C80.0776 12.9953 79.5504 12.0243 78.9369 11.1157C78.3287 10.2146 77.6289 9.36762 76.8592 8.59718C76.0895 7.8275 75.2417 7.1284 74.3406 6.51942C73.432 5.90517 72.4611 5.37878 71.4549 4.95302C69.3621 4.0677 67.1364 3.61865 64.8401 3.61865C62.5438 3.61865 60.3181 4.0677 58.2254 4.95302C57.2191 5.37878 56.2475 5.90592 55.3396 6.51942C54.4385 7.12765 53.5915 7.8275 52.8211 8.59718C52.0514 9.36686 51.3523 10.2146 50.7433 11.1157C50.129 12.0243 49.6027 12.9953 49.1769 14.0015C48.2916 16.095 47.8425 18.3207 47.8425 20.617Z" fill="#818182"/>
<path opacity="0.5" d="M47.8428 20.617C47.8428 22.9133 48.2918 25.139 49.1772 27.2318C49.6029 28.2387 50.1301 29.2096 50.7436 30.1175C51.3518 31.0186 52.0516 31.8656 52.8213 32.636C53.5918 33.4057 54.4388 34.1048 55.3399 34.7138C56.2485 35.3281 57.2194 35.8544 58.2256 36.2802C60.3184 37.1655 62.5441 37.6146 64.8404 37.6146C67.1367 37.6146 69.3624 37.1655 71.4551 36.2802C72.2819 35.9303 73.0854 35.5128 73.849 35.0337C74.015 34.9301 74.1794 34.8234 74.3409 34.7138C75.242 34.1056 76.089 33.4057 76.8594 32.636C76.918 32.5775 76.9758 32.5197 77.0321 32.4603C77.7342 31.738 78.374 30.951 78.9365 30.1182C79.1001 29.8757 79.2578 29.6287 79.4088 29.3779C79.824 28.6885 80.1905 27.9699 80.5028 27.2318C81.3882 25.139 81.8372 22.9133 81.8372 20.617C81.8372 20.5562 81.8372 20.4946 81.8365 20.4338C81.8132 18.2028 81.3649 16.0394 80.5036 14.0015C80.0778 12.9953 79.5507 12.0243 78.9372 11.1157C78.329 10.2146 77.6291 9.36762 76.8594 8.59718C76.0898 7.8275 75.242 7.1284 74.3409 6.51942C73.4323 5.90517 72.4614 5.37878 71.4551 4.95302C69.3624 4.0677 67.1367 3.61865 64.8404 3.61865C62.5441 3.61865 60.3184 4.0677 58.2256 4.95302C58.0094 5.04463 57.7946 5.14075 57.5813 5.24212C56.8041 5.60931 56.0525 6.03808 55.3391 6.52017C54.438 7.1284 53.591 7.82825 52.8206 8.59793C52.1042 9.3143 51.4494 10.0967 50.872 10.928C50.8284 10.9903 50.7849 11.0534 50.7428 11.1165C50.1286 12.0251 49.6022 12.996 49.1764 14.0022C49.1058 14.1689 49.0382 14.3364 48.9737 14.5046C48.5299 15.6542 48.216 16.8414 48.0328 18.0571C47.9066 18.8989 47.842 19.7534 47.842 20.6185L47.8428 20.617Z" fill="white"/>
<path d="M50.8726 10.9272L79.4101 29.3778C79.8254 28.6885 80.1918 27.9699 80.5042 27.2317C81.3895 25.1389 81.8386 22.9132 81.8386 20.617C81.8386 20.5561 81.8386 20.4946 81.8378 20.4337L57.5812 5.2421C56.804 5.60929 56.0524 6.03806 55.339 6.52014C54.4379 7.12838 53.5909 7.82823 52.8204 8.59791C52.1041 9.31428 51.4493 10.0967 50.8718 10.928L50.8726 10.9272Z" fill="white"/>
<path d="M48.0327 18.0556L73.8497 35.0337C74.0157 34.9301 74.1801 34.8234 74.3416 34.7138C75.2427 34.1056 76.0897 33.4057 76.8601 32.636C76.9187 32.5775 76.9765 32.5196 77.0328 32.4603L48.9736 14.5038C48.5298 15.6535 48.2159 16.8406 48.0327 18.0564V18.0556Z" fill="white"/>
<path d="M54.0999 19.824V13.3416H57.9868V14.0379H54.8848V16.2283H57.6956V16.9246H54.8848V19.824H54.0999Z" fill="#1A263C"/>
<path d="M58.7876 19.824H57.9646L60.3449 13.3416H61.1552L63.5355 19.824H62.7125L60.7754 14.3671H60.7247L58.7876 19.824ZM59.0915 17.2918H62.4087V17.9882H59.0915V17.2918Z" fill="#1A263C"/>
<path d="M64.5452 19.824V13.3416H65.3302V16.5575H65.4062L68.3182 13.3416H69.3437L66.6216 16.2663L69.3437 19.824H68.3942L66.1405 16.8107L65.3302 17.7223V19.824H64.5452Z" fill="#1A263C"/>
<path d="M70.3598 19.824V13.3416H74.2721V14.0379H71.1448V16.2283H74.0695V16.9246H71.1448V19.1276H74.3227V19.824H70.3598Z" fill="#1A263C"/>
<path d="M58.492 21.5544V26.8075H57.8764L55.0139 22.683H54.9626V26.8075H54.3264V21.5544H54.942L57.8148 25.6891H57.8661V21.5544H58.492Z" fill="#1A263C"/>
<path d="M59.7649 26.8075V21.5544H62.9352V22.1187H60.401V23.8936H62.771V24.4579H60.401V26.2432H62.9762V26.8075H59.7649Z" fill="#1A263C"/>
<path d="M65.0359 26.8075L63.5995 21.5544H64.2459L65.3437 25.8328H65.395L66.5134 21.5544H67.2315L68.3499 25.8328H68.4012L69.499 21.5544H70.1454L68.709 26.8075H68.0523L66.893 22.6214H66.8519L65.6926 26.8075H65.0359Z" fill="#1A263C"/>
<path d="M73.8107 22.8676C73.78 22.6077 73.6551 22.4059 73.4363 22.2623C73.2174 22.1187 72.9489 22.0468 72.6309 22.0468C72.3983 22.0468 72.1948 22.0845 72.0204 22.1597C71.8477 22.2349 71.7126 22.3384 71.6151 22.4701C71.5194 22.6017 71.4715 22.7514 71.4715 22.9189C71.4715 23.0592 71.5048 23.1797 71.5715 23.2806C71.6399 23.3798 71.7271 23.4627 71.8331 23.5294C71.9392 23.5944 72.0503 23.6482 72.1666 23.691C72.2829 23.732 72.3897 23.7654 72.4872 23.791L73.0207 23.9347C73.1575 23.9706 73.3097 24.0202 73.4773 24.0834C73.6466 24.1467 73.8082 24.2331 73.9621 24.3425C74.1177 24.4502 74.2459 24.5887 74.3468 24.758C74.4477 24.9273 74.4982 25.1351 74.4982 25.3813C74.4982 25.6652 74.4238 25.9217 74.275 26.1508C74.128 26.38 73.9125 26.5621 73.6286 26.6972C73.3465 26.8323 73.0036 26.8998 72.6001 26.8998C72.2239 26.8998 71.8981 26.8391 71.6228 26.7177C71.3492 26.5963 71.1338 26.427 70.9764 26.2098C70.8208 25.9927 70.7328 25.7404 70.7122 25.4531H71.3689C71.386 25.6515 71.4527 25.8157 71.5689 25.9456C71.6869 26.0739 71.8357 26.1696 72.0153 26.2329C72.1965 26.2945 72.3915 26.3252 72.6001 26.3252C72.8429 26.3252 73.0609 26.2859 73.2541 26.2073C73.4474 26.1269 73.6004 26.0157 73.7133 25.8738C73.8261 25.7302 73.8826 25.5626 73.8826 25.3711C73.8826 25.1966 73.8338 25.0547 73.7364 24.9453C73.6389 24.8358 73.5106 24.7469 73.3516 24.6785C73.1926 24.6101 73.0207 24.5503 72.8361 24.499L72.1897 24.3143C71.7793 24.1963 71.4544 24.0279 71.215 23.809C70.9756 23.5901 70.8559 23.3037 70.8559 22.9497C70.8559 22.6556 70.9354 22.3991 71.0944 22.1802C71.2552 21.9596 71.4706 21.7886 71.7408 21.6672C72.0127 21.5441 72.3162 21.4825 72.6514 21.4825C72.99 21.4825 73.2909 21.5432 73.5542 21.6647C73.8176 21.7844 74.0262 21.9485 74.1801 22.1571C74.3357 22.3658 74.4178 22.6026 74.4263 22.8676H73.8107Z" fill="#1A263C"/>
<path d="M42.5895 52.6988L41.913 55.4156L40.3721 56.2739L39.0385 55.8737L35.2516 54.736L32.8052 51.7001C32.8052 51.7001 33.032 49.8371 34.8439 50.1209L38.1066 51.836L42.5888 52.6988H42.5895Z" fill="#A25939"/>
<path d="M43.8162 52.7874L45.4591 51.1107V49.0892L42.276 48.0747L40.2824 48.7543L37.745 47.4853C37.745 47.4853 36.6119 47.3494 36.0232 48.6184C35.4345 49.8874 38.7873 52.4248 38.7873 52.4248L41.9592 52.653L43.8169 52.7867L43.8162 52.7874Z" fill="#A25939"/>
<path d="M46.3168 44.0334L47.1233 46.0811L46.5346 47.9839L45.2821 49.2702L44.8578 49.7057L39.9641 47.5311C39.9641 47.5311 40.5874 44.8451 44.5747 45.7755L46.3168 44.0334Z" fill="#A25939"/>
<path d="M31.0381 54.6001L33.9666 57.591L37.6979 57.772L38.1469 57.1367L33.9674 57.0128L31.0861 54.07C31.0313 54.3644 31.0388 54.6001 31.0388 54.6001H31.0381Z" fill="#875027"/>
<path d="M32.5333 52.9691L34.6629 54.9966L35.2516 55.3135L38.7013 56.3497L39.0377 55.8737L35.2509 54.736L34.6622 54.4191L32.5326 52.9691C30.9729 52.6395 31.5128 52.7536 32.5326 52.9691H32.5333Z" fill="#683A14"/>
<path d="M38.3106 53.1824H42.4691L42.5893 52.6988L38.1063 51.836L36.1375 50.8005L38.3106 53.1824Z" fill="#683A14"/>
<path d="M32.805 51.7001L35.2514 54.736L39.0383 55.8737L40.3719 56.2739L40.7053 56.0877L41.912 55.4156L42.2236 54.1646L40.1751 55.6874L35.6592 54.3058L33.0024 51.0588C32.841 51.4005 32.8042 51.7009 32.8042 51.7009L32.805 51.7001Z" fill="#875027"/>
<path d="M40.3726 56.2739C39.9378 56.1725 39.506 56.0606 39.0758 55.9465C38.6447 55.8331 38.2152 55.7137 37.7857 55.5943C37.3577 55.4712 36.9282 55.351 36.5016 55.2234L35.8611 55.0334L35.2221 54.8382L35.1898 54.8284L35.1695 54.8029C34.966 54.5498 34.7663 54.293 34.5658 54.0377C34.3646 53.7831 34.1678 53.5241 33.9688 53.2665C33.869 53.1381 33.7721 53.0074 33.6737 52.8783C33.5753 52.7484 33.4777 52.6192 33.3809 52.4886C33.1864 52.228 32.9941 51.9659 32.8057 51.7001C33.0249 51.9404 33.2404 52.1844 33.4537 52.4292C33.5611 52.5516 33.667 52.6748 33.7728 52.7979C33.8787 52.9218 33.9853 53.0442 34.0897 53.1689C34.2992 53.4174 34.5102 53.6645 34.716 53.916C34.9232 54.1661 35.1312 54.4161 35.3355 54.6685L35.2829 54.6332L35.9234 54.8224L36.5625 55.0169C36.989 55.1453 37.4132 55.2812 37.8383 55.4149C38.2625 55.5515 38.686 55.6889 39.1088 55.8316C39.5308 55.9743 39.9528 56.1185 40.3718 56.2731L40.3726 56.2739Z" fill="#663718"/>
<path d="M38.7866 52.4247L41.9584 52.653L43.8162 52.7874L45.4591 51.1107V49.0892L42.276 48.0747L40.7066 48.6094L44.3831 50.6458L45.4591 50.0909V51.1107L44.7368 51.848L38.7115 51.5635L36.449 47.9921C36.3176 48.1363 36.1651 48.3135 36.0232 48.6176C35.4345 49.8867 38.7873 52.424 38.7873 52.424L38.7866 52.4247Z" fill="#875027"/>
<path d="M44.3825 50.6466L40.7061 48.6101L42.2755 48.0755L45.4586 49.0899V51.1114V50.0917L44.3825 50.6466Z" fill="#683A14"/>
<path d="M45.1328 51.4433L45.4587 51.1114L45.1328 51.4433Z" fill="#683A14"/>
<path d="M36.4483 47.9929C36.2959 48.1746 36.1652 48.3729 36.0729 48.5884C36.0489 48.6424 36.0293 48.6935 36.0166 48.7491C36.0046 48.8039 35.9985 48.8602 35.9985 48.9165C35.9985 49.0292 36.0203 49.1418 36.0541 49.2507C36.1217 49.4692 36.2358 49.6742 36.3635 49.8672C36.4911 50.0617 36.6353 50.2464 36.7878 50.4236C37.0926 50.7788 37.4275 51.1107 37.7744 51.4276C38.1199 51.7459 38.4833 52.0493 38.852 52.3377L38.7942 52.3159C39.2132 52.3489 39.6322 52.3775 40.0512 52.4143L40.6797 52.4668L41.3075 52.5231C41.7257 52.5599 42.144 52.6027 42.5622 52.6455C42.9805 52.6898 43.3988 52.7341 43.8163 52.7875C43.3958 52.7799 42.9752 52.7642 42.5555 52.7477C42.1357 52.7296 41.7152 52.7116 41.2962 52.6883L40.6669 52.6545L40.0377 52.6162C39.6179 52.5922 39.1989 52.5607 38.7799 52.5329L38.7476 52.5306L38.7213 52.5111C38.5291 52.3654 38.3466 52.2145 38.1649 52.0591C37.9839 51.9036 37.806 51.7452 37.6318 51.5822C37.4576 51.4193 37.2886 51.2496 37.1242 51.0769C36.9605 50.9027 36.7998 50.7247 36.6511 50.5362C36.5017 50.3485 36.3605 50.1533 36.2358 49.9468C36.1142 49.7388 36.0061 49.5187 35.9452 49.28C35.9159 49.1606 35.9002 49.0367 35.9084 48.912C35.9122 48.8497 35.9235 48.7881 35.9407 48.728C35.958 48.6687 35.985 48.6101 36.0136 48.5583C36.0706 48.4525 36.1352 48.3511 36.208 48.2565C36.2809 48.1619 36.362 48.074 36.4476 47.9914L36.4483 47.9929Z" fill="#663718"/>
<path d="M41.1716 47.3847C41.5132 47.5641 43.7157 47.9876 44.1099 47.9726C44.5319 47.9726 45.5749 48.3638 45.6883 47.7571C45.7228 47.5731 46.0577 46.2996 46.081 46.1261C46.1223 45.819 45.5524 44.797 45.5524 44.797L46.3168 44.0334L47.1233 46.0811L46.5346 47.9839L45.2821 49.2702L44.8578 49.7057L39.9641 47.5311C39.9641 47.5311 40.0377 47.2157 40.2938 46.8388C40.5438 47.0941 40.8359 47.2758 41.1716 47.3847Z" fill="#875027"/>
<path d="M46.5346 47.9846C46.4054 48.1385 46.274 48.2895 46.1418 48.4404C46.0089 48.5906 45.8768 48.7408 45.7416 48.8887C45.6072 49.0374 45.4728 49.1861 45.3361 49.3325C45.2002 49.4797 45.065 49.6276 44.9276 49.7733L44.8826 49.8206L44.8195 49.7935C44.4087 49.6201 43.9987 49.4429 43.591 49.2619C43.1832 49.0809 42.7763 48.8985 42.3708 48.7107C42.168 48.6169 41.966 48.523 41.7648 48.4261C41.5635 48.33 41.3615 48.2354 41.161 48.1363L40.8599 47.9891L40.5603 47.8389C40.3606 47.7383 40.1623 47.6362 39.9648 47.5303C40.1751 47.6061 40.3846 47.685 40.5926 47.7653L40.905 47.887L41.2159 48.0116C41.4239 48.0935 41.6289 48.1806 41.8354 48.2654C42.0419 48.3503 42.2469 48.4374 42.4526 48.5253C42.8634 48.7002 43.2719 48.8797 43.6796 49.0614C44.0873 49.2431 44.4928 49.4286 44.8976 49.6171L44.7894 49.6381C44.9314 49.4969 45.0755 49.358 45.219 49.2176C45.3616 49.0772 45.5066 48.939 45.6522 48.8008C45.7964 48.6619 45.9436 48.5253 46.09 48.3886C46.2372 48.2527 46.3851 48.1168 46.5353 47.9839L46.5346 47.9846Z" fill="#663718"/>
<path d="M39.039 55.8737C38.9362 56.0381 38.8318 56.2018 38.7266 56.364C38.6223 56.5277 38.5149 56.6892 38.409 56.8514C38.3031 57.0143 38.195 57.1743 38.0876 57.3357L37.9262 57.5775L37.7632 57.8185L37.7392 57.8538L37.6934 57.8523C37.3825 57.8433 37.0709 57.8358 36.76 57.823C36.4491 57.811 36.1375 57.802 35.8266 57.787L34.894 57.7457L33.9614 57.6969L33.9193 57.6946L33.89 57.6654C33.7684 57.5407 33.6475 57.4146 33.5274 57.2884L33.1662 56.9099C32.9244 56.6584 32.6871 56.4023 32.4475 56.1485L32.0916 55.7648L31.9136 55.5726L31.7372 55.3788C31.5014 55.1213 31.2679 54.8622 31.0381 54.5994C31.2956 54.8352 31.5502 55.074 31.8025 55.315L31.9925 55.4952L32.181 55.677L32.5572 56.0411C32.8057 56.2859 33.0565 56.5285 33.3028 56.7755L33.6738 57.145C33.7977 57.2681 33.9208 57.3913 34.0432 57.5159L33.9726 57.4844L34.9053 57.5257L35.8379 57.5745C36.1488 57.5895 36.4597 57.6113 36.7698 57.6293C37.0807 57.6473 37.3908 57.6691 37.7017 57.6909L37.6318 57.7247L37.8045 57.4911L37.9787 57.2584C38.0951 57.1037 38.21 56.9475 38.3279 56.7936C38.4458 56.6396 38.5622 56.4842 38.6808 56.3317C38.7995 56.1778 38.9181 56.0254 39.039 55.8729V55.8737Z" fill="#663718"/>
</g>
<defs>
<linearGradient id="paint0_linear_611_2495" x1="11.9784" y1="32.1021" x2="81.0906" y2="32.1021" gradientUnits="userSpaceOnUse">
<stop stop-color="#0BE5A1"/>
<stop offset="0.13" stop-color="#0ADDA1"/>
<stop offset="0.33" stop-color="#08C9A4"/>
<stop offset="0.57" stop-color="#06A7A8"/>
<stop offset="0.83" stop-color="#0279AE"/>
<stop offset="0.98" stop-color="#005EB2"/>
</linearGradient>
<clipPath id="clip0_611_2495">
<rect width="85.4573" height="61.5551" fill="white"/>
</clipPath>
</defs>
</svg>
