<svg width="60" height="59" viewBox="0 0 60 59" fill="none" xmlns="http://www.w3.org/2000/svg">
<g clip-path="url(#clip0_611_4625)">
<path d="M26.5073 14.0899C12.0095 18.6439 0.830245 26.5762 0.0922179 34.9597C-1.52222 53.3036 27.2253 60.3063 35.9763 51.4931C87.01 24.51 41.7226 -19.4202 31.0874 9.47019C30.1954 11.3905 28.5895 12.9207 26.5073 14.0899Z" fill="url(#paint0_linear_611_4625)"/>
<path d="M36.7104 19.9669L48.7631 8.91048C48.6026 8.53745 48.6843 8.08872 49.0002 7.79893C49.3998 7.43242 50.4301 7.0238 50.7966 7.42339C51.1632 7.82299 50.7275 8.87989 50.3279 9.2464C50.012 9.5362 49.5577 9.57932 49.1998 9.38729L37.1471 20.4437L36.7104 19.9674V19.9669Z" fill="white"/>
<path d="M41.8003 20.9536C42.2862 21.4219 42.7715 21.8901 43.2573 22.3589C43.3822 22.4793 43.5236 22.6071 43.697 22.6146C43.9262 22.6247 44.1052 22.4226 44.2245 22.2271C44.6226 21.5743 44.7825 20.7811 44.6431 20.0295C45.2302 19.7016 45.4594 18.9295 45.318 18.2722C45.1766 17.6149 44.7369 17.0609 44.2511 16.5966C43.3195 15.7062 42.1749 15.0549 40.9625 14.6182C40.3719 15.6139 40.0761 16.7209 40.1814 17.8741C40.2867 19.0273 40.9665 20.1499 41.8003 20.9536Z" fill="#1C664B"/>
<path d="M36.4856 25.5928C35.9196 23.9673 36.8531 16.8914 37.1875 15.0894C37.3089 14.4362 37.4844 13.7423 37.9852 13.3061C38.4796 12.8754 39.178 12.7931 39.8303 12.73C40.9629 12.6202 42.096 12.5104 43.2286 12.4006C43.5776 12.367 44.0108 12.375 44.1752 12.6843C44.3071 12.9315 44.1828 13.2359 44.0318 13.472C43.549 14.2261 42.7734 14.7871 41.906 15.0092C42.5297 16.3865 42.2424 18.0997 41.2582 19.2479C42.1341 20.5289 42.6435 21.9498 42.6546 23.5016C42.6656 25.0533 42.083 26.6332 40.9479 27.6911C39.6664 27.1807 38.3487 26.6632 37.0828 26.1147C36.7995 25.9919 36.5874 25.8846 36.4856 25.5933V25.5928Z" fill="#42DB9C"/>
<path d="M35.7412 25.0508C34.5318 26.6688 33.879 28.6296 32.8512 30.3684C31.8234 32.1077 30.2085 33.7246 28.1924 33.857C26.5093 33.9673 24.961 33.0312 23.495 32.1974C23.0744 31.9583 22.6497 31.7256 22.222 31.498L22.57 34.0866C22.6632 36.5639 22.1468 38.8743 21.0202 41.0187C20.8523 41.5341 20.6562 42.033 20.4331 42.5168C22.4296 43.877 24.8272 44.6436 27.2433 44.6862C29.8229 44.7314 32.4105 43.9507 34.5348 42.4867C36.7956 40.9284 38.4712 38.6782 40.1041 36.4707C41.7156 34.2917 43.4042 32.044 43.6218 29.3421C41.6228 26.8979 38.8708 25.467 35.7407 25.0513L35.7412 25.0508Z" fill="#E2E2E2"/>
<path d="M24.1651 7.10544L11.0283 9.84745C8.47658 10.3801 6.83974 12.8805 7.37237 15.4322L15.674 55.2047C16.2066 57.7565 18.707 59.3933 21.2588 58.8607L34.3956 56.1187C36.9473 55.586 38.5842 53.0856 38.0515 50.5339L29.7499 10.7614C29.2173 8.20965 26.7169 6.57281 24.1651 7.10544Z" fill="#BCBCBC"/>
<path d="M24.0715 8.78186L11.7854 11.3463C9.39893 11.8445 7.86816 14.1828 8.36627 16.5693L16.1302 53.7655C16.6283 56.1519 18.9667 57.6827 21.3531 57.1846L33.6393 54.6201C36.0257 54.122 37.5565 51.7836 37.0584 49.3972L29.2945 12.2009C28.7963 9.81452 26.458 8.28375 24.0715 8.78186Z" fill="#E2E2E2"/>
<path d="M27.898 17.2936L20.6504 18.8064L25.3212 41.1839L32.5689 39.6711L27.898 17.2936Z" fill="#C1C1C1"/>
<path d="M29.904 49.9753C32.0509 49.9753 33.7912 48.2349 33.7912 46.0881C33.7912 43.9413 32.0509 42.2009 29.904 42.2009C27.7572 42.2009 26.0168 43.9413 26.0168 46.0881C26.0168 48.2349 27.7572 49.9753 29.904 49.9753Z" fill="#C1C1C1"/>
<path d="M29.9043 48.1242C31.0288 48.1242 31.9404 47.2126 31.9404 46.0881C31.9404 44.9636 31.0288 44.052 29.9043 44.052C28.7798 44.052 27.8682 44.9636 27.8682 46.0881C27.8682 47.2126 28.7798 48.1242 29.9043 48.1242Z" fill="#FF0D01"/>
<path d="M27.3442 18.2605L21.5459 19.4708L25.8764 40.2179L31.6747 39.0076L27.3442 18.2605Z" fill="#DBDBDB"/>
<path d="M29.2539 27.411L23.4556 28.6212L25.8761 40.2179L31.6744 39.0076L29.2539 27.411Z" fill="#F7F7F7"/>
<path d="M23.9302 30.8843L29.7281 29.6735M25.1214 36.592L30.9199 35.3812" stroke="#C91B14" stroke-width="0.946099" stroke-miterlimit="10"/>
<path d="M15.3837 15.6571C15.2461 15.6858 15.1118 15.6872 14.9806 15.6615C14.8508 15.6336 14.7313 15.5833 14.6222 15.5104C14.5144 15.4354 14.4221 15.3413 14.3453 15.228C14.2702 15.1143 14.2176 14.9853 14.1874 14.841C14.1577 14.6984 14.1547 14.5608 14.1784 14.4283C14.2034 14.2937 14.2506 14.1714 14.3197 14.0613C14.3902 13.9491 14.4794 13.8543 14.5872 13.7768C14.6951 13.6994 14.8186 13.6462 14.9579 13.6171C15.0886 13.5898 15.2042 13.5834 15.3047 13.5979C15.4068 13.612 15.5136 13.6482 15.625 13.7064C15.6407 13.7138 15.6532 13.7227 15.6625 13.7331C15.6731 13.7416 15.6805 13.7515 15.6847 13.7631C15.6902 13.7725 15.6945 13.7849 15.6977 13.8002C15.7045 13.8325 15.6982 13.8621 15.6791 13.8891C15.6613 13.9141 15.6366 13.9317 15.605 13.9418C15.5731 13.9502 15.5394 13.9458 15.5039 13.9284C15.4297 13.8871 15.3557 13.8592 15.2817 13.8445C15.2095 13.8295 15.1182 13.8335 15.0078 13.8565C14.9077 13.8774 14.8177 13.9174 14.7379 13.9766C14.6581 14.0358 14.5917 14.1081 14.5387 14.1936C14.4874 14.2787 14.4529 14.3727 14.4354 14.4756C14.4176 14.5768 14.4198 14.6809 14.4421 14.7878C14.4648 14.8965 14.5047 14.9945 14.5619 15.0818C14.6188 15.1673 14.6878 15.2389 14.7689 15.2964C14.8517 15.3535 14.9415 15.3932 15.0382 15.4155C15.1347 15.4362 15.233 15.436 15.3332 15.4151C15.4198 15.397 15.4982 15.3656 15.5686 15.3208C15.6403 15.2739 15.7064 15.2167 15.7667 15.1492C15.7926 15.1208 15.8204 15.1052 15.85 15.1026C15.8809 15.0979 15.9088 15.1045 15.9338 15.1223C15.9584 15.1384 15.9747 15.1652 15.9825 15.2025C15.986 15.2195 15.9861 15.2372 15.9829 15.2556C15.9793 15.2723 15.9721 15.2888 15.9614 15.3052C15.8849 15.3974 15.798 15.4731 15.7005 15.5325C15.6047 15.5914 15.4991 15.633 15.3837 15.6571Z" fill="black"/>
<path d="M17.3914 15.238C17.242 15.2692 17.1002 15.2731 16.9659 15.2497C16.8314 15.2246 16.7097 15.1765 16.6009 15.1053C16.4935 15.0321 16.4022 14.9386 16.3271 14.8249C16.2517 14.7096 16.1983 14.5772 16.1672 14.4278C16.136 14.2784 16.1321 14.1365 16.1554 14.0023C16.1788 13.8681 16.2252 13.7468 16.2947 13.6384C16.3656 13.5279 16.4578 13.4351 16.5715 13.36C16.6848 13.2832 16.8162 13.2292 16.9656 13.198C17.115 13.1668 17.2561 13.164 17.389 13.1894C17.5232 13.2127 17.6449 13.2609 17.754 13.3338C17.8628 13.405 17.9547 13.4974 18.0298 13.6111C18.105 13.7247 18.1581 13.8563 18.1893 14.0057C18.2205 14.1551 18.2246 14.2978 18.2015 14.4337C18.1782 14.5679 18.1311 14.6902 18.0602 14.8007C17.989 14.9095 17.8968 15.0023 17.7835 15.0791C17.6715 15.1538 17.5408 15.2068 17.3914 15.238ZM17.3414 14.9986C17.4518 14.9756 17.5487 14.9349 17.6323 14.8768C17.7171 14.8165 17.7863 14.7445 17.8396 14.6607C17.8927 14.5752 17.9271 14.4812 17.9429 14.3787C17.9604 14.2758 17.9576 14.1692 17.9346 14.0589C17.9116 13.9485 17.8715 13.8497 17.8143 13.7624C17.7588 13.6748 17.6898 13.6032 17.6073 13.5478C17.5245 13.4906 17.4324 13.4523 17.3308 13.4327C17.231 13.4128 17.1259 13.4144 17.0156 13.4374C16.9052 13.4605 16.8074 13.5012 16.7222 13.5598C16.6386 13.618 16.5704 13.6898 16.5173 13.7753C16.4656 13.8587 16.431 13.9519 16.4135 14.0548C16.396 14.1576 16.3988 14.2643 16.4218 14.3746C16.4449 14.485 16.485 14.5838 16.5422 14.6711C16.5994 14.7584 16.6685 14.8307 16.7496 14.8882C16.8321 14.9437 16.9234 14.9822 17.0236 15.0038C17.1251 15.0234 17.2311 15.0216 17.3414 14.9986Z" fill="black"/>
<path d="M19.4697 14.7776C19.4153 14.789 19.3696 14.7693 19.3324 14.7186L18.2301 13.168C18.1942 13.1152 18.1818 13.0682 18.1926 13.027C18.2035 12.9857 18.2353 12.9596 18.2879 12.9486C18.3473 12.9362 18.3936 12.954 18.4266 13.002L19.4091 14.4368L19.3811 14.4426L19.7204 12.732C19.7276 12.6986 19.7386 12.675 19.7535 12.6613C19.7697 12.6455 19.7931 12.6344 19.8236 12.6281C19.8745 12.6174 19.9133 12.6288 19.9397 12.6623C19.9675 12.6937 19.9759 12.7336 19.9647 12.782L19.5718 14.6686C19.5656 14.6982 19.5539 14.7228 19.5367 14.7424C19.5209 14.7598 19.4985 14.7716 19.4697 14.7776Z" fill="black"/>
<path d="M20.7973 14.5005C20.7599 14.5083 20.7259 14.5021 20.6951 14.482C20.6643 14.4618 20.645 14.4331 20.6372 14.3957L20.2773 12.6716C20.2692 12.6325 20.2754 12.5984 20.2959 12.5693C20.316 12.5386 20.3448 12.5193 20.3821 12.5115C20.4212 12.5033 20.4552 12.5095 20.4843 12.53C20.5148 12.5485 20.5341 12.5772 20.5422 12.6163L20.9021 14.3404C20.9099 14.3778 20.9037 14.4118 20.8836 14.4426C20.8651 14.4731 20.8363 14.4923 20.7973 14.5005Z" fill="black"/>
<path d="M21.5708 14.339C21.5334 14.3468 21.4994 14.3407 21.4686 14.3205C21.4378 14.3004 21.4185 14.2716 21.4107 14.2343L21.0508 12.5101C21.0427 12.4711 21.0488 12.437 21.0694 12.4079C21.0895 12.3771 21.1183 12.3578 21.1556 12.35L21.6166 12.2538C21.7626 12.2233 21.9002 12.2203 22.0293 12.2447C22.1598 12.2671 22.2785 12.3141 22.3856 12.3856C22.4923 12.4555 22.582 12.5457 22.6547 12.6564C22.7274 12.767 22.779 12.8953 22.8095 13.0413C22.84 13.1873 22.8442 13.3264 22.8222 13.4586C22.7998 13.5891 22.7538 13.7085 22.6843 13.8169C22.6145 13.9236 22.5244 14.0142 22.4141 14.0886C22.3052 14.1609 22.1778 14.2124 22.0317 14.2428L21.5708 14.339ZM21.6543 14.0771L21.9828 14.0085C22.1255 13.9788 22.2444 13.9203 22.3396 13.8331C22.4361 13.7438 22.5039 13.6358 22.543 13.5089C22.5817 13.3803 22.5856 13.2422 22.5548 13.0945C22.5236 12.9451 22.4647 12.82 22.3782 12.7194C22.2916 12.6188 22.1864 12.5477 22.0626 12.5062C21.9405 12.4644 21.8081 12.4583 21.6655 12.4881L21.3369 12.5567L21.6543 14.0771Z" fill="black"/>
<path d="M23.2813 13.3893C23.244 13.3971 23.2101 13.3918 23.1796 13.3734C23.1509 13.3545 23.1327 13.3265 23.1249 13.2891C23.1167 13.2501 23.122 13.2162 23.1408 13.1874C23.1613 13.1584 23.1903 13.1399 23.2276 13.1321L23.7956 13.0136C23.8329 13.0058 23.866 13.0113 23.8947 13.0301C23.9234 13.0489 23.9419 13.0778 23.95 13.1169C23.9578 13.1542 23.9523 13.1873 23.9335 13.216C23.9147 13.2447 23.8866 13.263 23.8492 13.2708L23.2813 13.3893Z" fill="black"/>
<path d="M24.7869 13.6678C24.7529 13.6748 24.7206 13.6683 24.6898 13.6482C24.659 13.628 24.6399 13.6001 24.6324 13.5644L24.3082 12.0109L24.1387 12.1287C24.1124 12.1466 24.0864 12.1582 24.061 12.1635C24.0236 12.1713 23.9897 12.166 23.9593 12.1475C23.9306 12.1287 23.9123 12.1006 23.9045 12.0633C23.8988 12.0361 23.9005 12.0101 23.9095 11.9852C23.9184 11.9603 23.9363 11.9397 23.963 11.9235L24.3306 11.698C24.3383 11.6928 24.3463 11.6885 24.3544 11.685C24.3626 11.6815 24.37 11.6791 24.3768 11.6777C24.4159 11.6695 24.4491 11.6759 24.4765 11.6967C24.5052 11.7155 24.5237 11.7445 24.5318 11.7835L24.8922 13.5102C24.8997 13.5459 24.8933 13.5791 24.8731 13.6099C24.853 13.6407 24.8242 13.66 24.7869 13.6678Z" fill="black"/>
<path d="M25.4703 11.4468C25.5892 11.422 25.6991 11.4265 25.8001 11.4603C25.9007 11.4925 25.986 11.5491 26.0561 11.6301C26.1258 11.7095 26.1729 11.8077 26.1973 11.9249C26.2218 12.042 26.2181 12.1518 26.1863 12.2541C26.1545 12.3564 26.0991 12.4433 26.0201 12.5147C25.9408 12.5844 25.8417 12.6317 25.7228 12.6565C25.6074 12.6806 25.4985 12.6767 25.3962 12.6449C25.2952 12.6111 25.2097 12.5536 25.1396 12.4726C25.0695 12.3915 25.0223 12.2924 24.9978 12.1753C24.9734 12.0581 24.9772 11.9492 25.0094 11.8486C25.0412 11.7463 25.0967 11.6603 25.1761 11.5906C25.2551 11.5192 25.3532 11.4712 25.4703 11.4468ZM25.5207 11.6754C25.4511 11.69 25.3925 11.719 25.3449 11.7626C25.2986 11.8042 25.2661 11.8562 25.2472 11.9186C25.2284 11.981 25.2267 12.0495 25.2423 12.1242C25.2575 12.1972 25.2865 12.2594 25.3291 12.3108C25.3713 12.3604 25.4221 12.3959 25.4815 12.4172C25.5426 12.4381 25.6079 12.4413 25.6775 12.4267C25.7471 12.4122 25.8049 12.3833 25.8508 12.3401C25.8984 12.2965 25.9308 12.2437 25.9479 12.1816C25.9665 12.1175 25.9681 12.0489 25.9529 11.9759C25.9373 11.9012 25.9083 11.839 25.8661 11.7894C25.8255 11.7394 25.7749 11.7048 25.7142 11.6856C25.6548 11.6643 25.5903 11.6609 25.5207 11.6754ZM26.1813 12.2684L25.7962 13.3773C25.7756 13.4313 25.7415 13.4632 25.6939 13.4731C25.66 13.4802 25.6282 13.4762 25.5984 13.4612C25.5704 13.4457 25.5498 13.4235 25.5366 13.3943C25.5248 13.3631 25.5252 13.3311 25.5379 13.2984L25.7741 12.6219L26.1813 12.2684Z" fill="black"/>
<path d="M16.2226 34.4502C16.1903 34.457 16.1609 34.4516 16.1343 34.4342C16.1077 34.4168 16.0911 34.392 16.0843 34.3598L15.7497 32.7565L15.9784 32.7087L16.3131 34.312C16.3198 34.3443 16.3145 34.3737 16.2971 34.4003C16.2797 34.4269 16.2548 34.4435 16.2226 34.4502ZM15.3187 33.0668C15.2879 33.0732 15.2603 33.069 15.2358 33.0542C15.2124 33.0377 15.1975 33.014 15.1911 32.9832C15.1847 32.9525 15.189 32.9255 15.2041 32.9025C15.2203 32.8777 15.2439 32.8621 15.2746 32.8556L16.4513 32.61C16.482 32.6036 16.5091 32.6087 16.5325 32.6252C16.557 32.64 16.5724 32.6628 16.5789 32.6936C16.5853 32.7244 16.5804 32.7522 16.5641 32.777C16.549 32.8 16.5261 32.8148 16.4953 32.8212L15.3187 33.0668Z" fill="black"/>
<path d="M17.2829 34.2289C17.2507 34.2357 17.2212 34.2303 17.1947 34.2129C17.1681 34.1955 17.1514 34.1707 17.1447 34.1384L16.8339 32.6495C16.8269 32.6158 16.8322 32.5864 16.8499 32.5613C16.8673 32.5347 16.8921 32.518 16.9244 32.5113L17.9185 32.3038C17.9522 32.2968 17.9815 32.3014 18.0063 32.3176C18.0308 32.3324 18.0464 32.3559 18.0531 32.3882C18.0595 32.4189 18.0545 32.446 18.0379 32.4694C18.0214 32.4927 17.9963 32.5079 17.9625 32.5149L17.0828 32.6986L17.1944 33.233L17.8256 33.1012C17.8593 33.0942 17.8886 33.0988 17.9134 33.115C17.9379 33.1298 17.9533 33.1526 17.9598 33.1834C17.9662 33.2142 17.9613 33.242 17.945 33.2668C17.9285 33.2901 17.9034 33.3053 17.8696 33.3124L17.2384 33.4441L17.3532 33.9939L18.2329 33.8103C18.2666 33.8033 18.2957 33.8071 18.3203 33.8219C18.3448 33.8367 18.3602 33.8595 18.3667 33.8903C18.3734 33.9225 18.3686 33.951 18.3524 33.9759C18.3358 33.9992 18.3107 34.0144 18.277 34.0214L17.2829 34.2289Z" fill="black"/>
<path d="M19.2585 33.8395C19.1646 33.8591 19.0721 33.8631 18.981 33.8515C18.8898 33.84 18.8072 33.8144 18.7332 33.7747C18.6591 33.7351 18.6002 33.6839 18.5565 33.6211C18.5354 33.5934 18.5294 33.5648 18.5386 33.5353C18.5492 33.5056 18.5721 33.4832 18.6072 33.4682C18.6324 33.4569 18.659 33.4559 18.6869 33.4654C18.7161 33.4731 18.7402 33.4895 18.7592 33.5146C18.7844 33.5475 18.82 33.5753 18.8661 33.5978C18.9135 33.62 18.9679 33.6347 19.029 33.6418C19.0902 33.649 19.1523 33.6459 19.2153 33.6328C19.2857 33.6181 19.3479 33.5936 19.402 33.5594C19.4575 33.5249 19.4993 33.4832 19.5274 33.4345C19.5552 33.3844 19.5626 33.3285 19.5498 33.2669C19.5336 33.1892 19.4882 33.126 19.4138 33.0773C19.3408 33.0282 19.2332 33.0109 19.0908 33.0253C18.9054 33.0457 18.7512 33.022 18.6285 32.9543C18.5057 32.8866 18.4305 32.7868 18.403 32.6548C18.3828 32.558 18.3928 32.4703 18.433 32.3915C18.4731 32.3127 18.5357 32.2461 18.6207 32.1916C18.7072 32.1369 18.8077 32.0975 18.922 32.0737C19.0115 32.055 19.0918 32.0512 19.163 32.0624C19.2356 32.0732 19.3014 32.0955 19.3605 32.129C19.4195 32.1626 19.4736 32.2056 19.5228 32.2581C19.5501 32.2861 19.5646 32.3152 19.5663 32.3454C19.5692 32.3739 19.5598 32.3988 19.5383 32.4201C19.5141 32.4435 19.4848 32.4535 19.4504 32.4499C19.416 32.4464 19.3878 32.4324 19.3659 32.4079C19.3336 32.3703 19.2975 32.3403 19.2576 32.318C19.2178 32.2958 19.1735 32.2813 19.1246 32.2747C19.0755 32.2666 19.0202 32.2689 18.9586 32.2818C18.8498 32.303 18.7632 32.3425 18.6987 32.4003C18.634 32.4566 18.6106 32.5281 18.6287 32.6146C18.6379 32.6586 18.6578 32.6988 18.6883 32.7352C18.72 32.7699 18.769 32.7957 18.8352 32.8124C18.9029 32.8289 18.9952 32.8311 19.112 32.8189C19.2902 32.8001 19.437 32.8253 19.5524 32.8946C19.669 32.962 19.7424 33.0683 19.7727 33.2135C19.7902 33.2971 19.7877 33.3733 19.7654 33.4422C19.7445 33.5109 19.7092 33.5725 19.6594 33.6273C19.6108 33.6803 19.5513 33.7249 19.4808 33.761C19.4118 33.7968 19.3377 33.823 19.2585 33.8395Z" fill="black"/>
<path d="M20.6426 33.5277C20.6103 33.5344 20.5809 33.5291 20.5543 33.5117C20.5278 33.4943 20.5111 33.4694 20.5044 33.4372L20.1697 31.8339L20.3984 31.7862L20.7331 33.3894C20.7398 33.4217 20.7345 33.4511 20.7171 33.4777C20.6997 33.5043 20.6748 33.5209 20.6426 33.5277ZM19.7387 32.1442C19.7079 32.1506 19.6803 32.1464 19.6558 32.1317C19.6325 32.1151 19.6176 32.0914 19.6111 32.0607C19.6047 32.0299 19.609 32.0029 19.6241 31.9799C19.6404 31.9551 19.6639 31.9395 19.6947 31.9331L20.8713 31.6875C20.9021 31.681 20.9291 31.6861 20.9525 31.7026C20.977 31.7174 20.9925 31.7402 20.9989 31.771C21.0053 31.8018 21.0004 31.8296 20.9842 31.8544C20.9691 31.8774 20.9461 31.8922 20.9153 31.8986L19.7387 32.1442Z" fill="black"/>
<path d="M21.7029 33.3063C21.6707 33.3131 21.6413 33.3077 21.6147 33.2903C21.5881 33.2729 21.5714 33.2481 21.5647 33.2158L21.2539 31.7269C21.2469 31.6932 21.2522 31.6638 21.2699 31.6387C21.2873 31.6121 21.3122 31.5954 21.3444 31.5887L22.3385 31.3812C22.3722 31.3742 22.4015 31.3788 22.4263 31.395C22.4508 31.4098 22.4664 31.4333 22.4731 31.4656C22.4796 31.4964 22.4745 31.5234 22.458 31.5468C22.4414 31.5701 22.4163 31.5853 22.3826 31.5923L21.5028 31.776L21.6144 32.3104L22.2456 32.1786C22.2793 32.1716 22.3086 32.1762 22.3334 32.1924C22.3579 32.2072 22.3734 32.23 22.3798 32.2608C22.3862 32.2916 22.3813 32.3194 22.3651 32.3442C22.3485 32.3675 22.3234 32.3827 22.2897 32.3898L21.6585 32.5215L21.7732 33.0713L22.6529 32.8877C22.6867 32.8807 22.7158 32.8845 22.7403 32.8993C22.7648 32.9141 22.7802 32.9369 22.7867 32.9677C22.7934 32.9999 22.7887 33.0285 22.7724 33.0533C22.7559 33.0766 22.7307 33.0918 22.697 33.0988L21.7029 33.3063Z" fill="black"/>
<path d="M10.1905 18.0581C10.1905 18.0581 8.86334 14.219 12.6462 12.739" stroke="white" stroke-width="0.988215" stroke-miterlimit="10"/>
<path d="M41.9963 15.0854C41.9963 15.0824 38.8727 18.6813 38.9063 18.6332L37.8484 21.1291C37.8574 21.1135 38.8216 18.6001 38.8336 18.5896L41.8158 14.9335L41.9968 15.086L41.9963 15.0854Z" fill="#1C664B"/>
</g>
<defs>
<linearGradient id="paint0_linear_611_4625" x1="0.0270388" y1="27.6396" x2="59.7807" y2="27.6396" gradientUnits="userSpaceOnUse">
<stop stop-color="#0BE5A1"/>
<stop offset="0.98" stop-color="#005EB2"/>
</linearGradient>
<clipPath id="clip0_611_4625">
<rect width="59.7536" height="58.96" fill="white" transform="translate(0.0268555)"/>
</clipPath>
</defs>
</svg>
