<svg width="69" height="68" viewBox="0 0 69 68" fill="none" xmlns="http://www.w3.org/2000/svg">
<path d="M30.234 20.8734C31.9629 20.6496 33.7309 20.4784 35.5252 20.3649C38.0486 19.6377 40.2013 18.3648 41.7545 16.4525C43.4314 14.0304 45.1834 12.2259 46.9571 10.9626C65.8022 -2.49839 86.7827 45.1783 40.942 62.6677C32.2508 65.9837 22.5772 65.9465 14.0554 62.2175C4.05538 57.8428 -3.31476 49.0811 1.52235 36.4307C4.671 28.1948 16.1902 22.7107 30.234 20.8734Z" fill="url(#paint0_linear_613_4939)"/>
<path d="M55.8729 23.8393L63.0288 26.1755L55.086 26.3377L57.5729 30.4169L53.1846 28.3327L54.0625 33.0826L50.7427 29.4325L50.6779 29.2895L50.6523 29.3331L49.6724 28.2551C48.5822 27.0566 47.0445 26.4737 45.44 26.4987C44.632 26.5122 43.808 26.6783 43.0147 26.9983L45.9755 25.0744L37.0566 22.8345L46.7623 22.576L39.6455 16.2973L48.6637 20.581L48.9773 11.4147L51.171 19.6249L57.4324 8.80536L53.6124 19.9629L60.3323 15.3271L55.3335 21.5051L67.6556 18.4373L55.8722 23.8393H55.8729Z" fill="#2DB58B"/>
<path d="M21.5006 14.1586L25.8927 5.51558L24.4447 15.0872L30.034 12.0578L26.5308 17.3631L32.6203 16.2678L27.3914 20.2975L27.2003 20.3764L27.249 20.4066L25.7054 21.5961C23.9881 22.9191 22.9441 24.7775 22.6414 26.7109C22.4901 27.6844 22.5254 28.6764 22.7588 29.63L20.9818 26.0767L16.3435 36.8437L18.0378 25.1481L8.75149 33.7752L15.9517 22.8723L4.61721 22.5664L15.2835 19.8576L3.12817 12.3977L16.2108 16.9136L11.8418 8.85148L18.4866 14.8275L17.2304 0L21.5006 14.1586Z" fill="#2DB58B"/>
<path d="M40.3733 54.7935C40.3733 54.7935 39.9584 57.0527 39.8115 58.1288C41.584 58.2705 41.0697 58.2891 43.2334 58.3686C43.2334 60.6496 42.4061 67.7985 31.981 67.7985C22.8056 67.7985 20.844 60.3694 20.844 57.5209C20.844 57.5209 22.8409 57.3163 24.8808 57.4734C25.9408 52.6645 26.8514 47.3984 26.8514 47.3984C26.8514 47.3984 38.9343 50.7279 40.3733 54.7935Z" fill="#9B6150"/>
<path d="M24.5362 37.6574C24.5362 37.6574 19.601 36.9713 19.0783 41.6801C18.555 46.389 24.011 48.1826 26.8512 47.3984C26.8512 47.3984 29.3848 58.8303 45.3121 54.5364C60.5596 50.4258 51.5132 29.0573 48.8186 26.5679C48.8186 26.5679 43.219 20.1552 30.1396 23.518C17.0602 26.8815 24.5362 37.6574 24.5362 37.6574Z" fill="#AA695B"/>
<path d="M31.1291 26.4198C31.1291 26.4198 33.2363 35.1071 30.8053 40.4233C30.3192 41.0716 26.2131 37.6568 26.2131 37.6568C26.2131 37.6568 24.4304 37.3112 21.9993 38.2186C18.65 36.3172 13.8019 23.7329 23.7705 19.7153C23.7705 19.7153 29.4907 13.216 43.4454 15.1161C55.6886 16.7828 57.6021 24.95 57.2783 26.1171C56.9538 27.2842 45.5545 28.0621 38.8019 26.1607C39.9915 27.2547 42.6913 28.1487 44.9607 28.4943C47.2295 28.84 36.0676 30.8048 31.1298 26.4198H31.1291Z" fill="black"/>
<path d="M48.3745 47.6792C48.0705 48.6553 47.628 49.6313 46.9803 50.3354C46.5186 50.8375 45.7234 49.8051 45.0302 49.9346C43.9317 50.1385 43.3321 51.2319 42.7358 50.681C41.509 49.5485 41.2512 47.3701 41.5872 46.3755C41.6116 46.3037 41.6385 46.2377 41.668 46.1799C42.3215 44.9096 44.5621 45.6317 46.2371 45.3591C46.2557 45.3565 46.2762 45.3521 46.2948 45.3495C46.9816 45.2334 47.6152 45.5034 48.0173 45.969C48.4008 46.4146 48.572 47.0405 48.3751 47.6792H48.3745Z" fill="#7A0000"/>
<path d="M41.7251 49.0278C41.9316 49.6498 42.2606 50.2437 42.7351 50.681C43.3321 51.2319 43.9304 50.1385 45.0302 49.9346C45.7241 49.8057 46.5186 50.8375 46.9803 50.3354C47.2836 50.0057 47.5414 49.6171 47.762 49.1971C46.2159 47.1604 42.796 47.7671 41.7257 49.0278H41.7251Z" fill="#FF7F6F"/>
<path d="M48.0172 45.969C46.171 46.7545 42.6138 46.5923 41.5872 46.3755C41.6115 46.3037 41.6385 46.2377 41.668 46.1799C42.3214 44.9096 44.562 45.6317 46.237 45.3591C46.2556 45.3565 46.2761 45.3521 46.2947 45.3495C46.9815 45.2334 47.6151 45.5034 48.0172 45.969Z" fill="white"/>
<defs>
<linearGradient id="paint0_linear_613_4939" x1="-2.81655e-05" y1="36.8437" x2="68.5186" y2="36.8437" gradientUnits="userSpaceOnUse">
<stop stop-color="#0BE5A1"/>
<stop offset="0.98" stop-color="#005EB2"/>
</linearGradient>
</defs>
</svg>
