<svg width="49" height="68" viewBox="0 0 49 68" fill="none" xmlns="http://www.w3.org/2000/svg">
<g clip-path="url(#clip0_611_2864)">
<path d="M41.4774 32.9086C41.3848 34.5801 41.2368 36.2784 41.029 37.9923C41.268 40.5016 42.0815 42.7583 43.5972 44.5612C45.5668 46.5709 46.9471 48.5429 47.8175 50.4394C57.1041 70.5989 8.90752 81.9966 0.568286 35.6475C-1.01284 26.8605 0.709971 17.736 5.6791 10.35C11.5108 1.68409 20.9812 -3.72766 31.9541 3.0677C39.0983 7.49149 42.2115 19.3297 41.4774 32.9086Z" fill="url(#paint0_linear_611_2864)"/>
<path d="M2.06217 52.7684L9.70699 58.9841C10.9674 60.009 12.8404 59.6102 13.5839 58.159C12.9751 56.161 12.6941 53.7627 12.8272 50.9373C12.7595 48.5728 11.8696 46.3459 10.3851 44.3197C9.09587 43.1862 7.86118 42.0244 6.68565 40.8445L1.48531 49.4003C0.811132 50.5094 1.05791 51.952 2.06139 52.7684H2.06217Z" fill="#E0F9FC"/>
<path d="M10.3859 44.3197C11.8705 46.3459 12.7595 48.5728 12.828 50.9373C12.6949 53.7627 12.9752 56.161 13.5847 58.159L24.8908 36.0817L12.8825 30.655L6.68726 40.8445C7.86278 42.0236 9.09825 43.1862 10.3867 44.3197H10.3859Z" fill="#E0F9FC"/>
<path d="M13.8976 33.272C14.5889 33.9186 15.5433 34.577 16.6705 35.1638C17.0505 35.3612 17.4522 35.5531 17.8718 35.7301C18.7616 36.1108 19.6366 36.4026 20.4525 36.6001C20.9281 36.7173 21.382 36.803 21.8063 36.8549C23.4014 37.0524 24.5855 36.8038 24.8883 36.0825C25.1686 35.4123 24.6338 34.4771 23.554 33.5324C23.3531 33.3522 23.1289 33.1745 22.8907 32.9975C22.0632 32.3847 21.027 31.7869 19.8593 31.2804C19.825 31.263 19.7915 31.2489 19.7573 31.2347C18.1964 30.5653 16.6838 30.176 15.4569 30.0753C14.0486 29.9549 13.021 30.2185 12.743 30.8823C12.4799 31.5124 12.9384 32.3824 13.896 33.272H13.8976Z" fill="#A7BEC1"/>
<path d="M13.8977 33.272C14.589 33.9186 15.5434 34.577 16.6707 35.1638C17.0506 35.3612 17.4523 35.5531 17.8719 35.7301C18.7617 36.1108 19.6368 36.4026 20.4526 36.6001L22.5491 32.8937C22.6597 32.9338 22.7725 32.9707 22.8917 32.9967C26.5996 33.8926 33.9626 28.6602 34.362 28.3739C34.3737 28.3653 34.3791 28.3597 34.3791 28.3597L39.1381 27.3977C39.1381 27.3977 40.7892 24.5613 36.9116 24.4952C36.4779 24.4866 35.9797 24.5125 35.3989 24.581C35.3086 24.5928 35.2207 24.6006 35.1327 24.6124C34.991 24.6297 34.8493 24.647 34.7162 24.6667C34.6819 24.6698 34.6539 24.6722 34.6228 24.6785C34.541 24.6872 34.4585 24.6982 34.3791 24.71C33.9829 24.7642 33.6146 24.8162 33.2799 24.8704C33.1468 24.8901 33.0168 24.9105 32.8914 24.9334C32.4866 24.9994 32.1293 25.0647 31.8148 25.1308C31.7696 25.1394 31.7244 25.1481 31.6816 25.1567C31.4348 25.2087 31.2169 25.2598 31.0246 25.3086C30.9763 25.3204 30.9281 25.3345 30.8829 25.3455C30.6595 25.403 30.4695 25.4604 30.3107 25.5146C30.2827 25.5233 30.2515 25.5343 30.2258 25.543C29.8856 25.6602 29.7019 25.7609 29.6023 25.8324C29.5828 25.8466 29.5657 25.8584 29.5509 25.8694L29.5478 25.8725C29.5423 25.8781 29.5338 25.8843 29.5283 25.8922C29.5229 25.8954 29.5166 25.9009 29.5112 25.9064V25.9095L29.5057 25.915C29.5057 25.915 29.5026 25.9182 29.5003 25.9205L31.4746 22.3541L33.2908 19.0685L27.9877 17.9178H33.9704C33.9704 17.9178 36.5542 19.5664 38.186 19.9786C39.8177 20.3908 40.6335 19.0685 40.6335 19.0685L35.7384 15.1702L27.3081 14.2082L21.1891 18.3299L15.4586 30.0737L13.8977 33.2712V33.272Z" fill="#A06635"/>
<path d="M28.7022 14.3679H35.6028L42.0619 16.9566C42.0619 16.9566 40.9744 19.6011 39.0702 19.0686L34.8546 15.9261L28.7014 15.5824V14.3671L28.7022 14.3679Z" fill="#875027"/>
<path d="M16.6714 35.1638C17.0513 35.3612 17.453 35.5531 17.8727 35.7301C18.7625 36.1108 19.6375 36.4027 20.4534 36.6001C20.929 36.7173 21.3829 36.803 21.8072 36.855L23.5012 33.5119C23.5183 33.5174 23.5354 33.5261 23.5549 33.5316C27.136 34.7854 33.9766 28.72 34.3619 28.3739C34.3736 28.3653 34.3791 28.3598 34.3791 28.3598L39.138 27.3978C39.138 27.3978 40.7892 24.5613 36.9115 24.4952C36.4779 24.4866 35.9797 24.5126 35.3989 24.581C35.3086 24.5928 35.2206 24.6007 35.1327 24.6125C34.991 24.6298 34.8493 24.6471 34.7162 24.6667C34.6819 24.6699 34.6539 24.6722 34.6227 24.6785C34.541 24.6872 34.4585 24.6982 34.3791 24.71C33.9828 24.7643 33.6146 24.8162 33.2798 24.8705C33.1467 24.8901 33.0167 24.9106 32.8914 24.9334C32.4865 24.9995 32.1292 25.0647 31.8147 25.1308C31.7696 25.1395 31.7244 25.1481 31.6816 25.1568C31.4348 25.2087 31.2168 25.2598 31.0245 25.3086C30.9763 25.3204 30.928 25.3345 30.8829 25.3456C30.6594 25.403 30.4695 25.4604 30.3107 25.5147C30.2826 25.5233 30.2515 25.5343 30.2258 25.543C29.8856 25.6602 29.7019 25.7609 29.6022 25.8325C29.5828 25.8466 29.5656 25.8584 29.5508 25.8694L29.5477 25.8726C29.5423 25.8781 29.5337 25.8844 29.5283 25.8922C29.5228 25.8954 29.5166 25.9009 29.5111 25.9064V25.9095L29.5057 25.915C29.5057 25.915 29.5026 25.9182 29.5002 25.9206L31.4745 22.3541C30.4321 22.1599 30.8509 20.4136 29.9082 19.9094C28.8315 22.0136 25.9962 19.045 24.5545 20.8455C24.5264 20.8824 24.5093 20.9344 24.5031 20.9973C24.4408 21.6187 25.2824 23.5073 25.2824 25.4423C25.2824 25.5595 25.2792 25.6767 25.2707 25.7947C25.2738 25.8002 25.2707 25.8065 25.2707 25.812C25.2652 25.9206 25.2567 26.0267 25.2427 26.1353C25.2427 26.1471 25.2395 26.155 25.2395 26.1668C25.1913 26.5616 25.0979 26.9541 24.9453 27.3285C24.0134 29.6128 22.1692 31.035 19.8601 31.2788C19.6282 31.3016 19.3899 31.3134 19.1494 31.3134C18.62 31.3134 17.5714 33.5772 16.6707 35.163L16.6714 35.1638Z" fill="#875027"/>
<path d="M30.3075 29.0268C28.9062 27.6447 27.1352 26.6324 25.2395 26.1691C25.5322 23.7983 24.222 21.2631 24.5545 20.8478C25.9978 19.0449 28.8338 22.0151 29.9097 19.911C30.8525 20.4136 30.4321 22.1598 31.4753 22.3549L29.501 25.926C29.6038 25.7868 30.334 25.1843 35.3997 24.5825C35.9804 24.5133 36.4794 24.4882 36.9123 24.496C34.1214 25.0388 31.8061 26.7252 30.3075 29.0268Z" fill="#633618"/>
<path d="M38.2865 25.4777L39.7143 20.7377L38.3589 20.3216L36.9312 25.0616L36.9475 25.0734C37.3056 25.3361 37.7369 25.4777 38.1791 25.4777H38.2865Z" fill="#E3E6E8"/>
<path d="M36.2242 25.1489C36.1673 25.3919 36.731 25.7388 37.4845 25.919C38.2381 26.0991 38.8952 26.0503 38.952 25.8041C38.9575 25.7758 38.9575 25.7467 38.9489 25.7152C38.8897 25.9559 38.235 26.0047 37.4845 25.8238C36.8135 25.6633 36.295 25.3715 36.2296 25.1371C36.2265 25.1402 36.2242 25.1457 36.2242 25.1489Z" fill="#969696"/>
<path d="M36.2295 25.1371C36.2949 25.3715 36.8134 25.6641 37.4844 25.8238C38.2349 26.0039 38.8896 25.9551 38.9488 25.7152C38.906 25.5689 38.6794 25.4006 38.354 25.2574C38.1641 25.1717 37.9375 25.097 37.6907 25.0372C37.433 24.9743 37.1863 24.9397 36.9714 24.931C36.5689 24.9113 36.2746 24.9853 36.2295 25.1371Z" fill="#E3E6E8"/>
<path d="M43.2765 10.9258L40.6351 20.8046C40.6351 20.8046 38.4592 21.1483 37.6099 19.9118L39.9383 10.2808L43.2773 10.9266L43.2765 10.9258Z" fill="#007AFF"/>
<path d="M42.4654 9.69002L42.1913 10.6025C42.1913 10.6025 41.5288 10.6497 41.2354 10.3279L41.5094 9.38797L42.4654 9.69081V9.69002Z" fill="#E3E6E8"/>
<path d="M40.9753 9.44302C40.9302 9.68922 41.3404 9.97554 41.8963 10.0841C42.4513 10.1903 42.9387 10.0786 42.9838 9.83238C42.9869 9.81507 42.9893 9.80091 42.9869 9.78361C42.8935 9.99835 42.4319 10.0896 41.9134 9.98655C41.3949 9.88901 41.001 9.6318 40.9924 9.39661C40.9839 9.41077 40.9784 9.42492 40.9753 9.44223V9.44302Z" fill="#969696"/>
<path d="M42.618 9.69002L42.8219 8.03504L42.133 7.82895L41.3879 9.39741L42.618 9.69002Z" fill="#E3E6E8"/>
<path d="M44.2928 0.399155L42.3293 7.89203L42.6033 7.96531L44.5668 0.472439L44.2928 0.399155Z" fill="#494949"/>
<path d="M43.2736 10.924C43.3301 10.6257 42.6286 10.2395 41.7067 10.0613C40.7848 9.88311 39.9917 9.98044 39.9353 10.2787C39.8788 10.5769 40.5803 10.9632 41.5022 11.1414C42.4241 11.3196 43.2172 11.2222 43.2736 10.924Z" fill="#479DEA"/>
<path d="M29.4847 15.9269L33.2923 19.0693L34.0755 24.7532L29.9612 27.3301C29.9612 27.3301 28.0227 25.7939 30.812 23.5561L30.0966 20.8046L25.7456 17.3695L29.4847 15.9269Z" fill="#A06635"/>
<path d="M24.4533 20.3231C24.4533 20.3231 25.1329 21.9718 26.289 21.6281L25.7448 23.5513C25.7448 23.5513 24.3848 23.5513 24.0454 24.9939L26.9686 25.9559L30.0958 20.8038L25.7448 17.3687L23.5012 19.6357L24.4533 20.3224V20.3231Z" fill="#A06635"/>
<path d="M23.5308 19.8229C23.8788 20.287 24.2618 20.7102 24.704 21.083C24.9251 21.2671 25.1641 21.4354 25.4288 21.5636C25.6927 21.6879 25.9955 21.7752 26.3038 21.7241L26.1972 21.6022L25.6779 23.5324L25.7456 23.4813C25.5315 23.4923 25.3338 23.5403 25.14 23.615C24.9477 23.6898 24.7678 23.7967 24.6106 23.9312C24.293 24.2003 24.0944 24.5881 24.0072 24.9861L23.9995 25.0222L24.0337 25.0333L26.9694 25.9567L24.0578 24.957L24.0843 25.0042C24.1785 24.6203 24.377 24.26 24.6806 24.0162C24.8309 23.8943 25.0022 23.7983 25.1836 23.733C25.3642 23.6685 25.5603 23.6276 25.7448 23.6229L25.7978 23.6213L25.8126 23.571L26.3809 21.6549L26.4229 21.5117L26.2734 21.5321C26.0212 21.5675 25.7604 21.4881 25.5222 21.3677C25.284 21.2443 25.0629 21.0799 24.8566 20.8982C24.4455 20.534 24.0781 20.1037 23.7612 19.6561L23.53 19.8213L23.5308 19.8229Z" fill="#683A14"/>
<path d="M29.9604 27.3301C29.6825 27.0808 29.4754 26.7512 29.3828 26.3893C29.2855 26.0283 29.3213 25.6413 29.4513 25.296C29.5073 25.1182 29.6062 24.9601 29.6973 24.7989C29.7993 24.6447 29.9145 24.4976 30.0305 24.3544C30.1605 24.2223 30.2827 24.0823 30.4197 23.9572L30.8424 23.5954L30.8674 23.5741L30.8596 23.5435L30.1745 20.7841L30.1683 20.7581L30.1465 20.74L25.8328 17.257L25.6584 17.4828L30.0476 20.869L30.0196 20.8258L30.7646 23.5694L30.7817 23.5175L30.3613 23.8943C30.2251 24.0241 30.1044 24.1696 29.9752 24.3064C29.86 24.4551 29.7455 24.6069 29.6459 24.7666C29.5564 24.9334 29.4591 25.097 29.4061 25.2802C29.2808 25.6366 29.2535 26.033 29.3602 26.3972C29.4622 26.7614 29.6786 27.0878 29.962 27.3309L29.9604 27.3301Z" fill="#683A14"/>
<path d="M40.9924 9.39739C41.001 9.6318 41.3949 9.8898 41.9134 9.98734C42.4319 10.0904 42.8935 9.99914 42.9869 9.7844C42.9753 9.55235 42.5845 9.29514 42.0636 9.19445C41.5452 9.09141 41.0835 9.18265 40.9924 9.39739Z" fill="#E3E6E8"/>
<g opacity="0.5">
<path d="M25.2396 26.1691L23.5012 25.7325L23.9263 24.9861L25.2832 25.4014L25.2396 26.1691Z" fill="#683A14"/>
</g>
<path d="M28.0295 14.2916L35.739 15.171L40.6341 19.0693C40.6341 19.0693 39.8183 20.3916 38.1866 19.9794C36.5548 19.5672 33.971 17.9185 33.971 17.9185H32.1042C30.9528 17.1154 29.6543 16.5302 28.2973 16.2282C28.2779 15.5666 28.1868 14.9185 28.0295 14.2916Z" fill="#A06635"/>
<g opacity="0.5">
<path d="M29.793 27.1657C29.3906 26.7142 28.5568 25.3644 30.8113 23.5553L30.0959 20.8038L25.7449 17.3687L26.6931 17.003C27.9068 18.4369 29.4957 19.561 31.2457 20.2193C31.2434 21.507 31.5252 22.7435 32.018 23.8864C31.0931 24.8225 30.3395 25.9347 29.793 27.1649V27.1657Z" fill="#683A14"/>
</g>
<g opacity="0.5">
<path d="M24.5787 25.1701L24.0454 24.9947C24.3856 23.5521 25.7448 23.5521 25.7448 23.5521L26.289 21.6289C25.1329 21.9726 24.4533 20.3239 24.4533 20.3239L23.5012 19.6372L24.1785 18.9529C25.2676 19.7804 26.5062 20.405 27.8117 20.7731C27.3361 21.7713 27.0013 22.852 26.8262 23.9816C26.0212 24.2836 25.2684 24.6848 24.5787 25.1709V25.1701Z" fill="#683A14"/>
</g>
<g opacity="0.5">
<path d="M31.3882 17.095C32.4057 17.095 33.3757 16.9455 34.2873 16.6734C35.891 18.2104 37.9532 19.2754 40.1299 19.5995C39.7258 19.9118 39.0789 20.2052 38.1868 19.9794C36.555 19.5672 33.9712 17.9185 33.9712 17.9185H32.1044C31.642 17.596 31.1546 17.3105 30.6501 17.0619C30.8954 17.0816 31.1414 17.095 31.3882 17.095Z" fill="#683A14"/>
</g>
<path d="M31.898 17.9185L29.4177 15.8128L29.2449 16.0402L31.898 17.9185Z" fill="#683A14"/>
<path d="M38.1042 25.5217C38.2109 25.5217 38.2825 25.5139 38.291 25.5131L38.2833 25.4423C38.277 25.4431 37.6862 25.5068 37.3195 25.2527L37.2798 25.3117C37.539 25.4903 37.8917 25.5217 38.105 25.5217H38.1042Z" fill="#969696"/>
</g>
<defs>
<linearGradient id="paint0_linear_611_2864" x1="-1.52675e-05" y1="34.0004" x2="49" y2="34.0004" gradientUnits="userSpaceOnUse">
<stop offset="0.02" stop-color="#005EB2"/>
<stop offset="1" stop-color="#0BE5A1"/>
</linearGradient>
<clipPath id="clip0_611_2864">
<rect width="49" height="68" fill="white"/>
</clipPath>
</defs>
</svg>
