<svg width="76" height="49" viewBox="0 0 76 49" fill="none" xmlns="http://www.w3.org/2000/svg">
<g clip-path="url(#clip0_613_4892)">
<path d="M75.9982 22.717C75.848 25.3661 74.9822 32.3265 70.8196 35.3119C70.0091 35.887 68.939 36.2768 67.6893 36.6136C65.3741 37.2371 62.4425 37.6759 59.4053 38.7715C58.4187 39.0751 57.4479 39.4041 56.4906 39.7505C56.3935 39.786 56.297 39.8215 56.2005 39.8564C54.1088 40.623 52.0729 41.469 50.0398 42.3117C48.9048 42.7826 47.7709 43.2529 46.6285 43.7064C45.669 44.0888 44.7038 44.4589 43.7268 44.811C42.2807 45.3314 40.8098 45.8091 39.2961 46.2169C39.1685 46.2513 39.0404 46.2851 38.9123 46.3189C19.9087 50.8234 11.6456 35.6611 24.6758 20.5219C26.2483 18.6935 28.1324 16.8662 30.3449 15.0739C30.3545 15.066 30.3641 15.0581 30.3737 15.0508C30.8952 14.6289 31.4354 14.2081 31.9936 13.7908C32.4316 13.4629 32.8797 13.1368 33.3403 12.8129C35.9976 10.9417 39.0376 9.12739 42.4817 7.41108C52.5713 3.79428 60.0042 9.23385 67.9117 14.1952C71.4281 16.4629 76.1077 18.2975 75.9987 22.7176L75.9982 22.717Z" fill="url(#paint0_linear_613_4892)"/>
<path d="M69.8566 19.4218C68.686 19.4218 67.6706 20.0797 67.1581 21.0457C67.074 21.0682 66.9815 21.0772 66.8782 21.0739C66.3668 21.057 65.8543 21.0626 65.3418 21.0716C65.0698 21.0761 64.9343 20.9866 64.8965 20.6908C64.5708 18.0964 63.604 15.761 61.9987 13.6955C61.795 13.4319 61.8097 13.2742 62.0445 13.0568C62.4508 12.6805 62.8347 12.2794 63.2241 11.8851C63.2422 11.8671 63.2608 11.8508 63.28 11.835C63.5464 11.911 63.8275 11.9522 64.1181 11.9522C65.8035 11.9522 67.17 10.5896 67.17 8.90766C67.17 7.22571 65.8035 5.86202 64.1181 5.86202C62.4328 5.86202 61.0674 7.22571 61.0674 8.90766C61.0674 9.24506 61.1233 9.5712 61.2255 9.8748C61.2052 9.89846 61.1832 9.92155 61.1583 9.94409C60.7576 10.3271 60.3647 10.7192 59.9809 11.118C59.8099 11.2954 59.6756 11.3089 59.4741 11.1523C57.3722 9.51938 54.9988 8.5297 52.3516 8.20694C52.0988 8.17652 52.0113 8.0481 52.0135 7.81265C52.0169 7.22966 52.0169 6.64779 52.0135 6.06593C52.0113 5.87948 52.0773 5.73754 52.2297 5.63051C52.2388 5.62375 52.2478 5.61699 52.2557 5.61024C53.1029 5.06949 53.6645 4.12262 53.6645 3.04564C53.6645 1.36369 52.2991 0 50.6138 0C48.9284 0 47.562 1.36369 47.562 3.04564C47.562 4.13896 48.1405 5.09822 49.008 5.63446C49.1581 5.7719 49.2219 5.9313 49.2163 6.14929C49.205 6.68891 49.2072 7.22909 49.2151 7.76871C49.2197 8.04021 49.131 8.1754 48.8347 8.21314C46.2339 8.53702 43.8938 9.50417 41.824 11.105C41.5599 11.3083 41.4018 11.2948 41.184 11.0605C40.8069 10.6549 40.4062 10.2719 40.0111 9.88213C39.9016 9.77398 39.8424 9.66188 39.8288 9.52163C39.8689 9.32392 39.8903 9.11832 39.8903 8.90822C39.8903 7.22628 38.525 5.86258 36.8396 5.86258C35.1543 5.86258 33.7878 7.22628 33.7878 8.90822C33.7878 10.5902 35.1543 11.9527 36.8396 11.9527C37.1946 11.9527 37.5367 11.8913 37.8533 11.7798C37.9273 11.8175 37.9978 11.8705 38.0661 11.9437C38.4499 12.3436 38.8428 12.7357 39.2424 13.1198C39.4202 13.2894 39.4337 13.4246 39.2768 13.6257C37.6405 15.7233 36.6466 18.0919 36.3243 20.7337C36.2938 20.9871 36.164 21.0722 35.9281 21.0699C35.345 21.0665 34.7609 21.0654 34.1778 21.0699C33.9899 21.0722 33.8488 21.0051 33.7415 20.8531C33.6196 20.679 33.4819 20.5247 33.3306 20.3895C32.7735 19.7952 31.9811 19.4223 31.1011 19.4223C29.4158 19.4223 28.0493 20.7849 28.0493 22.4669C28.0493 24.1488 29.4158 25.5125 31.1011 25.5125C32.0076 25.5125 32.8215 25.1171 33.3808 24.4896C33.4903 24.3848 33.5914 24.2705 33.6862 24.1443C33.8375 23.9398 34.0107 23.8548 34.2625 23.8604C34.8032 23.8728 35.3445 23.8705 35.8852 23.8627C36.1572 23.8581 36.2938 23.9466 36.3305 24.2423C36.6551 26.8379 37.6242 29.1721 39.2283 31.2376C39.432 31.5001 39.4207 31.659 39.1859 31.8775C38.7784 32.2538 38.3946 32.6537 38.0052 33.048C37.9594 33.0936 37.9143 33.1297 37.8652 33.1584C37.5452 33.0435 37.2003 32.981 36.8402 32.981C35.1548 32.981 33.7884 34.3447 33.7884 36.0266C33.7884 37.7086 35.1548 39.0711 36.8402 39.0711C38.5256 39.0711 39.8909 37.7086 39.8909 36.0266C39.8909 35.8312 39.8717 35.6402 39.8361 35.4549C39.8497 35.2741 39.9214 35.131 40.0698 34.9891C40.4706 34.6072 40.8623 34.214 41.2472 33.8152C41.4171 33.6389 41.5526 33.6231 41.7552 33.7808C43.8582 35.4126 46.2316 36.4023 48.8776 36.7273C49.1316 36.7577 49.2157 36.8884 49.2146 37.1239C49.2101 37.7057 49.2101 38.2876 49.2146 38.8706C49.2146 38.9117 49.2112 38.9489 49.2055 38.9866C48.1569 39.4682 47.4282 40.5255 47.4282 41.7534C47.4282 43.4354 48.7947 44.798 50.4789 44.798C52.1631 44.798 53.5307 43.4354 53.5307 41.7534C53.5307 40.6911 52.9855 39.7566 52.1597 39.2114C52.0446 39.0548 51.9994 38.8796 52.0085 38.6554C52.0288 38.1586 52.0209 37.6612 52.0119 37.1644C52.0073 36.8918 52.0982 36.7577 52.3945 36.72C54.9943 36.3961 57.3344 35.4301 59.403 33.8293C59.666 33.6259 59.8252 33.6383 60.0441 33.8726C60.4201 34.2793 60.8219 34.6612 61.217 35.051C61.2204 35.0533 61.2227 35.0566 61.2249 35.06C61.1233 35.3636 61.068 35.6875 61.068 36.026C61.068 37.708 62.4333 39.0706 64.1187 39.0706C65.8041 39.0706 67.1705 37.708 67.1705 36.026C67.1705 34.3441 65.8041 32.9804 64.1187 32.9804C63.8297 32.9804 63.5503 33.0215 63.2851 33.0964C63.2439 33.0672 63.2032 33.0317 63.162 32.9894C62.7793 32.5895 62.3865 32.1975 61.9869 31.8133C61.8102 31.6449 61.7922 31.5108 61.9502 31.3086C63.5853 29.2098 64.5782 26.8413 64.9027 24.2006C64.9332 23.9471 65.063 23.8621 65.2989 23.8632C65.882 23.8677 66.4661 23.8677 67.0492 23.8632C67.0848 23.8632 67.1175 23.8666 67.1508 23.8711C67.6588 24.8461 68.6798 25.5119 69.8572 25.5119C71.5426 25.5119 72.909 24.1482 72.909 22.4663C72.909 20.7843 71.5426 19.4218 69.8572 19.4218H69.8566ZM43.5303 29.9049C42.4946 29.9049 41.6547 29.0668 41.6547 28.0332C41.6547 26.9995 42.4946 26.1614 43.5303 26.1614C44.566 26.1614 45.4059 26.9995 45.4059 28.0332C45.4059 29.0668 44.566 29.9049 43.5303 29.9049ZM46.082 21.7436C44.8206 21.738 43.7318 20.6469 43.7374 19.3936C43.7419 18.1347 44.8364 17.047 46.0922 17.0526C47.3537 17.0583 48.4425 18.1482 48.4368 19.4026C48.4312 20.6616 47.3379 21.7492 46.082 21.7436ZM56.7869 20.3799C55.719 20.4036 54.7578 19.4573 54.7544 18.3775C54.751 17.301 55.71 16.3525 56.7812 16.3716C57.8559 16.3897 58.7669 17.3067 58.7703 18.3718C58.7736 19.4342 57.8627 20.3546 56.7869 20.3799Z" fill="url(#paint1_linear_613_4892)"/>
<path d="M64.1177 32.9799C63.8287 32.9799 63.5493 33.021 63.284 33.0959C63.2428 33.0666 63.2022 33.0311 63.161 32.9889C62.7783 32.589 62.3854 32.1969 61.9858 31.8128C61.8092 31.6444 61.7911 31.5103 61.9491 31.3081C62.6078 30.4626 63.1604 29.5726 63.6091 28.6393C62.1868 28.8342 60.7311 28.9068 59.2399 28.8505C53.537 28.833 48.2213 27.3978 43.2933 24.5459C41.162 22.9023 39.0302 21.2592 36.899 19.6156C36.7895 19.5057 36.6811 19.3948 36.5739 19.2838C36.4672 19.7575 36.3836 20.2403 36.3238 20.7331C36.2933 20.9866 36.1635 21.0717 35.9276 21.0694C35.3445 21.066 34.7604 21.0649 34.1773 21.0694C33.9894 21.0717 33.8483 21.0046 33.741 20.8525C33.6191 20.6785 33.4814 20.5241 33.3301 20.389C32.773 19.7947 31.9806 19.4218 31.1007 19.4218C29.4153 19.4218 28.0488 20.7844 28.0488 22.4663C28.0488 24.1483 29.4153 25.512 31.1007 25.512C32.0071 25.512 32.821 25.1165 33.3804 24.4891C33.4899 24.3843 33.5909 24.2699 33.6857 24.1438C33.837 23.9393 34.0103 23.8542 34.262 23.8599C34.8027 23.8723 35.344 23.87 35.8847 23.8621C36.1568 23.8576 36.2933 23.9461 36.33 24.2418C36.6546 26.8374 37.6237 29.1716 39.2278 31.2371C39.4315 31.4996 39.4202 31.6584 39.1854 31.877C38.7779 32.2533 38.3941 32.6532 38.0047 33.0475C37.959 33.0931 37.9138 33.1292 37.8647 33.1579C37.5447 33.043 37.1998 32.9804 36.8397 32.9804C35.1543 32.9804 33.7879 34.3441 33.7879 36.0261C33.7879 37.708 35.1543 39.0706 36.8397 39.0706C38.5251 39.0706 39.8904 37.708 39.8904 36.0261C39.8904 35.8306 39.8712 35.6397 39.8357 35.4544C39.8492 35.2735 39.9209 35.1305 40.0693 34.9885C40.4701 34.6066 40.8618 34.2135 41.2467 33.8147C41.4166 33.6384 41.5521 33.6226 41.7547 33.7803C43.8577 35.4121 46.2311 36.4018 48.8771 36.7268C49.1311 36.7572 49.2152 36.8879 49.2141 37.1233C49.2096 37.7052 49.2096 38.2871 49.2141 38.8701C49.2141 38.9112 49.2107 38.9484 49.2051 38.9861C48.1564 39.4677 47.4277 40.525 47.4277 41.7529C47.4277 43.4349 48.7942 44.7974 50.4784 44.7974C52.1626 44.7974 53.5302 43.4349 53.5302 41.7529C53.5302 40.6906 52.985 39.7561 52.1592 39.2108C52.0441 39.0543 51.9989 38.8791 52.008 38.6549C52.0283 38.1581 52.0204 37.6607 52.0114 37.1639C52.0069 36.8913 52.0977 36.7572 52.394 36.7195C54.9938 36.3956 57.3339 35.4296 59.4025 33.8287C59.6655 33.6254 59.8247 33.6378 60.0437 33.8721C60.4196 34.2788 60.8214 34.6607 61.2165 35.0505C61.2199 35.0527 61.2222 35.0561 61.2244 35.0595C61.1228 35.3631 61.0675 35.687 61.0675 36.0255C61.0675 37.7075 62.4329 39.07 64.1182 39.07C65.8036 39.07 67.17 37.7075 67.17 36.0255C67.17 34.3436 65.8036 32.9799 64.1182 32.9799H64.1177ZM43.5304 29.905C42.4946 29.905 41.6548 29.0668 41.6548 28.0332C41.6548 26.9996 42.4946 26.1614 43.5304 26.1614C44.5661 26.1614 45.4059 26.9996 45.4059 28.0332C45.4059 29.0668 44.5661 29.905 43.5304 29.905Z" fill="url(#paint2_linear_613_4892)"/>
<path opacity="0.3" d="M64.0663 6.4422C62.7749 6.4422 61.7183 7.43582 61.6167 8.69812C61.9779 7.90728 62.8274 7.33781 63.7045 7.33781C64.9761 7.33781 65.9176 8.3748 65.9729 9.60162C65.9921 10.0297 65.8651 10.4353 65.641 10.7822C66.1817 10.3322 66.526 9.65513 66.526 8.89752C66.526 7.54172 65.4248 6.44276 64.0663 6.44276V6.4422Z" fill="white"/>
<path opacity="0.3" d="M50.5878 0.568359C49.2964 0.568359 48.2398 1.56198 48.1382 2.82428C48.4994 2.03344 49.3489 1.46397 50.226 1.46397C51.4976 1.46397 52.4391 2.50096 52.4944 3.72778C52.5136 4.15587 52.3866 4.56143 52.1625 4.90841C52.7032 4.45835 53.0475 3.78129 53.0475 3.02368C53.0475 1.66788 51.9463 0.568923 50.5878 0.568923V0.568359Z" fill="white"/>
<path opacity="0.3" d="M69.8466 20.0014C68.5552 20.0014 67.4986 20.995 67.397 22.2573C67.7582 21.4665 68.6077 20.897 69.4848 20.897C70.7564 20.897 71.6979 21.934 71.7532 23.1608C71.7724 23.5889 71.6454 23.9945 71.4213 24.3415C71.962 23.8914 72.3063 23.2143 72.3063 22.4567C72.3063 21.1009 71.2051 20.002 69.8466 20.002V20.0014Z" fill="white"/>
<path opacity="0.3" d="M64.0663 33.5837C62.7749 33.5837 61.7183 34.5774 61.6167 35.8397C61.9779 35.0488 62.8274 34.4794 63.7045 34.4794C64.9761 34.4794 65.9176 35.5163 65.9729 36.7432C65.9921 37.1713 65.8651 37.5768 65.641 37.9238C66.1817 37.4737 66.526 36.7967 66.526 36.0391C66.526 34.6833 65.4248 33.5843 64.0663 33.5843V33.5837Z" fill="white"/>
<path opacity="0.3" d="M50.4738 39.3928C49.1824 39.3928 48.1258 40.3864 48.0242 41.6487C48.3854 40.8578 49.2349 40.2884 50.112 40.2884C51.3836 40.2884 52.3251 41.3254 52.3804 42.5522C52.3996 42.9803 52.2726 43.3858 52.0485 43.7328C52.5892 43.2828 52.9335 42.6057 52.9335 41.8481C52.9335 40.4923 51.8323 39.3933 50.4738 39.3933V39.3928Z" fill="white"/>
<path opacity="0.3" d="M36.8583 6.4422C35.5669 6.4422 34.5103 7.43582 34.4087 8.69812C34.7699 7.90728 35.6194 7.33781 36.4965 7.33781C37.7681 7.33781 38.7096 8.3748 38.7649 9.60162C38.7841 10.0297 38.6571 10.4353 38.433 10.7822C38.9737 10.3322 39.318 9.65513 39.318 8.89752C39.318 7.54172 38.2168 6.44276 36.8583 6.44276V6.4422Z" fill="white"/>
<path opacity="0.3" d="M36.8583 33.5837C35.5669 33.5837 34.5103 34.5774 34.4087 35.8397C34.7699 35.0488 35.6194 34.4794 36.4965 34.4794C37.7681 34.4794 38.7096 35.5163 38.7649 36.7432C38.7841 37.1713 38.6571 37.5768 38.433 37.9238C38.9737 37.4737 39.318 36.7967 39.318 36.0391C39.318 34.6833 38.2168 33.5843 36.8583 33.5843V33.5837Z" fill="white"/>
<path opacity="0.3" d="M51.3086 11.7094C65.1782 13.4911 62.1083 26.3073 61.7358 27.1263C62.7196 25.748 63.376 24.1449 63.5961 22.392C64.3739 16.1869 59.4008 10.4573 52.4883 9.59432C46.4947 8.84629 41.0209 12.0051 39.1628 16.9023C39.8379 15.6997 44.7049 10.9028 51.3092 11.7089L51.3086 11.7094Z" fill="url(#paint3_linear_613_4892)"/>
<path d="M27.8508 32.0955C27.0707 32.0955 26.3945 32.5338 26.0531 33.1776C25.9972 33.1928 25.9357 33.199 25.8662 33.1967C25.5259 33.1855 25.1844 33.1894 24.8429 33.195C24.6618 33.1979 24.5715 33.1381 24.5466 32.9416C24.3299 31.2134 23.6859 29.6577 22.6163 28.281C22.4803 28.1053 22.4904 27.9999 22.6468 27.8557C22.9177 27.6051 23.1734 27.3381 23.4325 27.075C23.4449 27.0626 23.4567 27.0525 23.4697 27.0418C23.6469 27.0925 23.8343 27.1195 24.0279 27.1195C25.1506 27.1195 26.061 26.2121 26.061 25.0912C26.061 23.9703 25.1506 23.0623 24.0279 23.0623C22.9053 23.0623 21.9954 23.9708 21.9954 25.0912C21.9954 25.3159 22.0327 25.5334 22.101 25.7356C22.0874 25.7513 22.0728 25.7665 22.0564 25.7818C21.7894 26.0369 21.5275 26.2983 21.2718 26.5636C21.1578 26.6819 21.0687 26.6909 20.9343 26.5861C19.534 25.4984 17.953 24.8388 16.1892 24.6237C16.021 24.6034 15.9623 24.5178 15.964 24.3612C15.9663 23.9731 15.9663 23.585 15.964 23.1974C15.9623 23.0735 16.0064 22.9789 16.108 22.9074C16.1142 22.9028 16.1204 22.8983 16.1254 22.8938C16.6899 22.5333 17.0641 21.903 17.0641 21.1854C17.0641 20.0651 16.1548 19.1565 15.0316 19.1565C13.9084 19.1565 12.9986 20.0651 12.9986 21.1854C12.9986 21.9137 13.3841 22.5525 13.962 22.9102C14.0619 23.002 14.1048 23.1079 14.1009 23.2532C14.0935 23.6126 14.0947 23.9725 14.1003 24.3319C14.1031 24.5127 14.0444 24.6028 13.8469 24.6276C12.1141 24.8433 10.5552 25.4877 9.17628 26.554C9.00018 26.6898 8.89464 26.6802 8.75014 26.5247C8.49898 26.2543 8.23201 25.9992 7.96898 25.7395C7.89617 25.6674 7.85666 25.5925 7.84763 25.4996C7.87416 25.3677 7.88884 25.2309 7.88884 25.0906C7.88884 23.9703 6.97955 23.0617 5.85635 23.0617C4.73315 23.0617 3.8233 23.9703 3.8233 25.0906C3.8233 26.211 4.73372 27.119 5.85635 27.119C6.09284 27.119 6.32087 27.0779 6.5314 27.0041C6.58051 27.0288 6.62792 27.0649 6.67307 27.1133C6.92875 27.3798 7.19065 27.6411 7.45649 27.8969C7.57502 28.0095 7.58405 28.0996 7.47907 28.2337C6.38917 29.6312 5.72653 31.2089 5.51205 32.9692C5.49174 33.1381 5.40538 33.195 5.24791 33.1933C4.85958 33.1911 4.47013 33.1905 4.08181 33.1933C3.95651 33.195 3.86281 33.15 3.79113 33.0486C3.70985 32.9326 3.61842 32.83 3.51739 32.7399C3.14656 32.3439 2.61826 32.0955 2.03183 32.0955C0.909192 32.0955 -0.0012207 33.003 -0.0012207 34.1239C-0.0012207 35.2448 0.909192 36.1528 2.03183 36.1528C2.63576 36.1528 3.17817 35.8892 3.55069 35.4712C3.6235 35.4014 3.69123 35.3254 3.75388 35.2409C3.85491 35.1045 3.97005 35.0477 4.13769 35.0516C4.49779 35.06 4.85845 35.0584 5.21855 35.0533C5.39973 35.0505 5.49061 35.1091 5.51488 35.3062C5.73105 37.0355 6.37675 38.5901 7.4452 39.9667C7.58123 40.1414 7.57332 40.2478 7.41698 40.3932C7.14549 40.6438 6.88981 40.9102 6.63017 41.1727C6.5997 41.2031 6.56922 41.2274 6.53705 41.246C6.32369 41.1693 6.09397 41.1277 5.85409 41.1277C4.73146 41.1277 3.82105 42.0362 3.82105 43.1566C3.82105 44.2769 4.73146 45.1849 5.85409 45.1849C6.97673 45.1849 7.88658 44.2775 7.88658 43.1566C7.88658 43.0265 7.8736 42.8992 7.84989 42.7758C7.85892 42.6553 7.9069 42.5601 8.00567 42.4654C8.27264 42.2108 8.53341 41.9489 8.79022 41.6836C8.9031 41.5665 8.99341 41.5558 9.12831 41.6611C10.5292 42.7482 12.1101 43.4078 13.8734 43.6241C14.0427 43.6444 14.0986 43.7317 14.098 43.8883C14.0952 44.2758 14.0952 44.6634 14.098 45.052C14.098 45.0791 14.0958 45.1044 14.0918 45.1292C13.3931 45.4502 12.9077 46.1543 12.9077 46.9728C12.9077 48.0931 13.8181 49.0011 14.9402 49.0011C16.0622 49.0011 16.9732 48.0937 16.9732 46.9728C16.9732 46.2647 16.6097 45.6429 16.06 45.2796C15.9832 45.1754 15.9533 45.0588 15.9589 44.9095C15.9725 44.5789 15.9674 44.2471 15.9612 43.9164C15.9584 43.7345 16.0188 43.6455 16.2163 43.6202C17.948 43.4044 19.5069 42.7612 20.8852 41.6943C21.0602 41.5586 21.1669 41.567 21.3125 41.723C21.5631 41.994 21.8306 42.2486 22.0936 42.5083C22.0959 42.5099 22.0976 42.5122 22.0987 42.5145C22.031 42.7167 21.9943 42.9324 21.9943 43.1577C21.9943 44.2781 22.9036 45.1861 24.0268 45.1861C25.15 45.1861 26.0598 44.2786 26.0598 43.1577C26.0598 42.0368 25.1494 41.1288 24.0268 41.1288C23.8343 41.1288 23.6481 41.1558 23.4714 41.206C23.4443 41.1862 23.4167 41.1626 23.3896 41.135C23.1344 40.8686 22.8731 40.6072 22.6067 40.3515C22.4893 40.2394 22.4769 40.1504 22.5824 40.0152C23.6718 38.6171 24.3333 37.0394 24.5494 35.2797C24.5698 35.1107 24.6561 35.0539 24.8136 35.055C25.2019 35.0578 25.5914 35.0578 25.9797 35.055C26.0034 35.055 26.0254 35.0572 26.0474 35.06C26.3855 35.7095 27.0662 36.1534 27.8508 36.1534C28.9734 36.1534 29.8838 35.2448 29.8838 34.1244C29.8838 33.0041 28.9734 32.0961 27.8508 32.0961V32.0955ZM10.3125 39.079C9.62218 39.079 9.06283 38.5208 9.06283 37.8319C9.06283 37.143 9.62218 36.5848 10.3125 36.5848C11.0028 36.5848 11.5621 37.143 11.5621 37.8319C11.5621 38.5208 11.0028 39.079 10.3125 39.079ZM12.0125 33.6423C11.1721 33.6383 10.4468 32.9117 10.4507 32.0769C10.4536 31.2382 11.1828 30.5138 12.0193 30.5172C12.8597 30.5212 13.585 31.2472 13.581 32.0826C13.5771 32.9213 12.849 33.6457 12.0125 33.6423ZM19.144 32.7337C18.4322 32.7495 17.7922 32.1192 17.7899 31.3999C17.7877 30.6828 18.4266 30.0508 19.14 30.0638C19.8563 30.0762 20.463 30.6868 20.4653 31.3959C20.4675 32.104 19.8608 32.7168 19.144 32.7337Z" fill="url(#paint4_linear_613_4892)"/>
<path d="M24.0278 41.1277C23.8354 41.1277 23.6491 41.1547 23.4725 41.2048C23.4454 41.1851 23.4177 41.1615 23.3906 41.1339C23.1355 40.8674 22.8742 40.6061 22.6078 40.3504C22.4904 40.2383 22.4779 40.1493 22.5835 40.0141C23.0226 39.4508 23.3906 38.8577 23.6892 38.2358C22.7415 38.3659 21.7719 38.4138 20.7785 38.3766C16.9793 38.3648 13.4382 37.4089 10.1555 35.509C8.73539 34.414 7.31587 33.3195 5.89579 32.2245C5.82297 32.1513 5.75073 32.0775 5.67905 32.0037C5.60793 32.3192 5.55262 32.6408 5.51254 32.9692C5.49222 33.1382 5.40587 33.1951 5.24839 33.1934C4.86007 33.1911 4.47062 33.1905 4.0823 33.1934C3.957 33.1951 3.8633 33.15 3.79162 33.0486C3.71034 32.9326 3.61891 32.8301 3.51787 32.7399C3.14705 32.3439 2.61875 32.0955 2.03232 32.0955C0.90968 32.0955 -0.000732422 33.003 -0.000732422 34.1239C-0.000732422 35.2448 0.90968 36.1528 2.03232 36.1528C2.63625 36.1528 3.17866 35.8892 3.55118 35.4713C3.62399 35.4014 3.69172 35.3254 3.75437 35.2409C3.8554 35.1046 3.97054 35.0477 4.13818 35.0516C4.49828 35.0601 4.85894 35.0584 5.21904 35.0533C5.40022 35.0505 5.49109 35.1091 5.51536 35.3062C5.73154 37.0355 6.37724 38.5901 7.44569 39.9668C7.58171 40.1414 7.57381 40.2478 7.41747 40.3932C7.14598 40.6438 6.8903 40.9103 6.63066 41.1727C6.60018 41.2032 6.56971 41.2274 6.53753 41.246C6.32418 41.1694 6.09446 41.1277 5.85458 41.1277C4.73195 41.1277 3.82153 42.0362 3.82153 43.1566C3.82153 44.277 4.73195 45.185 5.85458 45.185C6.97722 45.185 7.88707 44.2775 7.88707 43.1566C7.88707 43.0265 7.87408 42.8992 7.85038 42.7758C7.85941 42.6553 7.90739 42.5601 8.00616 42.4655C8.27313 42.2109 8.53389 41.9489 8.79071 41.6836C8.90359 41.5665 8.9939 41.5558 9.12879 41.6611C10.5297 42.7482 12.1106 43.4078 13.8739 43.6241C14.0432 43.6444 14.0991 43.7317 14.0985 43.8883C14.0957 44.2758 14.0957 44.6634 14.0985 45.052C14.0985 45.0791 14.0963 45.1044 14.0923 45.1292C13.3936 45.4503 12.9082 46.1544 12.9082 46.9728C12.9082 48.0932 13.8186 49.0012 14.9406 49.0012C16.0627 49.0012 16.9737 48.0937 16.9737 46.9728C16.9737 46.2648 16.6102 45.6429 16.0605 45.2796C15.9837 45.1754 15.9538 45.0588 15.9594 44.9095C15.973 44.5789 15.9679 44.2471 15.9617 43.9165C15.9589 43.7345 16.0193 43.6455 16.2168 43.6202C17.9485 43.4044 19.5074 42.7612 20.8857 41.6943C21.0607 41.5586 21.1674 41.567 21.313 41.7231C21.5636 41.994 21.8311 42.2486 22.0941 42.5083C22.0964 42.51 22.0981 42.5122 22.0992 42.5145C22.0315 42.7167 21.9948 42.9324 21.9948 43.1577C21.9948 44.2781 22.9041 45.1861 24.0273 45.1861C25.1505 45.1861 26.0603 44.2786 26.0603 43.1577C26.0603 42.0368 25.1499 41.1288 24.0273 41.1288L24.0278 41.1277ZM10.313 39.079C9.62266 39.079 9.06332 38.5208 9.06332 37.8319C9.06332 37.1431 9.62266 36.5849 10.313 36.5849C11.0032 36.5849 11.5626 37.1431 11.5626 37.8319C11.5626 38.5208 11.0032 39.079 10.313 39.079Z" fill="url(#paint5_linear_613_4892)"/>
<path opacity="0.3" d="M23.9936 23.4487C23.1334 23.4487 22.4295 24.1105 22.3618 24.9515C22.6023 24.4248 23.1684 24.0452 23.7526 24.0452C24.5997 24.0452 25.2268 24.7363 25.2635 25.5531C25.2765 25.8381 25.1913 26.1085 25.0423 26.3394C25.4024 26.0392 25.6321 25.5886 25.6321 25.0839C25.6321 24.1809 24.8983 23.4487 23.9936 23.4487Z" fill="white"/>
<path opacity="0.3" d="M15.0146 19.5356C14.1544 19.5356 13.4505 20.1974 13.3828 21.0384C13.6233 20.5117 14.1894 20.1321 14.7735 20.1321C15.6207 20.1321 16.2478 20.8232 16.2845 21.64C16.2975 21.925 16.2123 22.1954 16.0633 22.4263C16.4234 22.1261 16.6531 21.6755 16.6531 21.1708C16.6531 20.2678 15.9193 19.5356 15.0146 19.5356Z" fill="white"/>
<path opacity="0.3" d="M27.8439 32.4819C26.9837 32.4819 26.2799 33.1438 26.2122 33.9848C26.4526 33.4581 27.0187 33.0784 27.6029 33.0784C28.4501 33.0784 29.0772 33.7696 29.1139 34.5863C29.1268 34.8714 29.0416 35.1417 28.8926 35.3727C29.2527 35.0724 29.4824 34.6218 29.4824 34.1171C29.4824 33.2142 28.7487 32.4819 27.8439 32.4819Z" fill="white"/>
<path opacity="0.3" d="M23.9936 41.5298C23.1334 41.5298 22.4295 42.1917 22.3618 43.0327C22.6023 42.506 23.1684 42.1264 23.7526 42.1264C24.5997 42.1264 25.2268 42.8175 25.2635 43.6343C25.2765 43.9193 25.1913 44.1896 25.0423 44.4206C25.4024 44.1204 25.6321 43.6697 25.6321 43.165C25.6321 42.2621 24.8983 41.5298 23.9936 41.5298Z" fill="white"/>
<path opacity="0.3" d="M14.9384 45.4001C14.0782 45.4001 13.3744 46.062 13.3066 46.903C13.5471 46.3763 14.1132 45.9967 14.6974 45.9967C15.5446 45.9967 16.1716 46.6878 16.2083 47.5045C16.2213 47.7896 16.1361 48.0599 15.9871 48.2909C16.3472 47.9907 16.5769 47.54 16.5769 47.0353C16.5769 46.1324 15.8432 45.4001 14.9384 45.4001Z" fill="white"/>
<path opacity="0.3" d="M5.86832 23.4487C5.00814 23.4487 4.3043 24.1105 4.23657 24.9515C4.47702 24.4248 5.04313 24.0452 5.62731 24.0452C6.47451 24.0452 7.10158 24.7363 7.13827 25.5531C7.15125 25.8381 7.06602 26.1085 6.91701 26.3394C7.27711 26.0392 7.50683 25.5886 7.50683 25.0839C7.50683 24.1809 6.77309 23.4487 5.86832 23.4487Z" fill="white"/>
<path opacity="0.3" d="M5.86832 41.5298C5.00814 41.5298 4.3043 42.1917 4.23657 43.0327C4.47702 42.506 5.04313 42.1264 5.62731 42.1264C6.47451 42.1264 7.10158 42.8175 7.13827 43.6343C7.15125 43.9193 7.06602 44.1896 6.91701 44.4206C7.27711 44.1204 7.50683 43.6697 7.50683 43.165C7.50683 42.2621 6.77309 41.5298 5.86832 41.5298Z" fill="white"/>
<path opacity="0.3" d="M15.4945 26.9579C24.7341 28.1447 22.6892 36.6829 22.4408 37.2287C23.0961 36.3106 23.5335 35.2426 23.6797 34.0749C24.1979 29.9416 20.8847 26.1243 16.2796 25.5497C12.2869 25.0512 8.64012 27.1562 7.40234 30.4181C7.85219 29.6166 11.0942 26.4211 15.4939 26.9585L15.4945 26.9579Z" fill="url(#paint6_linear_613_4892)"/>
</g>
<defs>
<linearGradient id="paint0_linear_613_4892" x1="18.3521" y1="26.6802" x2="75.9999" y2="26.6802" gradientUnits="userSpaceOnUse">
<stop stop-color="#0BE5A1"/>
<stop offset="0.98" stop-color="#005EB2"/>
</linearGradient>
<linearGradient id="paint1_linear_613_4892" x1="28.0499" y1="22.3987" x2="72.9085" y2="22.3987" gradientUnits="userSpaceOnUse">
<stop stop-color="#0BFFA1"/>
<stop offset="0.98" stop-color="#005EB2"/>
</linearGradient>
<linearGradient id="paint2_linear_613_4892" x1="28.05" y1="32.0409" x2="72.9085" y2="32.0409" gradientUnits="userSpaceOnUse">
<stop offset="0.02" stop-color="#005EB2"/>
<stop offset="1" stop-color="#0BFFA1"/>
</linearGradient>
<linearGradient id="paint3_linear_613_4892" x1="38.9541" y1="18.1331" x2="63.502" y2="18.3521" gradientUnits="userSpaceOnUse">
<stop offset="0.25" stop-color="white" stop-opacity="0"/>
<stop offset="0.98" stop-color="white"/>
</linearGradient>
<linearGradient id="paint4_linear_613_4892" x1="-9.18589e-05" y1="34.0788" x2="29.8838" y2="34.0788" gradientUnits="userSpaceOnUse">
<stop stop-color="#0BFFA1"/>
<stop offset="0.98" stop-color="#005EB2"/>
</linearGradient>
<linearGradient id="paint5_linear_613_4892" x1="-0.000168" y1="40.5019" x2="29.8837" y2="40.5019" gradientUnits="userSpaceOnUse">
<stop offset="0.02" stop-color="#005EB2"/>
<stop offset="1" stop-color="#0BFFA1"/>
</linearGradient>
<linearGradient id="paint6_linear_613_4892" x1="6.8488" y1="31.2133" x2="23.2018" y2="31.3592" gradientUnits="userSpaceOnUse">
<stop offset="0.25" stop-color="white" stop-opacity="0"/>
<stop offset="0.98" stop-color="white"/>
</linearGradient>
<clipPath id="clip0_613_4892">
<rect width="76" height="49" fill="white"/>
</clipPath>
</defs>
</svg>
