<svg width="75" height="47" viewBox="0 0 75 47" fill="none" xmlns="http://www.w3.org/2000/svg">
<g clip-path="url(#clip0_613_4920)">
<path d="M47.6559 9.2344C48.8757 10.1663 50.0869 11.1552 51.2794 12.1974C53.3083 13.3081 55.4442 13.848 57.6024 13.6173C60.154 13.1452 62.3699 13.1049 64.2632 13.4162C84.4016 16.6971 67.9155 59.4656 28.4003 41.9634C20.9086 38.645 14.8837 32.6245 11.8716 25.0133C8.33766 16.0823 9.1699 6.04359 20.0482 1.14531C27.1299 -2.04405 37.7361 1.67435 47.6559 9.2344Z" fill="url(#paint0_linear_613_4920)"/>
<path d="M20.1355 40.8037C17.6684 37.9596 17.9781 33.6415 20.8256 31.1779C23.6738 28.7144 27.9982 29.0229 30.4653 31.867C31.6974 33.2876 32.6834 35.5616 33.0378 37.8024C33.4507 40.4123 32.9491 42.4802 31.6253 43.6255C30.3015 44.7707 28.1801 44.9718 25.6523 44.192C23.4818 43.5224 21.3677 42.2243 20.1355 40.8037ZM29.8886 32.3657C27.6965 29.8395 23.855 29.5649 21.3251 31.7538C18.7952 33.9428 18.5201 37.7787 20.7123 40.3049C21.839 41.6037 23.8666 42.8442 25.8775 43.464C28.1115 44.1531 30.025 44.0024 31.1265 43.0496C32.228 42.0967 32.6502 40.2271 32.285 37.9206C31.9566 35.8449 31.0161 33.6638 29.8893 32.365L29.8886 32.3657Z" fill="#005EB2"/>
<path d="M2.71388 20.7248C1.48176 19.3041 0.495773 17.0301 0.141366 14.7893C-0.271507 12.1794 0.230149 10.1116 1.55394 8.96628C2.87773 7.82099 4.99912 7.6199 7.52689 8.39976C9.69736 9.06935 11.8115 10.3674 13.0437 11.7881C15.5108 14.6322 15.2011 18.9502 12.3536 21.4138C9.50536 23.8774 5.18102 23.5682 2.71388 20.7248ZM12.4669 12.2868C11.3402 10.988 9.31264 9.74758 7.30168 9.12773C5.06769 8.43868 3.15419 8.58932 2.05271 9.54217C0.951233 10.495 0.528976 12.3647 0.89421 14.6711C1.22263 16.7469 2.16315 18.9279 3.28989 20.2267C5.48201 22.753 9.32346 23.0276 11.8534 20.8386C14.3833 18.6497 14.6583 14.8138 12.4662 12.2875L12.4669 12.2868Z" fill="#005EB2"/>
<path d="M18.7417 41.2534L9.91982 33.2292C9.7141 33.062 9.53798 32.8631 9.39651 32.6396L2.25424 22.5634C1.61399 21.5479 2.27733 19.8152 3.18537 19.0288L10.7095 12.5196C11.5958 11.7527 12.903 11.7261 13.8197 12.4562L21.3142 21.9443C21.5416 22.1252 21.7351 22.3457 21.8845 22.5951L30.3736 31.1909C30.9814 32.2029 30.7728 33.5045 29.8799 34.2772L22.337 40.8022C21.4442 41.5749 19.6584 41.998 18.7417 41.2534Z" fill="url(#paint1_linear_613_4920)"/>
<path d="M18.4774 24.97C17.6827 24.0539 16.9313 23.1011 16.229 22.1165L9.85905 13.1921C9.69953 12.9679 9.7515 12.6573 9.97598 12.4973C10.2005 12.338 10.5108 12.3899 10.6718 12.614L17.0417 21.5385C18.4103 23.4557 19.9687 25.2526 21.6743 26.8779L29.6134 34.4444C29.8119 34.634 29.8199 34.9497 29.63 35.1486C29.4402 35.3475 29.1241 35.3547 28.9248 35.1652L20.9857 27.5986C20.1101 26.764 19.2721 25.8861 18.4774 24.97Z" fill="#4CC990"/>
<path d="M15.9157 27.1863C15.5534 26.7683 15.2105 26.3337 14.89 25.8846L7.36882 15.3471C7.2093 15.123 7.26127 14.8123 7.48575 14.6523C7.71023 14.493 8.02061 14.5449 8.18157 14.7691L15.7028 25.3066C16.3069 26.1535 16.9955 26.947 17.7491 27.6649L27.1232 36.5994C27.3217 36.789 27.3296 37.1047 27.1398 37.3036C26.95 37.5026 26.6338 37.5098 26.4346 37.3202L17.0605 28.3857C16.6613 28.0051 16.2788 27.6044 15.9164 27.1863H15.9157Z" fill="#4CC990"/>
<path d="M13.4905 29.2845C12.7347 28.4138 12.0209 27.5078 11.3532 26.5715L4.87931 17.5008C4.71979 17.2766 4.77176 16.966 4.99625 16.806C5.22073 16.6467 5.53183 16.6978 5.69207 16.9227L12.1659 25.9935C13.4652 27.8141 14.9449 29.5194 16.5639 31.0626L24.633 38.7531C24.8315 38.9426 24.8394 39.2583 24.6496 39.4573C24.4597 39.6562 24.1436 39.6634 23.9444 39.4738L15.8753 31.7833C15.0431 30.9898 14.2462 30.1551 13.4912 29.2845H13.4905Z" fill="#4CC990"/>
<path d="M11.0269 31.4158C10.111 30.3599 9.24479 29.2615 8.43493 28.1263L2.38908 19.6552C2.22956 19.431 2.28153 19.1204 2.50601 18.9604C2.73049 18.8011 3.04087 18.853 3.20183 19.0771L9.24768 27.5482C10.8306 29.7667 12.6344 31.8447 14.6071 33.7251L22.1427 40.9075C22.3412 41.097 22.3492 41.4127 22.1593 41.6117C21.9695 41.8106 21.6534 41.8178 21.4541 41.6282L13.9185 34.4459C12.9094 33.4837 11.9436 32.471 11.0277 31.4158H11.0269Z" fill="#4CC990"/>
<path d="M63.9471 26.103C59.6502 26.0821 56.1718 22.5741 56.1927 18.2842C56.2137 13.9935 59.7267 10.5201 64.0236 10.541C66.1695 10.5519 68.8648 11.4146 71.0562 12.7927C73.6092 14.3986 75.0095 16.3814 75.0001 18.3757C74.9907 20.37 73.5702 22.3392 71.002 23.9198C68.7969 25.277 66.0937 26.1138 63.9478 26.103H63.9471ZM64.0193 11.4088C60.2024 11.3901 57.0813 14.4764 57.0625 18.2878C57.0437 22.0992 60.1345 25.2157 63.9514 25.2345C65.914 25.2438 68.5024 24.438 70.5451 23.1803C72.8152 21.7835 74.1217 20.0306 74.1296 18.3714C74.1375 16.7122 72.8484 14.9463 70.592 13.5272C68.5616 12.25 65.9811 11.4182 64.0185 11.4088H64.0193Z" fill="#4CC990"/>
<path d="M33.6086 25.9545C31.4627 25.9437 28.7675 25.081 26.5761 23.7029C24.023 22.097 22.6227 20.1142 22.6321 18.1199C22.6422 16.1255 24.062 14.1564 26.6302 12.5758C28.8353 11.2186 31.5385 10.3818 33.6844 10.3926C37.9813 10.4135 41.4597 13.9215 41.4388 18.2114C41.4179 22.5021 37.9048 25.9754 33.6086 25.9545ZM33.6808 11.2604C31.7182 11.251 29.1298 12.0569 27.0871 13.3146C24.817 14.7114 23.5106 16.4643 23.5026 18.1235C23.4947 19.7827 24.7838 21.5485 27.0402 22.9677C29.0706 24.2449 31.6511 25.0767 33.6137 25.086C37.4306 25.1048 40.5517 22.0185 40.5705 18.2071C40.5892 14.3957 37.4984 11.2792 33.6815 11.2604H33.6808Z" fill="#4CC990"/>
<path d="M63.2864 27.6346L49.7655 29.1691C49.4681 29.2195 49.1635 29.2217 48.8654 29.1748L34.8429 27.7297C33.4895 27.5157 32.4977 25.646 32.5049 24.278L32.5605 12.9433C32.567 11.6085 33.5256 10.4675 34.8414 10.2304L48.6229 10.9331C48.9491 10.874 49.2833 10.874 49.6103 10.9331L63.3722 10.1129C64.6982 10.3522 65.6604 11.5076 65.6539 12.8532L65.5983 24.2167C65.5918 25.5624 64.6145 27.4097 63.2864 27.636V27.6346Z" fill="#4CC990"/>
<g opacity="0.5">
<mask id="mask0_613_4920" style="mask-type:luminance" maskUnits="userSpaceOnUse" x="38" y="10" width="28" height="15">
<path d="M65.654 12.8518L65.5984 24.1577L53.4851 20.6569C53.4851 20.6569 44.0655 13.9748 38.9897 10.4409L48.623 10.9317C48.95 10.8726 49.2841 10.8726 49.6104 10.9317L63.3724 10.1115C64.6983 10.3508 65.6605 11.5069 65.654 12.8518Z" fill="white"/>
</mask>
<g mask="url(#mask0_613_4920)">
<path d="M38.992 9.99264L38.9233 24.0278L45.4801 24.0598L45.5488 10.0246L38.992 9.99264Z" fill="white"/>
<path d="M45.5492 10.0249L45.4805 24.0601L65.0037 24.1553L65.0723 10.1201L45.5492 10.0249Z" fill="white"/>
<path d="M65.0726 10.1198L65.0039 24.155L65.5987 24.1579L65.6674 10.1227L65.0726 10.1198Z" fill="white"/>
</g>
</g>
<path d="M49.0943 15.634C47.7106 15.6275 46.3269 15.5554 44.954 15.4185L32.5014 14.1759C32.1889 14.1449 31.9608 13.8667 31.9918 13.5546C32.0229 13.2425 32.3008 13.0155 32.614 13.0457L45.0666 14.2883C47.7417 14.555 50.4564 14.5687 53.1343 14.328L65.5984 13.2065C65.9102 13.1784 66.1874 13.409 66.2156 13.7211C66.2437 14.0332 66.0127 14.3092 65.7002 14.3373L53.236 15.4588C51.8617 15.5828 50.4773 15.6412 49.0936 15.634H49.0943Z" fill="#0492AC"/>
<path d="M49.075 19.4936C48.4442 19.4907 47.8126 19.4576 47.1861 19.3949L32.4821 17.9274C32.1696 17.8964 31.9415 17.6182 31.9726 17.3061C32.0036 16.994 32.2815 16.7663 32.5948 16.7973L47.2987 18.2647C48.4803 18.3829 49.6792 18.3887 50.8622 18.282L65.5798 16.958C65.8917 16.9299 66.1688 17.1605 66.197 17.4726C66.2251 17.7847 65.9942 18.0607 65.6816 18.0889L50.964 19.4129C50.3367 19.4691 49.7052 19.4958 49.0743 19.4929L49.075 19.4936Z" fill="#0492AC"/>
<path d="M49.0575 23.1472C47.7423 23.1407 46.4265 23.0722 45.1214 22.9418L32.4646 21.6783C32.152 21.6473 31.9239 21.3691 31.955 21.057C31.986 20.7449 32.2639 20.5171 32.5772 20.5481L45.234 21.8116C47.7741 22.0653 50.3509 22.0776 52.8931 21.8491L65.5616 20.7096C65.8734 20.6815 66.1505 20.9121 66.1787 21.2242C66.2068 21.5363 65.9759 21.8123 65.6633 21.8404L52.9949 22.98C51.6877 23.0974 50.3726 23.1529 49.0567 23.1465L49.0575 23.1472Z" fill="#0492AC"/>
<path d="M49.0394 26.8591C47.4442 26.8511 45.8497 26.7683 44.2661 26.6104L32.4458 25.4305C32.1332 25.3995 31.9051 25.1213 31.9362 24.8092C31.9672 24.4971 32.2451 24.2701 32.5584 24.3004L44.3787 25.4803C47.4738 25.7895 50.6136 25.8046 53.7116 25.5257L65.5427 24.4611C65.8546 24.4337 66.1317 24.6636 66.1599 24.9757C66.188 25.2878 65.9571 25.5639 65.6445 25.592L53.8134 26.6565C52.2283 26.7992 50.6331 26.8663 49.0379 26.8584L49.0394 26.8591Z" fill="#0492AC"/>
<g opacity="0.5">
<mask id="mask1_613_4920" style="mask-type:luminance" maskUnits="userSpaceOnUse" x="49" y="10" width="16" height="3">
<path d="M59.1969 10.9512L62.7467 10.6182C62.7467 10.6182 64.4523 10.6946 64.7201 11.7859L49.1104 12.3913L59.1969 10.9512Z" fill="white"/>
</mask>
<g mask="url(#mask1_613_4920)">
<path d="M49.1194 10.5518L49.1104 12.3911L52.9467 12.4098L52.9557 10.5705L49.1194 10.5518Z" fill="white"/>
<path d="M52.9546 10.571L52.9456 12.4103L64.3673 12.4661L64.3763 10.6267L52.9546 10.571Z" fill="white"/>
<path d="M64.3772 10.6271L64.3682 12.4664L64.7161 12.4681L64.7251 10.6288L64.3772 10.6271Z" fill="white"/>
</g>
</g>
</g>
<defs>
<linearGradient id="paint0_linear_613_4920" x1="26.8536" y1="41.5458" x2="52.3526" y2="3.99888" gradientUnits="userSpaceOnUse">
<stop stop-color="#0BE5A1"/>
<stop offset="0.98" stop-color="#005EB2"/>
</linearGradient>
<linearGradient id="paint1_linear_613_4920" x1="16.3598" y1="41.6419" x2="16.3598" y2="11.9264" gradientUnits="userSpaceOnUse">
<stop offset="0.02" stop-color="#005EB2"/>
<stop offset="0.5" stop-color="#005FB1"/>
<stop offset="0.67" stop-color="#0166AF"/>
<stop offset="0.79" stop-color="#0372AC"/>
<stop offset="0.89" stop-color="#0683A8"/>
<stop offset="0.97" stop-color="#0999A3"/>
<stop offset="1" stop-color="#0BA2A1"/>
</linearGradient>
<clipPath id="clip0_613_4920">
<rect width="75" height="46.1538" fill="white"/>
</clipPath>
</defs>
</svg>
