<svg width="25" height="44" viewBox="0 0 25 44" fill="none" xmlns="http://www.w3.org/2000/svg">
<path d="M4.63867 37.3121V19.6296C4.63867 15.9101 7.65424 12.8945 11.3738 12.8945H18.2652C21.9847 12.8945 25.0003 15.9101 25.0003 19.6296V37.3121C25.0003 40.6946 22.2583 43.4367 18.8757 43.4367H10.7632C7.3807 43.4367 4.63867 40.6946 4.63867 37.3121Z" fill="url(#paint0_linear_621_4534)"/>
<path d="M21.9483 43.4368H7.68929C6.00413 43.4368 4.6377 42.0709 4.6377 40.3852V19.6816H24.9993V40.3852C24.9993 42.0703 23.6335 43.4368 21.9477 43.4368H21.9483Z" fill="#007AFF"/>
<path d="M15.2357 36.2415C18.801 36.2415 21.6912 33.3513 21.6912 29.786C21.6912 26.2208 18.801 23.3306 15.2357 23.3306C11.6705 23.3306 8.78027 26.2208 8.78027 29.786C8.78027 33.3513 11.6705 36.2415 15.2357 36.2415Z" fill="white"/>
<path d="M10.169 9.58643H19.2078C19.5228 9.58643 19.7787 9.84225 19.7787 10.1573V12.7675C19.7787 13.2596 19.3793 13.6589 18.8872 13.6589H10.4896C9.99745 13.6589 9.59814 13.2596 9.59814 12.7675V10.1573C9.59814 9.84225 9.85397 9.58643 10.169 9.58643Z" fill="#42DB9C"/>
<path d="M19.7791 10.1573C19.7791 10.4052 19.5783 10.6061 19.3304 10.6061H10.0474C9.79951 10.6061 9.59863 10.4052 9.59863 10.1573C9.59863 9.84225 9.85446 9.58643 10.1695 9.58643H19.2083C19.5221 9.58643 19.7791 9.84347 19.7791 10.1573Z" fill="#8AEDBF"/>
<path d="M15.9364 4.15625H13.4405C13.1926 4.15625 12.9917 4.35717 12.9917 4.60501V9.13721C12.9917 9.38506 13.1926 9.58597 13.4405 9.58597H15.9364C16.1843 9.58597 16.3852 9.38506 16.3852 9.13721V4.60501C16.3852 4.35717 16.1843 4.15625 15.9364 4.15625Z" fill="#8AEDBF"/>
<path d="M19.7795 4.15632H8.92008L4.25295 5.75782C3.84815 5.8085 3.48975 5.49284 3.48975 5.08437V3.36198C3.48975 3.03533 3.72237 2.75508 4.04353 2.69463L8.91947 0.762207H19.7789C20.1538 0.762207 20.4579 1.06627 20.4579 1.44115V3.47737C20.4579 3.85226 20.1538 4.15632 19.7789 4.15632H19.7795Z" fill="#8AEDBF"/>
<path d="M20.4579 2.79883V3.47777C20.4579 3.85083 20.1526 4.15672 19.7789 4.15672H8.91947L4.25356 5.75822C3.84631 5.8089 3.48975 5.49324 3.48975 5.08294V4.404C3.48975 4.8149 3.84631 5.12995 4.25356 5.07928L8.91947 3.47777H19.7789C20.152 3.47777 20.4579 3.17249 20.4579 2.79883Z" fill="#42DB9C"/>
<path d="M16.4998 26.0469H13.9702V31.0321H16.4998V26.0469Z" fill="#42DB9C"/>
<path d="M15.2164 28.54H16.4998V31.0324H15.2164C14.5283 31.0324 13.9702 30.4737 13.9702 29.7862C13.9702 29.0981 14.5289 28.54 15.2164 28.54Z" fill="#1A263C"/>
<path d="M16.4999 31.0327C15.8014 31.0327 15.1689 31.3117 14.7109 31.7629C14.253 32.2141 13.9697 32.8369 13.9697 33.5256V31.0333H16.4993L16.4999 31.0327Z" fill="#1A263C"/>
<path d="M16.4998 31.0323V33.5247H13.9702C13.9702 32.8366 14.2535 32.2132 14.7114 31.762C15.1694 31.3108 15.8013 31.0317 16.5004 31.0317L16.4998 31.0323Z" fill="#42DB9C"/>
<path d="M16.4995 28.54H17.7829C18.471 28.54 19.0291 29.0987 19.0291 29.7862C19.0291 30.4743 18.4704 31.0324 17.7829 31.0324H16.4995V28.54Z" fill="#007AFF"/>
<path d="M11.4409 28.54H11.4782C12.8538 28.54 13.9705 29.6568 13.9705 31.0324H11.4409V28.54Z" fill="#007AFF"/>
<path d="M2.92305 8.19286C2.92305 8.74054 2.47917 9.18441 1.9315 9.18441C1.38382 9.18441 0.939941 8.74054 0.939941 8.19286C0.939941 7.64519 1.9315 6.44727 1.9315 6.44727C1.9315 6.44727 2.92305 7.64519 2.92305 8.19286Z" fill="#007AFF"/>
<path d="M6.35372 10.8358C6.35372 11.7833 5.58563 12.5514 4.63804 12.5514C3.69045 12.5514 2.92236 11.7833 2.92236 10.8358C2.92236 9.88816 4.63804 7.81592 4.63804 7.81592C4.63804 7.81592 6.35372 9.88816 6.35372 10.8358Z" fill="#007AFF"/>
<defs>
<linearGradient id="paint0_linear_621_4534" x1="4.63867" y1="28.1659" x2="25.0003" y2="28.1659" gradientUnits="userSpaceOnUse">
<stop stop-color="#42DB9C"/>
<stop offset="1" stop-color="#007AFF"/>
</linearGradient>
</defs>
</svg>
