<svg width="22" height="44" viewBox="0 0 22 44" fill="none" xmlns="http://www.w3.org/2000/svg">
<path d="M18.5715 5.27099H3.01621C2.05377 5.27099 1.27344 4.49066 1.27344 3.52822V2.65502C1.27344 1.31145 2.29136 0.18679 3.62769 0.052313L10.5325 0.013116C10.7061 -0.00437201 10.881 -0.00437201 11.0547 0.013116L17.9595 0.052313C19.2964 0.186187 20.3137 1.31145 20.3137 2.65502V3.52822C20.3137 4.49066 19.5334 5.27099 18.5709 5.27099H18.5715Z" fill="#42DB9C"/>
<path d="M18.0621 7.89782V5.271H3.52595V7.9129C3.52595 8.84218 2.9995 9.70874 2.14982 10.0856C0.883448 10.6483 0 11.9165 0 13.3915V40.1434C0 42.1412 1.61915 43.7604 3.61701 43.7604H17.9711C19.969 43.7604 21.5881 42.1412 21.5881 40.1434V13.3915C21.5881 11.9219 20.7113 10.6573 19.4521 10.0917C18.5958 9.70693 18.0621 8.83555 18.0621 7.89662V7.89782Z" fill="#A9D8C1"/>
<path opacity="0.3" d="M19.8144 14.5206V17.9374C19.8144 17.4845 15.7752 17.1185 10.7941 17.1185C5.81306 17.1185 1.77393 17.4845 1.77393 17.9374V14.5206C1.77393 13.4158 2.28711 12.4401 3.07045 11.8534C4.1318 11.058 4.72097 9.77953 4.72097 8.45285V6.96094H16.8673V8.30571C16.8673 9.72465 17.5397 11.0393 18.633 11.9438C19.3512 12.5378 19.8144 13.4707 19.8144 14.52V14.5206Z" fill="#42DB9C"/>
<path d="M19.8144 17.9366V39.8672C19.8144 41.6619 18.4605 42.5942 16.7913 42.5942H4.79695C3.12774 42.5942 1.77393 41.6613 1.77393 39.8672V17.9366C1.77393 17.4837 5.81306 17.1177 10.7941 17.1177C15.7752 17.1177 19.8144 17.4837 19.8144 17.9366Z" fill="#42DB9C"/>
<path d="M19.8144 17.9366C19.8144 18.3889 15.7752 18.7555 10.7941 18.7555C5.81306 18.7555 1.77393 18.3895 1.77393 17.9366C1.77393 17.4837 5.81306 17.1177 10.7941 17.1177C15.7752 17.1177 19.8144 17.4837 19.8144 17.9366Z" fill="#3DAA79"/>
<path d="M16.4692 0.739258H18.6534L19.4042 2.03579V2.9916H17.9364L16.4692 0.739258Z" fill="#E1EEFF"/>
<path d="M17.7837 14.6611C9.74822 15.395 3.80469 14.6611 3.80469 14.6611V37.3727C3.80469 37.3727 8.09771 38.9134 17.7837 37.3727V14.6611Z" fill="#E7F4FA"/>
<mask id="mask0_621_4556" style="mask-type:luminance" maskUnits="userSpaceOnUse" x="3" y="14" width="15" height="25">
<path d="M17.7837 14.6611C9.74822 15.395 3.80469 14.6611 3.80469 14.6611V37.3727C3.80469 37.3727 8.09771 38.9134 17.7837 37.3727V14.6611Z" fill="white"/>
</mask>
<g mask="url(#mask0_621_4556)">
<path d="M3.35693 16.6938C3.35693 16.6938 9.90832 18.383 18.5583 16.6938" stroke="#BC1313" stroke-width="1.07994" stroke-miterlimit="10"/>
<path d="M3.35693 34.855C3.35693 34.855 9.90832 36.5441 18.5583 34.855" stroke="#BC1313" stroke-width="1.07994" stroke-miterlimit="10"/>
</g>
<path d="M5.821 27.1392L5.02197 24.6915H5.36329L5.74441 25.8976C5.84994 26.228 5.9404 26.5259 6.00613 26.813H6.01336C6.08211 26.5295 6.18403 26.2208 6.29317 25.9012L6.70746 24.6915H7.04516L6.17015 27.1392H5.821Z" fill="#005EB2"/>
<path d="M7.49822 26.3691L7.24374 27.1392H6.9169L7.74848 24.6915H8.1296L8.96481 27.1392H8.62711L8.36539 26.3691H7.49822ZM8.30086 26.1219L8.06085 25.4175C8.00658 25.2577 7.9698 25.1124 7.93361 24.9707H7.92638C7.8902 25.116 7.85039 25.265 7.80275 25.4139L7.56335 26.1219H8.30086Z" fill="#005EB2"/>
<path d="M10.9812 27.0593C10.8648 27.1172 10.6326 27.1757 10.3347 27.1757C9.64487 27.1757 9.12506 26.7397 9.12506 25.937C9.12506 25.1344 9.64427 24.6514 10.4035 24.6514C10.7086 24.6514 10.901 24.7165 10.9848 24.7605L10.9088 25.0186C10.7888 24.9607 10.6182 24.9167 10.415 24.9167C9.84086 24.9167 9.45974 25.2834 9.45974 25.9262C9.45974 26.5256 9.80468 26.9103 10.4005 26.9103C10.5928 26.9103 10.7888 26.8705 10.9161 26.8084L10.9812 27.0593Z" fill="#005EB2"/>
<path d="M11.6929 24.6915V27.1392H11.3769V24.6915H11.6929Z" fill="#005EB2"/>
<path d="M12.2448 27.1392V24.6915H12.5897L13.3743 25.9301C13.5558 26.2172 13.6975 26.4747 13.8139 26.7255L13.8211 26.7219C13.7922 26.3951 13.7849 26.0972 13.7849 25.716V24.6921H14.0828V27.1398H13.7632L12.9859 25.8976C12.8153 25.625 12.6518 25.3458 12.5282 25.0804L12.5174 25.0841C12.5354 25.3928 12.5427 25.6871 12.5427 26.0935V27.1392H12.2448Z" fill="#005EB2"/>
<path d="M15.0308 26.3691L14.7763 27.1392H14.4494L15.281 24.6915H15.6621L16.4973 27.1392H16.1596L15.8979 26.3691H15.0308ZM15.8334 26.1219L15.5934 25.4175C15.5391 25.2577 15.5029 25.1124 15.4661 24.9707H15.4589C15.4227 25.116 15.3823 25.265 15.3353 25.4139L15.0953 26.1219H15.8334Z" fill="#005EB2"/>
</svg>
