<svg width="12" height="13" viewBox="0 0 12 13" fill="none" xmlns="http://www.w3.org/2000/svg">
<path id="Combined Shape" d="M0.313043 12.6609C0.521739 12.887 0.782609 13 1.06957 13C1.35652 13 1.61739 12.887 1.82609 12.6609L6 8.13913L10.1739 12.6609C10.3826 12.887 10.6435 13 10.9304 13C11.2174 13 11.4783 12.887 11.687 12.6609C12.1043 12.2087 12.1043 11.4739 11.687 11.0217L7.51304 6.5L11.687 1.97826C12.1043 1.52609 12.1043 0.791304 11.687 0.33913C11.2696 -0.113043 10.5913 -0.113043 10.1739 0.33913L6 4.86087L1.82609 0.33913C1.4087 -0.113043 0.730435 -0.113043 0.313043 0.33913C-0.104348 0.791304 -0.104348 1.52609 0.313043 1.97826L4.48696 6.5L0.313043 11.0217C-0.104348 11.4739 -0.104348 12.2087 0.313043 12.6609Z" fill="#1A263C"/>
</svg>
