<svg width="262" height="216" viewBox="0 0 262 216" fill="none" xmlns="http://www.w3.org/2000/svg">
<path d="M175.293 90.9006C177.553 95.3459 179.709 99.9477 181.736 104.677C186.114 110.782 191.611 115.364 198.253 117.718C206.39 119.917 212.934 122.91 218.039 126.481C272.391 164.378 163.978 266.641 72.8892 159.83C55.6205 139.579 46.4459 113.467 48.3296 86.9185C50.5376 55.7681 67.0927 27.5015 105.831 28.4143C131.053 29.0071 156.879 54.8017 175.293 90.9006Z" fill="url(#paint0_linear_611_3603)" stroke="url(#paint1_linear_611_3603)" stroke-width="0.223717" stroke-miterlimit="10"/>
<path d="M7.71823 58.8621H1.10516C0.494797 58.8621 0 59.3569 0 59.9672V72.8287C0 73.4391 0.494797 73.9339 1.10516 73.9339H7.71823C8.32859 73.9339 8.82339 73.4391 8.82339 72.8287V59.9672C8.82339 59.3569 8.32859 58.8621 7.71823 58.8621Z" fill="#1A263C"/>
<path d="M4.97325 28.3919H1.72935C1.43035 28.3919 1.18796 28.6343 1.18796 28.9333V35.2421C1.18796 35.5411 1.43035 35.7835 1.72935 35.7835H4.97325C5.27225 35.7835 5.51464 35.5411 5.51464 35.2421V28.9333C5.51464 28.6343 5.27225 28.3919 4.97325 28.3919Z" fill="#1A263C"/>
<path d="M7.71823 77.981H1.10516C0.494797 77.981 0 78.4758 0 79.0861V91.9476C0 92.558 0.494797 93.0528 1.10516 93.0528H7.71823C8.32859 93.0528 8.82339 92.558 8.82339 91.9476V79.0861C8.82339 78.4758 8.32859 77.981 7.71823 77.981Z" fill="#1A263C"/>
<path d="M87.3122 0H16.7273C9.31646 0 3.30878 6.00768 3.30878 13.4185V187.676C3.30878 195.087 9.31646 201.095 16.7273 201.095H87.3122C94.7231 201.095 100.731 195.087 100.731 187.676V13.4185C100.731 6.00768 94.7231 0 87.3122 0Z" fill="#1A263C"/>
<path d="M101.966 52.1036H96.1893C95.3479 52.1036 94.6658 52.7857 94.6658 53.6271V79.1711C94.6658 80.0125 95.3479 80.6946 96.1893 80.6946H101.966C102.807 80.6946 103.489 80.0125 103.489 79.1711V53.6271C103.489 52.7857 102.807 52.1036 101.966 52.1036Z" fill="#1A263C"/>
<mask id="mask0_611_3603" style="mask-type:luminance" maskUnits="userSpaceOnUse" x="7" y="3" width="90" height="195">
<path d="M84.1802 3.94189H19.8594C12.8958 3.94189 7.2507 9.58699 7.2507 16.5506V184.544C7.2507 191.508 12.8958 197.153 19.8594 197.153H84.1802C91.1438 197.153 96.7889 191.508 96.7889 184.544V16.5506C96.7889 9.58699 91.1438 3.94189 84.1802 3.94189Z" fill="white"/>
</mask>
<g mask="url(#mask0_611_3603)">
<path d="M84.1802 3.94189H19.8594C12.8958 3.94189 7.2507 9.58699 7.2507 16.5506V184.544C7.2507 191.508 12.8958 197.153 19.8594 197.153H84.1802C91.1438 197.153 96.7889 191.508 96.7889 184.544V16.5506C96.7889 9.58699 91.1438 3.94189 84.1802 3.94189Z" fill="#D6D6D6"/>
<mask id="mask1_611_3603" style="mask-type:luminance" maskUnits="userSpaceOnUse" x="7" y="3" width="90" height="195">
<path d="M84.1802 3.94189H19.8594C12.8958 3.94189 7.2507 9.58699 7.2507 16.5506V184.544C7.2507 191.508 12.8958 197.153 19.8594 197.153H84.1802C91.1438 197.153 96.7889 191.508 96.7889 184.544V16.5506C96.7889 9.58699 91.1438 3.94189 84.1802 3.94189Z" fill="white"/>
</mask>
<g mask="url(#mask1_611_3603)">
<path d="M113.485 134.962L32.2578 47.6338L27.3942 -0.149916L35.7232 -0.997803L40.3027 43.9894L119.617 129.259L113.485 134.962Z" fill="white"/>
<path d="M100.902 40.3234L60.3751 71.1077L65.4401 77.7758L105.967 46.9916L100.902 40.3234Z" fill="white"/>
<path d="M70.2015 -7.03147L29.6741 23.7527L34.7392 30.4209L75.2665 -0.363318L70.2015 -7.03147Z" fill="white"/>
<path d="M124.022 62.3282L83.4942 93.1124L88.5593 99.7806L129.087 68.9964L124.022 62.3282Z" fill="white"/>
<path d="M100.326 201.614L23.8058 116.722L67.9586 83.1824L73.0235 89.8491L36.1237 117.881L106.545 196.007L100.326 201.614Z" fill="white"/>
<path d="M8.96401 41.0626L2.38889 46.2479L49.1782 105.579L55.7533 100.393L8.96401 41.0626Z" fill="white"/>
<path d="M6.73397 191.039C6.82122 190.954 6.88163 190.877 6.92637 190.822L0.391602 185.584C1.04485 184.77 2.03145 183.537 29.6045 164.376C42.9985 155.067 56.3186 145.948 56.4528 145.857L61.1822 152.767C41.5242 166.224 9.35817 188.513 6.73397 191.041V191.039Z" fill="white"/>
<path d="M74.4631 3.34409L65.3501 66.7404L73.6387 67.9318L82.7516 4.53553L74.4631 3.34409Z" fill="white"/>
<path d="M99.2913 -22.199L88.4487 53.9852L96.7389 55.165L107.582 -21.0191L99.2913 -22.199Z" fill="white"/>
<g opacity="0.3">
<path d="M44.0164 27.9892L68.1778 9.94196H71.0816L63.0099 61.8465L44.0164 42.8596L42.1864 29.0362L44.0164 27.9892Z" fill="#111111"/>
</g>
<g opacity="0.3">
<path d="M42.0522 118.445L71.0817 96.4421L83.1713 107.444L52.4684 132.109L42.0522 118.445Z" fill="#111111"/>
</g>
<g opacity="0.3">
<path d="M55.6698 133.651L87.6635 111.646L98.3639 124.561L67.1487 147.313L55.6698 133.651Z" fill="#111111"/>
</g>
<g opacity="0.3">
<path d="M72.0325 152.226L101.062 128.747L113.152 140.487L82.4487 166.808L72.0325 152.226Z" fill="#111111"/>
</g>
<path d="M37.8202 88.8756L4.93948 113.286L6.40771 115.264L39.2884 90.8533L37.8202 88.8756Z" fill="white"/>
<path d="M34.6732 81.5415L1.79248 105.952L3.26071 107.93L36.1414 83.5192L34.6732 81.5415Z" fill="white"/>
<path d="M31.5232 74.2069L-1.35757 98.6174L0.110657 100.595L32.9914 76.1846L31.5232 74.2069Z" fill="white"/>
<path d="M28.3762 66.8729L-4.50455 91.2834L-3.03632 93.2611L29.8444 68.8506L28.3762 66.8729Z" fill="white"/>
<path d="M19.3625 61.9969L-13.5182 86.4073L-12.05 88.385L20.8308 63.9746L19.3625 61.9969Z" fill="white"/>
</g>
<g opacity="0.3">
<path d="M13.2038 195.265L56.7414 166.629L84.3525 197.153L13.2038 195.265Z" fill="#111111"/>
</g>
<g opacity="0.3">
<path d="M6.72497 124.559L16.8683 118.445L43.6248 147.212L5.716 175.258L6.72497 124.559Z" fill="#111111"/>
</g>
<g opacity="0.3">
<path d="M75.6275 74.4395L84.3525 85.7663L114.451 67.0681L105.534 56.059L75.6275 74.4395Z" fill="#111111"/>
</g>
<path d="M25.157 1.92397L29.9468 49.3877L61.4238 83.3681L52.5064 89.3011L6.20374 33.3092L8.26193 -1.31097L25.157 1.92397Z" fill="#33C4A8"/>
</g>
<path d="M95.8112 189.425C95.5964 189.906 95.2855 190.56 94.7866 191.34C94.762 191.309 94.7083 191.262 94.6792 191.226C89.4353 185.202 29.732 117.344 29.1078 116.632L28.3673 115.796L69.9093 85.3546L46.428 58.7524L57.0321 49.8619L58.3454 51.4235L49.3475 58.9694L72.9227 85.6745L31.3808 116.122C42.8888 129.21 88.5382 181.085 95.7016 189.296C95.7419 189.343 95.7821 189.383 95.8135 189.423L95.8112 189.425Z" fill="#007AFF"/>
<path d="M57.6876 31.5284C54.6227 31.5284 52.135 34.0139 52.135 37.0811C52.135 40.1483 57.6876 46.5175 57.6876 46.5175C57.6876 46.5175 63.2403 40.1483 63.2403 37.0811C63.2403 34.0139 60.7548 31.5284 57.6876 31.5284ZM57.6876 38.3115C56.8062 38.3115 56.0925 37.5979 56.0925 36.7142C56.0925 35.8305 56.8062 35.1191 57.6876 35.1191C58.5691 35.1191 59.285 35.8328 59.285 36.7142C59.285 37.5956 58.5713 38.3115 57.6876 38.3115Z" fill="#007AFF"/>
<path d="M57.6876 52.7278C59.1765 52.7278 60.3834 51.5209 60.3834 50.032C60.3834 48.5432 59.1765 47.3362 57.6876 47.3362C56.1988 47.3362 54.9919 48.5432 54.9919 50.032C54.9919 51.5209 56.1988 52.7278 57.6876 52.7278Z" fill="#007AFF"/>
<mask id="mask2_611_3603" style="mask-type:luminance" maskUnits="userSpaceOnUse" x="71" y="44" width="191" height="172">
<path d="M255.373 201.674L181.141 209.052C182.157 209.007 160.479 209.976 149.371 208.831C149.371 208.831 135.711 216.195 111.639 214.927C102.073 214.424 89.0841 212.907 75.2338 202.965L71.8758 194.32L74.1353 44.58H261.536L255.375 201.674H255.373Z" fill="white"/>
</mask>
<g mask="url(#mask2_611_3603)">
<path d="M83.4979 163.987L87.1288 164.04L88.5807 145.181C88.5807 145.181 87.612 144.212 87.2094 144.778C86.8067 145.344 83.4979 151.396 83.4979 151.396V163.987Z" fill="#1A263C"/>
<path d="M123.823 99.6502C123.823 99.6502 126.595 143.244 119.089 154.383C111.583 165.519 96.0887 133.076 96.0887 132.349C96.0887 131.622 96.0887 104.621 96.0887 104.621L123.823 99.6502Z" fill="#1A263C"/>
<path d="M157.584 218.567C155.087 216.842 152.331 215.75 149.32 215.287L147.622 212.855L141.989 208.663L140.416 202.665L113.948 169.691L119.664 157.691C120.46 160.016 121.682 162.157 123.333 164.112C124.899 166.269 126.771 168.02 128.95 169.372L128.284 170.703L144.42 199.309L154.087 207.408L158.727 217.802L157.676 218.614C157.644 218.598 157.611 218.583 157.579 218.567H157.584Z" fill="#D39C84"/>
<path d="M121.984 177.49L130.924 173.325L124.789 159.875L122.315 171.387L121.984 177.49Z" fill="#19CC83"/>
<path d="M111.505 123.595C111.505 123.595 108.266 133.548 112.36 138.615L93.9768 135.968L101.174 117.237L106.017 114.812L110.536 118.823L111.505 123.595Z" fill="#D39C84"/>
<path d="M123.606 101.218C123.606 101.218 124.391 102.963 123.702 105.67C123.418 106.789 123.689 107.975 124.396 108.887L126.221 111.248C126.653 111.807 126.458 112.624 125.816 112.926L123.351 114.087C123.272 120.666 116.127 127.812 110.509 124.384C108.713 123.288 107.046 121.735 105.762 119.545C105.762 119.545 101.391 119.431 101.449 113.946C101.449 113.946 102.333 108.84 106.521 111.581C106.521 111.581 105.013 103.028 106.189 102.65C109.055 101.726 115.013 99.9969 123.604 101.218H123.606Z" fill="#F7C9AB"/>
<path d="M89.4577 177.933L90.4264 187.94L86.263 211.598L100.521 218.216L126.702 217.849L123.463 181.484L126.798 163.62C126.798 159.407 125.572 155.284 123.27 151.756L120.127 146.939L118.116 143.387C116.4 140.353 113.937 137.81 110.959 135.997L111.606 137.483L106.639 135.076C102.946 133.286 98.8829 133.454 94.9008 134.445C94.9008 134.445 88.7731 139.199 87.4756 142.192L87.2608 147.143L86.6232 152.331C85.9342 157.949 86.2205 163.642 87.4689 169.161L89.4532 177.929L89.4577 177.933Z" fill="#5FD6A3"/>
<path d="M109.368 110.001L108.747 110.261L112.549 119.355L113.17 119.095L109.368 110.001Z" fill="url(#paint2_linear_611_3603)"/>
<path d="M105.33 119.184L104.895 119.698L107.653 122.038L108.089 121.524L105.33 119.184Z" fill="url(#paint3_linear_611_3603)"/>
<path d="M123.315 114.812L112.201 118.774L111.838 120.138C111.594 121.058 110.764 121.668 109.865 121.586L107.062 121.407C107.062 121.407 112.982 128.704 116.19 128.246C116.19 128.246 126.145 124.53 123.313 114.812H123.315Z" fill="#19CC83"/>
<path d="M125.161 113.583C125.346 113.203 125.953 113.116 126.512 113.391C126.917 113.588 127.183 113.919 127.232 114.23L140.861 121.519L140.543 122.111L126.926 114.827C126.648 114.97 126.235 114.959 125.836 114.767C125.275 114.494 124.973 113.961 125.158 113.581L125.161 113.583Z" fill="white"/>
<path d="M203.184 71.0816C202.535 74.5067 202.77 77.1913 209.585 78.7193C216.571 80.2853 217.685 77.377 218.334 73.9519C218.983 70.5267 216.117 67.1084 211.934 66.3142C207.75 65.5222 203.833 67.6565 203.184 71.0816Z" fill="#333333"/>
<path d="M208.777 68.1196C208.128 71.5447 208.363 74.2293 215.178 75.7573C222.164 77.3233 223.278 74.415 223.927 70.9899C224.576 67.5648 221.71 64.1464 217.527 63.3522C213.343 62.5602 209.426 64.6945 208.777 68.1196Z" fill="#1C1C1C"/>
<path d="M202.142 66.2113C201.493 69.6364 201.728 72.321 208.542 73.849C215.529 75.415 216.643 72.5067 217.292 69.0816C217.941 65.6565 215.075 62.2381 210.891 61.4439C206.708 60.6519 202.79 62.7862 202.142 66.2113Z" fill="#1C1C1C"/>
<path d="M209.314 74.1733C208.665 77.5984 208.9 80.283 215.715 81.811C222.701 83.377 223.815 80.4687 224.464 77.0436C225.113 73.6185 222.247 70.2001 218.064 69.4059C213.88 68.6139 209.963 70.7482 209.314 74.1733Z" fill="#1C1C1C"/>
<path d="M199.576 72.7124C198.927 76.1375 199.162 78.8221 205.976 80.3501C212.963 81.9161 214.077 79.0078 214.726 75.5827C215.374 72.1576 212.509 68.7392 208.325 67.945C204.142 67.1531 200.224 69.2873 199.576 72.7124Z" fill="#1C1C1C"/>
<path d="M188.314 84.4777L187.81 86.8178C187.725 87.2115 187.716 87.6187 187.786 88.0169L188.128 89.9856C188.24 90.6322 188.148 91.2988 187.862 91.8894L185.772 96.2251C185.526 96.7374 185.423 97.3056 185.472 97.8694L185.526 98.4689C185.564 98.8985 185.692 99.3168 185.898 99.6949L189.81 106.874C190.282 107.742 191.135 108.335 192.112 108.48L194.079 108.771C195.564 108.99 196.69 110.232 196.761 111.733L197.242 121.785C197.361 124.266 200.164 125.624 202.202 124.203C203.882 123.031 205.605 121.409 206.623 119.277C207.589 117.25 209.24 116.429 210.893 116.183C212.782 115.901 213.994 114.002 213.446 112.174C212.591 109.324 211.806 104.221 210.71 93.3302C210.654 92.7664 208.849 92.149 207.509 91.7686C206.596 91.5091 205.849 90.8581 205.473 89.9878L203.415 85.216C203.059 84.3905 202.365 83.7551 201.509 83.4732L193.269 80.764C191.911 80.3166 190.421 80.8423 189.645 82.0437L188.748 83.4329C188.542 83.7529 188.394 84.1063 188.314 84.4799V84.4777Z" fill="#A25939"/>
<path d="M209.5 105.617H212.513C212.513 105.617 217.679 100.773 219.831 92.2743C219.936 91.8559 224.538 78.1398 208.855 74.3031C206.969 73.8422 202.73 72.6811 198.741 73.7438C190.079 76.0526 188.437 83.9162 188.437 83.9162C188.437 83.9162 192.822 79.6835 197.987 84.5247C199.649 86.0818 199.752 88.5471 200.22 90.7776L200.73 92.677L202.69 93.8067L203.204 93.2877L204.222 92.5114C205.433 91.5875 207.231 91.9588 207.882 93.3347C207.909 93.3906 207.934 93.4465 207.956 93.5047L208.258 94.2832C208.75 95.545 208.591 96.9701 207.831 98.0909L206.11 100.63L209.5 105.615V105.617Z" fill="#1C1C1C"/>
<path d="M195.027 97.9499L195.312 99.9365C195.598 101.941 197.021 103.597 198.958 104.183L200.408 104.621L200.73 108.333C200.73 108.333 190.723 113.74 185.544 105.807C185.544 105.807 182.853 99.8873 185.544 96.2296L195.025 97.9477L195.027 97.9499Z" fill="#19CC83"/>
<path d="M202.529 93.511L194.866 97.6544L195.187 98.2468L202.85 94.1033L202.529 93.511Z" fill="url(#paint4_linear_611_3603)"/>
<path d="M205.919 100.368L200.216 104.357L200.602 104.908L206.305 100.919L205.919 100.368Z" fill="url(#paint5_linear_611_3603)"/>
<path d="M157.13 141.065L152.51 135.783L153.022 128.243C153.161 126.208 151.949 124.322 150.04 123.601L138.962 119.418C138.096 121.498 139.033 123.892 141.08 124.834L143.376 125.888L141.033 129.635L142.655 131.351L144.794 130.948L145.501 136.682C145.854 139.541 147.201 142.185 149.306 144.15L153.808 148.353L157.134 141.065H157.13Z" fill="#19CC83"/>
<path d="M94.0148 173.873L98.1312 194.696L139.049 205.347L143.892 209.222H150.913L161.083 212.612L162.779 206.56L152.85 200.989L140.262 200.265L110.239 186.947L107.574 171.935L94.0148 173.873Z" fill="#E8B295"/>
<path d="M100.724 142.197L103.845 143.702L107.288 154.248L109.225 177.061C109.225 177.061 100.939 179.428 93.8381 177.061L92.762 166.783L91.6859 155.107V147.467L93.6233 143.378L97.8202 141.633L100.726 142.194L100.724 142.197Z" fill="#19CC83"/>
<path d="M124.299 100.916L112.744 104.863C111.583 105.259 110.579 106.019 109.883 107.031C109.386 107.753 109.06 108.579 108.932 109.447L108.353 113.006C108.353 113.006 104.156 108.948 102.131 112.78C101.192 114.659 101.59 116.93 103.109 118.38L103.995 119.223L105.36 125.237L106.478 130.129C106.885 131.908 106.664 133.776 105.845 135.407C105.351 136.393 104.843 137.302 104.606 137.396C104.335 137.505 98.6525 138.295 96.4086 139.693C84.6254 147.038 83.1243 159.331 83.4957 163.987C83.5382 164.524 83.2429 160.984 82.8491 155.754C81.7149 140.628 85.3547 124.944 88.7642 110.165C88.8403 109.84 88.885 109.619 88.894 109.525C88.9409 109.062 89.7441 106.583 90.6457 103.91C93.337 95.9298 100.863 90.536 109.281 90.7038C110.946 90.7373 112.756 90.9006 114.72 91.2317C121.715 92.4152 124.297 100.916 124.297 100.916H124.299Z" fill="#1A263C"/>
<path d="M215.09 111.659L217.444 113.228C217.444 113.228 235.265 130.32 223.663 164.112L221.337 188.32C221.337 188.32 240.305 212.025 234.254 228.164H183.819V142.928C183.819 142.928 190.88 118.214 215.09 111.657V111.659Z" fill="#FCFCFC"/>
<path d="M179.783 153.016C183.314 152.512 202.732 124.771 206.01 121.997C209.287 119.223 217.231 121.997 217.231 121.997C217.231 121.997 220.887 125.275 220.887 130.32C220.887 135.362 213.574 145.45 213.574 145.45C213.574 145.45 189.869 169.407 178.016 172.685L147.503 149.485L157.338 139.192L179.781 153.016H179.783Z" fill="#F4F4F4"/>
<path d="M219.137 115.214C219.137 115.214 209.556 114.143 199.972 122.621H196.441L198.71 126.311L184.336 140.937" stroke="#D3D3D3" stroke-width="0.176736" stroke-miterlimit="10"/>
</g>
<defs>
<linearGradient id="paint0_linear_611_3603" x1="48.0879" y1="117.749" x2="232.634" y2="117.749" gradientUnits="userSpaceOnUse">
<stop offset="0.02" stop-color="#005EB2"/>
<stop offset="0.34" stop-color="#0495AB"/>
<stop offset="0.64" stop-color="#08C0A5"/>
<stop offset="0.87" stop-color="#0ADBA2"/>
<stop offset="1" stop-color="#0BE5A1"/>
</linearGradient>
<linearGradient id="paint1_linear_611_3603" x1="47.9761" y1="117.749" x2="232.746" y2="117.749" gradientUnits="userSpaceOnUse">
<stop offset="0.02" stop-color="#005EB2"/>
<stop offset="1" stop-color="#0BE5A1"/>
</linearGradient>
<linearGradient id="paint2_linear_611_3603" x1="110.961" y1="119.345" x2="110.961" y2="109.991" gradientUnits="userSpaceOnUse">
<stop stop-color="#00CC8F"/>
<stop offset="0.12" stop-color="#04CC90"/>
<stop offset="0.24" stop-color="#10CF96"/>
<stop offset="0.37" stop-color="#25D39F"/>
<stop offset="0.5" stop-color="#43D9AC"/>
<stop offset="0.63" stop-color="#69E1BD"/>
<stop offset="0.76" stop-color="#98EAD1"/>
<stop offset="0.9" stop-color="#CEF5E9"/>
<stop offset="1" stop-color="white"/>
</linearGradient>
<linearGradient id="paint3_linear_611_3603" x1="106.487" y1="122.05" x2="106.487" y2="119.198" gradientUnits="userSpaceOnUse">
<stop stop-color="#00CC8F"/>
<stop offset="0.12" stop-color="#04CC90"/>
<stop offset="0.24" stop-color="#10CF96"/>
<stop offset="0.37" stop-color="#25D39F"/>
<stop offset="0.5" stop-color="#43D9AC"/>
<stop offset="0.63" stop-color="#69E1BD"/>
<stop offset="0.76" stop-color="#98EAD1"/>
<stop offset="0.9" stop-color="#CEF5E9"/>
<stop offset="1" stop-color="white"/>
</linearGradient>
<linearGradient id="paint4_linear_611_3603" x1="194.867" y1="95.8763" x2="202.849" y2="95.8763" gradientUnits="userSpaceOnUse">
<stop stop-color="#00CC8F"/>
<stop offset="0.12" stop-color="#04CC90"/>
<stop offset="0.24" stop-color="#10CF96"/>
<stop offset="0.37" stop-color="#25D39F"/>
<stop offset="0.5" stop-color="#43D9AC"/>
<stop offset="0.63" stop-color="#69E1BD"/>
<stop offset="0.76" stop-color="#98EAD1"/>
<stop offset="0.9" stop-color="#CEF5E9"/>
<stop offset="1" stop-color="white"/>
</linearGradient>
<linearGradient id="paint5_linear_611_3603" x1="200.22" y1="102.627" x2="206.308" y2="102.627" gradientUnits="userSpaceOnUse">
<stop stop-color="#00CC8F"/>
<stop offset="0.12" stop-color="#04CC90"/>
<stop offset="0.24" stop-color="#10CF96"/>
<stop offset="0.37" stop-color="#25D39F"/>
<stop offset="0.5" stop-color="#43D9AC"/>
<stop offset="0.63" stop-color="#69E1BD"/>
<stop offset="0.76" stop-color="#98EAD1"/>
<stop offset="0.9" stop-color="#CEF5E9"/>
<stop offset="1" stop-color="white"/>
</linearGradient>
</defs>
</svg>
