<svg width="14" height="18" viewBox="0 0 14 18" fill="none" xmlns="http://www.w3.org/2000/svg">
<g id="Group">
<path id="Vector" d="M6.66667 0C3.40741 0 0 2.51852 0 6.66667C0 10.5926 5.92593 16.5926 6.14815 16.8148C6.2963 16.963 6.44444 17.037 6.66667 17.037C6.88889 17.037 7.03704 16.963 7.18519 16.8148C7.40741 16.5926 13.3333 10.5926 13.3333 6.66667C13.3333 2.51852 9.92593 0 6.66667 0ZM6.66667 8.88889C5.40741 8.88889 4.44444 7.92593 4.44444 6.66667C4.44444 5.40741 5.40741 4.44444 6.66667 4.44444C7.92593 4.44444 8.88889 5.40741 8.88889 6.66667C8.88889 7.92593 7.92593 8.88889 6.66667 8.88889Z" fill="#1A263C"/>
</g>
</svg>
