<svg width="34" height="35" viewBox="0 0 34 35" fill="none" xmlns="http://www.w3.org/2000/svg">
<g clip-path="url(#clip0_623_151)">
<path d="M2.74931 11.4649L8.7713 6.58625L18.4599 18.0227L12.438 22.9013C9.21081 25.5158 4.4197 25.0762 1.74617 21.9204C-0.92735 18.7645 -0.477832 14.0793 2.74931 11.4649Z" fill="#007AFF"/>
<path d="M8.77075 6.58594L14.7927 1.70729C18.0199 -0.907147 22.811 -0.467563 25.4845 2.68826C28.158 5.84408 27.7085 10.5293 24.4814 13.1437L18.4594 18.0224L8.77075 6.58594Z" fill="url(#paint0_linear_623_151)"/>
<path d="M31.6892 19.3418L32.7858 24.2232L23.092 26.3057L21.9954 21.4242C21.4078 18.8084 23.1022 16.2176 25.7778 15.6429C28.4528 15.0682 31.1021 16.7252 31.6898 19.3416L31.6892 19.3418Z" fill="#007AFF"/>
<path d="M32.7861 24.2227L33.8827 29.1041C34.4704 31.72 32.7759 34.3107 30.1004 34.8855C27.4254 35.4601 24.7761 33.8031 24.1883 31.1867L23.0917 26.3053L32.7855 24.2228L32.7861 24.2227Z" fill="url(#paint1_linear_623_151)"/>
</g>
<defs>
<linearGradient id="paint0_linear_623_151" x1="13.6151" y1="12.3042" x2="25.2677" y2="2.43236" gradientUnits="userSpaceOnUse">
<stop offset="0.02" stop-color="#005EB2"/>
<stop offset="1" stop-color="#0BE5A1"/>
</linearGradient>
<linearGradient id="paint1_linear_623_151" x1="27.9395" y1="25.2638" x2="30.0105" y2="34.9042" gradientUnits="userSpaceOnUse">
<stop offset="0.02" stop-color="#005EB2"/>
<stop offset="1" stop-color="#0BE5A1"/>
</linearGradient>
<clipPath id="clip0_623_151">
<rect width="34" height="35" fill="white"/>
</clipPath>
</defs>
</svg>
