<svg width="37" height="44" viewBox="0 0 37 44" fill="none" xmlns="http://www.w3.org/2000/svg">
<rect x="12.747" y="1.22235" width="16.6311" height="24.1001" rx="8.31553" fill="white" stroke="#D3E8FF" stroke-width="0.814815"/>
<g clip-path="url(#clip0_623_68)">
<path d="M18.5001 0L0.166748 6.7694V13.5388C0.206859 17.6653 0.993138 27.9513 9.53726 36.9976C12.5175 40.1532 15.7346 42.4093 18.5001 44.0005C21.2655 42.4099 24.4826 40.1532 27.4629 36.9976C36.007 27.9513 36.7933 17.6647 36.8334 13.5388V6.7694L18.5001 0Z" fill="#007AFF"/>
<path d="M18.4999 40.574C15.9323 38.946 13.6405 37.0701 11.6696 34.9838C4.31941 27.2001 3.14521 18.1889 3.09961 13.5102V8.81336L18.4999 3.12695L33.8997 8.81336V13.5388C33.8546 18.1894 32.6804 27.2006 25.3303 34.9838C23.3594 37.0707 21.067 38.946 18.4999 40.5746V40.574Z" fill="url(#paint0_linear_623_68)"/>
<path opacity="0.2" d="M36.8333 6.76893V13.5378C36.7932 17.6665 36.0085 27.9513 27.4611 36.9972C24.4836 40.1544 21.2643 42.4094 18.4999 44.0006C15.7351 42.4094 12.5158 40.1544 9.53877 36.9972C8.17501 35.5526 7.00905 34.0784 6.01123 32.6009C18.0966 29.1173 26.9331 17.9747 26.9331 4.76723C26.9331 4.20623 26.9182 3.64907 26.8853 3.09521L36.8327 6.76948L36.8333 6.76893Z" fill="white"/>
</g>
<defs>
<linearGradient id="paint0_linear_623_68" x1="3.09961" y1="21.8505" x2="33.8997" y2="21.8505" gradientUnits="userSpaceOnUse">
<stop offset="0.02" stop-color="#005EB2"/>
<stop offset="1" stop-color="#0BE5A1"/>
</linearGradient>
<clipPath id="clip0_623_68">
<rect width="36.6667" height="44" fill="white" transform="translate(0.166748)"/>
</clipPath>
</defs>
</svg>
