<svg width="128" height="137" viewBox="0 0 128 137" fill="none" xmlns="http://www.w3.org/2000/svg">
<path d="M109.561 36.1499V92.0746C109.561 92.0746 90.1297 102.626 73.9213 102.716C73.5647 102.718 73.2141 102.617 72.9062 102.425C72.5983 102.233 72.3443 101.956 72.1708 101.623C71.9973 101.29 71.9106 100.913 71.9197 100.532C71.9289 100.151 72.0335 99.7801 72.2228 99.4571C73.8758 96.6103 75.7016 93.8823 77.6885 91.2907V83.5597H64.7402C62.3636 83.5568 60.085 82.5467 58.4045 80.7508C56.724 78.955 55.7787 76.5201 55.776 73.9803V65.5904C50.7773 62.0649 49.6032 62.1126 49.3338 60.5227C49.0566 58.8875 50.0437 58.7611 55.776 50.5176V36.1499H109.561Z" fill="#D3E8FF"/>
<path d="M77.6896 84.4269V91.2902C75.7027 93.8818 73.8769 96.6098 72.2239 99.4566C72.0346 99.7795 71.93 100.151 71.9208 100.532C71.9117 100.913 71.9984 101.289 72.1719 101.622C72.3454 101.955 72.5994 102.232 72.9073 102.424C73.2152 102.617 73.5658 102.717 73.9224 102.715C90.1309 102.625 107.794 92.2479 108.538 91.8053C108.848 91.621 109.107 91.3514 109.287 91.0244C109.467 90.6973 109.562 90.3248 109.562 89.9454V44.3243C107.334 53.1009 103.322 61.2447 97.8133 68.176C92.3044 75.1074 85.4335 80.656 77.6896 84.4269Z" fill="#D3E8FF"/>
<path d="M123.459 136.778H61.7947C61.1889 121.595 67.2116 108.01 72.224 99.4575C77.6887 100.589 106.225 94.2032 109.81 88.6685C119.522 100.589 123.727 116.272 123.506 129.126L123.459 136.778Z" fill="#D3E8FF"/>
<path d="M116.459 98.9548C111.663 109.652 103.78 118.42 93.9709 123.97C84.1615 129.52 72.9438 131.557 61.9694 129.783C61.7626 132.108 61.7044 134.445 61.7951 136.778H123.459L123.506 129.126C123.668 119.722 121.457 108.806 116.459 98.9548Z" fill="#1A263C"/>
<path d="M106.869 80.9137C89.6412 73.9985 89.6412 55.4069 89.6412 44.2991C89.6412 43.5375 89.4835 42.4779 88.733 41.755C87.3695 40.4415 87.3371 41.2199 67.0721 40.9833C61.2178 40.8782 56.4329 38.705 52.8504 34.5236C44.8556 25.1933 45.8258 9.19718 45.8711 8.5213C46.0222 6.26191 48.7994 5.78906 49.635 7.70945C56.2775 20.1943 103.219 -14.2416 114.569 8.53434C119.044 9.17297 122.715 12.3467 124.992 17.5897C127.955 24.4145 128.305 34.0016 125.975 44.5851C123.361 56.4656 117.537 68.7932 109.137 80.2349C108.875 80.5909 108.515 80.8487 108.107 80.9707C107.699 81.0928 107.266 81.0728 106.869 80.9137Z" fill="#1A263C"/>
<path d="M119.36 10.387C118.645 20.2376 115.609 29.7347 110.535 37.994C105.461 46.2533 98.5136 53.0061 90.3398 57.6238C91.675 66.8053 95.5607 76.3743 106.869 80.9133C107.265 81.0724 107.699 81.0923 108.106 80.9702C108.514 80.8481 108.875 80.5903 109.136 80.2343C117.537 68.7923 123.36 56.465 125.975 44.5845C128.564 32.8232 128.526 16.5407 119.36 10.387Z" fill="#1A263C"/>
<path d="M21.9173 119.748C21.7402 119.748 21.5627 119.746 21.385 119.742C15.7154 119.576 10.3249 117.076 6.33999 112.763C2.35504 108.45 0.0838329 102.658 0.00090667 96.5979C-0.0287791 93.1023 0.670848 89.6436 2.04892 86.4733C3.427 83.3029 5.44888 80.5005 7.96757 78.27V19.6971C7.96935 18.0039 8.59955 16.3807 9.7199 15.1834C10.8403 13.9862 12.3593 13.3128 13.9437 13.3109H29.88C31.4644 13.3128 32.9834 13.9862 34.1038 15.1834C35.2241 16.3807 35.8543 18.0039 35.8561 19.6971V78.2684C39.3368 81.3366 41.8463 85.4784 43.0417 90.1278C44.2372 94.7773 44.0604 99.7077 42.5354 104.246C41.0104 108.784 38.2117 112.708 34.5215 115.483C30.8312 118.257 26.4294 119.747 21.9173 119.748Z" fill="#1A263C"/>
<path d="M35.8561 78.2686V57.578C28.5551 66.0126 18.654 71.3529 7.96757 72.62V78.2702C5.44888 80.5008 3.427 83.3031 2.04892 86.4735C0.670848 89.6439 -0.0287791 93.1026 0.00090667 96.5981C0.0838329 102.658 2.35504 108.45 6.33999 112.763C10.3249 117.076 15.7154 119.576 21.385 119.742C21.5631 119.746 21.7405 119.748 21.9173 119.748C26.4294 119.747 30.8312 118.258 34.5215 115.483C38.2117 112.708 41.0104 108.784 42.5354 104.246C44.0604 99.7079 44.2372 94.7775 43.0417 90.128C41.8463 85.4786 39.3368 81.3369 35.8561 78.2686Z" fill="#D4CCC7"/>
<path d="M93.6256 64.0197H85.6575V46.9898H89.8266C91.5158 37.7433 103.586 38.751 103.586 51.2473C103.586 58.4326 100.199 64.0197 93.6256 64.0197Z" fill="#D3E8FF"/>
<path d="M75.6964 53.7575C73.5839 53.755 71.5585 52.857 70.0647 51.2607C68.5709 49.6644 67.7306 47.5001 67.7283 45.2425C67.7283 41.3557 72.919 31.2796 73.9594 29.2991C74.1325 28.9694 74.3847 28.695 74.69 28.504C74.9953 28.313 75.3427 28.2123 75.6964 28.2123C76.0502 28.2123 76.3976 28.313 76.7028 28.504C77.0081 28.695 77.2603 28.9694 77.4335 29.2991C78.4738 31.2796 83.6646 41.3557 83.6646 45.2425C83.6622 47.5001 82.822 49.6644 81.3281 51.2607C79.8343 52.857 77.809 53.755 75.6964 53.7575Z" fill="#D3E8FF"/>
<path d="M21.9109 111.233C18.745 111.234 15.6732 110.083 13.2007 107.97C10.7283 105.857 9.00235 102.907 8.30689 99.6069C7.61142 96.3064 7.98782 92.8512 9.37416 89.8097C10.7605 86.7682 13.0742 84.3214 15.9348 82.8718V47.3708H27.887V82.8718C30.7476 84.3214 33.0613 86.7682 34.4477 89.8097C35.834 92.8512 36.2104 96.3064 35.515 99.6069C34.8195 102.907 33.0936 105.857 30.6211 107.97C28.1486 110.083 25.0768 111.234 21.9109 111.233Z" fill="#0BFFA1"/>
<path d="M3.98374 121.877C5.08391 121.877 5.97578 120.924 5.97578 119.748C5.97578 118.572 5.08391 117.619 3.98374 117.619C2.88357 117.619 1.9917 118.572 1.9917 119.748C1.9917 120.924 2.88357 121.877 3.98374 121.877Z" fill="#1A263C"/>
<path d="M11.952 126.135C13.0522 126.135 13.944 125.182 13.944 124.006C13.944 122.83 13.0522 121.877 11.952 121.877C10.8518 121.877 9.95996 122.83 9.95996 124.006C9.95996 125.182 10.8518 126.135 11.952 126.135Z" fill="#1A263C"/>
<path d="M31.8719 126.135C32.9721 126.135 33.864 125.182 33.864 124.006C33.864 122.83 32.9721 121.877 31.8719 121.877C30.7717 121.877 29.8799 122.83 29.8799 124.006C29.8799 125.182 30.7717 126.135 31.8719 126.135Z" fill="#1A263C"/>
<path d="M21.9115 128.263C23.0116 128.263 23.9035 127.31 23.9035 126.135C23.9035 124.959 23.0116 124.006 21.9115 124.006C20.8113 124.006 19.9194 124.959 19.9194 126.135C19.9194 127.31 20.8113 128.263 21.9115 128.263Z" fill="#1A263C"/>
<path d="M39.8399 121.877C40.9401 121.877 41.832 120.924 41.832 119.748C41.832 118.573 40.9401 117.62 39.8399 117.62C38.7398 117.62 37.8479 118.573 37.8479 119.748C37.8479 120.924 38.7398 121.877 39.8399 121.877Z" fill="#1A263C"/>
<path d="M17.928 21.8263H7.96777V26.0838H17.928C18.4563 26.0838 18.963 25.8595 19.3366 25.4603C19.7101 25.0611 19.92 24.5196 19.92 23.955C19.92 23.3905 19.7101 22.849 19.3366 22.4498C18.963 22.0506 18.4563 21.8263 17.928 21.8263Z" fill="#0BFFA1"/>
<path d="M21.9121 30.3408H7.96777V34.5982H21.9121C22.4404 34.5982 22.9471 34.374 23.3206 33.9747C23.6942 33.5755 23.9041 33.0341 23.9041 32.4695C23.9041 31.9049 23.6942 31.3635 23.3206 30.9643C22.9471 30.565 22.4404 30.3408 21.9121 30.3408Z" fill="#0BFFA1"/>
<path d="M17.928 38.8558H7.96777V43.1133H17.928C18.4563 43.1133 18.963 42.889 19.3366 42.4898C19.7101 42.0905 19.92 41.5491 19.92 40.9845C19.92 40.4199 19.7101 39.8785 19.3366 39.4793C18.963 39.08 18.4563 38.8558 17.928 38.8558Z" fill="#0BFFA1"/>
<path d="M9.31421 102.714C10.1529 104.61 11.3567 106.295 12.8469 107.66C14.3372 109.024 16.0803 110.037 17.9621 110.632C19.844 111.227 21.8222 111.391 23.7673 111.112C25.7125 110.834 27.5807 110.12 29.2497 109.017C30.9188 107.914 32.3511 106.447 33.4529 104.711C34.5547 102.976 35.3012 101.011 35.6436 98.9461C35.9859 96.8811 35.9164 94.7621 35.4395 92.7278C34.9626 90.6935 34.0892 88.7897 32.8763 87.141C30.6411 91.7773 27.2672 95.6762 23.1164 98.4195C18.9656 101.163 14.1944 102.647 9.31421 102.714Z" fill="#979797"/>
<path d="M17.9284 98.4607C20.1288 98.4607 21.9125 96.5546 21.9125 94.2032C21.9125 91.8519 20.1288 89.9457 17.9284 89.9457C15.7281 89.9457 13.9443 91.8519 13.9443 94.2032C13.9443 96.5546 15.7281 98.4607 17.9284 98.4607Z" fill="url(#paint0_linear_202_588)"/>
<path d="M25.8958 89.9458C26.996 89.9458 27.8879 88.9927 27.8879 87.817C27.8879 86.6414 26.996 85.6883 25.8958 85.6883C24.7957 85.6883 23.9038 86.6414 23.9038 87.817C23.9038 88.9927 24.7957 89.9458 25.8958 89.9458Z" fill="url(#paint1_linear_202_588)"/>
<path d="M67.9695 47.3176C68.4435 49.332 69.5901 51.0917 71.1935 52.2657C72.797 53.4396 74.7467 53.9468 76.6756 53.6917C78.6046 53.4366 80.3798 52.4369 81.6671 50.8807C82.9544 49.3245 83.6651 47.3191 83.6653 45.2421C83.6653 43.587 82.723 40.8092 81.5619 38.0123C80.2004 40.6501 78.244 42.8827 75.8704 44.5077C73.4968 46.1327 70.781 47.0985 67.9695 47.3176Z" fill="#D3E8FF"/>
<path d="M94.6218 21.8255C98.4724 21.8255 101.594 18.4898 101.594 14.3749C101.594 10.2601 98.4724 6.92432 94.6218 6.92432C90.7712 6.92432 87.6497 10.2601 87.6497 14.3749C87.6497 18.4898 90.7712 21.8255 94.6218 21.8255Z" fill="#0BFFA1"/>
<path d="M106.574 26.0836C108.225 26.0836 109.563 24.6539 109.563 22.8904C109.563 21.1269 108.225 19.6973 106.574 19.6973C104.924 19.6973 103.586 21.1269 103.586 22.8904C103.586 24.6539 104.924 26.0836 106.574 26.0836Z" fill="#0BFFA1"/>
<path d="M111.554 136.778H83.6653V117.846C83.6653 109.668 89.741 102.845 97.3932 102.72C99.2418 102.692 101.077 103.056 102.793 103.792C104.509 104.527 106.071 105.62 107.388 107.006C108.706 108.392 109.752 110.044 110.467 111.866C111.182 113.688 111.552 115.644 111.554 117.619V136.778Z" fill="#1A263C"/>
<path d="M99.6005 41.9202C99.6005 41.9633 99.602 42.0061 99.602 42.0492C99.6027 46.6231 98.4043 51.1058 96.1427 54.989C93.881 58.8722 90.6465 62.0007 86.8059 64.0197H93.6259C100.2 64.0197 103.586 58.4318 103.586 51.2473C103.586 46.5071 101.849 43.4215 99.6005 41.9202Z" fill="#D3E8FF"/>
<path d="M95.6176 119.748C97.818 119.748 99.6017 117.842 99.6017 115.491C99.6017 113.139 97.818 111.233 95.6176 111.233C93.4173 111.233 91.6335 113.139 91.6335 115.491C91.6335 117.842 93.4173 119.748 95.6176 119.748Z" fill="url(#paint2_linear_202_588)"/>
<path d="M101.594 124.005C102.694 124.005 103.586 123.052 103.586 121.876C103.586 120.701 102.694 119.748 101.594 119.748C100.494 119.748 99.6021 120.701 99.6021 121.876C99.6021 123.052 100.494 124.005 101.594 124.005Z" fill="url(#paint3_linear_202_588)"/>
<defs>
<linearGradient id="paint0_linear_202_588" x1="17.9284" y1="89.9457" x2="17.9284" y2="98.4607" gradientUnits="userSpaceOnUse">
<stop stop-color="#0BFFA1"/>
<stop offset="0.255" stop-color="#0AEFAC" stop-opacity="0.85"/>
<stop offset="0.47" stop-color="#09EAB0" stop-opacity="0.65"/>
<stop offset="1" stop-color="#007AFF"/>
<stop offset="1" stop-color="#007AFF" stop-opacity="0.29"/>
</linearGradient>
<linearGradient id="paint1_linear_202_588" x1="25.8958" y1="85.6883" x2="25.8958" y2="89.9458" gradientUnits="userSpaceOnUse">
<stop stop-color="#0BFFA1"/>
<stop offset="0.255" stop-color="#0AEFAC" stop-opacity="0.85"/>
<stop offset="0.47" stop-color="#09EAB0" stop-opacity="0.65"/>
<stop offset="1" stop-color="#007AFF"/>
<stop offset="1" stop-color="#007AFF" stop-opacity="0.29"/>
</linearGradient>
<linearGradient id="paint2_linear_202_588" x1="95.6176" y1="111.233" x2="95.6176" y2="119.748" gradientUnits="userSpaceOnUse">
<stop stop-color="#0BFFA1"/>
<stop offset="0.255" stop-color="#0AEFAC" stop-opacity="0.85"/>
<stop offset="0.47" stop-color="#09EAB0" stop-opacity="0.65"/>
<stop offset="1" stop-color="#007AFF"/>
<stop offset="1" stop-color="#007AFF" stop-opacity="0.29"/>
</linearGradient>
<linearGradient id="paint3_linear_202_588" x1="101.594" y1="119.748" x2="101.594" y2="124.005" gradientUnits="userSpaceOnUse">
<stop stop-color="#0BFFA1"/>
<stop offset="0.255" stop-color="#0AEFAC" stop-opacity="0.85"/>
<stop offset="0.47" stop-color="#09EAB0" stop-opacity="0.65"/>
<stop offset="1" stop-color="#007AFF"/>
<stop offset="1" stop-color="#007AFF" stop-opacity="0.29"/>
</linearGradient>
</defs>
</svg>
