<svg width="141" height="136" viewBox="0 0 141 136" fill="none" xmlns="http://www.w3.org/2000/svg">
<g clip-path="url(#clip0_611_2924)">
<path d="M61.7124 37.9287C27.5487 49.4498 1.4244 68.8209 0.0910969 88.7441C-2.82808 132.338 65.7109 147.521 86.032 126.182C205.749 59.6419 96.142 -42.3163 72.348 26.7425C70.3275 31.3415 66.5948 35.0507 61.7124 37.9272V37.9287Z" fill="url(#paint0_linear_611_2924)"/>
<path d="M79.2274 112.811C79.2274 106.686 82.4344 101.309 87.264 98.274V9.12609C87.264 4.08508 91.349 0 96.3901 0C101.431 0 105.513 4.08508 105.513 9.12609V98.274C110.343 101.311 113.553 106.685 113.553 112.811C113.553 122.288 105.869 129.974 96.3901 129.974C86.9115 129.974 79.2274 122.29 79.2274 112.811Z" fill="#007AFF"/>
<path d="M96.39 3.29944C99.6014 3.29944 102.214 5.91319 102.214 9.12457V100.096L103.757 101.067C107.824 103.623 110.252 108.014 110.252 112.811C110.252 120.456 104.033 126.673 96.39 126.673C88.747 126.673 82.5283 120.454 82.5283 112.811C82.5283 108.014 84.9556 103.623 89.0216 101.067L90.5649 100.096V9.12604C90.5649 5.91319 93.1786 3.30091 96.39 3.30091V3.29944Z" fill="#5CB9FF"/>
<path d="M110.252 112.811C110.252 120.454 104.032 126.673 96.3887 126.673C88.7456 126.673 82.5255 120.453 82.5255 112.811C82.5255 108.012 84.9528 103.623 89.0173 101.067L90.5621 100.096V55.2484H102.211V100.096L103.756 101.067C107.822 103.623 110.25 108.014 110.25 112.811H110.252Z" fill="#42DB9C"/>
<path d="M100.109 15.9938H110.252" stroke="#007AFF" stroke-width="1.54035" stroke-miterlimit="10"/>
<path d="M100.109 24.1345H110.252" stroke="#007AFF" stroke-width="1.54035" stroke-miterlimit="10"/>
<path d="M100.109 32.2754H110.252" stroke="#007AFF" stroke-width="1.54035" stroke-miterlimit="10"/>
<path d="M100.109 40.4161H110.252" stroke="#007AFF" stroke-width="1.54035" stroke-miterlimit="10"/>
<path d="M100.109 48.5569H110.252" stroke="#007AFF" stroke-width="1.54035" stroke-miterlimit="10"/>
<path d="M100.109 56.6978H110.252" stroke="#007AFF" stroke-width="1.54035" stroke-miterlimit="10"/>
<path d="M100.109 64.84H110.252" stroke="#007AFF" stroke-width="1.54035" stroke-miterlimit="10"/>
<path d="M100.109 72.9808H110.252" stroke="#007AFF" stroke-width="1.54035" stroke-miterlimit="10"/>
<path d="M100.109 81.1216H110.252" stroke="#007AFF" stroke-width="1.54035" stroke-miterlimit="10"/>
<path d="M100.109 89.2625H110.252" stroke="#007AFF" stroke-width="1.54035" stroke-miterlimit="10"/>
<path d="M64.3349 55.3164C64.9853 55.0832 65.3237 54.3673 65.0907 53.7172C64.8577 53.0672 64.1415 52.7292 63.4911 52.9624L59.9608 54.2278C59.3103 54.4609 58.972 55.1769 59.205 55.827C59.438 56.477 60.1541 56.815 60.8046 56.5818L64.3349 55.3164Z" fill="#8AEDBF"/>
<path d="M61.6455 47.3713C61.9406 46.7465 61.6736 46.001 61.0492 45.7061C60.4248 45.4112 59.6794 45.6786 59.3843 46.3034L57.2485 50.8258C56.9535 51.4505 57.2204 52.1961 57.8449 52.491C58.4693 52.7859 59.2147 52.5184 59.5097 51.8937L61.6455 47.3713Z" fill="#8AEDBF"/>
<path d="M65.395 63.0671C66.0197 63.3621 66.7653 63.0952 67.0602 62.4707C67.3551 61.8463 67.0876 61.101 66.4629 60.8059L61.9405 58.6701C61.3157 58.375 60.5701 58.642 60.2753 59.2664C59.9804 59.8908 60.2478 60.6362 60.8726 60.9313L65.395 63.0671Z" fill="#8AEDBF"/>
<path d="M48.3439 47.7672L52.7768 46.1782C52.9289 46.1237 53.0979 46.2035 53.1524 46.3555L60.5493 66.9916C60.6038 67.1437 60.524 67.3127 60.3719 67.3672L55.939 68.9561L48.3439 47.7672Z" fill="#007AFF"/>
<path d="M32.1505 84.1256L39.214 81.5937L43.4334 93.3652C44.8306 97.2633 42.7999 101.563 38.9018 102.961L32.1505 84.1256Z" fill="#007AFF"/>
<path d="M15.383 59.5802C8.88091 61.9106 5.50066 69.0705 7.83101 75.5726L11.2069 84.9894L27.6647 130.9C28.8306 134.151 32.4105 135.841 35.6601 134.677L42.7231 132.146C45.9741 130.98 47.6642 127.4 46.4998 124.15L38.4823 101.783C33.8217 88.7808 40.5836 74.461 53.5863 69.8003L55.9401 68.956L48.3441 47.767L15.383 59.5817V59.5802Z" fill="#42DB9C"/>
<path opacity="0.2" d="M53.5848 69.7988C40.5763 74.4609 33.8172 88.7749 38.4809 101.782L46.4983 124.149C47.6628 127.398 45.9712 130.98 42.7216 132.144L36.8363 134.254C40.0858 133.09 41.7774 129.507 40.613 126.259L32.5955 103.892C27.9334 90.8835 34.6924 76.571 47.6995 71.9089L53.5848 69.7988Z" fill="#083D77"/>
<path d="M18.6728 65.3189L14.855 66.6874L17.5518 74.2112L21.3697 72.8427L18.6728 65.3189Z" fill="white"/>
<path d="M18.0837 69.7754L20.0203 69.0812L21.3689 72.8438L19.4324 73.5379C18.3943 73.91 17.2488 73.3691 16.8767 72.331C16.5046 71.2929 17.0456 70.1475 18.0837 69.7754Z" fill="#1A263C"/>
<path d="M21.3711 72.8413C20.3167 73.2187 19.5135 73.9823 19.0671 74.9103C18.6207 75.8383 18.5297 76.9323 18.9027 77.9704L17.5547 74.2084L21.3725 72.8398L21.3711 72.8413Z" fill="#1A263C"/>
<path d="M21.3711 72.8413L22.7191 76.6033L18.9013 77.9719C18.5283 76.9337 18.6193 75.8398 19.0657 74.9118C19.5121 73.9837 20.3153 73.2202 21.3697 72.8428L21.3711 72.8413Z" fill="white"/>
<path d="M20.0203 69.0817L21.9568 68.3876C22.9949 68.0155 24.1404 68.5564 24.5125 69.5945C24.8846 70.6326 24.3436 71.778 23.3055 72.1501L21.3689 72.8443L20.0203 69.0817Z" fill="#007AFF"/>
<path d="M12.3844 71.8177L12.4411 71.7974C14.5173 71.0532 16.8076 72.1338 17.5523 74.2113L13.7345 75.5798L12.3858 71.8173L12.3844 71.8177Z" fill="#007AFF"/>
</g>
<defs>
<linearGradient id="paint0_linear_611_2924" x1="5.62706e-05" y1="69.7284" x2="141" y2="69.7284" gradientUnits="userSpaceOnUse">
<stop offset="0.02" stop-color="#005EB2"/>
<stop offset="1" stop-color="#0BE5A1"/>
</linearGradient>
<clipPath id="clip0_611_2924">
<rect width="141" height="135.746" fill="white"/>
</clipPath>
</defs>
</svg>
