<svg width="75" height="84" viewBox="0 0 75 84" fill="none" xmlns="http://www.w3.org/2000/svg">
<path d="M54.4769 63.694C54.4769 63.694 45.0299 72.9271 35.0072 76.0773C34.7864 76.1463 34.551 76.1566 34.3249 76.107C34.0988 76.0574 33.8899 75.9498 33.7193 75.7951C33.5487 75.6403 33.4224 75.4438 33.3531 75.2254C33.2838 75.0069 33.274 74.7743 33.3247 74.551C33.9678 71.7404 34.5615 69.7719 34.8148 68.977L33.4859 64.3524L25.2592 66.6623C24.5115 66.8747 23.7286 66.9382 22.9558 66.8492C22.1831 66.7602 21.4359 66.5204 20.7577 66.1437C17.5423 64.3719 17.8466 61.2574 16.5276 57.7023C12.7563 56.5222 12.0179 56.7595 11.5787 55.8736C11.1264 54.9633 11.7317 54.713 13.98 48.848C12.679 44.2315 11.7202 40.9837 11.0261 38.6803L43.8079 28.2281C54.8601 63.4144 54.4769 63.694 54.4769 63.694Z" fill="#D3E8FF"/>
<path d="M49.7743 47.4255C46.4564 54.7426 40.7136 60.7229 33.4938 64.3799L34.815 68.9772C34.5617 69.7721 33.968 71.7406 33.3249 74.5511C33.2742 74.7745 33.284 75.0071 33.3533 75.2255C33.4226 75.4439 33.5489 75.6404 33.7195 75.7952C33.8901 75.95 34.099 76.0576 34.3251 76.1072C34.5512 76.1567 34.7866 76.1465 35.0074 76.0775C45.0301 72.9272 54.4771 63.6942 54.4771 63.6942C54.4771 63.6942 54.7044 63.5274 49.7743 47.4255Z" fill="#D3E8FF"/>
<path d="M51.5782 57.5909C39.4643 56.6013 36.3236 45.6757 34.4472 39.1489C34.0332 37.7092 32.857 37.3262 31.485 37.8685C31.3794 37.9102 19.6166 41.2099 19.5481 41.2276C15.8104 42.2103 12.4034 41.787 9.42095 39.9691C2.76542 35.9123 0.679314 26.3392 0.594448 25.9338C0.308932 24.5804 1.99341 23.8052 2.84881 24.7852C9.14563 30.9063 33.2121 2.3538 44.2442 13.6846C47.1954 13.2619 50.0634 14.4715 52.3961 17.147C55.4322 20.6285 57.2735 26.1999 57.5813 32.8348C57.9266 40.2827 56.3094 48.5656 52.9049 56.788C52.7989 57.0439 52.6131 57.2597 52.3745 57.404C52.1359 57.5484 51.857 57.6139 51.5782 57.5909Z" fill="#007AFF"/>
<path d="M57.5805 32.8344C57.2865 26.4933 55.5905 21.1252 52.7907 17.6228C52.4563 23.1399 50.7835 28.4964 47.9137 33.2401C45.0438 37.9837 41.0611 41.9752 36.302 44.8773C38.5623 50.6837 42.6121 56.8586 51.5781 57.5911C51.8569 57.6139 52.1357 57.5482 52.3742 57.4038C52.6126 57.2593 52.7983 57.0434 52.9042 56.7876C56.3087 48.5652 57.9258 40.2822 57.5805 32.8344Z" fill="#007AFF"/>
<path d="M44.928 43.7377C44.928 46.636 43.53 49.0418 40.489 49.9732C39.1568 50.7193 38.2456 51.3013 37.5795 51.7272L33.2507 41.9463L35.0467 40.9531C34.2935 35.0606 42.3294 33.2611 44.4806 40.7434C44.7687 41.7164 44.9193 42.724 44.928 43.7377Z" fill="#D3E8FF"/>
<path d="M17.6662 33.2263C19.8462 33.2263 21.6135 31.4796 21.6135 29.325C21.6135 27.1704 19.8462 25.4237 17.6662 25.4237C15.4862 25.4237 13.719 27.1704 13.719 29.325C13.719 31.4796 15.4862 33.2263 17.6662 33.2263Z" fill="#1A263C"/>
<path d="M26.9697 30.3559C28.0597 30.3559 28.9433 29.4825 28.9433 28.4052C28.9433 27.3279 28.0597 26.4546 26.9697 26.4546C25.8797 26.4546 24.9961 27.3279 24.9961 28.4052C24.9961 29.4825 25.8797 30.3559 26.9697 30.3559Z" fill="#1A263C"/>
<path d="M37.5355 31.5493L43.1175 13.3536C43.1995 13.0866 43.3662 12.8528 43.5929 12.6867C43.8197 12.5206 44.0945 12.4309 44.3767 12.4309H51.7386C54.8255 1.74466 54.2898 1.20661 55.4704 0.804455C56.673 0.395145 56.5266 1.12712 67.1415 8.79444C67.4104 8.99516 67.5911 9.29028 67.6462 9.61885C67.7013 9.94743 67.6266 10.2844 67.4376 10.5601C59.2607 22.1318 59.6253 22.8285 58.332 22.8285H49.5846L39.7376 32.8323C38.794 33.7919 37.1335 32.8592 37.5355 31.5493Z" fill="#1A263C"/>
<path d="M34.8272 22.4455L39.2132 8.14084C39.2951 7.87379 39.4617 7.63984 39.6884 7.47358C39.9152 7.30731 40.19 7.21755 40.4724 7.21754H47.6925L47.9721 6.1772C48.0153 6.01091 48.0915 5.85473 48.1961 5.71767C48.3007 5.5806 48.4317 5.46538 48.5817 5.37863C48.7316 5.29188 48.8974 5.23533 49.0695 5.21225C49.2417 5.18916 49.4167 5.2 49.5846 5.24412C49.7525 5.28825 49.9098 5.3648 50.0476 5.46935C50.1854 5.5739 50.3009 5.70438 50.3874 5.85327C50.4739 6.00216 50.5298 6.1665 50.5517 6.33682C50.5736 6.50714 50.5612 6.68007 50.5151 6.84562L49.9751 8.85234C49.9006 9.12933 49.7355 9.37422 49.5056 9.54892C49.2757 9.72362 48.9938 9.81836 48.7038 9.81839H41.448L37.345 23.1998C36.8383 24.8546 34.3219 24.0933 34.8272 22.4455Z" fill="#1A263C"/>
<path d="M45.2176 32.8579C45.0937 32.7389 44.9947 32.5969 44.9263 32.4401C44.8579 32.2833 44.8214 32.1146 44.819 31.9439C44.8165 31.7731 44.8481 31.6035 44.912 31.4448C44.9758 31.2861 45.0707 31.1414 45.1911 31.019L50.3079 25.8173C50.9967 25.1173 51.1284 25.5572 60.4856 25.4234L62.3732 22.5264C62.466 22.3811 62.5869 22.2553 62.7291 22.1565C62.8713 22.0576 63.0319 21.9876 63.2016 21.9504C63.3713 21.9133 63.5468 21.9097 63.7179 21.94C63.889 21.9703 64.0524 22.0338 64.1985 22.1268C64.3447 22.2198 64.4707 22.3406 64.5694 22.482C64.6681 22.6235 64.7374 22.7829 64.7734 22.9509C64.8094 23.119 64.8113 23.2925 64.779 23.4613C64.7468 23.6302 64.681 23.791 64.5855 23.9346C62.4686 26.8843 62.4063 28.0243 61.2032 28.0243H51.8072L47.0781 32.8321C46.8348 33.0793 46.5021 33.221 46.1532 33.2258C45.8043 33.2307 45.4678 33.0983 45.2176 32.8579Z" fill="#1A263C"/>
<path d="M68.4629 15.582C68.3175 15.4897 68.192 15.3699 68.0935 15.2295C67.995 15.0892 67.9255 14.9311 67.8888 14.7642C67.8522 14.5973 67.8491 14.4249 67.8799 14.2568C67.9107 14.0887 67.9746 13.9283 68.0681 13.7847L72.0154 7.72275C72.1089 7.57914 72.2301 7.45514 72.3721 7.35784C72.5141 7.26053 72.6741 7.19182 72.843 7.15563C73.0119 7.11944 73.1863 7.11648 73.3563 7.14692C73.5264 7.17736 73.6887 7.2406 73.834 7.33303C73.9793 7.42546 74.1047 7.54527 74.2032 7.68563C74.3016 7.82598 74.3712 7.98413 74.4078 8.15103C74.4444 8.31794 74.4474 8.49034 74.4166 8.65839C74.3858 8.82644 74.3218 8.98685 74.2283 9.13046L70.281 15.1924C70.0922 15.4823 69.7945 15.6862 69.4536 15.7593C69.1126 15.8324 68.7563 15.7686 68.4629 15.582Z" fill="#1A263C"/>
<path d="M66.4254 20.2217C67.152 20.2217 67.7411 19.6395 67.7411 18.9213C67.7411 18.2031 67.152 17.6208 66.4254 17.6208C65.6987 17.6208 65.1096 18.2031 65.1096 18.9213C65.1096 19.6395 65.6987 20.2217 66.4254 20.2217Z" fill="#1A263C"/>
<path d="M50.2877 3.31619C51.0143 3.31619 51.6034 2.73396 51.6034 2.01576C51.6034 1.29755 51.0143 0.715332 50.2877 0.715332C49.561 0.715332 48.9719 1.29755 48.9719 2.01576C48.9719 2.73396 49.561 3.31619 50.2877 3.31619Z" fill="#1A263C"/>
<path d="M70.556 83.9427C69.794 80.8769 68.5905 77.9351 66.9824 75.2074C64.1904 70.4877 60.1734 66.2464 54.3411 61.8599C51.8754 64.4363 46.6124 69.638 33.3206 74.6722C32.4787 78.3564 31.918 81.417 31.5452 83.9427H70.556Z" fill="#1A263C"/>
<path d="M62.4014 83.9427V81.2717C62.3804 76.2827 58.2335 72.2389 53.1486 72.2389H53.1091C50.6783 72.2528 48.3523 73.2189 46.6411 74.9253C44.9299 76.6318 43.9733 78.9393 43.981 81.3419V83.9427H62.4014Z" fill="#D3E8FF"/>
<path d="M58.454 9.81841C59.9073 9.81841 61.0855 8.65396 61.0855 7.21755C61.0855 5.78114 59.9073 4.6167 58.454 4.6167C57.0007 4.6167 55.8225 5.78114 55.8225 7.21755C55.8225 8.65396 57.0007 9.81841 58.454 9.81841Z" fill="white"/>
<path d="M55.8226 13.7199C56.5492 13.7199 57.1383 13.1377 57.1383 12.4194C57.1383 11.7012 56.5492 11.119 55.8226 11.119C55.0959 11.119 54.5068 11.7012 54.5068 12.4194C54.5068 13.1377 55.0959 13.7199 55.8226 13.7199Z" fill="white"/>
</svg>
