<svg width="84" height="67" viewBox="0 0 84 67" fill="none" xmlns="http://www.w3.org/2000/svg">
<path d="M37.065 14.4713C39.1845 14.2257 41.3519 14.0377 43.5516 13.9131C46.6451 13.115 49.2843 11.7178 51.1883 9.61897C53.2441 6.96053 55.3919 4.97991 57.5664 3.59332C80.6693 -11.1812 106.39 41.1479 50.1923 60.3439C39.5375 63.9835 27.6783 63.9427 17.231 59.8498C4.97163 55.0481 -4.06369 45.4315 1.86631 31.5467C5.72635 22.5071 19.8481 16.4878 37.065 14.4713Z" fill="url(#paint0_linear_611_2632)"/>
<path d="M68.4963 19.2255L77.269 22.0894L67.5317 22.2883L70.5804 27.2891L65.2007 24.7341L66.277 30.5572L62.207 26.0823L62.1276 25.907L62.0962 25.9605L60.8949 24.639C59.5585 23.1696 57.6733 22.455 55.7063 22.4857C54.7157 22.5022 53.7055 22.7058 52.733 23.0981L56.3627 20.7396L45.4288 17.9936L57.3273 17.6767L48.6026 9.97946L59.6583 15.231L60.0427 3.99365L62.7322 14.0588L70.4082 0.794769L65.7251 14.4731L73.9632 8.79L67.8351 16.3639L82.9412 12.6029L68.4955 19.2255H68.4963Z" fill="#2DB58B"/>
<path d="M25.5234 18.3576L30.9078 7.76175L29.1327 19.496L35.9849 15.7821L31.6901 22.286L39.1554 20.9433L32.7451 25.8835L32.5108 25.9802L32.5706 26.0171L30.6783 27.4755C28.573 29.0973 27.2931 31.3756 26.922 33.7459C26.7365 34.9393 26.7797 36.1554 27.0659 37.3245L24.8874 32.9684L19.2012 46.168L21.2782 31.83L9.89383 42.4062L18.7208 29.0399L4.82546 28.6649L17.9016 25.3442L3 16.1988L19.0384 21.7349L13.6823 11.8513L21.8285 19.1776L20.2884 1L25.5234 18.3576Z" fill="#2DB58B"/>
<path d="M48.64 50.0687C48.64 50.0687 48.1314 52.8383 47.9514 54.1575C50.1243 54.3312 49.4938 54.354 52.1463 54.4515C52.1463 57.2479 51.1322 66.012 38.3516 66.012C27.1032 66.012 24.6984 56.9043 24.6984 53.4122C24.6984 53.4122 27.1465 53.1614 29.6472 53.354C30.9468 47.4586 32.0631 41.0027 32.0631 41.0027C32.0631 41.0027 46.8759 45.0844 48.64 50.0687Z" fill="#9B6150"/>
<path d="M29.2251 29.0609C29.2251 29.0609 23.1748 28.2197 22.5341 33.9925C21.8926 39.7653 28.5813 41.9641 32.0632 41.0027C32.0632 41.0027 35.1693 55.0175 54.6951 49.7534C73.3876 44.7141 62.2972 18.5177 58.9938 15.4659C58.9938 15.4659 52.1291 7.60428 36.0946 11.7269C20.0601 15.8503 29.2251 29.0609 29.2251 29.0609Z" fill="#AA695B"/>
<path d="M37.3077 15.2843C37.3077 15.2843 39.891 25.9344 36.9107 32.4516C36.3147 33.2464 31.281 29.0601 31.281 29.0601C31.281 29.0601 29.0954 28.6364 26.1151 29.7488C22.009 27.4179 16.0657 11.9903 28.2865 7.065C28.2865 7.065 35.299 -0.902717 52.4066 1.42667C67.416 3.4699 69.7619 13.4824 69.3649 14.9132C68.9671 16.344 54.9923 17.2976 46.7141 14.9667C48.1724 16.3079 51.4821 17.4038 54.2643 17.8275C57.0457 18.2513 43.3619 20.66 37.3084 15.2843H37.3077Z" fill="black"/>
<path d="M58.449 41.347C58.0763 42.5435 57.5339 43.7401 56.7398 44.6033C56.1738 45.2188 55.199 43.9531 54.3491 44.1119C53.0024 44.3619 52.2674 45.7023 51.5363 45.027C50.0323 43.6386 49.7163 40.9681 50.1283 39.7487C50.1581 39.6607 50.1911 39.5797 50.2273 39.509C51.0284 37.9516 53.7752 38.8368 55.8287 38.5027C55.8515 38.4995 55.8766 38.494 55.8994 38.4909C56.7414 38.3486 57.5181 38.6796 58.0111 39.2503C58.4812 39.7967 58.6911 40.564 58.4497 41.347H58.449Z" fill="#7A0000"/>
<path d="M50.2974 43.0003C50.5505 43.7629 50.9538 44.4909 51.5356 45.027C52.2675 45.7024 53.001 44.3619 54.3492 44.112C55.1999 43.9539 56.1739 45.2189 56.7399 44.6033C57.1118 44.1992 57.4278 43.7228 57.6983 43.2079C55.8028 40.711 51.6102 41.4547 50.2982 43.0003H50.2974Z" fill="#FF7F6F"/>
<path d="M58.0111 39.2503C55.7478 40.2134 51.3869 40.0145 50.1283 39.7487C50.1582 39.6607 50.1912 39.5797 50.2274 39.509C51.0284 37.9516 53.7753 38.8368 55.8287 38.5027C55.8515 38.4995 55.8767 38.494 55.8995 38.4909C56.7415 38.3486 57.5182 38.6796 58.0111 39.2503Z" fill="white"/>
<defs>
<linearGradient id="paint0_linear_611_2632" x1="-3.45291e-05" y1="31.9999" x2="83.9994" y2="31.9999" gradientUnits="userSpaceOnUse">
<stop stop-color="#0BE5A1"/>
<stop offset="0.98" stop-color="#005EB2"/>
</linearGradient>
</defs>
</svg>
