<svg width="67" height="81" viewBox="0 0 67 81" fill="none" xmlns="http://www.w3.org/2000/svg">
<path d="M31.29 58.8642C32.3408 57.1907 33.5012 55.5869 34.764 54.0633V49.87C30.9132 50.7741 30.413 51.0626 29.1898 51.0626C27.8835 51.0558 26.6136 50.6361 25.5659 49.8649C24.5182 49.0938 23.7476 48.0115 23.3668 46.7765C23.281 46.4941 23.2988 46.1909 23.4171 45.9202C23.5354 45.6496 23.7466 45.4289 24.0134 45.2972L26.8522 43.8953C26.4188 42.8646 26.0026 42.1893 23.2213 42.5855C22.9211 42.6281 22.6154 42.5629 22.3599 42.4016C22.1043 42.2402 21.9157 41.9936 21.8285 41.7066L21.0279 39.072C17.6458 36.8725 16.9129 36.9144 16.7412 35.976C16.565 35.0148 17.1924 34.9405 20.8359 30.0944V20.7362H55.0219C54.7726 54.1387 55.6113 53.6854 54.3708 54.3668C53.8979 54.6264 42.6713 60.727 32.3691 60.7802C32.1424 60.7813 31.9196 60.7223 31.7238 60.6092C31.5281 60.4962 31.3667 60.3332 31.2565 60.1375C31.1462 59.9417 31.0912 59.7203 31.0971 59.4963C31.103 59.2723 31.1696 59.054 31.29 58.8642Z" fill="#D3E8FF"/>
<path d="M34.7686 50.0288V54.0635C33.5058 55.5871 32.3453 57.1908 31.2946 58.8642C31.1743 59.0541 31.1078 59.2724 31.102 59.4963C31.0962 59.7203 31.1513 59.9417 31.2616 60.1374C31.3719 60.3331 31.5333 60.496 31.729 60.609C31.9247 60.722 32.1475 60.781 32.3742 60.7798C42.6764 60.7271 53.903 54.6265 54.3759 54.3664C54.5732 54.258 54.7376 54.0995 54.852 53.9073C54.9665 53.715 55.0269 53.496 55.027 53.2729V26.454C53.6105 31.6134 51.0608 36.4009 47.5593 40.4756C44.0578 44.5503 39.6907 47.8121 34.7686 50.0288Z" fill="#D3E8FF"/>
<path d="M63.8601 80.804H24.6663C24.2812 71.8784 28.1093 63.8922 31.2952 58.8646C34.7686 59.53 52.9062 55.7758 55.1852 52.5221C61.3577 59.53 64.0307 68.7491 63.89 76.3056L63.8601 80.804Z" fill="url(#paint0_linear_202_645)"/>
<path d="M59.4102 58.569C56.362 64.8571 51.3516 70.0119 45.1167 73.2744C38.8818 76.5369 31.7519 77.7348 24.7765 76.6917C24.6451 78.0584 24.6081 79.4323 24.6657 80.8039H63.8601L63.89 76.3055C63.9931 70.7769 62.5876 64.36 59.4102 58.569Z" fill="url(#paint1_linear_202_645)"/>
<path d="M53.7605 48.0432C53.6086 48.0431 53.4579 48.016 53.3156 47.9632C42.3655 43.898 42.3655 32.9688 42.3655 26.439C42.3655 25.9913 42.2655 25.3684 41.7883 24.9434C41.3684 24.5692 40.7204 24.4061 39.9642 24.4838C39.9207 24.4883 39.877 24.4906 39.8332 24.4905H28.0207C24.2994 24.4288 21.2581 23.1512 18.9811 20.6931C13.8996 15.2073 14.5162 5.8037 14.545 5.40638C14.5625 5.12756 14.6729 4.86231 14.859 4.65208C15.0451 4.44186 15.2965 4.29851 15.5738 4.24444C15.8457 4.19188 16.1276 4.23072 16.3746 4.35479C16.6216 4.47887 16.8195 4.68104 16.9368 4.92912C17.024 5.0807 17.969 6.60445 20.6776 6.60445C23.6664 6.60445 28.0341 5.33536 32.6586 3.99213C37.752 2.51249 43.0185 0.981549 47.607 0.744876C52.8321 0.475823 56.3947 2.0454 58.2099 5.41404C61.0542 5.78947 63.3872 7.65516 64.8346 10.7374C66.718 14.7494 66.9406 20.3853 65.4597 26.607C63.7979 33.5911 60.0966 40.838 54.757 47.5642C54.6385 47.7135 54.4872 47.8342 54.3146 47.9171C54.1419 48.0001 53.9525 48.0432 53.7605 48.0432Z" fill="#1A263C"/>
<path d="M64.8345 10.7373C63.9463 8.84606 62.7235 7.41538 61.2549 6.50342C60.8006 12.2942 58.8711 17.8772 55.646 22.7326C52.4209 27.5879 48.0051 31.5577 42.8098 34.2722C43.6586 39.6697 46.1284 45.2949 53.3155 47.9632C53.5675 48.0568 53.8431 48.0685 54.1023 47.9967C54.3615 47.9249 54.5908 47.7734 54.7569 47.564C60.0966 40.8377 63.7973 33.591 65.4596 26.6068C66.9406 20.3851 66.7184 14.7493 64.8345 10.7373Z" fill="#1A263C"/>
<path d="M44.8978 38.0319H39.8333V28.0206H42.4833C43.5568 22.585 51.2286 23.1774 51.2286 30.5234C51.2286 34.7474 49.076 38.0319 44.8978 38.0319Z" fill="#D3E8FF"/>
<path d="M45.5309 13.2278C47.9783 13.2278 49.9624 11.2668 49.9624 8.84783C49.9624 6.42886 47.9783 4.4679 45.5309 4.4679C43.0834 4.4679 41.0994 6.42886 41.0994 8.84783C41.0994 11.2668 43.0834 13.2278 45.5309 13.2278Z" fill="#007AFF"/>
<path d="M53.1277 15.7307C54.1767 15.7307 55.027 14.8903 55.027 13.8536C55.027 12.8169 54.1767 11.9764 53.1277 11.9764C52.0788 11.9764 51.2285 12.8169 51.2285 13.8536C51.2285 14.8903 52.0788 15.7307 53.1277 15.7307Z" fill="#007AFF"/>
<path d="M56.293 80.8039H38.5669V69.6741C38.5669 64.867 42.4286 60.8556 47.2926 60.7824C48.4675 60.7657 49.6342 60.9798 50.7247 61.4124C51.8153 61.8449 52.8081 62.4873 53.6454 63.3021C54.4827 64.117 55.148 65.0881 55.6025 66.1591C56.057 67.2302 56.2917 68.3798 56.293 69.5412V80.8039Z" fill="#D3E8FF"/>
<path d="M48.6953 25.0403C48.6953 25.0656 48.6963 25.0908 48.6963 25.1162C48.6967 27.805 47.935 30.4402 46.4975 32.723C45.0599 35.0058 43.0041 36.8449 40.563 38.0318H44.8978C49.0761 38.0318 51.2286 34.7468 51.2286 30.5233C51.2286 27.7368 50.1243 25.9228 48.6953 25.0403Z" fill="#D3E8FF"/>
<path d="M46.1636 70.7926C47.5622 70.7926 48.6959 69.6721 48.6959 68.2898C48.6959 66.9075 47.5622 65.787 46.1636 65.787C44.7651 65.787 43.6313 66.9075 43.6313 68.2898C43.6313 69.6721 44.7651 70.7926 46.1636 70.7926Z" fill="#007AFF"/>
<path d="M49.9624 73.2953C50.6617 73.2953 51.2286 72.735 51.2286 72.0439C51.2286 71.3528 50.6617 70.7925 49.9624 70.7925C49.2632 70.7925 48.6963 71.3528 48.6963 72.0439C48.6963 72.735 49.2632 73.2953 49.9624 73.2953Z" fill="#007AFF"/>
<path d="M17.0378 43.2614H14.5074C14.1716 43.2614 13.8495 43.1295 13.6121 42.8948C13.3746 42.6602 13.2412 42.3418 13.2412 42.01C13.2412 41.6781 13.3746 41.3598 13.6121 41.1251C13.8495 40.8904 14.1716 40.7585 14.5074 40.7585H17.0378C17.3736 40.7585 17.6956 40.8904 17.9331 41.1251C18.1705 41.3598 18.3039 41.6781 18.3039 42.01C18.3039 42.3418 18.1705 42.6602 17.9331 42.8948C17.6956 43.1295 17.3736 43.2614 17.0378 43.2614Z" fill="#007AFF"/>
<path d="M22.1023 54.524C21.7665 54.524 21.4445 54.3921 21.207 54.1574C20.9696 53.9227 20.8362 53.6044 20.8362 53.2725V50.7697C20.8362 50.4378 20.9696 50.1195 21.207 49.8848C21.4445 49.6502 21.7665 49.5183 22.1023 49.5183C22.4381 49.5183 22.7602 49.6502 22.9976 49.8848C23.2351 50.1195 23.3685 50.4378 23.3685 50.7697V53.2725C23.3685 53.6044 23.2351 53.9227 22.9976 54.1574C22.7602 54.3921 22.4381 54.524 22.1023 54.524Z" fill="#007AFF"/>
<path d="M15.7716 50.7699C15.5211 50.7699 15.2763 50.6965 15.0681 50.559C14.8599 50.4215 14.6976 50.226 14.6018 49.9974C14.5059 49.7687 14.4808 49.5171 14.5297 49.2743C14.5786 49.0316 14.6992 48.8086 14.8762 48.6336L17.4085 46.1308C17.646 45.896 17.9681 45.7642 18.3039 45.7642C18.6397 45.7641 18.9618 45.896 19.1993 46.1307C19.4367 46.3654 19.5702 46.6837 19.5702 47.0156C19.5702 47.3475 19.4368 47.6658 19.1993 47.9006L16.667 50.4034C16.5496 50.5198 16.41 50.612 16.2563 50.6749C16.1026 50.7378 15.9379 50.7701 15.7716 50.7699Z" fill="#007AFF"/>
<path d="M4.37817 72.1866V80.8039H16.4371C16.2599 78.6576 16.0475 75.9189 15.8056 72.409C20.4994 65.8985 19.4221 59.4868 19.5724 58.2785C19.5724 57.2829 19.1722 56.328 18.4599 55.6239C17.7475 54.9199 16.7814 54.5243 15.774 54.5243C14.7666 54.5243 13.8004 54.9199 13.0881 55.6239C12.3757 56.328 11.9755 57.2829 11.9755 58.2785V61.1025C11.9756 61.3234 11.8961 61.5371 11.7512 61.7054C11.6064 61.8737 11.4057 61.9855 11.1851 62.0209C10.9645 62.0563 10.7383 62.0129 10.5471 61.8986C10.3558 61.7842 10.212 61.6063 10.1414 61.3967L8.22821 55.7257L9.74965 49.7101C10.8164 45.4948 5.27982 43.1614 4.45888 45.325C0.541894 55.8561 0.458169 55.3976 0.612165 56.0573L4.37817 72.1866Z" fill="#D3E8FF"/>
<path d="M19.572 58.2786C19.572 58.2506 19.5704 58.223 19.5697 58.1952C16.5722 64.7379 11.1277 69.8791 4.37817 72.5404V80.8039H16.4371C16.2599 78.6576 16.0475 75.9189 15.8056 72.409C20.4994 65.8986 19.4221 59.4868 19.572 58.2786Z" fill="#D3E8FF"/>
<defs>
<linearGradient id="paint0_linear_202_645" x1="44.2673" y1="52.5221" x2="44.2673" y2="80.804" gradientUnits="userSpaceOnUse">
<stop stop-color="#0BFFA1"/>
<stop offset="0.255" stop-color="#0AEFAC" stop-opacity="0.85"/>
<stop offset="0.47" stop-color="#09EAB0" stop-opacity="0.65"/>
<stop offset="1" stop-color="#007AFF"/>
<stop offset="1" stop-color="#007AFF" stop-opacity="0.29"/>
</linearGradient>
<linearGradient id="paint1_linear_202_645" x1="44.2674" y1="58.569" x2="44.2674" y2="80.8039" gradientUnits="userSpaceOnUse">
<stop stop-color="#0BFFA1"/>
<stop offset="0.255" stop-color="#0AEFAC" stop-opacity="0.85"/>
<stop offset="0.47" stop-color="#09EAB0" stop-opacity="0.65"/>
<stop offset="1" stop-color="#007AFF"/>
<stop offset="1" stop-color="#007AFF" stop-opacity="0.29"/>
</linearGradient>
</defs>
</svg>
