<svg width="85" height="65" viewBox="0 0 85 65" fill="none" xmlns="http://www.w3.org/2000/svg">
<path d="M70.9041 30.1932L56.5269 36.0634L56.887 36.9455L71.2642 31.0753L70.9041 30.1932Z" fill="#FCFCFC"/>
<path d="M57.018 41.1392L56.8219 42.0716L68.3918 44.5055L68.588 43.5731L57.018 41.1392Z" fill="#FCFCFC"/>
<path d="M52.7038 45.9088L51.8405 46.3118L56.2763 55.8158L57.1396 55.4128L52.7038 45.9088Z" fill="#FCFCFC"/>
<path d="M49.1031 13.5949C50.8624 14.6498 52.6197 15.7806 54.359 16.9852C57.2187 18.1546 60.135 18.5499 62.9636 17.9173C66.278 16.9044 69.2123 16.5167 71.7712 16.6443C98.9879 17.9649 83.5771 77.2843 28.5 59.9894C18.058 56.7102 9.1546 49.6192 4.00709 39.9603C-2.03317 28.6276 -2.44575 15.1624 11.2485 7.01166C20.1637 1.70478 34.7983 5.04538 49.1031 13.5942V13.5949Z" fill="url(#paint0_linear_611_2612)"/>
<path d="M51.2322 49.0403L47.9406 59.9624L47.6301 48.5767L41.7858 53.2454L44.7414 46.3737L37.916 48.9071L43.1353 43.1546L43.3402 43.0235L43.2774 42.9986L44.8187 41.3001C46.5324 39.411 47.3562 37.0425 47.3052 34.7403C47.2782 33.5812 47.0313 32.4394 46.5628 31.3845L49.3591 35.1308L52.4954 21.698L52.9618 35.5944L61.926 23.6746L55.8505 37.7966L69.0404 35.7972L57.2497 41.149L72.8757 47.2658L56.7868 44.7524L63.5211 53.1826L54.5845 47.6411L59.118 64.5525L51.2329 49.041L51.2322 49.0403Z" fill="#007AFF"/>
<path d="M35.5131 47.0934C35.5131 47.0934 35.0246 49.7516 34.8514 51.0176C36.9371 51.1846 36.332 51.206 38.8778 51.2998C38.8778 53.9836 37.9043 62.3951 25.6382 62.3951C14.8423 62.3951 12.5345 53.6538 12.5345 50.3022C12.5345 50.3022 14.8837 50.0614 17.2847 50.2463C18.532 44.5876 19.6028 38.3921 19.6028 38.3921C19.6028 38.3921 33.8193 42.3094 35.5131 47.0934Z" fill="#9B6150"/>
<path d="M16.8795 26.9311C16.8795 26.9311 11.0731 26.1239 10.457 31.6639C9.84163 37.204 16.2613 39.3152 19.6026 38.3914C19.6026 38.3914 22.5838 51.8421 41.3241 46.7898C59.2642 41.9527 48.6201 16.8106 45.4499 13.8819C45.4499 13.8819 38.8618 6.33622 23.4717 10.2936C8.08232 14.251 16.8788 26.9304 16.8788 26.9304L16.8795 26.9311Z" fill="#AA695B"/>
<path d="M24.6371 13.7087C24.6371 13.7087 27.1167 23.9306 24.2556 30.1854C23.6829 30.9485 18.8528 26.9304 18.8528 26.9304C18.8528 26.9304 16.7547 26.5233 13.8943 27.5913C9.95281 25.3539 4.24922 10.5475 15.9779 5.82017C15.9779 5.82017 22.7081 -1.82692 39.1275 0.408422C53.5331 2.36987 55.785 11.9791 55.4035 13.352C55.0219 14.725 41.6092 15.6405 33.664 13.4031C35.0639 14.6905 38.2403 15.7419 40.9103 16.149C43.5803 16.556 30.4469 18.868 24.6371 13.708V13.7087Z" fill="black"/>
<path d="M44.9278 38.7232C44.5704 39.8712 44.0495 41.02 43.2871 41.8486C42.7442 42.4391 41.8086 41.2242 40.9924 41.3766C39.6995 41.6167 38.9944 42.9028 38.2928 42.2549C36.8495 40.9227 36.5459 38.3589 36.9412 37.1888C36.9695 37.1047 37.0012 37.0267 37.0364 36.9584C37.805 35.464 40.4412 36.3133 42.4123 35.9925C42.4344 35.9891 42.4585 35.9842 42.4806 35.9815C43.2892 35.8449 44.0336 36.1622 44.5069 36.7107C44.9581 37.235 45.1596 37.9719 44.9278 38.7232Z" fill="#7A0000"/>
<path d="M37.1046 40.3093C37.3475 41.0407 37.7352 41.7396 38.2927 42.2549C38.995 42.9035 39.6994 41.6167 40.993 41.3767C41.8092 41.2256 42.744 42.4391 43.2877 41.8486C43.6444 41.4608 43.9479 41.0034 44.2074 40.5094C42.388 38.1133 38.3644 38.8267 37.1046 40.31V40.3093Z" fill="#FF7F6F"/>
<path d="M44.5068 36.7107C42.3343 37.6352 38.1492 37.4441 36.9412 37.1888C36.9694 37.1047 37.0012 37.0267 37.0364 36.9584C37.8049 35.464 40.4411 36.3133 42.4122 35.9925C42.4343 35.9891 42.4585 35.9842 42.4805 35.9815C43.2891 35.8449 44.0336 36.1622 44.5068 36.7107Z" fill="white"/>
<path d="M67.5199 33.7506L54.0254 39.2603C53.7816 39.3599 53.6646 39.638 53.7641 39.8816C53.8635 40.1252 54.1417 40.242 54.3855 40.1424L67.88 34.6327C68.1238 34.5332 68.2407 34.255 68.1413 34.0114C68.0418 33.7678 67.7636 33.6511 67.5199 33.7506Z" fill="#FCFCFC"/>
<path d="M56.3367 42.5369C56.079 42.4828 55.8263 42.6476 55.7722 42.9051C55.7181 43.1626 55.8831 43.4152 56.1407 43.4693L66.778 45.7051C67.0357 45.7593 67.2884 45.5945 67.3426 45.337C67.3967 45.0795 67.2317 44.8269 66.974 44.7727L56.3367 42.5369Z" fill="#FCFCFC"/>
<path d="M53.8127 45.2937C53.7013 45.0551 53.4178 44.9519 53.1794 45.0632C52.941 45.1745 52.838 45.4581 52.9493 45.6967L56.9819 54.3367C57.0932 54.5752 57.3768 54.6785 57.6152 54.5672C57.8536 54.4559 57.9566 54.1723 57.8452 53.9337L53.8127 45.2937Z" fill="#FCFCFC"/>
<defs>
<linearGradient id="paint0_linear_611_2612" x1="2.47099e-05" y1="33.8034" x2="84.9018" y2="33.8034" gradientUnits="userSpaceOnUse">
<stop offset="0.02" stop-color="#005EB2"/>
<stop offset="1" stop-color="#0BE5A1"/>
</linearGradient>
</defs>
</svg>
