<svg width="141" height="169" viewBox="0 0 141 169" fill="none" xmlns="http://www.w3.org/2000/svg">
<g clip-path="url(#clip0_614_1114)">
<path d="M70.34 0L0 25.9722V51.9444C0.153894 67.7765 3.17063 107.241 35.9521 141.949C47.3866 154.056 59.7298 162.712 70.34 168.817C80.9502 162.714 93.2934 154.056 104.728 141.949C137.509 107.241 140.526 67.7744 140.68 51.9444V25.9722L70.34 0Z" fill="#007AFF"/>
<path d="M70.34 155.671C60.4886 149.425 51.6956 142.228 44.1337 134.223C15.9332 104.359 11.4281 69.7857 11.2532 51.835V33.8146L70.34 11.9976L129.425 33.8146V51.9446C129.252 69.7878 124.747 104.361 96.5462 134.223C88.9843 142.23 80.1892 149.425 70.34 155.673V155.671Z" fill="#42DB9C"/>
<path opacity="0.2" d="M140.68 25.97V51.9401C140.526 67.7806 137.516 107.241 104.722 141.947C93.2975 154.06 80.946 162.712 70.34 168.817C59.7318 162.712 47.3803 154.06 35.9584 141.947C30.726 136.405 26.2526 130.748 22.4242 125.08C68.7926 111.714 102.696 68.9633 102.696 18.2901C102.696 16.1376 102.639 14 102.512 11.875L140.678 25.9721L140.68 25.97Z" fill="white"/>
<path d="M81.7196 45.2871H58.9602V90.1398H81.7196V45.2871Z" fill="white"/>
<path d="M70.1734 67.7134H81.7196V90.1397H70.1734C63.9839 90.1397 58.9602 85.116 58.9602 78.9265C58.9602 72.7371 63.9839 67.7134 70.1734 67.7134Z" fill="#1A263C"/>
<path d="M81.7196 90.1396C75.4353 90.1396 69.7454 92.6504 65.6261 96.7086C61.5068 100.767 58.9602 106.372 58.9602 112.566V90.1396H81.7196Z" fill="#1A263C"/>
<path d="M81.7196 90.1396V112.566H58.9602C58.9602 106.372 61.5089 100.767 65.6261 96.7086C69.7454 92.6504 75.4332 90.1396 81.7196 90.1396Z" fill="white"/>
<path d="M81.7196 67.7134H93.2659C99.4553 67.7134 104.479 72.7371 104.479 78.9265C104.479 85.116 99.4553 90.1397 93.2659 90.1397H81.7196V67.7134Z" fill="#007AFF"/>
<path d="M36.1987 67.7134H36.5339C48.9108 67.7134 58.9602 77.7628 58.9602 90.1397H36.2008V67.7134H36.1987Z" fill="#007AFF"/>
</g>
<defs>
<clipPath id="clip0_614_1114">
<rect width="140.68" height="168.815" fill="white"/>
</clipPath>
</defs>
</svg>
