<svg width="24" height="25" viewBox="0 0 24 25" fill="none" xmlns="http://www.w3.org/2000/svg">
<path d="M12.913 17.5166H20.087M12.913 17.5166L11 21.5166M12.913 17.5166L15.7783 11.5256C16.0092 11.0429 16.1246 10.8015 16.2826 10.7252C16.4199 10.6589 16.5801 10.6589 16.7174 10.7252C16.8754 10.8015 16.9908 11.0429 17.2217 11.5256L20.087 17.5166M20.087 17.5166L22 21.5166M2 5.5166H8M8 5.5166H11.5M8 5.5166V3.5166M11.5 5.5166H14M11.5 5.5166C11.0039 8.47389 9.85259 11.1528 8.16555 13.401M10 14.5166C9.38747 14.2414 8.76265 13.8587 8.16555 13.401M8.16555 13.401C6.81302 12.3644 5.60276 10.9432 5 9.5166M8.16555 13.401C6.56086 15.5395 4.47143 17.2884 2 18.5166" stroke="black" stroke-width="2" stroke-linecap="round" stroke-linejoin="round"/>
</svg>
