<svg width="24" height="25" viewBox="0 0 24 25" fill="none" xmlns="http://www.w3.org/2000/svg">
<g clip-path="url(#clip0_468_1504)">
<path d="M24 14.5166V10.5166L20.662 10.0996C20.4687 9.40193 20.1913 8.73034 19.836 8.0996L21.9 5.4456L19.071 2.6166L16.418 4.6806C15.7873 4.32525 15.1157 4.04788 14.418 3.8546L14 0.516602H10L9.583 3.8546C8.88533 4.04788 8.21374 4.32525 7.583 4.6806L4.929 2.6166L2.1 5.4456L4.164 8.0986C3.80865 8.72934 3.53128 9.40093 3.338 10.0986L0 10.5166V14.5166L3.338 14.9336C3.53128 15.6313 3.80865 16.3029 4.164 16.9336L2.1 19.5876L4.929 22.4166L7.582 20.3536C8.21274 20.709 8.88433 20.9863 9.582 21.1796L10 24.5166H14L14.417 21.1786C15.1147 20.9853 15.7863 20.708 16.417 20.3526L19.071 22.4166L21.9 19.5876L19.837 16.9346C20.1923 16.3039 20.4697 15.6323 20.663 14.9346L24 14.5166ZM12 16.5166C11.2089 16.5166 10.4355 16.282 9.77772 15.8425C9.11992 15.403 8.60723 14.7782 8.30448 14.0473C8.00173 13.3164 7.92252 12.5122 8.07686 11.7362C8.2312 10.9603 8.61216 10.2476 9.17157 9.68817C9.73098 9.12876 10.4437 8.7478 11.2196 8.59346C11.9956 8.43912 12.7998 8.51833 13.5307 8.82108C14.2616 9.12383 14.8864 9.63652 15.3259 10.2943C15.7654 10.9521 16 11.7255 16 12.5166C16 13.5775 15.5786 14.5949 14.8284 15.345C14.0783 16.0952 13.0609 16.5166 12 16.5166Z" fill="#1A263C"/>
</g>
<defs>
<clipPath id="clip0_468_1504">
<rect width="24" height="24" fill="white" transform="translate(0 0.516602)"/>
</clipPath>
</defs>
</svg>
