<svg width="24" height="25" viewBox="0 0 24 25" fill="none" xmlns="http://www.w3.org/2000/svg">
<path d="M18.75 8.5166V10.6166C18.31 10.5566 17.81 10.5266 17.25 10.5166V8.5166C17.25 5.3666 16.36 3.2666 12 3.2666C7.64 3.2666 6.75 5.3666 6.75 8.5166V10.5166C6.19 10.5266 5.69 10.5566 5.25 10.6166V8.5166C5.25 5.6166 5.95 1.7666 12 1.7666C18.05 1.7666 18.75 5.6166 18.75 8.5166Z" fill="#292D32"/>
<path d="M18.75 10.6166C18.31 10.5566 17.81 10.5266 17.25 10.5166H6.75C6.19 10.5266 5.69 10.5566 5.25 10.6166C2.7 10.9266 2 12.1766 2 15.5166V17.5166C2 21.5166 3 22.5166 7 22.5166H17C21 22.5166 22 21.5166 22 17.5166V15.5166C22 12.1766 21.3 10.9266 18.75 10.6166ZM8.71 17.2266C8.52 17.4066 8.26 17.5166 8 17.5166C7.87 17.5166 7.74 17.4866 7.62 17.4366C7.49 17.3866 7.39 17.3166 7.29 17.2266C7.11 17.0366 7 16.7766 7 16.5166C7 16.3866 7.03 16.2566 7.08 16.1366C7.13 16.0166 7.2 15.9066 7.29 15.8066C7.39 15.7166 7.49 15.6466 7.62 15.5966C7.99 15.4366 8.43 15.5266 8.71 15.8066C8.8 15.9066 8.87 16.0166 8.92 16.1366C8.97 16.2566 9 16.3866 9 16.5166C9 16.7766 8.89 17.0366 8.71 17.2266ZM12.92 16.8966C12.87 17.0166 12.8 17.1266 12.71 17.2266C12.52 17.4066 12.26 17.5166 12 17.5166C11.73 17.5166 11.48 17.4066 11.29 17.2266C11.2 17.1266 11.13 17.0166 11.08 16.8966C11.03 16.7766 11 16.6466 11 16.5166C11 16.2466 11.11 15.9966 11.29 15.8066C11.66 15.4366 12.33 15.4366 12.71 15.8066C12.89 15.9966 13 16.2466 13 16.5166C13 16.6466 12.97 16.7766 12.92 16.8966ZM16.71 17.2266C16.52 17.4066 16.26 17.5166 16 17.5166C15.74 17.5166 15.48 17.4066 15.29 17.2266C15.11 17.0366 15 16.7866 15 16.5166C15 16.2466 15.11 15.9966 15.29 15.8066C15.67 15.4366 16.34 15.4366 16.71 15.8066C16.75 15.8566 16.79 15.9066 16.83 15.9666C16.87 16.0166 16.9 16.0766 16.92 16.1366C16.95 16.1966 16.97 16.2566 16.98 16.3166C16.99 16.3866 17 16.4566 17 16.5166C17 16.7766 16.89 17.0366 16.71 17.2266Z" fill="#292D32"/>
</svg>
