<svg width="224" height="190" viewBox="0 0 224 190" fill="none" xmlns="http://www.w3.org/2000/svg">
<g clip-path="url(#clip0_611_1930)">
<path d="M193.783 168.854C174.923 167.169 143.385 166.064 107.663 166.064C71.9412 166.064 38.5255 167.236 19.8886 169.005C4.30038 153.826 -3.0578 134.45 9.14592 115.565C22.4825 94.9237 68.6004 86.3651 120.898 89.9075C129.085 89.1021 136.222 86.8745 141.587 82.9036C197.91 33.7703 263.685 121.299 193.785 168.853L193.783 168.854Z" fill="url(#paint0_linear_611_1930)"/>
<path d="M220.464 174.212C220.464 178.754 207.054 182.853 185.59 185.735C165.878 188.38 139.377 190 110.232 190C77.1819 190 47.5273 187.916 27.3248 184.613C10.3114 181.837 0 178.198 0 174.212C0 171.048 6.50188 168.1 17.6931 165.626C37.3409 161.291 71.4472 158.423 110.23 158.423C149.014 158.423 181.139 161.128 201.024 165.254C213.284 167.798 220.464 170.886 220.464 174.212Z" fill="#D1D2D4"/>
<path d="M123.873 57.2854L118.646 55.8896C118.646 55.8896 118.462 54.7275 119.117 54.2726L124.225 55.5048C124.067 55.4752 123.862 55.8506 123.769 56.3429C123.678 56.8212 123.725 57.2355 123.873 57.2854Z" fill="#007AFF"/>
<path d="M116.168 54.7539L118.683 55.3973L118.901 54.6729L116.387 54.0295L116.381 54.0389C116.242 54.2305 116.167 54.4611 116.168 54.6963V54.7539Z" fill="#E3E6E8"/>
<path d="M116.34 53.6526C116.211 53.623 116.028 53.9236 115.934 54.3271C115.839 54.729 115.865 55.0811 115.996 55.1107C116.012 55.1138 116.026 55.1138 116.043 55.1091C115.915 55.078 115.889 54.729 115.984 54.3271C116.068 53.9688 116.223 53.6915 116.346 53.6557C116.346 53.6557 116.342 53.6526 116.34 53.6526Z" fill="#969696"/>
<path d="M116.345 53.6557C116.22 53.69 116.067 53.9673 115.982 54.3271C115.887 54.7275 115.914 55.078 116.042 55.1091C116.118 55.0858 116.209 54.9658 116.284 54.7913C116.329 54.6901 116.368 54.5686 116.4 54.4377C116.432 54.3006 116.451 54.1682 116.454 54.0529C116.465 53.838 116.425 53.6806 116.345 53.6573V53.6557Z" fill="#E3E6E8"/>
<path d="M123.887 57.2885L118.648 55.8896C118.648 55.8896 118.464 54.729 119.118 54.2726L124.226 55.5048L123.887 57.2885Z" fill="#46C189"/>
<mask id="mask0_611_1930" style="mask-type:luminance" maskUnits="userSpaceOnUse" x="118" y="54" width="7" height="4">
<path d="M123.887 57.2885L118.648 55.8896C118.648 55.8896 118.464 54.729 119.118 54.2726L124.226 55.5048L123.887 57.2885Z" fill="white"/>
</mask>
<g mask="url(#mask0_611_1930)">
<path d="M123.701 55.6824C123.701 55.6824 123.404 56.3382 123.487 57.2262" stroke="#E3E6E8" stroke-width="0.37" stroke-miterlimit="10"/>
<path d="M123.326 55.592C123.326 55.592 123.029 56.2479 123.112 57.1358" stroke="#E3E6E8" stroke-width="0.37" stroke-miterlimit="10"/>
<path d="M122.95 55.5017C122.95 55.5017 122.653 56.1575 122.736 57.0455" stroke="#E3E6E8" stroke-width="0.37" stroke-miterlimit="10"/>
<path d="M122.575 55.4113C122.575 55.4113 122.278 56.0672 122.361 56.9551" stroke="#E3E6E8" stroke-width="0.37" stroke-miterlimit="10"/>
<path d="M122.2 55.3225C122.2 55.3225 121.903 55.9783 121.986 56.8663" stroke="#E3E6E8" stroke-width="0.37" stroke-miterlimit="10"/>
<path d="M121.825 55.2322C121.825 55.2322 121.528 55.888 121.611 56.776" stroke="#E3E6E8" stroke-width="0.37" stroke-miterlimit="10"/>
<path d="M121.448 55.1418C121.448 55.1418 121.151 55.7977 121.234 56.6856" stroke="#E3E6E8" stroke-width="0.37" stroke-miterlimit="10"/>
<path d="M121.073 55.053C121.073 55.053 120.776 55.7089 120.859 56.5968" stroke="#E3E6E8" stroke-width="0.37" stroke-miterlimit="10"/>
<path d="M120.698 54.9627C120.698 54.9627 120.401 55.6185 120.484 56.5065" stroke="#E3E6E8" stroke-width="0.37" stroke-miterlimit="10"/>
<path d="M120.323 54.8723C120.323 54.8723 120.026 55.5282 120.109 56.4161" stroke="#E3E6E8" stroke-width="0.37" stroke-miterlimit="10"/>
<path d="M119.948 54.782C119.948 54.782 119.651 55.4378 119.734 56.3258" stroke="#E3E6E8" stroke-width="0.37" stroke-miterlimit="10"/>
<path d="M119.571 54.6932C119.571 54.6932 119.275 55.349 119.357 56.237" stroke="#E3E6E8" stroke-width="0.37" stroke-miterlimit="10"/>
</g>
<path d="M123.887 57.2885L123.875 57.2854C123.727 57.2355 123.68 56.8212 123.77 56.3429C123.864 55.8506 124.067 55.4752 124.227 55.5048C124.384 55.5344 124.438 55.9581 124.344 56.4504C124.25 56.9427 124.047 57.3181 123.889 57.2885H123.887Z" fill="#42DB9C"/>
<path d="M124.54 56.8539L124.056 56.709C124.056 56.709 124.031 56.3554 124.201 56.1981L124.7 56.3429L124.54 56.8539Z" fill="#E3E6E8"/>
<path d="M124.67 56.0579C124.539 56.0345 124.389 56.2541 124.331 56.5501C124.275 56.8461 124.336 57.1063 124.465 57.1312C124.475 57.1312 124.483 57.1343 124.492 57.1312C124.378 57.0813 124.329 56.8352 124.383 56.5579C124.434 56.2806 124.57 56.0703 124.694 56.0656C124.686 56.061 124.678 56.0579 124.669 56.0563L124.67 56.0579Z" fill="#969696"/>
<path d="M124.541 56.9349L125.419 57.0424L125.527 56.6747L124.695 56.2775L124.541 56.9349Z" fill="#E3E6E8"/>
<path d="M125.496 56.7794L125.458 56.9255L129.431 57.9655L129.469 57.8193L125.496 56.7794Z" fill="#494949"/>
<path d="M124.694 56.0672C124.569 56.0719 124.433 56.2822 124.383 56.5595C124.328 56.8368 124.378 57.0829 124.492 57.1327C124.615 57.1265 124.751 56.9178 124.803 56.6389C124.858 56.3616 124.808 56.1155 124.694 56.0672Z" fill="#E3E6E8"/>
<path d="M72.0208 15.1201L62.5687 18.8448L44.9851 43.6078L35.3127 63.3297L28.939 115.046L60.8108 116.361L61.2671 112.152L65.6454 71.8759L72.5692 56.7557L76.196 24.104L72.0208 15.1201Z" fill="#E6E7E9"/>
<path d="M68.7237 30.2403L63.2281 28.2681L57.2934 32.2124L55.9746 63.1101L74.8771 76.0399L84.1088 77.135L89.1653 70.3414L72.5692 56.7558L70.4816 30.2403H68.7237Z" fill="#E6E7E9"/>
<path d="M68.6848 30.3462C66.7769 29.9178 64.8909 29.4068 63.0111 28.8678L63.5815 28.7992C61.7486 30.1888 59.711 31.6781 57.8187 33.0022L58.2406 32.2545C58.2218 37.4217 57.7171 42.5547 57.1249 47.6846C56.5936 52.8238 56.5733 57.9817 56.6843 63.1427L56.3749 62.5274C62.7986 66.4344 69.413 70.734 75.5211 75.1036L75.0101 74.912C77.9712 75.3342 81.2526 75.8451 84.1981 76.3701L83.484 76.677C84.2606 75.7377 85.4232 74.3824 86.2326 73.4446C87.1686 72.379 88.1014 71.3135 89.0718 70.2791L89.2515 70.4131C87.7764 72.9367 86.1154 75.4946 84.5075 77.9373C83.0121 77.8532 80.8823 77.6989 79.3713 77.5805C77.8837 77.459 75.9477 77.2955 74.4851 77.149C68.102 72.9959 61.6204 68.3287 55.567 63.7005L55.2217 63.4341L55.2576 63.0836C55.8076 57.9506 56.228 52.8098 56.1358 47.6441C55.9827 42.4846 55.9186 37.3251 56.3405 32.1766L56.3733 31.6719C56.6436 31.5005 57.9796 30.6717 58.275 30.4864C59.7563 29.6015 61.3704 28.5843 62.8705 27.7431L63.183 27.5639L63.4408 27.6745C65.2331 28.4534 67.0144 29.2572 68.7583 30.1405L68.6817 30.3508L68.6848 30.3462Z" fill="#D3D4D6"/>
<path d="M76.1961 29.3647L79.4931 52.7023L97.7377 57.4131L102.354 63.7675L94.661 65.7396L84.8387 66.799L72.5693 56.7557L76.1961 29.3647Z" fill="#D1D2D4"/>
<path d="M88.195 71.6453L94.8797 76.0398L102.354 80.422L100.375 84.586L92.2421 85.9008L89.1654 80.422L84.1089 77.135L88.195 71.6453Z" fill="#2DB58B"/>
<path d="M98.1035 57.8509L102.719 55.6606L109.095 50.4014H113.051L117.447 54.1262L111.073 57.8509L102.174 63.4543L98.1035 57.8509Z" fill="#2DB58B"/>
<path d="M70.4816 112.197L61.2671 112.152L65.6454 71.8759L70.4816 112.197Z" fill="#D1D2D4"/>
<path d="M72.021 15.1201L73.7789 9.20355H84.1091H92.4626L93.5611 15.1201L89.825 21.4744L84.1091 24.4327H80.5933L76.1962 24.104L72.021 15.1201Z" fill="#E1A293"/>
<path d="M77.9556 23.2285H80.1525L82.1308 21.4744L83.2308 20.5989L89.8249 23.2285V24.5433L85.8685 28.268H83.2308H78.8337L77.9556 23.2285Z" fill="#2DB58B"/>
<path d="M70.4814 14.025L77.2958 12.7102H85.4275L90.484 13.3676L93.5607 15.1201L95.9796 11.6135L94.8795 6.13622L87.462 1.31479H82.3508L77.7349 0L72.569 4.38212L70.4814 11.6135V14.025Z" fill="#2DB58B"/>
<path d="M77.9553 23.2285L76.1958 15.1201H78.8334L83.2305 20.5989" stroke="#83A2CE" stroke-width="1.8" stroke-miterlimit="10"/>
<path d="M82.79 13.5857L89.8248 23.2285L93.5609 18.4071L85.4277 12.7102L82.79 13.5857Z" fill="#B9C8E9"/>
<path d="M78.625 16.7144C79.927 16.0633 80.6225 14.8197 80.1783 13.9369C79.734 13.054 78.3184 12.8662 77.0163 13.5174C75.7142 14.1686 75.0188 15.4122 75.463 16.295C75.9072 17.1778 77.3229 17.3656 78.625 16.7144Z" fill="#E1A293"/>
<path d="M80.4318 13.8162C81.0959 15.6295 78.4676 17.1499 76.9301 17.1702C75.2706 17.2371 74.5174 15.7993 75.3206 14.3941C76.0113 13.2211 77.3645 12.4734 78.7364 12.6634C79.4224 12.7616 80.149 13.1463 80.4318 13.8162ZM79.9302 14.067C79.1474 12.9703 76.7504 14.0514 76.0753 14.8973C75.2315 15.8445 75.7159 16.8882 76.9379 17.0346C78.0723 17.1686 79.3317 16.5533 79.8677 15.5391C80.1083 15.0858 80.2037 14.4954 79.9302 14.0654V14.067Z" fill="#C98A7D"/>
<path d="M37.7317 116.361L34.2144 149.888V174.212L43.007 173.116L47.6228 170.925V160.187L48.7213 139.15L54.1997 116.088L37.4786 115.398L37.7317 116.361Z" fill="#2DB58B"/>
<path d="M63.008 112.197L61.2673 157.557L64.108 170.048L49.6011 171.802V155.367V132.796L54.1997 116.088L60.811 116.361L61.2673 112.151L63.008 112.197Z" fill="#1F936C"/>
<path d="M35.5332 174.212V176.184L34.2144 179.908L38.1708 181.443H44.207L52.5684 183.853L59.7109 182.977V180.128L56.8545 179.033H67.8441L77.9556 177.279L76.1961 174.212L70.4818 173.116L65.8753 171.802L64.108 170.048L49.601 171.802V175.089L45.7759 171.802L35.5332 174.212Z" fill="#E6E7E9"/>
<path d="M174.076 98.0891V116.513H167.524V120.33H178.015V116.513V98.0891H174.076Z" fill="#258C69"/>
<path d="M179.943 96.9146H172.06V102.283H179.943V96.9146Z" fill="#1C664B"/>
<path d="M178.015 102.283H174.076V103.302H178.015V102.283Z" fill="#154232"/>
<path d="M119.384 98.0891V116.513H125.938V120.33H115.445V116.513V98.0891H119.384Z" fill="#258C69"/>
<path d="M113.517 102.283H121.4V96.9146H113.517V102.283Z" fill="#1C664B"/>
<path d="M115.446 103.3H119.386V102.281H115.446V103.3Z" fill="#154232"/>
<path d="M170.346 113.649H123.114C122.162 113.649 121.384 114.424 121.384 115.373V122.164C121.384 123.112 122.162 123.888 123.114 123.888H170.346C171.298 123.888 172.076 123.112 172.076 122.164V115.373C172.076 114.424 171.298 113.649 170.346 113.649Z" fill="#2DB58B"/>
<path d="M166.943 123.888H126.521V129.34H166.943V123.888Z" fill="#1D9372"/>
<path d="M166.943 123.888H126.521V125.264H166.943V123.888Z" fill="#167054"/>
<path d="M142.976 129.34V131.291V151.525H150.486V131.291V129.34H142.976Z" fill="#24BC94"/>
<path d="M148.773 155.269H144.687V157.802H148.773V155.269Z" fill="#1E7258"/>
<path d="M148.98 164.658C151.055 163.418 151.73 160.735 150.486 158.666C149.242 156.596 146.551 155.924 144.476 157.164C142.4 158.404 141.726 161.087 142.969 163.156C144.213 165.225 146.904 165.898 148.98 164.658Z" fill="#164F3C"/>
<path d="M147.834 163.614C149.329 163.003 150.045 161.299 149.432 159.808C148.819 158.317 147.11 157.603 145.614 158.214C144.119 158.825 143.403 160.529 144.016 162.02C144.629 163.512 146.338 164.225 147.834 163.614Z" fill="#10382A"/>
<path d="M170.577 151.525H122.884C122.33 151.525 121.881 151.973 121.881 152.525V154.268C121.881 154.821 122.33 155.269 122.884 155.269H170.577C171.131 155.269 171.58 154.821 171.58 154.268V152.525C171.58 151.973 171.131 151.525 170.577 151.525Z" fill="#1D9372"/>
<path d="M168.68 155.269H164.594V157.802H168.68V155.269Z" fill="#1E7258"/>
<path d="M170.953 161.596C171.343 159.215 169.724 156.97 167.335 156.581C164.947 156.192 162.695 157.807 162.305 160.187C161.914 162.568 163.534 164.814 165.922 165.203C168.31 165.592 170.563 163.977 170.953 161.596Z" fill="#164F3C"/>
<path d="M167.898 163.536C169.356 162.842 169.975 161.101 169.279 159.646C168.582 158.192 166.836 157.576 165.377 158.27C163.918 158.964 163.3 160.705 163.996 162.159C164.692 163.614 166.439 164.23 167.898 163.536Z" fill="#10382A"/>
<path d="M128.865 155.269H124.779V157.802H128.865V155.269Z" fill="#1E7258"/>
<path d="M131.142 161.597C131.532 159.216 129.912 156.971 127.524 156.582C125.136 156.193 122.884 157.807 122.494 160.188C122.103 162.569 123.723 164.815 126.111 165.204C128.499 165.593 130.752 163.978 131.142 161.597Z" fill="#164F3C"/>
<path d="M129.67 161.576C130.044 160.008 129.072 158.435 127.499 158.062C125.927 157.69 124.349 158.659 123.975 160.226C123.601 161.794 124.573 163.367 126.146 163.74C127.718 164.113 129.296 163.144 129.67 161.576Z" fill="#10382A"/>
<path d="M153.417 110.128H140.044V113.649H153.417V110.128Z" fill="#258C69"/>
<path d="M161.317 70.5034H132.144C129.355 70.5034 127.072 72.608 127.072 75.1815V105.45C127.072 108.023 129.355 110.128 132.144 110.128H161.317C164.106 110.128 166.389 108.023 166.389 105.45V75.1815C166.389 72.608 164.106 70.5034 161.317 70.5034Z" fill="#2DB58B"/>
<path d="M150.486 129.34H142.976V131.763H150.486V129.34Z" fill="#1E7258"/>
<path d="M153.417 110.128H140.044V111.888H153.417V110.128Z" fill="#18543E"/>
<path d="M144.52 48.1566V51.5199L142.457 53.8208L141.083 54.8614V56.4504L146.084 61.2718L148.503 62.8063H149.876L154.053 57.491L156.58 54.4237L154.656 52.4515L153.045 51.5449L152.623 48.7813L144.52 48.1566Z" fill="#D18E86"/>
<path d="M158.851 38.8658L159.486 37.1694C159.528 37.0588 159.558 36.9435 159.578 36.8266L160.041 34.1534C160.078 33.9354 160.078 33.7141 160.041 33.496L159.583 30.9163C159.514 30.5269 159.325 30.1686 159.042 29.8913L156.712 27.5982C156.625 27.5125 156.531 27.4362 156.429 27.3676L154.426 26.0357C154.112 25.8269 153.742 25.7148 153.365 25.7148H149.882C149.59 25.7148 149.302 25.7818 149.042 25.9095L144.734 28.011C144.434 28.1574 144.176 28.3802 143.988 28.6559L141.763 31.9382C141.607 32.1688 141.504 32.4305 141.458 32.7047L141.138 34.7049C141.104 34.9183 141.107 35.1349 141.144 35.3483L141.422 36.8734C141.49 37.2426 141.446 37.6227 141.299 37.967L140.291 40.3099C140.235 40.4408 140.194 40.5779 140.168 40.7181L138.997 47.0817L138.246 52.5403C138.233 52.626 138.229 52.7132 138.229 52.8004V53.1136C138.229 54.3302 139.357 55.2369 140.549 54.9783C140.901 54.9019 141.222 54.729 141.479 54.4798L143.94 52.087C144.312 51.7255 144.521 51.2271 144.518 50.7083L144.505 48.8249C144.499 47.7936 145.315 46.9431 146.349 46.9057L150.11 46.7686C150.368 46.7593 150.623 46.6969 150.856 46.5879L154.786 44.7419C154.884 44.6952 154.978 44.6406 155.067 44.5783L156.664 43.4629C156.968 43.2511 157.204 42.9551 157.342 42.6108L158.851 38.8643V38.8658Z" fill="#4B3631"/>
<path d="M151.309 31.4459L148.145 32.147C147.315 32.3308 146.609 32.8698 146.212 33.6191L144.719 36.4465C144.219 37.3937 143.233 37.9872 142.16 37.9872H142.147V41.8755C142.147 42.2026 142.204 42.5267 142.313 42.8351L143.758 46.9197C143.857 47.1954 143.996 47.4556 144.173 47.6908L145.191 49.0445C145.501 49.4558 145.916 49.7783 146.393 49.9761L148.648 50.9123C149.001 51.0588 149.379 51.1336 149.76 51.1336H150.807C151.637 51.1336 152.428 50.7784 152.976 50.1584L156.418 46.2685C156.478 46.2 156.536 46.1299 156.589 46.0567L158.3 43.7106C158.659 43.2183 158.853 42.6232 158.853 42.0141V35.652C158.853 34.4245 158.073 33.3309 156.911 32.9274L152.889 31.5332C152.381 31.3571 151.835 31.326 151.31 31.4413L151.309 31.4459Z" fill="#E19D92"/>
<path d="M141.083 54.8615H139.922C138.222 54.8615 136.538 55.1964 134.968 55.846L134.55 56.0189C131.742 57.181 129.436 59.295 128.037 61.9869C126.35 65.2349 125.369 68.8007 125.156 72.4523L124.378 85.8681L134.928 86.6346L173.285 87.6207L172.735 71.7341L171.377 65.6727C170.76 62.9216 169.269 60.4431 167.125 58.6049C165.682 57.3664 163.98 56.4629 162.144 55.9566L156.58 54.4237L153.282 56.8336L150.498 57.2714H145.809L142.146 56.1762L141.083 54.8615Z" fill="#1471C6"/>
<path d="M146.048 39.5559C146.084 39.5824 146.121 39.6073 146.159 39.6307L147.448 40.433C147.623 40.542 147.817 40.6215 148.02 40.6651L150.142 41.1246C150.378 41.1761 150.62 41.1792 150.857 41.1355L153.159 40.704C153.526 40.6355 153.904 40.6822 154.243 40.8365L155.042 41.201L156.581 41.9316L157.015 42.1263C157.995 42.5672 158.372 43.7605 157.823 44.6811L156.226 47.3621C156.122 47.5382 155.987 47.6955 155.829 47.8263L152.978 50.1927C152.897 50.2597 152.811 50.3204 152.718 50.3718L151.795 50.8984C151.523 51.0526 151.215 51.1351 150.901 51.1351H149.542C149.304 51.1351 149.068 51.0884 148.848 50.9965L146.192 49.892C145.848 49.7502 145.559 49.5041 145.36 49.191L143.657 46.496C143.585 46.3823 143.527 46.2623 143.482 46.1361L142.688 43.8944C142.569 43.5564 142.554 43.1919 142.643 42.846L143.24 40.5514C143.56 39.3223 145.023 38.8019 146.051 39.5528L146.048 39.5559Z" fill="#1471C6"/>
<path d="M171.601 87.6222V91.6772L167.644 95.2555L161.636 94.2335L154.602 91.4388L156.58 87.6222H171.601Z" fill="#D18E86"/>
<path d="M158.235 93.5029L167.612 99.0534L169.077 104.313L167.466 112.201L155.009 121.844V138.499V162.749H142.995V129.295L139.184 115.708L140.943 108.696L144.167 106.067L150.908 107.528L158.235 93.5029Z" fill="#8FC8CC"/>
<path d="M133.616 93.503L129.219 96.4238L127.461 101.392V107.819L130.538 113.663L139.183 115.708L140.943 108.696L144.166 106.067L150.907 107.528V115.708L153.837 128.272L157.061 138.79L160.284 151.354L169.077 148.14L163.216 112.787L160.872 99.0534L158.234 93.503L142.701 92.3346L133.616 93.503Z" fill="#C3EEF4"/>
<path d="M161.194 151.022L161.788 156.431V160.155L164.096 163.882L168.161 165.963H174.535L178.603 163.882V161.799L173.766 156.868L168.405 148.386L161.194 151.022Z" fill="#333333"/>
<path d="M143.654 162.749V165.525L141.016 171.989L139.183 175.933L138.268 179.002L139.183 181.74L142.224 182.727L146.51 180.754L151.567 175.824L154.131 172.099L155.193 170.016L154.131 165.963L152.995 163.882L152.885 162.749H143.654Z" fill="#333333"/>
<path d="M125.616 85.96L126.174 91.6772L128.519 95.4019L150.498 94.5249L158.852 94.3784L165.299 98.4692L170.282 97.1544V94.6713L171.601 91.6772L167.79 88.9744L161.782 87.6222L125.616 85.96Z" fill="#E19D92"/>
</g>
<defs>
<linearGradient id="paint0_linear_611_1930" x1="3.03469" y1="118.699" x2="224" y2="118.699" gradientUnits="userSpaceOnUse">
<stop stop-color="#0BE5A1"/>
<stop offset="0.98" stop-color="#005EB2"/>
</linearGradient>
<clipPath id="clip0_611_1930">
<rect width="224" height="190" fill="white"/>
</clipPath>
</defs>
</svg>
