<svg width="165" height="169" viewBox="0 0 165 169" fill="none" xmlns="http://www.w3.org/2000/svg">
<path d="M72.0698 54.4944C32.173 67.9501 1.66337 90.5717 0.105668 113.839C-3.30336 164.749 76.7392 182.481 100.471 157.56C240.279 79.8519 112.278 -39.2178 84.4904 41.4319C82.1314 46.8029 77.7719 51.1352 72.0698 54.4944Z" fill="url(#paint0_linear_611_4413)"/>
<path d="M79.2428 67.1887H47.1494C45.1637 67.1887 43.5537 65.5788 43.5537 63.5931V61.7915C43.5537 59.0195 45.6539 56.6991 48.411 56.4217L62.6567 56.3408C63.015 56.3047 63.3759 56.3047 63.7342 56.3408L77.9799 56.4217C80.7383 56.6979 82.8372 59.0195 82.8372 61.7915V63.5931C82.8372 65.5788 81.2272 67.1887 79.2415 67.1887H79.2428Z" fill="#42DB9C"/>
<path d="M78.1912 72.6083V67.1887H48.2005V72.6395C48.2005 74.5567 47.1143 76.3446 45.3613 77.1222C42.7485 78.283 40.9258 80.8995 40.9258 83.9428V139.137C40.9258 143.259 44.2664 146.599 48.3883 146.599H78.0033C82.1253 146.599 85.4659 143.259 85.4659 139.137V83.9428C85.4659 80.9107 83.6569 78.3017 81.059 77.1346C79.2923 76.3409 78.1912 74.543 78.1912 72.6059V72.6083Z" fill="#A9D8C1"/>
<path opacity="0.3" d="M81.8066 86.2718V93.3213C81.8066 92.3869 73.4731 91.6317 63.1963 91.6317C52.9194 91.6317 44.5859 92.3869 44.5859 93.3213V86.2718C44.5859 83.9925 45.6447 81.9794 47.2609 80.7689C49.4506 79.1278 50.6662 76.4902 50.6662 73.753V70.6749H75.7263V73.4494C75.7263 76.3769 77.1136 79.0892 79.3692 80.9555C80.8511 82.181 81.8066 84.1057 81.8066 86.2706V86.2718Z" fill="#42DB9C"/>
<path d="M81.8066 93.3201V138.567C81.8066 142.27 79.0134 144.193 75.5695 144.193H50.823C47.3791 144.193 44.5859 142.268 44.5859 138.567V93.3201C44.5859 92.3857 52.9194 91.6305 63.1963 91.6305C73.4731 91.6305 81.8066 92.3857 81.8066 93.3201Z" fill="#42DB9C"/>
<path d="M81.8066 93.3201C81.8066 94.2532 73.4731 95.0097 63.1963 95.0097C52.9194 95.0097 44.5859 94.2544 44.5859 93.3201C44.5859 92.3857 52.9194 91.6305 63.1963 91.6305C73.4731 91.6305 81.8066 92.3857 81.8066 93.3201Z" fill="#3DAA79"/>
<path d="M74.9053 57.8388H79.4117L80.9607 60.5138V62.4858H77.9323L74.9053 57.8388Z" fill="#E1EEFF"/>
<path d="M77.6165 86.5617C61.038 88.0759 48.7754 86.5617 48.7754 86.5617V133.42C48.7754 133.42 57.6327 136.599 77.6165 133.42V86.5617Z" fill="#E7F4FA"/>
<mask id="mask0_611_4413" style="mask-type:luminance" maskUnits="userSpaceOnUse" x="48" y="86" width="30" height="49">
<path d="M77.6165 86.5617C61.038 88.0759 48.7754 86.5617 48.7754 86.5617V133.42C48.7754 133.42 57.6327 136.599 77.6165 133.42V86.5617Z" fill="white"/>
</mask>
<g mask="url(#mask0_611_4413)">
<path d="M47.8521 90.7558C47.8521 90.7558 61.3687 94.2408 79.2151 90.7558" stroke="#BC1313" stroke-width="1.07994" stroke-miterlimit="10"/>
<path d="M47.8521 128.225C47.8521 128.225 61.3687 131.71 79.2151 128.225" stroke="#BC1313" stroke-width="1.07994" stroke-miterlimit="10"/>
</g>
<path d="M119.611 65.9097L102.976 127.473C102.976 127.473 89.2433 129.618 83.8784 121.895L98.5758 61.7281C98.22 63.5906 102.648 66.003 108.469 67.1178C114.125 68.2002 119.019 67.6553 119.612 65.911L119.611 65.9097Z" fill="#007AFF"/>
<path d="M89.5058 156.67L97.1674 127.057L88.6138 124.455L80.9521 154.068L81.0554 154.143C83.3148 155.785 86.0358 156.67 88.829 156.67H89.5058Z" fill="#E3E6E8"/>
<path d="M76.4842 154.618C76.1271 156.137 79.6854 158.302 84.4419 159.428C89.1984 160.554 93.3464 160.25 93.7047 158.712C93.7408 158.533 93.7408 158.354 93.6873 158.159C93.3116 159.661 89.1809 159.965 84.4419 158.838C80.2042 157.837 76.9321 156.013 76.5202 154.547C76.5028 154.564 76.4842 154.601 76.4842 154.619V154.618Z" fill="#969696"/>
<path d="M76.52 154.546C76.9318 156.011 80.204 157.835 84.4417 158.837C89.1807 159.964 93.3114 159.659 93.6871 158.158C93.4184 157.246 91.9888 156.191 89.9322 155.296C88.7341 154.76 87.3033 154.294 85.748 153.919C84.1207 153.526 82.5654 153.31 81.2068 153.257C78.6675 153.131 76.8074 153.596 76.5213 154.545L76.52 154.546Z" fill="#E3E6E8"/>
<path d="M119.651 65.7592L102.975 127.473C102.975 127.473 89.2418 129.619 83.877 121.894L98.5744 61.7256L119.649 65.7592H119.651Z" fill="#46C189"/>
<mask id="mask1_611_4413" style="mask-type:luminance" maskUnits="userSpaceOnUse" x="83" y="61" width="37" height="67">
<path d="M119.651 65.7592L102.975 127.473C102.975 127.473 89.2418 129.619 83.877 121.894L98.5744 61.7256L119.649 65.7592H119.651Z" fill="white"/>
</mask>
<g mask="url(#mask1_611_4413)">
<path d="M100.656 67.9041C100.656 67.9041 108.41 71.4289 118.893 70.4596" stroke="#E3E6E8" stroke-width="0.675585" stroke-miterlimit="10"/>
<path d="M99.5835 72.3259C99.5835 72.3259 107.337 75.8506 117.821 74.8814" stroke="#E3E6E8" stroke-width="0.675585" stroke-miterlimit="10"/>
<path d="M98.5112 76.7477C98.5112 76.7477 106.265 80.2724 116.748 79.3032" stroke="#E3E6E8" stroke-width="0.675585" stroke-miterlimit="10"/>
<path d="M97.4385 81.1707C97.4385 81.1707 105.192 84.6955 115.676 83.7262" stroke="#E3E6E8" stroke-width="0.675585" stroke-miterlimit="10"/>
<path d="M96.3677 85.5925C96.3677 85.5925 104.121 89.1172 114.605 88.148" stroke="#E3E6E8" stroke-width="0.675585" stroke-miterlimit="10"/>
<path d="M95.2949 90.0143C95.2949 90.0143 103.049 93.539 113.532 92.5698" stroke="#E3E6E8" stroke-width="0.675585" stroke-miterlimit="10"/>
<path d="M94.2227 94.4361C94.2227 94.4361 101.976 97.9608 112.46 96.9916" stroke="#E3E6E8" stroke-width="0.675585" stroke-miterlimit="10"/>
<path d="M93.1499 98.8579C93.1499 98.8579 100.904 102.383 111.387 101.413" stroke="#E3E6E8" stroke-width="0.675585" stroke-miterlimit="10"/>
<path d="M92.0776 103.28C92.0776 103.28 99.8313 106.804 110.315 105.835" stroke="#E3E6E8" stroke-width="0.675585" stroke-miterlimit="10"/>
<path d="M91.0049 107.701C91.0049 107.701 98.7586 111.226 109.242 110.257" stroke="#E3E6E8" stroke-width="0.675585" stroke-miterlimit="10"/>
<path d="M89.9341 112.124C89.9341 112.124 97.6878 115.649 108.171 114.68" stroke="#E3E6E8" stroke-width="0.675585" stroke-miterlimit="10"/>
<path d="M88.8613 116.546C88.8613 116.546 96.615 120.071 107.098 119.102" stroke="#E3E6E8" stroke-width="0.675585" stroke-miterlimit="10"/>
</g>
<path d="M119.652 65.7579L119.611 65.9085C119.018 67.6515 114.124 68.1965 108.468 67.1153C102.647 66.0005 98.2189 63.5881 98.5747 61.7256C98.9305 59.863 103.937 59.2559 109.759 60.3707C115.58 61.4829 120.008 63.8954 119.652 65.7567V65.7579Z" fill="#42DB9C"/>
<path d="M114.531 58.0428L112.801 63.7424C112.801 63.7424 108.616 64.0372 106.765 62.0254L108.496 56.1517L114.531 58.0428Z" fill="#E3E6E8"/>
<path d="M105.125 56.5C104.839 58.0378 107.432 59.8257 110.937 60.505C114.441 61.1669 117.517 60.4689 117.803 58.9311C117.821 58.8241 117.839 58.7346 117.821 58.6276C117.231 59.9688 114.316 60.5411 111.044 59.8966C107.771 59.2882 105.286 57.6795 105.232 56.2126C105.179 56.3022 105.143 56.3918 105.125 56.4988V56.5Z" fill="#969696"/>
<path d="M115.496 58.0428L116.784 47.7025L112.432 46.4148L107.731 56.2139L115.496 58.0428Z" fill="#E3E6E8"/>
<path d="M126.062 -2.96442e-05L113.668 46.8077L115.397 47.2653L127.79 0.457581L126.062 -2.96442e-05Z" fill="#494949"/>
<path d="M105.232 56.2139C105.285 57.6795 107.771 59.2895 111.043 59.8979C114.316 60.5411 117.231 59.97 117.82 58.6288C117.748 57.1806 115.281 55.5707 111.992 54.9448C108.719 54.3016 105.804 54.8739 105.232 56.2151V56.2139Z" fill="#E3E6E8"/>
<path d="M52.9347 112.306L51.2861 107.256H51.9903L52.7767 109.744C52.9944 110.426 53.181 111.041 53.3166 111.633H53.3316C53.4734 111.048 53.6837 110.411 53.9088 109.752L54.7636 107.256H55.4603L53.655 112.306H52.9359H52.9347Z" fill="#005EB2"/>
<path d="M56.3957 110.717L55.8706 112.306H55.1963L56.912 107.256H57.6983L59.4215 112.306H58.7248L58.1848 110.717H56.3944H56.3957ZM58.0517 110.207L57.5565 108.754C57.4445 108.424 57.3686 108.124 57.294 107.832H57.279C57.2044 108.132 57.1223 108.439 57.024 108.747L56.53 110.207H58.0517Z" fill="#005EB2"/>
<path d="M63.582 112.142C63.3419 112.261 62.8629 112.382 62.2482 112.382C60.8249 112.382 59.7524 111.482 59.7524 109.826C59.7524 108.171 60.8237 107.174 62.3901 107.174C63.0196 107.174 63.4165 107.308 63.5895 107.399L63.4327 107.932C63.1851 107.812 62.833 107.721 62.4137 107.721C61.2293 107.721 60.443 108.478 60.443 109.804C60.443 111.041 61.1546 111.835 62.3839 111.835C62.7808 111.835 63.1851 111.752 63.4476 111.624L63.582 112.142Z" fill="#005EB2"/>
<path d="M65.0504 107.256V112.306H64.3984V107.256H65.0504Z" fill="#005EB2"/>
<path d="M66.1885 112.306V107.256H66.9001L68.5188 109.812C68.8933 110.404 69.1857 110.935 69.4258 111.453L69.4407 111.445C69.381 110.771 69.3661 110.156 69.3661 109.37V107.257H69.9807V112.307H69.3213L67.7176 109.744C67.3655 109.182 67.0283 108.606 66.7732 108.059L66.7508 108.066C66.7882 108.703 66.8031 109.31 66.8031 110.149V112.306H66.1885Z" fill="#005EB2"/>
<path d="M71.9367 110.717L71.4116 112.306H70.7373L72.453 107.256H73.2393L74.9625 112.306H74.2658L73.7258 110.717H71.9354H71.9367ZM73.5927 110.207L73.0975 108.754C72.9855 108.424 72.9109 108.124 72.835 107.832H72.82C72.7454 108.132 72.662 108.439 72.565 108.747L72.0698 110.207H73.5914H73.5927Z" fill="#005EB2"/>
<defs>
<linearGradient id="paint0_linear_611_4413" x1="-8.68055e-05" y1="91.6305" x2="164.664" y2="91.6305" gradientUnits="userSpaceOnUse">
<stop offset="0.02" stop-color="#005EB2"/>
<stop offset="0.15" stop-color="#0065B1"/>
<stop offset="0.35" stop-color="#0279AE"/>
<stop offset="0.59" stop-color="#049BAA"/>
<stop offset="0.86" stop-color="#08C9A4"/>
<stop offset="1" stop-color="#0BE5A1"/>
</linearGradient>
</defs>
</svg>
