<svg width="155" height="182" viewBox="0 0 155 182" fill="none" xmlns="http://www.w3.org/2000/svg">
<path d="M100.453 27.6777C52.5156 6.63936 16.9994 66.7046 22.6779 97.7272C23.5044 102.241 24.2113 106.776 24.7049 111.337C37.9353 233.556 176.218 165.918 152.019 113.204C146.114 100.339 140.78 87.2251 136.451 73.7487C130.979 56.7132 120.919 36.662 100.45 27.6777H100.453Z" fill="url(#paint0_linear_614_85)"/>
<path d="M102.761 61.8256C103.982 65.7672 105.131 69.5496 105.935 73.0005C83.0957 68.1755 66.4072 59.2794 59.0972 54.854C59.6633 54.2523 60.1982 53.7516 60.6619 53.3505C61.2266 52.8583 61.6832 52.5155 61.9506 52.3206C65.3759 49.8242 66.5097 50.6791 71.1683 47.6307C74.1896 45.6549 76.3603 44.1926 77.4755 41.4857C78.511 38.9693 77.5338 38.0504 78.2834 34.5326C78.7998 32.113 79.8752 30.2994 82.0032 26.7702C85.6874 20.6636 86.5195 21.1003 88.7955 16.7432C90.9576 12.6053 90.5579 11.5356 92.676 8.98224C93.245 8.29661 95.2948 5.93673 98.8211 4.29235C102.387 2.62806 121.677 -7.40462 128.626 10.5526C129.784 13.5455 108.973 12.2568 105.776 15.6124C103.366 18.1387 102.253 18.096 100.438 20.1401C99.5536 21.1358 96.4555 24.9352 96.5579 33.7233C96.6603 42.4885 99.9036 52.5937 102.761 61.8256Z" fill="black"/>
<path d="M57.521 181.441C77.9068 181.441 94.4327 164.915 94.4327 144.529C94.4327 124.144 77.9068 107.618 57.521 107.618C37.1353 107.618 20.6094 124.144 20.6094 144.529C20.6094 164.915 37.1353 181.441 57.521 181.441Z" fill="#005EB2"/>
<path d="M128.626 10.5527C130.089 12.4132 131.982 14.436 131.865 16.8001C129.591 63.12 148.487 75.8639 148.487 75.8639L118.281 78.3732L108.55 67.9849L94.0861 53.5212L72.2568 55.7787L81.675 41.3022C85.1985 35.8868 87.9481 30.0064 89.8443 23.8314L91.2112 19.3819C91.8101 17.4331 92.7191 15.5953 93.9054 13.9381L96.9538 9.68068C99.197 6.5484 102.345 4.17714 105.976 2.88696C110.814 1.16719 116.144 1.49436 120.736 3.79307L121.21 4.0292C123.699 5.27529 125.881 7.05622 127.601 9.24398L128.629 10.5527H128.626Z" fill="black"/>
<path d="M114.219 52.2054H114.211L114.219 52.2132V52.2054Z" stroke="#754525" stroke-width="0.274537" stroke-miterlimit="10"/>
<path d="M84.8808 50.2338L86.3275 51.4173C86.3275 51.4173 104.605 64.3035 110.916 59.0446C112.966 57.339 112.866 54.6065 111.8 51.699C109.356 50.7971 108.154 49.0503 108.154 49.0503L109.253 46.7089L109.407 46.3761L109.896 45.3348L112.625 36.9522L104.867 28.0106L101.868 29.4572L84.8794 50.2338H84.8808Z" fill="#753828"/>
<path d="M80.6735 99.2807L72.2611 152.825L113.961 147.72C126.067 146.238 136.429 138.053 140.292 126.484C148.043 103.271 123.146 88.8924 123.146 88.8924C123.146 88.8924 138.399 81.0034 126.302 70.3263C114.204 59.6464 114.863 52.9949 114.863 52.9949L114.215 52.2097L114.211 52.2055C113.305 52.1472 112.501 51.9565 111.8 51.6977C112.867 54.6052 112.965 57.3377 110.917 59.0433C105.715 63.379 92.3904 55.3904 87.8613 52.443C86.894 51.8143 85.8186 51.0006 85.8186 51.0006C85.8186 51.0006 75.2084 53.214 72.2611 55.7744L72.2568 55.7787C64.7035 62.3391 64.6494 70.3263 64.6494 70.3263C72.84 71.6193 81.8556 78.2424 81.8556 78.2424L80.6721 99.2807H80.6735Z" fill="#005EB2"/>
<path d="M131.694 92.5752H124.593L124.271 92.7231C118.024 95.5951 110.619 93.1114 107.368 87.0517L117.493 80.8711L118.283 78.3732L124.331 77.3206L127.224 81.1342C127.224 81.1342 134.589 81.1342 131.695 92.5737L131.694 92.5752Z" fill="#874A35"/>
<path d="M82.3818 74.6918L81.0675 107.171L109.733 131.629L114.214 127.948L124.46 126.633L126.037 128.737C126.037 128.737 132.501 123.746 136.163 125.319L132.365 134.655L121.639 141.005L104.867 139.258L64.4985 112.433L65.288 70.3277L82.3818 74.6933V74.6918Z" fill="#874A35"/>
<path d="M72.2607 55.7744C75.2081 53.2139 80.2123 51.8853 85.8183 51.0006L86.3261 51.4159C86.3261 51.4159 96.5821 45.3676 103.837 29.709C104.103 29.1358 102.511 27.554 102.511 27.554L98.7528 24.2411L72.2607 55.7744Z" fill="black"/>
<mask id="mask0_614_85" style="mask-type:luminance" maskUnits="userSpaceOnUse" x="20" y="107" width="75" height="75">
<path d="M57.521 181.441C77.9068 181.441 94.4327 164.915 94.4327 144.529C94.4327 124.144 77.9068 107.618 57.521 107.618C37.1353 107.618 20.6094 124.144 20.6094 144.529C20.6094 164.915 37.1353 181.441 57.521 181.441Z" fill="white"/>
</mask>
<g mask="url(#mask0_614_85)">
<path d="M137.492 148.73C129.389 175.066 135.467 187.221 135.467 187.221H22.0205C24.0461 134.549 68.6149 120.369 68.6149 120.369C60.5111 116.318 54.4343 102.137 72.6661 87.955C80.4855 81.8782 86.0573 76.1642 89.8851 71.6478C94.9904 65.591 96.9761 61.6194 96.9761 61.6194V49.4644C84.7401 49.4644 79.1697 42.8001 76.6775 36.1757H76.6576C76.2323 35.0406 75.9079 33.9069 75.6249 32.813C75.5438 32.4887 75.4826 32.1444 75.4015 31.8201V31.8002C75.3617 31.6181 75.3205 31.436 75.3005 31.2525C75.1185 30.3009 74.9762 29.3891 74.8752 28.5385C74.5111 25.3777 74.6931 23.1288 74.6931 23.1288L73.0516 22.5811C70.7017 21.7917 69.6078 19.1373 70.7017 16.9297L76.2934 5.74764C77.6106 3.11465 78.117 0.0961628 77.4286 -2.78149C75.8283 -9.50693 78.7458 -15.3618 78.7458 -15.3618C90.9008 -35.6206 143.572 -35.6206 143.572 2.86998C143.572 11.136 141.93 17.5982 139.521 22.6224C137.292 27.3222 134.396 30.766 131.6 33.2582C126.313 37.958 121.289 39.335 121.289 39.335L123.315 53.5156C131.418 55.5412 139.521 59.5924 143.573 65.6706C157.046 85.8882 143.534 129.12 137.497 148.73H137.492Z" fill="#FFCDAB"/>
<path d="M155.726 158.86C154.126 162.08 150.864 163.702 146.711 164.268C139.6 165.301 129.957 163.275 121.773 160.925C116.648 159.467 112.11 157.887 109.132 156.833C91.0009 150.471 60.5117 134.548 60.5117 134.548L68.6155 120.368C91.3253 125.615 121.571 133.86 129.472 136.028C130.728 136.392 131.416 136.575 131.416 136.575C131.416 136.575 132.652 132.138 132.125 124.278C131.699 117.715 130.018 108.78 125.338 98.0846C111.157 65.6707 133.442 53.5157 143.57 65.6707C157.588 82.5057 161.802 146.703 155.725 158.858L155.726 158.86Z" fill="#FFCDAB"/>
<path d="M133.34 171.014C133.198 174.256 133.32 177.012 133.583 179.259C134.171 184.647 135.467 187.221 135.467 187.221H22.0205C22.7502 168.137 29.0703 154.098 36.8498 143.969C50.4841 126.141 68.6149 120.367 68.6149 120.367C60.5111 116.316 54.4343 102.136 72.6661 87.9536C82.0459 80.6606 88.2251 73.8939 91.9918 69.0533C93.9776 69.3975 96.4484 69.6009 99.2236 69.4388C103.965 69.1344 109.575 67.6564 115.208 63.645C120.131 60.1202 124.081 57.1017 127.14 54.6294C128.517 55.0747 129.875 55.6024 131.191 56.2098C136.316 58.4388 140.854 61.5981 143.569 65.6706C146.851 70.6137 148.532 76.9138 149.1 83.9238C150.882 105.601 142.05 133.901 137.492 148.73C134.697 157.825 133.582 165.221 133.339 171.014H133.34Z" fill="#2DD38F"/>
<path d="M135.467 187.221H22.0205C22.7502 168.137 29.0703 154.099 36.8498 143.969C50.4841 126.141 68.6149 120.368 68.6149 120.368C60.5111 116.316 54.4343 102.136 72.6661 87.9537C82.0459 80.6607 88.2251 73.894 91.9918 69.0534C93.9776 69.3976 96.4484 69.601 99.2236 69.4389C95.3545 75.0903 89.0743 83.7005 82.7941 89.9808C72.6647 100.11 64.5623 108.213 74.6903 122.395C74.6903 122.395 74.6903 138.601 60.5097 142.653C46.3291 146.705 44.3035 171.015 44.3035 171.015H133.339C132.852 182.015 135.465 187.221 135.465 187.221H135.467Z" fill="#2DD38F"/>
<path d="M148.332 116.12C147.189 128.638 134.272 132.079 129.076 132.963C128.148 133.134 127.477 133.207 127.148 133.235C130.845 118.589 133.615 100.477 126.919 90.4273C124.064 86.1456 118.354 83.2907 112.645 81.8626C104.08 77.581 109.79 64.7332 109.79 64.7332C121.209 64.7332 121.209 51.8869 114.071 51.8869C108.362 51.8869 108.362 57.5967 108.362 57.5967C108.362 53.315 105.507 51.8869 105.507 51.8869C105.507 46.1771 101.225 39.0406 92.6603 37.6124C84.0956 36.1857 81.2407 33.3308 81.2407 33.3308C81.2407 33.3308 81.5124 31.9467 82.5821 30.0335C84.9662 25.823 91.2179 19.0563 106.933 19.0563C107.39 19.0563 107.847 19.0705 108.303 19.0847H108.332C108.874 19.0989 109.403 19.1274 109.916 19.1701C129.144 20.5541 136.908 35.4417 136.908 49.0306C136.908 63.305 129.771 76.1514 136.908 88.9977C144.044 101.844 149.24 106.069 148.327 116.119L148.332 116.12Z" fill="#71332D"/>
<path d="M135.467 175.066C132.834 176.949 127.951 178.205 121.732 178.996C97.6038 182.076 53.5016 178.165 44.082 177.273C43.0279 177.172 41.9753 177.253 40.9824 177.578C39.0777 178.185 35.0066 179.117 28.0977 179.117C17.9683 179.117 17.9683 173.04 17.9683 166.962C17.9683 160.884 24.0451 154.807 26.0721 152.781C28.0977 150.756 32.5955 151.911 35.7349 152.356C37.3153 152.599 38.7335 153.45 39.6851 154.726L42.9269 159.061C43.4746 159.791 44.2228 160.298 45.0749 160.52C45.5613 160.662 46.0677 160.722 46.594 160.662C67.4403 158.433 79.17 152.72 90.8983 150.756C103.053 148.73 115.208 150.756 115.208 150.756C111.238 111.151 112.898 77.5426 122.622 66.4004C122.846 66.1372 123.089 65.894 123.311 65.6706C123.615 65.3662 123.918 65.0832 124.223 64.82C124.506 64.5768 124.79 64.3335 125.073 64.1315C125.316 63.9082 125.58 63.7261 125.843 63.5441C126.066 63.3819 126.268 63.261 126.491 63.1187C126.693 62.9978 126.917 62.8556 127.119 62.7546C128.274 62.1059 129.407 61.6806 130.543 61.4175C136.134 60.1002 141.158 63.0377 143.568 65.6721C143.629 65.7531 143.71 65.8342 143.77 65.9153C145.513 68.022 146.85 72.2353 147.781 77.7872C152.36 105.379 147.194 166.7 135.464 175.067L135.467 175.066Z" fill="#FFCDAB"/>
<g opacity="0.7">
<path d="M39.6861 154.727L40.8213 156.266C37.7829 155.76 29.9223 155.01 28.0987 156.834C26.0731 158.86 22.0219 164.938 22.0219 171.015C22.0219 173.851 22.0219 177.091 25.1015 178.895C17.9707 177.781 17.9707 172.372 17.9707 166.963C17.9707 160.887 24.0475 154.808 26.0745 152.783C28.1001 150.757 32.598 151.912 35.7374 152.357C37.3177 152.601 38.7359 153.451 39.6876 154.727H39.6861Z" fill="#EAA07F"/>
</g>
<g opacity="0.7">
<path d="M143.772 65.9139C141.646 65.1642 135.467 63.645 128.7 70.4516C118.267 80.9451 117.314 117.228 121.286 156.832C121.286 156.832 105.08 152.781 92.9247 154.807C81.195 156.771 68.6147 162.911 52.6716 164.713C48.4583 165.18 46.1283 162.403 45.0742 160.52C45.5607 160.662 46.0671 160.722 46.5934 160.662C67.4397 158.433 79.1694 152.72 90.8977 150.756C103.053 148.73 115.208 150.756 115.208 150.756C111.238 111.151 112.898 77.5426 122.622 66.4004C122.845 66.1372 123.088 65.894 123.31 65.6706C123.614 65.3662 123.917 65.0832 124.222 64.82C124.505 64.5768 124.789 64.3335 125.073 64.1315C125.316 63.9082 125.579 63.7261 125.842 63.5441C126.065 63.3819 126.267 63.261 126.491 63.1187C126.693 62.9978 126.916 62.8556 127.118 62.7546C128.273 62.1059 129.407 61.6806 130.542 61.4175C136.134 60.1002 141.158 63.0377 143.567 65.6721C143.629 65.7531 143.71 65.8342 143.769 65.9153L143.772 65.9139Z" fill="#EAA07F"/>
</g>
<path d="M68.6153 120.369C68.6153 120.369 56.4603 112.265 46.3309 120.369C35.1445 129.318 42.2797 140.628 54.4347 136.575C62.3592 133.934 72.6665 130.498 68.6153 120.369Z" fill="#FFCDAB"/>
<g opacity="0.7">
<path d="M51.5983 137.264C41.247 138.803 36.0607 128.594 46.3309 120.367C50.4034 117.106 54.8188 116.478 58.6068 116.882C55.9127 117.207 53.0763 118.22 50.3821 120.367C41.55 127.437 44.1432 135.966 51.5969 137.264H51.5983Z" fill="#EAA07F"/>
</g>
</g>
<path d="M49.0423 67.4628L27.6782 93.915L22.0239 86.9165C22.8746 74.0189 28.3283 62.7587 29.6541 60.019C31.94 55.2893 34.5488 51.1214 37.2813 47.4728C38.1875 47.2495 39.1263 47.1371 40.0936 47.1371C40.2358 47.1371 40.3781 47.1414 40.5203 47.1485C49.2059 47.4913 54.0096 59.1285 49.0423 67.4642V67.4628Z" fill="url(#paint1_linear_614_85)"/>
<path d="M37.2792 47.4715C34.5466 51.1201 31.9393 55.2879 29.6519 60.0177C28.3262 62.7573 22.8724 74.0176 22.0218 86.9151L6.30777 67.4614C1.3405 59.1258 6.14276 47.4885 14.8298 47.1457C14.972 47.1386 15.1143 47.1343 15.2565 47.1343C22.1157 47.1343 27.6747 52.8726 27.6747 60.8868C27.6747 54.002 31.7771 48.7972 37.2778 47.4715H37.2792Z" fill="#2FD38D"/>
<path d="M15.4348 39.086C15.3736 39.0831 15.3139 39.0817 15.2527 39.0817C14.8402 39.0817 14.4405 39.1301 14.0536 39.2254C11.7093 39.7901 9.96113 42.0091 9.96113 44.9437C9.96113 41.5283 7.59129 39.0831 4.66812 39.0831C4.60695 39.0831 4.54721 39.0845 4.48604 39.0874C0.784774 39.2339 -1.26358 44.1941 0.854475 47.746L7.55146 56.0375L9.96113 59.0205L19.0664 47.746C21.183 44.1941 19.1361 39.2339 15.4348 39.0874V39.086Z" fill="url(#paint2_linear_614_85)"/>
<path d="M129.588 18.4118C129.588 18.4118 129.851 26.3008 124.854 29.4573L126.169 39.4501L121.829 40.3705L114.211 49.049C114.211 49.049 100.789 39.7133 104.997 30.9025C104.997 30.9025 99.9995 26.958 102.63 21.1714C102.63 21.1714 106.837 16.1742 109.994 21.0405C109.994 21.0405 119.856 23.2752 129.587 18.4104L129.588 18.4118Z" fill="#874A35"/>
<path d="M96.0463 38.2282C99.2618 38.2282 101.868 35.6216 101.868 32.4061C101.868 29.1906 99.2618 26.5839 96.0463 26.5839C92.8308 26.5839 90.2241 29.1906 90.2241 32.4061C90.2241 35.6216 92.8308 38.2282 96.0463 38.2282Z" fill="black"/>
<path d="M148.487 75.864C142.979 76.2879 137.634 76.3875 132.473 76.221C132.197 73.1442 130.819 70.4529 129.416 67.1926C128.654 65.4202 127.885 63.4785 127.284 61.2154C125.482 54.4373 128.015 55.4473 128.416 36.7958C128.661 25.3464 127.918 15.0989 130.517 14.4801C131.156 14.3279 132.018 14.7504 132.459 14.9652C134.538 15.9823 135.309 18.2056 135.531 19.0079C136.018 20.766 135.674 22.217 135.207 24.1828C134.595 26.7632 134.012 26.8343 133.752 28.7105C133.685 29.1942 133.318 31.8343 134.561 34.2084C135.88 36.7304 137.661 36.3663 139.735 38.5754C142.952 42.0007 142.712 47.1785 142.646 48.6009C142.459 52.645 140.885 52.874 140.382 57.8185C140.201 59.5995 139.928 62.571 141.029 66.066C141.277 66.8526 141.783 68.2637 142.725 69.8711C143.528 71.2438 144.652 72.7602 146.204 74.1513C147.008 74.8725 147.774 75.423 148.487 75.864Z" fill="black"/>
<defs>
<linearGradient id="paint0_linear_614_85" x1="22.0819" y1="101.673" x2="154.855" y2="101.673" gradientUnits="userSpaceOnUse">
<stop offset="0.02" stop-color="#005EB2"/>
<stop offset="1" stop-color="#0BE5A1"/>
</linearGradient>
<linearGradient id="paint1_linear_614_85" x1="22.0239" y1="70.5253" x2="51.0452" y2="70.5253" gradientUnits="userSpaceOnUse">
<stop offset="0.02" stop-color="#005EB2"/>
<stop offset="1" stop-color="#0BFFA1"/>
</linearGradient>
<linearGradient id="paint2_linear_614_85" x1="-0.000429439" y1="49.0504" x2="19.9198" y2="49.0504" gradientUnits="userSpaceOnUse">
<stop offset="0.02" stop-color="#005EB2"/>
<stop offset="1" stop-color="#0BFFA1"/>
</linearGradient>
</defs>
</svg>
