<svg width="255" height="169" viewBox="0 0 255 169" fill="none" xmlns="http://www.w3.org/2000/svg">
<path d="M126.593 35.0809C131.1 37.7822 135.6 40.68 140.057 43.7663C147.382 46.7613 154.854 47.7746 162.1 46.1534C170.591 43.5596 178.109 42.5666 184.663 42.8929C254.387 46.275 214.907 198.24 73.8101 153.936C47.059 145.536 24.2493 127.369 11.0632 102.624C-4.40664 73.5935 -5.46445 39.0973 29.6174 18.2168C52.4554 4.62141 89.9467 13.1791 126.593 35.0809Z" fill="url(#paint0_linear_611_3821)"/>
<path d="M137.011 111.273C140.127 111.273 140.133 106.43 137.011 106.43C133.888 106.43 133.888 111.273 137.011 111.273Z" fill="#007AFF"/>
<path d="M132.05 125.886L123.616 153.867L122.819 124.698L107.846 136.658L115.419 119.055L97.9346 125.543L111.305 110.805L111.83 110.469L111.668 110.404L115.615 106.053C120.007 101.214 122.116 95.1467 121.984 89.2477C121.916 86.279 121.283 83.3548 120.084 80.6495L127.247 90.2468L135.282 55.8337L136.476 91.4343L159.439 60.8978L143.876 97.0759L177.667 91.9551L147.463 105.664L187.495 121.334L146.279 114.894L163.531 136.49L140.636 122.295L152.249 165.618L132.048 125.882L132.05 125.886Z" fill="#2DB58B"/>
<path d="M91.7803 120.899C91.7803 120.899 90.53 127.708 90.0862 130.952C95.4279 131.38 93.8776 131.434 100.401 131.675C100.401 138.551 97.9062 160.1 66.4821 160.1C38.8252 160.1 32.9141 137.706 32.9141 129.12C32.9141 129.12 38.9326 128.504 45.0829 128.976C48.2786 114.481 51.0224 98.6079 51.0224 98.6079C51.0224 98.6079 87.4437 108.645 91.7803 120.899Z" fill="#9B6150"/>
<path d="M44.0433 69.2468C44.0433 69.2468 29.1672 67.1798 27.5906 81.371C26.014 95.5642 42.4586 100.971 51.0203 98.6059C51.0203 98.6059 58.658 133.064 106.667 120.121C152.626 107.729 125.356 43.3204 117.236 35.8165C117.236 35.8165 100.358 16.4863 60.9317 26.6246C21.5052 36.7629 44.0413 69.2448 44.0413 69.2448L44.0433 69.2468Z" fill="#AA695B"/>
<path d="M63.9165 35.3747C63.9165 35.3747 70.2673 61.5604 62.9397 77.5856C61.4746 79.5391 49.0991 69.2467 49.0991 69.2467C49.0991 69.2467 43.725 68.2052 36.3973 70.9409C26.3016 65.208 11.6869 27.277 41.735 15.167C41.735 15.167 58.976 -4.42264 101.039 1.30207C137.943 6.32563 143.712 30.9429 142.735 34.4608C141.758 37.9787 107.398 40.3233 87.0423 34.5925C90.6291 37.8895 98.7652 40.5847 105.607 41.6283C112.446 42.6699 78.8007 48.5932 63.9165 35.3747Z" fill="black"/>
<path d="M115.899 99.4549C114.983 102.397 113.65 105.338 111.696 107.461C110.304 108.975 107.909 105.863 105.817 106.254C102.506 106.868 100.699 110.163 98.9012 108.503C95.2029 105.09 94.4247 98.5228 95.438 95.5236C95.5109 95.3088 95.592 95.1082 95.6811 94.9339C97.6508 91.106 104.405 93.2824 109.453 92.4597C109.51 92.4516 109.57 92.4394 109.627 92.4313C111.698 92.0807 113.607 92.8953 114.819 94.2997C115.974 95.6432 116.491 97.5298 115.897 99.4549H115.899Z" fill="#7A0000"/>
<path d="M95.856 103.52C96.4781 105.395 97.471 107.184 98.8997 108.503C100.699 110.165 102.503 106.868 105.818 106.252C107.909 105.865 110.305 108.973 111.697 107.459C112.611 106.467 113.389 105.295 114.051 104.029C109.391 97.8906 99.0821 99.7185 95.856 103.518V103.52Z" fill="#FF7F6F"/>
<path d="M114.821 94.2997C109.255 96.6686 98.5349 96.1802 95.4385 95.5236C95.5114 95.3088 95.5925 95.1082 95.6816 94.9339C97.6514 91.106 104.405 93.2824 109.453 92.4597C109.51 92.4516 109.571 92.4394 109.628 92.4313C111.699 92.0807 113.608 92.8953 114.819 94.2997H114.821Z" fill="white"/>
<path d="M225.172 141.842C217.866 145.366 209.055 142.288 205.531 134.983C202.007 127.677 205.085 118.866 212.393 115.342C216.042 113.583 221.329 112.817 226.191 113.342C231.853 113.956 235.873 116.163 237.511 119.559C239.148 122.956 238.374 127.477 235.326 132.29C232.71 136.421 228.819 140.081 225.169 141.84L225.172 141.842ZM213.106 116.822C206.615 119.953 203.882 127.779 207.011 134.269C210.141 140.76 217.967 143.494 224.458 140.365C227.796 138.756 231.516 135.242 233.94 131.414C236.631 127.161 237.395 123.102 236.031 120.275C234.669 117.45 231.018 115.519 226.012 114.976C221.508 114.487 216.442 115.213 213.104 116.822H213.106Z" fill="#005EB2"/>
<path d="M173.586 166.719C169.936 168.478 164.649 169.244 159.788 168.719C154.126 168.105 150.106 165.898 148.468 162.502C146.831 159.105 147.605 154.584 150.653 149.772C153.269 145.64 157.16 141.98 160.809 140.221C168.115 136.697 176.926 139.775 180.448 147.081C183.972 154.386 180.893 163.197 173.588 166.719H173.586ZM161.521 141.698C158.183 143.307 154.462 146.821 152.039 150.649C149.348 154.903 148.584 158.962 149.948 161.788C151.309 164.613 154.961 166.545 159.966 167.088C164.471 167.576 169.537 166.851 172.875 165.242C179.365 162.111 182.099 154.285 178.97 147.794C175.839 141.303 168.013 138.569 161.523 141.698H161.521Z" fill="#005EB2"/>
<path d="M225.323 144.993L203.661 158.799C203.198 159.132 202.684 159.387 202.139 159.553L177.153 168.713C174.678 169.471 171.446 167.116 170.323 164.786L161.016 145.484C159.92 143.21 160.601 140.478 162.635 138.985L186.596 128.764C187.1 128.393 187.668 128.115 188.27 127.945L210.933 115.154C213.381 114.463 215.971 115.628 217.078 117.92L226.409 137.271C227.514 139.562 227.39 143.51 225.323 144.993Z" fill="#0BFFA1"/>
<g opacity="0.5">
<mask id="mask0_611_3821" style="mask-type:luminance" maskUnits="userSpaceOnUse" x="169" y="114" width="58" height="28">
<path d="M217.076 117.918L226.359 137.169L202.909 141.254C202.909 141.254 181.388 137.704 169.846 135.905L186.594 128.759C187.101 128.389 187.666 128.111 188.27 127.941L210.934 115.15C213.382 114.459 215.972 115.626 217.076 117.916V117.918Z" fill="white"/>
</mask>
<g mask="url(#mask0_611_3821)">
<path d="M180.624 129.785L169.475 135.161L180.998 159.06L192.147 153.685L180.624 129.785Z" fill="white"/>
<path d="M213.823 113.779L180.625 129.785L192.148 153.684L225.346 137.679L213.823 113.779Z" fill="white"/>
<path d="M214.834 113.292L213.823 113.78L225.345 137.679L226.357 137.192L214.834 113.292Z" fill="white"/>
</g>
</g>
<path d="M191.293 136.361C188.94 137.495 186.535 138.519 184.091 139.423L161.936 147.626C161.381 147.832 160.763 147.547 160.556 146.991C160.349 146.436 160.633 145.818 161.19 145.611L183.345 137.408C188.105 135.645 192.72 133.42 197.062 130.794L217.276 118.566C217.783 118.26 218.443 118.423 218.749 118.929C219.055 119.436 218.893 120.096 218.387 120.402L198.173 132.63C195.944 133.98 193.644 135.224 191.291 136.359L191.293 136.361Z" fill="url(#paint1_linear_611_3821)"/>
<path d="M194.463 142.932C193.389 143.449 192.292 143.917 191.178 144.329L165.018 154.013C164.463 154.22 163.845 153.934 163.638 153.379C163.432 152.823 163.715 152.205 164.273 151.999L190.432 142.314C192.533 141.536 194.572 140.553 196.491 139.392L220.359 124.954C220.865 124.648 221.526 124.81 221.832 125.317C222.138 125.823 221.976 126.484 221.469 126.79L197.602 141.228C196.584 141.844 195.537 142.412 194.463 142.928V142.932Z" fill="url(#paint2_linear_611_3821)"/>
<path d="M197.464 149.154C195.226 150.232 192.939 151.204 190.616 152.066L168.098 160.402C167.543 160.609 166.925 160.323 166.718 159.768C166.512 159.213 166.795 158.595 167.353 158.388L189.871 150.051C194.39 148.377 198.771 146.266 202.895 143.771L223.439 131.343C223.945 131.037 224.606 131.199 224.912 131.706C225.218 132.213 225.056 132.873 224.549 133.179L204.005 145.607C201.885 146.89 199.699 148.074 197.464 149.152V149.154Z" fill="url(#paint3_linear_611_3821)"/>
<path d="M200.511 155.474C197.8 156.781 195.026 157.963 192.209 159.004L171.18 166.79C170.625 166.996 170.007 166.711 169.8 166.155C169.594 165.6 169.877 164.984 170.435 164.775L191.463 156.99C196.969 154.951 202.309 152.376 207.332 149.338L226.519 137.731C227.025 137.425 227.686 137.587 227.992 138.093C228.298 138.6 228.136 139.26 227.629 139.566L208.443 151.174C205.873 152.728 203.223 154.165 200.509 155.472L200.511 155.474Z" fill="url(#paint4_linear_611_3821)"/>
<g opacity="0.5">
<mask id="mask1_611_3821" style="mask-type:luminance" maskUnits="userSpaceOnUse" x="188" y="116" width="27" height="15">
<path d="M204.546 120.038L210.291 116.532C210.291 116.532 213.248 115.249 214.607 116.882L188.63 130.839L204.546 120.038Z" fill="white"/>
</mask>
<g mask="url(#mask1_611_3821)">
<path d="M193.642 124.578L187.118 127.724L188.628 130.856L195.152 127.711L193.642 124.578Z" fill="white"/>
<path d="M213.063 115.214L193.641 124.578L195.151 127.71L214.573 118.347L213.063 115.214Z" fill="white"/>
<path d="M213.656 114.93L213.064 115.215L214.575 118.348L215.166 118.063L213.656 114.93Z" fill="white"/>
</g>
</g>
<path d="M199.628 72.3128C197.705 69.2752 197.215 66.4199 198.25 64.2759C199.284 62.132 201.823 60.7378 205.398 60.3507C208.468 60.0184 211.805 60.5027 214.109 61.6132C218.722 63.8382 220.665 69.4008 218.442 74.013C216.217 78.6252 210.654 80.5686 206.042 78.3455C203.738 77.2351 201.282 74.9229 199.63 72.3149L199.628 72.3128ZM205.509 61.3802C202.35 61.7226 200.044 62.9425 199.183 64.7258C198.321 66.5091 198.804 69.0725 200.504 71.7596C202.034 74.1772 204.385 76.3941 206.49 77.4114C210.587 79.3871 215.53 77.6606 217.506 73.5631C219.482 69.4657 217.755 64.5232 213.658 62.5474C211.55 61.5321 208.352 61.0742 205.507 61.3822L205.509 61.3802Z" fill="#005EB2"/>
<path d="M234.28 81.6507C236.505 77.0385 242.067 75.0952 246.68 77.3182C248.984 78.4287 251.44 80.7408 253.091 83.3489C255.014 86.3865 255.505 89.2418 254.469 91.3858C253.436 93.5297 250.897 94.9239 247.322 95.311C244.252 95.6433 240.914 95.159 238.61 94.0485C233.998 91.8235 232.055 86.2609 234.278 81.6487L234.28 81.6507ZM235.214 82.1006C233.238 86.1981 234.965 91.1406 239.062 93.1163C241.17 94.1316 244.367 94.5896 247.212 94.2815C250.372 93.9391 252.678 92.7192 253.539 90.9359C254.4 89.1526 253.918 86.5892 252.218 83.9021C250.688 81.4845 248.337 79.2676 246.232 78.2503C242.134 76.2746 237.192 78.0011 235.216 82.0986L235.214 82.1006Z" fill="#005EB2"/>
<path d="M205.946 80.3335L219.623 89.0492C219.915 89.26 220.239 89.4201 220.583 89.5255L236.359 95.3089C237.922 95.7872 239.962 94.2998 240.672 92.8286L246.548 80.6415C247.241 79.2068 246.812 77.4823 245.527 76.538L230.398 70.0837C230.079 69.8507 229.721 69.6744 229.34 69.567L215.031 61.4896C213.485 61.0519 211.849 61.7895 211.152 63.2364L205.262 75.4538C204.564 76.9007 204.643 79.3932 205.946 80.3315V80.3335Z" fill="#0BFFA1"/>
<g opacity="0.5">
<mask id="mask2_611_3821" style="mask-type:luminance" maskUnits="userSpaceOnUse" x="205" y="61" width="36" height="17">
<path d="M211.153 63.2384L205.29 75.3951L220.097 77.9747C220.097 77.9747 233.687 75.7335 240.974 74.5966L230.4 70.0858C230.08 69.8507 229.723 69.6764 229.342 69.569L215.033 61.4916C213.489 61.0559 211.852 61.7915 211.155 63.2384H211.153Z" fill="white"/>
</mask>
<g mask="url(#mask2_611_3821)">
<path d="M234.151 70.708L226.875 85.7983L233.916 89.1927L241.191 74.1024L234.151 70.708Z" fill="white"/>
<path d="M213.191 60.6013L205.916 75.6916L226.877 85.7973L234.152 70.707L213.191 60.6013Z" fill="white"/>
<path d="M212.555 60.2928L205.28 75.3831L205.919 75.6911L213.194 60.6008L212.555 60.2928Z" fill="white"/>
</g>
</g>
<path d="M227.431 74.8824C228.916 75.5997 230.436 76.2442 231.978 76.8156L245.967 81.9952C246.317 82.1249 246.708 81.9466 246.838 81.594C246.968 81.2434 246.789 80.8543 246.437 80.7226L232.448 75.543C229.443 74.4305 226.529 73.0262 223.787 71.3665L211.025 63.6458C210.704 63.4532 210.287 63.5546 210.094 63.8747C209.9 64.1949 210.003 64.6124 210.323 64.8049L223.086 72.5256C224.494 73.3767 225.945 74.163 227.431 74.8804V74.8824Z" fill="url(#paint5_linear_611_3821)"/>
<path d="M225.431 79.0325C226.107 79.3588 226.8 79.6546 227.506 79.914L244.023 86.0298C244.374 86.1595 244.765 85.9812 244.895 85.6286C245.024 85.278 244.846 84.8889 244.493 84.7572L227.976 78.6414C226.648 78.151 225.362 77.5289 224.15 76.7973L209.081 67.6804C208.761 67.4878 208.344 67.5892 208.151 67.9093C207.957 68.2295 208.06 68.647 208.38 68.8395L223.449 77.9565C224.091 78.3455 224.754 78.7042 225.431 79.0305V79.0325Z" fill="url(#paint6_linear_611_3821)"/>
<path d="M223.536 82.9619C224.948 83.6427 226.393 84.2568 227.858 84.7998L242.076 90.0645C242.426 90.1942 242.818 90.0159 242.947 89.6633C243.077 89.3127 242.899 88.9237 242.546 88.7919L228.329 83.5272C225.475 82.4715 222.709 81.136 220.105 79.5615L207.134 71.7151C206.814 71.5226 206.396 71.6239 206.204 71.9441C206.009 72.2643 206.113 72.6817 206.433 72.8742L219.404 80.7206C220.742 81.5292 222.122 82.2769 223.534 82.9598L223.536 82.9619Z" fill="url(#paint7_linear_611_3821)"/>
<path d="M221.611 86.9519C223.323 87.7787 225.074 88.5224 226.853 89.181L240.131 94.0972C240.481 94.2269 240.872 94.0486 241.002 93.696C241.132 93.3454 240.953 92.9563 240.601 92.8246L227.323 87.9084C223.846 86.6216 220.476 84.9964 217.303 83.0774L205.189 75.7498C204.868 75.5572 204.451 75.6586 204.258 75.9787C204.064 76.2989 204.167 76.7164 204.487 76.9089L216.602 84.2365C218.225 85.2173 219.899 86.1252 221.611 86.9499V86.9519Z" fill="url(#paint8_linear_611_3821)"/>
<g opacity="0.5">
<mask id="mask3_611_3821" style="mask-type:luminance" maskUnits="userSpaceOnUse" x="212" y="62" width="18" height="10">
<path d="M219.064 64.5779L215.437 62.365C215.437 62.365 213.57 61.5544 212.711 62.5859L229.113 71.3989L219.064 64.5799V64.5779Z" fill="white"/>
</mask>
<g mask="url(#mask3_611_3821)">
<path d="M225.936 67.4202L224.982 69.3989L229.1 71.3843L230.054 69.4056L225.936 67.4202Z" fill="white"/>
<path d="M213.673 61.5083L212.719 63.487L224.982 69.3993L225.936 67.4206L213.673 61.5083Z" fill="white"/>
<path d="M213.299 61.3277L212.345 63.3065L212.719 63.4869L213.673 61.5082L213.299 61.3277Z" fill="white"/>
</g>
</g>
<path d="M136.48 93.0595C135.841 93.0595 135.236 92.6785 134.978 92.0503C134.64 91.2215 135.037 90.2751 135.866 89.9367L172.698 74.8965C173.527 74.558 174.474 74.9552 174.812 75.784C175.15 76.6129 174.753 77.5592 173.924 77.8976L137.092 92.9379C136.891 93.019 136.684 93.0595 136.48 93.0595Z" fill="white"/>
<path d="M166.654 112.353C166.542 112.353 166.431 112.341 166.319 112.319L136.679 106.086C135.803 105.901 135.242 105.042 135.426 104.164C135.611 103.289 136.47 102.728 137.345 102.912L166.986 109.145C167.861 109.33 168.423 110.189 168.238 111.067C168.078 111.831 167.403 112.355 166.654 112.355V112.353Z" fill="white"/>
<path d="M136.48 142.022C135.87 142.022 135.284 141.676 135.011 141.086L123.648 116.739C123.269 115.928 123.62 114.963 124.433 114.584C125.243 114.205 126.208 114.556 126.587 115.369L137.949 139.716C138.328 140.527 137.977 141.492 137.165 141.87C136.944 141.974 136.709 142.022 136.48 142.022Z" fill="white"/>
<defs>
<linearGradient id="paint0_linear_611_3821" x1="0.801323" y1="86.8525" x2="218.304" y2="86.8525" gradientUnits="userSpaceOnUse">
<stop stop-color="#0BE5A1"/>
<stop offset="0.98" stop-color="#005EB2"/>
</linearGradient>
<linearGradient id="paint1_linear_611_3821" x1="161.142" y1="148.288" x2="219.346" y2="120.226" gradientUnits="userSpaceOnUse">
<stop offset="0.02" stop-color="#005EB2"/>
<stop offset="1" stop-color="#0BFFA1"/>
</linearGradient>
<linearGradient id="paint2_linear_611_3821" x1="164.267" y1="154.768" x2="222.47" y2="126.706" gradientUnits="userSpaceOnUse">
<stop offset="0.02" stop-color="#005EB2"/>
<stop offset="1" stop-color="#0BFFA1"/>
</linearGradient>
<linearGradient id="paint3_linear_611_3821" x1="167.306" y1="161.073" x2="225.51" y2="133.011" gradientUnits="userSpaceOnUse">
<stop offset="0.02" stop-color="#005EB2"/>
<stop offset="1" stop-color="#0BFFA1"/>
</linearGradient>
<linearGradient id="paint4_linear_611_3821" x1="170.37" y1="167.429" x2="228.574" y2="139.367" gradientUnits="userSpaceOnUse">
<stop offset="0.02" stop-color="#005EB2"/>
<stop offset="1" stop-color="#0BFFA1"/>
</linearGradient>
<linearGradient id="paint5_linear_611_3821" x1="246.47" y1="82.4092" x2="209.72" y2="64.691" gradientUnits="userSpaceOnUse">
<stop offset="0.02" stop-color="#005EB2"/>
<stop offset="1" stop-color="#0BFFA1"/>
</linearGradient>
<linearGradient id="paint6_linear_611_3821" x1="244.497" y1="86.5017" x2="207.747" y2="68.7834" gradientUnits="userSpaceOnUse">
<stop offset="0.02" stop-color="#005EB2"/>
<stop offset="1" stop-color="#0BFFA1"/>
</linearGradient>
<linearGradient id="paint7_linear_611_3821" x1="242.578" y1="90.4829" x2="205.828" y2="72.7646" gradientUnits="userSpaceOnUse">
<stop offset="0.02" stop-color="#005EB2"/>
<stop offset="1" stop-color="#0BFFA1"/>
</linearGradient>
<linearGradient id="paint8_linear_611_3821" x1="240.644" y1="94.4951" x2="203.894" y2="76.7768" gradientUnits="userSpaceOnUse">
<stop offset="0.02" stop-color="#005EB2"/>
<stop offset="1" stop-color="#0BFFA1"/>
</linearGradient>
</defs>
</svg>
