<svg width="224" height="175" viewBox="0 0 224 175" fill="none" xmlns="http://www.w3.org/2000/svg">
<g clip-path="url(#clip0_611_113)">
<path d="M223.993 70.5374C223.409 81.874 220.045 111.664 203.872 124.442C200.722 126.904 196.563 128.572 191.709 130.012C182.713 132.681 171.322 134.559 159.519 139.246C155.685 140.546 151.914 141.954 148.193 143.437C147.816 143.588 147.44 143.74 147.066 143.89C138.939 147.17 131.027 150.791 123.128 154.398C118.718 156.415 114.311 158.426 109.872 160.368C106.144 162.004 102.393 163.589 98.5962 165.094C92.9765 167.321 87.262 169.366 81.3803 171.112C80.884 171.26 80.3859 171.405 79.8879 171.55C6.04727 190.827 -26.0598 125.936 24.5712 61.143C30.6821 53.3189 38.001 45.4965 46.5986 37.8257C46.6365 37.7913 46.6727 37.7586 46.7106 37.7258C48.7373 35.9196 50.8362 34.1203 53.0059 32.333C54.7068 30.9297 56.4491 29.5333 58.2396 28.1472C68.5657 20.1389 80.3773 12.3733 93.7589 5.02794C132.964 -10.4515 161.845 12.8279 192.57 34.0635C206.235 43.7695 224.417 51.6211 223.993 70.5374Z" fill="url(#paint0_linear_611_113)"/>
<path d="M85.3679 114.761L98.9649 113.761L81.8575 99.6864L69.6358 92.83L60.8813 93.5067L85.3679 114.761Z" fill="#964C41"/>
<path d="M128.546 111.877C128.573 112.524 127.951 113.036 127.248 112.931L112.293 110.696L91.7097 102.204L103.325 111.304C103.325 111.304 108.064 112.139 112.322 114.295C114.85 115.576 115.398 117.098 115.426 118.122C115.443 118.751 114.809 119.231 114.128 119.129L99.1699 116.893L94.8065 114.26H94.8048L94.5187 114.088L86.7414 109.396L86.7621 109.339L60.8813 93.5067L24.571 61.1428C30.6819 53.3187 38.0008 45.4964 46.5985 37.8255L46.7105 37.7257L69.41 70.0189L79.2105 68.2282L83.4223 67.4585L99.9747 68.3453L118.585 73.9051C118.585 73.9051 122.693 74.8625 114.859 77.8241C109.808 79.7336 105.024 77.6622 100.438 77.1336L97.214 77.8585C93.1607 78.7711 92.5214 83.7782 96.2351 85.5156L115.703 94.619C115.703 94.619 120.484 95.2268 124.859 97.1776C127.77 98.4742 128.216 100.193 128.189 101.198C128.177 101.653 127.734 101.997 127.238 101.947L111.876 100.397L97.1312 95.1424L116.446 105.107C116.446 105.107 121.185 105.942 125.444 108.098C127.932 109.358 128.502 110.853 128.546 111.877Z" fill="#964C41"/>
<path d="M46.7105 37.7257L69.41 70.0189L79.2105 68.2282L67.0284 72.7928L46.5984 37.8255L46.7105 37.7257Z" fill="#5B2724"/>
<path d="M136.214 147.543V97.677C136.214 87.1875 144.726 78.6833 155.224 78.6833H174.675C185.174 78.6833 193.685 87.1875 193.685 97.677V147.543C193.685 157.082 185.946 164.815 176.399 164.815H153.501C143.954 164.815 136.214 157.082 136.214 147.543Z" fill="url(#paint1_linear_611_113)"/>
<path d="M185.072 164.815H144.826C140.069 164.815 136.213 160.964 136.213 156.209V97.8233H193.683V156.209C193.683 160.962 189.828 164.815 185.07 164.815H185.072Z" fill="#007AFF"/>
<path d="M166.126 144.523C176.189 144.523 184.347 136.373 184.347 126.318C184.347 116.264 176.189 108.113 166.126 108.113C156.063 108.113 147.905 116.264 147.905 126.318C147.905 136.373 156.063 144.523 166.126 144.523Z" fill="white"/>
<path d="M151.826 69.3526H177.338C178.227 69.3526 178.949 70.074 178.949 70.9625V78.3234C178.949 79.7112 177.822 80.8373 176.433 80.8373H152.731C151.342 80.8373 150.215 79.7112 150.215 78.3234V70.9625C150.215 70.074 150.937 69.3526 151.826 69.3526Z" fill="#42DB9C"/>
<path d="M178.951 70.9625C178.951 71.6616 178.384 72.2281 177.684 72.2281H151.483C150.783 72.2281 150.216 71.6616 150.216 70.9625C150.216 70.074 150.938 69.3526 151.828 69.3526H177.34C178.225 69.3526 178.951 70.0775 178.951 70.9625Z" fill="#8AEDBF"/>
<path d="M168.104 54.0402H161.059C160.36 54.0402 159.793 54.6068 159.793 55.3058V68.087C159.793 68.786 160.36 69.3526 161.059 69.3526H168.104C168.804 69.3526 169.371 68.786 169.371 68.087V55.3058C169.371 54.6068 168.804 54.0402 168.104 54.0402Z" fill="#8AEDBF"/>
<path d="M178.951 54.0402H148.3L135.127 58.5566C133.984 58.6995 132.973 57.8093 132.973 56.6574V51.8001C132.973 50.8789 133.629 50.0886 134.536 49.9181L148.298 44.4684H178.949C180.007 44.4684 180.865 45.3259 180.865 46.3831V52.1255C180.865 53.1827 180.007 54.0402 178.949 54.0402H178.951Z" fill="#8AEDBF"/>
<path d="M180.865 50.2125V52.1272C180.865 53.1793 180.004 54.0419 178.949 54.0419H148.298L135.129 58.5583C133.979 58.7012 132.973 57.811 132.973 56.654V54.7393C132.973 55.8981 133.979 56.7865 135.129 56.6436L148.298 52.1272H178.949C180.002 52.1272 180.865 51.2663 180.865 50.2125Z" fill="#42DB9C"/>
<path d="M169.695 115.774H162.555V129.832H169.695V115.774Z" fill="#42DB9C"/>
<path d="M166.073 122.804H169.695V129.832H166.073C164.13 129.832 162.555 128.257 162.555 126.318C162.555 124.378 164.132 122.804 166.073 122.804Z" fill="#1A263C"/>
<path d="M169.695 129.832C167.723 129.832 165.938 130.619 164.646 131.892C163.353 133.164 162.554 134.921 162.554 136.863V129.834H169.693L169.695 129.832Z" fill="#1A263C"/>
<path d="M169.695 129.833V136.861H162.555C162.555 134.921 163.355 133.163 164.647 131.89C165.94 130.618 167.723 129.831 169.697 129.831L169.695 129.833Z" fill="#42DB9C"/>
<path d="M169.695 122.804H173.317C175.26 122.804 176.835 124.379 176.835 126.318C176.835 128.259 175.258 129.832 173.317 129.832H169.695V122.804Z" fill="#007AFF"/>
<path d="M155.416 122.804H155.521C159.403 122.804 162.555 125.953 162.555 129.832H155.416V122.804Z" fill="#007AFF"/>
<path d="M131.374 65.4233C131.374 66.9678 130.121 68.2196 128.575 68.2196C127.029 68.2196 125.776 66.9678 125.776 65.4233C125.776 63.8788 128.575 60.5006 128.575 60.5006C128.575 60.5006 131.374 63.8788 131.374 65.4233Z" fill="#007AFF"/>
<path d="M141.057 72.8772C141.057 75.5495 138.889 77.7156 136.214 77.7156C133.54 77.7156 131.372 75.5495 131.372 72.8772C131.372 70.2049 136.214 64.3609 136.214 64.3609C136.214 64.3609 141.057 70.2049 141.057 72.8772Z" fill="#007AFF"/>
</g>
<defs>
<linearGradient id="paint0_linear_611_113" x1="0.000161121" y1="87.4993" x2="224" y2="87.4993" gradientUnits="userSpaceOnUse">
<stop offset="0.02" stop-color="#005EB2"/>
<stop offset="1" stop-color="#0BE5A1"/>
</linearGradient>
<linearGradient id="paint1_linear_611_113" x1="136.214" y1="121.75" x2="193.685" y2="121.75" gradientUnits="userSpaceOnUse">
<stop stop-color="#42DB9C"/>
<stop offset="1" stop-color="#007AFF"/>
</linearGradient>
<clipPath id="clip0_611_113">
<rect width="224" height="175" fill="white"/>
</clipPath>
</defs>
</svg>
