<svg width="190" height="191" viewBox="0 0 190 191" fill="none" xmlns="http://www.w3.org/2000/svg">
<path d="M84.1998 44.8017C38.1011 59.2821 2.55454 84.5044 0.207833 111.161C-4.92559 169.49 86.4827 191.756 114.308 163.733C276.58 77.9346 132.58 -61.7502 98.7631 30.1125C95.9269 36.2183 90.8206 41.0839 84.1998 44.8017Z" fill="url(#paint0_linear_611_3888)"/>
<path d="M116.644 63.4892L154.968 28.3333C154.458 27.1472 154.717 25.7203 155.722 24.7989C156.992 23.6335 160.269 22.3342 161.434 23.6048C162.599 24.8754 161.214 28.236 159.943 29.4014C158.939 30.3229 157.495 30.46 156.356 29.8494L118.033 65.0053L116.644 63.4908V63.4892Z" fill="white"/>
<path d="M132.827 66.6267C134.372 68.1157 135.915 69.6047 137.46 71.0953C137.857 71.4779 138.306 71.8844 138.858 71.9084C139.587 71.9402 140.156 71.2978 140.535 70.676C141.801 68.6003 142.309 66.0783 141.866 63.6885C143.733 62.6459 144.462 60.1908 144.012 58.1007C143.563 56.0107 142.164 54.2491 140.62 52.7728C137.658 49.9415 134.018 47.8706 130.163 46.482C128.285 49.6481 127.344 53.1682 127.679 56.8349C128.014 60.5016 130.176 64.0711 132.827 66.6267Z" fill="#1C664B"/>
<path d="M115.928 81.3781C114.128 76.2096 117.097 53.7102 118.16 47.9806C118.546 45.9033 119.104 43.6969 120.696 42.3099C122.268 40.9405 124.489 40.679 126.563 40.4781C130.165 40.129 133.768 39.7799 137.369 39.4307C138.478 39.3239 139.856 39.3494 140.379 40.3331C140.798 41.119 140.403 42.0867 139.923 42.8376C138.388 45.2353 135.921 47.0193 133.163 47.7255C135.147 52.1048 134.233 57.5523 131.104 61.2031C133.889 65.2764 135.508 69.7944 135.543 74.7286C135.579 79.6627 133.726 84.6861 130.117 88.0499C126.042 86.427 121.852 84.7818 117.827 83.0377C116.926 82.6471 116.252 82.3059 115.928 81.3797V81.3781Z" fill="#42DB9C"/>
<path d="M113.561 79.6547C109.715 84.7993 107.64 91.0343 104.372 96.5631C101.103 102.094 95.9684 107.235 89.558 107.656C84.2062 108.006 79.2832 105.03 74.6217 102.379C73.2841 101.618 71.9338 100.879 70.574 100.155L71.6803 108.386C71.9769 116.263 70.3348 123.609 66.7526 130.428C66.2185 132.067 65.5952 133.653 64.8857 135.191C71.234 139.516 78.8576 141.954 86.5402 142.09C94.7425 142.233 102.97 139.751 109.725 135.096C116.913 130.141 122.241 122.986 127.434 115.966C132.558 109.038 137.927 101.891 138.619 93.2997C132.263 85.5279 123.512 80.9779 113.559 79.6563L113.561 79.6547Z" fill="#E2E2E2"/>
<path d="M76.7526 22.5938L34.9817 31.3126C26.8679 33.0062 21.6632 40.9567 23.3568 49.0706L49.7536 175.535C51.4472 183.649 59.3977 188.854 67.5116 187.16L109.282 178.441C117.396 176.748 122.601 168.797 120.907 160.683L94.5106 34.2188C92.817 26.1049 84.8665 20.9002 76.7526 22.5938Z" fill="#BCBCBC"/>
<path d="M76.4551 27.9244L37.3887 36.0787C29.8005 37.6626 24.9331 45.0979 26.517 52.686L51.2039 170.959C52.7878 178.547 60.2232 183.414 67.8113 181.831L106.878 173.676C114.466 172.092 119.333 164.657 117.749 157.069L93.0624 38.7961C91.4785 31.208 84.0432 26.3406 76.4551 27.9244Z" fill="#E2E2E2"/>
<path d="M88.623 54.9892L65.5776 59.7994L80.4295 130.953L103.475 126.143L88.623 54.9892Z" fill="#C1C1C1"/>
<path d="M95.0007 158.907C101.827 158.907 107.361 153.373 107.361 146.547C107.361 139.721 101.827 134.187 95.0007 134.187C88.1744 134.187 82.6406 139.721 82.6406 146.547C82.6406 153.373 88.1744 158.907 95.0007 158.907Z" fill="#C1C1C1"/>
<path d="M95.0008 153.021C98.5764 153.021 101.475 150.123 101.475 146.547C101.475 142.971 98.5764 140.073 95.0008 140.073C91.4252 140.073 88.5266 142.971 88.5266 146.547C88.5266 150.123 91.4252 153.021 95.0008 153.021Z" fill="#FF0D01"/>
<path d="M86.861 58.0637L68.4241 61.912L82.1938 127.882L100.631 124.033L86.861 58.0637Z" fill="#DBDBDB"/>
<path d="M92.9332 87.1594L74.4963 91.0077L82.193 127.881L100.63 124.033L92.9332 87.1594Z" fill="#F7F7F7"/>
<path d="M76.0056 98.2036L94.4413 94.3535" stroke="#C91B14" stroke-width="1.50336" stroke-miterlimit="10"/>
<path d="M79.7935 116.352L98.2307 112.502" stroke="#C91B14" stroke-width="3.00831" stroke-miterlimit="10"/>
<path d="M48.7621 49.459C48.3249 49.5503 47.8977 49.5549 47.4806 49.473C47.0677 49.3845 46.6878 49.2244 46.3408 48.9926C45.9981 48.7542 45.7047 48.4549 45.4604 48.0946C45.2216 47.7332 45.0543 47.3231 44.9585 46.8642C44.8639 46.4107 44.8543 45.9733 44.9297 45.5519C45.0094 45.124 45.1592 44.735 45.3791 44.3848C45.6032 44.0282 45.8868 43.7267 46.2298 43.4805C46.5727 43.2343 46.9656 43.065 47.4082 42.9726C47.8239 42.8858 48.1915 42.8654 48.511 42.9114C48.8358 42.9563 49.1753 43.0713 49.5295 43.2565C49.5794 43.2799 49.6192 43.3083 49.6486 43.3415C49.6824 43.3683 49.7059 43.4 49.7192 43.4367C49.7368 43.4668 49.7506 43.5062 49.7608 43.5548C49.7822 43.6573 49.7624 43.7516 49.7015 43.8376C49.6448 43.917 49.5663 43.9728 49.466 44.005C49.3646 44.0318 49.2574 44.0176 49.1444 43.9623C48.9086 43.8312 48.6731 43.7423 48.438 43.6956C48.2083 43.6478 47.918 43.6605 47.5671 43.7338C47.2486 43.8002 46.9625 43.9276 46.7088 44.1157C46.4551 44.3039 46.244 44.5339 46.0754 44.8057C45.9122 45.0764 45.8027 45.3753 45.747 45.7024C45.6902 46.0241 45.6973 46.355 45.7683 46.6951C45.8405 47.0407 45.9675 47.3522 46.1493 47.6297C46.3301 47.9018 46.5494 48.1293 46.8073 48.3121C47.0705 48.4938 47.3561 48.6201 47.6638 48.6911C47.9705 48.7566 48.2831 48.7562 48.6016 48.6897C48.8769 48.6322 49.1265 48.5322 49.3502 48.3898C49.5783 48.2407 49.7882 48.0589 49.98 47.8442C50.0626 47.7538 50.1508 47.7043 50.2449 47.696C50.3432 47.6811 50.432 47.702 50.5115 47.7586C50.5898 47.8099 50.6413 47.8949 50.6661 48.0137C50.6774 48.0677 50.6779 48.1239 50.6675 48.1824C50.6561 48.2355 50.6333 48.2882 50.5991 48.3404C50.356 48.6333 50.0795 48.8742 49.7696 49.0628C49.4651 49.2503 49.1293 49.3824 48.7621 49.459ZM55.1461 48.1265C54.671 48.2256 54.2201 48.2381 53.7933 48.1638C53.3654 48.0841 52.9785 47.931 52.6327 47.7046C52.2911 47.4717 52.0009 47.1745 51.7621 46.8131C51.5221 46.4463 51.3526 46.0253 51.2534 45.5502C51.1543 45.0752 51.1418 44.6242 51.2161 44.1975C51.2904 43.7707 51.4381 43.3849 51.6591 43.0402C51.8844 42.689 52.1777 42.3939 52.5391 42.1551C52.8994 41.9109 53.3171 41.7392 53.7922 41.64C54.2673 41.5409 54.7161 41.5317 55.1386 41.6125C55.5653 41.6868 55.9522 41.8399 56.2992 42.0717C56.6451 42.2981 56.9374 42.592 57.1762 42.9534C57.415 43.3148 57.584 43.7331 57.6832 44.2082C57.7823 44.6832 57.7953 45.1369 57.7222 45.5691C57.6479 45.9958 57.4981 46.3848 57.2728 46.7361C57.0464 47.0819 56.753 47.377 56.3928 47.6212C56.0367 47.8589 55.6212 48.0273 55.1461 48.1265ZM54.9872 47.3653C55.3381 47.292 55.6464 47.1629 55.912 46.9779C56.1819 46.7863 56.4017 46.5574 56.5714 46.2909C56.74 46.0191 56.8495 45.7202 56.8998 45.3942C56.9554 45.0671 56.9466 44.7281 56.8734 44.3772C56.8001 44.0263 56.6726 43.7121 56.4907 43.4345C56.3142 43.1559 56.0949 42.9284 55.8328 42.7521C55.5695 42.5705 55.2765 42.4485 54.9536 42.3864C54.6362 42.323 54.302 42.328 53.9511 42.4012C53.6002 42.4745 53.2892 42.6042 53.0182 42.7903C52.7526 42.9753 52.5355 43.2038 52.3669 43.4756C52.2025 43.7409 52.0925 44.0371 52.0368 44.3642C51.9812 44.6913 51.99 45.0303 52.0632 45.3812C52.1365 45.7321 52.264 46.0464 52.4459 46.3239C52.6278 46.6014 52.8476 46.8316 53.1055 47.0144C53.3677 47.1906 53.658 47.3131 53.9766 47.3819C54.2994 47.444 54.6363 47.4385 54.9872 47.3653ZM61.7544 46.6626C61.5816 46.6987 61.4362 46.6361 61.318 46.4748L57.8128 41.5445C57.6989 41.3767 57.6593 41.2272 57.6939 41.0961C57.7285 40.9649 57.8294 40.8819 57.9968 40.8469C58.1858 40.8075 58.3328 40.8641 58.4379 41.0168L61.562 45.5788L61.4729 45.5974L62.5517 40.1582C62.5746 40.052 62.6096 39.9771 62.6568 39.9334C62.7083 39.8832 62.7827 39.848 62.8799 39.8277C63.0418 39.7939 63.1649 39.8302 63.2491 39.9365C63.3375 40.0364 63.364 40.1633 63.3285 40.3171L62.0792 46.316C62.0594 46.4102 62.0222 46.4884 61.9676 46.5505C61.9172 46.6061 61.8462 46.6435 61.7544 46.6626ZM65.9759 45.7815C65.8571 45.8063 65.7488 45.7866 65.6509 45.7226C65.553 45.6585 65.4917 45.5671 65.4669 45.4483L64.3226 39.966C64.2967 39.8418 64.3163 39.7335 64.3815 39.641C64.4456 39.5431 64.537 39.4818 64.6558 39.457C64.7799 39.4311 64.8883 39.4507 64.9807 39.5159C65.0775 39.5746 65.1388 39.666 65.1648 39.7902L66.3091 45.2725C66.3339 45.3913 66.3142 45.4996 66.2501 45.5975C66.1915 45.6942 66.1 45.7556 65.9759 45.7815ZM68.4353 45.2681C68.3165 45.2929 68.2082 45.2733 68.1103 45.2092C68.0124 45.1451 67.9511 45.0537 67.9263 44.9349L66.782 39.4526C66.7561 39.3285 66.7757 39.2201 66.8409 39.1277C66.905 39.0298 66.9964 38.9684 67.1152 38.9436L68.5809 38.6377C69.0452 38.5408 69.4826 38.5312 69.8932 38.6089C70.3081 38.68 70.6857 38.8294 71.0262 39.0569C71.3655 39.279 71.6508 39.566 71.8819 39.9177C72.1131 40.2695 72.2771 40.6775 72.374 41.1418C72.4709 41.606 72.4844 42.0483 72.4144 42.4686C72.3432 42.8834 72.1971 43.2632 71.9761 43.6079C71.754 43.9473 71.4676 44.2352 71.117 44.4718C70.7706 44.7018 70.3653 44.8653 69.901 44.9622L68.4353 45.2681ZM68.7009 44.4352L69.7455 44.2172C70.199 44.1225 70.5771 43.9366 70.8798 43.6593C71.1868 43.3755 71.4024 43.0319 71.5266 42.6285C71.6497 42.2197 71.6623 41.7805 71.5642 41.3108C71.4651 40.8357 71.2779 40.4382 71.0026 40.1182C70.7274 39.7981 70.3929 39.5722 69.9992 39.4403C69.6108 39.3073 69.1899 39.2881 68.7364 39.3827L67.6918 39.6008L68.7009 44.4352ZM73.8743 42.2483C73.7556 42.2731 73.6478 42.2562 73.551 42.1975C73.4597 42.1377 73.4016 42.0484 73.3768 41.9296C73.3509 41.8055 73.3679 41.6977 73.4277 41.6064C73.4929 41.5139 73.5848 41.4552 73.7036 41.4304L75.5095 41.0535C75.6282 41.0287 75.7333 41.0462 75.8246 41.106C75.916 41.1658 75.9746 41.2578 76.0006 41.382C76.0253 41.5008 76.0078 41.6058 75.948 41.6972C75.8882 41.7885 75.7989 41.8466 75.6802 41.8714L73.8743 42.2483ZM78.6616 43.1336C78.5536 43.1561 78.4507 43.1354 78.3528 43.0713C78.2549 43.0072 78.1942 42.9185 78.1705 42.8051L77.1394 37.8654L76.6007 38.2398C76.5168 38.2968 76.4344 38.3337 76.3534 38.3506C76.2346 38.3754 76.1269 38.3584 76.0301 38.2998C75.9387 38.24 75.8807 38.1507 75.8559 38.0319C75.8378 37.9455 75.8431 37.8627 75.8716 37.7835C75.9002 37.7043 75.957 37.639 76.042 37.5874L77.2106 36.8703C77.2353 36.8538 77.2606 36.8401 77.2865 36.8291C77.3124 36.818 77.3361 36.8103 77.3577 36.8057C77.4819 36.7798 77.5875 36.8 77.6746 36.8664C77.7659 36.9262 77.8246 37.0182 77.8505 37.1423L78.9965 42.6327C79.0202 42.7461 78.9999 42.8517 78.9359 42.9496C78.8718 43.0475 78.7804 43.1088 78.6616 43.1336ZM80.8347 36.0715C81.2126 35.9927 81.5621 36.007 81.8831 36.1147C82.2031 36.2169 82.4744 36.3969 82.6973 36.6546C82.9189 36.9069 83.0687 37.2193 83.1464 37.5919C83.2242 37.9644 83.2125 38.3133 83.1114 38.6386C83.0103 38.9639 82.8341 39.2401 82.5829 39.4672C82.3306 39.6889 82.0155 39.8392 81.6376 39.9181C81.2705 39.9947 80.9243 39.9824 80.5989 39.8813C80.2779 39.7737 80.0059 39.591 79.7831 39.3333C79.5603 39.0756 79.41 38.7605 79.3323 38.388C79.2545 38.0155 79.2668 37.6692 79.369 37.3493C79.4701 37.024 79.6468 36.7505 79.8992 36.5288C80.1503 36.3017 80.4622 36.1493 80.8347 36.0715ZM80.9949 36.7987C80.7736 36.8449 80.5872 36.9373 80.4359 37.0759C80.2888 37.208 80.1853 37.3733 80.1253 37.5717C80.0653 37.7702 80.0601 37.9882 80.1097 38.2257C80.1581 38.4578 80.2501 38.6555 80.3856 38.8188C80.52 38.9767 80.6815 39.0894 80.8703 39.1571C81.0645 39.2236 81.2722 39.2338 81.4936 39.1876C81.7149 39.1414 81.8985 39.0495 82.0445 38.912C82.1958 38.7734 82.2988 38.6054 82.3534 38.4081C82.4123 38.2042 82.4175 37.9863 82.369 37.7541C82.3194 37.5166 82.2275 37.3189 82.0931 37.161C81.9641 37.002 81.8031 36.8919 81.6101 36.8308C81.4213 36.7632 81.2163 36.7525 80.9949 36.7987ZM83.0955 38.6842L81.8709 42.2102C81.8053 42.3817 81.6969 42.4832 81.5458 42.5147C81.4378 42.5372 81.3366 42.5246 81.2421 42.4767C81.153 42.4277 81.0875 42.3568 81.0456 42.2642C81.008 42.165 81.0093 42.0633 81.0495 41.9591L81.8005 39.808L83.0955 38.6842Z" fill="black"/>
<path d="M51.4532 109.329C51.3507 109.351 51.2571 109.334 51.1726 109.278C51.0881 109.223 51.0351 109.144 51.0137 109.041L49.9496 103.944L50.6769 103.792L51.741 108.89C51.7624 108.992 51.7454 109.086 51.6901 109.17C51.6348 109.255 51.5558 109.308 51.4532 109.329ZM48.5793 104.93C48.4813 104.951 48.3934 104.937 48.3155 104.89C48.2413 104.838 48.194 104.762 48.1735 104.665C48.1531 104.567 48.1668 104.481 48.2148 104.408C48.2664 104.329 48.3412 104.279 48.4391 104.259L52.1804 103.478C52.2783 103.457 52.3644 103.474 52.4386 103.526C52.5165 103.573 52.5657 103.646 52.5861 103.743C52.6066 103.841 52.591 103.93 52.5393 104.009C52.4914 104.082 52.4184 104.129 52.3205 104.149L48.5793 104.93ZM54.8248 108.625C54.7222 108.647 54.6287 108.63 54.5442 108.575C54.4596 108.519 54.4067 108.44 54.3853 108.338L53.3971 103.603C53.3747 103.496 53.3917 103.403 53.448 103.323C53.5033 103.238 53.5823 103.185 53.6848 103.164L56.8457 102.504C56.9529 102.482 57.046 102.496 57.1249 102.548C57.2028 102.595 57.2524 102.67 57.2738 102.772C57.2943 102.87 57.2782 102.956 57.2256 103.031C57.173 103.105 57.093 103.153 56.9858 103.175L54.1886 103.759L54.5433 105.459L56.5503 105.04C56.6575 105.017 56.7506 105.032 56.8295 105.084C56.9074 105.131 56.9566 105.203 56.977 105.301C56.9974 105.399 56.9818 105.487 56.9302 105.566C56.8776 105.64 56.7976 105.689 56.6904 105.711L54.6834 106.13L55.0483 107.878L57.8455 107.294C57.9528 107.272 58.0453 107.284 58.1233 107.331C58.2012 107.378 58.2503 107.451 58.2708 107.549C58.2922 107.651 58.2771 107.742 58.2254 107.821C58.1728 107.895 58.0929 107.943 57.9857 107.966L54.8248 108.625ZM61.1065 107.387C60.8082 107.45 60.514 107.462 60.2242 107.425C59.9343 107.389 59.6716 107.307 59.4362 107.181C59.2007 107.055 59.0134 106.892 58.8744 106.693C58.8074 106.605 58.7884 106.514 58.8175 106.42C58.8513 106.325 58.924 106.254 59.0357 106.207C59.1157 106.171 59.2002 106.167 59.2892 106.198C59.3819 106.222 59.4584 106.274 59.5189 106.354C59.5992 106.459 59.7124 106.547 59.8588 106.619C60.0097 106.689 60.1825 106.736 60.3769 106.759C60.5714 106.781 60.7689 106.772 60.9693 106.73C61.1931 106.683 61.3909 106.605 61.5628 106.497C61.7394 106.387 61.8723 106.254 61.9616 106.1C62.0499 105.94 62.0737 105.762 62.0328 105.567C61.9812 105.319 61.8371 105.118 61.6004 104.963C61.3684 104.808 61.0261 104.753 60.5735 104.798C59.9837 104.863 59.4936 104.788 59.1033 104.572C58.7129 104.357 58.4739 104.04 58.3863 103.62C58.3221 103.312 58.3539 103.033 58.4816 102.783C58.6093 102.532 58.8084 102.321 59.0787 102.147C59.3538 101.973 59.6731 101.848 60.0367 101.772C60.3211 101.713 60.5765 101.701 60.8028 101.737C61.0338 101.771 61.2431 101.842 61.4308 101.948C61.6185 102.055 61.7906 102.192 61.9471 102.359C62.0337 102.448 62.0798 102.54 62.0853 102.636C62.0945 102.727 62.0648 102.806 61.9962 102.874C61.9193 102.948 61.8262 102.98 61.7168 102.969C61.6074 102.958 61.5178 102.913 61.4481 102.835C61.3453 102.716 61.2305 102.62 61.1038 102.549C60.9771 102.479 60.8362 102.433 60.681 102.411C60.5248 102.386 60.3487 102.393 60.1529 102.434C59.807 102.501 59.5316 102.627 59.3267 102.811C59.1208 102.99 59.0466 103.217 59.104 103.492C59.1332 103.632 59.1964 103.76 59.2936 103.876C59.3944 103.986 59.5502 104.068 59.7608 104.121C59.976 104.174 60.2694 104.181 60.6408 104.142C61.2073 104.082 61.674 104.162 62.0411 104.383C62.4118 104.597 62.6454 104.935 62.7417 105.397C62.7972 105.662 62.7894 105.905 62.7184 106.124C62.652 106.342 62.5397 106.538 62.3814 106.712C62.2269 106.881 62.0375 107.023 61.8134 107.138C61.5939 107.251 61.3583 107.335 61.1065 107.387ZM65.5076 106.396C65.405 106.417 65.3115 106.4 65.227 106.345C65.1424 106.289 65.0895 106.21 65.0681 106.108L64.004 101.01L64.7312 100.858L65.7953 105.956C65.8167 106.059 65.7998 106.152 65.7444 106.237C65.6891 106.321 65.6102 106.374 65.5076 106.396ZM62.6336 101.997C62.5357 102.017 62.4478 102.004 62.3699 101.957C62.2956 101.904 62.2483 101.829 62.2279 101.731C62.2074 101.633 62.2212 101.548 62.2692 101.474C62.3208 101.395 62.3956 101.346 62.4935 101.325L66.2348 100.544C66.3327 100.524 66.4187 100.54 66.4929 100.593C66.5709 100.64 66.62 100.712 66.6405 100.81C66.6609 100.908 66.6453 100.996 66.5937 101.075C66.5457 101.148 66.4728 101.195 66.3749 101.216L62.6336 101.997ZM68.8792 105.692C68.7766 105.713 68.6831 105.696 68.5985 105.641C68.514 105.586 68.461 105.507 68.4396 105.404L67.4514 100.67C67.4291 100.563 67.446 100.469 67.5023 100.389C67.5577 100.305 67.6366 100.252 67.7392 100.23L70.9 99.5706C71.0073 99.5482 71.1003 99.5628 71.1792 99.6145C71.2571 99.6614 71.3068 99.7362 71.3282 99.8388C71.3486 99.9367 71.3325 100.023 71.2799 100.097C71.2273 100.171 71.1474 100.22 71.0402 100.242L68.2429 100.826L68.5976 102.525L70.6046 102.106C70.7119 102.084 70.8049 102.098 70.8838 102.15C70.9617 102.197 71.0109 102.269 71.0313 102.367C71.0518 102.465 71.0362 102.554 70.9845 102.633C70.9319 102.707 70.852 102.755 70.7448 102.777L68.7378 103.196L69.1027 104.945L71.8999 104.361C72.0071 104.338 72.0997 104.351 72.1776 104.398C72.2555 104.445 72.3047 104.517 72.3251 104.615C72.3465 104.718 72.3314 104.808 72.2798 104.887C72.2272 104.961 72.1472 105.01 72.04 105.032L68.8792 105.692Z" fill="black"/>
<path d="M32.3173 57.42C32.3173 57.42 28.0974 45.213 40.1259 40.5068" stroke="white" stroke-width="3.14223" stroke-miterlimit="10"/>
<path d="M133.45 47.9679C133.45 47.9583 123.518 59.4017 123.625 59.2486L120.261 67.1847C120.29 67.1353 123.356 59.1434 123.394 59.1099L132.876 47.4848L133.452 47.9694L133.45 47.9679Z" fill="#1C664B"/>
<defs>
<linearGradient id="paint0_linear_611_3888" x1="0.000583084" y1="87.8857" x2="189.999" y2="87.8857" gradientUnits="userSpaceOnUse">
<stop stop-color="#0BE5A1"/>
<stop offset="0.98" stop-color="#005EB2"/>
</linearGradient>
</defs>
</svg>
