<svg width="190" height="145" viewBox="0 0 190 145" fill="none" xmlns="http://www.w3.org/2000/svg">
<mask id="mask0_611_3014" style="mask-type:luminance" maskUnits="userSpaceOnUse" x="0" y="0" width="191" height="145">
<path d="M0.0424601 93.6308C1.65949 118.481 52.2298 133.21 65.8304 137.172C83.7256 142.384 104.255 148.089 129.394 141.94C138.513 139.709 153.708 135.789 167.214 122.552C184.014 106.088 187.225 85.968 188.509 77.1044C190.093 66.1706 193.221 44.5866 179.927 27.5253C171.423 16.61 159.811 12.1844 158.315 11.6341C156.649 11.0221 149.845 8.62968 139.565 8.77304C123.636 8.99656 111.957 15.1317 96.6587 23.3926C73.5039 35.8956 49.9792 -4.97247 36.5913 0.509089C16.5503 8.71601 35.2117 46.8017 19.1107 58.3521C11.0842 64.1112 7.34298 69.9025 5.76295 72.6541C1.75044 79.6402 -0.32904 87.9211 0.0424601 93.6308Z" fill="white"/>
</mask>
<g mask="url(#mask0_611_3014)">
<path d="M0.0424594 93.6307C1.65949 118.481 52.2298 133.21 65.8304 137.172C83.7256 142.384 104.255 148.089 129.394 141.94C138.513 139.709 153.708 135.789 167.214 122.552C184.014 106.088 187.225 85.968 188.509 77.1044C190.093 66.1706 193.221 44.5865 179.927 27.5253C171.423 16.61 159.811 12.1843 158.315 11.634C156.649 11.022 149.845 8.62964 139.565 8.773C123.636 8.99652 111.957 15.1317 96.6587 23.3925C73.5039 35.8956 78.9007 38.2495 65.5128 43.7326C45.4718 51.9395 35.2117 46.8017 19.1123 58.3521C11.0857 64.1111 7.34452 69.9025 5.76449 72.6541C1.75044 79.6401 -0.329041 87.921 0.0424594 93.6307Z" fill="url(#paint0_linear_611_3014)"/>
<mask id="mask1_611_3014" style="mask-type:luminance" maskUnits="userSpaceOnUse" x="12" y="-25" width="160" height="173">
<path d="M171.936 -24.2273H12.2896V147.478H171.936V-24.2273Z" fill="white"/>
</mask>
<g mask="url(#mask1_611_3014)">
<path d="M161.409 112.173L158.12 112.223L156.803 95.143C156.803 95.143 157.68 94.2659 158.046 94.7776C158.411 95.2894 161.408 100.771 161.408 100.771V112.175L161.409 112.173Z" fill="#1A263C"/>
<path d="M124.885 53.9033C124.885 53.9033 122.374 93.3872 129.172 103.475C135.97 113.562 150.005 84.1768 150.005 83.5185V58.4045L124.885 53.9033Z" fill="#1A263C"/>
<path d="M94.3049 161.608C96.5663 160.046 99.062 159.058 101.789 158.637L103.326 156.434L108.428 152.638L109.852 147.204L133.824 117.339L128.646 106.471C127.926 108.577 126.82 110.516 125.323 112.286C123.905 114.239 122.208 115.827 120.234 117.049L120.837 118.255L106.222 144.164L97.4665 151.5L93.2644 160.914L94.2155 161.649C94.2448 161.635 94.2741 161.62 94.3034 161.608H94.3049Z" fill="#D39C84"/>
<path d="M126.551 124.404L118.454 120.632L124.009 108.449L126.251 118.877L126.551 124.404Z" fill="#19CC83"/>
<path d="M136.041 75.5891C136.041 75.5891 138.974 84.6037 135.265 89.1928L151.917 86.7958L145.398 69.8301L141.012 67.635L136.918 71.2683L136.041 75.5906V75.5891Z" fill="#D39C84"/>
<path d="M125.081 55.3215C125.081 55.3215 124.37 56.9016 124.993 59.3525C125.25 60.3653 125.005 61.4397 124.365 62.2675L122.711 64.4055C122.32 64.9127 122.497 65.6526 123.077 65.9255L125.31 66.9768C125.38 72.9362 131.853 79.4074 136.941 76.3028C138.567 75.3101 140.078 73.9042 141.24 71.9203C141.24 71.9203 145.199 71.8155 145.146 66.8488C145.146 66.8488 144.346 62.2259 140.553 64.7061C140.553 64.7061 141.918 56.9601 140.853 56.6164C138.259 55.7793 132.861 54.2132 125.081 55.32V55.3215Z" fill="#F7C9AB"/>
<path d="M156.009 124.806L155.132 133.87L157.082 146.735L145.191 148.099H124.432L125.212 128.021L122.19 111.842C122.19 108.027 123.3 104.293 125.386 101.098L128.233 96.7353L130.054 93.5167C131.607 90.7697 133.84 88.4652 136.536 86.8235L135.95 88.1677L140.448 85.988C143.793 84.3664 147.472 84.519 151.08 85.4177C151.08 85.4177 156.63 89.7246 157.805 92.4345L157.999 96.9172L158.576 101.617C159.2 106.704 158.941 111.862 157.808 116.861L156.011 124.803L156.009 124.806Z" fill="#2DB58B"/>
<path d="M134.812 71.629L138.256 63.3912" stroke="url(#paint1_linear_611_3014)" stroke-width="0.60889" stroke-miterlimit="10"/>
<path d="M139.333 73.952L141.832 71.834" stroke="url(#paint2_linear_611_3014)" stroke-width="0.60889" stroke-miterlimit="10"/>
<path d="M125.345 67.6334L135.41 71.222L135.739 72.4568C135.959 73.2892 136.713 73.8426 137.525 73.767L140.064 73.6052C140.064 73.6052 134.703 80.2151 131.796 79.7989C131.796 79.7989 122.779 76.4323 125.345 67.6319V67.6334Z" fill="#19CC83"/>
<path d="M123.673 66.522C123.505 66.1767 122.957 66.0996 122.45 66.3478C122.084 66.5266 121.841 66.8257 121.796 67.1093L109.452 73.7115L109.738 74.248L122.072 67.6504C122.323 67.7799 122.699 67.7706 123.058 67.5949C123.566 67.3467 123.842 66.8658 123.673 66.522Z" fill="white"/>
<path d="M53.0051 28.0263C53.5924 31.1293 53.3797 33.5602 47.2075 34.943C40.8797 36.3611 39.87 33.7283 39.2811 30.6252C38.6938 27.5222 41.2897 24.4253 45.0787 23.7085C48.8677 22.9902 52.4162 24.9232 53.0051 28.0263Z" fill="#333333"/>
<path d="M47.9382 25.3441C48.5255 28.4471 48.3128 30.878 42.1406 32.2608C35.8128 33.6789 34.8031 31.0461 34.2143 27.943C33.6269 24.84 36.2228 21.7431 40.0118 21.0263C43.8008 20.308 47.3493 22.241 47.9382 25.3441Z" fill="#1C1C1C"/>
<path d="M53.9501 23.6145C54.5375 26.7175 54.3247 29.1485 48.1526 30.5312C41.8247 31.9494 40.8151 29.3165 40.2262 26.2135C39.6389 23.1104 42.2348 20.0136 46.0238 19.2968C49.8128 18.5785 53.3613 20.5115 53.9501 23.6145Z" fill="#1C1C1C"/>
<path d="M47.4526 30.8272C48.0399 33.9302 47.8272 36.3611 41.655 37.7439C35.3272 39.162 34.3175 36.5292 33.7287 33.4261C33.1413 30.3231 35.7372 27.2262 39.5262 26.5094C43.3152 25.7911 46.8637 27.7241 47.4526 30.8272Z" fill="#1C1C1C"/>
<path d="M56.2746 29.5046C56.8619 32.6076 56.6492 35.0385 50.477 36.4213C44.1492 37.8394 43.1395 35.2066 42.5507 32.1035C41.9634 29.0005 44.5592 25.9036 48.3482 25.1868C52.1372 24.4685 55.6858 26.4015 56.2746 29.5046Z" fill="#1C1C1C"/>
<path d="M66.4733 40.1609L66.9295 42.2805C67.0066 42.6381 67.0143 43.0065 66.9511 43.3672L66.6413 45.1507C66.5396 45.7365 66.6243 46.3392 66.8818 46.8757L68.7747 50.8019C68.9982 51.2643 69.0923 51.7792 69.046 52.2925L68.9982 52.8351C68.9643 53.2251 68.8487 53.6028 68.6622 53.9465L65.1183 60.4485C64.6898 61.2332 63.919 61.7727 63.0342 61.9037L61.2522 62.1673C59.9065 62.3662 58.8876 63.4899 58.8228 64.8495L58.3866 73.9536C58.2787 76.2011 55.7398 77.4312 53.8947 76.144C52.3732 75.0819 50.8117 73.6129 49.8914 71.6829C48.9711 69.753 47.5206 69.104 46.0223 68.8805C44.3112 68.6246 43.2137 66.9059 43.71 65.2487C44.4838 62.6683 45.196 58.0453 46.1872 48.1813C46.2381 47.6695 47.8736 47.1131 49.0852 46.7678C49.9114 46.5335 50.5897 45.9431 50.9288 45.1538L52.7925 40.833C53.1162 40.0838 53.7436 39.5104 54.519 39.2545L61.9829 36.8005C63.213 36.3966 64.5618 36.8714 65.2647 37.9597L66.0786 39.2175C66.2652 39.5073 66.3993 39.828 66.4717 40.1655L66.4733 40.1609Z" fill="#A25939"/>
<path d="M47.2847 59.3063H44.5562C44.5562 59.3063 39.8778 54.9207 37.9294 47.221C37.8338 46.8433 33.6656 34.4189 47.8705 30.9443C49.5784 30.5266 53.4168 29.4753 57.0316 30.4372C64.8778 32.5274 66.3638 39.6507 66.3638 39.6507C66.3638 39.6507 62.3929 35.817 57.7144 40.2025C56.2099 41.613 56.1159 43.8466 55.692 45.8645L55.2296 47.5848L53.4553 48.6083L52.9898 48.1382L52.0695 47.4352C50.9719 46.5982 49.3441 46.9342 48.7537 48.1813C48.7306 48.2322 48.7075 48.2831 48.6875 48.3355L48.4131 49.0399C47.9676 50.1837 48.1125 51.4724 48.8 52.4883L50.3569 54.7882L47.2862 59.3032L47.2847 59.3063Z" fill="#1C1C1C"/>
<path d="M60.3934 52.3619L60.136 54.1608C59.877 55.9767 58.5883 57.4765 56.8326 58.0068L55.5192 58.4045L55.2263 61.7665C55.2263 61.7665 64.2903 66.6638 68.9795 59.4789C68.9795 59.4789 71.4166 54.1192 68.9795 50.8049L60.3919 52.3619H60.3934Z" fill="#19CC83"/>
<path d="M60.3934 52.3618L53.4536 48.6099" stroke="#0B6B4B" stroke-width="0.60889" stroke-miterlimit="10"/>
<path d="M50.3552 54.7912L55.5208 58.4045" stroke="#0B6B4B" stroke-width="0.60889" stroke-miterlimit="10"/>
<path d="M44.8784 65.3644L42.8313 66.7286C42.8313 66.7286 27.3346 81.5917 37.4222 110.977L39.4446 132.029C39.4446 132.029 22.9491 152.642 28.2117 166.678H72.0703V92.5563C72.0703 92.5563 65.9306 71.0648 44.8784 65.3644Z" fill="#FCFCFC"/>
<path d="M94.7181 91.411L98.9032 86.6277L98.4393 79.7989C98.3144 77.9553 99.4119 76.2473 101.14 75.5937L111.175 71.8047C111.96 73.69 111.112 75.8573 109.256 76.7098L107.178 77.6639L109.299 81.0583L107.83 82.6121L105.892 82.2483L105.251 87.4416C104.932 90.0314 103.711 92.4253 101.806 94.2057L97.7286 98.0132L94.7166 91.411H94.7181Z" fill="#A25939"/>
<path d="M75.5804 101.327C72.5098 100.888 55.6242 76.7668 52.774 74.3544C49.9238 71.9419 43.0148 74.3544 43.0148 74.3544C43.0148 74.3544 39.8347 77.2046 39.8347 81.5917C39.8347 85.9788 46.1949 94.7499 46.1949 94.7499C46.1949 94.7499 66.8078 115.583 77.1158 118.433L103.651 98.2583L95.0988 89.3084L75.582 101.329L75.5804 101.327Z" fill="#F4F4F4"/>
<path d="M41.3591 68.4566C41.3591 68.4566 49.6925 67.524 58.0258 74.8985H61.0964L59.1233 78.1064L71.6233 90.8252" stroke="#D3D3D3" stroke-width="0.154149" stroke-miterlimit="10"/>
<path d="M151.881 121.128L148.154 139.987L111.093 149.636L106.708 153.145H100.348L91.1371 156.214L89.6018 150.732L98.5933 145.689L109.997 145.03L137.189 132.97L139.602 119.374L151.881 121.128Z" fill="#E8B295"/>
<path d="M145.806 92.4376L142.979 93.8019L139.861 103.353L138.106 124.015C138.106 124.015 145.61 126.159 152.043 124.015L153.017 114.708L153.992 104.133V97.2132L152.237 93.509L148.436 91.9289L145.805 92.4376H145.806Z" fill="#19CC83"/>
<path d="M124.452 55.0487L134.917 58.6219C135.968 58.981 136.878 59.6685 137.508 60.5842C137.959 61.2378 138.253 61.9869 138.369 62.7716L138.893 65.9948C138.893 65.9948 142.694 62.3184 144.528 65.7898C145.379 67.4916 145.019 69.5495 143.642 70.8629L142.84 71.6275L141.604 77.0751L140.591 81.5069C140.223 83.1193 140.423 84.8088 141.165 86.2871C141.612 87.1811 142.073 88.0028 142.287 88.0891C142.534 88.1877 147.679 88.903 149.712 90.1701C160.384 96.8216 161.744 107.956 161.408 112.172C161.369 112.659 161.637 109.453 161.992 104.716C163.019 91.0164 159.721 76.81 156.634 63.4252C156.566 63.1307 156.524 62.9303 156.517 62.8456C156.475 62.4263 155.746 60.1803 154.929 57.7602C152.492 50.5336 145.675 45.6471 138.05 45.7982C136.542 45.8275 134.902 45.977 133.124 46.2776C126.789 47.3489 124.45 55.0487 124.45 55.0487H124.452Z" fill="#1A263C"/>
</g>
</g>
<path d="M101.134 75.5521C99.3934 76.2196 98.2882 77.9645 98.4146 79.8467L98.692 86.6986L97.4912 87.9365L102.962 93.2793C102.962 93.2793 105.029 91.0487 105.274 87.6513L105.919 82.347L107.869 82.7185L109.347 81.1323L107.21 77.6655L109.302 76.6913C111.17 75.8203 112.024 73.6067 111.234 71.6814L101.131 75.5521H101.134Z" fill="#19CC83"/>
<defs>
<linearGradient id="paint0_linear_611_3014" x1="-0.000702471" y1="76.6866" x2="189.999" y2="76.6866" gradientUnits="userSpaceOnUse">
<stop stop-color="#0BE5A1"/>
<stop offset="0.98" stop-color="#005EB2"/>
</linearGradient>
<linearGradient id="paint1_linear_611_3014" x1="-0.000855848" y1="71.7461" x2="0.153293" y2="63.2741" gradientUnits="userSpaceOnUse">
<stop stop-color="#00CC8F"/>
<stop offset="0.12" stop-color="#04CC90"/>
<stop offset="0.24" stop-color="#10CF96"/>
<stop offset="0.37" stop-color="#25D39F"/>
<stop offset="0.5" stop-color="#43D9AC"/>
<stop offset="0.63" stop-color="#69E1BD"/>
<stop offset="0.76" stop-color="#98EAD1"/>
<stop offset="0.9" stop-color="#CEF5E9"/>
<stop offset="1" stop-color="white"/>
</linearGradient>
<linearGradient id="paint2_linear_611_3014" x1="140.582" y1="74.1848" x2="140.582" y2="71.6012" gradientUnits="userSpaceOnUse">
<stop stop-color="#00CC8F"/>
<stop offset="0.12" stop-color="#04CC90"/>
<stop offset="0.24" stop-color="#10CF96"/>
<stop offset="0.37" stop-color="#25D39F"/>
<stop offset="0.5" stop-color="#43D9AC"/>
<stop offset="0.63" stop-color="#69E1BD"/>
<stop offset="0.76" stop-color="#98EAD1"/>
<stop offset="0.9" stop-color="#CEF5E9"/>
<stop offset="1" stop-color="white"/>
</linearGradient>
</defs>
</svg>
