<svg width="50" height="49" viewBox="0 0 50 49" fill="none" xmlns="http://www.w3.org/2000/svg">
<g clip-path="url(#clip0_616_3177)">
<mask id="mask0_616_3177" style="mask-type:luminance" maskUnits="userSpaceOnUse" x="3" y="0" width="43" height="49">
<path d="M45.2791 0.0512695H3.31689V48.8446H45.2791V0.0512695Z" fill="white"/>
</mask>
<g mask="url(#mask0_616_3177)">
<path d="M43.8052 45.0893V54.1755H5.46021V45.0893C5.46021 37.1049 11.9338 30.6333 19.9172 30.6333H29.3482C37.3326 30.6333 43.8052 37.1049 43.8052 45.0893Z" fill="url(#paint0_linear_616_3177)"/>
<path d="M19.0068 30.6333H30.1439L30.687 31.4008L28.9362 34.0688L23.5304 35.3153L19.4887 33.4567L18.5161 31.0948L19.0068 30.6333Z" fill="#1A263C"/>
<path d="M30.244 31.2387C30.244 33.0186 27.7053 34.4623 24.5749 34.4623C21.4445 34.4623 18.9058 33.0186 18.9058 31.2387C18.9058 31.0327 18.9398 30.8286 19.0049 30.6334C19.239 30.6334 19.4498 30.5381 19.6043 30.3856C19.7569 30.2331 19.8521 30.0203 19.8521 29.7861V22.6305C19.8521 22.5431 19.924 22.4702 20.0124 22.4702H29.1354C29.2239 22.4702 29.2958 22.5441 29.2958 22.6305V29.7861C29.2958 30.2544 29.6747 30.6334 30.141 30.6334C30.1439 30.6421 30.1468 30.6518 30.1498 30.6606C30.209 30.8471 30.2411 31.0414 30.2411 31.2387H30.244Z" fill="#5B341A"/>
<path d="M32.7807 16.2074C32.7807 22.5508 31.4555 27.705 24.3397 27.6933C18.4316 27.6836 16.1814 22.5508 16.1814 16.2074L17.0704 14.6053L17.2647 9.42969L29.42 10.7345L31.8907 14.4887L32.7797 16.2083L32.7807 16.2074Z" fill="#754525"/>
<path d="M16.2232 11.0058C16.228 10.9689 16.2319 10.9319 16.2397 10.896C16.2241 11.1632 16.2076 11.4294 16.1814 11.6927C16.1814 11.4605 16.195 11.2312 16.2222 11.0058H16.2232Z" fill="#1A263C"/>
<path d="M16.9858 17.5542C17.0286 17.526 17.0665 17.493 17.1044 17.46C17.0675 17.494 17.0286 17.5251 16.9858 17.5542Z" fill="#1A263C"/>
<path d="M17.3406 17.157C17.5116 16.8539 17.6078 16.4478 17.7185 15.9736C17.5874 16.6275 17.4504 17.1541 17.1045 17.4611C17.1978 17.3756 17.2755 17.2746 17.3416 17.158L17.3406 17.157Z" fill="#1A263C"/>
<path d="M20.3874 13.0996H20.5001C19.4771 13.0996 18.5677 13.6942 18.1042 14.5997C18.5201 13.6962 19.3994 13.0996 20.3874 13.0996Z" fill="#1A263C"/>
<path d="M31.169 15.5925C31.1933 15.7198 31.2176 15.8432 31.2409 15.9627C31.2147 15.8529 31.1885 15.7383 31.1603 15.6197L31.0301 15.0941C30.9874 14.9183 30.9281 14.7511 30.8542 14.5928C30.9796 14.8328 31.0709 15.096 31.1263 15.3739L31.169 15.5925Z" fill="#1A263C"/>
<path d="M32.7807 11.6927V17.7563C32.5883 17.7563 32.4232 17.7349 32.2794 17.6921C32.2502 17.6834 32.223 17.6737 32.1968 17.6649C32.088 17.6251 31.9947 17.5736 31.9121 17.5085C31.7926 17.4152 31.6984 17.2957 31.6197 17.1568C31.4496 16.8537 31.3535 16.4476 31.2437 15.9734C31.2417 15.9705 31.2417 15.9676 31.2408 15.9627C31.2174 15.8432 31.1931 15.7199 31.1689 15.5926L31.1261 15.374C31.0707 15.0961 30.9794 14.8328 30.8541 14.5928C30.4382 13.6941 29.5599 13.1005 28.5757 13.1005H20.3864C19.3983 13.1005 18.519 13.697 18.1032 14.6006C17.9807 14.8396 17.8894 15.098 17.836 15.374L17.7932 15.5926C17.7689 15.7199 17.7447 15.8432 17.7213 15.9627C17.7194 15.9657 17.7194 15.9705 17.7184 15.9734C17.6086 16.4476 17.5124 16.8546 17.3405 17.1568C17.2491 17.32 17.1355 17.4531 16.9859 17.5542L16.7653 17.664C16.7381 17.6727 16.7099 17.6834 16.6808 17.6912L16.1804 17.7553V11.6917C16.2067 11.4284 16.2232 11.1622 16.2387 10.895C16.3504 8.89164 16.3854 6.89312 20.2173 6.44231C20.7682 6.37624 21.3978 6.34418 22.1167 6.3471L24.4796 6.3335L26.8434 6.3471C27.5624 6.34418 28.191 6.37624 28.7409 6.44231C32.5796 6.89312 32.6087 8.89845 32.7214 10.9047C32.737 11.169 32.7535 11.4323 32.7797 11.6927H32.7807Z" fill="#1A263C"/>
<path d="M17.8361 15.374C17.8895 15.0971 17.9818 14.8386 18.1033 14.6006C18.0314 14.757 17.9731 14.9222 17.9303 15.0941L17.8021 15.6198C17.7729 15.7373 17.7467 15.852 17.7214 15.9627C17.7448 15.8432 17.769 15.7198 17.7933 15.5926L17.8361 15.374Z" fill="#1A263C"/>
<path d="M30.8542 14.5919C30.3907 13.6913 29.4823 13.0996 28.4622 13.0996H28.5749C29.56 13.0996 30.4374 13.6932 30.8532 14.5919H30.8542Z" fill="#1A263C"/>
<path d="M31.6206 17.157C31.675 17.2532 31.7372 17.3397 31.8101 17.4154C31.4992 17.1036 31.367 16.5964 31.2437 15.9736C31.3534 16.4478 31.4496 16.8548 31.6197 17.157H31.6206Z" fill="#1A263C"/>
<path d="M31.8103 17.4141C31.8433 17.4471 31.8754 17.4792 31.9123 17.5073C31.8754 17.4792 31.8424 17.4471 31.8103 17.4141Z" fill="#1A263C"/>
<path d="M32.7807 11.6927C32.7545 11.4323 32.738 11.17 32.7224 10.9048C32.7282 10.9388 32.7331 10.9718 32.738 11.0058C32.7652 11.2303 32.7807 11.4596 32.7807 11.6927Z" fill="#1A263C"/>
<path d="M17.6108 18.8464C17.6108 20.1357 17.5894 21.4269 16.8112 21.4269C16.0329 21.4269 14.7942 20.1357 14.7942 18.8464C14.7942 17.5571 15.4247 16.5117 16.202 16.5117C16.9793 16.5117 17.6098 17.5571 17.6098 18.8464H17.6108Z" fill="#754525"/>
<path d="M34.1672 18.8464C34.1672 20.1357 32.9372 21.4269 32.1599 21.4269C31.3827 21.4269 31.3516 20.1357 31.3516 18.8464C31.3516 17.5571 31.9821 16.5117 32.7594 16.5117C33.5366 16.5117 34.1672 17.5571 34.1672 18.8464Z" fill="#754525"/>
<path d="M31.203 32.8125C30.5656 33.9473 28.9596 35.1365 25.0743 35.3192C21.3784 35.4921 19.5276 34.3952 18.6007 33.241C17.6495 32.0605 17.669 30.8189 17.669 30.8189V30.8169C18.1081 30.7479 18.5541 30.6867 19.0059 30.6333C18.9398 30.8286 18.9068 31.0326 18.9068 31.2386C18.9068 33.0185 21.4435 34.4623 24.5759 34.4623C27.7082 34.4623 30.245 33.0185 30.245 31.2386C30.245 31.0414 30.2129 30.847 30.1537 30.6605C30.1508 30.6518 30.1478 30.642 30.1449 30.6333C30.6249 30.6897 31.098 30.7557 31.5644 30.8305C31.6207 31.1881 31.6703 31.9848 31.2049 32.8125H31.203Z" fill="white"/>
<path d="M8.18555 49.3908L22.935 42.4858L22.9486 38.4946L25.5582 36.1123L26.7494 37.4803L25.839 39.6945L32.9091 37.1334L36.572 43.1533L28.846 48.3405L26.0916 48.5183L17.1075 53.5977L8.18555 49.3908Z" fill="#754525"/>
</g>
<path d="M27.3691 24.9486C27.3691 23.5709 26.2518 22.4536 24.8741 22.4536C23.4965 22.4536 22.3792 23.5709 22.3792 24.9486C24.0056 24.4502 25.7437 24.4502 27.3691 24.9486Z" fill="#601211"/>
<path d="M20.6283 19.3776C20.4418 19.3776 20.2465 19.3688 20.0415 19.3494L20.128 18.4361C21.9487 18.609 22.7784 17.8172 22.8134 17.7832L23.4663 18.4283C23.4245 18.4711 22.5132 19.3785 20.6283 19.3785V19.3776Z" fill="#1A263C"/>
<path d="M29.0033 19.3573C27.204 19.3573 26.313 18.5081 26.2722 18.4683L26.9105 17.8096C26.9455 17.8426 27.7927 18.616 29.6096 18.4042L29.7155 19.3155C29.4638 19.3447 29.2268 19.3583 29.0033 19.3583V19.3573Z" fill="#1A263C"/>
<path d="M44.804 26.4557L34.0798 35.0502L41.4356 23.4409L44.804 26.4557Z" fill="#FFD217"/>
<path d="M49.5316 34.028L36.0103 36.4899L48.0014 29.7754L49.5316 34.028Z" fill="#FFD217"/>
<path d="M49.35 42.2837L36.259 38.0991L50 37.8115L49.35 42.2837Z" fill="#FFD217"/>
</g>
<defs>
<linearGradient id="paint0_linear_616_3177" x1="5.46021" y1="42.4049" x2="43.8052" y2="42.4049" gradientUnits="userSpaceOnUse">
<stop offset="0.02" stop-color="#005EB2"/>
<stop offset="1" stop-color="#0BE5A1"/>
</linearGradient>
<clipPath id="clip0_616_3177">
<rect width="50" height="48.8448" fill="white"/>
</clipPath>
</defs>
</svg>
