<svg width="50" height="51" viewBox="0 0 50 51" fill="none" xmlns="http://www.w3.org/2000/svg">
<mask id="mask0_616_3289" style="mask-type:luminance" maskUnits="userSpaceOnUse" x="2" y="0" width="44" height="51">
<path d="M45.2671 0.0874023H2.24609V50.1114H45.2671V0.0874023Z" fill="white"/>
</mask>
<g mask="url(#mask0_616_3289)">
<path d="M43.7561 46.2624V55.5784H4.44312V46.2624C4.44312 38.0774 11.0791 31.4424 19.2651 31.4424H28.9341C37.1191 31.4424 43.7561 38.0774 43.7561 46.2624Z" fill="url(#paint0_linear_616_3289)"/>
<path d="M18.3311 31.4414H29.7501L30.3061 32.2284L28.5121 34.9634L22.9691 36.2414L18.8251 34.3364L17.8281 31.9154L18.3311 31.4414Z" fill="#1A263C"/>
<path d="M29.852 32.0623C29.852 33.8873 27.249 35.3673 24.04 35.3673C20.831 35.3673 18.228 33.8873 18.228 32.0623C18.228 31.8503 18.262 31.6423 18.33 31.4413C18.57 31.4413 18.786 31.3443 18.945 31.1873C19.102 31.0303 19.199 30.8123 19.199 30.5723V23.2363C19.199 23.1473 19.273 23.0713 19.364 23.0713H28.717C28.808 23.0713 28.882 23.1463 28.882 23.2363V30.5723C28.882 31.0523 29.271 31.4413 29.749 31.4413C29.752 31.4503 29.755 31.4603 29.758 31.4693C29.819 31.6603 29.852 31.8593 29.852 32.0623Z" fill="#5B341A"/>
<path d="M32.4531 16.6511C32.4531 23.1551 31.0951 28.4391 23.7991 28.4271C17.7421 28.4171 15.4351 23.1551 15.4351 16.6511L16.3471 15.0081L16.5461 9.70215L29.0081 11.0401L31.5411 14.8891L32.4531 16.6521V16.6511Z" fill="#754525"/>
<path d="M15.4771 11.3191C15.4821 11.2811 15.4861 11.2441 15.4941 11.2061C15.4781 11.4801 15.4611 11.7531 15.4341 12.0231C15.4341 11.7851 15.4481 11.5501 15.4761 11.3191H15.4771Z" fill="#1A263C"/>
<path d="M16.26 18.0325C16.304 18.0035 16.343 17.9705 16.381 17.9365C16.343 17.9715 16.303 18.0035 16.26 18.0325Z" fill="#1A263C"/>
<path d="M16.6231 17.6241C16.7991 17.3141 16.8971 16.8971 17.0101 16.4111C16.8761 17.0821 16.7351 17.6211 16.3801 17.9361C16.4761 17.8491 16.5551 17.7451 16.6231 17.6251V17.6241Z" fill="#1A263C"/>
<path d="M19.746 13.4653H19.862C18.813 13.4653 17.88 14.0753 17.405 15.0033C17.831 14.0763 18.733 13.4653 19.746 13.4653Z" fill="#1A263C"/>
<path d="M30.801 16.0201C30.826 16.1501 30.851 16.2771 30.875 16.3991C30.848 16.2861 30.822 16.1691 30.792 16.0481L30.659 15.5091C30.615 15.3291 30.554 15.1581 30.479 14.9951C30.608 15.2411 30.702 15.5111 30.758 15.7961L30.802 16.0201H30.801Z" fill="#1A263C"/>
<path d="M32.4531 12.0233V18.2393C32.2551 18.2393 32.0861 18.2173 31.9391 18.1733C31.9091 18.1643 31.8811 18.1543 31.8541 18.1453C31.7431 18.1043 31.6471 18.0513 31.5621 17.9853C31.4401 17.8893 31.3431 17.7673 31.2631 17.6243C31.0891 17.3143 30.9901 16.8973 30.8771 16.4113C30.8751 16.4083 30.8751 16.4053 30.8741 16.4003C30.8501 16.2783 30.8251 16.1513 30.8001 16.0213L30.7561 15.7973C30.7001 15.5123 30.6051 15.2423 30.4771 14.9963C30.0511 14.0743 29.1511 13.4663 28.1411 13.4663H19.7451C18.7321 13.4663 17.8311 14.0773 17.4041 15.0043C17.2791 15.2493 17.1851 15.5143 17.1301 15.7973L17.0861 16.0213C17.0611 16.1513 17.0361 16.2783 17.0121 16.4003C17.0101 16.4033 17.0101 16.4083 17.0091 16.4113C16.8961 16.8973 16.7971 17.3143 16.6221 17.6243C16.5281 17.7923 16.4121 17.9283 16.2581 18.0323L16.0321 18.1453C16.0041 18.1543 15.9761 18.1653 15.9461 18.1733L15.4331 18.2393V12.0233C15.4601 11.7533 15.4771 11.4813 15.4931 11.2063C15.6071 9.15227 15.6441 7.10327 19.5721 6.64127C20.1361 6.57427 20.7821 6.54127 21.5191 6.54427L23.9411 6.53027L26.3651 6.54427C27.1021 6.54127 27.7461 6.57427 28.3111 6.64127C32.2461 7.10427 32.2761 9.15927 32.3921 11.2163C32.4081 11.4873 32.4251 11.7573 32.4521 12.0233H32.4531Z" fill="#1A263C"/>
<path d="M17.1312 15.7964C17.1862 15.5124 17.2802 15.2474 17.4052 15.0034C17.3312 15.1634 17.2722 15.3324 17.2282 15.5094L17.0962 16.0484C17.0662 16.1694 17.0402 16.2864 17.0132 16.3994C17.0372 16.2774 17.0622 16.1504 17.0872 16.0204L17.1312 15.7964Z" fill="#1A263C"/>
<path d="M30.4781 14.9953C30.0031 14.0723 29.0721 13.4653 28.0261 13.4653H28.1421C29.1521 13.4653 30.0521 14.0733 30.4781 14.9953Z" fill="#1A263C"/>
<path d="M31.2632 17.6242C31.3182 17.7232 31.3832 17.8112 31.4582 17.8882C31.1392 17.5682 31.0042 17.0492 30.8782 16.4102C30.9912 16.8962 31.0902 17.3132 31.2642 17.6232L31.2632 17.6242Z" fill="#1A263C"/>
<path d="M31.458 17.8892C31.492 17.9232 31.525 17.9562 31.563 17.9852C31.526 17.9562 31.491 17.9232 31.458 17.8892Z" fill="#1A263C"/>
<path d="M32.4531 12.0233C32.4261 11.7563 32.4091 11.4873 32.3931 11.2163C32.3991 11.2503 32.4041 11.2853 32.4091 11.3193C32.4371 11.5493 32.4531 11.7853 32.4531 12.0233Z" fill="#1A263C"/>
<path d="M16.9002 19.3574C16.9002 20.6794 16.8782 22.0034 16.0802 22.0034C15.2822 22.0034 14.0132 20.6794 14.0132 19.3574C14.0132 18.0354 14.6592 16.9634 15.4562 16.9634C16.2532 16.9634 16.8992 18.0354 16.8992 19.3574H16.9002Z" fill="#754525"/>
<path d="M33.875 19.3574C33.875 20.6794 32.614 22.0034 31.817 22.0034C31.02 22.0034 30.988 20.6794 30.988 19.3574C30.988 18.0354 31.634 16.9634 32.431 16.9634C33.228 16.9634 33.874 18.0354 33.874 19.3574H33.875Z" fill="#754525"/>
<path d="M30.8352 33.6754C30.1812 34.8384 28.5352 36.0584 24.5512 36.2454C20.7622 36.4224 18.8652 35.2984 17.9152 34.1144C16.9402 32.9044 16.9602 31.6314 16.9602 31.6314V31.6294C17.4102 31.5584 17.8682 31.4964 18.3302 31.4414C18.2632 31.6424 18.2282 31.8504 18.2282 32.0624C18.2282 33.8874 20.8292 35.3674 24.0402 35.3674C27.2512 35.3674 29.8522 33.8874 29.8522 32.0624C29.8522 31.8604 29.8192 31.6614 29.7582 31.4694C29.7552 31.4604 29.7522 31.4504 29.7492 31.4414C30.2412 31.4994 30.7262 31.5664 31.2042 31.6434C31.2622 32.0104 31.3122 32.8274 30.8362 33.6754H30.8352Z" fill="white"/>
</g>
<path d="M26.9051 25.6132C26.9051 24.2002 25.7601 23.0552 24.3471 23.0552C22.9341 23.0552 21.7891 24.2002 21.7891 25.6132C23.4561 25.1022 25.2381 25.1022 26.9051 25.6132Z" fill="#601211"/>
<path d="M19.9941 19.9015C19.8031 19.9015 19.6031 19.8925 19.3921 19.8725L19.4801 18.9355C21.3481 19.1125 22.2221 18.2775 22.2301 18.2695L22.9021 18.9275C22.8591 18.9705 21.9251 19.9015 19.9931 19.9015H19.9941Z" fill="#1A263C"/>
<path d="M28.581 19.8815C26.736 19.8815 25.823 19.0115 25.781 18.9695L26.435 18.2935C26.471 18.3275 27.34 19.1205 29.202 18.9035L29.311 19.8375C29.053 19.8675 28.81 19.8805 28.581 19.8805V19.8815Z" fill="#1A263C"/>
<path d="M10.501 13.1772H6.59902C5.56017 13.1772 4.71802 14.0194 4.71802 15.0582V27.3992C4.71802 28.4381 5.56017 29.2802 6.59902 29.2802H10.501C11.5399 29.2802 12.382 28.4381 12.382 27.3992V15.0582C12.382 14.0194 11.5399 13.1772 10.501 13.1772Z" fill="url(#paint1_linear_616_3289)"/>
<g style="mix-blend-mode:hue">
<path d="M10.1711 13.5342H6.92913C5.98141 13.5342 5.21313 14.3025 5.21313 15.2502V27.2082C5.21313 28.1559 5.98141 28.9242 6.92913 28.9242H10.1711C11.1189 28.9242 11.8871 28.1559 11.8871 27.2082V15.2502C11.8871 14.3025 11.1189 13.5342 10.1711 13.5342Z" fill="#529FCE"/>
</g>
<path d="M8.8619 17.759L7.1499 21.307H9.2699L7.6489 24.834L10.4859 20.713H8.2099L8.8929 17.77C8.8969 17.751 8.8699 17.741 8.8619 17.759Z" fill="white"/>
<path d="M8.932 17.7931L7.222 21.3421L7.15 21.2271L9.27 21.2291H9.393L9.341 21.3401L7.696 24.8561L7.605 24.8041L10.421 20.6691L10.486 20.7921H8.111L8.133 20.6961L8.48 19.2011C8.56 18.8591 8.705 18.2301 8.784 17.8921L8.806 17.7991L8.816 17.7561C8.803 17.8261 8.903 17.8571 8.932 17.7941V17.7931ZM8.791 17.7251C8.836 17.6281 8.992 17.6751 8.97 17.7831L8.958 17.8331C8.92 17.9981 8.845 18.3181 8.806 18.4871C8.696 18.9601 8.399 20.2411 8.285 20.7301L8.209 20.6341H10.635L10.549 20.7571L7.691 24.8631L7.6 24.8111L9.198 21.2731L9.269 21.3841L7.149 21.3861H7.021L7.077 21.2711L8.79 17.7231L8.791 17.7251Z" fill="white"/>
<path d="M9.63004 11.8315H7.60903C7.23735 11.8315 6.93604 12.1329 6.93604 12.5045V12.5055C6.93604 12.8772 7.23735 13.1785 7.60903 13.1785H9.63004C10.0017 13.1785 10.303 12.8772 10.303 12.5055V12.5045C10.303 12.1329 10.0017 11.8315 9.63004 11.8315Z" fill="url(#paint2_linear_616_3289)"/>
<path d="M9.63004 29.2803H7.60903C7.23735 29.2803 6.93604 29.5816 6.93604 29.9533V29.9543C6.93604 30.326 7.23735 30.6273 7.60903 30.6273H9.63004C10.0017 30.6273 10.303 30.326 10.303 29.9543V29.9533C10.303 29.5816 10.0017 29.2803 9.63004 29.2803Z" fill="url(#paint3_linear_616_3289)"/>
<path d="M38.5081 25.8365C38.4151 25.8945 38.3011 25.9675 38.1661 26.0575C37.8801 26.2685 37.5421 26.6325 37.1511 27.1485C36.8521 27.5505 36.5521 27.9545 36.2531 28.3585L36.2431 28.3715C36.3661 28.3685 36.6641 28.3565 37.1361 28.3355C37.5061 28.3185 37.8021 28.3105 38.0211 28.3105C38.2631 28.3105 38.4271 28.3195 38.5131 28.3385C38.7161 28.3825 38.8211 28.4795 38.8281 28.6305C38.8331 28.7425 38.7941 28.8305 38.7111 28.8945C38.6401 28.9505 38.5551 28.9785 38.4551 28.9785C38.4061 28.9785 38.3321 28.9755 38.2341 28.9695C38.1361 28.9635 38.0621 28.9605 38.0131 28.9605C37.7561 28.9605 37.3701 28.9665 36.8551 28.9795C36.3401 28.9925 35.9541 28.9985 35.6971 28.9985C35.5871 28.9985 35.4971 28.9705 35.4261 28.9145C35.3471 28.8535 35.3071 28.7685 35.3071 28.6585C35.3071 28.5365 35.3601 28.3925 35.4671 28.2245C35.5011 28.1725 35.5961 28.0445 35.7541 27.8415C36.0311 27.4715 36.3101 27.1015 36.5891 26.7325C36.9201 26.3065 37.2311 25.9615 37.5201 25.6975C37.2561 25.7165 37.0551 25.7255 36.9161 25.7255H35.8911C35.8721 25.7255 35.8451 25.7265 35.8101 25.7295C35.7751 25.7325 35.7471 25.7335 35.7291 25.7335C35.6291 25.7335 35.5451 25.7045 35.4751 25.6475C35.3971 25.5835 35.3581 25.4965 35.3581 25.3885C35.3581 25.1565 35.5301 25.0405 35.8731 25.0405C35.9901 25.0405 36.1641 25.0475 36.3961 25.0625C36.6281 25.0765 36.8021 25.0845 36.9191 25.0845C37.0491 25.0845 37.2441 25.0815 37.5041 25.0745C37.7641 25.0675 37.9581 25.0645 38.0891 25.0645C38.5931 25.0645 38.8451 25.1745 38.8451 25.3945C38.8451 25.5345 38.7331 25.6825 38.5101 25.8385L38.5081 25.8365Z" fill="url(#paint4_linear_616_3289)"/>
<path d="M42.054 18.7322C41.909 18.8222 41.731 18.9362 41.52 19.0762C41.074 19.4062 40.547 19.9732 39.937 20.7782C39.47 21.4062 39.003 22.0352 38.536 22.6662L38.52 22.6862C38.713 22.6812 39.177 22.6622 39.913 22.6312C40.491 22.6052 40.951 22.5912 41.294 22.5912C41.671 22.5912 41.927 22.6062 42.062 22.6352C42.379 22.7042 42.542 22.8552 42.553 23.0902C42.561 23.2642 42.5 23.4012 42.371 23.5022C42.26 23.5892 42.127 23.6332 41.971 23.6332C41.894 23.6332 41.78 23.6282 41.627 23.6192C41.474 23.6102 41.359 23.6052 41.283 23.6052C40.882 23.6052 40.28 23.6152 39.476 23.6352C38.673 23.6552 38.07 23.6652 37.67 23.6652C37.498 23.6652 37.357 23.6212 37.247 23.5342C37.123 23.4392 37.061 23.3062 37.061 23.1342C37.061 22.9442 37.144 22.7192 37.31 22.4572C37.363 22.3752 37.512 22.1762 37.757 21.8592C38.19 21.2812 38.624 20.7052 39.059 20.1302C39.576 19.4652 40.06 18.9272 40.511 18.5152C40.099 18.5442 39.786 18.5592 39.569 18.5592H37.97C37.941 18.5592 37.899 18.5612 37.843 18.5652C37.788 18.5692 37.745 18.5712 37.716 18.5712C37.56 18.5712 37.429 18.5262 37.32 18.4362C37.198 18.3362 37.138 18.2012 37.138 18.0322C37.138 17.6712 37.406 17.4902 37.941 17.4902C38.123 17.4902 38.395 17.5012 38.756 17.5242C39.117 17.5462 39.389 17.5582 39.571 17.5582C39.774 17.5582 40.078 17.5532 40.483 17.5422C40.888 17.5322 41.192 17.5262 41.395 17.5262C42.181 17.5262 42.574 17.6972 42.574 18.0402C42.574 18.2592 42.4 18.4902 42.052 18.7332L42.054 18.7322Z" fill="url(#paint5_linear_616_3289)"/>
<path d="M46.7971 9.97339C46.5991 10.0964 46.3551 10.2524 46.0671 10.4434C45.4581 10.8944 44.7371 11.6684 43.9051 12.7674C43.2671 13.6254 42.6291 14.4844 41.9911 15.3464L41.9691 15.3734C42.2321 15.3664 42.8661 15.3414 43.8721 15.2974C44.6611 15.2614 45.2901 15.2434 45.7591 15.2434C46.2741 15.2434 46.6241 15.2634 46.8081 15.3024C47.2401 15.3964 47.4641 15.6034 47.4781 15.9244C47.4891 16.1624 47.4061 16.3494 47.2291 16.4864C47.0781 16.6054 46.8961 16.6644 46.6831 16.6644C46.5781 16.6644 46.4221 16.6584 46.2131 16.6454C46.0041 16.6324 45.8471 16.6264 45.7431 16.6264C45.1951 16.6264 44.3731 16.6404 43.2751 16.6664C42.1781 16.6934 41.3551 16.7074 40.8071 16.7074C40.5731 16.7074 40.3801 16.6474 40.2291 16.5294C40.0601 16.3994 39.9751 16.2174 39.9751 15.9834C39.9751 15.7244 40.0881 15.4154 40.3161 15.0594C40.3881 14.9474 40.5921 14.6754 40.9271 14.2434C41.5181 13.4544 42.1111 12.6664 42.7061 11.8814C43.4121 10.9734 44.0741 10.2384 44.6901 9.67639C44.1281 9.71639 43.6991 9.73539 43.4041 9.73539H41.2201C41.1801 9.73539 41.1231 9.73839 41.0471 9.74339C40.9711 9.74839 40.9141 9.75139 40.8741 9.75139C40.6611 9.75139 40.4811 9.69039 40.3341 9.56739C40.1681 9.43039 40.0851 9.24639 40.0851 9.01639C40.0851 8.52239 40.4511 8.27539 41.1821 8.27539C41.4311 8.27539 41.8021 8.29039 42.2951 8.32139C42.7891 8.35239 43.1601 8.36739 43.4091 8.36739C43.6861 8.36739 44.1021 8.36039 44.6551 8.34539C45.2081 8.33139 45.6231 8.32339 45.9011 8.32339C46.9751 8.32339 47.5121 8.55739 47.5121 9.02639C47.5121 9.32539 47.2741 9.64039 46.7981 9.97239L46.7971 9.97339Z" fill="url(#paint6_linear_616_3289)"/>
<defs>
<linearGradient id="paint0_linear_616_3289" x1="4.44312" y1="43.5094" x2="43.7561" y2="43.5094" gradientUnits="userSpaceOnUse">
<stop offset="0.02" stop-color="#005EB2"/>
<stop offset="1" stop-color="#0BE5A1"/>
</linearGradient>
<linearGradient id="paint1_linear_616_3289" x1="1.83802" y1="24.2922" x2="15.088" y2="18.2452" gradientUnits="userSpaceOnUse">
<stop offset="0.02" stop-color="#005EB2"/>
<stop offset="1" stop-color="#0BE5A1"/>
</linearGradient>
<linearGradient id="paint2_linear_616_3289" x1="6.93604" y1="12.5045" x2="10.303" y2="12.5045" gradientUnits="userSpaceOnUse">
<stop offset="0.02" stop-color="#005EB2"/>
<stop offset="1" stop-color="#0BE5A1"/>
</linearGradient>
<linearGradient id="paint3_linear_616_3289" x1="6.93604" y1="29.9533" x2="10.303" y2="29.9533" gradientUnits="userSpaceOnUse">
<stop offset="0.02" stop-color="#005EB2"/>
<stop offset="1" stop-color="#0BE5A1"/>
</linearGradient>
<linearGradient id="paint4_linear_616_3289" x1="35.3061" y1="27.0185" x2="38.8431" y2="27.0185" gradientUnits="userSpaceOnUse">
<stop offset="0.02" stop-color="#005EB2"/>
<stop offset="1" stop-color="#0BE5A1"/>
</linearGradient>
<linearGradient id="paint5_linear_616_3289" x1="37.06" y1="20.5762" x2="42.576" y2="20.5762" gradientUnits="userSpaceOnUse">
<stop offset="0.02" stop-color="#005EB2"/>
<stop offset="1" stop-color="#0BE5A1"/>
</linearGradient>
<linearGradient id="paint6_linear_616_3289" x1="39.9751" y1="12.4924" x2="47.5101" y2="12.4924" gradientUnits="userSpaceOnUse">
<stop offset="0.02" stop-color="#005EB2"/>
<stop offset="1" stop-color="#0BE5A1"/>
</linearGradient>
</defs>
</svg>
