<svg width="50" height="51" viewBox="0 0 50 51" fill="none" xmlns="http://www.w3.org/2000/svg">
<mask id="mask0_616_3607" style="mask-type:luminance" maskUnits="userSpaceOnUse" x="2" y="0" width="45" height="51">
<path d="M46.2811 0H2.51709V50.889H46.2811V0Z" fill="white"/>
</mask>
<g mask="url(#mask0_616_3607)">
<path d="M44.7442 46.9725V56.4495H4.7522V46.9725C4.7522 38.6455 11.5032 31.8955 19.8302 31.8955H29.6662C37.9932 31.8955 44.7442 38.6455 44.7442 46.9725Z" fill="url(#paint0_linear_616_3607)"/>
<path d="M18.8801 31.8955H30.4961L31.0631 32.6955L29.2371 35.4785L23.5981 36.7785L19.3831 34.8405L18.3691 32.3775L18.8801 31.8955Z" fill="#1A263C"/>
<path d="M30.6011 32.5278C30.6011 34.3838 27.9531 35.8898 24.6891 35.8898C21.4251 35.8898 18.7771 34.3838 18.7771 32.5278C18.7771 32.3128 18.8121 32.1008 18.8811 31.8958C19.1251 31.8958 19.3451 31.7968 19.5061 31.6378C19.6651 31.4788 19.7641 31.2568 19.7641 31.0128V23.5498C19.7641 23.4588 19.8391 23.3828 19.9311 23.3828H29.4461C29.5381 23.3828 29.6131 23.4598 29.6131 23.5498V31.0128C29.6131 31.5008 30.0091 31.8968 30.4951 31.8968C30.4981 31.9068 30.5011 31.9158 30.5051 31.9258C30.5671 32.1208 30.6011 32.3228 30.6011 32.5288V32.5278Z" fill="#5B341A"/>
<path d="M33.2461 16.8507C33.2461 23.4667 31.8641 28.8427 24.4421 28.8297C18.2801 28.8197 15.9331 23.4667 15.9331 16.8507L16.8601 15.1797L17.0631 9.78174L29.7411 11.1427L32.3181 15.0577L33.2451 16.8507H33.2461Z" fill="#754525"/>
<path d="M15.9771 11.4255C15.9821 11.3875 15.9871 11.3485 15.9951 11.3105C15.9791 11.5895 15.9621 11.8675 15.9341 12.1415C15.9341 11.8995 15.9481 11.6595 15.9771 11.4255Z" fill="#1A263C"/>
<path d="M16.7732 18.2547C16.8182 18.2257 16.8572 18.1917 16.8962 18.1567C16.8582 18.1917 16.8172 18.2247 16.7732 18.2547Z" fill="#1A263C"/>
<path d="M17.1432 17.8395C17.3222 17.5235 17.4222 17.0995 17.5372 16.6055C17.4002 17.2875 17.2572 17.8365 16.8962 18.1565C16.9932 18.0675 17.0742 17.9625 17.1432 17.8395Z" fill="#1A263C"/>
<path d="M20.3202 13.6089H20.4382C19.3712 13.6089 18.4222 14.2289 17.9392 15.1739C18.3732 14.2309 19.2902 13.6089 20.3202 13.6089Z" fill="#1A263C"/>
<path d="M31.5663 16.2085C31.5923 16.3405 31.6173 16.4705 31.6413 16.5945C31.6143 16.4795 31.5873 16.3605 31.5563 16.2375L31.4203 15.6885C31.3753 15.5055 31.3133 15.3315 31.2373 15.1655C31.3683 15.4155 31.4633 15.6905 31.5213 15.9805L31.5663 16.2085Z" fill="#1A263C"/>
<path d="M33.2471 12.1417V18.4657C33.0461 18.4657 32.8741 18.4437 32.7241 18.3987C32.6941 18.3887 32.6651 18.3797 32.6381 18.3697C32.5251 18.3287 32.4271 18.2737 32.3411 18.2067C32.2171 18.1097 32.1181 17.9847 32.0361 17.8397C31.8591 17.5237 31.7581 17.0997 31.6441 16.6057C31.6421 16.6027 31.6421 16.5997 31.6411 16.5947C31.6171 16.4707 31.5921 16.3407 31.5661 16.2087L31.5211 15.9807C31.4641 15.6907 31.3681 15.4157 31.2371 15.1657C30.8031 14.2277 29.8881 13.6087 28.8611 13.6087H20.3201C19.2901 13.6087 18.3731 14.2307 17.9391 15.1737C17.8111 15.4227 17.7161 15.6917 17.6601 15.9807L17.6151 16.2087C17.5891 16.3407 17.5641 16.4707 17.5401 16.5947C17.5381 16.5977 17.5381 16.6027 17.5371 16.6057C17.4221 17.0997 17.3221 17.5247 17.1431 17.8397C17.0471 18.0107 16.9291 18.1487 16.7731 18.2547L16.5431 18.3697C16.5141 18.3797 16.4861 18.3907 16.4551 18.3987L15.9331 18.4657V12.1417C15.9601 11.8677 15.9781 11.5897 15.9941 11.3107C16.1101 9.22171 16.1471 7.13671 20.1441 6.66671C20.7181 6.59771 21.3751 6.56471 22.1251 6.56771L24.5891 6.55371L27.0551 6.56771C27.8051 6.56471 28.4601 6.59771 29.0341 6.66671C33.0371 7.13671 33.0671 9.22771 33.1861 11.3207C33.2021 11.5967 33.2191 11.8707 33.2471 12.1417Z" fill="#1A263C"/>
<path d="M17.6603 15.9808C17.7163 15.6918 17.8123 15.4228 17.9393 15.1738C17.8643 15.3368 17.8033 15.5088 17.7593 15.6888L17.6253 16.2378C17.5953 16.3608 17.5683 16.4798 17.5403 16.5948C17.5643 16.4708 17.5893 16.3408 17.6153 16.2088L17.6603 15.9808Z" fill="#1A263C"/>
<path d="M31.2372 15.1659C30.7542 14.2269 29.8062 13.6089 28.7432 13.6089H28.8612C29.8882 13.6089 30.8042 14.2279 31.2372 15.1659Z" fill="#1A263C"/>
<path d="M32.0363 17.8395C32.0923 17.9405 32.1583 18.0295 32.2343 18.1085C31.9093 17.7835 31.7723 17.2545 31.6443 16.6055C31.7593 17.0995 31.8593 17.5245 32.0363 17.8395Z" fill="#1A263C"/>
<path d="M32.2341 18.1089C32.2681 18.1429 32.3021 18.1769 32.3411 18.2069C32.3031 18.1769 32.2681 18.1439 32.2341 18.1089Z" fill="#1A263C"/>
<path d="M33.2473 12.1418C33.2203 11.8708 33.2023 11.5968 33.1863 11.3208C33.1923 11.3558 33.1973 11.3908 33.2023 11.4258C33.2313 11.6598 33.2473 11.8998 33.2473 12.1418Z" fill="#1A263C"/>
<path d="M17.4253 19.6025C17.4253 20.9475 17.4023 22.2945 16.5913 22.2945C15.7803 22.2945 14.4883 20.9475 14.4883 19.6025C14.4883 18.2575 15.1453 17.1675 15.9563 17.1675C16.7673 17.1675 17.4243 18.2575 17.4243 19.6025H17.4253Z" fill="#754525"/>
<path d="M34.6931 19.6025C34.6931 20.9475 33.4101 22.2945 32.5991 22.2945C31.7881 22.2945 31.7561 20.9475 31.7561 19.6025C31.7561 18.2575 32.4131 17.1675 33.2241 17.1675C34.0351 17.1675 34.6921 18.2575 34.6921 19.6025H34.6931Z" fill="#754525"/>
<path d="M31.6011 34.1685C30.9361 35.3515 29.2611 36.5925 25.2091 36.7825C21.3541 36.9625 19.4241 35.8195 18.4581 34.6155C17.4661 33.3845 17.4871 32.0895 17.4871 32.0895V32.0875C17.9451 32.0155 18.4101 31.9515 18.8811 31.8965C18.8121 32.1005 18.7771 32.3125 18.7771 32.5285C18.7771 34.3845 21.4231 35.8905 24.6891 35.8905C27.9551 35.8905 30.6011 34.3845 30.6011 32.5285C30.6011 32.3225 30.5681 32.1205 30.5051 31.9255C30.5021 31.9155 30.4991 31.9065 30.4951 31.8965C30.9961 31.9555 31.4891 32.0245 31.9751 32.1025C32.0341 32.4755 32.0851 33.3065 31.6001 34.1695L31.6011 34.1685Z" fill="white"/>
</g>
<path d="M27.6022 25.9672C27.6022 24.5302 26.4372 23.3652 25.0002 23.3652C23.5632 23.3652 22.3982 24.5302 22.3982 25.9672C24.0942 25.4472 25.9072 25.4472 27.6032 25.9672H27.6022Z" fill="#601211"/>
<path d="M21.503 21.0742C20.696 21.0742 19.922 20.5532 19.584 19.9012C19.463 19.6672 19.105 18.8402 19.59 18.0512C20.108 17.2092 21.12 17.1982 21.169 17.1982V17.5272C21.129 17.5272 20.294 17.5362 19.871 18.2242C19.476 18.8662 19.776 19.5552 19.877 19.7512C20.242 20.4552 21.202 20.9822 22.05 20.6422C22.441 20.4862 22.924 20.0792 23 19.4472C23.001 19.4372 23.105 18.5132 22.417 18.1142C21.954 17.8452 21.305 17.9312 20.94 18.3082C20.864 18.3862 20.496 18.7982 20.66 19.2132C20.761 19.4672 21.03 19.6522 21.316 19.6632C21.568 19.6762 21.938 19.5522 21.978 19.3032C22.004 19.1452 21.9 18.9582 21.714 18.8272L21.902 18.5582C22.195 18.7632 22.349 19.0692 22.302 19.3552C22.227 19.8162 21.677 20.0022 21.304 19.9912C20.886 19.9762 20.504 19.7122 20.355 19.3342C20.122 18.7472 20.564 18.2262 20.704 18.0802C21.177 17.5912 21.984 17.4842 22.582 17.8312C23.456 18.3382 23.333 19.4412 23.327 19.4872C23.234 20.2622 22.647 20.7582 22.173 20.9482C21.954 21.0362 21.728 21.0762 21.505 21.0762L21.503 21.0742Z" fill="#1A263C"/>
<path d="M28.1541 21.0742C27.3471 21.0742 26.5731 20.5532 26.2351 19.9012C26.1141 19.6672 25.7561 18.8402 26.2411 18.0512C26.7591 17.2092 27.7711 17.1982 27.8201 17.1982V17.5272C27.7801 17.5272 26.9451 17.5362 26.5221 18.2242C26.1271 18.8662 26.4271 19.5552 26.5281 19.7512C26.8931 20.4552 27.8531 20.9822 28.7011 20.6422C29.0921 20.4862 29.5751 20.0792 29.6511 19.4472C29.6521 19.4372 29.7561 18.5132 29.0681 18.1142C28.6051 17.8452 27.9561 17.9312 27.5911 18.3082C27.5151 18.3862 27.1471 18.7982 27.3111 19.2132C27.4121 19.4672 27.6811 19.6522 27.9671 19.6632C28.2171 19.6762 28.5891 19.5522 28.6291 19.3032C28.6551 19.1452 28.5511 18.9582 28.3651 18.8272L28.5531 18.5582C28.8461 18.7632 29.0001 19.0692 28.9531 19.3552C28.8781 19.8162 28.3281 20.0022 27.9551 19.9912C27.5371 19.9762 27.1551 19.7122 27.0061 19.3342C26.7731 18.7472 27.2151 18.2262 27.3551 18.0802C27.8281 17.5912 28.6351 17.4842 29.2331 17.8312C30.1071 18.3382 29.9841 19.4412 29.9781 19.4872C29.8851 20.2622 29.2981 20.7582 28.8241 20.9482C28.6051 21.0362 28.3791 21.0762 28.1561 21.0762L28.1541 21.0742Z" fill="#1A263C"/>
<path d="M42.0952 12.922C42.0462 12.955 41.4682 13.331 40.3622 14.051C39.6552 14.505 39.1142 14.927 38.7382 15.317C38.3972 15.667 38.0292 15.836 37.6322 15.822C37.2352 15.808 36.9062 15.654 36.6222 15.36C36.3382 15.066 36.2032 14.735 36.2162 14.366C36.2352 13.82 36.6972 13.224 37.6032 12.579C38.4362 12.034 39.2692 11.486 40.1032 10.934C41.0082 10.296 41.4702 9.70696 41.4892 9.16696C41.5112 8.53196 41.2102 7.92396 40.5842 7.34496C39.9582 6.76496 39.2972 6.46296 38.6002 6.43896C38.2312 6.42596 37.7182 6.61796 37.0612 7.01596C36.4042 7.41296 35.9422 7.60696 35.6762 7.59796C35.2732 7.58396 34.9382 7.42296 34.6722 7.11596C34.4062 6.80896 34.2792 6.47496 34.2922 6.11296C34.3162 5.42996 34.9362 4.82596 36.1512 4.30096C37.1792 3.85196 38.0282 3.63896 38.6982 3.66296C40.1802 3.71496 41.5012 4.30896 42.6612 5.44496C43.8212 6.57996 44.3762 7.85496 44.3262 9.26896C44.2762 10.669 43.5322 11.888 42.0942 12.924L42.0952 12.922ZM36.9162 20.115C36.5272 20.101 36.1762 19.966 35.8632 19.708C35.5242 19.422 35.3622 19.078 35.3762 18.675C35.3922 18.211 35.5442 17.785 35.8322 17.399C36.1772 16.926 36.6262 16.699 37.1792 16.718C37.6432 16.734 37.9992 16.921 38.2472 17.279C38.4422 17.573 38.5322 17.915 38.5192 18.304C38.5042 18.721 38.3782 19.106 38.1402 19.46C37.8372 19.914 37.4292 20.132 36.9162 20.114V20.115Z" fill="url(#paint1_linear_616_3607)"/>
<path d="M42.771 20.5782C42.743 20.5792 42.421 20.5942 41.804 20.6222C41.411 20.6372 41.092 20.6792 40.848 20.7482C40.627 20.8092 40.439 20.7892 40.282 20.6892C40.128 20.5912 40.029 20.4492 39.984 20.2632C39.939 20.0772 39.963 19.9112 40.056 19.7652C40.193 19.5492 40.521 19.4182 41.04 19.3732C41.506 19.3512 41.972 19.3272 42.439 19.3022C42.956 19.2592 43.282 19.1312 43.418 18.9182C43.578 18.6672 43.6 18.3502 43.485 17.9682C43.37 17.5862 43.175 17.3072 42.899 17.1312C42.753 17.0382 42.5 16.9942 42.141 16.9992C41.782 17.0032 41.549 16.9722 41.444 16.9052C41.285 16.8042 41.188 16.6592 41.153 16.4722C41.118 16.2852 41.147 16.1202 41.238 15.9772C41.41 15.7072 41.803 15.6102 42.418 15.6872C42.94 15.7502 43.333 15.8652 43.597 16.0342C44.183 16.4072 44.575 16.9602 44.774 17.6942C44.973 18.4282 44.894 19.0742 44.539 19.6332C44.187 20.1872 43.597 20.5022 42.77 20.5792L42.771 20.5782ZM38.973 22.2522C38.819 22.1542 38.71 22.0162 38.645 21.8382C38.576 21.6422 38.592 21.4652 38.694 21.3062C38.811 21.1222 38.973 20.9872 39.181 20.8992C39.433 20.7902 39.668 20.8052 39.886 20.9442C40.07 21.0612 40.169 21.2212 40.184 21.4242C40.193 21.5892 40.148 21.7482 40.05 21.9022C39.945 22.0672 39.803 22.1922 39.623 22.2792C39.393 22.3902 39.176 22.3822 38.974 22.2532L38.973 22.2522Z" fill="url(#paint2_linear_616_3607)"/>
<defs>
<linearGradient id="paint0_linear_616_3607" x1="4.7522" y1="44.1725" x2="44.7442" y2="44.1725" gradientUnits="userSpaceOnUse">
<stop offset="0.02" stop-color="#005EB2"/>
<stop offset="1" stop-color="#0BE5A1"/>
</linearGradient>
<linearGradient id="paint1_linear_616_3607" x1="34.092" y1="11.7594" x2="44.2256" y2="12.1185" gradientUnits="userSpaceOnUse">
<stop offset="0.02" stop-color="#005EB2"/>
<stop offset="1" stop-color="#0BE5A1"/>
</linearGradient>
<linearGradient id="paint2_linear_616_3607" x1="39.8161" y1="18.2105" x2="43.8215" y2="20.7602" gradientUnits="userSpaceOnUse">
<stop offset="0.02" stop-color="#005EB2"/>
<stop offset="1" stop-color="#0BE5A1"/>
</linearGradient>
</defs>
</svg>
