<svg width="17" height="18" viewBox="0 0 17 18" fill="none" xmlns="http://www.w3.org/2000/svg">
<g clip-path="url(#clip0_468_313)">
<g opacity="0.3">
<path d="M1.40747 0.921925V16.4034C1.40747 16.59 1.48161 16.769 1.61358 16.901C1.74555 17.033 1.92454 17.1071 2.11117 17.1071H14.7778C14.9645 17.1071 15.1435 17.033 15.2754 16.901C15.4074 16.769 15.4815 16.59 15.4815 16.4034V0.921925C15.4815 0.735292 15.4074 0.556302 15.2754 0.424332C15.1435 0.292362 14.9645 0.218222 14.7778 0.218222L2.11117 0.218222C1.92454 0.218222 1.74555 0.292362 1.61358 0.424332C1.48161 0.556302 1.40747 0.735292 1.40747 0.921925ZM3.51858 3.73674H7.7408V7.95896H3.51858V3.73674ZM13.3704 13.5886H3.51858V12.1812H13.3704V13.5886ZM13.3704 10.7738H3.51858V9.36637H13.3704V10.7738ZM13.3704 7.95896H9.14821V6.55156H13.3704V7.95896ZM13.3704 5.14415H9.14821V3.73674H13.3704V5.14415Z" fill="white"/>
</g>
</g>
<defs>
<clipPath id="clip0_468_313">
<rect width="16.8889" height="16.8889" fill="white" transform="translate(0 0.218222)"/>
</clipPath>
</defs>
</svg>
