<svg width="15" height="17" viewBox="0 0 15 17" fill="none" xmlns="http://www.w3.org/2000/svg">
<path d="M0 0.703704V16.1852C0 16.3718 0.07414 16.5508 0.20611 16.6828C0.33808 16.8147 0.51707 16.8889 0.703704 16.8889H13.3704C13.557 16.8889 13.736 16.8147 13.868 16.6828C13.9999 16.5508 14.0741 16.3718 14.0741 16.1852V0.703704C14.0741 0.51707 13.9999 0.33808 13.868 0.20611C13.736 0.07414 13.557 0 13.3704 0L0.703704 0C0.51707 0 0.33808 0.07414 0.20611 0.20611C0.07414 0.33808 0 0.51707 0 0.703704V0.703704ZM2.11111 3.51852H6.33333V7.74074H2.11111V3.51852ZM11.963 13.3704H2.11111V11.963H11.963V13.3704ZM11.963 10.5556H2.11111V9.14815H11.963V10.5556ZM11.963 7.74074H7.74074V6.33333H11.963V7.74074ZM11.963 4.92593H7.74074V3.51852H11.963V4.92593Z" fill="white"/>
</svg>
