<svg width="17" height="18" viewBox="0 0 17 18" fill="none" xmlns="http://www.w3.org/2000/svg">
<g clip-path="url(#clip0_192_136)">
<g opacity="0.6">
<path d="M1.40735 1.25937V16.7408C1.40735 16.9275 1.48149 17.1065 1.61346 17.2384C1.74543 17.3704 1.92442 17.4446 2.11105 17.4446H14.7777C14.9644 17.4446 15.1433 17.3704 15.2753 17.2384C15.4073 17.1065 15.4814 16.9275 15.4814 16.7408V1.25937C15.4814 1.07273 15.4073 0.893744 15.2753 0.761774C15.1433 0.629804 14.9644 0.555664 14.7777 0.555664H2.11105C1.92442 0.555664 1.74543 0.629804 1.61346 0.761774C1.48149 0.893744 1.40735 1.07273 1.40735 1.25937ZM3.51846 4.07418H7.74068V8.2964H3.51846V4.07418ZM13.3703 13.926H3.51846V12.5186H13.3703V13.926ZM13.3703 11.1112H3.51846V9.70381H13.3703V11.1112ZM13.3703 8.2964H9.14809V6.889H13.3703V8.2964ZM13.3703 5.48159H9.14809V4.07418H13.3703V5.48159Z" fill="#1A263C"/>
</g>
</g>
<defs>
<clipPath id="clip0_192_136">
<rect width="16.8889" height="16.8889" fill="white" transform="translate(0 0.555664)"/>
</clipPath>
</defs>
</svg>
