<svg width="54" height="21" viewBox="0 0 54 21" fill="none" xmlns="http://www.w3.org/2000/svg">
<g opacity="0.8">
<path d="M17.545 8.4362V4.63307H17.2179V4.36658C17.34 4.11133 17.4606 3.78705 17.4606 3.46116C17.4606 2.69701 16.9209 2.04202 16.235 1.91841L16.2245 1.77232C16.2848 1.70329 16.3225 1.61499 16.3225 1.52028C16.3225 1.40148 16.2667 1.29713 16.1838 1.22649L16.1009 0.166957C16.1054 0.152509 16.1114 0.136456 16.1114 0.120402C16.1114 0.0561877 16.0587 0 15.9969 0C15.9336 0 15.8838 0.0561877 15.8838 0.120402C15.8838 0.126824 15.8838 0.13485 15.8853 0.136456H15.8748L15.7843 1.22489C15.6984 1.29071 15.6411 1.39988 15.6411 1.51867C15.6411 1.61339 15.6788 1.70008 15.7391 1.77072L15.724 1.91841C15.0592 2.05968 14.5346 2.70503 14.5346 3.45956C14.5346 3.78544 14.6583 4.10972 14.7788 4.36498V4.63949H14.4593V8.45705H13.5322V5.77449L13.8277 5.4775V5.03281L13.5262 4.85943L13.5156 4.84017L13.3649 4.53354H12.9443L12.9413 4.53675L12.7137 4.79682H12.7107L12.6956 4.8193L12.6595 4.85943H12.6654L12.6519 4.87549H11.0164L10.742 4.56244H10.3214L10.0456 4.87549H9.36121L9.08232 4.56244H8.66174L8.38741 4.87549H6.82572L6.80161 4.85461L6.51971 4.53515H6.10066L6.01925 4.70532L5.93785 4.86264L5.8263 4.92525L5.63787 5.03602V5.4807L5.93333 5.7777V8.46024H4.93693V4.62183H4.63243V4.36498C4.75453 4.10972 4.87512 3.78544 4.87512 3.45956C4.87512 2.70503 4.34903 2.05647 3.67522 1.91841L3.66316 1.77072C3.72345 1.70169 3.75662 1.61339 3.75662 1.51867C3.75662 1.39988 3.70536 1.29553 3.62095 1.22489L3.53502 0.136456H3.52146C3.52296 0.13485 3.52296 0.126824 3.52296 0.120402C3.52296 0.0561877 3.47322 0 3.40991 0C3.3481 0 3.29535 0.0561877 3.29535 0.120402C3.29535 0.136456 3.30138 0.15572 3.30892 0.170169L3.21846 1.22489C3.13405 1.29071 3.07828 1.39988 3.07828 1.51867C3.07828 1.61339 3.11446 1.70008 3.17476 1.77072L3.16269 1.9168C2.48285 2.04844 1.94922 2.69862 1.94922 3.45956C1.94922 3.78544 2.06982 4.10972 2.19342 4.3714V4.62183H1.89495V8.45705H0.972412V9.04303H1.0101L1.35228 9.36408V12.5861H0.993516V13.1367L1.35379 13.4754V15.6892H0.993516V16.2446L1.35379 16.5786V18.6046L0.993516 18.9336V19.7893H0.972412V20.3736H18.4163V19.7893H18.4012V18.9336L18.0424 18.6046V18.5789H18.047V16.5529L18.4027 16.2189V15.6684H18.047V13.4513L18.4027 13.1142V12.5619H18.047V9.33519L18.3846 9.01892H18.4223V8.4362H17.545ZM17.5013 18.6013H17.4907L17.4938 18.6062L17.8661 19.2965V19.7925H1.53016V19.2965L1.90249 18.6062L1.90852 18.6013H1.89646V9.04303H2.44215V5.21261H2.75569V5.20138H2.75871V4.62344H2.75117L2.74665 4.08886C2.57179 3.87374 2.4934 3.68591 2.4934 3.4435C2.49491 2.92818 2.91849 2.49313 3.41142 2.49313C3.91188 2.49473 4.32943 2.92979 4.32943 3.4435C4.32943 3.68591 4.25105 3.9235 4.08674 4.0696V4.0728L4.0777 4.62344H4.07167V4.96057L4.06715 5.21261H4.39124V9.04303H6.47601V5.67817L6.37953 5.44378H6.36898L6.34486 5.3892L6.76693 5.45502H12.7273L12.7288 5.46144L12.9911 5.40846L13.0936 5.3892L13.0664 5.45502H13.0815L12.9911 5.67977V9.04463H15.0035V5.21261H15.3396L15.3321 4.08886C15.1572 3.87374 15.0804 3.68591 15.0804 3.4435C15.0804 2.92818 15.5054 2.49313 15.9984 2.49313C16.5003 2.49473 16.9149 2.92979 16.9149 3.4435C16.9149 3.68591 16.8365 3.9235 16.6737 4.0696V5.21261H16.9993V9.04303H17.4982V18.5804H17.5013V18.6013Z" fill="#1A263C"/>
<path d="M53.9931 14.6655V15.4559H49.6252V14.6655H53.9931ZM53.9296 11.1021L50.1881 15.4559H49.2951V14.8749L53.0662 10.5381H53.9296V11.1021ZM53.4936 10.5381V11.3319H49.2993V10.5381H53.4936Z" fill="#1A263C"/>
<path d="M47.5451 10.5381H48.6239V13.7433C48.6239 14.1165 48.5374 14.4308 48.3642 14.6862C48.1933 14.9416 47.9564 15.1338 47.6533 15.2626C47.3526 15.3914 47.0062 15.4559 46.6141 15.4559C46.222 15.4559 45.8732 15.3914 45.5677 15.2626C45.2646 15.1338 45.0264 14.9416 44.8533 14.6862C44.6825 14.4308 44.597 14.1165 44.597 13.7433V10.5381H45.6796V13.7433C45.6796 13.961 45.7168 14.1387 45.7914 14.2764C45.866 14.4141 45.973 14.5152 46.1125 14.5796C46.2544 14.644 46.4217 14.6762 46.6141 14.6762C46.8114 14.6762 46.9786 14.644 47.1157 14.5796C47.2552 14.5152 47.361 14.4141 47.4332 14.2764C47.5078 14.1387 47.5451 13.961 47.5451 13.7433V10.5381Z" fill="#1A263C"/>
<path d="M39.2278 10.5381H41.4755C41.9363 10.5381 42.3322 10.5944 42.6634 10.707C42.9973 10.8196 43.254 10.9862 43.4333 11.2069C43.6127 11.4275 43.7024 11.6988 43.7024 12.0209C43.7024 12.2843 43.6472 12.5106 43.5368 12.6997C43.4292 12.8866 43.276 13.0431 43.0774 13.1692C42.8814 13.2931 42.651 13.3922 42.3861 13.4665L41.9929 13.6354H40.0392L40.0308 12.845H41.4837C41.7017 12.845 41.8825 12.8135 42.0259 12.7504C42.1695 12.6873 42.277 12.5995 42.3489 12.487C42.4233 12.3744 42.4606 12.2438 42.4606 12.0952C42.4606 11.9375 42.4247 11.8013 42.353 11.6865C42.2813 11.5716 42.1722 11.4838 42.0259 11.423C41.8797 11.3622 41.6962 11.3319 41.4755 11.3319H40.4696V15.4559H39.2278V10.5381ZM42.5971 15.4559L41.223 13.2638L42.5351 13.2571L43.9259 15.4086V15.4559H42.5971Z" fill="#1A263C"/>
<path d="M37.3675 13.8035H38.5489C38.5252 14.1254 38.4185 14.4112 38.2288 14.6609C38.0418 14.9105 37.7797 15.1054 37.4425 15.2456C37.108 15.3858 36.7049 15.4559 36.2334 15.4559C35.8647 15.4559 35.534 15.4033 35.2416 15.2982C34.9492 15.1909 34.699 15.0376 34.4909 14.8383C34.2854 14.639 34.1287 14.398 34.0207 14.1155C33.9127 13.833 33.8587 13.5166 33.8587 13.1661V12.8344C33.8587 12.4839 33.914 12.1675 34.0247 11.885C34.1379 11.6003 34.2986 11.3583 34.5067 11.159C34.7174 10.9597 34.969 10.8064 35.2614 10.6991C35.5538 10.5917 35.8804 10.5381 36.2413 10.5381C36.7208 10.5381 37.1251 10.6104 37.4544 10.7549C37.7863 10.8995 38.0431 11.0988 38.2248 11.3528C38.4092 11.6069 38.5199 11.8959 38.5567 12.2201H37.3714C37.3582 12.0273 37.3121 11.8642 37.2331 11.7306C37.1541 11.5948 37.0342 11.4929 36.8735 11.4251C36.7155 11.355 36.5047 11.32 36.2413 11.32C36.0438 11.32 35.8712 11.3506 35.7237 11.412C35.5762 11.4733 35.4524 11.5663 35.3523 11.6912C35.2522 11.816 35.1771 11.9737 35.1271 12.1642C35.0796 12.3526 35.0559 12.5738 35.0559 12.8278V13.1661C35.0559 13.4136 35.0784 13.6315 35.1232 13.8199C35.1679 14.006 35.2364 14.1637 35.3285 14.2929C35.4234 14.42 35.5446 14.5163 35.6921 14.5821C35.8423 14.6455 36.0227 14.6773 36.2334 14.6773C36.4811 14.6773 36.6852 14.6444 36.8459 14.5787C37.0065 14.5131 37.129 14.4156 37.2133 14.2864C37.3003 14.1572 37.3516 13.9962 37.3675 13.8035Z" fill="#1A263C"/>
<path d="M33.1875 12.8852V13.112C33.1875 13.4758 33.1307 13.8024 33.0171 14.0916C32.9034 14.3809 32.7431 14.6275 32.5359 14.8313C32.3288 15.0329 32.0813 15.1873 31.7933 15.2948C31.5079 15.4021 31.1909 15.4559 30.8423 15.4559C30.4963 15.4559 30.1793 15.4021 29.8913 15.2948C29.606 15.1873 29.3584 15.0329 29.1488 14.8313C28.9391 14.6275 28.7762 14.3809 28.66 14.0916C28.5464 13.8024 28.4895 13.4758 28.4895 13.112V12.8852C28.4895 12.5192 28.5464 12.1927 28.66 11.9056C28.7736 11.6163 28.9341 11.3698 29.1412 11.1659C29.3509 10.9621 29.5983 10.8065 29.8838 10.6992C30.1718 10.5918 30.4887 10.5381 30.8347 10.5381C31.1833 10.5381 31.5003 10.5918 31.7857 10.6992C32.0736 10.8065 32.3212 10.9621 32.5283 11.1659C32.738 11.3698 32.8996 11.6163 33.0133 11.9056C33.1295 12.1927 33.1875 12.5192 33.1875 12.8852ZM32.0396 13.112V12.8786C32.0396 12.6244 32.0131 12.4008 31.9601 12.208C31.907 12.0152 31.8287 11.853 31.7251 11.7215C31.6215 11.59 31.4953 11.4914 31.3462 11.4257C31.1972 11.3577 31.0267 11.3238 30.8347 11.3238C30.6428 11.3238 30.4723 11.3577 30.3232 11.4257C30.1768 11.4914 30.0517 11.59 29.9482 11.7215C29.8472 11.853 29.7701 12.0152 29.7171 12.208C29.664 12.4008 29.6375 12.6244 29.6375 12.8786V13.112C29.6375 13.364 29.664 13.5876 29.7171 13.7826C29.7701 13.9755 29.8484 14.1387 29.952 14.2724C30.0555 14.4039 30.1818 14.5036 30.3309 14.5716C30.4799 14.6395 30.6504 14.6735 30.8423 14.6735C31.0343 14.6735 31.2048 14.6395 31.3538 14.5716C31.5029 14.5036 31.6279 14.4039 31.7289 14.2724C31.83 14.1387 31.907 13.9755 31.9601 13.7826C32.0131 13.5876 32.0396 13.364 32.0396 13.112Z" fill="#1A263C"/>
<path d="M27.8184 10.5381V15.4559H26.4761V10.5381H27.8184Z" fill="#1A263C"/>
<path d="M23.0497 10.5381V15.4559H21.778V10.5381H23.0497ZM25.5082 12.6389V13.4293H22.7021V12.6389H25.5082ZM25.8049 10.5381V11.3318H22.7021V10.5381H25.8049Z" fill="#1A263C"/>
<path d="M52.0604 17.8125L51.0503 20.3736H50.6374L51.8006 17.5635H52.0667L52.0604 17.8125ZM52.9071 20.3736L51.8948 17.8125L51.8886 17.5635H52.1547L53.322 20.3736H52.9071ZM52.8547 19.3333V19.6383H51.1404V19.3333H52.8547Z" fill="#1A263C"/>
<path d="M47.2816 20.0706V20.3736H46.175V20.0706H47.2816ZM46.2327 17.5635V20.3736H45.9393V17.5635H46.2327Z" fill="#1A263C"/>
<path d="M41.5616 17.6209V20.3737H41.251V17.6209H41.5616ZM41.2413 17.4167L41.5535 16.861H41.9125L41.4812 17.4167H41.2413Z" fill="#1A263C"/>
<path d="M37.5164 19.6448C37.5164 19.581 37.5062 19.5246 37.4859 19.4757C37.4669 19.4257 37.4326 19.3805 37.3832 19.3405C37.335 19.3004 37.2677 19.2622 37.1814 19.2259C37.0964 19.1896 36.9886 19.1527 36.8579 19.1151C36.7208 19.075 36.5972 19.0305 36.4868 18.9817C36.3764 18.9316 36.2819 18.8747 36.2032 18.8108C36.1246 18.7469 36.0643 18.6736 36.0224 18.591C35.9806 18.5083 35.9597 18.4138 35.9597 18.3074C35.9597 18.2009 35.9818 18.1026 36.0262 18.0124C36.0706 17.9223 36.1341 17.844 36.2166 17.7776C36.3003 17.71 36.3999 17.6575 36.5154 17.6198C36.6308 17.5822 36.7596 17.5635 36.9016 17.5635C37.1098 17.5635 37.2861 17.6029 37.4307 17.6818C37.5767 17.7595 37.6876 17.8615 37.7638 17.988C37.8399 18.1133 37.878 18.2473 37.878 18.39H37.5125C37.5125 18.2873 37.4903 18.1966 37.4459 18.1177C37.4015 18.0375 37.3343 17.9749 37.2442 17.9298C37.1542 17.8835 37.0399 17.8603 36.9016 17.8603C36.771 17.8603 36.6632 17.8797 36.5781 17.9185C36.4931 17.9573 36.4297 18.01 36.3878 18.0763C36.3472 18.1427 36.3269 18.2184 36.3269 18.3036C36.3269 18.3612 36.3389 18.4138 36.3631 18.4614C36.3885 18.5077 36.4271 18.5509 36.4792 18.591C36.5324 18.6311 36.5997 18.668 36.6809 18.7018C36.7634 18.7357 36.8617 18.7682 36.9759 18.7995C37.1332 18.8434 37.2689 18.8921 37.3832 18.946C37.4973 18.9999 37.5912 19.0606 37.6648 19.1282C37.7396 19.1946 37.7948 19.2704 37.8303 19.3556C37.8671 19.4394 37.8856 19.5346 37.8856 19.6411C37.8856 19.7525 37.8627 19.8533 37.8171 19.9434C37.7714 20.0337 37.706 20.1106 37.6211 20.1745C37.536 20.2384 37.4339 20.2879 37.3147 20.3229C37.1966 20.3567 37.0647 20.3736 36.9188 20.3736C36.7906 20.3736 36.6644 20.3561 36.54 20.321C36.417 20.286 36.3047 20.2334 36.2032 20.1632C36.103 20.0931 36.0224 20.0068 35.9615 19.904C35.9019 19.8001 35.8721 19.6799 35.8721 19.5433H36.2375C36.2375 19.6373 36.2559 19.718 36.2927 19.7857C36.3295 19.852 36.3796 19.9072 36.4431 19.951C36.5077 19.9949 36.5807 20.0274 36.6619 20.0487C36.7444 20.0687 36.83 20.0787 36.9188 20.0787C37.0469 20.0787 37.1554 20.0612 37.2442 20.0262C37.333 19.991 37.4002 19.941 37.4459 19.8758C37.4929 19.8107 37.5164 19.7337 37.5164 19.6448Z" fill="#1A263C"/>
<path d="M31.9259 17.8125L30.9158 20.3736H30.5029L31.666 17.5635H31.9322L31.9259 17.8125ZM32.7726 20.3736L31.7604 17.8125L31.7541 17.5635H32.0202L33.1875 20.3736H32.7726ZM32.7202 19.3333V19.6383H31.0059V19.3333H32.7202Z" fill="#1A263C"/>
<path d="M26.4761 17.5635H27.0882C27.2271 17.5635 27.3443 17.5956 27.4399 17.66C27.5364 17.7243 27.6097 17.8195 27.6596 17.9456C27.7104 18.0705 27.7358 18.2242 27.7358 18.4069C27.7358 18.5355 27.7185 18.6533 27.6838 18.7601C27.6499 18.8656 27.6008 18.9556 27.5365 19.0303C27.473 19.1036 27.3968 19.1583 27.3079 19.1944L27.2393 19.2349H26.664L26.6615 18.9318H27.0958C27.1839 18.9318 27.2571 18.9087 27.3155 18.8624C27.3739 18.8148 27.4179 18.7511 27.4476 18.6713C27.4772 18.5916 27.492 18.5034 27.492 18.4069C27.492 18.2988 27.478 18.2043 27.4501 18.1232C27.4222 18.0421 27.3781 17.9797 27.3181 17.9359C27.2588 17.891 27.1821 17.8684 27.0882 17.8684H26.7212V20.3736H26.4761V17.5635ZM27.5568 20.3736L27.1072 19.0998L27.3625 19.0979L27.8184 20.3504V20.3736H27.5568Z" fill="#1A263C"/>
<path d="M22.8325 19.0593H22.0828L22.0787 18.7601H22.7594C22.8717 18.7601 22.9699 18.7421 23.054 18.706C23.1379 18.67 23.2029 18.6186 23.249 18.5516C23.2964 18.4835 23.3201 18.4024 23.3201 18.3085C23.3201 18.2055 23.2991 18.1219 23.2572 18.0575C23.2165 17.9919 23.1535 17.9443 23.0682 17.9147C22.9842 17.8838 22.8772 17.8684 22.7471 17.8684H22.1702V20.3736H21.778V17.5635H22.7471C22.8989 17.5635 23.0343 17.5782 23.1535 17.6079C23.2727 17.6362 23.3736 17.6812 23.4562 17.743C23.5402 17.8034 23.6039 17.8806 23.6472 17.9746C23.6906 18.0685 23.7123 18.1811 23.7123 18.3123C23.7123 18.4282 23.6811 18.533 23.6187 18.6269C23.5565 18.7196 23.4698 18.7955 23.3587 18.8547C23.249 18.9138 23.1203 18.9518 22.9727 18.9686L22.8325 19.0593ZM22.8142 20.3736H21.9284L22.1499 20.0707H22.8142C22.9388 20.0707 23.0445 20.0501 23.1312 20.0089C23.2192 19.9677 23.2863 19.9098 23.3323 19.8351C23.3783 19.7592 23.4014 19.6698 23.4014 19.5669C23.4014 19.4627 23.3818 19.3726 23.3425 19.2967C23.3032 19.2207 23.2415 19.1622 23.1576 19.1211C23.0736 19.0799 22.9653 19.0593 22.8325 19.0593H22.2738L22.2779 18.7601H23.0418L23.125 18.8682C23.2673 18.8798 23.3878 18.9183 23.4867 18.984C23.5856 19.0483 23.6608 19.1307 23.7123 19.2311C23.765 19.3314 23.7915 19.4421 23.7915 19.563C23.7915 19.738 23.7509 19.886 23.6695 20.0069C23.5896 20.1266 23.4765 20.218 23.3303 20.281C23.184 20.3428 23.012 20.3736 22.8142 20.3736Z" fill="#1A263C"/>
</g>
</svg>
