<svg width="43" height="15" viewBox="0 0 43 15" fill="none" xmlns="http://www.w3.org/2000/svg">
<g opacity="0.8">
<path d="M8.04788 3.2553L0 3.23059L0.0472017 14.1051H3.20971V9.7553H7.33985V7.65452H3.13891V5.33134L8.02429 5.30662L8.04788 3.2553Z" fill="#1A263C"/>
<path d="M11.3283 6.29529H8.5199V14.0977H11.3283V6.29529Z" fill="#1A263C"/>
<path d="M11.3756 3.25537H8.49628V5.30422H11.3756V3.25537Z" fill="#1A263C"/>
<path d="M23.294 9.03852V1.99485H28.1793V4.76289H24.7337V6.86365C25.9137 4.86176 29.6426 4.4416 31.3891 6.31992C31.5071 3.97202 32.5927 1.67355 34.8112 0.561392L34.9292 0.511963H22.5859V1.40169H18.0782V4.66403H21.9251V9.03852H23.294Z" fill="#1A263C"/>
<path d="M27.1881 8.66788H29.2885C29.6662 8.66788 28.1558 5.99865 27.0229 8.42071C26.9521 8.5443 27.0229 8.66788 27.1881 8.66788Z" fill="#1A263C"/>
<path fill-rule="evenodd" clip-rule="evenodd" d="M12.8153 7.75333C13.8773 5.92444 16.0486 5.70201 16.0486 5.70201C22.0432 4.76285 22.7512 14.0803 16.733 14.0803C12.0365 14.105 11.7533 9.58221 12.8153 7.75333ZM18.4323 9.85321C18.4318 8.77532 17.6183 7.90163 16.615 7.90163C15.6113 7.90163 14.7977 8.77579 14.7977 9.85407C14.7977 9.87155 14.798 9.88887 14.7983 9.90619C14.8226 10.9013 15.5398 11.711 16.4507 11.7987C16.5048 11.8039 16.5596 11.8066 16.615 11.8066C17.1079 11.8066 17.5549 11.5958 17.8823 11.2535C18.2215 10.8987 18.4323 10.4028 18.4323 9.85407V9.85321Z" fill="#1A263C"/>
<path d="M40.6133 9.45988H40.617V9.45266H40.616V6.17162H40.4414V4.85389H40.3275V4.46067C40.3845 4.41041 40.4119 4.32868 40.4119 4.24528C40.4119 4.06855 40.2668 3.91889 40.0912 3.91833C39.9187 3.91833 39.77 4.068 39.77 4.24528C39.77 4.32868 39.7969 4.39329 39.8581 4.46729L39.8607 4.85389H39.7432V6.17217H39.0391V5.0146L39.0707 4.93728H39.0654L39.0749 4.91464L39.0391 4.92126L38.9474 4.93949L38.9468 4.93728H36.8615L36.7138 4.91464L36.7223 4.93341H36.726L36.7597 5.01405V6.17162H36.0304V4.85389H35.917L35.9185 4.76718V4.6512H35.9207L35.9238 4.46177V4.46067C35.9813 4.41041 36.0087 4.32868 36.0087 4.24528C36.0087 4.06855 35.8627 3.91889 35.6876 3.91833C35.5151 3.91833 35.3669 4.068 35.3664 4.24528C35.3664 4.32868 35.3938 4.39329 35.455 4.46729L35.4566 4.6512H35.4592V4.85002H35.4581V4.85389H35.3484V6.17162H35.1575V9.45988H35.1617L35.1597 9.46151L35.0294 9.69904V9.86969H40.7447V9.69904L40.6144 9.46151L40.6133 9.45988Z" fill="#1A263C"/>
<path fill-rule="evenodd" clip-rule="evenodd" d="M40.027 1.32755C40.027 0.956827 39.6257 0.536678 39.5786 0.511963H42.9298V14.1051H23.0344V13.4378H24.71V11.2876C24.9634 11.8588 25.3967 12.3213 25.9373 12.5974C25.9373 12.5974 29.5954 14.3028 31.6959 11.2381V10.6697H29.4538C29.4538 10.6697 28.7458 11.4359 27.8489 11.2381C27.8489 11.2381 27.0938 11.2381 27.0465 10.2742V9.8788H31.9319C33.3007 13.4378 37.0532 15.8104 42.4579 12.3009V11.3123C42.4579 11.3123 37.1713 15.1184 33.9379 10.3237C31.1767 6.24577 33.2299 -0.427192 38.1153 1.27812C38.3664 1.35546 38.599 1.51025 38.8479 1.67585C38.9966 1.77483 39.1512 1.87767 39.319 1.97013C39.319 1.97013 40.027 1.69827 40.027 1.32755ZM40.6323 4.65453V5.96288H40.9392V6.16335H40.9261L40.8079 6.27215V7.38222H40.9324V7.57221L40.8079 7.68819V8.45091H40.9324V8.64028L40.8079 8.75516V9.45213H40.8064V9.46099L40.9319 9.57424V9.86855H40.9371V10.0696H34.8343V9.86855H34.8416V9.57424L34.9677 9.46099V8.76401L34.8416 8.64913V8.45805H34.9677V7.69647L34.8416 7.57995V7.39051H34.9672V6.28209L34.8475 6.17164H34.8343V5.97006H35.157V4.65067H35.2614V4.56452C35.2182 4.47449 35.176 4.36293 35.176 4.25082C35.176 3.98905 35.3627 3.76537 35.6005 3.72008L35.6048 3.66983C35.5836 3.64553 35.571 3.6157 35.571 3.58312C35.571 3.54225 35.5905 3.5047 35.6201 3.48206L35.6517 3.11921C35.6491 3.11423 35.647 3.10761 35.647 3.10209C35.647 3.08 35.6654 3.06067 35.687 3.06067C35.7092 3.06067 35.7266 3.08 35.7266 3.10209C35.7266 3.1043 35.7266 3.10706 35.726 3.10761H35.7308L35.7608 3.48206C35.7904 3.50635 35.8083 3.54225 35.8083 3.58312C35.8083 3.6157 35.7967 3.64608 35.7756 3.66983L35.7798 3.72063C36.0156 3.76813 36.1996 3.99125 36.1996 4.25082C36.1996 4.36293 36.1574 4.47449 36.1147 4.5623V4.65067H36.2212V5.97116H36.5699V5.04831L36.4665 4.94614V4.79316L36.5324 4.75505L36.5715 4.73351L36.5999 4.67939L36.6284 4.62085H36.775L36.8737 4.73075L36.8821 4.73793H37.4284L37.5245 4.63024H37.6716L37.7692 4.73793H38.0086L38.1051 4.63024H38.2522L38.3482 4.73793H38.9204L38.9252 4.73241H38.9231L38.9357 4.7186L38.941 4.71087H38.942L39.0217 4.6214L39.0227 4.62029H39.1699L39.2226 4.72578L39.2263 4.73241L39.3318 4.79205V4.94503L39.2284 5.0472V5.97006H39.5528V4.65675H39.6645V4.5623C39.6224 4.47449 39.5791 4.36293 39.5791 4.25082C39.5791 3.99125 39.7627 3.76924 39.9952 3.72063L40.0005 3.66983C39.9794 3.64553 39.9662 3.6157 39.9662 3.58312C39.9662 3.54225 39.9862 3.5047 40.0163 3.48206L40.0479 3.10761H40.0517C40.0511 3.10706 40.0511 3.1043 40.0511 3.10209C40.0511 3.08 40.0686 3.06067 40.0907 3.06067C40.1123 3.06067 40.1308 3.08 40.1308 3.10209C40.1308 3.10683 40.1292 3.11158 40.1278 3.11597C40.1275 3.11669 40.1273 3.1174 40.1271 3.1181L40.1561 3.48261C40.1851 3.5069 40.2046 3.54281 40.2046 3.58367C40.2046 3.61625 40.1914 3.64663 40.1703 3.67038L40.174 3.72063C40.414 3.76316 40.6028 3.98849 40.6028 4.25138C40.6028 4.36349 40.5606 4.47504 40.5178 4.56286V4.65453H40.6323Z" fill="#1A263C"/>
</g>
</svg>
