<svg width="20" height="18" viewBox="0 0 20 18" fill="none" xmlns="http://www.w3.org/2000/svg">
<path opacity="0.6" d="M18.9212 7.63009L10.4768 0.886242C10.3397 0.7768 10.168 0.71701 9.99086 0.71701C9.81372 0.71701 9.64204 0.7768 9.50492 0.886242L1.06047 7.63009C0.906419 7.75696 0.809666 7.93789 0.791106 8.13379C0.772545 8.3297 0.833665 8.52487 0.961269 8.67716C1.08887 8.82946 1.27272 8.92666 1.47312 8.94778C1.67352 8.9689 1.87438 8.91224 2.03235 8.79003L3.08176 7.9523V16.4525C3.08176 16.6513 3.16264 16.8419 3.30661 16.9824C3.45058 17.1229 3.64584 17.2019 3.84944 17.2019H8.4555V12.706H11.5262V17.2019H16.1323C16.3359 17.2019 16.5311 17.1229 16.6751 16.9824C16.8191 16.8419 16.8999 16.6513 16.8999 16.4525V7.9523L17.9494 8.79003C18.0272 8.85411 18.1173 8.90245 18.2144 8.93222C18.3115 8.962 18.4137 8.97262 18.5151 8.96347C18.6165 8.95432 18.715 8.92558 18.8048 8.87892C18.8947 8.83227 18.9742 8.76863 19.0387 8.69171C19.1031 8.61479 19.1512 8.52612 19.1803 8.43088C19.2093 8.33563 19.2186 8.2357 19.2076 8.13691C19.1967 8.03811 19.1658 7.94242 19.1166 7.85542C19.0674 7.76841 19.001 7.69181 18.9212 7.63009Z" fill="white"/>
</svg>
