<svg width="19" height="17" viewBox="0 0 19 17" fill="none" xmlns="http://www.w3.org/2000/svg">
<path d="M18.1334 6.91308L9.68895 0.169232C9.55183 0.0597893 9.38014 0 9.20301 0C9.02588 0 8.8542 0.0597893 8.71707 0.169232L0.27263 6.91308C0.118577 7.03995 0.0218244 7.22087 0.00326376 7.41678C-0.0152969 7.61269 0.0458233 7.80786 0.173427 7.96015C0.301031 8.11245 0.48488 8.20965 0.685278 8.23077C0.885676 8.25189 1.08654 8.19523 1.24451 8.07302L2.29392 7.23529V15.7355C2.29392 15.9343 2.3748 16.1249 2.51877 16.2654C2.66274 16.4059 2.858 16.4849 3.0616 16.4849H7.66766V11.989H10.7384V16.4849H15.3444C15.548 16.4849 15.7433 16.4059 15.8873 16.2654C16.0312 16.1249 16.1121 15.9343 16.1121 15.7355V7.23529L17.1615 8.07302C17.2393 8.1371 17.3294 8.18544 17.4265 8.21521C17.5237 8.24499 17.6259 8.25561 17.7273 8.24646C17.8286 8.23731 17.9271 8.20857 18.017 8.16191C18.1069 8.11526 18.1864 8.05162 18.2508 7.9747C18.3153 7.89778 18.3634 7.80911 18.3924 7.71387C18.4214 7.61862 18.4307 7.51869 18.4198 7.41989C18.4089 7.3211 18.3779 7.22541 18.3288 7.1384C18.2796 7.0514 18.2132 6.9748 18.1334 6.91308V6.91308Z" fill="white"/>
</svg>
