<svg width="20" height="18" viewBox="0 0 20 18" fill="none" xmlns="http://www.w3.org/2000/svg">
<path d="M18.9214 7.63012L10.4769 0.886273C10.3398 0.77683 10.1681 0.717041 9.99098 0.717041C9.81385 0.717041 9.64216 0.77683 9.50504 0.886273L1.06059 7.63012C0.906541 7.75699 0.809788 7.93792 0.791228 8.13382C0.772667 8.32973 0.833787 8.5249 0.961391 8.67719C1.08899 8.82949 1.27284 8.92669 1.47324 8.94781C1.67364 8.96893 1.87451 8.91227 2.03247 8.79006L3.08189 7.95233V16.4526C3.08189 16.6513 3.16277 16.8419 3.30673 16.9824C3.4507 17.1229 3.64596 17.2019 3.84956 17.2019H8.45562V12.706H11.5263V17.2019H16.1324C16.336 17.2019 16.5313 17.1229 16.6752 16.9824C16.8192 16.8419 16.9001 16.6513 16.9001 16.4526V7.95233L17.9495 8.79006C18.0273 8.85414 18.1174 8.90248 18.2145 8.93225C18.3116 8.96203 18.4139 8.97265 18.5152 8.9635C18.6166 8.95435 18.7151 8.92561 18.805 8.87895C18.8949 8.8323 18.9743 8.76866 19.0388 8.69174C19.1032 8.61482 19.1514 8.52615 19.1804 8.43091C19.2094 8.33566 19.2187 8.23573 19.2078 8.13694C19.1968 8.03814 19.1659 7.94245 19.1167 7.85545C19.0676 7.76844 19.0011 7.69184 18.9214 7.63012Z" fill="#1A263C"/>
</svg>
