<svg width="152" height="109" viewBox="0 0 152 109" fill="none" xmlns="http://www.w3.org/2000/svg">
<g clip-path="url(#clip0_213_120)">
<path opacity="0.1" d="M88.3146 19.223C78.5701 18.886 69.2819 15.7552 60.4261 12.3307C51.5703 8.90611 42.7928 5.11108 33.2765 3.29644C27.158 2.12799 20.1607 1.96365 15.2318 5.22807C10.4876 8.36853 8.9552 13.7902 8.13091 18.8205C7.51095 22.6058 7.15129 26.5888 8.84604 30.1332C10.0258 32.5926 12.1194 34.6607 13.5678 37.0171C18.6059 45.2158 15.0443 55.3265 9.58356 63.3386C7.02254 67.0988 4.05147 70.6765 2.07543 74.6749C0.0993875 78.6732 -0.815861 83.2537 0.913876 87.3315C2.62822 91.3702 6.71186 94.409 11.137 96.544C20.1243 100.877 30.7141 102.116 41.0407 102.826C63.8996 104.382 86.8816 103.708 109.801 103.034C118.283 102.783 126.803 102.531 135.146 101.223C139.78 100.498 144.565 99.3474 147.929 96.5704C152.199 93.0442 153.258 87.0752 150.396 82.6535C145.596 75.2389 132.325 73.3964 128.969 65.4387C127.123 61.0588 129.019 56.1789 131.704 52.1164C137.46 43.4025 147.11 35.7568 147.618 25.795C147.968 18.9528 143.329 12.1023 136.155 8.86432C128.637 5.46761 118.211 5.89655 112.665 11.5104C106.954 17.2941 96.9171 19.5196 88.3146 19.223Z" fill="#1A263C"/>
<path d="M33.902 100.974C33.902 100.974 26.205 95.1833 24.7509 87.8175C24.1613 84.7239 22.5796 81.9039 20.2433 79.7804C19.1256 78.7815 17.9184 77.8865 16.6368 77.1065" stroke="#535461" stroke-width="2" stroke-miterlimit="10"/>
<path d="M15.695 72.4661C16.3695 73.3741 16.6746 77.2221 16.6746 77.2221C16.6746 77.2221 13.0682 75.8085 12.3922 74.9019C12.0676 74.4661 11.9303 73.9197 12.0105 73.3832C12.0907 72.8466 12.3818 72.3637 12.8198 72.0407C13.2577 71.7177 13.8067 71.581 14.3459 71.6608C14.8851 71.7406 15.3704 72.0303 15.695 72.4661Z" fill="#202020"/>
<path d="M22.1633 75.4854C22.2332 76.6121 20.3901 80.0074 20.3901 80.0074C20.3901 80.0074 18.1328 76.8683 18.0614 75.7417C18.0343 75.2045 18.2209 74.6784 18.5809 74.2773C18.9408 73.8761 19.4451 73.6323 19.9845 73.5986C20.5239 73.5649 21.0548 73.744 21.4624 74.0972C21.87 74.4504 22.1213 74.9491 22.1619 75.4854H22.1633Z" fill="#202020"/>
<path d="M28.4329 84.1646C27.9235 85.1729 24.6082 87.1783 24.6082 87.1783C24.6082 87.1783 24.2541 83.3345 24.7635 82.3262C25.0143 81.8521 25.4421 81.4948 25.9549 81.3314C26.4676 81.1679 27.0244 81.2114 27.5053 81.4523C27.9863 81.6932 28.3529 82.1124 28.5264 82.6197C28.6999 83.1269 28.6663 83.6817 28.4329 84.1646Z" fill="#202020"/>
<path d="M31.6922 91.7908C31.3606 92.8701 28.4343 95.4034 28.4343 95.4034C28.4343 95.4034 27.4309 91.6752 27.7625 90.5945C27.922 90.0759 28.2818 89.6416 28.763 89.3871C29.2443 89.1326 29.8073 89.0787 30.3285 89.2373C30.8496 89.396 31.286 89.7541 31.5418 90.233C31.7975 90.7119 31.8516 91.2722 31.6922 91.7908Z" fill="#202020"/>
<path d="M17.0539 82.7371C18.1735 82.8875 21.7127 81.2971 21.7127 81.2971C21.7127 81.2971 18.7262 78.8348 17.6011 78.6844C17.061 78.6122 16.5143 78.7564 16.0811 79.0854C15.6479 79.4143 15.3638 79.9011 15.2913 80.4385C15.2187 80.9759 15.3636 81.52 15.6942 81.9511C16.0247 82.3821 16.5138 82.6649 17.0539 82.7371Z" fill="#202020"/>
<path d="M20.9793 91.6098C22.0989 91.419 24.9916 88.8495 24.9916 88.8495C24.9916 88.8495 21.4006 87.39 20.2824 87.5808C20.0147 87.6245 19.7583 87.7205 19.5281 87.8633C19.2978 88.0061 19.0983 88.1928 18.941 88.4128C18.7837 88.6327 18.6717 88.8815 18.6115 89.1447C18.5513 89.408 18.5441 89.6805 18.5903 89.9465C18.6365 90.2125 18.7352 90.4668 18.8807 90.6947C19.0262 90.9225 19.2156 91.1195 19.4379 91.2741C19.6603 91.4288 19.9113 91.538 20.1763 91.5956C20.4413 91.6533 20.7152 91.6581 20.9821 91.6098H20.9793Z" fill="#202020"/>
<path d="M25.9824 99.7137C27.1174 99.7137 30.4062 97.6679 30.4062 97.6679C30.4062 97.6679 27.116 95.6248 25.981 95.6248C25.4362 95.6248 24.9136 95.8402 24.5284 96.2236C24.1431 96.607 23.9266 97.127 23.9266 97.6693C23.9266 98.2115 24.1431 98.7315 24.5284 99.1149C24.9136 99.4983 25.4362 99.7137 25.981 99.7137H25.9824Z" fill="#202020"/>
<path d="M108.675 50.8895C108.675 50.8895 113.42 42.5265 120.571 40.1172C123.574 39.1248 126.172 37.1902 127.977 34.6036C128.823 33.367 129.553 32.0557 130.159 30.686" stroke="#535461" stroke-width="2" stroke-miterlimit="10"/>
<path d="M134.648 29.1542C133.834 29.9396 130.042 30.7529 130.042 30.7529C130.042 30.7529 130.973 27.0067 131.788 26.2198C132.181 25.8535 132.703 25.6555 133.241 25.6684C133.78 25.6813 134.291 25.904 134.666 26.2887C135.041 26.6734 135.249 27.1892 135.246 27.7251C135.243 28.2611 135.028 28.7742 134.648 29.1542Z" fill="#202020"/>
<path d="M132.504 35.9266C131.384 36.1467 127.764 34.7791 127.764 34.7791C127.764 34.7791 130.591 32.133 131.704 31.9171C131.971 31.8582 132.247 31.8529 132.516 31.9016C132.785 31.9503 133.042 32.052 133.271 32.2009C133.5 32.3497 133.697 32.5425 133.851 32.7681C134.004 32.9937 134.11 33.2475 134.164 33.5146C134.217 33.7817 134.216 34.0567 134.161 34.3235C134.106 34.5902 133.998 34.8434 133.844 35.0681C133.689 35.2928 133.491 35.4845 133.261 35.6319C133.031 35.7793 132.774 35.8795 132.504 35.9266Z" fill="#202020"/>
<path d="M124.701 43.2632C123.629 42.8942 121.192 39.8916 121.192 39.8916C121.192 39.8916 124.971 39.0309 126.045 39.4C126.304 39.4852 126.542 39.6207 126.748 39.7984C126.953 39.9762 127.12 40.1928 127.241 40.4355C127.361 40.6783 127.432 40.9425 127.449 41.2127C127.466 41.4829 127.429 41.7538 127.34 42.0097C127.251 42.2655 127.112 42.5012 126.93 42.703C126.749 42.9049 126.529 43.0689 126.284 43.1855C126.038 43.3021 125.772 43.369 125.5 43.3824C125.228 43.3957 124.956 43.3552 124.701 43.2632Z" fill="#202020"/>
<path d="M117.53 47.4914C116.41 47.3076 113.505 44.752 113.505 44.752C113.505 44.752 117.086 43.2674 118.204 43.4513C118.742 43.5393 119.223 43.8366 119.541 44.2776C119.859 44.7186 119.988 45.2672 119.9 45.8028C119.811 46.3383 119.513 46.817 119.069 47.1334C118.626 47.4498 118.075 47.5781 117.537 47.49L117.53 47.4914Z" fill="#202020"/>
<path d="M124.603 31.8503C124.601 32.9798 126.66 36.2567 126.66 36.2567C126.66 36.2567 128.716 32.984 128.716 31.8559C128.723 31.583 128.675 31.3115 128.575 31.0573C128.475 30.8031 128.325 30.5714 128.133 30.3759C127.942 30.1804 127.713 30.025 127.461 29.9189C127.208 29.8128 126.936 29.7581 126.662 29.7581C126.388 29.7581 126.116 29.8128 125.863 29.9189C125.611 30.025 125.382 30.1804 125.19 30.3759C124.999 30.5714 124.849 30.8031 124.749 31.0573C124.649 31.3115 124.601 31.583 124.608 31.8559L124.603 31.8503Z" fill="#202020"/>
<path d="M116.286 36.9002C116.624 37.9781 119.569 40.4919 119.569 40.4919C119.569 40.4919 120.548 36.7567 120.207 35.6788C120.03 35.1794 119.665 34.7678 119.189 34.5308C118.713 34.2938 118.163 34.2498 117.656 34.4081C117.148 34.5664 116.721 34.9146 116.466 35.3795C116.211 35.8443 116.148 36.3895 116.288 36.9002H116.286Z" fill="#202020"/>
<path d="M108.887 42.9123C109.038 44.0264 111.512 47.0026 111.512 47.0026C111.512 47.0026 113.109 43.4861 112.958 42.3678C112.928 42.0968 112.844 41.8346 112.71 41.5964C112.577 41.3583 112.397 41.1491 112.181 40.9812C111.966 40.8132 111.718 40.6899 111.454 40.6185C111.19 40.5471 110.914 40.529 110.642 40.5653C110.371 40.6017 110.109 40.6916 109.873 40.83C109.637 40.9683 109.431 41.1522 109.268 41.3709C109.104 41.5896 108.986 41.8386 108.921 42.1033C108.855 42.368 108.844 42.6431 108.887 42.9123Z" fill="#202020"/>
<path opacity="0.25" d="M134.648 29.1542C133.834 29.9396 130.042 30.7529 130.042 30.7529C130.042 30.7529 130.973 27.0067 131.788 26.2198C132.181 25.8535 132.703 25.6555 133.241 25.6684C133.78 25.6813 134.291 25.904 134.666 26.2887C135.041 26.6734 135.249 27.1892 135.246 27.7251C135.243 28.2611 135.028 28.7742 134.648 29.1542Z" fill="#151515"/>
<path opacity="0.25" d="M132.504 35.9266C131.384 36.1467 127.764 34.7791 127.764 34.7791C127.764 34.7791 130.591 32.133 131.704 31.9171C131.971 31.8582 132.247 31.8529 132.516 31.9016C132.785 31.9503 133.042 32.052 133.271 32.2009C133.5 32.3497 133.697 32.5425 133.851 32.7681C134.004 32.9937 134.11 33.2475 134.164 33.5146C134.217 33.7817 134.216 34.0567 134.161 34.3235C134.106 34.5902 133.998 34.8434 133.844 35.0681C133.689 35.2928 133.491 35.4845 133.261 35.6319C133.031 35.7793 132.774 35.8795 132.504 35.9266Z" fill="#151515"/>
<path opacity="0.25" d="M124.701 43.2632C123.629 42.8942 121.192 39.8916 121.192 39.8916C121.192 39.8916 124.971 39.0309 126.045 39.4C126.304 39.4852 126.542 39.6207 126.748 39.7984C126.953 39.9762 127.12 40.1928 127.241 40.4355C127.361 40.6783 127.432 40.9425 127.449 41.2127C127.466 41.4829 127.429 41.7538 127.34 42.0097C127.251 42.2655 127.112 42.5012 126.93 42.703C126.749 42.9049 126.529 43.0689 126.284 43.1855C126.038 43.3021 125.772 43.369 125.5 43.3824C125.228 43.3957 124.956 43.3552 124.701 43.2632Z" fill="#151515"/>
<path opacity="0.25" d="M117.53 47.4914C116.41 47.3076 113.505 44.752 113.505 44.752C113.505 44.752 117.086 43.2674 118.204 43.4513C118.742 43.5393 119.223 43.8366 119.541 44.2776C119.859 44.7186 119.988 45.2672 119.9 45.8028C119.811 46.3383 119.513 46.817 119.069 47.1334C118.626 47.4498 118.075 47.5781 117.537 47.49L117.53 47.4914Z" fill="#151515"/>
<path opacity="0.25" d="M124.603 31.8503C124.601 32.9798 126.66 36.2567 126.66 36.2567C126.66 36.2567 128.716 32.984 128.716 31.8559C128.723 31.583 128.675 31.3115 128.575 31.0573C128.475 30.8031 128.325 30.5714 128.133 30.3759C127.942 30.1804 127.713 30.025 127.461 29.9189C127.208 29.8128 126.936 29.7581 126.662 29.7581C126.388 29.7581 126.116 29.8128 125.863 29.9189C125.611 30.025 125.382 30.1804 125.19 30.3759C124.999 30.5714 124.849 30.8031 124.749 31.0573C124.649 31.3115 124.601 31.583 124.608 31.8559L124.603 31.8503Z" fill="#151515"/>
<path opacity="0.25" d="M116.286 36.9002C116.624 37.9781 119.569 40.4919 119.569 40.4919C119.569 40.4919 120.548 36.7567 120.207 35.6788C120.03 35.1794 119.665 34.7678 119.189 34.5308C118.713 34.2938 118.163 34.2498 117.656 34.4081C117.148 34.5664 116.721 34.9146 116.466 35.3795C116.211 35.8443 116.148 36.3895 116.288 36.9002H116.286Z" fill="#151515"/>
<path opacity="0.25" d="M108.887 42.9123C109.038 44.0264 111.512 47.0026 111.512 47.0026C111.512 47.0026 113.109 43.4861 112.958 42.3678C112.928 42.0968 112.844 41.8346 112.71 41.5964C112.577 41.3583 112.397 41.1491 112.181 40.9812C111.966 40.8132 111.718 40.6899 111.454 40.6185C111.19 40.5471 110.914 40.529 110.642 40.5653C110.371 40.6017 110.109 40.6916 109.873 40.83C109.637 40.9683 109.431 41.1522 109.268 41.3709C109.104 41.5896 108.986 41.8386 108.921 42.1033C108.855 42.368 108.844 42.6431 108.887 42.9123Z" fill="#151515"/>
<path d="M108.948 50.7238C108.948 50.7238 109.88 41.1645 115.431 36.0812C117.772 33.9627 119.36 31.1462 119.956 28.0539C120.228 26.5838 120.363 25.0921 120.361 23.5974" stroke="#535461" stroke-width="2" stroke-miterlimit="10"/>
<path d="M123.84 20.372C123.42 21.4192 120.28 23.6921 120.28 23.6921C120.28 23.6921 119.605 19.8915 120.029 18.8442C120.233 18.3413 120.63 17.9397 121.132 17.7278C121.633 17.5158 122.199 17.5109 122.704 17.7141C123.21 17.9172 123.613 18.3118 123.826 18.811C124.039 19.3103 124.044 19.8733 123.84 20.3761V20.372Z" fill="#202020"/>
<path d="M124.639 27.4356C123.711 28.0846 119.839 28.2977 119.839 28.2977C119.839 28.2977 121.347 24.7408 122.275 24.0918C122.495 23.9279 122.746 23.8096 123.013 23.744C123.28 23.6783 123.557 23.6666 123.829 23.7095C124.1 23.7524 124.36 23.849 124.593 23.9938C124.827 24.1385 125.028 24.3283 125.186 24.552C125.345 24.7756 125.456 25.0286 125.514 25.2959C125.572 25.5633 125.576 25.8395 125.525 26.1082C125.474 26.377 125.369 26.6328 125.217 26.8606C125.065 27.0883 124.868 27.2834 124.639 27.4342V27.4356Z" fill="#202020"/>
<path d="M120.488 37.2929C119.357 37.3876 115.906 35.6217 115.906 35.6217C115.906 35.6217 119.013 33.3098 120.144 33.2151C120.687 33.1697 121.226 33.3408 121.642 33.6908C122.058 34.0408 122.318 34.5409 122.364 35.0813C122.409 35.6217 122.237 36.158 121.886 36.5722C121.534 36.9864 121.031 37.2447 120.488 37.2901V37.2929Z" fill="#202020"/>
<path d="M115.659 44.046C114.56 44.3245 110.86 43.1727 110.86 43.1727C110.86 43.1727 113.529 40.3721 114.627 40.088C115.155 39.9519 115.715 40.0298 116.185 40.3047C116.654 40.5796 116.995 41.0289 117.132 41.5538C117.268 42.0786 117.19 42.6361 116.914 43.1034C116.638 43.5708 116.186 43.9098 115.659 44.046Z" fill="#202020"/>
<path d="M115.757 26.8952C116.216 27.9272 119.426 30.0984 119.426 30.0984C119.426 30.0984 119.972 26.2769 119.513 25.2449C119.284 24.7621 118.875 24.3874 118.372 24.201C117.87 24.0146 117.314 24.0312 116.823 24.2472C116.333 24.4633 115.947 24.8616 115.747 25.3572C115.548 25.8528 115.551 26.4063 115.757 26.8994V26.8952Z" fill="#202020"/>
<path d="M110.209 34.8641C110.958 35.7122 114.672 36.8236 114.672 36.8236C114.672 36.8236 114.045 33.0146 113.296 32.1665C113.12 31.9605 112.904 31.7914 112.661 31.6692C112.418 31.547 112.153 31.4741 111.881 31.4546C111.61 31.4352 111.337 31.4696 111.079 31.5559C110.821 31.6423 110.583 31.7788 110.378 31.9575C110.174 32.1362 110.007 32.3537 109.888 32.5971C109.768 32.8405 109.699 33.1052 109.683 33.3756C109.667 33.646 109.706 33.9169 109.796 34.1724C109.886 34.428 110.027 34.6631 110.209 34.8641Z" fill="#202020"/>
<path d="M105.886 43.3482C106.48 44.3092 109.952 46.0291 109.952 46.0291C109.952 46.0291 109.981 42.17 109.392 41.2077C109.099 40.7633 108.643 40.4502 108.121 40.3346C107.6 40.219 107.054 40.31 106.599 40.5885C106.144 40.8669 105.816 41.3108 105.684 41.826C105.552 42.3412 105.627 42.8872 105.893 43.3482H105.886Z" fill="#202020"/>
<path d="M101.811 13.2874C102.043 12.4393 102.323 11.587 102.519 10.7277C102.284 11.587 102.003 12.4421 101.811 13.2874Z" fill="#D3D3D3"/>
<path d="M100.77 21.4569C100.75 21.4234 100.736 21.39 100.721 21.3594C100.721 21.3455 100.707 21.3343 100.701 21.3204C100.671 21.3347 100.639 21.3473 100.607 21.358C100.546 21.3817 100.483 21.4039 100.419 21.4221C100.354 21.4402 100.328 21.4499 100.279 21.461C100.238 21.475 100.196 21.4857 100.154 21.4931L100.165 21.5181C100.217 21.507 100.267 21.4973 100.319 21.4833L100.333 21.656C100.392 21.656 100.447 21.6477 100.5 21.6477C100.525 21.6463 100.55 21.6463 100.575 21.6477C100.684 21.6477 100.78 21.6477 100.855 21.6477C100.826 21.585 100.795 21.5195 100.77 21.4569ZM129.179 66.4582C128.521 65.5766 127.209 56.1148 127.209 56.1148C127.209 56.1148 124.626 49.3868 125.33 46.7018C126.034 44.0167 123.408 37.1467 123.408 37.1467C123.408 37.1467 121.672 36.396 121.578 35.2819C121.578 35.2819 114.493 33.0536 114.161 31.3824C113.893 30.012 109.498 29.0288 107.92 28.7182C107.438 26.7852 106.954 24.9817 106.597 23.9971C106.501 23.6907 106.41 23.4261 106.326 23.2172C105.723 21.6853 103.858 21.546 102.507 21.6686C102.448 21.4075 102.339 21.1601 102.186 20.9402C102.164 20.8646 102.119 20.7972 102.059 20.7466C102.03 20.722 101.999 20.6997 101.966 20.6798C101.942 20.6346 101.91 20.5941 101.871 20.56C101.833 20.5256 101.791 20.4957 101.745 20.4709C101.713 20.4533 101.679 20.438 101.644 20.4249C101.563 20.3942 101.48 20.3713 101.394 20.3567C101.294 20.3363 101.193 20.3232 101.092 20.3177C101.339 20.2101 101.559 20.0499 101.737 19.8483C101.858 19.7068 101.948 19.5418 102.001 19.3637C102.046 19.2156 102.066 19.0613 102.06 18.9069C102.024 18.9705 101.982 19.0307 101.934 19.0865C101.993 18.4696 101.665 17.8429 101.478 17.2287C101.251 16.4292 101.209 15.5888 101.355 14.7707C101.542 13.5368 102.007 12.2889 102.322 11.0327C102.323 11.0258 102.323 11.0188 102.322 11.0119C102.487 10.388 102.589 9.74932 102.627 9.10529C102.682 7.80593 102.347 6.50936 101.81 5.32559C101.332 4.27691 100.628 3.24494 99.5509 2.81878C98.7504 2.49708 97.8533 2.5486 96.9913 2.49568C95.0572 2.37591 93.2127 1.69908 91.3738 1.08352C89.5349 0.467958 87.6429 -0.0918952 85.7074 0.0153403C83.7719 0.122576 81.7805 1.05149 80.8974 2.75611C80.6175 3.28811 80.4566 3.88 80.1221 4.37996C79.4952 5.3228 78.3728 5.79492 77.4366 6.44529C76.5003 7.09567 75.676 8.01901 75.3374 9.12061C75.1524 9.71411 75.1264 10.3454 75.2618 10.952C75.2923 11.089 75.3315 11.2239 75.3794 11.3558C75.5122 11.7238 75.7194 12.0608 75.9881 12.346C76.1908 12.5568 76.4238 12.7366 76.6795 12.8794C77.0005 13.0565 77.3442 13.1896 77.7011 13.2749C77.6885 13.3167 77.6759 13.3613 77.6619 13.4045C77.6395 13.4755 77.6199 13.5437 77.5989 13.6203C77.5527 13.7916 77.5093 13.9657 77.473 14.1412C77.4715 14.1537 77.4715 14.1663 77.473 14.1788C77.3011 14.9709 77.2147 15.7791 77.2155 16.5895C77.2152 16.9728 77.2348 17.3558 77.2742 17.7371C77.834 23.3885 82.5222 27.8464 88.3146 28.1361C88.5133 28.1459 88.7134 28.1514 88.9164 28.1514C89.0087 28.1514 89.0997 28.1514 89.1963 28.1514C89.2872 28.2712 89.3768 28.3938 89.4622 28.5135C89.5475 28.6333 89.6259 28.7558 89.7001 28.8756L89.4972 28.6667L89.2942 28.4815C89.2392 28.5566 89.1779 28.627 89.1109 28.6918C88.9786 28.6455 88.8435 28.6073 88.7064 28.5776C88.1257 28.4495 87.2412 28.4021 86.0769 28.7517C85.0063 29.0706 83.6978 29.7265 82.1668 30.973L74.7062 35.4295L70.6702 37.8723L69.2161 41.4096C69.2161 41.4096 68.1231 45.6127 66.907 50.4286C66.8594 50.4425 66.8132 50.4564 66.7671 50.4731C66.6686 50.462 66.5695 50.4564 66.4704 50.4564C65.7648 50.4548 65.086 50.7253 64.5766 51.2112C64.0672 51.6971 63.7669 52.3605 63.7386 53.0621C61.3203 55.9867 61.1832 58.9113 61.7514 60.2538C61.8028 60.3796 61.8676 60.4996 61.9445 60.6118C62.3168 61.1465 63.0123 62.5253 63.7176 63.9945C63.6994 64.1157 63.6882 64.2174 63.6826 64.294C63.6814 64.319 63.6814 64.3441 63.6826 64.3692C63.6826 64.3692 64.1025 70.6794 62.703 72.4884C62.3965 72.8826 62.4427 73.4006 62.703 73.9744C63.6406 76.0383 67.3478 78.7944 67.3478 78.7944C67.3478 78.7944 71.7939 78.7708 74.271 78.502C74.264 78.7499 74.2584 78.9964 74.2528 79.2373C74.1968 81.6717 74.1968 83.712 74.1968 83.712L74.1044 86.2647C74.1044 86.2647 73.2648 91.6446 72.8449 93.1278C72.5804 94.0581 72.8855 102.672 73.1514 109.004H116.957C117.472 105.258 116.746 93.8756 116.746 93.8756C116.746 93.8756 116.056 90.9329 116.031 88.3676C116.03 88.3648 116.029 88.3617 116.029 88.3586C116.029 88.3555 116.03 88.3524 116.031 88.3495C116.031 88.1253 116.031 87.9067 116.039 87.6922L116.357 87.6811L116.928 87.6616H116.98C116.98 87.6616 116.994 87.6086 117.026 87.5223C117.102 87.3072 117.205 87.1027 117.332 86.9137C117.576 86.5558 117.957 86.2048 118.529 86.1812C118.845 86.1686 119.335 85.9138 119.888 85.5377C119.892 85.5386 119.895 85.5386 119.899 85.5377C121.387 84.5364 123.353 82.6883 123.83 82.3847C124.487 81.9669 127.63 79.1816 127.63 79.1816C127.63 79.1816 128.099 78.5911 128.598 77.8795L128.616 77.8544C129.238 76.9631 129.898 75.8977 129.736 75.562C129.456 74.9604 129.923 73.5218 129.923 73.5218C131.383 70.8632 129.837 67.3397 129.179 66.4582ZM102.118 23.6225C102.131 23.664 102.139 23.7071 102.143 23.7506C102.108 23.7046 102.073 23.6559 102.038 23.6113L102.004 23.5668L101.98 23.5333L102.034 23.4609C102.034 23.4609 102.034 23.4609 102.034 23.4707C102.071 23.5158 102.099 23.5672 102.118 23.6225ZM101.647 22.3886C101.495 22.4192 101.374 22.4471 101.296 22.4679C101.197 22.2925 101.102 22.117 101.016 21.9387C101.24 22.0683 101.452 22.2189 101.647 22.3886ZM101.384 22.6086C101.384 22.6058 101.384 22.603 101.384 22.6003L101.395 22.6086C101.453 22.6462 101.509 22.6824 101.561 22.72C101.607 22.7534 101.649 22.7855 101.691 22.8189C101.663 22.8676 101.632 22.9178 101.601 22.9582C101.552 22.8816 101.506 22.8078 101.461 22.7312C101.433 22.7005 101.408 22.6587 101.384 22.6086ZM100.545 20.8901C100.815 20.8635 101.087 20.8635 101.358 20.8901C101.395 20.8901 101.429 20.897 101.463 20.9026C101.538 20.9143 101.613 20.9334 101.685 20.9597C101.85 21.1899 101.952 21.4593 101.98 21.741L101.905 21.7521L101.831 21.766C101.691 21.7897 101.551 21.8134 101.442 21.8357L101.302 21.8649C101.115 21.9053 101.008 21.9359 101.004 21.9373C100.985 21.8997 100.967 21.8649 100.948 21.8287C100.917 21.7688 100.885 21.7076 100.857 21.6477C100.829 21.5878 100.792 21.5195 100.763 21.4569C100.743 21.4234 100.729 21.39 100.714 21.3594C100.714 21.3455 100.7 21.3343 100.694 21.3204C100.686 21.3056 100.679 21.2903 100.673 21.2744C100.588 21.1017 100.51 20.929 100.434 20.7591C100.426 20.7424 100.419 20.7243 100.412 20.7076L100.518 20.7007V20.7369L100.545 20.8901ZM67.1547 107.283C67.1435 105.209 66.9924 102.966 66.5725 100.86C66.3934 99.9644 66.2087 99.0689 66.0211 98.1887C65.9736 97.9687 65.9274 97.7514 65.8812 97.5342L65.4502 97.5913H65.411C64.2354 92.0749 63.0067 87.2145 63.0067 87.2145C63.0067 87.2145 60.566 77.9407 60.8487 77.2012C60.8851 77.1051 60.8389 76.8461 60.7354 76.4659C60.1448 74.3574 57.6789 68.5472 56.8169 66.5612C56.8169 66.5529 56.8099 66.5431 56.8071 66.5362C56.6671 66.2033 56.5664 65.9791 56.5356 65.9136L56.7385 62.95L56.7497 62.7718L56.7763 62.393L56.7651 62.3832L56.7763 62.2078C56.7763 62.2078 54.6463 60.4697 51.0385 59.2149C50.8985 59.1648 50.7502 59.116 50.6032 59.0687C50.7838 57.8696 51.0231 56.5159 51.3352 55.1971C51.3646 55.0648 51.3967 54.9366 51.4303 54.8071C51.4597 54.6776 51.4933 54.5522 51.5269 54.4255C51.5801 54.2194 51.6374 54.0161 51.6962 53.8155C51.8907 53.7542 52.0825 53.686 52.2714 53.6136L52.3442 53.5857C54.6716 52.6845 56.592 50.9745 57.7499 48.7725C58.9078 46.5704 59.2246 44.0255 58.6418 41.6088C58.3094 40.2382 57.6957 38.9508 56.8393 37.8277C56.7749 37.7413 56.7063 37.655 56.6377 37.57C56.5692 37.4851 56.4866 37.3904 56.4096 37.304C56.8141 36.3891 57.2913 35.5186 57.3305 34.6287C57.3375 34.516 57.3375 34.403 57.3305 34.2903V34.2764C57.2787 33.704 57.024 33.1246 56.4306 32.5161C55.5643 31.6234 54.3314 31.1707 53.0985 30.9535C51.8656 30.7362 50.6088 30.7306 49.3689 30.5844C47.3131 30.3393 45.3105 29.7084 43.2547 29.5149C40.7224 29.2815 38.173 29.7137 35.8613 30.7683C34.3317 31.4646 32.7825 32.6818 32.6901 34.3516C32.6145 35.7317 33.5802 37.0548 33.3367 38.4182C33.0945 39.7579 31.7231 40.8122 31.8434 42.1672C31.8896 42.6965 32.1625 43.17 32.504 43.5919C32.6215 43.7312 32.7461 43.8705 32.8748 44.0098C33.373 44.5348 33.9216 45.0389 34.2001 45.7004C34.2113 45.7283 34.2225 45.7562 34.2323 45.784C34.4688 46.4372 34.3625 47.263 33.7775 47.6376C33.7807 47.6402 33.7832 47.6435 33.7845 47.6474C33.7929 47.6585 33.8013 47.6669 33.8083 47.678C33.8091 47.6758 33.8091 47.6733 33.8083 47.6711C34.0157 47.9158 34.2953 48.0892 34.6074 48.1669L34.7263 48.2031C34.6298 48.3075 34.5388 48.4162 34.4464 48.5304L34.3863 48.6097C34.232 48.8161 34.0918 49.0324 33.9664 49.2573C33.895 49.3827 33.8265 49.508 33.7691 49.6333C33.5773 50.0154 33.4384 50.4216 33.3562 50.8408C33.2065 51.7627 33.4178 52.7237 33.1911 53.6261C32.9112 54.7403 32.0254 55.5954 31.5257 56.6301C30.5797 58.5798 31.1157 60.868 31.306 63.0211C31.5649 65.9457 31.1451 68.8828 30.7267 71.7879C30.5046 73.3329 30.2826 74.8792 30.0605 76.4269C29.5007 80.3115 28.9409 84.1961 28.3812 88.0807C28.1768 89.5041 27.9347 91.0054 26.9817 92.1042H26.9915C26.9915 92.1042 26.9915 92.1125 26.9817 92.1153C27.2678 92.2398 27.5721 92.3178 27.8829 92.3465C29.1271 92.4704 30.4454 91.8716 31.5649 91.217C32.4516 90.7072 33.2912 90.1205 34.0742 89.4637C33.9594 89.8815 33.8363 90.3369 33.7047 90.8271C33.7051 90.8317 33.7051 90.8364 33.7047 90.841C32.1247 96.8295 29.5833 107.808 29.5833 107.808C29.5833 107.808 29.3524 108.286 29.0529 108.997H68.5178C68.056 108.44 67.6263 107.907 67.2905 107.476L67.1547 107.283ZM37.9339 51.9104C37.9437 51.8936 37.9507 51.8783 37.9605 51.863C37.9605 51.9076 37.9605 51.9507 37.9605 51.9925C37.9605 52.0343 37.9605 52.0719 37.9605 52.1109C37.9605 52.1499 37.9605 52.1457 37.9605 52.1652C37.9605 52.1652 37.9605 52.1847 37.9605 52.1652C37.9605 52.2223 37.9479 52.2794 37.9381 52.3365C37.9381 52.3365 37.9381 52.3435 37.9381 52.349L38.078 52.4006L38.2404 52.4674C39.1995 52.8444 40.1707 53.1856 41.1541 53.491C41.2548 53.5231 41.357 53.5537 41.4591 53.583L41.4801 53.7556C41.5053 53.9325 41.5291 54.1122 41.5515 54.2918C41.5515 54.2918 41.5515 54.3002 41.5515 54.3057C41.6145 54.8029 41.6761 55.2987 41.7306 55.7834C41.7306 55.7834 39.1612 54.8085 39.1934 56.2889C39.1919 56.3153 39.1919 56.3419 39.1934 56.3683C39.1906 56.4035 39.1906 56.4389 39.1934 56.4741C39.2172 57.6273 39.5797 58.3111 39.6524 58.662C39.6481 58.6766 39.6404 58.6899 39.63 58.701C39.568 58.8355 39.5466 58.985 39.5685 59.1313C39.566 59.3805 39.5857 59.6293 39.6272 59.875C39.5517 59.921 39.4775 59.9669 39.4033 60.0143C39.3474 60.0491 39.2942 60.0881 39.2396 60.1271C38.8963 58.942 38.4471 57.7899 37.8975 56.6844C37.5127 55.8962 37.0802 55.0745 37.0844 54.2097C37.0844 54.1539 37.0844 54.0968 37.0914 54.0397C37.107 53.7891 37.155 53.5415 37.2342 53.303C37.2663 53.2125 37.3013 53.1234 37.3405 53.0356C37.432 52.8272 37.5343 52.6235 37.647 52.4256C37.7198 52.2947 37.7967 52.1652 37.8709 52.0343C37.8947 51.9953 37.9171 51.9549 37.9395 51.9159L37.9339 51.9104ZM100.77 21.4569C100.75 21.4234 100.736 21.39 100.721 21.3594C100.721 21.3455 100.707 21.3343 100.701 21.3204C100.671 21.3347 100.639 21.3473 100.607 21.358C100.546 21.3817 100.483 21.4039 100.419 21.4221C100.354 21.4402 100.328 21.4499 100.279 21.461L100.154 21.4931L100.165 21.5181C100.217 21.507 100.267 21.4973 100.319 21.4833L100.333 21.656C100.392 21.656 100.447 21.6477 100.5 21.6477H100.575C100.684 21.6477 100.78 21.6477 100.855 21.6477C100.826 21.585 100.795 21.5195 100.77 21.4569Z" fill="#C9C9C9"/>
<path d="M70.1915 41.9124L69.3518 42.2814C69.3518 42.2814 63.8785 63.4416 63.8785 65.1518C63.8785 66.862 75.4843 76.3782 75.4843 76.3782L77.2952 64.2146C77.2952 64.2146 74.695 36.3208 70.1915 41.9124Z" fill="#F1F1F1"/>
<path d="M95.6491 35.1816L90.8 32.6637C90.5284 31.5114 90.0464 30.4186 89.3781 29.4396C88.6686 28.4202 87.7254 27.4189 86.5498 26.8966C83.5788 25.5708 99.117 18.6116 99.117 18.6116C99.3618 19.4476 99.65 20.2704 99.9805 21.0767C100.781 23.0431 102.109 25.5861 103.821 26.3103C106.73 27.5428 95.6491 35.1816 95.6491 35.1816Z" fill="#3B3B3B"/>
<path opacity="0.1" d="M99.9805 21.0767C99.3166 23.4003 97.9359 25.4577 96.0335 26.9583C94.1311 28.4589 91.803 29.3269 89.3781 29.4396C88.6686 28.4202 87.7254 27.4189 86.5498 26.8966C83.5788 25.5708 99.117 18.6116 99.117 18.6116C99.3618 19.4476 99.65 20.2704 99.9805 21.0767Z" fill="#151515"/>
<path d="M100.417 17.563C100.418 19.8419 99.7391 22.0698 98.4672 23.9649C97.1953 25.86 95.3872 27.3372 93.2716 28.2096C91.156 29.082 88.828 29.3105 86.5819 28.8661C84.3358 28.4218 82.2725 27.3245 80.6531 25.7132C79.0337 24.1019 77.9309 22.0488 77.4841 19.8137C77.0373 17.5785 77.2666 15.2617 78.143 13.1563C79.0195 11.0509 80.5036 9.2514 82.4078 7.98544C84.312 6.71948 86.5507 6.04391 88.8408 6.04419C90.3629 6.03718 91.8712 6.33033 93.2788 6.90671C94.6864 7.48308 95.9653 8.33126 97.0417 9.40225C98.118 10.4732 98.9705 11.7458 99.5499 13.1465C100.129 14.5472 100.424 16.0483 100.417 17.563Z" fill="#3B3B3B"/>
<path d="M102.088 33.7026L98.9309 41.0336L96.146 45.8996H87.2314L84.6312 39.2468L85.685 32.3475H92.4934L96.8891 32.101L98.374 31.608L99.3312 32.1484L102.088 33.7026Z" fill="#58575B"/>
<path opacity="0.1" d="M101.001 23.9302C101.001 23.9302 102.97 24.348 101.206 25.7866C99.4431 27.2253 93.3596 31.8002 93.3596 31.8002C93.3596 31.8002 95.4966 33.6942 95.0544 35.9127L102.134 31.9854L103.394 25.7017C103.394 25.7017 103.535 23.8132 101.001 23.9302Z" fill="#151515"/>
<path opacity="0.1" d="M94.7522 31.8002L90.2487 32.5397C90.2487 32.5397 91.1779 35.9587 90.7133 36.9294C90.6993 36.9595 90.6876 36.9907 90.6783 37.0227L88.8408 41.9653L90.2179 45.8466L94.9845 39.3777L93.3597 36.9294C93.3597 36.9294 95.0768 34.6649 96.0984 33.8794C97.12 33.094 94.7522 31.8002 94.7522 31.8002Z" fill="#151515"/>
<path d="M94.7522 31.6094L90.2487 32.3475C90.2487 32.3475 91.1779 35.7665 90.7133 36.7372C90.6993 36.7674 90.6876 36.7985 90.6783 36.8305L88.8408 41.7731L90.2179 45.6544L94.9845 39.1813L93.3597 36.733C93.3597 36.733 95.0768 34.4685 96.0984 33.6831C97.12 32.8976 94.7522 31.6094 94.7522 31.6094Z" fill="#DCDCDC"/>
<path d="M101.19 23.5612C101.19 23.5612 103.159 23.979 101.394 25.4176C99.6292 26.8562 93.3596 31.8002 93.3596 31.8002C93.3596 31.8002 95.6813 33.3252 95.2405 35.5423L102.32 31.6164L103.58 25.3327C103.58 25.3327 103.72 23.4442 101.19 23.5612Z" fill="#58575B"/>
<path opacity="0.1" d="M89.6874 29.8755C89.6874 29.8755 90.1171 30.6749 92.0133 32.1164C92.0133 32.1164 88.8561 33.7876 90.0639 36.137L85.2343 34.8836L84.4912 32.5731L89.6874 29.8755Z" fill="#151515"/>
<path d="M89.5013 29.6917C89.5013 29.6917 89.931 30.4911 91.8272 31.9325C91.8272 31.9325 88.67 33.5954 89.8778 35.9518L85.0496 34.6984L84.3065 32.3893L89.5013 29.6917Z" fill="#58575B"/>
<path opacity="0.1" d="M102.088 33.7026L98.9309 41.0336L96.1516 45.8996H87.2314L84.6312 39.2468L85.6836 32.3475H87.5771C87.5463 33.9575 88.1369 35.8487 88.0991 36.552C88.0347 37.7079 89.8316 43.9443 89.8316 43.9443C89.8316 43.9443 93.592 37.8917 95.0768 37.3528C96.0103 37.0144 97.9877 34.1984 99.3298 32.1484L102.088 33.7026Z" fill="#151515"/>
<path d="M114.525 72.2809L114.205 72.682C114.205 72.682 116.526 84.2787 115.884 86.9122C115.775 87.3869 115.713 87.8711 115.698 88.3578V88.3787C115.585 91.0582 116.398 94.5357 116.398 94.5357C116.398 94.5357 117.047 104.786 116.678 109.001H73.2074C72.9527 102.768 72.6784 94.6917 72.9275 93.7962C73.3474 92.3186 74.187 86.9582 74.187 86.9582L74.2794 84.418C74.2794 84.418 74.2794 81.9627 74.355 79.2275C74.3872 77.9978 74.4348 76.7068 74.5033 75.562C74.5915 74.122 74.7146 72.909 74.884 72.3129C74.9883 71.8611 75.0483 71.4003 75.0631 70.9369C75.0631 70.8938 75.0631 70.8492 75.0715 70.8046C75.0715 70.6654 75.0855 70.515 75.0911 70.3604C75.0911 70.3172 75.0911 70.274 75.0911 70.2211C75.1177 69.3242 75.1079 68.2602 75.0785 67.1572C75.0785 67.0974 75.0785 67.0361 75.0785 66.9748C75.0547 66.1476 75.0197 65.3036 74.9805 64.5014C74.8588 61.9946 74.7006 59.875 74.7006 59.875L69.3617 42.2716L70.8003 38.7454L74.793 36.311L82.1752 31.8754C85.776 28.9299 88.1467 29.2836 89.0508 29.6067C89.1386 29.6365 89.2245 29.6714 89.3083 29.7112C89.3362 29.7251 89.3586 29.7362 89.3796 29.7488C89.4084 29.7623 89.436 29.7782 89.4622 29.7961C89.2147 29.9146 88.9996 30.0909 88.8352 30.31C88.6501 30.5593 88.5182 30.8437 88.4476 31.1456C88.4003 31.3328 88.3671 31.5232 88.3482 31.7152C88.33 31.9172 88.323 32.1261 88.323 32.3363C88.333 32.7975 88.3727 33.2576 88.442 33.7137C88.442 33.7221 88.442 33.7332 88.442 33.7443C88.4882 34.0702 88.5455 34.3891 88.6015 34.6886C88.6009 34.6936 88.6009 34.6988 88.6015 34.7039C88.6659 35.0534 88.7303 35.3765 88.7737 35.6551C88.7821 35.7052 88.7891 35.7512 88.7961 35.7943C88.8269 35.9784 88.8414 36.1648 88.8394 36.3514C88.8552 36.802 88.9161 37.2499 89.0214 37.6884C89.0577 37.8722 89.0997 38.0686 89.1459 38.2733C89.2089 38.5518 89.2775 38.8554 89.3516 39.1646C89.3922 39.3345 89.4356 39.51 89.4804 39.6841C89.4972 39.7537 89.5154 39.8233 89.5322 39.8944L89.5602 40.0044C89.8582 41.184 90.1815 42.358 90.3802 43.0683C90.4978 43.4861 90.572 43.7437 90.572 43.7437C90.572 43.7437 92.6796 40.3525 94.3617 38.4223C94.3869 38.3945 94.4093 38.368 94.4331 38.3429C94.5996 38.1521 94.7634 37.978 94.9201 37.8249C95.263 37.485 95.5709 37.2427 95.8186 37.1536C95.8714 37.1343 95.9224 37.1105 95.9711 37.0826C96.6596 36.694 97.7708 35.2832 98.8106 33.8056C98.9128 33.6663 99.0121 33.5145 99.1129 33.3711C99.3438 33.0396 99.5677 32.7068 99.779 32.3879C99.9414 32.1442 100.097 31.9074 100.244 31.6818C100.943 30.5983 101.436 29.7905 101.436 29.7905L102.407 29.7474L102.577 29.739H102.69L107.1 29.5357C107.1 29.5357 107.29 29.5677 107.603 29.6304C107.62 29.6304 107.637 29.6304 107.655 29.6415C109.22 29.9507 113.567 30.9298 113.832 32.2876C114.157 33.9504 121.168 36.169 121.168 36.169C121.261 37.2831 122.978 38.017 122.978 38.017C122.978 38.017 125.578 44.855 124.883 47.5345C124.195 50.1806 126.671 56.7262 126.737 56.91L126.262 57.506L114.525 72.2809Z" fill="#F1F1F1"/>
<path opacity="0.1" d="M100.999 23.4442C100.999 23.4442 105.292 22.2326 106.267 24.7268C107.242 27.2211 109.424 37.2943 109.424 37.2943C109.424 37.2943 103.759 38.3569 102.274 37.2943C101.403 36.6636 100.325 36.3831 99.2556 36.5088L96.0522 38.68L95.1062 38.4014C95.1062 38.4014 100.231 30.8198 101.345 28.2433C102.459 25.6669 102.835 24.5151 100.999 23.4442Z" fill="#151515"/>
<path d="M100.813 22.8871C100.813 22.8871 105.108 21.6755 106.088 24.1698C107.067 26.664 109.245 36.7372 109.245 36.7372C109.245 36.7372 103.581 37.7998 102.095 36.7372C101.225 36.1065 100.147 35.826 99.0779 35.9517L95.8717 38.1229L94.9257 37.8444C94.9257 37.8444 100.05 30.2627 101.164 27.6862C102.278 25.1098 102.649 23.9609 100.813 22.8871Z" fill="#F1F1F1"/>
<path opacity="0.1" d="M72.0025 63.0726C72.0025 63.0726 75.2058 63.858 75.8104 65.6602C76.415 67.4623 73.4425 67.5082 73.4425 67.5082C73.4425 67.5082 71.6316 64.3204 72.0025 63.0726Z" fill="#151515"/>
<path opacity="0.1" d="M83.9343 76.3781C83.9343 76.3781 76.0889 92.3646 77.8998 93.8895C79.7107 95.4145 83.9343 76.3781 83.9343 76.3781Z" fill="#151515"/>
<path opacity="0.1" d="M94.7521 64.5975C94.7521 64.5975 101.02 80.1258 99.7664 82.524C98.5124 84.9221 102.459 82.524 102.459 82.524L94.7521 64.5975Z" fill="#151515"/>
<path d="M103.481 79.9364C103.481 79.9364 82.3095 80.953 88.4853 87.5139C94.6612 94.0748 107.335 87.7924 107.335 87.7924L103.481 79.9364Z" fill="#3B3B3B"/>
<path opacity="0.1" d="M100.417 17.5629C100.419 19.074 100.121 20.5705 99.5397 21.9665C99.3452 21.9888 99.1507 22.0028 98.9631 22.0111C98.6832 21.3997 98.833 20.6936 98.8386 20.021C98.8442 19.3483 98.5951 18.5573 97.9443 18.3762C96.647 18.0128 95.7514 20.4263 94.4723 19.9903C93.4926 19.6589 93.7487 18.1799 93.1847 17.3262C92.7383 16.6507 91.8441 16.4599 91.1485 16.0366C89.6693 15.1327 89.7141 13.6871 89.0269 12.3195C88.3076 10.8865 86.7878 11.3098 85.4681 12.1552C84.4661 12.7986 83.6012 13.6607 82.5292 14.1732C81.6014 14.6188 80.5588 14.7804 79.5302 14.8041C78.8969 14.8285 78.2634 14.7619 77.6493 14.6063C78.3717 11.9037 80.0572 9.55477 82.3915 7.99762C84.7258 6.44048 87.5496 5.7814 90.3362 6.14329C93.1228 6.50518 95.6821 7.86334 97.5366 9.96449C99.3912 12.0656 100.415 14.7663 100.416 17.5629H100.417Z" fill="#151515"/>
<path d="M85.4723 11.7862C84.4689 12.4296 83.6054 13.2902 82.5334 13.8055C81.6056 14.2498 80.563 14.4113 79.5344 14.435C78.2749 14.4629 76.9188 14.2428 76.0581 13.3376C75.2674 12.502 75.0785 11.2166 75.413 10.1205C75.7474 9.0245 76.5493 8.11509 77.4912 7.45636C78.433 6.79762 79.526 6.34222 80.1501 5.39938C80.4804 4.90081 80.64 4.3131 80.9143 3.7825C81.7917 2.08483 83.765 1.16567 85.6724 1.05147C87.5799 0.937274 89.4706 1.5027 91.2871 2.11547C93.1036 2.72825 94.9341 3.4023 96.8514 3.52903C97.705 3.58195 98.5923 3.52903 99.3844 3.85074C100.449 4.28107 101.148 5.31025 101.624 6.35754C102.157 7.53852 102.488 8.82813 102.432 10.1177C102.315 12.8711 100.487 15.5728 101.29 18.2105C101.503 18.9138 101.902 19.6352 101.689 20.3385C101.379 21.3649 100.048 21.5989 98.9715 21.6477C98.6917 21.0363 98.8414 20.3288 98.847 19.6575C98.8526 18.9863 98.6035 18.1938 97.9541 18.0128C96.6554 17.6521 95.7598 20.0614 94.4835 19.6269C93.5108 19.294 93.7627 17.8164 93.1974 16.9627C92.7509 16.2859 91.8553 16.0965 91.1611 15.6731C89.6819 14.7693 89.7267 13.3237 89.0395 11.9561C88.3146 10.516 86.7934 10.9394 85.4723 11.7862Z" fill="#C9C9C9"/>
<path d="M64.9435 64.7814L63.8757 65.1518C63.8757 65.1518 64.2955 71.4355 62.8961 73.2377C61.4966 75.0398 67.4919 79.52 67.4919 79.52C67.4919 79.52 75.7096 79.474 75.9419 78.8237C76.1742 78.1733 75.522 67.1809 75.522 67.1809C75.522 67.1809 71.1109 65.4708 71.4818 62.7453C71.4818 62.7453 70.1355 69.1669 68.1399 68.8898C66.1442 68.6126 63.8785 66.9539 64.9435 64.7814Z" fill="#F1F1F1"/>
<path opacity="0.1" d="M68.5051 70.8339C70.061 70.8339 71.3222 69.686 71.3222 68.27C71.3222 66.854 70.061 65.7061 68.5051 65.7061C66.9493 65.7061 65.688 66.854 65.688 68.27C65.688 69.686 66.9493 70.8339 68.5051 70.8339Z" fill="#151515"/>
<path d="M71.5854 64.9666C71.5854 64.9666 71.0256 47.9649 66.1527 51.753C61.2798 55.541 61.2322 60.0714 62.16 61.4097C63.0879 62.7481 66.0631 69.4482 66.0631 69.4482C66.5285 69.7166 67.0512 69.8715 67.5883 69.9001C68.1255 69.9288 68.6618 69.8304 69.1533 69.6129C69.6449 69.3955 70.0776 69.0653 70.4162 68.6494C70.7548 68.2334 70.9895 67.7436 71.1012 67.22L71.5854 64.9666Z" fill="#3B3B3B"/>
<path opacity="0.1" d="M101.983 21.9011C101.96 21.8264 101.917 21.7597 101.857 21.7089C101.617 21.4903 101.099 21.4137 100.318 21.4805L100.35 21.8482C101.391 21.7591 101.597 21.9652 101.623 22V22.0348L101.656 22.0808C101.786 22.2544 101.877 22.4531 101.926 22.6641C101.974 22.8752 101.977 23.0939 101.936 23.3063C101.707 24.4413 100.307 25.3452 100.293 25.3549L100.259 25.3744L100.238 25.4065C99.6335 26.2992 96.2146 28.8185 95.3203 29.4703L95.2419 29.3811C94.8417 29.7265 91.3234 32.7918 91.1331 33.9658C91.01 34.7025 90.1759 34.988 89.8736 35.0674C89.5545 34.8265 88.5189 34.0062 87.9801 33.087C87.4749 32.2222 89.5083 30.5343 89.6875 29.8755L89.4076 29.59C89.3782 29.6959 86.7668 32.1247 87.4931 33.3656C88.0753 34.3613 89.1389 35.2136 89.5111 35.495C89.3922 36.5701 88.6519 42.8831 87.5141 44.3788C86.1007 46.238 84.9125 55.6079 85.0441 58.8793C85.1602 61.7858 84.3975 67.2757 81.8505 69.6334C81.4095 70.0595 80.8775 70.381 80.2943 70.5739C79.711 70.7669 79.0915 70.8262 78.482 70.7476H78.4512H78.4204C78.384 70.7476 74.6894 71.1236 71.5854 68.5193C69.0454 66.3927 67.6067 62.9222 67.3072 58.201H67.2457L67.2205 56.8265C67.9092 56.7195 68.5294 56.3511 68.9508 55.7986C69.3723 55.2461 69.5621 54.5525 69.4805 53.8636C69.3988 53.1748 69.0521 52.5442 68.513 52.1044C67.974 51.6647 67.2847 51.4499 66.5899 51.5053C65.895 51.5607 65.2489 51.882 64.7871 52.4016C64.3253 52.9212 64.0839 53.5986 64.1135 54.2917C64.1432 54.9847 64.4416 55.6393 64.9461 56.1179C65.4505 56.5966 66.1218 56.862 66.8188 56.8585H66.8496L66.8748 58.2247L66.7517 58.2331C67.0595 63.1074 68.571 66.713 71.2299 68.9399C73.251 70.6065 75.8325 71.4472 78.4526 71.2921C78.6385 71.3124 78.8254 71.3226 79.0124 71.3228C80.2133 71.3289 81.3689 70.8664 82.2311 70.0345C84.9139 67.5486 85.7298 61.8568 85.6024 58.8514C85.4625 55.3851 86.7094 46.3522 87.9605 44.7075C89.1865 43.0934 89.9296 36.8041 90.0597 35.5855C90.5034 35.4615 91.5068 35.0702 91.6775 34.0535C91.8007 33.3182 94.1504 31.0523 95.596 29.7976L95.5526 29.7474C96.3307 29.182 98.7504 27.3994 99.9497 26.2546C100.322 25.8995 100.691 25.5443 101.078 25.2059C101.542 24.7965 102.133 24.1461 102.288 23.3774C102.341 23.1236 102.341 22.8617 102.289 22.6079C102.237 22.354 102.132 22.1135 101.983 21.9011Z" fill="#151515"/>
<path d="M89.4635 35.4072C89.4047 35.3668 88.0109 34.3738 87.3125 33.1789C86.5876 31.9381 89.199 29.5106 89.227 29.4048L89.5069 29.6903C89.3291 30.3476 87.2957 32.0369 87.8009 32.9004C88.4377 33.9908 89.7784 34.9448 89.7924 34.9546L89.4635 35.4072Z" fill="#3C3C3C"/>
<path d="M95.1384 29.7404L94.92 29.441C94.9648 29.409 99.3605 26.2448 100.053 25.2212L100.076 25.1906L100.108 25.1697C100.122 25.1599 101.523 24.2575 101.751 23.1211C101.793 22.9089 101.79 22.6903 101.742 22.4794C101.693 22.2685 101.601 22.0701 101.471 21.8969L101.439 21.8496V21.8162C101.411 21.7799 101.205 21.5752 100.164 21.6644L100.132 21.2953C100.914 21.2284 101.43 21.305 101.671 21.5237C101.731 21.575 101.775 21.6421 101.798 21.7173C101.95 21.929 102.056 22.1694 102.11 22.4235C102.165 22.6776 102.166 22.9402 102.115 23.1949C101.959 23.965 101.37 24.6154 100.904 25.0235C100.519 25.3619 100.148 25.7198 99.7776 26.0721C98.3711 27.4133 95.2923 29.6304 95.1384 29.7404Z" fill="#F1F1F1"/>
<path d="M67.0399 56.3416L66.6691 56.3483L66.7104 58.5915L67.0812 58.5848L67.0399 56.3416Z" fill="#F1F1F1"/>
<path d="M66.6383 56.6816C68.1338 56.6816 69.3462 55.4751 69.3462 53.9868C69.3462 52.4985 68.1338 51.292 66.6383 51.292C65.1427 51.292 63.9303 52.4985 63.9303 53.9868C63.9303 55.4751 65.1427 56.6816 66.6383 56.6816Z" fill="#202020"/>
<path d="M66.6382 56.2248C67.8803 56.2248 68.8872 55.2228 68.8872 53.9868C68.8872 52.7508 67.8803 51.7488 66.6382 51.7488C65.3962 51.7488 64.3893 52.7508 64.3893 53.9868C64.3893 55.2228 65.3962 56.2248 66.6382 56.2248Z" fill="#F1F1F1"/>
<path d="M78.836 71.1431C78.649 71.1434 78.4622 71.1336 78.2762 71.1139C75.6564 71.2674 73.0754 70.4269 71.0536 68.7617C68.3946 66.5334 66.886 62.9319 66.5753 58.0534L67.1351 58.0186C67.4346 62.7398 68.8732 66.2117 71.4147 68.3369C74.5187 70.9342 78.2119 70.5652 78.2483 70.5652H78.279H78.3098C78.9196 70.6434 79.5392 70.5839 80.1226 70.391C80.706 70.1981 81.2383 69.8768 81.6797 69.451C84.2254 67.0932 84.9881 61.6033 84.8719 58.6968C84.732 55.4227 85.9201 46.0528 87.335 44.195C88.5735 42.5669 89.3418 35.229 89.3502 35.1552L89.3712 34.9463L89.5783 34.9101C89.5909 34.9101 90.8001 34.6817 90.9512 33.782C91.1471 32.6094 94.6598 29.5441 95.0586 29.1973L95.4239 29.6151C93.9726 30.8685 91.6229 33.1358 91.5054 33.8725C91.3346 34.892 90.3312 35.2819 89.889 35.4045C89.7491 36.6244 89.0115 42.9123 87.7898 44.5264C86.5387 46.1712 85.2918 55.204 85.4317 58.6704C85.5521 61.6758 84.7446 67.369 82.0618 69.8535C81.1979 70.6875 80.0396 71.1506 78.836 71.1431Z" fill="#3C3C3C"/>
<g opacity="0.1">
<path opacity="0.1" d="M101.609 14.2706C101.839 13.4267 102.116 12.5771 102.309 11.722C102.078 12.5813 101.8 13.4267 101.609 14.2706Z" fill="#151515"/>
<path opacity="0.1" d="M99.2682 20.9025C98.9883 20.2912 99.138 19.5837 99.1436 18.9124C99.1492 18.2412 98.9001 17.4557 98.2507 17.2677C96.952 16.907 96.0564 19.3177 94.7801 18.8818C93.8005 18.5489 94.0594 17.0713 93.494 16.2176C93.0475 15.5408 92.1533 15.3514 91.4591 14.928C89.9785 14.0242 90.0233 12.5786 89.3376 11.211C88.6168 9.77651 87.0984 10.1999 85.7773 11.0466C84.7739 11.69 83.9104 12.5521 82.8385 13.066C81.9106 13.5103 80.868 13.6718 79.8394 13.6955C78.5869 13.7247 77.2238 13.5033 76.3631 12.5981C75.6998 11.9017 75.4605 10.8809 75.5976 9.92413C75.5738 9.98959 75.5528 10.055 75.5318 10.1205C75.196 11.2165 75.3919 12.5047 76.177 13.3376C77.0377 14.2428 78.4007 14.4628 79.6533 14.435C80.6833 14.4113 81.7245 14.2498 82.6537 13.8055C83.7285 13.2902 84.592 12.4295 85.5926 11.7861C86.9137 10.9394 88.4335 10.516 89.1528 11.9505C89.8386 13.3181 89.7952 14.7637 91.2744 15.6675C91.9742 16.0853 92.8628 16.2803 93.3106 16.9571C93.8704 17.8136 93.6227 19.2884 94.5968 19.6213C95.8717 20.0558 96.7673 17.6465 98.066 18.0072C98.7154 18.1882 98.9659 18.9821 98.9589 19.6519C98.9519 20.3218 98.8063 21.0307 99.0834 21.642C100.16 21.5933 101.491 21.3635 101.803 20.3329C101.846 20.185 101.865 20.0314 101.861 19.8775C101.407 20.6588 100.237 20.8594 99.2682 20.9025Z" fill="#151515"/>
</g>
<path opacity="0.1" d="M124.561 55.2179L126.186 56.9281C126.186 56.9281 127.486 66.3523 128.135 67.2339C128.784 68.1154 130.318 71.6222 128.878 74.2557C128.878 74.2557 128.413 75.6888 128.692 76.289C128.97 76.8893 126.604 79.8932 126.604 79.8932C126.604 79.8932 123.493 82.6646 122.842 83.0811C122.191 83.4975 118.757 86.8232 117.597 86.8691C116.437 86.9151 116.058 88.3481 116.058 88.3481L109.511 88.5793C109.511 88.5793 105.895 88.3913 105.108 88.8996C105.108 88.8996 105.528 83.4014 101.488 79.7971L106.641 77.9491C106.641 77.9491 108.591 77.1135 109.195 76.2403C109.574 75.7049 110.112 75.3012 110.734 75.0858C110.734 75.0858 112.173 74.0691 112.219 73.5148C112.265 72.9605 113.978 72.2809 113.978 72.2809L113.008 64.0433L113.519 50.3673C113.519 50.3673 115.144 38.9084 118.579 39.556C122.015 40.2036 124.561 55.2179 124.561 55.2179Z" fill="#151515"/>
<path d="M125.12 55.2179L126.745 56.9281C126.745 56.9281 128.045 66.3523 128.695 67.2339C129.344 68.1154 130.878 71.6222 129.438 74.2557C129.438 74.2557 128.975 75.6888 129.253 76.289C129.532 76.8893 127.164 79.8932 127.164 79.8932C127.164 79.8932 124.053 82.6646 123.402 83.0811C122.751 83.4975 119.317 86.8232 118.157 86.8691C116.997 86.9151 116.617 88.3481 116.617 88.3481L110.071 88.5793C110.071 88.5793 106.452 88.3913 105.668 88.8996C105.668 88.8996 106.088 83.4014 102.047 79.7971L107.2 77.9491C107.2 77.9491 109.151 77.1135 109.754 76.2403C110.134 75.7049 110.672 75.3012 111.294 75.0858C111.294 75.0858 112.732 74.0691 112.779 73.5148C112.825 72.9605 114.538 72.2809 114.538 72.2809L113.568 64.0433L114.079 50.3673C114.079 50.3673 115.703 38.9084 119.139 39.556C122.575 40.2036 125.12 55.2179 125.12 55.2179Z" fill="#F1F1F1"/>
<path opacity="0.1" d="M119.08 69.0332C119.08 69.0332 123.862 67.7798 125.116 69.3117C126.37 70.8436 119.08 69.0332 119.08 69.0332Z" fill="#151515"/>
<path opacity="0.1" d="M117.966 71.1348C119.591 72.267 124.605 72.313 124.605 72.313L117.966 71.1348Z" fill="#151515"/>
<path opacity="0.1" d="M120.427 76.7946C120.567 76.8405 123.874 80.3528 125.262 79.2902C126.65 78.2276 120.427 76.7946 120.427 76.7946Z" fill="#151515"/>
<path opacity="0.1" d="M75.8901 47.3173C75.8901 47.3173 76.8614 53.9715 76.3828 56.6816C75.9041 59.3918 77.6507 62.7495 77.6507 62.7495L75.8901 47.3173Z" fill="#151515"/>
<path d="M54.3888 50.0233C53.2693 50.8965 52.452 52.9632 51.86 55.2347C50.8272 59.1968 50.4899 63.7912 50.4899 63.7912C50.4899 63.7912 41.5753 61.7579 42.2247 60.8346C42.6333 60.2538 42.0847 55.8781 41.6271 52.7056C41.3542 50.831 41.1107 49.3757 41.1107 49.3757C41.1107 49.3757 57.4537 47.6195 54.3888 50.0233Z" fill="#A7A7A7"/>
<path opacity="0.1" d="M54.3888 49.8381C53.2693 50.7127 52.452 52.778 51.86 55.0494C50.0839 55.5861 48.1949 55.6345 46.3934 55.1895C44.5918 54.7445 42.9449 53.8227 41.6271 52.5217C41.3542 50.6458 41.1107 49.1905 41.1107 49.1905C41.1107 49.1905 57.4537 47.4357 54.3888 49.8381Z" fill="#151515"/>
<path d="M59.1805 44.8606C59.1814 47.2829 58.3212 49.6275 56.7521 51.4793C55.1829 53.3311 53.0061 54.5708 50.6068 54.979C48.2075 55.3872 45.7404 54.9375 43.6422 53.7096C41.5441 52.4817 39.95 50.5547 39.1423 48.2697C38.3345 45.9846 38.3651 43.4889 39.2287 41.2242C40.0923 38.9594 41.7331 37.0717 43.8607 35.8951C45.9884 34.7186 48.4658 34.329 50.8544 34.7953C53.2429 35.2616 55.3887 36.5539 56.912 38.4432C58.3798 40.2632 59.18 42.527 59.1805 44.8606Z" fill="#A7A7A7"/>
<path opacity="0.1" d="M67.3086 109.001H64.3698L64.1221 103.836L63.8632 98.4895C63.8632 98.4895 64.5307 98.3906 65.5943 98.243L66.0239 98.1859H66.0589C66.2912 99.2708 66.5207 100.385 66.7418 101.498C67.1099 103.473 67.3014 105.477 67.3142 107.486C67.3142 107.625 67.3142 107.765 67.3142 107.896C67.3226 108.267 67.3142 108.639 67.3086 109.001Z" fill="#151515"/>
<path d="M66.7446 109.001H29.8883C30.0478 108.641 30.1542 108.422 30.1542 108.422C30.1542 108.422 33.1029 95.5844 34.6017 90.153C34.6022 90.1484 34.6022 90.1437 34.6017 90.1391C34.789 89.4013 35.0151 88.6738 35.279 87.9596C35.2961 87.911 35.3181 87.8643 35.3448 87.8203C36.0865 86.6198 37.0158 85.326 35.7157 83.4779C34.4156 81.6299 34.876 73.4981 34.876 73.4981C34.876 73.4981 36.4546 66.5668 38.1255 62.8706C38.3791 62.2981 38.739 61.7784 39.1863 61.3387C39.3318 61.1971 39.487 61.0659 39.651 60.946C39.7756 60.8528 39.9055 60.7667 40.04 60.6883L40.0666 60.6716C40.7685 60.2756 41.548 60.0347 42.3519 59.9655C42.923 59.9061 43.4994 59.922 44.0663 60.0129C46.7756 60.4084 48.9448 61.0699 50.6689 61.8233C55.3418 63.8664 56.7566 66.6044 56.7846 66.6615L56.7958 66.6851C56.9833 67.1211 59.7263 73.4939 60.7143 76.4673C60.9704 77.2416 61.1103 77.7861 61.0544 77.9351C60.7745 78.6732 63.19 87.9136 63.19 87.9136C63.19 87.9136 64.3095 92.3701 65.4291 97.594C65.4781 97.8113 65.5243 98.0286 65.569 98.2486C65.7692 99.197 65.9679 100.164 66.1596 101.129C66.5311 103.118 66.7226 105.136 66.732 107.159C66.7525 107.789 66.7567 108.403 66.7446 109.001Z" fill="#F1F1F1"/>
<path opacity="0.1" d="M42.1323 56.7875C42.1323 56.7875 39.5895 55.8126 39.6203 57.2916C39.6511 58.7706 40.2402 59.4781 40.0541 59.694C39.868 59.9098 40.1465 61.2036 40.1465 61.2036C40.1465 61.2036 43.5822 61.2036 45.1608 61.9111C46.7393 62.6186 52.5583 64.0363 53.3014 64.468C54.0445 64.8998 56.8001 66.8356 56.8001 66.8356L57.0478 63.1701C57.0478 63.1701 54.1999 60.829 49.5271 59.6285C44.8543 58.428 42.1323 56.7875 42.1323 56.7875Z" fill="#151515"/>
<path d="M42.1323 56.6022C42.1323 56.6022 39.5895 55.6273 39.6203 57.1064C39.6511 58.5854 40.2402 59.2929 40.0541 59.5087C39.868 59.7246 40.1465 61.0184 40.1465 61.0184C40.1465 61.0184 43.5822 61.0184 45.1608 61.7272C46.7394 62.4361 52.5583 63.8524 53.3014 64.2828C54.0446 64.7131 56.8001 66.6503 56.8001 66.6503L57.0506 62.996C57.0506 62.996 54.2027 60.6549 49.5299 59.4544C44.8571 58.2539 42.1323 56.6022 42.1323 56.6022Z" fill="#202020"/>
<path opacity="0.1" d="M49.8083 65.4234C49.8083 65.4234 54.6673 70.6584 54.4196 72.1082C54.1719 73.558 49.8083 65.4234 49.8083 65.4234Z" fill="#151515"/>
<path opacity="0.1" d="M41.9154 84.3345C41.9154 84.3345 38.3538 87.6003 37.3042 87.7855C36.2546 87.9707 38.1089 88.5863 39.3152 88.0947C40.5215 87.6031 43.0937 86.3093 43.0937 86.3093L41.9154 84.3345Z" fill="#151515"/>
<path d="M68.1916 109.001H59.8858C58.7243 107.999 57.6257 107.07 56.926 106.511C55.8064 105.617 54.9989 104.301 54.4839 103.243C54.3677 103.002 54.267 102.776 54.1816 102.571C54.0287 102.219 53.8942 101.859 53.7786 101.492L59.9292 97.8572C60.2691 98.1449 60.5885 98.4557 60.885 98.7875L60.9592 98.8725C61.3007 99.2736 61.6016 99.729 61.6282 100.102C61.6589 100.537 62.8737 102.218 64.115 103.832C65.3745 105.474 66.6648 107.043 66.7502 107.149C66.7502 107.149 66.9629 107.437 67.31 107.88C67.5549 108.201 67.8572 108.585 68.1916 109.001Z" fill="#BDBDBD"/>
<path opacity="0.1" d="M56.912 38.4432C56.6167 39.1062 56.3522 39.7941 56.313 40.5322C56.2025 42.663 56.3816 47.4273 54.0109 48.4969C52.8367 49.0233 51.58 47.8674 50.2925 47.8396C49.3661 47.8201 48.5166 48.405 47.9512 49.1362C47.3858 49.8673 47.0346 50.7349 46.6245 51.5622C46.2513 52.313 45.8213 53.0347 45.3384 53.7208C45.1941 53.9308 45.0351 54.1305 44.8626 54.3183C43.417 53.7113 42.1298 52.7839 41.0989 51.6068C40.0681 50.4297 39.3208 49.034 38.9141 47.526C38.5074 46.018 38.452 44.4375 38.752 42.905C39.0521 41.3725 39.6997 39.9283 40.6456 38.6825C41.5915 37.4368 42.8106 36.4224 44.2101 35.7165C45.6096 35.0107 47.1526 34.6321 48.7214 34.6095C50.2902 34.587 51.8435 34.9211 53.2629 35.5864C54.6823 36.2518 55.9304 37.2308 56.912 38.4488V38.4432Z" fill="#151515"/>
<path d="M56.1269 40.1562C56.0149 42.287 56.1955 47.0513 53.8234 48.1195C52.6492 48.6459 51.3925 47.4914 50.105 47.4636C49.1786 47.4427 48.3305 48.029 47.7637 48.7587C47.1969 49.4885 46.8484 50.3575 46.437 51.1862C46.0636 51.937 45.6337 52.6586 45.1509 53.3448C44.8626 53.7515 44.5435 54.1595 44.0999 54.3879C43.3274 54.789 42.3912 54.5634 41.5627 54.3057C40.4879 53.9687 39.429 53.589 38.3859 53.1665C38.4098 53.0098 38.422 52.8515 38.4223 52.693C38.3915 52.7515 38.3579 52.8058 38.3243 52.8643L38.2585 52.9785C38.1396 53.1874 38.0234 53.3963 37.9171 53.6108C37.8765 53.693 37.8373 53.7779 37.8023 53.8629C37.6616 54.179 37.5732 54.5158 37.5406 54.86C37.4692 55.7889 37.9297 56.6705 38.3383 57.5061C39.9099 60.7385 40.8811 64.5182 39.6986 67.9093C39.1864 69.3842 38.2991 70.6947 37.6512 72.1194C36.5185 74.6427 36.1851 77.4496 36.6953 80.1662C37.0186 81.8541 37.6666 83.5253 37.507 85.2369C37.2271 88.1824 34.6745 90.3745 32.1177 91.8813C30.7364 92.6919 29.0459 93.4133 27.5792 92.7726C28.5141 91.6864 28.7548 90.1837 28.9563 88.7659C29.5077 84.8989 30.0605 81.0301 30.6147 77.1594C30.8358 75.6191 31.0564 74.0788 31.2766 72.5386C31.6881 69.6446 32.1051 66.7186 31.8476 63.8065C31.6601 61.6604 31.1311 59.382 32.0659 57.4392C32.5599 56.4101 33.4402 55.5577 33.7145 54.4492C33.9398 53.5481 33.7299 52.59 33.8782 51.6722C33.9594 51.2546 34.0969 50.8499 34.2869 50.4689C34.5288 49.952 34.8446 49.4726 35.2245 49.0456C34.8494 48.937 34.4996 48.788 34.2869 48.476C34.8886 48.0861 34.9796 47.2073 34.7067 46.5472C34.4338 45.8871 33.888 45.3843 33.3968 44.8634C32.9056 44.3426 32.4326 43.7354 32.371 43.0251C32.252 41.6728 33.6095 40.6255 33.8488 39.2914C34.0909 37.9335 33.1337 36.6133 33.2107 35.2387C33.3002 33.5773 34.834 32.3698 36.3483 31.6693C38.6333 30.6166 41.1575 30.1842 43.6647 30.4159C45.7051 30.6081 47.6797 31.2362 49.7146 31.4799C50.9419 31.6192 52.186 31.6331 53.4049 31.8476C54.6239 32.062 55.8456 32.5146 56.7035 33.4046C58.965 35.7512 56.2556 37.6828 56.1269 40.1562Z" fill="#515151"/>
<path opacity="0.1" d="M54.2348 103.244C53.5211 102.936 52.2224 103.12 49.993 102.445C47.7637 101.769 47.3341 98.7165 47.3341 98.7165V98.7068C47.3075 98.6371 47.1003 98.1831 45.6981 96.5927C44.1489 94.8365 40.8 85.9666 40.8 85.9666C40.8 85.9666 37.8303 82.7927 37.9241 81.6229C38.0178 80.453 37.3965 77.3404 37.458 73.8588C37.5196 70.3771 44.1433 68.068 44.1433 68.068C56.8966 65.8189 53.8933 80.4503 53.5533 81.5588C53.2132 82.6674 54.9779 85.6616 54.9779 85.6616C54.7288 86.9652 55.9995 88.9831 55.9995 88.9831C55.9995 88.9831 56.3074 90.7685 56.3704 91.4468C56.3739 91.4781 56.3809 91.5089 56.3914 91.5387C56.5957 92.1779 58.2611 92.7573 58.9384 93.1096C59.6507 93.4801 61.9417 96.7139 61.9417 96.7139C62.4357 99.0884 54.9457 103.556 54.2348 103.244Z" fill="#151515"/>
<path d="M54.6057 102.687C53.8934 102.378 52.5933 102.563 50.3654 101.886C48.1374 101.209 47.7064 98.1595 47.7064 98.1595V98.1497C47.6812 98.0787 47.4727 97.6261 46.0704 96.0357C44.5212 94.2795 41.1723 85.4082 41.1723 85.4082C41.1723 85.4082 38.2026 82.2357 38.295 81.0659C38.3874 79.896 37.7688 76.7834 37.8304 73.3045C37.8919 69.8257 44.5114 67.518 44.5114 67.518C57.2647 65.2688 54.2615 79.9002 53.9214 81.0088C53.5813 82.1173 55.3461 85.1116 55.3461 85.1116C55.097 86.4151 56.3677 88.4331 56.3677 88.4331C56.3677 88.4331 56.6756 90.2185 56.7399 90.8967C56.7423 90.9281 56.7489 90.959 56.7595 90.9886C56.9638 91.6279 58.6292 92.2072 59.3079 92.5596C60.0189 92.9286 62.3112 96.1638 62.3112 96.1638C62.808 98.5341 55.3181 103.002 54.6057 102.687Z" fill="#202020"/>
<path opacity="0.1" d="M44.7633 75.1567C44.7633 75.1567 50.3346 81.0059 51.7886 81.0059C53.2427 81.0059 44.7633 75.1567 44.7633 75.1567Z" fill="#151515"/>
<path d="M54.6057 102.687C53.8933 102.378 52.5932 102.563 50.3653 101.886C48.1373 101.209 47.7063 98.1594 47.7063 98.1594V98.1497C49.1827 97.1748 52.9221 94.4215 54.3957 93.4146C55.4327 92.7085 56.2794 91.671 56.7748 90.983C56.9791 91.6223 58.6445 92.2016 59.3233 92.554C60.0342 92.923 62.3265 96.1582 62.3265 96.1582C62.8079 98.5341 55.318 103.002 54.6057 102.687Z" fill="#202020"/>
<g opacity="0.1">
<path opacity="0.1" d="M34.2953 48.4913C34.3023 48.5025 34.3121 48.5122 34.3205 48.5233C34.3625 48.4704 34.4058 48.4175 34.4506 48.3674C34.4029 48.4135 34.3509 48.455 34.2953 48.4913Z" fill="#151515"/>
<path opacity="0.1" d="M37.542 54.8753C37.6008 54.1024 38.0164 53.4214 38.4055 52.7418C38.1508 52.6443 37.8961 52.5454 37.6442 52.4423C37.6682 52.2861 37.6803 52.1283 37.6806 51.9702C37.2873 52.6665 36.8591 53.3517 36.7989 54.1358C36.7275 55.0661 37.1879 55.9463 37.5966 56.7819C39.1696 60.0129 40.1394 63.7926 38.9569 67.1851C38.4433 68.6586 37.5574 69.9705 36.9094 71.3952C35.7772 73.9182 35.4443 76.7246 35.955 79.4406C36.2755 81.1299 36.9248 82.7997 36.7653 84.5113C36.4854 87.4568 33.9342 89.6489 31.376 91.1543C30.3306 91.7699 29.1088 92.3339 27.9403 92.2935C27.8321 92.4668 27.7114 92.6321 27.5792 92.7879C29.0473 93.4328 30.7364 92.7072 32.1177 91.8939C34.6773 90.3898 37.2341 88.2033 37.514 85.2522C37.6736 83.5406 37.0242 81.8708 36.7023 80.1815C36.1914 77.4657 36.5233 74.6595 37.654 72.1361C38.2977 70.7128 39.1934 69.3995 39.7014 67.926C40.8839 64.5335 39.9127 60.7538 38.3411 57.5228C37.9339 56.6816 37.4706 55.8056 37.542 54.8753Z" fill="#151515"/>
<path opacity="0.1" d="M56.7007 33.4213C56.563 33.2807 56.4152 33.1504 56.2584 33.0313C57.9546 35.2206 55.5055 37.0812 55.3838 39.4376C55.2746 41.5684 55.4537 46.3341 53.0816 47.4009C51.9089 47.9287 50.6508 46.7728 49.3647 46.7449C48.4368 46.7254 47.5887 47.3117 47.022 48.0415C46.4552 48.7713 46.1067 49.6403 45.6967 50.4675C45.3226 51.2182 44.8922 51.9398 44.4092 52.6262C44.1293 53.0342 43.8018 53.4409 43.3568 53.6707C42.5871 54.0704 41.6508 53.8461 40.8209 53.5871C40.0139 53.3346 39.2143 53.056 38.4222 52.7515C38.4206 52.8966 38.4085 53.0413 38.3859 53.1846C39.4299 53.608 40.4893 53.9877 41.564 54.3238C42.3925 54.5829 43.3288 54.8071 44.0999 54.4074C44.5435 54.1776 44.8654 53.7695 45.1523 53.3615C45.6357 52.6761 46.0656 51.9549 46.4384 51.2042C46.8498 50.377 47.1969 49.5066 47.7651 48.7768C48.3333 48.0471 49.1799 47.4621 50.1064 47.4816C51.3939 47.5095 52.652 48.6654 53.8247 48.1376C56.1968 47.0708 56.0163 42.3051 56.1269 40.1743C56.2556 37.6968 58.965 35.7665 56.7007 33.4213Z" fill="#151515"/>
</g>
<path opacity="0.1" d="M38.26 52.9799C38.1411 53.1888 38.0249 53.3977 37.9185 53.6122C37.878 53.6944 37.8388 53.7793 37.8038 53.8643C37.0705 53.1289 35.2847 51.3811 34.2883 50.8394C34.5306 50.3226 34.8464 49.8433 35.226 49.4161C35.226 49.4161 37.6009 50.6653 38.26 52.9799Z" fill="#151515"/>
<path d="M38.3258 52.8657C37.7758 50.3881 35.226 49.047 35.226 49.047C34.8461 49.4739 34.5303 49.9533 34.2883 50.4703C35.3393 51.0427 37.2762 52.9618 37.9185 53.6122L38.3258 52.8657Z" fill="#D3D3D3"/>
</g>
<defs>
<clipPath id="clip0_213_120">
<rect width="152" height="109" fill="white"/>
</clipPath>
</defs>
</svg>
