<svg width="190" height="141" viewBox="0 0 190 141" fill="none" xmlns="http://www.w3.org/2000/svg">
<g clip-path="url(#clip0_213_286)">
<path opacity="0.1" d="M12.4355 55.2646H28.9489V77.8689H13.6429C13.6038 78.1026 13.5648 78.3346 13.5209 78.5683H28.9489V96.7948C28.9228 96.7948 28.8968 96.7752 28.8724 96.7654C28.4385 96.5922 28.0045 96.4086 27.5706 96.2147C27.4778 96.1722 27.3867 96.1281 27.2923 96.0873C26.8584 95.8814 26.4245 95.6635 25.9905 95.4336C25.8392 95.3536 25.6878 95.2702 25.5398 95.1853C23.1307 93.8354 20.9412 92.1238 19.047 90.1098C18.9901 90.0559 18.938 89.9971 18.8843 89.9464C18.6207 89.6588 18.3619 89.3679 18.1113 89.0705C18.017 88.961 17.9258 88.8499 17.8331 88.7437C17.5369 88.3809 17.2505 88.0051 16.9739 87.6276C16.9316 87.5704 16.8925 87.5149 16.8518 87.4642C15.7186 85.8895 14.7789 84.1832 14.053 82.3822C14.0302 82.3283 14.009 82.2695 13.9879 82.2188C13.7633 81.6469 13.5599 81.0668 13.3842 80.4753C13.3093 80.2285 13.2361 79.985 13.1742 79.7285C13.1515 79.6549 13.1336 79.5798 13.114 79.5062C12.1995 75.8868 12.0938 72.1251 12.0938 68.3814C12.0938 67.9457 12.0938 67.5099 12.0938 67.0742C12.1068 65.5457 12.1247 64.019 12.1474 62.4938C12.1561 62.1016 12.1643 61.7078 12.1719 61.3124C12.1946 60.3112 12.2272 59.3079 12.2695 58.3024C12.2793 58.0246 12.2923 57.7452 12.3069 57.469C12.3134 57.3089 12.3216 57.1487 12.3313 56.9886C12.3606 56.4101 12.3953 55.8355 12.4355 55.2646Z" fill="#3B3B3B"/>
<path opacity="0.5" d="M28.9489 30.0965H19.89C21.3632 27.7834 22.9721 25.5604 24.7083 23.4392C26.0556 21.779 27.4746 20.1613 28.9489 18.6024V30.0965Z" fill="#3B3B3B"/>
<path opacity="0.5" d="M28.9489 30.7927V54.5653H12.4875C12.4875 54.4966 12.4973 54.4264 12.5038 54.3577C12.5185 54.1698 12.5331 53.9835 12.5494 53.7956C12.5657 53.5767 12.5868 53.3577 12.608 53.142C12.6291 52.9263 12.6503 52.6648 12.6763 52.4279C12.7023 52.191 12.7235 51.9507 12.7495 51.7138C12.7756 51.4769 12.8016 51.2399 12.8309 51.0046C12.8602 50.7693 12.8862 50.5307 12.9188 50.2954C12.9432 50.101 12.9676 49.9049 12.9953 49.7088C13.0327 49.4326 13.0717 49.1565 13.1124 48.8819C13.1124 48.8395 13.1254 48.7986 13.1319 48.7578C13.4293 46.7483 13.8335 44.7562 14.3426 42.7901C14.8773 40.7279 15.5598 38.7073 16.3848 36.744C17.2615 34.6869 18.2884 32.6977 19.4571 30.7927H28.9489Z" fill="#3B3B3B"/>
<path opacity="0.5" d="M32.8934 55.2646V77.8689H68.1658V55.2646H32.8934ZM32.8934 78.5683V97.9811C33.0952 98.022 33.2937 98.0629 33.4938 98.0972C33.7623 98.1495 34.0325 98.1968 34.3075 98.2377L34.4702 98.2606C34.5776 98.2785 34.6866 98.2933 34.7956 98.3063C35.0674 98.3455 35.3391 98.375 35.6093 98.4011C35.7362 98.4142 35.868 98.424 35.9965 98.4354L36.3106 98.4583C36.4815 98.4714 36.6507 98.4812 36.8199 98.4877C36.9241 98.4877 37.0282 98.4959 37.134 98.4991C37.2398 98.5024 37.2967 98.4991 37.3813 98.4991H37.6889C37.8288 98.4991 37.9688 98.4991 38.1071 98.4991H38.2861C38.426 98.4991 38.566 98.4991 38.7043 98.4861H38.7124C38.8101 98.4861 38.9061 98.4861 39.0037 98.4746C39.0314 98.4763 39.0591 98.4763 39.0867 98.4746C39.1681 98.4746 39.2494 98.4746 39.3275 98.4648C39.346 98.4633 39.3645 98.4633 39.3829 98.4648C39.5635 98.4534 39.7457 98.4387 39.9296 98.4223C40.1135 98.406 40.2876 98.3864 40.4715 98.3668L40.8409 98.321C42.3503 98.1088 43.843 97.7899 45.3077 97.3667C48.5996 96.4451 51.8167 95.1558 55.107 94.213C59.3574 92.9956 64.0569 92.3959 68.1641 93.878V78.5683H32.8934ZM68.1658 30.0965V0.0032428C64.3045 -0.0394185 60.4536 0.413624 56.7066 1.35136C47.7746 3.60476 39.7539 8.4923 32.8934 14.7345V30.0949H34.6687V30.7926H32.8934V54.5652H68.1658V30.7926H41.9312V30.0932L68.1658 30.0965ZM113.482 19.9309C111.272 19.8524 109.075 19.1514 107.086 18.0647C103.288 15.9911 100.252 12.785 96.8608 10.0823C89.8148 4.44958 81.0764 1.04905 72.1119 0.205869V30.0965H122.461L122.586 29.9641L113.482 19.9309ZM118.069 19.1138L122.933 24.4753V17.7036C121.296 17.9111 119.87 18.3932 118.069 19.1073V19.1138ZM122.933 102.802V78.5683H112.561C112.535 78.4653 112.505 78.3607 112.473 78.2561C112.504 78.3607 112.531 78.4653 112.559 78.5683H72.1119V96.0921C72.4959 96.3781 72.875 96.6804 73.2509 96.9844C73.6567 97.3177 74.0597 97.6549 74.46 97.9958L74.8636 98.3308C75.0572 98.4942 75.2541 98.6577 75.4494 98.8129C75.841 99.1299 76.2353 99.4436 76.6324 99.7541C76.8309 99.911 77.0305 100.065 77.2312 100.217C80.4096 102.656 83.7621 104.857 87.2616 106.804C88.0459 107.243 88.8384 107.666 89.6358 108.08C90.1663 108.354 90.7005 108.623 91.2386 108.887C92.0457 109.282 92.8594 109.664 93.6795 110.031C101.241 113.439 109.236 115.778 117.437 116.979C119.258 117.248 121.086 117.46 122.923 117.616V102.798H123.086L122.933 102.802ZM72.1119 30.7926V54.5652H122.933V30.7926H72.1119ZM72.1119 55.2613V77.8689H122.933V55.2646L72.1119 55.2613ZM126.877 17.6709V25.2367L133.083 18.3948C131.027 18.0539 128.958 17.8126 126.877 17.6709ZM126.877 55.2646V77.8689H176.305V55.2646H126.877ZM176.131 104.594L176.305 78.5683H126.877V117.879C130.061 118.012 133.249 117.974 136.429 117.763H136.484C138.003 117.665 139.515 117.526 141.02 117.345H141.054C149.084 116.406 156.935 114.3 164.361 111.093L176.131 104.594ZM185.841 58.9773C185.653 58.5415 185.461 58.1057 185.263 57.67C184.895 56.8529 184.508 56.0588 184.108 55.2662H180.251V77.8689H190C189.992 71.4665 188.378 64.9302 185.841 58.9773ZM180.251 78.5683V100.955C182.996 98.3129 185.318 95.2882 186.988 91.8305C188.998 87.6652 189.917 83.1584 189.994 78.5666L180.251 78.5683ZM180.251 48.6776V54.5603H183.746C182.687 52.5381 181.52 50.5744 180.251 48.6776ZM146.73 22.1075C146.473 22.0078 146.214 21.9081 145.955 21.8133C143.227 20.8009 140.439 19.9593 137.607 19.2936L128.107 29.7615L127.922 29.9625L128.044 30.0949H161.855C157.146 26.8408 152.068 24.1595 146.73 22.1075ZM162.848 30.7926H127.57L126.877 31.4283V54.5652H132.955H176.305V43.3554C172.385 38.5953 167.861 34.3717 162.848 30.7926Z" fill="#F1F1F1"/>
<path opacity="0.5" d="M28.9489 42.7852V54.5652H12.4875C12.4875 54.4966 12.4973 54.4263 12.5038 54.3577C12.5185 54.1698 12.5331 53.9835 12.5494 53.7956C12.5657 53.5766 12.5868 53.3577 12.608 53.142C12.6291 52.9263 12.6503 52.6648 12.6763 52.4279C12.7023 52.1909 12.7235 51.9507 12.7495 51.7138C12.7756 51.4768 12.8016 51.2399 12.8309 51.0046C12.8602 50.7693 12.8862 50.5307 12.9188 50.2954C12.9432 50.1009 12.9676 49.9048 12.9953 49.7088C13.0327 49.4326 13.0717 49.1564 13.1124 48.8819C13.1124 48.8394 13.1254 48.7986 13.1319 48.7577C13.4293 46.7483 13.8335 44.7562 14.3426 42.7901L28.9489 42.7852Z" fill="#3B3B3B"/>
<path opacity="0.1" d="M12.4355 55.2646H28.9489V77.8689H13.6429C13.6038 78.1026 13.5648 78.3346 13.5209 78.5683H28.9489V96.7948C28.9228 96.7948 28.8968 96.7752 28.8724 96.7654C28.4385 96.5922 28.0045 96.4086 27.5706 96.2147C27.4778 96.1722 27.3867 96.1281 27.2923 96.0873C26.8584 95.8814 26.4245 95.6635 25.9905 95.4336C25.8392 95.3536 25.6878 95.2702 25.5398 95.1853C23.1307 93.8354 20.9412 92.1238 19.047 90.1098C18.9901 90.0559 18.938 89.9971 18.8843 89.9464C18.6207 89.6588 18.3619 89.3679 18.1113 89.0705C18.017 88.961 17.9258 88.8499 17.8331 88.7437C17.5369 88.3809 17.2505 88.0051 16.9739 87.6276C16.9316 87.5704 16.8925 87.5149 16.8518 87.4642C15.7186 85.8895 14.7789 84.1832 14.053 82.3822C14.0302 82.3283 14.009 82.2695 13.9879 82.2188C13.7633 81.6469 13.5599 81.0668 13.3842 80.4753C13.3093 80.2285 13.2361 79.985 13.1742 79.7285C13.1515 79.6549 13.1336 79.5798 13.114 79.5062C12.1995 75.8868 12.0938 72.1251 12.0938 68.3814C12.0938 67.9457 12.0938 67.5099 12.0938 67.0742C12.1068 65.5457 12.1247 64.019 12.1474 62.4938C12.1561 62.1016 12.1643 61.7078 12.1719 61.3124C12.1946 60.3112 12.2272 59.3079 12.2695 58.3024C12.2793 58.0246 12.2923 57.7452 12.3069 57.469C12.3134 57.3089 12.3216 57.1487 12.3313 56.9886C12.3606 56.4101 12.3953 55.8355 12.4355 55.2646Z" fill="#3B3B3B"/>
<path opacity="0.1" d="M45.3093 34.1981V54.5653H32.8917V34.1981H34.6622V27.3022H41.9295V34.1981H45.3093Z" fill="#3B3B3B"/>
<path opacity="0.1" d="M45.3077 55.263H32.8917V77.8673H45.3077V55.263Z" fill="#3B3B3B"/>
<path opacity="0.1" d="M32.8934 78.5683H45.3093V97.3602C43.8448 97.7837 42.3521 98.102 40.8425 98.3129C40.7188 98.3309 40.5968 98.3456 40.4731 98.3587C40.2909 98.3799 40.1102 98.3995 39.9296 98.4159L39.3845 98.46H39.3292L39.0883 98.473H39.0053C38.9077 98.473 38.8117 98.4845 38.7141 98.4861H38.7059C38.566 98.4861 38.4277 98.4959 38.2877 98.4992H38.1087C37.9704 98.4992 37.8321 98.4992 37.6905 98.4992H37.3846H37.1356C37.0299 98.4992 36.9257 98.4992 36.8199 98.4861C36.6529 98.4796 36.4836 98.4698 36.3122 98.4567L35.9982 98.4338C35.868 98.424 35.7378 98.411 35.6093 98.3979C35.3359 98.3739 35.0647 98.3429 34.7956 98.3047L34.4702 98.259L34.3075 98.2361C34.0357 98.1953 33.7656 98.1495 33.4938 98.0972C33.292 98.0613 33.0935 98.0204 32.8934 97.9779V78.5683Z" fill="#3B3B3B"/>
<path opacity="0.1" d="M122.931 31.7927H112.692V54.5636H122.931V31.7927Z" fill="#3B3B3B"/>
<path opacity="0.1" d="M122.933 55.263V77.8689H72.1118V68.1183H99.1812V73.8703H112.692V55.263H122.933Z" fill="#3B3B3B"/>
<path opacity="0.1" d="M123.094 102.807C123.04 102.807 122.986 102.807 122.931 102.797V117.626C121.097 117.475 119.269 117.263 117.447 116.99C109.243 115.789 101.244 113.452 93.6795 110.046C91.4957 109.056 89.3564 107.978 87.2616 106.812C83.7631 104.865 80.4113 102.663 77.2328 100.225C76.4322 99.6104 75.6435 98.9823 74.8668 98.3407C74.3281 97.8929 73.7944 97.4354 73.2509 96.9925C72.8766 96.687 72.4975 96.3847 72.1118 96.0971V78.5683H112.559C112.53 78.4637 112.504 78.3607 112.474 78.2562C112.505 78.3607 112.534 78.4637 112.561 78.5683H122.933V102.795C122.986 102.797 123.04 102.802 123.094 102.807Z" fill="#3B3B3B"/>
<path opacity="0.1" d="M149.636 30.0965H142.964V28.0147H145.953V21.8134C146.213 21.9092 146.471 22.0073 146.728 22.1075V28.0147H149.634L149.636 30.0965Z" fill="#3B3B3B"/>
<path opacity="0.1" d="M165.712 54.5653H132.955C132.958 54.566 132.961 54.566 132.965 54.5653H132.95H126.877V31.7944H128.599V48.6254H136.465V38.6575H142.966V30.7927H149.638V38.6624H156.135V48.6303H165.713L165.712 54.5653Z" fill="#3B3B3B"/>
<path opacity="0.1" d="M126.877 55.2646V77.8689H165.713V55.2646H126.877ZM176.25 104.475L176.305 86.5818H165.713V78.5748H126.877V117.879C130.061 118.012 133.249 117.974 136.429 117.763H136.484C138.003 117.665 139.515 117.526 141.02 117.345H141.054C149.084 116.406 156.935 114.3 164.361 111.093" fill="#3B3B3B"/>
<path opacity="0.1" d="M180.935 78.5683H189.993C189.915 83.1584 188.998 87.6669 186.988 91.8305C185.318 95.2899 182.996 98.3145 180.251 100.957V86.5769H180.935V78.5683Z" fill="#3B3B3B"/>
<path opacity="0.1" d="M190 77.8689H180.935V58.9773H185.841C188.378 64.9303 189.992 71.4666 190 77.8689Z" fill="#3B3B3B"/>
<path opacity="0.1" d="M122.933 38.1231H117.447V45.2624H122.933V38.1231Z" fill="#3B3B3B"/>
<path opacity="0.1" d="M122.933 52.9214H117.447V54.5653H122.933V52.9214Z" fill="#3B3B3B"/>
<path opacity="0.1" d="M122.933 55.263H117.447V60.059H122.933V55.263Z" fill="#3B3B3B"/>
<path opacity="0.1" d="M122.933 67.7196H117.447V74.8589H122.933V67.7196Z" fill="#3B3B3B"/>
<path opacity="0.1" d="M122.933 82.5179H117.447V89.6572H122.933V82.5179Z" fill="#3B3B3B"/>
<path opacity="0.1" d="M122.933 102.795C122.986 102.795 123.04 102.795 123.095 102.807C123.042 102.807 122.988 102.807 122.933 102.797V104.455H117.447V97.3161H122.933V102.795Z" fill="#3B3B3B"/>
<path opacity="0.1" d="M122.933 112.113V117.626C121.097 117.475 119.269 117.263 117.447 116.99V112.113H122.933Z" fill="#3B3B3B"/>
<path opacity="0.1" d="M95.6208 77.3444H72.1118V77.8689H95.6208V77.3444Z" fill="#3B3B3B"/>
<path opacity="0.1" d="M95.6208 78.5667H72.1118V80.5766H95.6208V78.5667Z" fill="#3B3B3B"/>
<path opacity="0.1" d="M95.6208 87.1652H72.1118V90.3974H95.6208V87.1652Z" fill="#3B3B3B"/>
<path opacity="0.1" d="M95.6208 96.986V100.218H77.2328C76.4322 99.606 75.6435 98.9774 74.8668 98.3325C74.3265 97.8864 73.7928 97.4289 73.2509 96.986H95.6208Z" fill="#3B3B3B"/>
<path opacity="0.1" d="M95.6208 106.805V110.046H93.6795C91.4957 109.056 89.3564 107.978 87.2616 106.812L95.6208 106.805Z" fill="#3B3B3B"/>
<path opacity="0.1" d="M141.057 57.4543H136.429V62.1016H141.057V57.4543Z" fill="#3B3B3B"/>
<path opacity="0.1" d="M40.8539 35.8011H36.226V40.4484H40.8539V35.8011Z" fill="#3B3B3B"/>
<path opacity="0.1" d="M40.8539 46.5958H36.226V51.2432H40.8539V46.5958Z" fill="#3B3B3B"/>
<path opacity="0.1" d="M40.8539 57.3906H36.226V62.0379H40.8539V57.3906Z" fill="#3B3B3B"/>
<path opacity="0.1" d="M40.8539 68.1837H36.226V72.831H40.8539V68.1837Z" fill="#3B3B3B"/>
<path opacity="0.1" d="M40.8539 78.9785H36.226V83.6258H40.8539V78.9785Z" fill="#3B3B3B"/>
<path opacity="0.1" d="M40.8539 89.7732H36.226V94.4205H40.8539V89.7732Z" fill="#3B3B3B"/>
<path opacity="0.1" d="M158.724 57.4543H154.096V62.1016H158.724V57.4543Z" fill="#3B3B3B"/>
<path opacity="0.1" d="M141.057 68.9174H136.429V73.5647H141.057V68.9174Z" fill="#3B3B3B"/>
<path opacity="0.1" d="M158.724 68.9174H154.096V73.5647H158.724V68.9174Z" fill="#3B3B3B"/>
<path opacity="0.1" d="M141.057 80.3788H136.429V85.0262H141.057V80.3788Z" fill="#3B3B3B"/>
<path opacity="0.1" d="M158.724 80.3788H154.096V85.0262H158.724V80.3788Z" fill="#3B3B3B"/>
<path opacity="0.1" d="M141.057 91.8419H136.429V96.4893H141.057V91.8419Z" fill="#3B3B3B"/>
<path opacity="0.1" d="M158.724 91.8419H154.096V96.4893H158.724V91.8419Z" fill="#3B3B3B"/>
<path opacity="0.1" d="M141.057 103.305H136.429V107.952H141.057V103.305Z" fill="#3B3B3B"/>
<path opacity="0.1" d="M158.724 103.305H154.096V107.952H158.724V103.305Z" fill="#3B3B3B"/>
<path opacity="0.1" d="M136.429 117.763V114.766H141.055V117.337L136.429 117.763Z" fill="#3B3B3B"/>
<path opacity="0.1" d="M13.1124 48.7528V51.4114H28.9489V48.7528H13.1124ZM14.6892 51.2448H13.3874V48.9211H14.6892V51.2448ZM16.266 51.2448H14.9642V48.9211H16.266V51.2448ZM17.8396 51.2448H16.5378V48.9211H17.8396V51.2448ZM19.4164 51.2448H18.1146V48.9211H19.4164V51.2448ZM20.9916 51.2448H19.6898V48.9211H20.9916V51.2448ZM22.5684 51.2448H21.2666V48.9211H22.5684V51.2448ZM24.1452 51.2448H22.8434V48.9211H24.1452V51.2448ZM25.7204 51.2448H24.4186V48.9211H25.7204V51.2448ZM27.2956 51.2448H25.9938V48.9211H27.2956V51.2448ZM28.8724 51.2448H27.5706V48.9211H28.8724V51.2448Z" fill="#3B3B3B"/>
<path opacity="0.5" d="M13.1124 56.4918V59.1505H28.9489V56.4918H13.1124ZM14.6892 58.9838H13.3874V56.6601H14.6892V58.9838ZM16.266 58.9838H14.9642V56.6601H16.266V58.9838ZM17.8396 58.9838H16.5378V56.6601H17.8396V58.9838ZM19.4164 58.9838H18.1146V56.6601H19.4164V58.9838ZM20.9916 58.9838H19.6898V56.6601H20.9916V58.9838ZM22.5684 58.9838H21.2666V56.6601H22.5684V58.9838ZM24.1452 58.9838H22.8434V56.6601H24.1452V58.9838ZM25.7204 58.9838H24.4186V56.6601H25.7204V58.9838ZM27.2956 58.9838H25.9938V56.6601H27.2956V58.9838ZM28.8724 58.9838H27.5706V56.6601H28.8724V58.9838Z" fill="#BDBDBD"/>
<path opacity="0.5" d="M13.1124 64.2325V66.8895H28.9489V64.2325H13.1124ZM14.6892 66.7212H13.3874V64.3975H14.6892V66.7212ZM16.266 66.7212H14.9642V64.3975H16.266V66.7212ZM17.8396 66.7212H16.5378V64.3975H17.8396V66.7212ZM19.4164 66.7212H18.1146V64.3975H19.4164V66.7212ZM20.9916 66.7212H19.6898V64.3975H20.9916V66.7212ZM22.5684 66.7212H21.2666V64.3975H22.5684V66.7212ZM24.1452 66.7212H22.8434V64.3975H24.1452V66.7212ZM25.7204 66.7212H24.4186V64.3975H25.7204V66.7212ZM27.2956 66.7212H25.9938V64.3975H27.2956V66.7212ZM28.8724 66.7212H27.5706V64.3975H28.8724V66.7212Z" fill="#BDBDBD"/>
<path opacity="0.5" d="M13.1124 71.9715V74.6285H28.9489V71.9715H13.1124ZM14.6892 74.4618H13.3874V72.1349H14.6892V74.4618ZM16.266 74.4618H14.9642V72.1349H16.266V74.4618ZM17.8396 74.4618H16.5378V72.1349H17.8396V74.4618ZM19.4164 74.4618H18.1146V72.1349H19.4164V74.4618ZM20.9916 74.4618H19.6898V72.1349H20.9916V74.4618ZM22.5684 74.4618H21.2666V72.1349H22.5684V74.4618ZM24.1452 74.4618H22.8434V72.1349H24.1452V74.4618ZM25.7204 74.4618H24.4186V72.1349H25.7204V74.4618ZM27.2956 74.4618H25.9938V72.1349H27.2956V74.4618ZM28.8724 74.4618H27.5706V72.1349H28.8724V74.4618Z" fill="#BDBDBD"/>
<path opacity="0.5" d="M13.1889 79.7072C13.2507 79.9589 13.324 80.2072 13.3988 80.454V79.8755H14.7006V82.1976H14.0025C14.0221 82.2531 14.0432 82.3103 14.066 82.361H28.9554V79.7072H13.1889ZM16.2807 82.1976H14.9789V79.8755H16.2807V82.1976ZM17.8542 82.1976H16.5524V79.8755H17.8542V82.1976ZM19.4311 82.1976H18.1293V79.8755H19.4311V82.1976ZM21.0062 82.1976H19.7044V79.8755H21.0062V82.1976ZM22.5831 82.1976H21.2812V79.8755H22.5831V82.1976ZM24.1599 82.1976H22.8581V79.8755H24.1599V82.1976ZM25.735 82.1976H24.4332V79.8755H25.735V82.1976ZM27.3102 82.1976H26.0084V79.8755H27.3102V82.1976ZM28.887 82.1976H27.5852V79.8755H28.887V82.1976Z" fill="#BDBDBD"/>
<path opacity="0.1" d="M16.8568 87.4462C16.8991 87.4985 16.9381 87.5573 16.9788 87.6096H17.8396V88.7257L18.1179 89.0525V87.6031H19.4197V89.9464H18.8843C18.9364 90.0003 18.9868 90.0575 19.047 90.1098H28.9456V87.4462H16.8568ZM20.9997 89.9464H19.6979V87.6129H20.9997V89.9464ZM22.5766 89.9464H21.2747V87.6129H22.5766V89.9464ZM24.1534 89.9464H22.8516V87.6129H24.1534V89.9464ZM25.7285 89.9464H24.4267V87.6129H25.7285V89.9464ZM27.3037 89.9464H26.0019V87.6129H27.3037V89.9464ZM28.8805 89.9464H27.5787V87.6129H28.8805V89.9464Z" fill="#BDBDBD"/>
<path opacity="0.1" d="M25.5447 95.1852C25.6944 95.2702 25.8457 95.3487 25.9971 95.432V95.3503H27.2989V96.0873C27.3932 96.1281 27.4827 96.1722 27.5755 96.2147V95.3503H28.8773V96.7654C28.902 96.7766 28.9276 96.7859 28.9538 96.7932V95.1852H25.5447Z" fill="#BDBDBD"/>
<path opacity="0.1" d="M122.931 102.795H123.094H122.931ZM112.473 78.2562C112.504 78.3608 112.531 78.4653 112.559 78.5683C112.535 78.4653 112.505 78.3608 112.473 78.2562ZM34.6687 30.0965V30.7926H41.9377V30.0933L34.6687 30.0965ZM122.933 102.795H123.095H122.933ZM112.473 78.2562C112.504 78.3608 112.531 78.4653 112.559 78.5683C112.535 78.4653 112.505 78.3608 112.473 78.2562ZM122.931 102.795H123.094H122.931ZM112.473 78.2562C112.504 78.3608 112.531 78.4653 112.559 78.5683C112.535 78.4653 112.505 78.3608 112.473 78.2562Z" fill="#BDBDBD"/>
<path opacity="0.1" d="M143.106 141C151.863 141 158.962 139.855 158.962 138.443C158.962 137.03 151.863 135.885 143.106 135.885C134.349 135.885 127.25 137.03 127.25 138.443C127.25 139.855 134.349 141 143.106 141Z" fill="#3B3B3B"/>
<path opacity="0.1" d="M71.5944 138.443C80.3514 138.443 87.4504 137.298 87.4504 135.885C87.4504 134.473 80.3514 133.328 71.5944 133.328C62.8374 133.328 55.7384 134.473 55.7384 135.885C55.7384 137.298 62.8374 138.443 71.5944 138.443Z" fill="#3B3B3B"/>
<path d="M89.8489 68.2638C89.845 68.2475 89.8366 68.2328 89.8245 68.2213C89.5821 67.9811 86.4903 63.5903 86.4903 63.5903C86.4903 63.5903 86.3276 63.1001 86.0639 62.4628C86.1485 62.3529 86.2119 62.2282 86.2511 62.0951C86.2653 62.0387 86.2756 61.9814 86.282 61.9235C86.282 61.9055 86.295 61.8908 86.2999 61.8729C86.3564 61.6512 86.3508 61.4182 86.2836 61.1996C86.2655 61.2557 86.2432 61.3103 86.2169 61.363C86.1557 61.1727 86.0738 60.9896 85.9728 60.8172C85.5627 60.1081 84.9769 59.51 84.5457 58.8188C83.8927 57.7448 83.6332 56.4758 83.8118 55.2303C83.8118 55.294 83.8118 55.3594 83.8118 55.4231C83.8281 55.1761 83.8607 54.9305 83.9094 54.6878C83.9775 54.4116 84.0684 54.1416 84.1812 53.8806C84.5685 52.99 85.195 52.2138 85.5758 51.32C85.7035 51.0185 85.8006 50.7048 85.8654 50.3836C85.9996 49.8473 86.0485 49.293 86.0102 48.7414C86.0102 48.8721 85.9891 49.0028 85.9696 49.1319C85.9284 47.8056 85.395 46.5426 84.4741 45.5909C83.1446 44.2493 81.2359 43.728 79.4101 43.4535C78.6429 43.3636 77.9101 43.0828 77.2784 42.6365C76.577 42.1805 75.6707 42.0711 74.8505 42.1707C73.9079 42.2731 73.032 42.7079 72.3787 43.3979C71.5114 44.3555 71.1355 45.7118 70.1233 46.519C69.5099 47.0093 68.732 47.238 68.0177 47.5714C67.3033 47.9047 66.628 48.3884 66.3986 49.1041C66.3986 49.1041 66.3986 49.0943 66.3986 49.0894V49.1303L66.3888 49.1564C66.1512 50.0029 66.6101 50.8641 66.8493 51.7089C67.0983 52.5831 67.1146 53.5064 67.1276 54.41C67.1455 55.5146 67.1617 56.6209 67.1438 57.7272C67.1357 58.1619 67.1211 58.6014 67.0885 59.0345C66.7034 59.1514 66.3293 59.3023 65.9706 59.4855C65.6061 59.724 64.2424 61.2029 64.2424 61.2029L61.5754 71.4355L61.6112 71.4764L61.5754 71.6153L61.7104 71.5842C62.088 71.9927 63.2157 73.1562 64.4328 73.8817L64.5467 75.8884C64.5467 75.8884 64.6834 77.9016 66.5271 78.7333C66.5694 79.4311 66.7012 82.2646 66.091 83.3872C65.6685 84.2073 65.4697 85.1252 65.515 86.0475C65.515 86.0475 65.7281 87.7502 65.4857 88.6457C65.344 89.2441 65.3335 89.8663 65.4548 90.4693C65.4548 90.4693 65.4548 90.667 65.4548 91.0069C65.4548 92.8191 65.4759 98.6266 65.4548 99.2835C65.4238 100.06 65.4548 111.539 65.4548 111.539C65.4548 111.539 65.3034 117.276 64.8185 118.83C64.3336 120.384 64.4556 125.53 64.4556 125.53C64.4556 125.53 64.1513 131.66 65.2269 132.869C65.2269 132.923 65.2172 132.978 65.2155 133.032C65.2155 133.057 65.2155 133.085 65.2155 133.109C65.2025 133.575 65.292 134.07 65.6907 134.222C66.5043 134.536 67.5799 135.477 67.7834 135.746C67.9868 136.016 69.1698 136.688 70.7124 136.508C71.6788 136.399 72.6513 136.354 73.6236 136.374C73.6236 136.374 74.2322 136.263 74.0353 135.503C73.9083 135.029 73.4332 134.3 73.0947 133.821C73.1566 133.838 73.2168 133.851 73.2737 133.862L73.3323 133.874H73.3779C73.4028 133.875 73.4278 133.875 73.4527 133.874H73.4853C73.5156 133.876 73.5461 133.876 73.5764 133.874C73.9848 133.835 75.5079 134.547 75.7797 135.018C76.0514 135.488 77.0099 135.846 77.7324 135.936C78.162 135.988 79.2457 135.9 80.1554 135.782C80.6135 135.735 81.0672 135.652 81.5125 135.534C81.7273 135.452 81.7729 135.191 81.711 134.897C81.638 134.523 81.4392 134.186 81.148 133.942C80.8844 133.754 80.5362 133.259 80.279 132.854L80.2107 132.745C80.6647 132.31 81.4848 130.888 81.7338 130.594C82.0365 130.236 81.2456 117.149 81.2456 117.149V110.588L82.4579 104.379L83.3057 101.092L84.0331 96.1314C84.0331 96.1314 85.3056 90.3369 84.9135 89.7683C84.9135 89.7568 84.588 83.7908 84.2463 82.3577C84.0982 81.7188 84.1356 80.2808 84.2235 78.882C84.3153 78.7904 84.3794 78.6745 84.4082 78.5478C84.437 78.4211 84.4294 78.2888 84.3862 78.1663C84.362 78.0825 84.3304 78.001 84.2919 77.9228C84.2919 77.8983 84.2919 77.8722 84.2919 77.8476C84.9948 77.5228 85.7294 77.272 86.4838 77.0992C87.6961 76.8607 87.3934 76.2332 87.3934 76.2332C87.3934 76.2332 87.6668 75.6956 87.8474 75.3671C88.028 75.0387 87.8783 72.1398 87.8474 71.9012C87.836 71.8048 87.7612 71.2721 87.6749 70.6675C88.0638 70.3897 88.5699 70.0449 89.1215 69.7181C90.1711 69.0939 89.9352 68.4353 89.8489 68.2638ZM74.032 109.693C74.032 109.693 73.1224 112.023 73.4869 112.619C73.8514 113.216 73.4267 115.43 73.4267 115.43L73.1224 118.716C73.1224 118.716 72.2746 124.811 72.5772 126.244C72.8148 127.368 72.9027 130.727 72.9304 132.127C72.9095 132.135 72.8894 132.145 72.8702 132.156L72.8295 132.178C72.9694 131.627 72.9108 130.512 72.216 128.271L72.1574 119.01C72.1574 119.01 72.05 108.313 72.8913 107.117C73.7326 105.921 74.0304 103.89 74.0304 103.89C74.0304 103.89 73.8481 106.82 73.7293 107.596C73.6106 108.372 74.032 109.693 74.032 109.693ZM72.338 132.71C72.3299 132.73 72.3201 132.75 72.3136 132.767L72.2681 132.709C72.2913 132.711 72.3147 132.711 72.338 132.71Z" fill="url(#paint0_linear_213_286)"/>
<path d="M81.615 136.38C81.1447 136.562 78.5948 136.871 77.8821 136.784C77.1693 136.697 76.2255 136.335 75.957 135.861C75.6885 135.387 74.1833 134.671 73.7798 134.717C73.6144 134.722 73.4493 134.699 73.2916 134.648C73.0132 134.564 72.7413 134.459 72.478 134.335C72.4412 134.129 72.4473 133.917 72.4959 133.714C72.5052 133.673 72.5172 133.632 72.5317 133.593C72.6266 133.325 72.8231 133.105 73.0784 132.982L73.137 132.954C73.2498 132.905 73.3677 132.869 73.4885 132.846C74.7675 132.599 80.0447 133.094 80.0447 133.094C80.0447 133.094 80.1928 133.361 80.3962 133.691C80.65 134.099 80.995 134.598 81.2554 134.786C81.5438 135.033 81.7395 135.372 81.8103 135.746C81.8721 136.036 81.8265 136.3 81.615 136.38Z" fill="#F1F1F1"/>
<path opacity="0.1" d="M81.615 136.38C81.1447 136.562 78.5965 136.871 77.8837 136.784C77.171 136.697 76.2272 136.333 75.9571 135.861C75.6869 135.389 74.185 134.671 73.7814 134.717C73.3779 134.763 72.4796 134.335 72.4796 134.335C72.4796 134.335 72.3397 133.681 72.7465 133.235L73.5601 133.815C73.5601 133.815 75.7374 134.493 76.1409 135.122C76.5445 135.751 77.28 136.103 78.3426 136.166C79.1367 136.219 80.9609 135.908 81.8152 135.753C81.8721 136.036 81.8282 136.3 81.615 136.38Z" fill="#202020"/>
<path d="M73.8253 137.214C72.8655 137.195 71.9055 137.24 70.9516 137.349C69.4236 137.529 68.2569 136.859 68.0535 136.583C67.8501 136.307 66.7972 135.374 65.9885 135.047C65.593 134.893 65.5003 134.393 65.5182 133.926C65.5182 133.902 65.5182 133.874 65.5182 133.849C65.5332 133.553 65.5768 133.259 65.6484 132.972L71.98 132.836L72.5284 133.583L72.613 133.697L72.9466 134.153C72.9466 134.153 73.098 134.353 73.2965 134.643C73.6317 135.134 74.1003 135.858 74.2256 136.336C74.4258 137.103 73.8253 137.214 73.8253 137.214Z" fill="#F1F1F1"/>
<path opacity="0.1" d="M73.8253 137.214C72.8655 137.195 71.9055 137.24 70.9516 137.349C69.4252 137.529 68.2569 136.859 68.0551 136.583C67.8533 136.307 66.7972 135.366 65.9885 135.05C65.593 134.897 65.5003 134.397 65.5182 133.929C65.9706 134.036 66.9209 134.307 67.2935 134.779C67.7817 135.41 68.6555 136.47 69.8971 136.537C70.8995 136.591 73.3404 136.411 74.2354 136.34C74.4274 137.103 73.8253 137.214 73.8253 137.214Z" fill="#202020"/>
<path opacity="0.1" d="M73.0719 132.975C72.9987 133.521 72.7725 133.668 72.6098 133.701C72.57 133.708 72.5291 133.708 72.4894 133.701C72.468 133.699 72.4468 133.696 72.4259 133.691C72.4259 133.691 66.7403 134.952 65.5914 133.931C65.5623 133.905 65.5351 133.876 65.5101 133.846C65.5251 133.55 65.5687 133.256 65.6402 132.969L71.9719 132.833L72.5203 133.58C72.6153 133.312 72.8117 133.092 73.067 132.969L73.0719 132.975Z" fill="#202020"/>
<path opacity="0.1" d="M80.3946 133.684C80.2676 133.825 80.1619 133.905 80.0952 133.877C79.7957 133.756 77.3418 133.336 76.5624 133.697C75.7829 134.058 73.1451 133.756 73.1451 133.756C73.1451 133.756 73.1451 133.442 73.1305 132.939C73.2433 132.89 73.3612 132.854 73.482 132.831C74.761 132.585 80.0382 133.08 80.0382 133.08C80.0382 133.08 80.1928 133.354 80.3946 133.684Z" fill="#202020"/>
<path d="M84.108 96.7213L83.3887 101.712L82.5523 105.019L81.3547 111.271V117.889C81.3547 117.889 82.1325 131.057 81.8331 131.416C81.5337 131.776 80.3962 133.823 80.0968 133.704C79.7974 133.585 77.3435 133.163 76.564 133.522C75.7846 133.882 73.1468 133.583 73.1468 133.583C73.1468 133.583 73.0866 128.473 72.7872 127.03C72.4877 125.587 73.3258 119.455 73.3258 119.455L73.6252 116.149C73.6252 116.149 74.045 113.923 73.6854 113.322C73.3258 112.721 74.224 110.381 74.224 110.381C74.224 110.381 73.8058 109.055 73.9262 108.274C74.0467 107.493 74.224 104.547 74.224 104.547C74.224 104.547 73.9262 106.593 73.0947 107.794C72.2632 108.995 72.3689 119.759 72.3689 119.759L72.4275 129.073C73.9262 134.005 72.4275 133.522 72.4275 133.522C72.4275 133.522 66.7419 134.786 65.5931 133.763C64.4442 132.74 64.7729 126.301 64.7729 126.301C64.7729 126.301 64.6541 121.131 65.1325 119.569C65.6109 118.007 65.7623 112.234 65.7623 112.234C65.7623 112.234 65.7314 100.689 65.7623 99.9094C65.7851 99.2558 65.7623 93.4041 65.7623 91.5756C65.7623 91.2357 65.7623 91.0347 65.7623 91.0347L66.449 89.3222L74.5853 88.2993H78.4777C78.4777 88.2993 84.3358 89.6817 84.9411 90.2781C84.9541 90.2881 84.9651 90.3002 84.9737 90.3141C85.3659 90.8909 84.108 96.7213 84.108 96.7213Z" fill="#3B3B3B"/>
<path opacity="0.1" d="M74.2289 122.935C74.2289 122.935 76.0189 127.264 76.8634 127.565C77.708 127.865 74.2289 122.935 74.2289 122.935Z" fill="#202020"/>
<path opacity="0.1" d="M74.8912 129.308C74.8912 129.308 80.9348 129.609 80.8746 130.271C80.8144 130.932 74.8912 129.308 74.8912 129.308Z" fill="#202020"/>
<path opacity="0.1" d="M66.8054 127.578C67.0446 127.805 71.4154 128.231 71.0557 128.646C70.6961 129.061 67.165 129.869 67.165 129.869L66.8054 127.578Z" fill="#202020"/>
<path opacity="0.1" d="M66.0877 120.11C66.0877 120.29 66.986 125.882 67.2268 126.122C67.4676 126.362 69.4415 126.602 69.4415 126.602L66.0877 120.11Z" fill="#202020"/>
<path d="M72.6049 43.6774C71.7473 44.6398 71.3763 46.0043 70.3771 46.8181C69.7702 47.3083 69.0021 47.542 68.2959 47.8753C67.5897 48.2087 66.8899 48.7169 66.68 49.4718C66.4457 50.3215 66.8981 51.1892 67.1357 52.0389C67.3814 52.9181 67.396 53.8364 67.4107 54.7564C67.4269 55.8692 67.4448 56.982 67.4253 58.0948C67.396 59.8286 67.2528 61.6424 66.3367 63.1115C69.6449 64.1687 73.163 64.3125 76.6323 64.4482C77.299 64.4959 77.9688 64.479 78.6322 64.3975C79.2071 64.2825 79.7758 64.1379 80.336 63.9645C81.4435 63.6702 82.5848 63.5235 83.7304 63.5282C84.23 63.5282 84.7393 63.5592 85.221 63.4285C85.7026 63.2978 86.1664 62.9628 86.2966 62.4791C86.4121 62.0444 86.2429 61.582 86.0216 61.1914C85.618 60.479 85.0452 59.8842 84.6124 59.1815C84.1705 58.4393 83.9084 57.6033 83.847 56.7407C83.7857 55.8782 83.9269 55.0133 84.2593 54.2155C84.6433 53.3184 85.2617 52.5373 85.6392 51.6386C86.0259 50.6736 86.1287 49.6175 85.9354 48.5956C85.7422 47.5737 85.261 46.629 84.5489 45.8736C83.2357 44.5238 81.3514 44.0009 79.5484 43.7231C78.7892 43.6331 78.0649 43.352 77.4427 42.9061C76.7511 42.4485 75.8545 42.3374 75.0441 42.4387C74.1093 42.5439 73.2434 42.9836 72.6049 43.6774Z" fill="#515151"/>
<g opacity="0.1">
<path opacity="0.1" d="M84.3097 53.2727C83.978 54.0601 83.8358 54.915 83.8948 55.7679C83.9312 55.158 84.0716 54.5589 84.3097 53.9966C84.6922 53.0995 85.3105 52.3184 85.688 51.4196C85.9967 50.6692 86.1265 49.8567 86.0672 49.0469C86.0336 49.6145 85.9055 50.1724 85.688 50.6974C85.3105 51.5961 84.6922 52.3756 84.3097 53.2727Z" fill="#202020"/>
<path opacity="0.1" d="M67.4595 54.5342C67.4693 55.1747 67.479 55.8169 67.4807 56.4575C67.4807 55.5751 67.4725 54.6943 67.4595 53.8135C67.4465 52.9001 67.4302 51.9752 67.1845 51.0944C67.0218 50.5356 66.7809 49.9685 66.6963 49.4048C66.5515 50.2055 66.9632 51.0176 67.1845 51.8167C67.4302 52.6893 67.4465 53.6207 67.4595 54.5342Z" fill="#202020"/>
<path opacity="0.1" d="M85.2763 62.4938C84.7882 62.6261 84.287 62.5967 83.7874 62.5935C82.6426 62.5862 81.5019 62.7301 80.3946 63.0216C79.8343 63.1943 79.2657 63.3383 78.6908 63.453C78.0269 63.5358 77.3566 63.5533 76.6893 63.5053C73.3372 63.3729 69.9378 63.2307 66.7272 62.2683C66.6319 62.482 66.5232 62.6894 66.4018 62.8892C69.71 63.9448 73.2281 64.0903 76.6958 64.2259C77.3631 64.2739 78.0334 64.2564 78.6973 64.1736C79.2701 64.06 79.8366 63.9166 80.3946 63.7438C81.4996 63.4513 82.6381 63.3057 83.7809 63.3108C84.2804 63.3108 84.7882 63.3419 85.2698 63.2095C85.7515 63.0771 86.2153 62.7454 86.3454 62.2617C86.4003 62.0377 86.3947 61.8031 86.3292 61.582C86.1843 62.0395 85.7368 62.3582 85.2763 62.4938Z" fill="#202020"/>
</g>
<path d="M80.4564 60.5574C80.336 60.8287 79.8283 63.172 79.7078 63.4122C79.5874 63.6524 78.93 67.4974 78.8698 67.7131C78.8096 67.9288 74.5364 66.8111 74.5364 66.8111L71.9637 64.6459L69.3195 62.0036C69.3195 62.0036 69.2414 59.6195 71.1892 58.8547C71.3216 58.8025 71.4575 58.7599 71.596 58.7273C73.9588 58.157 73.7212 50.9425 73.7212 50.9425L78.5704 53.0456C78.5704 53.0456 77.6722 57.255 77.7031 58.0671C77.7112 58.34 77.9244 58.5099 78.2026 58.6129C78.6329 58.7358 79.0808 58.7844 79.5272 58.7567C79.5272 58.7567 80.5768 60.2878 80.4564 60.5574Z" fill="#D3D3D3"/>
<path d="M89.1378 68.4631L89.8262 68.6445C89.8262 68.6445 90.3355 69.4223 89.1378 70.1462C88.3773 70.6101 87.6474 71.1226 86.9524 71.6806L83.4131 72.7624L82.7313 70.6136L86.0249 68.1036L89.1378 68.4631Z" fill="#BDBDBD"/>
<path d="M63.3084 70.5384L61.9317 71.8914C61.9317 71.8914 64.4149 74.7772 66.3253 74.9569C68.2357 75.1367 69.4675 72.7624 69.4675 72.7624L67.8142 70.1478L63.3084 70.5384Z" fill="#BDBDBD"/>
<path opacity="0.1" d="M63.3084 70.5384L61.9317 71.8914C61.9317 71.8914 64.4149 74.7772 66.3253 74.9569C68.2357 75.1367 69.4675 72.7624 69.4675 72.7624L67.8142 70.1478L63.3084 70.5384Z" fill="#202020"/>
<path opacity="0.1" d="M76.385 55.6568C79.0299 55.6568 81.174 53.5037 81.174 50.8477C81.174 48.1917 79.0299 46.0386 76.385 46.0386C73.7401 46.0386 71.596 48.1917 71.596 50.8477C71.596 53.5037 73.7401 55.6568 76.385 55.6568Z" fill="#202020"/>
<path d="M76.385 55.2957C79.0299 55.2957 81.174 53.1426 81.174 50.4866C81.174 47.8306 79.0299 45.6775 76.385 45.6775C73.7401 45.6775 71.596 47.8306 71.596 50.4866C71.596 53.1426 73.7401 55.2957 76.385 55.2957Z" fill="#D3D3D3"/>
<path opacity="0.1" d="M84.9769 90.8598C83.8865 90.9852 82.8124 91.2267 81.7729 91.5805C79.9829 92.1785 65.956 91.5903 65.7607 91.5805C65.7607 91.2406 65.7607 91.0396 65.7607 91.0396L66.4474 89.3271L74.5837 88.3041H78.4761C78.4761 88.3041 84.3342 89.6866 84.9395 90.283C84.9639 90.6425 84.9769 90.8598 84.9769 90.8598Z" fill="#202020"/>
<path opacity="0.1" d="M80.4564 60.5574C80.336 60.8287 79.8283 63.1719 79.7078 63.4121C79.5874 63.6524 78.93 67.4973 78.8698 67.713C78.8096 67.9287 74.5364 66.811 74.5364 66.811L71.9637 64.6459L69.3195 62.0036C69.3195 62.0036 69.2414 59.6194 71.1892 58.8547L76.0254 64.4383L78.2026 58.6129C78.6329 58.7358 79.0808 58.7844 79.5272 58.7567C79.5272 58.7567 80.5768 60.2878 80.4564 60.5574Z" fill="#202020"/>
<path d="M76.0254 64.6181L71.0753 58.8988C70.7855 58.7131 70.4543 58.6026 70.1115 58.5772C69.7687 58.5518 69.4249 58.6123 69.1112 58.7534C68.003 59.2355 66.6264 59.626 66.2667 59.8662C65.9071 60.1064 64.5598 61.5934 64.5598 61.5934L68.5726 72.1349L66.8054 79.0781C66.8054 79.0781 67.0755 82.6257 66.3872 83.9183C65.968 84.7447 65.7717 85.6669 65.8176 86.5932C65.8176 86.5932 66.0275 88.3074 65.7883 89.2078C65.6486 89.8098 65.638 90.4348 65.7574 91.0412C65.7574 91.0412 79.978 91.6426 81.7729 91.0412C82.8121 90.6865 83.8863 90.4449 84.9769 90.3206C84.9769 90.3206 84.6515 84.3072 84.326 82.8643C84.0006 81.4214 84.5962 75.9211 84.5962 75.9211L84.2072 70.0286L86.5407 63.9825C86.5407 63.9825 85.2763 60.1064 83.9583 59.7159C83.9583 59.7159 81.5646 59.1439 81.0552 58.8743C80.5459 58.6047 79.0488 58.3629 79.0488 58.3629L78.2629 58.6276L76.0254 64.6181Z" fill="#3B3B3B"/>
<path opacity="0.1" d="M82.9318 69.8296L72.5154 69.1183C72.2518 69.1003 72.0236 69.3004 72.0056 69.5651L70.8873 86.0802C70.8694 86.3449 71.0686 86.5741 71.3322 86.5921L81.7486 87.3033C82.0122 87.3213 82.2405 87.1213 82.2584 86.8566L83.3767 70.3415C83.3946 70.0768 83.1954 69.8476 82.9318 69.8296Z" fill="#202020"/>
<path d="M83.2905 69.4709L72.8741 68.7596C72.6105 68.7416 72.3823 68.9416 72.3643 69.2064L71.246 85.7215C71.2281 85.9862 71.4273 86.2154 71.6909 86.2334L82.1073 86.9446C82.3709 86.9626 82.5992 86.7626 82.6171 86.4979L83.7354 69.9828C83.7533 69.7181 83.5541 69.4889 83.2905 69.4709Z" fill="#515151"/>
<path d="M82.9467 70.7655L73.0401 70.0891L72.022 85.1238L81.9287 85.8003L82.9467 70.7655Z" fill="#F1F1F1"/>
<path opacity="0.1" d="M82.0585 74.603L73.9662 74.0342L73.8083 76.299L81.9006 76.8679L82.0585 74.603Z" fill="#202020"/>
<path opacity="0.1" d="M81.7657 83.6034L80.4814 83.5157L80.4015 84.696L81.6857 84.7837L81.7657 83.6034Z" fill="#202020"/>
<path opacity="0.1" d="M80.4989 80.7547L73.9254 80.3058L73.8454 81.4862L80.419 81.9351L80.4989 80.7547Z" fill="#202020"/>
<path d="M81.7206 70.2033L74.8759 69.736L74.753 71.5505L81.5978 72.0179L81.7206 70.2033Z" fill="#515151"/>
<path opacity="0.1" d="M81.7206 70.2033L74.8759 69.736L74.753 71.5505L81.5978 72.0179L81.7206 70.2033Z" fill="#202020"/>
<path opacity="0.1" d="M76.6242 90.5281C76.6242 90.5281 76.564 99.4273 74.2289 104.537C74.2289 104.537 77.044 97.8031 77.044 97.5334C77.044 97.2638 78.5997 94.4369 78.1831 93.5953C77.7665 92.7538 76.6242 90.5281 76.6242 90.5281Z" fill="#202020"/>
<path opacity="0.1" d="M76.7511 49.2839C76.6617 48.4963 76.8537 47.7023 77.293 47.0436C77.2408 47.7038 77.4267 48.3609 77.8169 48.8949C78.207 49.4289 78.7754 49.8042 79.4182 49.9523C79.3634 49.9045 79.3242 49.8411 79.3059 49.7705C79.2876 49.6999 79.291 49.6254 79.3157 49.5568C79.6493 49.9359 79.9048 50.3853 80.2823 50.7186C80.6598 51.052 81.2261 51.2514 81.6703 51.0144C82.2741 50.6876 82.2806 49.8264 82.1243 49.1565C81.7891 47.7297 81.1013 46.4107 80.1244 45.3213C79.8807 44.992 79.5644 44.7238 79.2002 44.5378C78.836 44.3519 78.4338 44.2531 78.0253 44.2493C77.101 44.1774 76.1409 44.2591 75.3127 44.6758C74.8465 44.9312 74.41 45.2376 74.0108 45.5893L71.7327 47.4554C71.5135 47.614 71.3258 47.8124 71.1794 48.0404C71.0817 48.231 71.023 48.4394 71.0069 48.6532C70.9487 49.2643 71.0613 49.8797 71.3321 50.4301C71.6029 50.9806 72.0211 51.4444 72.5398 51.7694C72.5288 51.2863 72.6611 50.8109 72.9199 50.4036C73.1786 49.9962 73.5521 49.6753 73.993 49.4816C74.062 49.5396 74.1179 49.6118 74.1569 49.6932C74.1959 49.7747 74.2171 49.8635 74.2191 49.9539L74.6992 49.0944C74.7706 48.938 74.8831 48.8041 75.0246 48.7071C75.3208 48.5437 75.6902 48.7365 75.9424 48.9669C76.1946 49.1973 76.4403 49.4849 76.7788 49.5209L76.7918 48.2414" fill="#202020"/>
<path d="M76.7511 49.1042C76.6614 48.316 76.8535 47.5214 77.293 46.8622C77.1465 48.1695 78.1278 49.5192 79.4198 49.7709C79.3649 49.7235 79.3257 49.6604 79.3074 49.59C79.2891 49.5197 79.2925 49.4454 79.3173 49.3771C79.6509 49.7562 79.9064 50.2039 80.2839 50.5389C80.6614 50.8739 81.2277 51.0716 81.6719 50.833C82.2756 50.5062 82.2822 49.645 82.1259 48.9767C81.7907 47.5499 81.1029 46.2309 80.126 45.1415C79.8229 44.7705 79.441 44.4723 79.0081 44.2689C78.6948 44.1525 78.3655 44.0853 78.0318 44.0696C77.1075 43.9977 76.1474 44.0777 75.3191 44.4944C74.8533 44.751 74.4168 45.0578 74.0173 45.4095L71.7392 47.2756C71.5196 47.4338 71.3319 47.6323 71.1859 47.8606C71.0879 48.0512 71.0293 48.2596 71.0134 48.4734C70.9553 49.0843 71.068 49.6994 71.3388 50.2496C71.6096 50.7998 72.0277 51.2632 72.5463 51.588C72.5357 51.105 72.6682 50.6298 72.9269 50.2225C73.1856 49.8153 73.5589 49.4943 73.9994 49.3003C74.0682 49.3584 74.124 49.4306 74.163 49.512C74.2019 49.5934 74.2233 49.6822 74.2256 49.7725L74.704 48.9162C74.775 48.7596 74.8876 48.6256 75.0295 48.529C75.3256 48.3656 75.695 48.5584 75.9473 48.7888C76.1995 49.0192 76.4452 49.3052 76.7837 49.3427L76.7967 48.0616" fill="#515151"/>
<path d="M79.0195 79.4376C78.6013 79.2252 71.6855 80.3086 71.6855 80.3086C71.6855 80.3086 70.5464 79.9818 67.7931 79.5275C65.0398 79.0732 64.864 76.3704 64.864 76.3704L64.563 70.96L65.4922 70.1429L69.4724 72.7575C69.4724 72.7575 69.5343 74.0794 69.4724 74.318C69.4334 74.4814 69.3292 74.6759 69.339 74.8082C69.342 74.8441 69.3567 74.8779 69.3808 74.9045C69.405 74.9311 69.4372 74.949 69.4724 74.9553C69.7425 75.024 73.4234 75.622 73.4234 75.622C73.4234 75.622 81.9551 75.0354 84.0819 77.9212C84.2504 78.133 84.3779 78.3747 84.4578 78.6336C84.985 80.606 79.3987 79.6255 79.0195 79.4376Z" fill="#D3D3D3"/>
<path opacity="0.1" d="M84.4627 78.6451C84.1373 78.7905 83.9355 78.8951 83.9355 78.8951C83.9355 78.8951 80.8828 78.8052 79.1676 78.181C77.4525 77.5568 75.368 77.6679 75.368 77.6679C75.368 77.6679 68.2211 76.4325 69.3293 74.8197C69.3323 74.8555 69.347 74.8894 69.3711 74.916C69.3952 74.9426 69.4274 74.9604 69.4627 74.9668C69.7328 75.0354 73.4137 75.6335 73.4137 75.6335C73.4137 75.6335 81.9454 75.0468 84.0722 77.9326C84.2459 78.1433 84.3784 78.385 84.4627 78.6451Z" fill="#202020"/>
<path d="M87.4308 69.1249C87.4308 69.1249 87.8506 72.1006 87.8799 72.3424C87.9092 72.5843 88.0606 75.4979 87.8799 75.8296C87.6993 76.1613 87.4308 76.7005 87.4308 76.7005C87.4308 76.7005 87.7302 77.3313 86.5326 77.5731C85.3349 77.815 83.929 78.534 83.929 78.534C83.929 78.534 80.8746 78.4441 79.1692 77.8134C77.4639 77.1826 75.368 77.3019 75.368 77.3019C75.368 77.3019 66.296 75.7381 70.1884 73.8295C74.0808 71.9209 76.8341 74.506 76.8341 74.506L81.174 74.2363C81.174 74.2363 82.7915 73.2428 83.2406 73.3343C83.5578 73.3749 83.8798 73.3227 84.1682 73.184L84.1991 70.027L87.4308 69.1249Z" fill="#D3D3D3"/>
<path opacity="0.1" d="M65.4238 61.8206L64.5548 61.7748L61.9219 72.0696C61.9219 72.0696 64.7648 71.3473 65.9901 72.0696C67.2154 72.7918 69.4626 72.9405 69.4626 72.9405L68.6246 64.7342L65.4238 61.8206Z" fill="#202020"/>
<path d="M65.4238 61.6392L64.5548 61.5934L61.9219 71.8882C61.9219 71.8882 64.7648 71.1659 65.9901 71.8882C67.2154 72.6104 69.4626 72.7591 69.4626 72.7591L68.6246 64.5528L65.4238 61.6392Z" fill="#3B3B3B"/>
<path opacity="0.1" d="M85.3366 63.8942L86.5326 64.1655C86.5326 64.1655 89.587 68.5775 89.8262 68.8243C90.0654 69.071 88.6871 69.9681 88.1192 69.9681C87.5513 69.9681 84.767 70.2949 83.9583 71.0499C83.1495 71.8048 83.4864 68.0056 83.4864 67.919C83.4864 67.8324 84.4904 65.4352 84.4904 65.4352L85.3366 63.8942Z" fill="#202020"/>
<path d="M85.3366 63.7145L86.5326 63.9841C86.5326 63.9841 89.587 68.4043 89.8262 68.6445C90.0654 68.8847 88.6871 69.7884 88.1192 69.7884C87.5513 69.7884 84.767 70.1152 83.9583 70.8701C83.1495 71.6251 83.4864 67.8258 83.4864 67.7392C83.4864 67.6526 84.4969 65.2472 84.4969 65.2472L85.3366 63.7145Z" fill="#3B3B3B"/>
<g opacity="0.1">
<path opacity="0.1" d="M77.2848 46.8769C77.2778 46.7516 77.2805 46.6259 77.293 46.501C77.0452 46.8744 76.8748 47.2939 76.7918 47.7348V48.1139C76.7918 48.1139 76.7918 48.1057 76.7918 48.1008V48.1907C76.7918 48.4554 76.7918 48.7218 76.7836 48.9865H76.7609V49.109C76.7609 49.0665 76.7609 49.0257 76.7527 48.9832C76.4273 48.9309 76.1946 48.6564 75.9521 48.4374C75.7097 48.2185 75.3305 48.0093 75.0343 48.1776C74.8925 48.2742 74.7799 48.4082 74.7089 48.5649L74.2256 49.4211C74.2235 49.331 74.2022 49.2424 74.1632 49.1613C74.1242 49.0801 74.0683 49.0083 73.9994 48.9505C73.5586 49.1442 73.1851 49.4651 72.9263 49.8724C72.6676 50.2798 72.5353 50.7552 72.5463 51.2382C72.1017 50.9585 71.7297 50.5765 71.4612 50.1239C71.1927 49.6713 71.0353 49.161 71.002 48.6351C70.9737 49.2223 71.1019 49.8063 71.3734 50.3271C71.6448 50.8479 72.0497 51.2865 72.5463 51.5977C72.5357 51.1148 72.6682 50.6396 72.9269 50.2323C73.1856 49.825 73.5589 49.504 73.9994 49.31C74.0682 49.3682 74.124 49.4404 74.1629 49.5218C74.2019 49.6032 74.2233 49.692 74.2256 49.7823L74.704 48.926C74.775 48.7693 74.8876 48.6353 75.0295 48.5387C75.3256 48.3753 75.695 48.5682 75.9472 48.7986C76.1995 49.029 76.4452 49.3149 76.7836 49.3525C76.7836 48.9342 76.788 48.517 76.7967 48.1008C76.8765 47.6642 77.0425 47.2481 77.2848 46.8769Z" fill="#202020"/>
<path opacity="0.1" d="M76.7348 48.5224C76.743 48.4113 76.756 48.3002 76.7722 48.1956L76.7901 47.7446C76.7412 48.0007 76.7227 48.2618 76.7348 48.5224Z" fill="#202020"/>
<path opacity="0.1" d="M81.6719 50.4718C81.2277 50.7104 80.6614 50.5111 80.2839 50.1777C79.9064 49.8444 79.6509 49.395 79.3173 49.0159C79.2926 49.0845 79.2892 49.159 79.3075 49.2296C79.3258 49.3001 79.365 49.3635 79.4198 49.4113C79.3873 49.4113 79.3563 49.395 79.3254 49.3868C79.6509 49.7626 79.9096 50.2039 80.2839 50.5307C80.6582 50.8575 81.2277 51.0634 81.6719 50.8248C82.1162 50.5862 82.2431 50.0274 82.204 49.4832C82.1747 49.9113 82.0218 50.2823 81.6719 50.4718Z" fill="#202020"/>
<path opacity="0.1" d="M79.3157 49.3836C78.7715 49.2346 78.2857 48.9222 77.9233 48.4882C77.5609 48.0542 77.3393 47.5194 77.2881 46.9553C77.1953 48.2381 78.1587 49.5241 79.4198 49.7708C79.3661 49.724 79.3275 49.6621 79.3089 49.5932C79.2904 49.5242 79.2927 49.4512 79.3157 49.3836Z" fill="#202020"/>
</g>
<path d="M157.463 76.091C157.463 76.091 156.822 76.0011 156.822 75.0648C156.822 74.1285 156.363 72.3751 156.363 72.3751C156.363 72.3751 155.966 69.3243 155.418 68.8406C154.869 68.3569 154.165 65.5169 154.165 65.5169C154.165 65.5169 154.044 63.9759 153.798 63.6442C153.553 63.3125 153.221 62.5003 152.731 61.3418C152.241 60.1832 150.204 59.389 150.204 59.389C150.204 59.389 146.512 57.2386 145.465 56.5376C145.37 56.4795 145.28 56.4116 145.198 56.3349C145.016 56.0964 144.222 56.0915 144.222 56.0915C144.139 55.5637 144.059 54.9591 144.033 54.4116C144.033 54.3528 144.033 54.294 144.033 54.2352C145.2 53.5426 146.079 52.4507 146.508 51.1598C146.528 51.0977 146.544 51.034 146.562 50.9703C146.633 50.9481 146.699 50.9111 146.755 50.8615C146.812 50.8119 146.857 50.751 146.887 50.6827C146.98 50.4719 146.983 50.2268 147.101 50.029C147.237 49.797 147.498 49.6728 147.703 49.4996C148.22 49.0567 148.354 48.3132 148.329 47.6384C148.313 47.0893 148.225 46.537 148.259 45.9928C148.259 45.9471 148.259 45.9013 148.269 45.8556C148.279 45.7755 148.29 45.6922 148.305 45.6137C148.385 45.2085 148.559 44.8261 148.656 44.4241C148.754 44.0221 148.764 43.5695 148.536 43.2231C148.202 42.7149 147.507 42.6136 146.897 42.5694C146.206 42.5106 145.595 42.5858 145.145 42.009C144.938 41.7077 144.705 41.4255 144.448 41.1658C144.357 41.0808 143.472 40.5366 143.472 40.5023C142.606 40.0979 141.623 40.0219 140.706 40.2883C140.245 40.4223 139.814 40.6412 139.347 40.7507C138.344 40.9893 137.189 40.7311 136.336 41.3079C135.861 41.6348 135.576 42.156 135.31 42.661C135.093 43.0771 134.872 43.4938 134.649 43.911C134.288 44.5957 133.923 45.2918 133.772 46.05C133.74 46.2156 133.72 46.3833 133.712 46.5517C133.712 46.6122 133.712 46.6726 133.712 46.7331C133.712 46.7592 133.712 46.7854 133.712 46.8115C133.712 46.8671 133.712 46.9226 133.721 46.9749C133.731 47.0272 133.721 47.0419 133.733 47.0762C133.744 47.1106 133.747 47.1874 133.757 47.2396C133.767 47.2919 133.786 47.3851 133.806 47.4553C133.806 47.4864 133.825 47.5158 133.835 47.5469C133.845 47.5779 133.871 47.6563 133.892 47.7103C133.913 47.7642 133.915 47.7675 133.928 47.7952C133.952 47.8524 133.982 47.908 134.011 47.9586C134.024 47.9799 134.034 48.0011 134.047 48.0224C134.091 48.0989 134.141 48.172 134.196 48.2413C134.543 48.6776 135.057 48.9554 135.436 49.364C135.436 49.3803 135.436 49.3966 135.436 49.413C135.436 49.4571 135.436 49.5012 135.436 49.547C135.46 50.4581 135.704 51.3498 136.149 52.1444C136.594 52.939 137.225 53.6124 137.988 54.1061C137.988 54.1682 137.996 54.2319 137.999 54.2956C138.031 54.7801 138.025 55.2664 137.981 55.7499C137.915 55.6718 137.832 55.6095 137.739 55.5676C137.645 55.5258 137.544 55.5054 137.441 55.5081C137.371 55.5046 137.301 55.5107 137.233 55.5261L137.218 55.5146V55.5293C136.86 55.6176 136.419 55.9918 135.998 57.0556C135.998 57.0556 134.716 58.5066 133.739 58.4462C132.763 58.3857 130.291 59.9577 130.291 59.9577C130.291 59.9577 127.879 61.5281 127.362 63.1295C127.073 64.0378 126.725 64.9264 126.322 65.7897L123.333 71.9535L122.785 76.8557C122.785 76.8557 123.089 79.0307 123.029 79.3641C122.968 79.6974 124.28 82.6878 124.28 82.6878C124.28 82.6878 128.613 90.332 130.384 90.7242L130.511 90.636C130.587 90.6745 130.667 90.7041 130.75 90.7242L131.114 90.4676C131.137 90.7549 131.127 91.0438 131.085 91.3288C130.843 92.0854 131.178 97.0105 131.604 97.9763C132.031 98.942 131.879 111.606 131.879 111.606L131.819 112.722C131.819 112.722 131.819 112.758 131.834 112.82L131.819 113.085L131.863 113.108C131.909 113.463 131.894 113.823 131.819 114.173C131.666 114.663 131.604 116.048 131.604 116.048C131.604 116.048 130.384 123.872 130.963 125.444C131.542 127.016 132.032 128.738 132.032 128.738C132.032 128.738 132.642 130.699 132.062 131.026C131.481 131.352 129.835 131.932 130.171 132.748C130.48 133.503 131.653 135.526 131.827 135.822L131.813 135.985L131.573 138.588C131.612 138.932 131.705 139.267 131.848 139.582C132.11 140.15 132.618 140.737 133.588 140.673C133.751 140.662 133.938 140.644 134.122 140.619C135.894 140.379 138.074 139.585 138.074 139.585C137.961 139.513 137.858 139.427 137.767 139.328C137.68 139.244 137.611 139.142 137.564 139.03C137.517 138.917 137.494 138.796 137.495 138.675C137.521 138.199 136.637 135.943 136.416 135.385L136.366 135.261C136.366 135.261 138.38 133.145 138.045 131.272C138.045 131.272 135.816 129.965 136.549 129.246C137.283 128.527 138.595 126.468 138.595 126.468C138.595 126.468 138.655 118.763 138.595 117.615C138.532 116.816 138.57 116.012 138.707 115.222C138.732 115.105 138.761 114.989 138.792 114.873C139.808 115.027 140.834 115.105 141.861 115.106C142.236 115.106 142.616 115.099 143 115.083C143 115.192 143.005 115.31 143.015 115.436C143.099 117.345 143.257 120.693 143.386 121.937C143.568 123.718 144.575 128.524 144.575 128.524C144.575 128.524 142.653 129.761 144.91 132.815C144.91 132.815 144.91 133.92 144.761 134.081C144.601 134.605 144.472 135.138 144.375 135.678C144.281 136.251 144.242 136.835 144.394 137.135C144.761 137.858 146.957 137.799 146.957 137.799C146.975 137.795 146.993 137.792 147.011 137.791C147.426 137.747 147.845 137.786 148.244 137.907C148.644 138.027 149.015 138.227 149.336 138.493C150.171 139.167 153.338 138.872 155.055 138.657C155.727 138.57 156.176 138.493 156.176 138.493C156.197 138.417 156.205 138.337 156.199 138.258C156.181 137.835 155.85 136.907 153.611 136.078C153.611 136.078 151.506 134.656 151.535 133.418H151.488H151.245C151.398 133.413 151.506 133.413 151.506 133.413C151.506 133.413 150.681 130.392 151.017 130.145C151.354 129.898 150.345 126.55 150.345 126.55C150.345 126.55 149.768 120.929 149.735 120.536C149.737 120.198 149.789 119.863 149.888 119.54L149.735 116.456C149.735 116.456 149.706 115.432 149.735 115.098C149.732 114.809 149.709 114.52 149.667 114.234C149.652 114.119 149.638 114 149.621 113.882C150.41 113.681 150.923 113.497 150.923 113.497L150.832 102.769C151.502 101.462 151.626 98.5923 151.623 96.5595C151.623 95.2522 151.564 94.2849 151.564 94.2849L152.48 92.7831C152.48 92.7831 152.692 90.9857 152.357 90.5918C152.209 90.4137 152.275 90.2291 152.397 90.0771C152.462 90.0242 152.53 89.9762 152.601 89.9333C152.593 89.9219 152.586 89.9099 152.58 89.8974C152.644 89.8437 152.712 89.7951 152.783 89.7519C152.783 89.7519 152.458 89.2454 152.749 89.0313C153.022 89.2176 153.266 89.3663 153.452 89.4725C153.439 89.5918 153.426 89.6604 153.426 89.6604L153.504 89.497C153.683 89.5983 153.792 89.6604 153.792 89.6604C153.792 89.6604 155.227 86.7893 155.196 86.3677C155.165 85.9461 156.173 84.1617 156.173 84.1617C156.173 84.1617 156.295 83.2238 156.845 82.8316C157.395 82.4394 157.271 79.5977 157.271 79.5977C157.271 79.5977 157.424 78.1173 157.79 77.5143C158.156 76.9113 157.463 76.091 157.463 76.091ZM130.001 74.8311L130.029 75.5158C129.866 75.2527 129.749 75.0648 129.749 75.0648L130.001 74.8311Z" fill="#F1F1F1"/>
<path d="M153.877 88.4185L153.525 89.9219C153.525 89.9219 150.71 88.4757 150.204 86.6455C149.698 84.8154 151.052 84.1176 151.052 84.1176L153.676 85.2321L153.877 88.4185Z" fill="#F1F1F1"/>
<path opacity="0.1" d="M153.877 88.4185L153.525 89.9219C153.525 89.9219 150.71 88.4757 150.204 86.6455C149.698 84.8154 151.052 84.1176 151.052 84.1176L153.676 85.2321L153.877 88.4185Z" fill="#202020"/>
<path d="M138.077 139.583C138.077 139.583 135.474 140.544 133.684 140.665C132.734 140.729 132.234 140.144 131.977 139.58C131.837 139.269 131.746 138.938 131.707 138.6L131.943 136.01L132.066 134.632L135.869 133.638L136.408 135.294L136.458 135.418C136.673 135.972 137.542 138.217 137.516 138.686C137.514 138.807 137.536 138.928 137.582 139.04C137.628 139.153 137.695 139.255 137.781 139.34C137.869 139.433 137.969 139.515 138.077 139.583Z" fill="#F1F1F1"/>
<path d="M155.854 138.266C155.86 138.345 155.853 138.425 155.831 138.502C155.831 138.502 150.262 139.433 149.123 138.502C148.803 138.229 148.43 138.027 148.028 137.908C147.625 137.789 147.203 137.756 146.787 137.81C146.787 137.81 144.632 137.869 144.272 137.157C144.123 136.858 144.162 136.278 144.255 135.707C144.349 135.171 144.475 134.64 144.632 134.119L144.718 134.05L145.231 133.637L151.232 133.459H151.278C151.249 134.691 153.313 136.104 153.313 136.104C155.512 136.921 155.836 137.845 155.854 138.266Z" fill="#F1F1F1"/>
<path opacity="0.1" d="M155.855 138.266C155.861 138.345 155.853 138.425 155.831 138.501C155.831 138.501 150.262 139.433 149.125 138.501C148.805 138.229 148.431 138.027 148.028 137.908C147.626 137.789 147.203 137.756 146.787 137.81C146.787 137.81 144.63 137.869 144.271 137.157C144.123 136.858 144.16 136.277 144.253 135.706C145.083 135.789 146.393 135.996 146.907 136.493C147.685 137.245 149.003 137.997 149.81 138.057C150.448 138.096 154.241 138.217 155.855 138.266Z" fill="#202020"/>
<path opacity="0.1" d="M138.078 139.583C138.078 139.583 135.474 140.544 133.684 140.665C132.734 140.729 132.234 140.144 131.977 139.58C132.641 139.804 133.56 140.038 134.044 139.823C134.616 139.567 136.647 139.404 137.786 139.333C137.872 139.429 137.97 139.513 138.078 139.583Z" fill="#202020"/>
<path d="M141.941 62.1457C139.793 61.3074 137.03 58.5377 137.72 57.2435C137.872 56.9166 137.963 56.5643 137.988 56.2042C138.032 55.7152 138.039 55.2235 138.008 54.7335C137.959 53.9305 137.863 53.1311 137.72 52.3396C137.72 52.3396 144.425 52.4916 144.035 53.4835C143.921 53.776 143.901 54.2809 143.934 54.8447C143.967 55.4084 144.046 56.0506 144.131 56.5915C144.246 57.3317 144.365 57.8988 144.365 57.8988C144.365 57.8988 143.954 58.4756 143.714 58.5066C143.475 58.5377 145.023 63.3468 141.941 62.1457Z" fill="#C9C9C9"/>
<path opacity="0.1" d="M136.452 135.41L136.401 135.465C134.397 133.031 131.972 136.067 131.972 136.067L131.936 136.001L132.06 134.624L135.863 133.63L136.401 135.286L136.452 135.41Z" fill="#202020"/>
<path opacity="0.1" d="M151.281 133.63C151.281 133.63 149.817 133.601 149.035 134.294C148.254 134.987 144.479 134.442 144.642 134.294C144.689 134.218 144.718 134.133 144.726 134.044L145.239 133.63L151.24 133.452C151.263 133.567 151.281 133.63 151.281 133.63Z" fill="#202020"/>
<path d="M138.946 114.51C138.838 114.781 138.755 115.061 138.699 115.348C138.563 116.134 138.526 116.933 138.587 117.727C138.647 118.871 138.587 126.537 138.587 126.537C138.587 126.537 137.3 128.581 136.58 129.302C135.861 130.022 138.045 131.316 138.045 131.316C138.37 133.181 136.398 135.286 136.398 135.286C134.393 132.851 131.969 135.885 131.969 135.885C131.969 135.885 130.651 133.598 130.322 132.781C129.993 131.964 131.609 131.4 132.177 131.066C132.745 130.733 132.148 128.779 132.148 128.779C132.148 128.779 131.669 127.065 131.1 125.501C130.53 123.937 131.728 116.154 131.728 116.154C131.728 116.154 131.79 114.77 131.938 114.288C132.012 113.94 132.027 113.582 131.982 113.229C131.972 113.109 131.961 113.011 131.953 112.943C131.944 112.874 131.938 112.845 131.938 112.845L131.961 112.806L132.774 111.283C132.774 111.283 139.337 113.551 138.946 114.51Z" fill="#3B3B3B"/>
<path d="M151.281 133.451C151.281 133.451 149.817 133.42 149.035 134.104C148.254 134.789 144.479 134.255 144.642 134.104C144.805 133.954 144.79 132.843 144.79 132.843C142.575 129.805 144.465 128.573 144.465 128.573C144.465 128.573 143.477 123.793 143.298 122.02C143.172 120.783 143.018 117.445 142.935 115.554C142.899 114.737 142.878 114.173 142.878 114.173L144.671 113.815L144.904 113.77L149.268 112.889C149.268 112.889 149.389 113.706 149.47 114.374C149.511 114.66 149.533 114.947 149.537 115.235C149.509 115.562 149.537 116.587 149.537 116.587L149.686 119.652C149.59 119.974 149.539 120.308 149.537 120.644C149.568 121.036 150.136 126.627 150.136 126.627C150.136 126.627 151.123 129.963 150.786 130.204C150.45 130.444 151.281 133.451 151.281 133.451Z" fill="#3B3B3B"/>
<path opacity="0.1" d="M144.035 53.4884C143.921 53.7809 143.901 54.2858 143.934 54.8496C143.036 55.3927 142.003 55.6705 140.955 55.6508C139.906 55.6311 138.885 55.3149 138.008 54.7385C137.959 53.9354 137.863 53.136 137.719 52.3445C137.719 52.3445 144.425 52.4965 144.035 53.4884Z" fill="#202020"/>
<path d="M146.624 49.8803C146.642 51.3629 146.072 52.7919 145.041 53.8528C144.009 54.9137 142.6 55.5198 141.124 55.5375C139.647 55.5553 138.224 54.9834 137.168 53.9476C136.111 52.9118 135.508 51.4969 135.49 50.0143C135.49 49.9686 135.49 49.9261 135.49 49.8803C135.49 48.3973 136.077 46.975 137.121 45.9263C138.165 44.8776 139.582 44.2885 141.059 44.2885C142.535 44.2885 143.952 44.8776 144.996 45.9263C146.04 46.975 146.627 48.3973 146.627 49.8803H146.624Z" fill="#C9C9C9"/>
<path opacity="0.1" d="M141.941 62.1457C139.793 61.3074 137.03 58.5377 137.72 57.2435C137.872 56.9166 137.963 56.5643 137.988 56.2042L140.928 58.6325L142.748 60.1309L144.131 56.5964C144.246 57.3366 144.365 57.9037 144.365 57.9037C144.365 57.9037 143.954 58.4805 143.714 58.5115C143.475 58.5426 145.023 63.3468 141.941 62.1457Z" fill="#202020"/>
<path d="M149.545 72.8768L147.089 114.301L143.887 114.512L135.593 90.4922L136.953 61.9758L137.241 55.9509L140.928 58.992L142.748 60.4904L144.172 56.8513L146.819 59.1684L149.545 72.8768Z" fill="#3B3B3B"/>
<path opacity="0.1" d="M138.946 114.51C138.838 114.781 138.755 115.061 138.699 115.348C136.367 114.988 134.101 114.277 131.979 113.242L131.935 113.219L131.949 112.956V112.819L132.763 111.296C132.763 111.296 139.337 113.551 138.946 114.51Z" fill="#202020"/>
<path opacity="0.1" d="M144.725 115.355C144.129 115.457 143.528 115.526 142.925 115.562C142.889 114.745 142.868 114.181 142.868 114.181L144.671 113.815L144.725 115.355Z" fill="#202020"/>
<path opacity="0.1" d="M149.476 114.374C148.32 114.677 146.531 115.016 144.933 114.804L144.91 113.77L149.275 112.889C149.275 112.889 149.39 113.699 149.476 114.374Z" fill="#202020"/>
<path opacity="0.1" d="M144.904 114.994C138.232 116.137 132.122 112.858 132.122 112.858L132.18 111.747C132.18 111.747 132.332 99.1496 131.912 98.1838C131.492 97.2181 131.165 92.3273 131.403 91.5805C131.64 90.8337 130.535 79.5586 130.535 79.5586L130.356 74.9831L123.8 72.3081L126.729 66.1754C127.125 65.3158 127.465 64.4316 127.748 63.5282C128.257 61.935 130.621 60.3712 130.621 60.3712C130.621 60.3712 133.046 58.809 134.005 58.8678C134.963 58.9266 136.219 57.4854 136.219 57.4854C137.147 55.1111 137.986 56.1781 137.986 56.1781C137.986 56.2925 137.986 56.1781 137.941 56.5294C137.615 59.1358 143.203 67.3716 143.283 67.5186L143.822 80.5357L144.36 97.0089L144.904 114.994Z" fill="#202020"/>
<path d="M144.725 114.994C138.053 116.137 131.941 112.858 131.941 112.858L132.001 111.747C132.001 111.747 132.151 99.1496 131.731 98.1838C131.311 97.2181 130.984 92.3224 131.224 91.5691C131.463 90.8157 130.351 79.552 130.351 79.552L130.171 74.9766L123.616 72.3016L126.545 66.1689C126.94 65.3094 127.28 64.4258 127.564 63.5233C128.073 61.935 130.446 60.3695 130.446 60.3695C130.446 60.3695 132.87 58.8074 133.827 58.8662C134.784 58.925 136.047 57.4854 136.047 57.4854C136.976 55.1111 137.999 56.1781 137.999 56.1781C137.999 56.2925 137.902 56.3415 137.954 56.5294C138.67 59.0574 143.037 67.3716 143.117 67.5186L143.656 80.5357L144.183 97.0171L144.725 114.994Z" fill="#F1F1F1"/>
<path opacity="0.1" d="M142.927 67.8863C142.209 67.5856 138.408 63.2275 138.408 63.2275V62.2356C138.27 61.9088 137.446 62.1082 136.781 62.3369L137.067 56.3121L137.392 56.5833C138.104 59.1096 142.849 67.7408 142.927 67.8863Z" fill="#202020"/>
<path d="M143.107 67.5268C142.388 67.2245 138.587 62.8681 138.587 62.8681V61.8745C138.449 61.5477 137.627 61.7471 136.96 61.9758L137.241 55.9575L137.567 56.2271C138.284 58.7502 143.028 67.3798 143.107 67.5268Z" fill="#F1F1F1"/>
<path opacity="0.1" d="M132.122 89.2601C132.211 89.2601 136.761 88.7797 136.761 88.7797C136.761 88.7797 139.516 94.2212 139.335 95.5431C139.155 96.8651 138.828 98.0384 137.72 97.8308C136.611 97.6233 131.756 97.9942 131.756 97.9942L132.122 89.2601Z" fill="#202020"/>
<path d="M131.941 88.8989C132.032 88.8989 136.582 88.4185 136.582 88.4185C136.582 88.4185 139.335 93.8682 139.156 95.1754C138.977 96.4827 138.647 97.6707 137.541 97.4632C136.434 97.2556 131.575 97.6266 131.575 97.6266L131.941 88.8989Z" fill="#F1F1F1"/>
<path d="M135.37 86.3514C135.37 86.3514 139.545 88.6065 139.635 89.2928C139.724 89.9791 137.51 88.9921 137.031 88.8712C136.716 88.796 136.396 88.7458 136.073 88.7208L132.882 88.8075L135.37 86.3514Z" fill="#C9C9C9"/>
<path opacity="0.1" d="M141.76 68.1674C142.003 68.1674 142.199 67.9698 142.199 67.7262C142.199 67.4825 142.003 67.285 141.76 67.285C141.517 67.285 141.321 67.4825 141.321 67.7262C141.321 67.9698 141.517 68.1674 141.76 68.1674Z" fill="#202020"/>
<path d="M141.76 67.9876C142.003 67.9876 142.199 67.7901 142.199 67.5464C142.199 67.3028 142.003 67.1052 141.76 67.1052C141.517 67.1052 141.321 67.3028 141.321 67.5464C141.321 67.7901 141.517 67.9876 141.76 67.9876Z" fill="#515151"/>
<path opacity="0.1" d="M142.569 87.2665C142.811 87.2665 143.008 87.069 143.008 86.8253C143.008 86.5816 142.811 86.3841 142.569 86.3841C142.326 86.3841 142.129 86.5816 142.129 86.8253C142.129 87.069 142.326 87.2665 142.569 87.2665Z" fill="#202020"/>
<path d="M142.569 87.0851C142.811 87.0851 143.008 86.8876 143.008 86.6439C143.008 86.4002 142.811 86.2027 142.569 86.2027C142.326 86.2027 142.129 86.4002 142.129 86.6439C142.129 86.8876 142.326 87.0851 142.569 87.0851Z" fill="#515151"/>
<path opacity="0.1" d="M142.199 77.7169C142.442 77.7169 142.639 77.5194 142.639 77.2757C142.639 77.0321 142.442 76.8345 142.199 76.8345C141.957 76.8345 141.76 77.0321 141.76 77.2757C141.76 77.5194 141.957 77.7169 142.199 77.7169Z" fill="#202020"/>
<path d="M142.199 77.5372C142.442 77.5372 142.639 77.3396 142.639 77.096C142.639 76.8523 142.442 76.6548 142.199 76.6548C141.957 76.6548 141.76 76.8523 141.76 77.096C141.76 77.3396 141.957 77.5372 142.199 77.5372Z" fill="#515151"/>
<path d="M152.327 88.6293C152.327 88.6293 152.627 89.0803 152.327 89.2829C152.028 89.4856 152.357 90.0052 152.357 90.0052C152.357 90.0052 151.61 90.4431 151.938 90.8402C152.267 91.2373 152.059 93.0201 152.059 93.0201L151.161 94.5218C151.161 94.5218 151.214 95.4843 151.218 96.785C151.218 98.8145 151.099 101.668 150.441 102.968L150.529 113.641C150.529 113.641 147.384 114.796 144.751 114.443L144.36 97.3177C144.36 97.3177 144.93 87.6064 145.14 85.7435C145.263 84.7764 145.313 83.8014 145.29 82.8267C145.29 82.8267 145.2 79.9115 144.899 78.5601C144.899 78.5601 144.574 72.697 144.541 71.0744C144.526 70.2982 144.567 68.0333 144.613 65.8796C144.663 63.5249 144.72 61.3042 144.72 61.3042L144.126 56.5833C144.126 56.5833 144.72 56.5245 144.899 56.7631C144.979 56.8383 145.066 56.9056 145.159 56.9641C146.186 57.6602 149.808 59.8008 149.808 59.8008C149.808 59.8008 151.813 60.6015 152.293 61.7487C152.773 62.8958 153.107 63.7096 153.34 64.0364C153.572 64.3632 153.699 65.8992 153.699 65.8992C153.699 65.8992 154.389 68.7262 154.928 69.205C155.466 69.6838 155.854 72.7232 155.854 72.7232L151.094 76.4815C151.094 76.4815 150.676 82.7335 150.586 82.9754C150.497 83.2172 152.327 88.6293 152.327 88.6293Z" fill="#F1F1F1"/>
<path d="M152.508 88.6293C152.508 88.6293 152.806 89.0803 152.508 89.2829C152.21 89.4856 152.536 90.0052 152.536 90.0052C152.536 90.0052 151.789 90.4431 152.118 90.8402C152.446 91.2373 152.238 93.0201 152.238 93.0201L151.343 94.5218C151.343 94.5218 151.397 95.4843 151.402 96.785C151.402 98.8145 151.283 101.668 150.625 102.968L150.715 113.641C150.715 113.641 147.569 114.796 144.936 114.443L144.547 97.3177C144.547 97.3177 145.115 87.6064 145.327 85.7435C145.45 84.7764 145.499 83.8013 145.475 82.8267C145.475 82.8267 145.386 79.9115 145.086 78.5601C145.086 78.5601 144.761 72.697 144.726 71.0744C144.712 70.2982 144.753 68.0333 144.798 65.8796C144.849 63.5249 144.905 61.3042 144.905 61.3042L144.121 56.5196C144.121 56.5196 144.905 56.5196 145.086 56.7631C145.166 56.8392 145.253 56.9065 145.346 56.9641C146.372 57.6602 149.994 59.8008 149.994 59.8008C149.994 59.8008 151.994 60.6015 152.482 61.7487C152.97 62.8958 153.296 63.7096 153.528 64.0364C153.761 64.3632 153.888 65.8992 153.888 65.8992C153.888 65.8992 154.578 68.7262 155.117 69.205C155.655 69.6838 156.044 72.7231 156.044 72.7231L151.284 76.4815C151.284 76.4815 150.866 82.7335 150.775 82.9754C150.684 83.2172 152.508 88.6293 152.508 88.6293Z" fill="#F1F1F1"/>
<path opacity="0.1" d="M146.808 62.6915L147.239 63.9498L144.975 66.2375C145.026 63.8828 145.083 61.662 145.083 61.662L144.299 56.8791C144.299 56.8791 145.083 56.8791 145.263 57.1226C145.343 57.1987 145.43 57.266 145.524 57.3236L147.447 62.8941L146.808 62.6915Z" fill="#202020"/>
<path d="M146.624 62.3304L147.055 63.587L144.793 65.8747C144.842 63.52 144.901 61.2993 144.901 61.2993L144.115 56.5147C144.115 56.5147 144.901 56.5147 145.08 56.7582C145.159 56.8338 145.247 56.9012 145.34 56.9592L147.275 62.5347L146.624 62.3304Z" fill="#F1F1F1"/>
<path opacity="0.1" d="M146.624 49.8803C146.624 50.4691 146.532 51.0543 146.35 51.6141C146.32 51.6192 146.288 51.6181 146.258 51.6108C146.228 51.6035 146.2 51.5902 146.175 51.5716C146.131 50.1009 145.412 48.7185 144.525 47.5436C144.275 47.1892 143.973 46.8751 143.63 46.6122C143.282 46.3499 142.849 46.227 142.416 46.2674C141.928 46.3344 141.496 46.6677 141.003 46.7102C140.352 46.7641 139.77 46.3115 139.124 46.2903C138.861 46.2925 138.602 46.351 138.364 46.4621C138.125 46.5731 137.914 46.7341 137.742 46.9341C137.403 47.3364 137.15 47.8056 137.002 48.3116C136.746 49.0794 136.607 49.8814 136.589 50.6908C136.58 51.1484 136.536 51.722 136.113 51.8886C136.145 51.5524 136.107 51.2131 136.002 50.8924C135.896 50.5717 135.725 50.2766 135.5 50.0258L135.49 50.0143C135.49 49.9686 135.49 49.9261 135.49 49.8803C135.49 48.3973 136.077 46.975 137.121 45.9263C138.165 44.8776 139.582 44.2885 141.059 44.2885C142.535 44.2885 143.952 44.8776 144.996 45.9263C146.04 46.975 146.627 48.3973 146.627 49.8803H146.624Z" fill="#202020"/>
<path d="M143.369 41.0024C142.524 40.6029 141.562 40.5274 140.665 40.7899C140.214 40.9239 139.789 41.1412 139.332 41.2507C138.356 41.4877 137.217 41.2311 136.379 41.8047C135.913 42.1315 135.633 42.6479 135.373 43.1512L134.722 44.3947C134.367 45.0761 134.009 45.769 133.861 46.519C133.713 47.2691 133.803 48.109 134.276 48.7136C134.62 49.1515 135.131 49.4277 135.505 49.8411C135.73 50.0932 135.9 50.3892 136.005 50.7107C136.111 51.0321 136.149 51.372 136.117 51.7089C136.54 51.5455 136.582 50.9686 136.592 50.5111C136.61 49.7017 136.749 48.8996 137.005 48.1319C137.154 47.6259 137.406 47.1567 137.746 46.7543C137.917 46.5541 138.129 46.3929 138.367 46.2816C138.605 46.1702 138.864 46.1114 139.127 46.1089C139.778 46.1317 140.362 46.5844 141.007 46.5288C141.495 46.488 141.928 46.1546 142.419 46.0876C142.852 46.0464 143.285 46.1694 143.633 46.4324C143.977 46.6945 144.278 47.0088 144.526 47.3638C145.415 48.5404 146.136 49.9163 146.178 51.3918C146.362 51.5258 146.627 51.3494 146.718 51.1402C146.809 50.931 146.813 50.6859 146.928 50.4866C147.062 50.2562 147.317 50.132 147.517 49.9588C148.025 49.5192 148.152 48.7789 148.132 48.1073C148.113 47.4357 147.983 46.7543 148.11 46.0942C148.186 45.6905 148.358 45.3098 148.453 44.9094C148.547 44.5091 148.559 44.0597 148.336 43.7149C148.01 43.21 147.325 43.1087 146.728 43.0613C146.049 43.0025 145.442 43.0776 145.01 42.5041C144.806 42.2052 144.577 41.9242 144.326 41.6642C144.237 41.5775 143.369 41.0383 143.369 41.0024Z" fill="#202020"/>
<path opacity="0.1" d="M125.678 75.4619L123.979 72.3065L123.44 77.176C123.44 77.176 123.74 79.3395 123.68 79.6713C123.619 80.003 124.907 82.977 124.907 82.977C124.907 82.977 129.159 90.5837 130.895 90.9742L136.753 86.7648L135.197 84.781C135.197 84.781 134.659 84.5702 134.524 84.781C134.524 84.781 131.634 79.7906 131.336 79.4311C131.038 79.0716 131.095 78.3477 131.095 78.3477C131.095 78.3477 130.646 77.8672 130.796 77.4162C130.945 76.9652 129.936 75.403 129.936 75.403L130.864 74.5321L125.678 75.4619Z" fill="#202020"/>
<path d="M124.068 71.9454L123.619 72.3065L123.081 77.1761C123.081 77.1761 123.38 79.3396 123.32 79.6713C123.26 80.003 124.549 82.9771 124.549 82.9771C124.549 82.9771 128.799 90.5837 130.535 90.9742L136.403 86.7649L134.846 84.7811C134.846 84.7811 134.307 84.5703 134.172 84.7811C134.172 84.7811 131.284 79.7906 130.984 79.4311C130.685 79.0716 130.745 78.3477 130.745 78.3477C130.745 78.3477 130.296 77.8673 130.446 77.4163C130.595 76.9653 129.577 75.4031 129.577 75.4031L130.504 74.5321L124.068 71.9454Z" fill="#F1F1F1"/>
<path opacity="0.1" d="M151.938 91.0282C152.264 91.4252 152.059 93.2097 152.059 93.2097L151.161 94.7016C151.161 94.7016 151.214 95.6657 151.218 96.9664L149.708 97.4403C149.571 97.4831 149.426 97.4924 149.285 97.4676C149.144 97.4427 149.011 97.3843 148.897 97.2974C148.783 97.2104 148.691 97.0973 148.63 96.9675C148.568 96.8377 148.538 96.6951 148.542 96.5513L148.804 88.1195L152.327 89.4709C152.028 89.6801 152.357 90.1932 152.357 90.1932C152.357 90.1932 151.61 90.6311 151.938 91.0282Z" fill="#202020"/>
<path d="M152.117 90.8484C152.443 91.2439 152.238 93.0283 152.238 93.0283L151.343 94.5218C151.343 94.5218 151.397 95.4843 151.401 96.785L149.864 97.2671C149.73 97.3091 149.589 97.3185 149.451 97.2943C149.313 97.2702 149.183 97.2133 149.071 97.1284C148.96 97.0434 148.87 96.9329 148.81 96.8061C148.75 96.6793 148.72 96.5398 148.725 96.3994L148.987 87.9381L152.508 89.2928C152.207 89.5019 152.536 90.015 152.536 90.015C152.536 90.015 151.789 90.4513 152.117 90.8484Z" fill="#F1F1F1"/>
<path d="M153.286 86.8253C153.286 86.8253 153.047 88.3597 152.448 88.4496C151.849 88.5395 151.58 90.9318 150.983 90.8484C150.386 90.7651 150.781 88.6228 150.803 88.2078C150.824 87.7927 150.152 86.0736 150.653 85.6831C151.154 85.2926 152.749 85.6831 152.749 85.6831L153.286 86.8253Z" fill="#C9C9C9"/>
<path opacity="0.1" d="M154.552 75.0109L155.68 72.7231C155.68 72.7231 156.13 74.4667 156.13 75.3981C156.13 76.3296 156.758 76.4211 156.758 76.4211C156.758 76.4211 157.447 77.2381 157.084 77.8346C156.721 78.431 156.576 79.9082 156.576 79.9082C156.576 79.9082 156.695 82.7335 156.156 83.1241C155.618 83.5146 155.497 84.4477 155.497 84.4477C155.497 84.4477 154.51 86.2207 154.541 86.6423C154.571 87.0639 153.164 89.9186 153.164 89.9186C153.164 89.9186 153.852 86.371 149.841 84.8382C149.841 84.8382 149.81 83.6355 150.109 83.3055C150.409 82.9754 150.876 82.8152 150.583 81.155C150.29 79.4948 150.498 77.493 150.498 77.0927C150.498 76.6923 151.397 74.1971 151.397 74.1971L154.552 75.0109Z" fill="#202020"/>
<path d="M155.053 72.3964L156.039 72.7232C156.039 72.7232 156.49 74.4667 156.49 75.3982C156.49 76.3296 157.118 76.4211 157.118 76.4211C157.118 76.4211 157.806 77.2381 157.443 77.8346C157.081 78.431 156.934 79.9082 156.934 79.9082C156.934 79.9082 157.055 82.7336 156.516 83.1241C155.977 83.5147 155.865 84.4477 155.865 84.4477C155.865 84.4477 154.877 86.2207 154.908 86.6423C154.939 87.0639 153.53 89.9186 153.53 89.9186C153.53 89.9186 154.218 86.371 150.207 84.8383C150.207 84.8383 150.178 83.6356 150.477 83.3055C150.777 82.9754 151.244 82.8153 150.951 81.155C150.658 79.4948 150.866 77.4931 150.866 77.0927C150.866 76.6924 151.764 74.1971 151.764 74.1971L155.053 72.3964Z" fill="#F1F1F1"/>
<path opacity="0.1" d="M133.267 131.692C133.267 131.692 134.839 130.7 135.871 131.421C136.903 132.142 133.267 131.692 133.267 131.692Z" fill="#202020"/>
<path opacity="0.1" d="M145.485 128.625C145.485 128.625 146.876 128.445 148.044 129.708C149.213 130.972 145.485 128.625 145.485 128.625Z" fill="#202020"/>
<g opacity="0.1">
<path opacity="0.1" d="M147.517 49.5993C147.317 49.7742 147.06 49.8967 146.927 50.1271C146.813 50.3248 146.809 50.57 146.718 50.7808C146.627 50.9915 146.362 51.1664 146.176 51.0324C146.134 49.5617 145.413 48.1809 144.526 47.0044C144.278 46.6498 143.977 46.3361 143.633 46.0746C143.285 45.8111 142.851 45.6875 142.417 45.7282C141.929 45.7952 141.5 46.1285 141.007 46.171C140.356 46.2249 139.771 45.7723 139.125 45.7511C138.863 45.7531 138.604 45.8116 138.366 45.9226C138.128 46.0337 137.916 46.1947 137.746 46.3949C137.406 46.7972 137.154 47.2664 137.005 47.7724C136.749 48.5402 136.61 49.3422 136.592 50.1516C136.582 50.6075 136.54 51.1762 136.12 51.3461C136.13 51.4674 136.13 51.5893 136.12 51.7105C136.545 51.5471 136.587 50.9703 136.597 50.5128C136.615 49.7034 136.754 48.9013 137.01 48.1335C137.159 47.6276 137.411 47.1584 137.75 46.756C137.921 46.5559 138.133 46.3948 138.371 46.2834C138.609 46.1721 138.868 46.1132 139.13 46.1105C139.781 46.1334 140.367 46.5861 141.011 46.5305C141.5 46.4897 141.932 46.1563 142.422 46.0893C142.856 46.0482 143.29 46.1712 143.638 46.4341C143.982 46.6962 144.283 47.0105 144.531 47.3655C145.418 48.5421 146.139 49.918 146.181 51.3935C146.367 51.5275 146.632 51.351 146.723 51.1419C146.814 50.9327 146.818 50.6876 146.931 50.4883C147.065 50.2578 147.322 50.1337 147.522 49.9604C148.03 49.5209 148.157 48.7806 148.137 48.109C148.137 48.0878 148.137 48.0682 148.137 48.0469C148.105 48.6319 147.95 49.2251 147.517 49.5993Z" fill="#202020"/>
<path opacity="0.1" d="M135.503 49.4849C135.131 49.0715 134.62 48.7937 134.276 48.3558C133.986 47.9692 133.821 47.5028 133.803 47.0191C133.752 47.6239 133.92 48.2268 134.276 48.7169C134.62 49.1548 135.131 49.431 135.503 49.8444C135.863 50.2486 136.079 50.7612 136.118 51.302C136.143 50.9732 136.101 50.6427 135.995 50.3305C135.89 50.0183 135.722 49.7307 135.503 49.4849Z" fill="#202020"/>
<path opacity="0.1" d="M148.453 44.55C148.357 44.9503 148.186 45.3311 148.108 45.7347C148.061 46.0076 148.044 46.2849 148.057 46.5615C148.063 46.4053 148.08 46.2496 148.108 46.0958C148.186 45.6922 148.357 45.3115 148.453 44.9111C148.508 44.6902 148.526 44.4616 148.507 44.2346C148.496 44.3409 148.478 44.4463 148.453 44.55Z" fill="#202020"/>
</g>
<path opacity="0.1" d="M21.5986 137.08C30.3556 137.08 37.4546 135.935 37.4546 134.523C37.4546 133.11 30.3556 131.965 21.5986 131.965C12.8416 131.965 5.74261 133.11 5.74261 134.523C5.74261 135.935 12.8416 137.08 21.5986 137.08Z" fill="#3B3B3B"/>
<path d="M22.1095 85.5311H21.0892V108.599H22.1095V85.5311Z" fill="#BDBDBD"/>
<path d="M28.5226 108.531L28.4575 109.57L28.368 111.041L28.3305 111.652L28.2394 113.123L28.2004 113.734L28.1109 115.204L27.0808 131.883C27.0369 132.601 26.722 133.275 26.2004 133.767C25.6788 134.26 24.9898 134.534 24.2738 134.534H18.925C18.2071 134.534 17.5162 134.259 16.9942 133.764C16.4723 133.269 16.1587 132.592 16.118 131.872L15.0879 115.193L14.9984 113.722L14.961 113.111L14.8683 111.64L14.8308 111.029L14.7413 109.559L14.6762 108.519C14.665 108.32 14.6942 108.121 14.7621 107.933C14.8301 107.746 14.9353 107.574 15.0714 107.429C15.2074 107.283 15.3716 107.167 15.5537 107.088C15.7359 107.008 15.9323 106.966 16.131 106.965H27.0694C27.269 106.966 27.4662 107.009 27.649 107.089C27.8318 107.169 27.9963 107.287 28.1324 107.433C28.2684 107.58 28.3732 107.753 28.4403 107.942C28.5074 108.13 28.5354 108.331 28.5226 108.531Z" fill="#515151"/>
<path d="M28.4575 109.568L28.3663 111.036H14.8308L14.7397 109.568H28.4575Z" fill="#515151"/>
<path d="M28.3289 111.647L28.2394 113.114H14.9594L14.8682 111.647H28.3289Z" fill="#515151"/>
<path d="M28.2003 113.727L28.1108 115.193H15.0879L14.9968 113.727H28.2003Z" fill="#515151"/>
<path d="M13.1889 94.1787C19.1316 98.4959 21.6067 105.248 21.6067 105.248C21.6067 105.248 14.4468 105.001 8.50239 100.684C2.55802 96.3667 0.0797119 89.6196 0.0797119 89.6196C0.0797119 89.6196 7.23964 89.8614 13.1889 94.1787Z" fill="#3B3B3B"/>
<path d="M0.0797119 89.6196C0.0797119 89.6196 7.51139 93.762 9.89532 97.1919C12.2792 100.622 21.6002 105.251 21.6002 105.251" stroke="#BDBDBD" stroke-width="2" stroke-miterlimit="10"/>
<path d="M17.0178 85.4821C20.2528 87.8303 21.6002 91.5053 21.6002 91.5053C21.6002 91.5053 17.6948 91.3713 14.4679 89.0232C11.2411 86.675 9.88556 82.9983 9.88556 82.9983C9.88556 82.9983 13.7845 83.1323 17.0178 85.4821Z" fill="#3B3B3B"/>
<path d="M9.88556 82.9983C9.88556 82.9983 13.9309 85.2533 15.2295 87.1195C16.528 88.9856 21.6002 91.5053 21.6002 91.5053" stroke="#BDBDBD" stroke-width="2" stroke-miterlimit="10"/>
<path d="M26.2997 91.319C22.5847 95.419 21.7987 100.777 21.7987 100.777C21.7987 100.777 27.0368 99.4862 30.7486 95.3846C34.4604 91.2831 35.2496 85.9266 35.2496 85.9266C35.2496 85.9266 30.0147 87.2191 26.2997 91.319Z" fill="#3B3B3B"/>
<path d="M35.2529 85.9282C35.2529 85.9282 30.4134 90.131 29.1832 93.0266C27.953 95.9222 21.7987 100.777 21.7987 100.777" stroke="#BDBDBD" stroke-width="2" stroke-miterlimit="10"/>
</g>
<defs>
<linearGradient id="paint0_linear_213_286" x1="75.7536" y1="136.537" x2="75.7536" y2="42.1446" gradientUnits="userSpaceOnUse">
<stop stop-color="#808080" stop-opacity="0.25"/>
<stop offset="0.54" stop-color="#808080" stop-opacity="0.12"/>
<stop offset="1" stop-color="#808080" stop-opacity="0.1"/>
</linearGradient>
<clipPath id="clip0_213_286">
<rect width="190" height="141" fill="white"/>
</clipPath>
</defs>
</svg>
