<svg width="14" height="18" viewBox="0 0 14 18" fill="none" xmlns="http://www.w3.org/2000/svg">
<path opacity="0.6" d="M7.12126 0.407471C3.862 0.407471 0.45459 2.92599 0.45459 7.07414C0.45459 11.0001 6.38052 17.0001 6.60274 17.2223C6.75089 17.3704 6.89903 17.4445 7.12126 17.4445C7.34348 17.4445 7.49163 17.3704 7.63978 17.2223C7.862 17.0001 13.7879 11.0001 13.7879 7.07414C13.7879 2.92599 10.3805 0.407471 7.12126 0.407471ZM7.12126 9.29636C5.862 9.29636 4.89903 8.3334 4.89903 7.07414C4.89903 5.81488 5.862 4.85191 7.12126 4.85191C8.38052 4.85191 9.34348 5.81488 9.34348 7.07414C9.34348 8.3334 8.38052 9.29636 7.12126 9.29636Z" fill="#1A263C"/>
</svg>
