<svg width="14" height="18" viewBox="0 0 14 18" fill="none" xmlns="http://www.w3.org/2000/svg">
<path opacity="0.3" d="M7.12126 0.0700378C3.862 0.0700378 0.45459 2.58856 0.45459 6.7367C0.45459 10.6626 6.38052 16.6626 6.60274 16.8849C6.75089 17.033 6.89903 17.1071 7.12126 17.1071C7.34348 17.1071 7.49163 17.033 7.63978 16.8849C7.862 16.6626 13.7879 10.6626 13.7879 6.7367C13.7879 2.58856 10.3805 0.0700378 7.12126 0.0700378ZM7.12126 8.95893C5.862 8.95893 4.89903 7.99596 4.89903 6.7367C4.89903 5.47745 5.862 4.51448 7.12126 4.51448C8.38052 4.51448 9.34348 5.47745 9.34348 6.7367C9.34348 7.99596 8.38052 8.95893 7.12126 8.95893Z" fill="white"/>
</svg>
