<svg width="32" height="32" viewBox="0 0 32 32" fill="none" xmlns="http://www.w3.org/2000/svg">
<path d="M16.3456 0.780898C7.7503 0.823274 0.808806 7.83355 0.851182 16.4288C0.893559 25.0241 7.90384 31.9656 16.4991 31.9233C25.0944 31.8809 32.0359 24.8706 31.9935 16.2753C31.9512 7.68002 24.9409 0.738522 16.3456 0.780898ZM16.3686 5.45225C18.9534 5.43951 21.0503 7.51576 21.063 10.1006C21.0758 12.6854 18.9995 14.7822 16.4147 14.795C13.8299 14.8077 11.733 12.7315 11.7203 10.1466C11.7076 7.56182 13.7838 5.46499 16.3686 5.45225ZM16.4776 27.5633C12.5848 27.5825 9.13378 25.6064 7.11021 22.5955C7.14164 19.4966 13.315 17.7688 16.4293 17.7535C19.5279 17.7382 25.7336 19.4049 25.7956 22.5033C23.8018 25.5341 20.3704 27.5441 16.4776 27.5633Z" fill="white"/>
</svg>
