<svg width="269" height="121" viewBox="0 0 269 121" fill="none" xmlns="http://www.w3.org/2000/svg">
<path d="M0 121C22.6504 83.0283 188.5 197 268.5 6.60369e-05L0 0V121Z" fill="white"/>
<path d="M62.1689 81.5708V69.2003H68.3704C69.1825 69.2003 69.9025 69.3681 70.5251 69.7038C71.1504 70.0394 71.6349 70.4996 71.9841 71.0816C72.3306 71.6636 72.5065 72.3322 72.5065 73.0874C72.5065 73.8183 72.3333 74.4706 71.9841 75.0499C71.6376 75.6265 71.1477 76.0812 70.517 76.4115C69.8863 76.7417 69.1717 76.9068 68.3704 76.9068H64.7297V81.5708H62.1689ZM64.7297 74.7846H68.0862C68.6411 74.7846 69.085 74.6276 69.4207 74.3163C69.7563 74.005 69.9242 73.6017 69.9242 73.1064C69.9242 72.5893 69.7563 72.1725 69.4207 71.8612C69.085 71.5499 68.6411 71.3929 68.0862 71.3929H64.7297V74.7846Z" fill="#1A263C"/>
<path d="M74.22 81.5708V69.2003H80.2455C81.0927 69.2003 81.8398 69.3627 82.4814 69.6876C83.1229 70.0124 83.6237 70.4617 83.9837 71.0383C84.3437 71.6149 84.5224 72.2807 84.5224 73.036C84.5224 73.8128 84.3031 74.5058 83.8673 75.1121C83.4315 75.7185 82.8495 76.1705 82.1187 76.4629L84.858 81.5708H81.9941L79.5742 76.8364H76.7834V81.5708H74.22ZM76.7834 74.7305H80.0344C80.6109 74.7305 81.0738 74.5762 81.4203 74.2703C81.7668 73.9644 81.9427 73.5638 81.9427 73.0685C81.9427 72.5623 81.7695 72.1562 81.4203 71.8504C81.0738 71.5445 80.6109 71.3902 80.0344 71.3902H76.7834V74.7305Z" fill="#1A263C"/>
<path d="M92.3158 81.7657C91.3982 81.7657 90.5401 81.6033 89.7443 81.2784C88.9485 80.9536 88.2528 80.5015 87.66 79.9169C87.0645 79.3349 86.5989 78.6554 86.2632 77.884C85.9276 77.1125 85.7598 76.2788 85.7598 75.3828C85.7598 74.4868 85.9276 73.6531 86.2632 72.8817C86.5989 72.1102 87.0645 71.4335 87.66 70.8488C88.2555 70.2668 88.9512 69.8121 89.7443 69.4872C90.5401 69.1624 91.3955 69 92.3158 69C93.2226 69 94.0753 69.1624 94.8684 69.4872C95.6643 69.8121 96.3572 70.2641 96.9527 70.8488C97.5483 71.4308 98.0111 72.1102 98.3387 72.8817C98.6689 73.6531 98.834 74.4868 98.834 75.3828C98.834 76.2788 98.6689 77.1125 98.3387 77.884C98.0084 78.6554 97.5455 79.3322 96.9527 79.9169C96.3572 80.4988 95.6615 80.9536 94.8684 81.2784C94.0753 81.6033 93.2226 81.7657 92.3158 81.7657ZM92.3158 79.4134C92.8707 79.4134 93.3823 79.3105 93.8533 79.1048C94.3243 78.8991 94.7358 78.6148 95.0904 78.2575C95.445 77.8975 95.7211 77.4725 95.9214 76.9772C96.1217 76.4818 96.2219 75.9513 96.2219 75.3855C96.2219 74.7954 96.1217 74.2595 95.9214 73.7776C95.7211 73.2958 95.445 72.8735 95.0904 72.5135C94.7358 72.1535 94.3243 71.872 93.8533 71.6663C93.3823 71.4606 92.8762 71.3577 92.3348 71.3577C91.769 71.3577 91.2493 71.4606 90.7702 71.6663C90.2938 71.872 89.8769 72.1562 89.525 72.5135C89.1704 72.8735 88.8943 73.2931 88.694 73.7776C88.4937 74.2595 88.3936 74.7846 88.3936 75.3503C88.3936 75.9404 88.4937 76.4818 88.694 76.9772C88.8943 77.4725 89.1704 77.9002 89.525 78.2575C89.8796 78.6176 90.2938 78.8991 90.7702 79.1048C91.2466 79.3105 91.7609 79.4134 92.3158 79.4134Z" fill="#1A263C"/>
<path d="M103.2 81.5707V71.4631H99.0283V69.2002H109.913V71.4631H105.76V81.5707H103.2Z" fill="#1A263C"/>
<path d="M111.345 81.5708V69.2003H120.852V71.4281H113.908V74.2541H118.486V76.3925H113.908V79.343H120.925V81.5708H111.345Z" fill="#1A263C"/>
<path d="M128.114 81.7467C127.196 81.7467 126.336 81.5843 125.534 81.2595C124.733 80.9346 124.035 80.4853 123.439 79.9087C122.844 79.3322 122.378 78.6582 122.043 77.8867C121.707 77.1152 121.539 76.2815 121.539 75.3855C121.539 74.4895 121.707 73.6558 122.043 72.8844C122.378 72.1129 122.846 71.4362 123.447 70.8515C124.048 70.2695 124.747 69.8148 125.543 69.4899C126.338 69.1651 127.194 69.0027 128.114 69.0027C128.796 69.0027 129.457 69.0974 130.093 69.2842C130.729 69.4737 131.322 69.739 131.869 70.08C132.415 70.4211 132.884 70.8353 133.273 71.3171L131.541 73.0143C131.105 72.4594 130.594 72.0452 130.004 71.7691C129.413 71.493 128.785 71.355 128.114 71.355C127.559 71.355 127.042 71.4578 126.56 71.6636C126.078 71.8693 125.659 72.1535 125.307 72.5108C124.952 72.8708 124.676 73.2904 124.476 73.7749C124.276 74.2568 124.176 74.7927 124.176 75.3828C124.176 75.9486 124.278 76.4764 124.484 76.9636C124.69 77.4536 124.974 77.8759 125.331 78.2359C125.691 78.5959 126.114 78.8747 126.604 79.075C127.094 79.2753 127.632 79.3755 128.22 79.3755C128.867 79.3755 129.473 79.2401 130.039 78.9694C130.604 78.6988 131.1 78.309 131.522 77.8028L133.184 79.4648C132.794 79.9358 132.334 80.3418 131.798 80.6829C131.262 81.024 130.675 81.2865 130.039 81.4679C129.405 81.6547 128.761 81.7467 128.114 81.7467Z" fill="#1A263C"/>
<path d="M138.24 81.5708V71.4633H134.069V69.2003H144.953V71.4633H140.801V81.5708H138.24Z" fill="#1A263C"/>
<path d="M142.924 81.5708L148.013 69.2003H150.982L156.001 81.5708H153.226L151.973 78.3361H146.849L145.596 81.5708H142.924ZM147.639 76.268H151.191L149.442 71.7096L147.639 76.268Z" fill="#1A263C"/>
<path d="M38.0664 62H29.0332V80.0664H38.0664V62Z" fill="#0BFFA1"/>
<path d="M38.0666 80.0627H33.5519C31.0572 80.0627 29.0371 78.039 29.0371 75.548C29.0371 73.0533 31.0608 71.0332 33.5519 71.0332H38.0666V80.0627Z" fill="#1A263C"/>
<path d="M38.0664 80.0627C35.5717 80.0627 33.3125 81.0746 31.6788 82.7083C30.0451 84.342 29.0332 86.6012 29.0332 89.0959V80.0627H38.0664Z" fill="#1A263C"/>
<path d="M38.0664 80.0627V89.0959H29.0332C29.0332 86.6012 30.0451 84.342 31.6788 82.7083C33.3125 81.0746 35.5717 80.0627 38.0664 80.0627Z" fill="#0BFFA1"/>
<path d="M42.5812 80.0627H38.0664V71.0295H42.5812C45.0759 71.0295 47.0959 73.0533 47.0959 75.5443C47.0959 78.0427 45.0759 80.0627 42.5812 80.0627Z" fill="#007AFF"/>
<path d="M29.0332 80.0627H20V71.0295C24.9894 71.0295 29.0332 75.0733 29.0332 80.0627Z" fill="#007AFF"/>
</svg>
