<svg width="34" height="35" viewBox="0 0 34 35" fill="none" xmlns="http://www.w3.org/2000/svg">
<path d="M22.6697 0.059082H11.3348V22.7289H22.6697V0.059082Z" fill="#0BFFA1"/>
<path d="M22.6697 22.7243H17.0045C13.8741 22.7243 11.3394 20.1849 11.3394 17.0592C11.3394 13.9288 13.8788 11.394 17.0045 11.394H22.6697V22.7243Z" fill="#1A263C"/>
<path d="M22.6697 22.7244C19.5394 22.7244 16.7045 23.9941 14.6545 26.044C12.6045 28.094 11.3348 30.9289 11.3348 34.0593V22.7244H22.6697Z" fill="#1A263C"/>
<path d="M22.6697 22.7244V34.0593H11.3348C11.3348 30.9289 12.6045 28.094 14.6545 26.044C16.7045 23.9941 19.5394 22.7244 22.6697 22.7244Z" fill="#0BFFA1"/>
<path d="M28.3348 22.7243H22.6697V11.3894H28.3348C31.4652 11.3894 34 13.9288 34 17.0545C34 20.1895 31.4652 22.7243 28.3348 22.7243Z" fill="#007AFF"/>
<path d="M11.3349 22.7243H0V11.3894C6.26075 11.3894 11.3349 16.4636 11.3349 22.7243Z" fill="#007AFF"/>
</svg>
