<svg width="165" height="33" viewBox="0 0 165 33" fill="none" xmlns="http://www.w3.org/2000/svg">
<path d="M46.1473 25.2418V9.6423H53.9675C54.9916 9.6423 55.8996 9.85393 56.6847 10.2772C57.4732 10.7005 58.0842 11.2807 58.5245 12.0146C58.9614 12.7485 59.1833 13.5917 59.1833 14.544C59.1833 15.4657 58.9648 16.2883 58.5245 17.0188C58.0876 17.7459 57.4698 18.3193 56.6744 18.7358C55.8791 19.1522 54.9779 19.3604 53.9675 19.3604H49.3764V25.2418H46.1473ZM49.3764 16.6843H53.6091C54.3089 16.6843 54.8687 16.4863 55.292 16.0937C55.7152 15.7012 55.9268 15.1926 55.9268 14.5679C55.9268 13.916 55.7152 13.3903 55.292 12.9977C54.8687 12.6052 54.3089 12.4072 53.6091 12.4072H49.3764V16.6843Z" fill="#1A263C"/>
<path d="M61.3441 25.2418V9.6423H68.9424C70.0108 9.6423 70.953 9.84711 71.762 10.2567C72.5709 10.6663 73.2024 11.233 73.6564 11.96C74.1104 12.6871 74.3357 13.5268 74.3357 14.4792C74.3357 15.4588 74.0592 16.3327 73.5096 17.0973C72.96 17.8619 72.2262 18.432 71.3045 18.8006L74.759 25.2418H71.1475L68.0959 19.2717H64.5766V25.2418H61.3441ZM64.5732 16.616H68.6728C69.3998 16.616 69.9836 16.4214 70.4205 16.0357C70.8574 15.65 71.0793 15.1448 71.0793 14.5201C71.0793 13.8818 70.8608 13.3698 70.4205 12.9841C69.9836 12.5984 69.3998 12.4038 68.6728 12.4038H64.5732V16.616Z" fill="#1A263C"/>
<path d="M84.1596 25.4877C83.0024 25.4877 81.9203 25.2829 80.9168 24.8732C79.9132 24.4636 79.0359 23.8936 78.2883 23.1563C77.5374 22.4224 76.9503 21.5656 76.527 20.5927C76.1038 19.6199 75.8921 18.5686 75.8921 17.4387C75.8921 16.3088 76.1038 15.2575 76.527 14.2847C76.9503 13.3118 77.5374 12.4585 78.2883 11.7212C79.0393 10.9873 79.9166 10.4138 80.9168 10.0042C81.9203 9.59457 82.999 9.38977 84.1596 9.38977C85.3031 9.38977 86.3783 9.59457 87.3784 10.0042C88.382 10.4138 89.2558 10.9838 90.0068 11.7212C90.7578 12.455 91.3415 13.3118 91.7545 14.2847C92.171 15.2575 92.3791 16.3088 92.3791 17.4387C92.3791 18.5686 92.171 19.6199 91.7545 20.5927C91.3381 21.5656 90.7543 22.4189 90.0068 23.1563C89.2558 23.8901 88.3786 24.4636 87.3784 24.8732C86.3783 25.2829 85.3031 25.4877 84.1596 25.4877ZM84.1596 22.5214C84.8593 22.5214 85.5045 22.3916 86.0984 22.1322C86.6923 21.8728 87.2112 21.5144 87.6584 21.0638C88.1055 20.6098 88.4536 20.0739 88.7062 19.4492C88.9588 18.8246 89.0852 18.1555 89.0852 17.4421C89.0852 16.698 88.9588 16.0221 88.7062 15.4145C88.4536 14.8069 88.1055 14.2744 87.6584 13.8204C87.2112 13.3664 86.6923 13.0114 86.0984 12.752C85.5045 12.4926 84.8661 12.3629 84.1834 12.3629C83.47 12.3629 82.8146 12.4926 82.2104 12.752C81.6096 13.0114 81.084 13.3699 80.6403 13.8204C80.1931 14.2744 79.8449 14.8035 79.5923 15.4145C79.3397 16.0221 79.2135 16.6843 79.2135 17.3977C79.2135 18.1419 79.3397 18.8246 79.5923 19.4492C79.8449 20.0739 80.1931 20.6132 80.6403 21.0638C81.0874 21.5178 81.6096 21.8728 82.2104 22.1322C82.8112 22.3916 83.4632 22.5214 84.1596 22.5214Z" fill="#1A263C"/>
<path d="M97.8852 25.2418V12.496H92.625V9.6423H106.351V12.496H101.114V25.2418H97.8852Z" fill="#1A263C"/>
<path d="M108.16 25.2418V9.6423H120.148V12.4516H111.389V16.0152H117.161V18.7119H111.389V22.4325H120.237V25.2418H108.16Z" fill="#1A263C"/>
<path d="M129.306 25.4637C128.149 25.4637 127.063 25.2589 126.053 24.8493C125.043 24.4397 124.162 23.873 123.411 23.146C122.66 22.4189 122.073 21.5689 121.65 20.5961C121.226 19.6232 121.015 18.5719 121.015 17.442C121.015 16.3122 121.226 15.2608 121.65 14.288C122.073 13.3152 122.663 12.4618 123.421 11.7245C124.179 10.9906 125.06 10.4172 126.063 10.0075C127.067 9.59792 128.146 9.3931 129.306 9.3931C130.166 9.3931 130.999 9.51258 131.801 9.74811C132.603 9.98705 133.351 10.3216 134.041 10.7517C134.73 11.1818 135.321 11.704 135.812 12.3116L133.628 14.4519C133.078 13.7521 132.433 13.2298 131.689 12.8817C130.945 12.5335 130.153 12.3594 129.306 12.3594C128.606 12.3594 127.954 12.4891 127.347 12.7485C126.739 13.008 126.21 13.3664 125.766 13.817C125.319 14.2709 124.971 14.8 124.718 15.411C124.466 16.0186 124.339 16.6945 124.339 17.4386C124.339 18.152 124.469 18.8177 124.729 19.4321C124.988 20.0499 125.346 20.5824 125.797 21.0364C126.251 21.4904 126.784 21.842 127.401 22.0946C128.019 22.3472 128.698 22.4735 129.439 22.4735C130.255 22.4735 131.02 22.3028 131.733 21.9615C132.446 21.6201 133.071 21.1286 133.604 20.4903L135.699 22.5861C135.208 23.1801 134.628 23.6921 133.952 24.1222C133.276 24.5523 132.535 24.8834 131.733 25.1121C130.931 25.3476 130.122 25.4637 129.306 25.4637Z" fill="#1A263C"/>
<path d="M142.072 25.2418V12.496H136.812V9.6423H150.538V12.496H145.302V25.2418H142.072Z" fill="#1A263C"/>
<path d="M147.978 25.2418L154.395 9.6423H158.14L164.468 25.2418H160.969L159.389 21.1627H152.927L151.347 25.2418H147.978ZM153.927 18.5549H158.406L156.201 12.8066L153.927 18.5549Z" fill="#1A263C"/>
<path d="M21.4667 0.80423H10.7333V22.271H21.4667V0.80423Z" fill="#0BFFA1"/>
<path d="M21.4668 22.2666H16.1023C13.1381 22.2666 10.7378 19.862 10.7378 16.9021C10.7378 13.9379 13.1424 11.5376 16.1023 11.5376H21.4668V22.2666Z" fill="#1A263C"/>
<path d="M21.4667 22.2667C18.5025 22.2667 15.818 23.469 13.8768 25.4102C11.9357 27.3514 10.7333 30.0358 10.7333 33.0001V22.2667H21.4667Z" fill="#1A263C"/>
<path d="M21.4667 22.2667V33.0001H10.7333C10.7333 30.0358 11.9357 27.3514 13.8768 25.4102C15.818 23.469 18.5025 22.2667 21.4667 22.2667Z" fill="#0BFFA1"/>
<path d="M26.8313 22.2666H21.4668V11.5333H26.8313C29.7955 11.5333 32.1958 13.9379 32.1958 16.8977C32.1958 19.8664 29.7955 22.2666 26.8313 22.2666Z" fill="#007AFF"/>
<path d="M10.7334 22.2666H0V11.5333C5.9285 11.5333 10.7334 16.3381 10.7334 22.2666Z" fill="#007AFF"/>
</svg>
