<svg width="139" height="29" viewBox="0 0 139 29" fill="none" xmlns="http://www.w3.org/2000/svg">
<path d="M40.5112 20.8893V7.90479H47.0205C47.8729 7.90479 48.6287 8.08096 49.2821 8.43327C49.9385 8.78558 50.4471 9.26858 50.8136 9.87945C51.1773 10.4903 51.3619 11.1921 51.3619 11.9848C51.3619 12.752 51.1801 13.4367 50.8136 14.0447C50.4499 14.6499 49.9356 15.1272 49.2736 15.4739C48.6116 15.8205 47.8615 15.9938 47.0205 15.9938H43.1991V20.8893H40.5112ZM43.1991 13.7691H46.7222C47.3046 13.7691 47.7706 13.6043 48.1229 13.2776C48.4752 12.9508 48.6514 12.5275 48.6514 12.0075C48.6514 11.4649 48.4752 11.0273 48.1229 10.7006C47.7706 10.3738 47.3046 10.209 46.7222 10.209H43.1991V13.7691Z" fill="white"/>
<path d="M53.1606 20.8893V7.90479H59.4852C60.3745 7.90479 61.1587 8.07527 61.8321 8.41622C62.5055 8.75717 63.0311 9.22881 63.409 9.834C63.7869 10.4392 63.9744 11.1381 63.9744 11.9308C63.9744 12.7463 63.7443 13.4736 63.2868 14.1101C62.8294 14.7465 62.2185 15.221 61.4514 15.5278L64.3267 20.8893H61.3207L58.7806 15.9199H55.8513V20.8893H53.1606ZM55.8513 13.7123H59.2636C59.8688 13.7123 60.3547 13.5503 60.7183 13.2293C61.082 12.9082 61.2667 12.4877 61.2667 11.9678C61.2667 11.4365 61.0849 11.0103 60.7183 10.6892C60.3547 10.3682 59.8688 10.2062 59.2636 10.2062H55.8513V13.7123Z" fill="white"/>
<path d="M72.1549 21.0939C71.1917 21.0939 70.2911 20.9234 69.4557 20.5825C68.6204 20.2415 67.8902 19.767 67.268 19.1533C66.6429 18.5424 66.1542 17.8293 65.8019 17.0195C65.4496 16.2098 65.2734 15.3347 65.2734 14.3942C65.2734 13.4538 65.4496 12.5787 65.8019 11.7689C66.1542 10.9592 66.6429 10.2489 67.268 9.63515C67.893 9.02429 68.6233 8.54695 69.4557 8.206C70.2911 7.86505 71.1889 7.69458 72.1549 7.69458C73.1067 7.69458 74.0017 7.86505 74.8342 8.206C75.6695 8.54695 76.3969 9.02144 77.022 9.63515C77.647 10.246 78.1329 10.9592 78.4767 11.7689C78.8233 12.5787 78.9966 13.4538 78.9966 14.3942C78.9966 15.3347 78.8233 16.2098 78.4767 17.0195C78.13 17.8293 77.6442 18.5396 77.022 19.1533C76.3969 19.7642 75.6667 20.2415 74.8342 20.5825C73.9989 20.9234 73.1067 21.0939 72.1549 21.0939ZM72.1549 18.6277C72.7374 18.6277 73.2744 18.5197 73.7687 18.3038C74.2631 18.0878 74.695 17.7895 75.0672 17.4145C75.4394 17.0366 75.7292 16.5905 75.9395 16.0706C76.1497 15.5506 76.2548 14.9937 76.2548 14.3999C76.2548 13.7805 76.1497 13.218 75.9395 12.7122C75.7292 12.2065 75.4394 11.7632 75.0672 11.3853C74.695 11.0075 74.2631 10.712 73.7687 10.4961C73.2744 10.2801 72.7431 10.1722 72.1748 10.1722C71.581 10.1722 71.0355 10.2801 70.5326 10.4961C70.0325 10.712 69.595 11.0103 69.2256 11.3853C68.8534 11.7632 68.5636 12.2036 68.3533 12.7122C68.1431 13.218 68.038 13.7692 68.038 14.363C68.038 14.9824 68.1431 15.5506 68.3533 16.0706C68.5636 16.5905 68.8534 17.0394 69.2256 17.4145C69.5978 17.7924 70.0325 18.0878 70.5326 18.3038C71.0326 18.5197 71.5725 18.6277 72.1549 18.6277Z" fill="white"/>
<path d="M83.5781 20.8893V10.2801H79.1997V7.90479H90.6243V10.2801H86.2659V20.8893H83.5781Z" fill="white"/>
<path d="M92.1279 20.8893V7.90479H102.106V10.2431H94.8186V13.2094H99.6231V15.454H94.8186V18.5509H102.183V20.8893H92.1279Z" fill="white"/>
<path d="M109.73 21.0768C108.766 21.0768 107.863 20.9063 107.022 20.5653C106.181 20.2244 105.448 19.7527 104.823 19.1475C104.198 18.5424 103.709 17.8349 103.357 17.0251C103.004 16.2154 102.828 15.3403 102.828 14.3998C102.828 13.4594 103.004 12.5843 103.357 11.7745C103.709 10.9648 104.2 10.2545 104.831 9.64077C105.462 9.0299 106.195 8.55256 107.03 8.21162C107.866 7.87067 108.763 7.7002 109.73 7.7002C110.446 7.7002 111.139 7.79963 111.806 7.99568C112.474 8.19456 113.096 8.47301 113.67 8.831C114.244 9.189 114.736 9.62371 115.145 10.1295L113.326 11.9109C112.869 11.3285 112.332 10.8937 111.713 10.6039C111.093 10.3141 110.434 10.1692 109.73 10.1692C109.147 10.1692 108.604 10.2772 108.099 10.4931C107.593 10.7091 107.152 11.0074 106.783 11.3824C106.411 11.7603 106.121 12.2007 105.911 12.7093C105.701 13.215 105.595 13.7776 105.595 14.397C105.595 14.9908 105.703 15.5449 105.919 16.0563C106.135 16.5705 106.434 17.0138 106.809 17.3917C107.187 17.7695 107.63 18.0622 108.144 18.2725C108.658 18.4827 109.224 18.5878 109.84 18.5878C110.519 18.5878 111.156 18.4458 111.75 18.1616C112.343 17.8775 112.863 17.4684 113.307 16.9371L115.051 18.6816C114.642 19.176 114.159 19.6022 113.596 19.9602C113.034 20.3182 112.417 20.5937 111.75 20.7841C111.085 20.9802 110.409 21.0768 109.73 21.0768Z" fill="white"/>
<path d="M120.359 20.8893V10.2801H115.98V7.90479H127.405V10.2801H123.047V20.8893H120.359Z" fill="white"/>
<path d="M125.274 20.8893L130.616 7.90479H133.733L139 20.8893H136.088L134.773 17.494H129.394L128.079 20.8893H125.274ZM130.224 15.3261H133.952L132.116 10.5415L130.224 15.3261Z" fill="white"/>
<path d="M18.9385 0H9.46924V18.9385H18.9385V0Z" fill="#0BFFA1"/>
<path d="M18.9386 18.9387H14.2059C11.5907 18.9387 9.47314 16.8172 9.47314 14.206C9.47314 11.5908 11.5946 9.47327 14.2059 9.47327H18.9386V18.9387Z" fill="#1A263C"/>
<path d="M18.9385 18.9386H9.46924V28.4079H18.9385V18.9386Z" fill="#1A263C"/>
<path d="M18.9385 28.4079H9.46924C9.46924 23.1776 13.7082 18.9386 18.9385 18.9386V28.4079Z" fill="#0BFFA1"/>
<path d="M23.6717 18.9384H18.939V9.46912H23.6717C26.2868 9.46912 28.4044 11.5906 28.4044 14.2018C28.4044 16.817 26.2868 18.9384 23.6717 18.9384Z" fill="white"/>
<path d="M9.4693 18.9384H0V9.46912C5.23028 9.46912 9.4693 13.7081 9.4693 18.9384Z" fill="white"/>
</svg>
