<svg width="74" height="75" viewBox="0 0 74 75" fill="none" xmlns="http://www.w3.org/2000/svg">
<path d="M49.45 0.419983H24.9V49.52H49.45V0.419983Z" fill="#0BFFA1"/>
<path d="M49.45 49.51H37.18C30.4 49.51 24.91 44.01 24.91 37.24C24.91 30.46 30.41 24.97 37.18 24.97H49.45V49.51Z" fill="#1A263C"/>
<path d="M49.45 49.51C42.67 49.51 36.53 52.26 32.09 56.7C27.65 61.14 24.9 67.28 24.9 74.06V49.51H49.45Z" fill="#1A263C"/>
<path d="M49.45 49.51V74.06H24.9C24.9 67.28 27.65 61.14 32.09 56.7C36.53 52.26 42.67 49.51 49.45 49.51Z" fill="#0BFFA1"/>
<path d="M61.72 49.51H49.45V24.96H61.72C68.5 24.96 73.99 30.46 73.99 37.23C73.99 44.02 68.5 49.51 61.72 49.51Z" fill="#007AFF"/>
<path d="M24.9 49.51H0.349976V24.96C13.91 24.96 24.9 35.95 24.9 49.51Z" fill="#007AFF"/>
</svg>
