<svg width="268" height="120" viewBox="0 0 268 120" fill="none" xmlns="http://www.w3.org/2000/svg">
<path d="M-1 120C21.6504 82.0283 187.5 196 267.5 -0.999934L-1 -1V120Z" fill="#F3F9FF"/>
<path d="M61.4585 83.174V70.8035H67.66C68.472 70.8035 69.1921 70.9714 69.8147 71.307C70.4399 71.6427 70.9245 72.1028 71.2737 72.6848C71.6202 73.2668 71.7961 73.9354 71.7961 74.6906C71.7961 75.4215 71.6229 76.0738 71.2737 76.6531C70.9272 77.2297 70.4372 77.6844 69.8065 78.0147C69.1758 78.3449 68.4612 78.51 67.66 78.51H64.0192V83.174H61.4585ZM64.0192 76.3878H67.3757C67.9307 76.3878 68.3746 76.2308 68.7102 75.9195C69.0459 75.6082 69.2137 75.2049 69.2137 74.7096C69.2137 74.1925 69.0459 73.7757 68.7102 73.4644C68.3746 73.1531 67.9307 72.9961 67.3757 72.9961H64.0192V76.3878Z" fill="#1A263C"/>
<path d="M73.5095 83.174V70.8035H79.535C80.3823 70.8035 81.1294 70.9659 81.7709 71.2908C82.4125 71.6156 82.9132 72.0649 83.2733 72.6415C83.6333 73.2181 83.8119 73.884 83.8119 74.6392C83.8119 75.4161 83.5927 76.109 83.1569 76.7154C82.721 77.3217 82.1391 77.7737 81.4082 78.0661L84.1476 83.174H81.2837L78.8637 78.4396H76.0729V83.174H73.5095ZM76.0729 76.3337H79.3239C79.9005 76.3337 80.3634 76.1794 80.7098 75.8735C81.0563 75.5676 81.2323 75.167 81.2323 74.6717C81.2323 74.1655 81.059 73.7594 80.7098 73.4536C80.3634 73.1477 79.9005 72.9934 79.3239 72.9934H76.0729V76.3337Z" fill="#1A263C"/>
<path d="M91.605 83.3689C90.6874 83.3689 89.8293 83.2065 89.0335 82.8817C88.2377 82.5569 87.542 82.1048 86.9492 81.5201C86.3537 80.9382 85.8881 80.2587 85.5524 79.4873C85.2168 78.7158 85.049 77.8821 85.049 76.9861C85.049 76.0901 85.2168 75.2564 85.5524 74.4849C85.8881 73.7135 86.3537 73.0368 86.9492 72.4521C87.5447 71.8701 88.2404 71.4153 89.0335 71.0905C89.8293 70.7657 90.6847 70.6033 91.605 70.6033C92.5118 70.6033 93.3645 70.7657 94.1576 71.0905C94.9534 71.4153 95.6464 71.8674 96.2419 72.4521C96.8374 73.034 97.3003 73.7135 97.6278 74.4849C97.9581 75.2564 98.1232 76.0901 98.1232 76.9861C98.1232 77.8821 97.9581 78.7158 97.6278 79.4873C97.2976 80.2587 96.8347 80.9354 96.2419 81.5201C95.6464 82.1021 94.9507 82.5569 94.1576 82.8817C93.3645 83.2065 92.5118 83.3689 91.605 83.3689ZM91.605 81.0167C92.1599 81.0167 92.6715 80.9138 93.1425 80.7081C93.6135 80.5023 94.025 80.2181 94.3796 79.8608C94.7342 79.5008 95.0103 79.0758 95.2106 78.5805C95.4109 78.0851 95.5111 77.5545 95.5111 76.9888C95.5111 76.3987 95.4109 75.8627 95.2106 75.3809C95.0103 74.8991 94.7342 74.4768 94.3796 74.1168C94.025 73.7568 93.6135 73.4753 93.1425 73.2695C92.6715 73.0638 92.1653 72.961 91.624 72.961C91.0582 72.961 90.5385 73.0638 90.0594 73.2695C89.583 73.4753 89.1661 73.7595 88.8142 74.1168C88.4596 74.4768 88.1835 74.8964 87.9832 75.3809C87.7829 75.8627 87.6827 76.3879 87.6827 76.9536C87.6827 77.5437 87.7829 78.0851 87.9832 78.5805C88.1835 79.0758 88.4596 79.5035 88.8142 79.8608C89.1688 80.2208 89.583 80.5023 90.0594 80.7081C90.5358 80.9138 91.0501 81.0167 91.605 81.0167Z" fill="#1A263C"/>
<path d="M102.49 83.174V73.0665H98.3182V70.8035H109.203V73.0665H105.05V83.174H102.49Z" fill="#1A263C"/>
<path d="M110.634 83.174V70.8035H120.141V73.0313H113.198V75.8573H117.775V77.9957H113.198V80.9462H120.214V83.174H110.634Z" fill="#1A263C"/>
<path d="M127.404 83.35C126.486 83.35 125.625 83.1876 124.824 82.8628C124.023 82.538 123.324 82.0886 122.729 81.512C122.133 80.9355 121.668 80.2615 121.332 79.49C120.996 78.7185 120.829 77.8848 120.829 76.9888C120.829 76.0929 120.996 75.2591 121.332 74.4877C121.668 73.7162 122.136 73.0395 122.737 72.4548C123.338 71.8728 124.036 71.4181 124.832 71.0932C125.628 70.7684 126.483 70.606 127.404 70.606C128.086 70.606 128.746 70.7007 129.382 70.8875C130.018 71.077 130.611 71.3423 131.158 71.6833C131.705 72.0244 132.173 72.4386 132.563 72.9204L130.831 74.6176C130.395 74.0627 129.883 73.6485 129.293 73.3724C128.703 73.0963 128.075 72.9583 127.404 72.9583C126.849 72.9583 126.332 73.0611 125.85 73.2669C125.368 73.4726 124.948 73.7568 124.597 74.1141C124.242 74.4741 123.966 74.8937 123.766 75.3782C123.565 75.8601 123.465 76.396 123.465 76.9861C123.465 77.5519 123.568 78.0797 123.774 78.567C123.979 79.0569 124.264 79.4792 124.621 79.8392C124.981 80.1992 125.403 80.478 125.893 80.6783C126.383 80.8786 126.922 80.9788 127.509 80.9788C128.156 80.9788 128.763 80.8434 129.328 80.5727C129.894 80.3021 130.389 79.9123 130.812 79.4061L132.474 81.0681C132.084 81.5391 131.624 81.9451 131.088 82.2862C130.552 82.6273 129.964 82.8899 129.328 83.0712C128.695 83.258 128.051 83.35 127.404 83.35Z" fill="#1A263C"/>
<path d="M137.53 83.174V73.0665H133.359V70.8035H144.243V73.0665H140.091V83.174H137.53Z" fill="#1A263C"/>
<path d="M142.213 83.174L147.302 70.8035H150.272L155.29 83.174H152.516L151.262 79.9393H146.138L144.885 83.174H142.213ZM146.929 77.8712H150.48L148.731 73.3128L146.929 77.8712Z" fill="#1A263C"/>
<path d="M37.3564 63.6033H28.3232V81.6697H37.3564V63.6033Z" fill="#0BFFA1"/>
<path d="M37.3563 81.666H32.8415C30.3468 81.666 28.3268 79.6423 28.3268 77.1513C28.3268 74.6566 30.3505 72.6365 32.8415 72.6365H37.3563V81.666Z" fill="#1A263C"/>
<path d="M37.3564 81.666C34.8617 81.666 32.6025 82.6779 30.9688 84.3116C29.3351 85.9453 28.3232 88.2045 28.3232 90.6992V81.666H37.3564Z" fill="#1A263C"/>
<path d="M37.3564 81.666V90.6992H28.3232C28.3232 88.2045 29.3351 85.9453 30.9688 84.3116C32.6025 82.6779 34.8617 81.666 37.3564 81.666Z" fill="#0BFFA1"/>
<path d="M41.8711 81.666H37.3563V72.6328H41.8711C44.3658 72.6328 46.3858 74.6565 46.3858 77.1476C46.3858 79.6459 44.3658 81.666 41.8711 81.666Z" fill="#007AFF"/>
<path d="M28.3233 81.666H19.29V72.6328C24.2795 72.6328 28.3233 76.6766 28.3233 81.666Z" fill="#007AFF"/>
</svg>
