<svg width="18" height="19" viewBox="0 0 18 19" fill="none" xmlns="http://www.w3.org/2000/svg">
<mask id="mask0_659_112" style="mask-type:alpha" maskUnits="userSpaceOnUse" x="0" y="0" width="18" height="19">
<rect y="0.704102" width="18" height="18" fill="#D9D9D9"/>
</mask>
<g mask="url(#mask0_659_112)">
<path d="M5.25 17.9541C4.8375 17.9541 4.48438 17.8072 4.19063 17.5135C3.89688 17.2197 3.75 16.8666 3.75 16.4541V2.9541C3.75 2.5416 3.89688 2.18848 4.19063 1.89473C4.48438 1.60098 4.8375 1.4541 5.25 1.4541H10.5V5.2041H5.25V14.2041H12.75V12.7041H14.25V16.4541C14.25 16.8666 14.1031 17.2197 13.8094 17.5135C13.5156 17.8072 13.1625 17.9541 12.75 17.9541H5.25ZM13.5 11.2041L9.75 7.4541L10.8 6.4041L12.75 8.3541V2.9541H14.25V8.3541L16.2 6.4041L17.25 7.4541L13.5 11.2041Z" fill="#007AFF"/>
</g>
</svg>
