<svg width="146" height="147" viewBox="0 0 146 147" fill="none" xmlns="http://www.w3.org/2000/svg">
<path d="M97.3466 0H48.6734V97.3465H97.3466V0Z" fill="#0BFFA1"/>
<path d="M97.3466 97.3465H73.0198C59.5777 97.3465 48.6931 86.4421 48.6931 73.0198C48.6931 59.5776 59.5975 48.6931 73.0198 48.6931H97.3466V97.3465Z" fill="#1A263C"/>
<path d="M97.3466 97.3465H48.6734V146.02H97.3466V97.3465Z" fill="#1A263C"/>
<path d="M97.3466 146.02H48.6734C48.6734 119.135 70.4623 97.3465 97.3466 97.3465V146.02Z" fill="#0BFFA1"/>
<path d="M121.673 97.3465H97.3466V48.6732H121.673C135.115 48.6732 146 59.5777 146 73C146 86.4421 135.115 97.3465 121.673 97.3465Z" fill="white"/>
<path d="M48.6734 97.3465H0V48.6732C26.8843 48.6732 48.6734 70.4622 48.6734 97.3465Z" fill="white"/>
</svg>
